<!-- Exported by Character Map UWP -->
<svg height="100%" viewBox="32 0 992 1024" width="100%" xmlns="http://www.w3.org/2000/svg" xmlns:xlink="http://www.w3.org/1999/xlink">
  <path d="M352,64C343.333,64.0001 335.833,60.8334 329.5,54.5C323.167,48.1667 320,40.6667 320,32C320,23.3334 323.167,15.8334 329.5,9.5C335.833,3.16669 343.333,0 352,0L608,0C616.667,0 624.167,3.16669 630.5,9.5C636.833,15.8334 640,23.3334 640,32C640,40.6667 636.833,48.1667 630.5,54.5C624.167,60.8334 616.667,64.0001 608,64ZM787,146C787,137 790.25,129.417 796.75,123.25C803.25,117.083 810.833,114 819.5,114C828.167,114 835.667,117.167 842,123.5L932.5,214C938.833,220.333 942,227.833 942,236.5C942,245.167 938.833,252.667 932.5,259C926.167,265.333 918.667,268.5 910,268.5C901.333,268.5 893.833,265.333 887.5,259L796.5,168.5C790.167,162.167 787,154.667 787,146ZM32,576C32,534.667 37.3333,494.917 48,456.75C58.6667,418.583 73.75,382.917 93.25,349.75C112.75,316.583 136.083,286.417 163.25,259.25C190.417,232.083 220.583,208.75 253.75,189.25C286.917,169.75 322.583,154.667 360.75,144C398.917,133.333 438.667,128 480,128C517.667,128 554.167,132.5 589.5,141.5C624.833,150.5 658.167,163.333 689.5,180C720.833,196.667 749.833,216.75 776.5,240.25C803.167,263.75 826.667,290.083 847,319.25C867.333,348.417 884.167,379.917 897.5,413.75C910.833,447.583 919.833,483.167 924.5,520.5C913.833,517.5 903,515.333 892,514C881,512.667 869.833,512 858.5,512C853.167,481.333 844.5,452.083 832.5,424.25C820.5,396.417 805.667,370.667 788,347C770.333,323.333 750.25,301.917 727.75,282.75C705.25,263.583 680.833,247.333 654.5,234C628.167,220.667 600.25,210.333 570.75,203C541.25,195.667 511,192 480,192C444.667,192 410.667,196.583 378,205.75C345.333,214.917 314.75,227.833 286.25,244.5C257.75,261.167 231.833,281.167 208.5,304.5C185.167,327.833 165.167,353.75 148.5,382.25C131.833,410.75 118.917,441.333 109.75,474C100.583,506.667 96,540.667 96,576C96,611.333 100.583,645.417 109.75,678.25C118.917,711.083 131.833,741.667 148.5,770C165.167,798.333 185.167,824.167 208.5,847.5C231.833,870.833 257.667,890.833 286,907.5C314.333,924.167 344.917,937.083 377.75,946.25C410.583,955.417 444.667,960 480,960C490.667,960 501.333,959.5 512,958.5L512,1023C506.667,1023.33 501.333,1023.58 496,1023.75C490.667,1023.92 485.333,1024 480,1024C438.667,1024 398.917,1018.67 360.75,1008C322.583,997.333 286.917,982.25 253.75,962.75C220.583,943.25 190.417,919.917 163.25,892.75C136.083,865.583 112.75,835.417 93.25,802.25C73.75,769.083 58.6667,733.417 48,695.25C37.3333,657.083 32,617.333 32,576ZM448,544L448,288C448,279.333 451.167,271.833 457.5,265.5C463.833,259.167 471.333,256 480,256C488.667,256 496.167,259.167 502.5,265.5C508.833,271.833 512,279.333 512,288L512,544C512,552.667 508.833,560.167 502.5,566.5C496.167,572.833 488.667,576 480,576C471.333,576 463.833,572.833 457.5,566.5C451.167,560.167 448,552.667 448,544ZM576,668L530,698.5C524.333,702.167 518.333,704 512,704C503.333,704 495.833,700.833 489.5,694.5C483.167,688.167 480,680.667 480,672C480,660.667 484.833,651.833 494.5,645.5L590.5,581.5C596.167,577.833 602.167,576 608.5,576C617.167,576 624.583,579.167 630.75,585.5C636.917,591.833 640,599.333 640,608L640,992C640,1000.67 636.833,1008.17 630.5,1014.5C624.167,1020.83 616.667,1024 608,1024C599.333,1024 591.833,1020.83 585.5,1014.5C579.167,1008.17 576,1000.67 576,992ZM704,800C704,786.333 704.5,771.333 705.5,755C706.5,738.667 708.75,722.5 712.25,706.5C715.75,690.5 720.667,675.25 727,660.75C733.333,646.25 741.833,633.833 752.5,623.5C768.167,608.5 785.167,596.833 803.5,588.5C821.833,580.167 842,576 864,576C886,576 906.083,580.167 924.25,588.5C942.417,596.833 959.333,608.5 975,623.5C985.667,633.833 994.167,646.25 1000.5,660.75C1006.83,675.25 1011.75,690.5 1015.25,706.5C1018.75,722.5 1021.08,738.583 1022.25,754.75C1023.42,770.917 1024,786 1024,800C1024,814 1023.42,829.083 1022.25,845.25C1021.08,861.417 1018.75,877.5 1015.25,893.5C1011.75,909.5 1006.83,924.75 1000.5,939.25C994.167,953.75 985.667,966.167 975,976.5C959.333,991.5 942.417,1003.17 924.25,1011.5C906.083,1019.83 886,1024 864,1024C842,1024 821.833,1019.83 803.5,1011.5C785.167,1003.17 768.167,991.5 752.5,976.5C741.833,966.167 733.333,953.75 727,939.25C720.667,924.75 715.75,909.5 712.25,893.5C708.75,877.5 706.5,861.333 705.5,845C704.5,828.667 704,813.667 704,800ZM960,800C960,791.667 959.75,782.75 959.25,773.25C958.75,763.75 957.917,754.25 956.75,744.75C955.583,735.25 953.833,726 951.5,717C949.167,708 946.167,699.667 942.5,692C938.5,684 933.5,675.667 927.5,667C921.5,658.333 914.167,652.167 905.5,648.5C892.167,642.833 878.333,640 864,640C842.333,640 825.083,645.25 812.25,655.75C799.417,666.25 789.75,679.417 783.25,695.25C776.75,711.083 772.583,728.333 770.75,747C768.917,765.667 768,783.333 768,800C768,816.667 768.917,834.333 770.75,853C772.583,871.667 776.75,888.917 783.25,904.75C789.75,920.583 799.417,933.75 812.25,944.25C825.083,954.75 842.333,960 864,960C871,960 878,959.333 885,958C892,956.667 898.833,954.667 905.5,952C914.167,948.333 921.5,942.083 927.5,933.25C933.5,924.417 938.5,916 942.5,908C946.167,900.333 949.167,892 951.5,883C953.833,874 955.583,864.75 956.75,855.25C957.917,845.75 958.75,836.25 959.25,826.75C959.75,817.25 960,808.333 960,800Z" fill="#FFFFFF" fill-opacity="1">
  </path>
</svg>