<!-- Exported by Character Map UWP -->
<svg height="100%" viewBox="0 128 1024 768" width="100%" xmlns="http://www.w3.org/2000/svg" xmlns:xlink="http://www.w3.org/1999/xlink">
  <path d="M0,416L0,160C0,151.333 3.16667,143.833 9.5,137.5C15.8333,131.167 23.3333,128 32,128C40.6667,128 48.1667,131.167 54.5,137.5C60.8333,143.833 64,151.333 64,160L64,416C64,424.667 60.8333,432.167 54.5,438.5C48.1667,444.833 40.6667,448 32,448C23.3333,448 15.8333,444.833 9.5,438.5C3.16667,432.167 0,424.667 0,416ZM160,192C151.333,192 143.833,188.833 137.5,182.5C131.167,176.167 128,168.667 128,160C128,151.333 131.167,143.833 137.5,137.5C143.833,131.167 151.333,128 160,128L864,128C872.667,128 880.167,131.167 886.5,137.5C892.833,143.833 896,151.333 896,160C896,168.667 892.833,176.167 886.5,182.5C880.167,188.833 872.667,192 864,192ZM960,416L960,160C960,151.333 963.167,143.833 969.5,137.5C975.833,131.167 983.333,128 992,128C1000.67,128 1008.17,131.167 1014.5,137.5C1020.83,143.833 1024,151.333 1024,160L1024,416C1024,424.667 1020.83,432.167 1014.5,438.5C1008.17,444.833 1000.67,448 992,448C983.333,448 975.833,444.833 969.5,438.5C963.167,432.167 960,424.667 960,416ZM320,512C320,498 320.417,483.5 321.25,468.5C322.083,453.5 323.917,438.917 326.75,424.75C329.583,410.583 333.583,397.167 338.75,384.5C343.917,371.833 350.917,360.667 359.75,351C368.583,341.333 379.417,333.75 392.25,328.25C405.083,322.75 420.667,320 439,320C456,320 472.417,323 488.25,329C504.083,335 517,345.333 527,360C531,366 533,372.333 533,379C533,387.667 529.833,395.167 523.5,401.5C517.167,407.833 509.667,411 501,411C493.333,411 487.917,409.583 484.75,406.75C481.583,403.917 478.333,400.833 475,397.5C471.667,394.167 467.25,391.083 461.75,388.25C456.25,385.417 447.333,384 435,384C424.667,384 416.5,386.583 410.5,391.75C404.5,396.917 399.833,403.417 396.5,411.25C393.167,419.083 390.833,427.583 389.5,436.75C388.167,445.917 387,454.5 386,462.5C399.333,456.5 413.833,453.5 429.5,453.5C447.833,453.5 464.083,456.417 478.25,462.25C492.417,468.083 504.333,476.333 514,487C523.667,497.667 531.083,510.333 536.25,525C541.417,539.667 544,556 544,574C544,591.667 541.917,608.333 537.75,624C533.583,639.667 527.083,653.417 518.25,665.25C509.417,677.083 498.083,686.5 484.25,693.5C470.417,700.5 453.833,704 434.5,704C416.833,704 401.833,701.083 389.5,695.25C377.167,689.417 366.75,681.667 358.25,672C349.75,662.333 343,651 338,638C333,625 329.167,611.417 326.5,597.25C323.833,583.083 322.083,568.667 321.25,554C320.417,539.333 320,525.333 320,512ZM192,404C187,406.667 181.833,409.333 176.5,412C171.167,414.667 165.667,416 160,416C151.333,416 143.833,412.833 137.5,406.5C131.167,400.167 128,392.667 128,384C128,378.333 129.583,372.833 132.75,367.5C135.917,362.167 140.167,358.167 145.5,355.5L209.5,323.5C214.167,321.167 219,320 224,320C233,320 240.583,323.083 246.75,329.25C252.917,335.417 256,343 256,352L256,672C256,680.667 252.833,688.167 246.5,694.5C240.167,700.833 232.667,704 224,704C215.333,704 207.833,700.833 201.5,694.5C195.167,688.167 192,680.667 192,672ZM683,645C683,636.333 686.167,628.833 692.5,622.5C698.833,616.167 706.333,613 715,613C722,613 727.25,614.417 730.75,617.25C734.25,620.083 737.667,623.25 741,626.75C744.333,630.25 748.333,633.417 753,636.25C757.667,639.083 764.667,640.5 774,640.5L780.5,640C784.167,639.667 787.583,639.417 790.75,639.25C793.917,639.083 797.167,638.167 800.5,636.5C805.833,633.833 810.333,629.417 814,623.25C817.667,617.083 820.583,610.25 822.75,602.75C824.917,595.25 826.5,587.833 827.5,580.5C828.5,573.167 829.333,566.833 830,561.5C822.333,564.833 814.333,567.167 806,568.5C797.667,569.833 789.167,570.5 780.5,570.5C763.167,570.5 747.75,567.333 734.25,561C720.75,554.667 709.417,546 700.25,535C691.083,524 684.083,511.167 679.25,496.5C674.417,481.833 672,466.333 672,450C672,432.333 674.083,415.667 678.25,400C682.417,384.333 688.917,370.583 697.75,358.75C706.583,346.917 717.917,337.5 731.75,330.5C745.583,323.5 762.167,320 781.5,320C798.833,320 813.667,322.917 826,328.75C838.333,334.583 848.75,342.417 857.25,352.25C865.75,362.083 872.583,373.417 877.75,386.25C882.917,399.083 886.833,412.583 889.5,426.75C892.167,440.917 893.917,455.333 894.75,470C895.583,484.667 896,498.667 896,512C896,526 895.667,539.917 895,553.75C894.333,567.583 892.75,581.25 890.25,594.75C887.75,608.25 884,621.417 879,634.25C874,647.083 867.167,659.167 858.5,670.5C848.167,684.167 836.083,693.167 822.25,697.5C808.417,701.833 793.333,704 777,704C760,704 743.583,700.917 727.75,694.75C711.917,688.583 699,678.167 689,663.5C685,658.167 683,652 683,645ZM576,416C576,407.333 579.167,399.833 585.5,393.5C591.833,387.167 599.333,384 608,384C616.667,384 624.167,387.167 630.5,393.5C636.833,399.833 640,407.333 640,416C640,424.667 636.833,432.167 630.5,438.5C624.167,444.833 616.667,448 608,448C599.333,448 591.833,444.833 585.5,438.5C579.167,432.167 576,424.667 576,416ZM831.5,483.5C831.167,478.5 830.75,473.083 830.25,467.25C829.75,461.417 829.167,455.417 828.5,449.25C827.833,443.083 826.833,437.167 825.5,431.5C824.167,425.833 822.667,420.667 821,416C816.667,405.333 811.917,397.333 806.75,392C801.583,386.667 793.167,384 781.5,384C771.5,384 763.583,385.833 757.75,389.5C751.917,393.167 747.333,398.083 744,404.25C740.667,410.417 738.5,417.5 737.5,425.5C736.5,433.5 736,441.667 736,450C736,458 736.75,465.417 738.25,472.25C739.75,479.083 742.25,485.083 745.75,490.25C749.25,495.417 754,499.417 760,502.25C766,505.083 773.5,506.5 782.5,506.5C792.833,506.5 801.833,504.583 809.5,500.75C817.167,496.917 824.5,491.167 831.5,483.5ZM480,574C480,557.667 476.583,544.167 469.75,533.5C462.917,522.833 450.5,517.5 432.5,517.5C422.5,517.5 413.667,519.583 406,523.75C398.333,527.917 391.167,533.5 384.5,540.5C384.833,545.5 385.25,550.917 385.75,556.75C386.25,562.583 386.833,568.583 387.5,574.75C388.167,580.917 389.167,586.917 390.5,592.75C391.833,598.583 393.333,603.667 395,608C399.333,618.667 404.083,626.667 409.25,632C414.417,637.333 422.833,640 434.5,640C444.5,640 452.417,638.167 458.25,634.5C464.083,630.833 468.667,625.917 472,619.75C475.333,613.583 477.5,606.583 478.5,598.75C479.5,590.917 480,582.667 480,574ZM0,864L0,608C0,599.333 3.16667,591.833 9.5,585.5C15.8333,579.167 23.3333,576 32,576C40.6667,576 48.1667,579.167 54.5,585.5C60.8333,591.833 64,599.333 64,608L64,864C64,872.667 60.8333,880.167 54.5,886.5C48.1667,892.833 40.6667,896 32,896C23.3333,896 15.8333,892.833 9.5,886.5C3.16667,880.167 0,872.667 0,864ZM576,608C576,599.333 579.167,591.833 585.5,585.5C591.833,579.167 599.333,576 608,576C616.667,576 624.167,579.167 630.5,585.5C636.833,591.833 640,599.333 640,608C640,616.667 636.833,624.167 630.5,630.5C624.167,636.833 616.667,640 608,640C599.333,640 591.833,636.833 585.5,630.5C579.167,624.167 576,616.667 576,608ZM960,864L960,608C960,599.333 963.167,591.833 969.5,585.5C975.833,579.167 983.333,576 992,576C1000.67,576 1008.17,579.167 1014.5,585.5C1020.83,591.833 1024,599.333 1024,608L1024,864C1024,872.667 1020.83,880.167 1014.5,886.5C1008.17,892.833 1000.67,896 992,896C983.333,896 975.833,892.833 969.5,886.5C963.167,880.167 960,872.667 960,864ZM160,896C151.333,896 143.833,892.833 137.5,886.5C131.167,880.167 128,872.667 128,864C128,855.333 131.167,847.833 137.5,841.5C143.833,835.167 151.333,832 160,832L864,832C872.667,832 880.167,835.167 886.5,841.5C892.833,847.833 896,855.333 896,864C896,872.667 892.833,880.167 886.5,886.5C880.167,892.833 872.667,896 864,896Z" fill="#FFFFFF" fill-opacity="1">
  </path>
</svg>