<!-- Exported by Character Map UWP -->
<svg height="100%" viewBox="32 0 992 1024" width="100%" xmlns="http://www.w3.org/2000/svg" xmlns:xlink="http://www.w3.org/1999/xlink">
  <path d="M352,64C343.333,64.0001 335.833,60.8334 329.5,54.5C323.167,48.1667 320,40.6667 320,32C320,23.3334 323.167,15.8334 329.5,9.5C335.833,3.16669 343.333,0 352,0L608,0C616.667,0 624.167,3.16669 630.5,9.5C636.833,15.8334 640,23.3334 640,32C640,40.6667 636.833,48.1667 630.5,54.5C624.167,60.8334 616.667,64.0001 608,64ZM787,146C787,137 790.25,129.417 796.75,123.25C803.25,117.083 810.833,114 819.5,114C828.167,114 835.667,117.167 842,123.5L932.5,214C938.833,220.333 942,227.833 942,236.5C942,245.167 938.833,252.667 932.5,259C926.167,265.333 918.667,268.5 910,268.5C901.333,268.5 893.833,265.333 887.5,259L796.5,168.5C790.167,162.167 787,154.667 787,146ZM32,576C32,534.667 37.3333,494.917 48,456.75C58.6667,418.583 73.75,382.917 93.25,349.75C112.75,316.583 136.083,286.417 163.25,259.25C190.417,232.083 220.583,208.75 253.75,189.25C286.917,169.75 322.583,154.667 360.75,144C398.917,133.333 438.667,128 480,128C517,128 553,132.417 588,141.25C623,150.083 656.083,162.667 687.25,179C718.417,195.333 747.333,215.083 774,238.25C800.667,261.417 824.25,287.25 844.75,315.75C865.25,344.25 882.333,375.25 896,408.75C909.667,442.25 919,477.333 924,514C919,513.333 914.083,512.833 909.25,512.5C904.417,512.167 899.5,512 894.5,512C882.167,512 870.333,513 859,515C854,484 845.583,454.5 833.75,426.5C821.917,398.5 807.167,372.583 789.5,348.75C771.833,324.917 751.667,303.333 729,284C706.333,264.667 681.75,248.167 655.25,234.5C628.75,220.833 600.75,210.333 571.25,203C541.75,195.667 511.333,192 480,192C444.667,192 410.667,196.583 378,205.75C345.333,214.917 314.75,227.833 286.25,244.5C257.75,261.167 231.833,281.167 208.5,304.5C185.167,327.833 165.167,353.75 148.5,382.25C131.833,410.75 118.917,441.333 109.75,474C100.583,506.667 96,540.667 96,576C96,611.333 100.583,645.417 109.75,678.25C118.917,711.083 131.833,741.667 148.5,770C165.167,798.333 185.167,824.167 208.5,847.5C231.833,870.833 257.667,890.833 286,907.5C314.333,924.167 344.917,937.083 377.75,946.25C410.583,955.417 444.667,960 480,960C514.333,960 548,955.5 581,946.5C614,937.5 645.333,924.167 675,906.5C674,915.5 672.75,924.667 671.25,934C669.75,943.333 669,952.5 669,961.5C669,968.167 670,974.667 672,981C611,1009.67 547,1024 480,1024C438.667,1024 398.917,1018.67 360.75,1008C322.583,997.333 286.917,982.25 253.75,962.75C220.583,943.25 190.417,919.917 163.25,892.75C136.083,865.583 112.75,835.417 93.25,802.25C73.75,769.083 58.6667,733.417 48,695.25C37.3333,657.083 32,617.333 32,576ZM448,544L448,288C448,279.333 451.167,271.833 457.5,265.5C463.833,259.167 471.333,256 480,256C488.667,256 496.167,259.167 502.5,265.5C508.833,271.833 512,279.333 512,288L512,544C512,552.667 508.833,560.167 502.5,566.5C496.167,572.833 488.667,576 480,576C471.333,576 463.833,572.833 457.5,566.5C451.167,560.167 448,552.667 448,544ZM768,1024C762,1024 756.917,1022.83 752.75,1020.5C748.583,1018.17 745.25,1015.08 742.75,1011.25C740.25,1007.42 738.417,1003.08 737.25,998.25C736.083,993.417 735.5,988.333 735.5,983C735.5,968 738.333,953.5 744,939.5C749.667,925.5 756.333,912.167 764,899.5C773.333,884.833 784.667,872.5 798,862.5C811.333,852.5 825.25,843.583 839.75,835.75C854.25,827.917 868.667,820.5 883,813.5C897.333,806.5 910.167,798.667 921.5,790C932.833,781.333 942.083,771.167 949.25,759.5C956.417,747.833 960,733.167 960,715.5L960,709.5C960,698.5 957.917,688.75 953.75,680.25C949.583,671.75 943.917,664.5 936.75,658.5C929.583,652.5 921.333,647.917 912,644.75C902.667,641.583 892.833,640 882.5,640C866.5,640 851.333,643.333 837,650C822.667,656.667 812.167,667.667 805.5,683C799.833,696.667 789.833,703.5 775.5,703.5C766.5,703.5 758.917,700.5 752.75,694.5C746.583,688.5 743.5,681 743.5,672C743.5,668 744.167,664.167 745.5,660.5C750.833,646.167 758.417,633.75 768.25,623.25C778.083,612.75 789.167,604 801.5,597C813.833,590 827.083,584.75 841.25,581.25C855.417,577.75 869.833,576 884.5,576C902.833,576 920.417,579.083 937.25,585.25C954.083,591.417 968.917,600.167 981.75,611.5C994.583,622.833 1004.83,636.333 1012.5,652C1020.17,667.667 1024,685 1024,704C1024,713.667 1023.58,723.25 1022.75,732.75C1021.92,742.25 1020.33,751.833 1018,761.5C1014.67,775.167 1009,787.75 1001,799.25C993,810.75 983.583,821.167 972.75,830.5C961.917,839.833 950.333,848.25 938,855.75C925.667,863.25 913.5,869.667 901.5,875C891.833,879.333 882.083,884.25 872.25,889.75C862.417,895.25 853.083,901.5 844.25,908.5C835.417,915.5 827.417,923.25 820.25,931.75C813.083,940.25 807.5,949.667 803.5,960L992,960C1000.67,960 1008.17,963.167 1014.5,969.5C1020.83,975.833 1024,983.333 1024,992C1024,1000.67 1020.83,1008.17 1014.5,1014.5C1008.17,1020.83 1000.67,1024 992,1024Z" fill="#FFFFFF" fill-opacity="1">
  </path>
</svg>