<!-- Exported by Character Map UWP -->
<svg height="100%" viewBox="0 128 1024 768" width="100%" xmlns="http://www.w3.org/2000/svg" xmlns:xlink="http://www.w3.org/1999/xlink">
  <path d="M108,896C93,896 79,893.083 66,887.25C53,881.417 41.5833,873.583 31.75,863.75C21.9167,853.917 14.1667,842.417 8.5,829.25C2.83333,816.083 0,802.167 0,787.5L0,236.5C0,221.833 2.83333,207.917 8.5,194.75C14.1667,181.583 21.9167,170.083 31.75,160.25C41.5833,150.417 53,142.583 66,136.75C79,130.917 93,128 108,128C114,128 120,128.5 126,129.5C190.333,139.167 254.5,146.667 318.5,152C382.5,157.333 447,160 512,160C577,160 641.5,157.333 705.5,152C769.5,146.667 833.667,139.167 898,129.5C904,128.5 910,128 916,128C931,128 945,130.917 958,136.75C971,142.583 982.417,150.417 992.25,160.25C1002.08,170.083 1009.83,181.583 1015.5,194.75C1021.17,207.917 1024,221.833 1024,236.5L1024,787.5C1024,802.167 1021.17,816.083 1015.5,829.25C1009.83,842.417 1002.08,853.917 992.25,863.75C982.417,873.583 971,881.417 958,887.25C945,893.083 931,896 916,896C910,896 904,895.5 898,894.5C833.667,884.833 769.5,877.25 705.5,871.75C641.5,866.25 577,863.5 512,863.5C447,863.5 382.5,866.25 318.5,871.75C254.5,877.25 190.333,884.833 126,894.5C120,895.5 114,896 108,896ZM128,829.5L128,704C128,695 129.667,686.667 133,679C136.333,671.333 140.917,664.583 146.75,658.75C152.583,652.917 159.333,648.333 167,645C174.667,641.667 183,640 192,640L320,640L320,807L384,803L384,640C384,631 385.667,622.667 389,615C392.333,607.333 396.917,600.583 402.75,594.75C408.583,588.917 415.333,584.333 423,581C430.667,577.667 439,576 448,576L576,576C584.667,576 592.917,577.667 600.75,581C608.583,584.333 615.417,588.917 621.25,594.75C627.083,600.583 631.667,607.417 635,615.25C638.333,623.083 640,631.333 640,640L640,803L704,807L704,640L832,640C840.667,640 848.917,641.667 856.75,645C864.583,648.333 871.417,652.917 877.25,658.75C883.083,664.583 887.667,671.417 891,679.25C894.333,687.083 896,695.333 896,704L896,829.5C899.333,830.167 902.583,830.75 905.75,831.25C908.917,831.75 912.167,832 915.5,832C927.833,832 938.333,827.667 947,819C955.667,810.333 960,799.833 960,787.5L960,236.5C960,224.167 955.667,213.667 947,205C938.333,196.333 927.833,192 915.5,192C912.167,192 909.667,192.167 908,192.5C842,202.833 776.25,210.75 710.75,216.25C645.25,221.75 579,224.5 512,224.5C445,224.5 378.75,221.75 313.25,216.25C247.75,210.75 182,202.833 116,192.5C114.333,192.167 111.833,192 108.5,192C96.1667,192 85.6667,196.333 77,205C68.3333,213.667 64,224.167 64,236.5L64,787.5C64,799.833 68.3333,810.333 77,819C85.6667,827.667 96.1667,832 108.5,832C111.833,832 115.083,831.75 118.25,831.25C121.417,830.75 124.667,830.167 128,829.5ZM448,448C448,439 449.667,430.667 453,423C456.333,415.333 460.917,408.583 466.75,402.75C472.583,396.917 479.333,392.333 487,389C494.667,385.667 503,384 512,384C520.667,384 528.917,385.667 536.75,389C544.583,392.333 551.417,396.917 557.25,402.75C563.083,408.583 567.667,415.417 571,423.25C574.333,431.083 576,439.333 576,448C576,457 574.333,465.333 571,473C567.667,480.667 563.083,487.417 557.25,493.25C551.417,499.083 544.667,503.667 537,507C529.333,510.333 521,512 512,512C503,512 494.583,510.333 486.75,507C478.917,503.667 472.167,499.167 466.5,493.5C460.833,487.833 456.333,481.083 453,473.25C449.667,465.417 448,457 448,448ZM192,512C192,503 193.667,494.667 197,487C200.333,479.333 204.917,472.583 210.75,466.75C216.583,460.917 223.333,456.333 231,453C238.667,449.667 247,448 256,448C264.667,448 272.917,449.667 280.75,453C288.583,456.333 295.417,460.917 301.25,466.75C307.083,472.583 311.667,479.417 315,487.25C318.333,495.083 320,503.333 320,512C320,521 318.333,529.333 315,537C311.667,544.667 307.083,551.417 301.25,557.25C295.417,563.083 288.667,567.667 281,571C273.333,574.333 265,576 256,576C247,576 238.583,574.333 230.75,571C222.917,567.667 216.167,563.167 210.5,557.5C204.833,551.833 200.333,545.083 197,537.25C193.667,529.417 192,521 192,512ZM704,512C704,503 705.667,494.667 709,487C712.333,479.333 716.917,472.583 722.75,466.75C728.583,460.917 735.333,456.333 743,453C750.667,449.667 759,448 768,448C776.667,448 784.917,449.667 792.75,453C800.583,456.333 807.417,460.917 813.25,466.75C819.083,472.583 823.667,479.417 827,487.25C830.333,495.083 832,503.333 832,512C832,521 830.333,529.333 827,537C823.667,544.667 819.083,551.417 813.25,557.25C807.417,563.083 800.667,567.667 793,571C785.333,574.333 777,576 768,576C759,576 750.583,574.333 742.75,571C734.917,567.667 728.167,563.167 722.5,557.5C716.833,551.833 712.333,545.083 709,537.25C705.667,529.417 704,521 704,512Z" fill="#FFFFFF" fill-opacity="1">
  </path>
</svg>