<!-- Exported by Character Map UWP -->
<svg height="100%" viewBox="0 128 1024 769" width="100%" xmlns="http://www.w3.org/2000/svg" xmlns:xlink="http://www.w3.org/1999/xlink">
  <path d="M0,416L0,253.5C0,236.833 3.41667,220.917 10.25,205.75C17.0833,190.583 26.25,177.25 37.75,165.75C49.25,154.25 62.5833,145.083 77.75,138.25C92.9167,131.417 108.833,128 125.5,128L144.5,128C150.167,128 155.833,128.333 161.5,129C167.167,129.667 172.25,131.083 176.75,133.25C181.25,135.417 184.917,138.583 187.75,142.75C190.583,146.917 192,152.667 192,160C192,168.667 188.833,176.167 182.5,182.5C176.167,188.833 168.667,192 160,192L137.5,192C127.167,192 117.583,193 108.75,195C99.9167,197 91.1667,202.333 82.5,211C70.1667,223.333 64,238.333 64,256L64,416C64,424.667 60.8333,432.167 54.5,438.5C48.1667,444.833 40.6667,448 32,448C23.3333,448 15.8333,444.833 9.5,438.5C3.16667,432.167 0,424.667 0,416ZM288,192C279.333,192 271.833,188.833 265.5,182.5C259.167,176.167 256,168.667 256,160C256,151.333 259.167,143.833 265.5,137.5C271.833,131.167 279.333,128 288,128L736,128C744.667,128 752.167,131.167 758.5,137.5C764.833,143.833 768,151.333 768,160C768,168.667 764.833,176.167 758.5,182.5C752.167,188.833 744.667,192 736,192ZM832,160C832,151.333 835.167,143.833 841.5,137.5C847.833,131.167 855.333,128 864,128L898.5,128C915.167,128 931.083,131.417 946.25,138.25C961.417,145.083 974.75,154.25 986.25,165.75C997.75,177.25 1006.92,190.583 1013.75,205.75C1020.58,220.917 1024,236.833 1024,253.5L1024,416C1024,424.667 1020.83,432.167 1014.5,438.5C1008.17,444.833 1000.67,448 992,448C983.333,448 975.833,444.833 969.5,438.5C963.167,432.167 960,424.667 960,416L960,256C960,247.333 958.333,239.167 955,231.5C951.667,223.833 947,217 941,211C932.333,202.333 923.583,197 914.75,195C905.917,193 896.5,192 886.5,192L864,192C855.333,192 847.833,188.833 841.5,182.5C835.167,176.167 832,168.667 832,160ZM768,576L672,576C663.333,576 655.833,572.833 649.5,566.5C643.167,560.167 640,552.667 640,544C640,537.667 641.833,531.667 645.5,526L773.5,334C776.167,329.667 779.833,326.25 784.5,323.75C789.167,321.25 794.167,320 799.5,320C808.5,320 816.167,323.083 822.5,329.25C828.833,335.417 832,343 832,352L832,512L849,512C854.667,512 860.25,512.333 865.75,513C871.25,513.667 876.25,515.083 880.75,517.25C885.25,519.417 888.917,522.583 891.75,526.75C894.583,530.917 896,536.667 896,544C896,551.333 894.583,557.167 891.75,561.5C888.917,565.833 885.25,569.083 880.75,571.25C876.25,573.417 871.25,574.833 865.75,575.5C860.25,576.167 854.667,576.5 849,576.5C846,576.5 843.083,576.417 840.25,576.25C837.417,576.083 834.667,576 832,576L832,672C832,680.667 828.833,688.167 822.5,694.5C816.167,700.833 808.667,704 800,704C791.333,704 783.833,700.833 777.5,694.5C771.167,688.167 768,680.667 768,672ZM192,632C192,623 195.083,615.417 201.25,609.25C207.417,603.083 215,600 224,600C230.333,600 236.25,602.083 241.75,606.25C247.25,610.417 253.5,615 260.5,620C267.5,625 275.667,629.583 285,633.75C294.333,637.917 305.833,640 319.5,640C327.167,640 334.833,639 342.5,637C350.167,635 357.083,632 363.25,628C369.417,624 374.417,618.833 378.25,612.5C382.083,606.167 384,598.667 384,590C384,578 379.5,568 370.5,560C363.833,553.667 355.917,549.417 346.75,547.25C337.583,545.083 328.5,544 319.5,544C310.833,544 303.333,540.833 297,534.5C290.667,528.167 287.5,520.667 287.5,512C287.5,503.333 290.667,495.833 297,489.5C303.333,483.167 310.833,480 319.5,480C326.833,480 334.25,479 341.75,477C349.25,475 356.083,472 362.25,468C368.417,464 373.417,458.917 377.25,452.75C381.083,446.583 383,439.167 383,430.5C383,421.833 381.083,414.583 377.25,408.75C373.417,402.917 368.417,398.167 362.25,394.5C356.083,390.833 349.25,388.167 341.75,386.5C334.25,384.833 326.833,384 319.5,384C313.167,384 306.5,384.75 299.5,386.25C292.5,387.75 285.583,389.917 278.75,392.75C271.917,395.583 265.417,398.917 259.25,402.75C253.083,406.583 247.833,411 243.5,416L247.5,413.5C241.5,420.5 233.667,424 224,424C215,424 207.417,420.75 201.25,414.25C195.083,407.75 192,400.167 192,391.5C192,385.5 193.833,379.833 197.5,374.5C201.167,369.167 205.75,364.25 211.25,359.75C216.75,355.25 222.417,351.167 228.25,347.5C234.083,343.833 239.333,340.667 244,338C255.667,331.333 267.833,326.667 280.5,324C293.167,321.333 306.167,320 319.5,320C335.833,320 351.667,322.417 367,327.25C382.333,332.083 395.917,339.167 407.75,348.5C419.583,357.833 429.083,369.333 436.25,383C443.417,396.667 447,412.5 447,430.5C447,445.5 443.75,459.917 437.25,473.75C430.75,487.583 422.167,499.833 411.5,510.5C417.167,514.5 422.25,519.667 426.75,526C431.25,532.333 435.083,539.083 438.25,546.25C441.417,553.417 443.833,560.75 445.5,568.25C447.167,575.75 448,583 448,590C448,607.667 444.417,623.5 437.25,637.5C430.083,651.5 420.5,663.417 408.5,673.25C396.5,683.083 382.75,690.667 367.25,696C351.75,701.333 335.833,704 319.5,704C306.833,704 293.917,702.75 280.75,700.25C267.583,697.75 255.333,693.167 244,686.5C239.333,683.833 234.083,680.583 228.25,676.75C222.417,672.917 216.75,668.667 211.25,664C205.75,659.333 201.167,654.333 197.5,649C193.833,643.667 192,638 192,632ZM512,416C512,407.333 515.167,399.833 521.5,393.5C527.833,387.167 535.333,384 544,384C552.667,384 560.167,387.167 566.5,393.5C572.833,399.833 576,407.333 576,416C576,424.667 572.833,432.167 566.5,438.5C560.167,444.833 552.667,448 544,448C535.333,448 527.833,444.833 521.5,438.5C515.167,432.167 512,424.667 512,416ZM768,457.5L732,512L768,512ZM125.5,896C108.833,896 92.9167,892.583 77.75,885.75C62.5833,878.917 49.25,869.75 37.75,858.25C26.25,846.75 17.0833,833.417 10.25,818.25C3.41667,803.083 0,787.167 0,770.5L0,608C0,599.333 3.16667,591.833 9.5,585.5C15.8333,579.167 23.3333,576 32,576C40.6667,576 48.1667,579.167 54.5,585.5C60.8333,591.833 64,599.333 64,608L64,768C64,786 70.1667,801.167 82.5,813.5C90.8333,821.833 99.5833,827.083 108.75,829.25C117.917,831.417 127.5,832.5 137.5,832.5C141.167,832.5 144.833,832.417 148.5,832.25C152.167,832.083 156,832 160,832C168.667,832 176.167,835.167 182.5,841.5C188.833,847.833 192,855.333 192,864C192,872.667 188.833,880.167 182.5,886.5C176.167,892.833 168.667,896 160,896ZM512,608C512,599.333 515.167,591.833 521.5,585.5C527.833,579.167 535.333,576 544,576C552.667,576 560.167,579.167 566.5,585.5C572.833,591.833 576,599.333 576,608C576,616.667 572.833,624.167 566.5,630.5C560.167,636.833 552.667,640 544,640C535.333,640 527.833,636.833 521.5,630.5C515.167,624.167 512,616.667 512,608ZM832,864C832,855.333 835.167,847.833 841.5,841.5C847.833,835.167 855.333,832 864,832C868,832 871.833,832.083 875.5,832.25C879.167,832.417 882.833,832.5 886.5,832.5C896.5,832.5 906,831.417 915,829.25C924,827.083 932.667,821.833 941,813.5C953.667,800.833 960,785.667 960,768L960,608C960,599.333 963.167,591.833 969.5,585.5C975.833,579.167 983.333,576 992,576C1000.67,576 1008.17,579.167 1014.5,585.5C1020.83,591.833 1024,599.333 1024,608L1024,770.5C1024,787.167 1020.58,803.083 1013.75,818.25C1006.92,833.417 997.75,846.75 986.25,858.25C974.75,869.75 961.417,878.917 946.25,885.75C931.083,892.583 915.167,896 898.5,896C895.833,896 892.917,896.083 889.75,896.25C886.583,896.417 883.167,896.5 879.5,896.5C873.833,896.5 868.167,896.167 862.5,895.5C856.833,894.833 851.75,893.417 847.25,891.25C842.75,889.083 839.083,885.833 836.25,881.5C833.417,877.167 832,871.333 832,864ZM288,896C279.333,896 271.833,892.833 265.5,886.5C259.167,880.167 256,872.667 256,864C256,855.333 259.167,847.833 265.5,841.5C271.833,835.167 279.333,832 288,832L736,832C744.667,832 752.167,835.167 758.5,841.5C764.833,847.833 768,855.333 768,864C768,872.667 764.833,880.167 758.5,886.5C752.167,892.833 744.667,896 736,896Z" fill="#FFFFFF" fill-opacity="1">
  </path>
</svg>