<!-- Exported by Character Map UWP -->
<svg height="100%" viewBox="32 0 992 1024" width="100%" xmlns="http://www.w3.org/2000/svg" xmlns:xlink="http://www.w3.org/1999/xlink">
  <path d="M352,64C343.333,64.0001 335.833,60.8334 329.5,54.5C323.167,48.1667 320,40.6667 320,32C320,23.3334 323.167,15.8334 329.5,9.5C335.833,3.16669 343.333,0 352,0L608,0C616.667,0 624.167,3.16669 630.5,9.5C636.833,15.8334 640,23.3334 640,32C640,40.6667 636.833,48.1667 630.5,54.5C624.167,60.8334 616.667,64.0001 608,64ZM787,146C787,137 790.25,129.417 796.75,123.25C803.25,117.083 810.833,114 819.5,114C828.167,114 835.667,117.167 842,123.5L932.5,214C938.833,220.333 942,227.833 942,236.5C942,245.167 938.833,252.667 932.5,259C926.167,265.333 918.667,268.5 910,268.5C901.333,268.5 893.833,265.333 887.5,259L796.5,168.5C790.167,162.167 787,154.667 787,146ZM32,576C32,534.667 37.3333,494.917 48,456.75C58.6667,418.583 73.75,382.917 93.25,349.75C112.75,316.583 136.083,286.417 163.25,259.25C190.417,232.083 220.583,208.75 253.75,189.25C286.917,169.75 322.583,154.667 360.75,144C398.917,133.333 438.667,128 480,128C517,128 552.917,132.417 587.75,141.25C622.583,150.083 655.5,162.583 686.5,178.75C717.5,194.917 746.333,214.5 773,237.5C799.667,260.5 823.25,286.25 843.75,314.75C864.25,343.25 881.333,374.083 895,407.25C908.667,440.417 918.167,475.333 923.5,512L858.5,512C853.167,481.333 844.5,452.083 832.5,424.25C820.5,396.417 805.667,370.667 788,347C770.333,323.333 750.25,301.917 727.75,282.75C705.25,263.583 680.833,247.333 654.5,234C628.167,220.667 600.25,210.333 570.75,203C541.25,195.667 511,192 480,192C444.667,192 410.667,196.583 378,205.75C345.333,214.917 314.75,227.833 286.25,244.5C257.75,261.167 231.833,281.167 208.5,304.5C185.167,327.833 165.167,353.75 148.5,382.25C131.833,410.75 118.917,441.333 109.75,474C100.583,506.667 96,540.667 96,576C96,611.333 100.583,645.417 109.75,678.25C118.917,711.083 131.833,741.667 148.5,770C165.167,798.333 185.167,824.167 208.5,847.5C231.833,870.833 257.667,890.833 286,907.5C314.333,924.167 344.917,937.083 377.75,946.25C410.583,955.417 444.667,960 480,960C510.333,960 540,956.583 569,949.75C598,942.917 626,932.667 653,919C652.333,925.667 651.417,932.417 650.25,939.25C649.083,946.083 648.5,952.833 648.5,959.5C648.5,970.167 650.667,979.833 655,988.5C627.333,1000.17 598.833,1009 569.5,1015C540.167,1021 510.333,1024 480,1024C438.667,1024 398.917,1018.67 360.75,1008C322.583,997.333 286.917,982.25 253.75,962.75C220.583,943.25 190.417,919.917 163.25,892.75C136.083,865.583 112.75,835.417 93.25,802.25C73.75,769.083 58.6667,733.417 48,695.25C37.3333,657.083 32,617.333 32,576ZM448,544L448,288C448,279.333 451.167,271.833 457.5,265.5C463.833,259.167 471.333,256 480,256C488.667,256 496.167,259.167 502.5,265.5C508.833,271.833 512,279.333 512,288L512,544C512,552.667 508.833,560.167 502.5,566.5C496.167,572.833 488.667,576 480,576C471.333,576 463.833,572.833 457.5,566.5C451.167,560.167 448,552.667 448,544ZM721,935.5C721,926.5 724.083,918.917 730.25,912.75C736.417,906.583 744,903.5 753,903.5C763.667,903.5 772.5,908.333 779.5,918C789.5,932.333 801.75,942.917 816.25,949.75C830.75,956.583 846.667,960 864,960C875.333,960 886.667,958.167 898,954.5C909.333,950.833 919.583,945.5 928.75,938.5C937.917,931.5 945.417,923.083 951.25,913.25C957.083,903.417 960,892.333 960,880C960,867.667 957.083,856.583 951.25,846.75C945.417,836.917 937.917,828.5 928.75,821.5C919.583,814.5 909.333,809.167 898,805.5C886.667,801.833 875.333,800 864,800C850,800 836,801 822,803C817.667,803.667 813.167,804.667 808.5,806C803.833,807.333 799.167,808.667 794.5,810C789.833,811.333 785.25,812.5 780.75,813.5C776.25,814.5 772,815 768,815C759.333,815 751.833,811.917 745.5,805.75C739.167,799.583 736,792.167 736,783.5C736,780.833 736.167,778.833 736.5,777.5L768.5,602C769.833,594.333 773.5,588.083 779.5,583.25C785.5,578.417 792.333,576 800,576L992,576C1000.67,576 1008.17,579.167 1014.5,585.5C1020.83,591.833 1024,599.333 1024,608C1024,616.667 1020.83,624.167 1014.5,630.5C1008.17,636.833 1000.67,640 992,640L826.5,640L808,740.5C817.667,738.833 827.417,737.667 837.25,737C847.083,736.333 857,736 867,736C887,736 906.417,739.583 925.25,746.75C944.083,753.917 960.833,763.917 975.5,776.75C990.167,789.583 1001.92,804.833 1010.75,822.5C1019.58,840.167 1024,859.333 1024,880C1024,901 1019.58,920.25 1010.75,937.75C1001.92,955.25 990.167,970.417 975.5,983.25C960.833,996.083 944.083,1006.08 925.25,1013.25C906.417,1020.42 887,1024 867,1024C853.333,1024 839.75,1022.5 826.25,1019.5C812.75,1016.5 799.75,1012.08 787.25,1006.25C774.75,1000.42 763.25,993.083 752.75,984.25C742.25,975.417 733.333,965 726,953C722.667,947.667 721,941.833 721,935.5Z" fill="#FFFFFF" fill-opacity="1">
  </path>
</svg>