<!-- Exported by Character Map UWP -->
<svg height="100%" viewBox="0 128 1024 769" width="100%" xmlns="http://www.w3.org/2000/svg" xmlns:xlink="http://www.w3.org/1999/xlink">
  <path d="M0,416L0,253.5C0,236.833 3.41667,220.917 10.25,205.75C17.0833,190.583 26.25,177.25 37.75,165.75C49.25,154.25 62.5833,145.083 77.75,138.25C92.9167,131.417 108.833,128 125.5,128L144.5,128C150.167,128 155.833,128.333 161.5,129C167.167,129.667 172.25,131.083 176.75,133.25C181.25,135.417 184.917,138.583 187.75,142.75C190.583,146.917 192,152.667 192,160C192,168.667 188.833,176.167 182.5,182.5C176.167,188.833 168.667,192 160,192L137.5,192C127.167,192 117.583,193 108.75,195C99.9167,197 91.1667,202.333 82.5,211C70.1667,223.333 64,238.333 64,256L64,416C64,424.667 60.8333,432.167 54.5,438.5C48.1667,444.833 40.6667,448 32,448C23.3333,448 15.8333,444.833 9.5,438.5C3.16667,432.167 0,424.667 0,416ZM352,896C339,896 326.667,893.5 315,888.5C303.333,883.5 293.083,876.583 284.25,867.75C275.417,858.917 268.5,848.667 263.5,837C258.5,825.333 256,813 256,800L256,224C256,211 258.5,198.667 263.5,187C268.5,175.333 275.417,165.083 284.25,156.25C293.083,147.417 303.333,140.5 315,135.5C326.667,130.5 339,128 352,128L672,128C685,128 697.333,130.5 709,135.5C720.667,140.5 730.917,147.417 739.75,156.25C748.583,165.083 755.5,175.333 760.5,187C765.5,198.667 768,211 768,224L768,800C768,813 765.5,825.333 760.5,837C755.5,848.667 748.583,858.917 739.75,867.75C730.917,876.583 720.667,883.5 709,888.5C697.333,893.5 685,896 672,896ZM832,160C832,151.333 835.167,143.833 841.5,137.5C847.833,131.167 855.333,128 864,128L898.5,128C915.167,128 931.083,131.417 946.25,138.25C961.417,145.083 974.75,154.25 986.25,165.75C997.75,177.25 1006.92,190.583 1013.75,205.75C1020.58,220.917 1024,236.833 1024,253.5L1024,416C1024,424.667 1020.83,432.167 1014.5,438.5C1008.17,444.833 1000.67,448 992,448C983.333,448 975.833,444.833 969.5,438.5C963.167,432.167 960,424.667 960,416L960,256C960,247.333 958.333,239.167 955,231.5C951.667,223.833 947,217 941,211C932.333,202.333 923.583,197 914.75,195C905.917,193 896.5,192 886.5,192L864,192C855.333,192 847.833,188.833 841.5,182.5C835.167,176.167 832,168.667 832,160ZM672,832C680.667,832 688.167,828.833 694.5,822.5C700.833,816.167 704,808.667 704,800L704,224C704,215.333 700.833,207.833 694.5,201.5C688.167,195.167 680.667,192 672,192L352,192C343.333,192 335.833,195.167 329.5,201.5C323.167,207.833 320,215.333 320,224L320,800C320,808.667 323.167,816.167 329.5,822.5C335.833,828.833 343.333,832 352,832ZM125.5,896C108.833,896 92.9167,892.583 77.75,885.75C62.5833,878.917 49.25,869.75 37.75,858.25C26.25,846.75 17.0833,833.417 10.25,818.25C3.41667,803.083 0,787.167 0,770.5L0,608C0,599.333 3.16667,591.833 9.5,585.5C15.8333,579.167 23.3333,576 32,576C40.6667,576 48.1667,579.167 54.5,585.5C60.8333,591.833 64,599.333 64,608L64,768C64,786 70.1667,801.167 82.5,813.5C90.8333,821.833 99.5833,827.083 108.75,829.25C117.917,831.417 127.5,832.5 137.5,832.5C141.167,832.5 144.833,832.417 148.5,832.25C152.167,832.083 156,832 160,832C168.667,832 176.167,835.167 182.5,841.5C188.833,847.833 192,855.333 192,864C192,872.667 188.833,880.167 182.5,886.5C176.167,892.833 168.667,896 160,896ZM832,864C832,855.333 835.167,847.833 841.5,841.5C847.833,835.167 855.333,832 864,832C868,832 871.833,832.083 875.5,832.25C879.167,832.417 882.833,832.5 886.5,832.5C896.5,832.5 906,831.417 915,829.25C924,827.083 932.667,821.833 941,813.5C953.667,800.833 960,785.667 960,768L960,608C960,599.333 963.167,591.833 969.5,585.5C975.833,579.167 983.333,576 992,576C1000.67,576 1008.17,579.167 1014.5,585.5C1020.83,591.833 1024,599.333 1024,608L1024,770.5C1024,787.167 1020.58,803.083 1013.75,818.25C1006.92,833.417 997.75,846.75 986.25,858.25C974.75,869.75 961.417,878.917 946.25,885.75C931.083,892.583 915.167,896 898.5,896C895.833,896 892.917,896.083 889.75,896.25C886.583,896.417 883.167,896.5 879.5,896.5C873.833,896.5 868.167,896.167 862.5,895.5C856.833,894.833 851.75,893.417 847.25,891.25C842.75,889.083 839.083,885.833 836.25,881.5C833.417,877.167 832,871.333 832,864Z" fill="#FFFFFF" fill-opacity="1">
  </path>
</svg>