<!-- Exported by Character Map UWP -->
<svg height="100%" viewBox="0 0 1024 992" width="100%" xmlns="http://www.w3.org/2000/svg" xmlns:xlink="http://www.w3.org/1999/xlink">
  <path d="M391.5,64C385.833,64.0001 380.333,65.5834 375,68.75C369.667,71.9167 365.667,76.1667 363,81.5L316.5,174.5C313.833,179.833 309.833,184.083 304.5,187.25C299.167,190.417 293.667,192 288,192L160,192C146.667,192 134.167,194.5 122.5,199.5C110.833,204.5 100.667,211.333 92,220C83.3333,228.667 76.5,238.833 71.5,250.5C66.5,262.167 64,274.667 64,288L64,800C64,813.333 66.5,825.833 71.5,837.5C76.5,849.167 83.3333,859.333 92,868C100.667,876.667 110.833,883.5 122.5,888.5C134.167,893.5 146.667,896 160,896L422.5,896C434.167,919.333 448.167,940.667 464.5,960L160,960C138,960 117.25,955.833 97.75,947.5C78.25,939.167 61.25,927.75 46.75,913.25C32.25,898.75 20.8333,881.75 12.5,862.25C4.16667,842.75 0,822 0,800L0,288C0,266 4.16667,245.25 12.5,225.75C20.8333,206.25 32.25,189.25 46.75,174.75C61.25,160.25 78.25,148.833 97.75,140.5C117.25,132.167 138,128 160,128L268,128L305.5,53C313.833,36.6667 325.75,23.75 341.25,14.25C356.75,4.75 373.5,0 391.5,0L632.5,0C650.5,0 667.25,4.75 682.75,14.25C698.25,23.75 710.167,36.6667 718.5,53L756,128L864,128C886,128 906.75,132.167 926.25,140.5C945.75,148.833 962.75,160.25 977.25,174.75C991.75,189.25 1003.17,206.25 1011.5,225.75C1019.83,245.25 1024,266 1024,288L1024,533.5C1015,520.833 1005.17,508.667 994.5,497C983.833,485.333 972.333,474.5 960,464.5L960,288C960,274.667 957.5,262.167 952.5,250.5C947.5,238.833 940.667,228.667 932,220C923.333,211.333 913.167,204.5 901.5,199.5C889.833,194.5 877.333,192 864,192L736,192C730.333,192 724.833,190.417 719.5,187.25C714.167,184.083 710.167,179.833 707.5,174.5L661,81.5C658.333,76.1667 654.333,71.9167 649,68.75C643.667,65.5834 638.167,64.0001 632.5,64ZM512,256C535,256 557.333,259 579,265C600.667,271 621.083,279.5 640.25,290.5C659.417,301.5 676.917,314.917 692.75,330.75C708.583,346.583 722.333,364.333 734,384C721.667,384 709.5,384.667 697.5,386C685.5,387.333 673.5,389.333 661.5,392C643.167,369 621,351.25 595,338.75C569,326.25 541.333,320 512,320C485.333,320 460.417,325 437.25,335C414.083,345 393.75,358.75 376.25,376.25C358.75,393.75 345,414.167 335,437.5C325,460.833 320,485.667 320,512C320,541.333 326.25,569.083 338.75,595.25C351.25,621.417 369,643.667 392,662C389.333,673.667 387.333,685.583 386,697.75C384.667,709.917 384,722 384,734C364.333,722.667 346.583,709 330.75,693C314.917,677 301.5,659.417 290.5,640.25C279.5,621.083 271,600.667 265,579C259,557.333 256,535 256,512C256,476.667 262.667,443.417 276,412.25C289.333,381.083 307.583,353.917 330.75,330.75C353.917,307.583 381.083,289.333 412.25,276C443.417,262.667 476.667,256 512,256ZM622,991.5C612,987.5 602.333,982.917 593,977.75C583.667,972.583 574.667,967 566,961C569,950.333 571.917,939.917 574.75,929.75C577.583,919.583 579,909 579,898C579,883.667 576.583,869.667 571.75,856C566.917,842.333 560.167,830 551.5,819C542.833,808 532.5,798.583 520.5,790.75C508.5,782.917 495.333,777.333 481,774L449.5,767C448.5,756.667 448,746.333 448,736C448,726 448.5,715.667 449.5,705L481,698C495.333,694.667 508.5,689.083 520.5,681.25C532.5,673.417 542.833,664 551.5,653C560.167,642 566.917,629.75 571.75,616.25C576.583,602.75 579,588.667 579,574C579,563 577.583,552.417 574.75,542.25C571.917,532.083 569,521.667 566,511C574.667,505 583.667,499.417 593,494.25C602.333,489.083 612,484.5 622,480.5C631,489.5 639.417,497.667 647.25,505C655.083,512.333 663.417,518.75 672.25,524.25C681.083,529.75 690.583,534 700.75,537C710.917,540 722.667,541.5 736,541.5C749.333,541.5 761.083,540 771.25,537C781.417,534 790.917,529.75 799.75,524.25C808.583,518.75 816.917,512.333 824.75,505C832.583,497.667 841,489.5 850,480.5C860,484.5 869.667,489.083 879,494.25C888.333,499.417 897.333,505 906,511C903,521.667 900.083,532.083 897.25,542.25C894.417,552.417 893,563 893,574C893,588.667 895.417,602.75 900.25,616.25C905.083,629.75 911.833,642 920.5,653C929.167,664 939.5,673.417 951.5,681.25C963.5,689.083 976.667,694.667 991,698L1022.5,705C1023.5,715.667 1024,726 1024,736C1024,746.333 1023.5,756.667 1022.5,767L991,774C976.667,777.333 963.5,782.917 951.5,790.75C939.5,798.583 929.167,808 920.5,819C911.833,830 905.083,842.333 900.25,856C895.417,869.667 893,883.667 893,898C893,909 894.417,919.583 897.25,929.75C900.083,939.917 903,950.333 906,961C897.333,967 888.333,972.583 879,977.75C869.667,982.917 860,987.5 850,991.5C841,982.5 832.583,974.333 824.75,967C816.917,959.667 808.583,953.25 799.75,947.75C790.917,942.25 781.417,938 771.25,935C761.083,932 749.333,930.5 736,930.5C722.667,930.5 710.917,932 700.75,935C690.583,938 681.083,942.25 672.25,947.75C663.417,953.25 655.083,959.667 647.25,967C639.417,974.333 631,982.5 622,991.5ZM800,736C800,727 798.333,718.667 795,711C791.667,703.333 787.083,696.583 781.25,690.75C775.417,684.917 768.667,680.333 761,677C753.333,673.667 745,672 736,672C727,672 718.667,673.667 711,677C703.333,680.333 696.583,684.917 690.75,690.75C684.917,696.583 680.333,703.333 677,711C673.667,718.667 672,727 672,736C672,745 673.667,753.333 677,761C680.333,768.667 684.917,775.417 690.75,781.25C696.583,787.083 703.333,791.667 711,795C718.667,798.333 727,800 736,800C745,800 753.333,798.333 761,795C768.667,791.667 775.417,787.083 781.25,781.25C787.083,775.417 791.667,768.667 795,761C798.333,753.333 800,745 800,736Z" fill="#FFFFFF" fill-opacity="1">
  </path>
</svg>