<!-- Exported by Character Map UWP -->
<svg height="100%" viewBox="0 0 1024 1024" width="100%" xmlns="http://www.w3.org/2000/svg" xmlns:xlink="http://www.w3.org/1999/xlink">
  <path d="M0,672L0,284.5C0,262.833 4.33333,242.5 13,223.5C21.6667,204.5 33.3333,187.917 48,173.75C62.6667,159.583 79.6667,148.417 99,140.25C118.333,132.083 138.667,128 160,128L851,128L777.5,54.5C771.167,48.1667 768,40.6667 768,32C768,23.3334 771.167,15.8334 777.5,9.5C783.833,3.16669 791.333,0 800,0C808.667,0 816.167,3.16669 822.5,9.5L950.5,137.5C956.833,143.833 960,151.333 960,160C960,168.667 956.833,176.167 950.5,182.5L822.5,310.5C816.167,316.833 808.667,320 800,320C791.333,320 783.833,316.833 777.5,310.5C771.167,304.167 768,296.667 768,288C768,279.333 771.167,271.833 777.5,265.5L851,192L160,192C147,192 134.667,194.5 123,199.5C111.333,204.5 101.083,211.417 92.25,220.25C83.4167,229.083 76.5,239.333 71.5,251C66.5,262.667 64,275 64,288L64,672C64,680.667 60.8333,688.167 54.5,694.5C48.1667,700.833 40.6667,704 32,704C23.3333,704 15.8333,700.833 9.5,694.5C3.16667,688.167 0,680.667 0,672ZM64,864C64,855.333 67.1667,847.833 73.5,841.5L201.5,713.5C207.833,707.167 215.333,704 224,704C232.667,704 240.167,707.167 246.5,713.5C252.833,719.833 256,727.333 256,736C256,744.667 252.833,752.167 246.5,758.5L173.5,832L864,832C877,832 889.333,829.5 901,824.5C912.667,819.5 922.917,812.583 931.75,803.75C940.583,794.917 947.5,784.667 952.5,773C957.5,761.333 960,749 960,736L960,352C960,343.333 963.167,335.833 969.5,329.5C975.833,323.167 983.333,320 992,320C1000.67,320 1008.17,323.167 1014.5,329.5C1020.83,335.833 1024,343.333 1024,352L1024,739.5C1024,761.167 1019.67,781.5 1011,800.5C1002.33,819.5 990.667,836.083 976,850.25C961.333,864.417 944.333,875.583 925,883.75C905.667,891.917 885.333,896 864,896L173.5,896L246.5,969.5C252.833,975.833 256,983.333 256,992C256,1000.67 252.833,1008.17 246.5,1014.5C240.167,1020.83 232.667,1024 224,1024C215.333,1024 207.833,1020.83 201.5,1014.5L73.5,886.5C67.1667,880.167 64,872.667 64,864ZM320,508C320,482 325.167,457.583 335.5,434.75C345.833,411.917 359.75,392 377.25,375C394.75,358 415.167,344.583 438.5,334.75C461.833,324.917 486.333,320 512,320C538.667,320 563.667,325 587,335C610.333,345 630.667,358.667 648,376C665.333,393.333 679,413.667 689,437C699,460.333 704,485.333 704,512C704,538.667 699,563.667 689,587C679,610.333 665.333,630.667 648,648C630.667,665.333 610.333,679 587,689C563.667,699 538.667,704 512,704C484.333,704 458.833,698.917 435.5,688.75C412.167,678.583 391.917,664.583 374.75,646.75C357.583,628.917 344.167,608.083 334.5,584.25C324.833,560.417 320,535 320,508ZM640,509.5C640,492.167 636.5,475.917 629.5,460.75C622.5,445.583 613.167,432.333 601.5,421C589.833,409.667 576.25,400.667 560.75,394C545.25,387.333 529,384 512,384C494.333,384 477.75,387.417 462.25,394.25C446.75,401.083 433.25,410.25 421.75,421.75C410.25,433.25 401.083,446.833 394.25,462.5C387.417,478.167 384,494.667 384,512C384,529.667 387.417,546.25 394.25,561.75C401.083,577.25 410.25,590.75 421.75,602.25C433.25,613.75 446.75,622.917 462.25,629.75C477.75,636.583 494.333,640 512,640C530,640 546.75,636.583 562.25,629.75C577.75,622.917 591.25,613.583 602.75,601.75C614.25,589.917 623.333,576.083 630,560.25C636.667,544.417 640,527.5 640,509.5Z" fill="#FFFFFF" fill-opacity="1">
  </path>
</svg>