<!-- Exported by Character Map UWP -->
<svg height="100%" viewBox="0 0 1024 1024" width="100%" xmlns="http://www.w3.org/2000/svg" xmlns:xlink="http://www.w3.org/1999/xlink">
  <path d="M768,832L348.5,832C326.833,832 306.5,827.667 287.5,819C268.5,810.333 251.917,798.667 237.75,784C223.583,769.333 212.417,752.333 204.25,733C196.083,713.667 192,693.333 192,672L192,256L32,256C23.3333,256 15.8333,252.833 9.5,246.5C3.16667,240.167 0,232.667 0,224C0,215.333 3.16667,207.833 9.5,201.5C15.8333,195.167 23.3333,192 32,192L192,192L192,32C192,23.3334 195.167,15.8334 201.5,9.5C207.833,3.16669 215.333,0 224,0C232.667,0 240.167,3.16669 246.5,9.5C252.833,15.8334 256,23.3334 256,32L256,672C256,685 258.5,697.333 263.5,709C268.5,720.667 275.417,730.917 284.25,739.75C293.083,748.583 303.333,755.5 315,760.5C326.667,765.5 339,768 352,768L992,768C1000.67,768 1008.17,771.167 1014.5,777.5C1020.83,783.833 1024,791.333 1024,800C1024,808.667 1020.83,816.167 1014.5,822.5C1008.17,828.833 1000.67,832 992,832L832,832L832,992C832,1000.67 828.833,1008.17 822.5,1014.5C816.167,1020.83 808.667,1024 800,1024C791.333,1024 783.833,1020.83 777.5,1014.5C771.167,1008.17 768,1000.67 768,992ZM320,256L320,192L675.5,192C696.5,192 716.5,196.25 735.5,204.75C754.5,213.25 771.083,224.583 785.25,238.75C799.417,252.917 810.75,269.5 819.25,288.5C827.75,307.5 832,327.5 832,348.5L832,704L768,704L768,352C768,339 765.5,326.667 760.5,315C755.5,303.333 748.583,293.083 739.75,284.25C730.917,275.417 720.667,268.5 709,263.5C697.333,258.5 685,256 672,256Z" fill="#FFFFFF" fill-opacity="1">
  </path>
</svg>