<!-- Exported by Character Map UWP -->
<svg height="100%" viewBox="32 -1 910 1024" width="100%" xmlns="http://www.w3.org/2000/svg" xmlns:xlink="http://www.w3.org/1999/xlink">
  <path d="M352,62.5C343.333,62.5001 335.833,59.3334 329.5,53C323.167,46.6667 320,39.1667 320,30.5C320,21.8334 323.167,14.3334 329.5,8C335.833,1.66669 343.333,-1.5 352,-1.5L608,-1.5C616.667,-1.5 624.167,1.66669 630.5,8C636.833,14.3334 640,21.8334 640,30.5C640,39.1667 636.833,46.6667 630.5,53C624.167,59.3334 616.667,62.5001 608,62.5ZM942,235C942,243.667 938.833,251.167 932.5,257.5C926.167,263.833 918.667,267 910,267C901.333,267 893.833,263.833 887.5,257.5L796.5,167C790.167,160.667 787,153.167 787,144.5C787,135.5 790.25,127.917 796.75,121.75C803.25,115.583 810.833,112.5 819.5,112.5C828.167,112.5 835.667,115.667 842,122L932.5,212.5C938.833,218.833 942,226.333 942,235ZM928,574.5C928,615.833 922.667,655.583 912,693.75C901.333,731.917 886.25,767.583 866.75,800.75C847.25,833.917 823.917,864.083 796.75,891.25C769.583,918.417 739.417,941.75 706.25,961.25C673.083,980.75 637.417,995.833 599.25,1006.5C561.083,1017.17 521.333,1022.5 480,1022.5C438.667,1022.5 398.917,1017.17 360.75,1006.5C322.583,995.833 286.917,980.75 253.75,961.25C220.583,941.75 190.417,918.417 163.25,891.25C136.083,864.083 112.75,833.917 93.25,800.75C73.75,767.583 58.6667,731.917 48,693.75C37.3333,655.583 32,615.833 32,574.5C32,533.167 37.3333,493.417 48,455.25C58.6667,417.083 73.75,381.417 93.25,348.25C112.75,315.083 136.083,284.917 163.25,257.75C190.417,230.583 220.583,207.25 253.75,187.75C286.917,168.25 322.583,153.167 360.75,142.5C398.917,131.833 438.667,126.5 480,126.5C521,126.5 560.583,131.833 598.75,142.5C636.917,153.167 672.583,168.25 705.75,187.75C738.917,207.25 769.167,230.667 796.5,258C823.833,285.333 847.25,315.583 866.75,348.75C886.25,381.917 901.333,417.583 912,455.75C922.667,493.917 928,533.5 928,574.5ZM480,190.5C452,190.5 424.417,193.5 397.25,199.5C370.083,205.5 344.083,214.25 319.25,225.75C294.417,237.25 270.917,251.333 248.75,268C226.583,284.667 206.333,303.667 188,325L297.5,514.5C299.5,508.167 301.833,502 304.5,496C307.167,490 310.167,484.167 313.5,478.5ZM812.5,382.5C798.833,358.167 782.583,335.75 763.75,315.25C744.917,294.75 724.25,276.583 701.75,260.75C679.25,244.917 655.167,231.583 629.5,220.75C603.833,209.917 577.333,202 550,197L440.5,386.5C447.167,385.167 453.75,384.167 460.25,383.5C466.75,382.833 473.333,382.5 480,382.5ZM147,382.5C130,411.833 117.25,442.75 108.75,475.25C100.25,507.75 96,540.833 96,574.5C96,618.5 103.333,661.167 118,702.5L337,702.5C332.667,697.5 328.5,692.333 324.5,687C320.5,681.667 316.833,676.167 313.5,670.5ZM480,446.5C462.333,446.5 445.75,449.833 430.25,456.5C414.75,463.167 401.167,472.333 389.5,484C377.833,495.667 368.667,509.25 362,524.75C355.333,540.25 352,556.833 352,574.5C352,592.167 355.417,608.75 362.25,624.25C369.083,639.75 378.25,653.25 389.75,664.75C401.25,676.25 414.75,685.417 430.25,692.25C445.75,699.083 462.333,702.5 480,702.5C497.333,702.5 513.833,699.083 529.5,692.25C545.167,685.417 558.75,676.25 570.25,664.75C581.75,653.25 590.917,639.75 597.75,624.25C604.583,608.75 608,592.167 608,574.5C608,556.833 604.667,540.25 598,524.75C591.333,509.25 582.167,495.667 570.5,484C558.833,472.333 545.25,463.167 529.75,456.5C514.25,449.833 497.667,446.5 480,446.5ZM812.5,766.5C829.5,737.167 842.333,706.333 851,674C859.667,641.667 864,608.5 864,574.5C864,530.5 856.667,487.833 842,446.5L623,446.5C627.333,451.167 631.5,456.25 635.5,461.75C639.5,467.25 643.167,472.833 646.5,478.5ZM480,958.5C537,958.5 590.667,946.917 641,923.75C691.333,900.583 735,867.333 772,824L662.5,634C660.833,640.333 658.583,646.583 655.75,652.75C652.917,658.917 649.833,664.833 646.5,670.5ZM147.5,766.5C161.5,790.833 177.833,813.25 196.5,833.75C215.167,854.25 235.75,872.417 258.25,888.25C280.75,904.083 304.75,917.417 330.25,928.25C355.75,939.083 382.333,947 410,952L519.5,762.5C512.833,763.833 506.25,764.833 499.75,765.5C493.25,766.167 486.667,766.5 480,766.5Z" fill="#FFFFFF" fill-opacity="1">
  </path>
</svg>