<!-- Exported by Character Map UWP -->
<svg height="100%" viewBox="0 0 1024 1024" width="100%" xmlns="http://www.w3.org/2000/svg" xmlns:xlink="http://www.w3.org/1999/xlink">
  <path d="M636,1024C595,1024 555.083,1017.17 516.25,1003.5C477.417,989.833 441.917,970.917 409.75,946.75C377.583,922.583 349.5,893.833 325.5,860.5C301.5,827.167 283.833,790.833 272.5,751.5C233.167,740.167 196.833,722.5 163.5,698.5C130.167,674.5 101.417,646.417 77.25,614.25C53.0833,582.083 34.1667,546.583 20.5,507.75C6.83333,468.917 0,429 0,388C0,351.667 4.58333,316.917 13.75,283.75C22.9167,250.583 35.75,219.583 52.25,190.75C68.75,161.917 88.75,135.75 112.25,112.25C135.75,88.75 161.917,68.75 190.75,52.25C219.583,35.75 250.583,22.9167 283.75,13.75C316.917,4.58337 351.667,0 388,0C429,0 468.917,6.83337 507.75,20.5C546.583,34.1667 582.083,53.0834 614.25,77.25C646.417,101.417 674.417,130.167 698.25,163.5C722.083,196.833 739.833,233.167 751.5,272.5C790.833,284.167 827.167,301.917 860.5,325.75C893.833,349.583 922.583,377.583 946.75,409.75C970.917,441.917 989.833,477.417 1003.5,516.25C1017.17,555.083 1024,595 1024,636C1024,672.333 1019.42,707.083 1010.25,740.25C1001.08,773.417 988.25,804.417 971.75,833.25C955.25,862.083 935.25,888.25 911.75,911.75C888.25,935.25 862.083,955.25 833.25,971.75C804.417,988.25 773.417,1001.08 740.25,1010.25C707.083,1019.42 672.333,1024 636,1024ZM258,678C257.333,671.667 256.833,665.333 256.5,659C256.167,652.667 256,646.333 256,640C256,587 266.083,537.25 286.25,490.75C306.417,444.25 333.917,403.583 368.75,368.75C403.583,333.917 444.25,306.417 490.75,286.25C537.25,266.083 587,256 640,256C646.333,256 652.667,256.167 659,256.5C665.333,256.833 671.667,257.333 678,258C666,229.333 649.917,203.083 629.75,179.25C609.583,155.417 586.75,135 561.25,118C535.75,101 508.167,87.7501 478.5,78.25C448.833,68.7501 418.5,64.0001 387.5,64C341.833,64.0001 299.333,72.3334 260,89C220.667,105.667 186.5,128.5 157.5,157.5C128.5,186.5 105.667,220.75 89,260.25C72.3333,299.75 64,342.167 64,387.5C64,418.5 68.75,448.833 78.25,478.5C87.75,508.167 101,535.75 118,561.25C135,586.75 155.417,609.583 179.25,629.75C203.083,649.917 229.333,666 258,678ZM960,636.5C960,605.5 955.25,575.167 945.75,545.5C936.25,515.833 923,488.25 906,462.75C889,437.25 868.583,414.417 844.75,394.25C820.917,374.083 794.667,358 766,346C766.667,352.333 767.167,358.667 767.5,365C767.833,371.333 768,377.667 768,384C768,437 757.917,486.75 737.75,533.25C717.583,579.75 690.083,620.417 655.25,655.25C620.417,690.083 579.75,717.583 533.25,737.75C486.75,757.917 437,768 384,768C377.667,768 371.333,767.833 365,767.5C358.667,767.167 352.333,766.667 346,766C358,794.667 374.083,820.917 394.25,844.75C414.417,868.583 437.25,889 462.75,906C488.25,923 515.833,936.25 545.5,945.75C575.167,955.25 605.5,960 636.5,960C681.833,960 724.25,951.667 763.75,935C803.25,918.333 837.5,895.5 866.5,866.5C895.5,837.5 918.333,803.333 935,764C951.667,724.667 960,682.167 960,636.5Z" fill="#FFFFFF" fill-opacity="1">
  </path>
</svg>