<!-- Exported by Character Map UWP -->
<svg height="100%" viewBox="0 0 1024 1024" width="100%" xmlns="http://www.w3.org/2000/svg" xmlns:xlink="http://www.w3.org/1999/xlink">
  <path d="M1024,512C1024,559 1017.92,604.333 1005.75,648C993.583,691.667 976.333,732.417 954,770.25C931.667,808.083 904.917,842.583 873.75,873.75C842.583,904.917 808.083,931.667 770.25,954C732.417,976.333 691.667,993.583 648,1005.75C604.333,1017.92 559,1024 512,1024C465,1024 419.667,1017.92 376,1005.75C332.333,993.583 291.583,976.333 253.75,954C215.917,931.667 181.417,904.917 150.25,873.75C119.083,842.583 92.3333,808.083 70,770.25C47.6667,732.417 30.4167,691.667 18.25,648C6.08333,604.333 0,559 0,512C0,465 6.08333,419.667 18.25,376C30.4167,332.333 47.6667,291.583 70,253.75C92.3333,215.917 119.083,181.417 150.25,150.25C181.417,119.083 215.917,92.3334 253.75,70C291.583,47.6667 332.333,30.4167 376,18.25C419.667,6.08337 465,0 512,0C559,0 604.333,6.08337 648,18.25C691.667,30.4167 732.417,47.6667 770.25,70C808.083,92.3334 842.583,119.083 873.75,150.25C904.917,181.417 931.667,215.917 954,253.75C976.333,291.583 993.583,332.333 1005.75,376C1017.92,419.667 1024,465 1024,512ZM173.5,805.5L805.5,173.5C764.5,138.167 718.917,111.083 668.75,92.25C618.583,73.4167 566.333,64.0001 512,64C470.667,64.0001 430.917,69.3334 392.75,80C354.583,90.6667 318.917,105.75 285.75,125.25C252.583,144.75 222.417,168.083 195.25,195.25C168.083,222.417 144.75,252.583 125.25,285.75C105.75,318.917 90.6667,354.583 80,392.75C69.3333,430.917 64,470.667 64,512C64,566.333 73.4167,618.583 92.25,668.75C111.083,718.917 138.167,764.5 173.5,805.5ZM192,352C192,343.333 195.167,335.833 201.5,329.5C207.833,323.167 215.333,320 224,320L320,320L320,224C320,215.333 323.167,207.833 329.5,201.5C335.833,195.167 343.333,192 352,192C360.667,192 368.167,195.167 374.5,201.5C380.833,207.833 384,215.333 384,224L384,320L480,320C488.667,320 496.167,323.167 502.5,329.5C508.833,335.833 512,343.333 512,352C512,360.667 508.833,368.167 502.5,374.5C496.167,380.833 488.667,384 480,384L384,384L384,480C384,488.667 380.833,496.167 374.5,502.5C368.167,508.833 360.667,512 352,512C343.333,512 335.833,508.833 329.5,502.5C323.167,496.167 320,488.667 320,480L320,384L224,384C215.333,384 207.833,380.833 201.5,374.5C195.167,368.167 192,360.667 192,352ZM960,512C960,457.667 950.583,405.417 931.75,355.25C912.917,305.083 885.833,259.5 850.5,218.5L218.5,850.5C259.5,885.833 305.083,912.917 355.25,931.75C405.417,950.583 457.667,960 512,960C553.333,960 593.083,954.667 631.25,944C669.417,933.333 705.083,918.25 738.25,898.75C771.417,879.25 801.583,855.917 828.75,828.75C855.917,801.583 879.25,771.417 898.75,738.25C918.25,705.083 933.333,669.417 944,631.25C954.667,593.083 960,553.333 960,512ZM800,640C808.667,640 816.167,643.167 822.5,649.5C828.833,655.833 832,663.333 832,672C832,680.667 828.833,688.167 822.5,694.5C816.167,700.833 808.667,704 800,704L544,704C535.333,704 527.833,700.833 521.5,694.5C515.167,688.167 512,680.667 512,672C512,663.333 515.167,655.833 521.5,649.5C527.833,643.167 535.333,640 544,640Z" fill="#FFFFFF" fill-opacity="1">
  </path>
</svg>