<!-- Exported by Character Map UWP -->
<svg height="100%" viewBox="0 134 1024 891" width="100%" xmlns="http://www.w3.org/2000/svg" xmlns:xlink="http://www.w3.org/1999/xlink">
  <path d="M1024,302.5L1024,721.5C1024,737.167 1021.42,751.833 1016.25,765.5C1011.08,779.167 1003.92,791.5 994.75,802.5C985.583,813.5 974.75,822.833 962.25,830.5C949.75,838.167 936,843.667 921,847C916.667,848 912.5,848.917 908.5,849.75C904.5,850.583 900.333,851.333 896,852L896,928C896,941 893.5,953.333 888.5,965C883.5,976.667 876.583,986.917 867.75,995.75C858.917,1004.58 848.667,1011.5 837,1016.5C825.333,1021.5 813,1024 800,1024L224,1024C211,1024 198.667,1021.5 187,1016.5C175.333,1011.5 165.083,1004.58 156.25,995.75C147.417,986.917 140.5,976.667 135.5,965C130.5,953.333 128,941 128,928L128,852C123.667,851.333 119.5,850.583 115.5,849.75C111.5,848.917 107.333,848 103,847C88,843.667 74.25,838.167 61.75,830.5C49.25,822.833 38.4167,813.5 29.25,802.5C20.0833,791.5 12.9167,779.167 7.75,765.5C2.58333,751.833 0,737.167 0,721.5L0,302.5C0,287.167 2.58333,272.583 7.75,258.75C12.9167,244.917 20.0833,232.5 29.25,221.5C38.4167,210.5 49.25,201.167 61.75,193.5C74.25,185.833 88,180.333 103,177C170,162.333 237.75,151.417 306.25,144.25C374.75,137.083 443.333,133.5 512,133.5C580.667,133.5 649.25,137.083 717.75,144.25C786.25,151.417 854,162.333 921,177C936,180.333 949.75,185.833 962.25,193.5C974.75,201.167 985.583,210.5 994.75,221.5C1003.92,232.5 1011.08,244.917 1016.25,258.75C1021.42,272.583 1024,287.167 1024,302.5ZM960,302.5C960,286.5 955.167,273 945.5,262C935.833,251 923.5,243.667 908.5,240C906.5,239.333 904.333,238.833 902,238.5L889,236C887,235.333 884.833,234.833 882.5,234.5C821.5,221.833 760.083,212.583 698.25,206.75C636.417,200.917 574.333,198 512,198C481.667,198 449.5,198.833 415.5,200.5C381.5,202.167 347.167,204.75 312.5,208.25C277.833,211.75 243.667,216.083 210,221.25C176.333,226.417 144.833,232.667 115.5,240C100.5,243.667 88.1667,251 78.5,262C68.8333,273 64,286.5 64,302.5L64,721.5C64,737.5 68.8333,751 78.5,762C88.1667,773 100.5,780.333 115.5,784C144.5,791.333 175.833,797.583 209.5,802.75C243.167,807.917 277.417,812.25 312.25,815.75C347.083,819.25 381.583,821.833 415.75,823.5C449.917,825.167 482,826 512,826C574.333,826 636.417,823.083 698.25,817.25C760.083,811.417 821.5,802.167 882.5,789.5C884.833,788.833 887,788.333 889,788L902,785.5C904.333,784.833 906.5,784.333 908.5,784C923.5,780.333 935.833,773 945.5,762C955.167,751 960,737.5 960,721.5ZM768,512L768,517C768,551.667 761.083,584.25 747.25,614.75C733.417,645.25 714.75,671.833 691.25,694.5C667.75,717.167 640.583,735.083 609.75,748.25C578.917,761.417 546.333,768 512,768C476.667,768 443.417,761.333 412.25,748C381.083,734.667 353.917,716.417 330.75,693.25C307.583,670.083 289.333,642.917 276,611.75C262.667,580.583 256,547.333 256,512C256,476.667 262.667,443.417 276,412.25C289.333,381.083 307.583,353.917 330.75,330.75C353.917,307.583 381.083,289.333 412.25,276C443.417,262.667 476.667,256 512,256C547.333,256 580.583,262.667 611.75,276C642.917,289.333 670.083,307.583 693.25,330.75C716.417,353.917 734.667,381.083 748,412.25C761.333,443.417 768,476.667 768,512ZM704,512L704,508C704,482 698.833,457.583 688.5,434.75C678.167,411.917 664.167,392 646.5,375C628.833,358 608.417,344.583 585.25,334.75C562.083,324.917 537.667,320 512,320C485.333,320 460.333,325 437,335C413.667,345 393.333,358.667 376,376C358.667,393.333 345,413.667 335,437C325,460.333 320,485.333 320,512C320,538.667 325,563.667 335,587C345,610.333 358.667,630.667 376,648C393.333,665.333 413.667,679 437,689C460.333,699 485.333,704 512,704C538.667,704 563.667,699 587,689C610.333,679 630.667,665.333 648,648C665.333,630.667 679,610.333 689,587C699,563.667 704,538.667 704,512ZM800,960C808.667,960 816.167,956.833 822.5,950.5C828.833,944.167 832,936.667 832,928L832,863.5C779,872.167 725.833,878.75 672.5,883.25C619.167,887.75 565.667,890 512,890C458.333,890 404.833,887.75 351.5,883.25C298.167,878.75 245,872.167 192,863.5L192,928C192,936.667 195.167,944.167 201.5,950.5C207.833,956.833 215.333,960 224,960Z" fill="#FFFFFF" fill-opacity="1">
  </path>
</svg>