<!-- Exported by Character Map UWP -->
<svg height="100%" viewBox="0 0 1024 1024" width="100%" xmlns="http://www.w3.org/2000/svg" xmlns:xlink="http://www.w3.org/1999/xlink">
  <path d="M0,352L0,156.5C0,135.5 4.25,115.5 12.75,96.5C21.25,77.5 32.5833,60.9167 46.75,46.75C60.9167,32.5834 77.5,21.25 96.5,12.75C115.5,4.25 135.5,0 156.5,0L352,0C360.667,0 368.167,3.16669 374.5,9.5C380.833,15.8334 384,23.3334 384,32C384,40.6667 380.833,48.1667 374.5,54.5C368.167,60.8334 360.667,64.0001 352,64L160,64C147,64.0001 134.667,66.5001 123,71.5C111.333,76.5001 101.083,83.4167 92.25,92.25C83.4167,101.083 76.5,111.333 71.5,123C66.5,134.667 64,147 64,160L64,352C64,360.667 60.8333,368.167 54.5,374.5C48.1667,380.833 40.6667,384 32,384C23.3333,384 15.8333,380.833 9.5,374.5C3.16667,368.167 0,360.667 0,352ZM640,32C640,23.3334 643.167,15.8334 649.5,9.5C655.833,3.16669 663.333,0 672,0L867.5,0C888.5,0 908.5,4.25 927.5,12.75C946.5,21.25 963.083,32.5834 977.25,46.75C991.417,60.9167 1002.75,77.5 1011.25,96.5C1019.75,115.5 1024,135.5 1024,156.5L1024,352C1024,360.667 1020.83,368.167 1014.5,374.5C1008.17,380.833 1000.67,384 992,384C983.333,384 975.833,380.833 969.5,374.5C963.167,368.167 960,360.667 960,352L960,160C960,147 957.5,134.667 952.5,123C947.5,111.333 940.583,101.083 931.75,92.25C922.917,83.4167 912.667,76.5001 901,71.5C889.333,66.5001 877,64.0001 864,64L672,64C663.333,64.0001 655.833,60.8334 649.5,54.5C643.167,48.1667 640,40.6667 640,32ZM128,480C128,476.333 128.917,472.25 130.75,467.75C132.583,463.25 134.75,458.75 137.25,454.25C139.75,449.75 142.5,445.5 145.5,441.5C148.5,437.5 151,434.167 153,431.5C197,372.5 249.417,328.5 310.25,299.5C371.083,270.5 438.333,256 512,256C548,256 583,259.667 617,267C651,274.333 683.25,285.333 713.75,300C744.25,314.667 772.75,332.917 799.25,354.75C825.75,376.583 849.667,402.167 871,431.5C873,434.167 875.417,437.5 878.25,441.5C881.083,445.5 883.833,449.667 886.5,454C889.167,458.333 891.417,462.75 893.25,467.25C895.083,471.75 896,476 896,480C896,488.667 892.833,496.167 886.5,502.5C880.167,508.833 872.667,512 864,512C857.333,512 851.75,510.417 847.25,507.25C842.75,504.083 838.833,499.667 835.5,494C818.833,465.333 798.667,440.167 775,418.5C751.333,396.833 725.417,378.667 697.25,364C669.083,349.333 639.25,338.333 607.75,331C576.25,323.667 544.333,320 512,320C449.667,320 392.333,332.25 340,356.75C287.667,381.25 242.667,418.5 205,468.5C202,472.5 199.167,476.75 196.5,481.25C193.833,485.75 191.167,490.167 188.5,494.5C184.833,499.833 180.833,504.083 176.5,507.25C172.167,510.417 166.667,512 160,512C151.333,512 143.833,508.833 137.5,502.5C131.167,496.167 128,488.667 128,480ZM320,608L320,604C320,578 325.167,553.583 335.5,530.75C345.833,507.917 359.833,488 377.5,471C395.167,454 415.583,440.583 438.75,430.75C461.917,420.917 486.333,416 512,416C538.667,416 563.667,421 587,431C610.333,441 630.667,454.667 648,472C665.333,489.333 679,509.667 689,533C699,556.333 704,581.333 704,608C704,634.667 699,659.667 689,683C679,706.333 665.333,726.667 648,744C630.667,761.333 610.333,775 587,785C563.667,795 538.667,800 512,800C485.333,800 460.333,795 437,785C413.667,775 393.333,761.333 376,744C358.667,726.667 345,706.333 335,683C325,659.667 320,634.667 320,608ZM640,608L640,605.5C640,588.167 636.5,571.917 629.5,556.75C622.5,541.583 613.167,528.333 601.5,517C589.833,505.667 576.25,496.667 560.75,490C545.25,483.333 529,480 512,480C494.333,480 477.75,483.417 462.25,490.25C446.75,497.083 433.25,506.25 421.75,517.75C410.25,529.25 401.083,542.833 394.25,558.5C387.417,574.167 384,590.667 384,608C384,625.667 387.417,642.25 394.25,657.75C401.083,673.25 410.25,686.75 421.75,698.25C433.25,709.75 446.75,718.917 462.25,725.75C477.75,732.583 494.333,736 512,736C529.333,736 545.833,732.583 561.5,725.75C577.167,718.917 590.75,709.75 602.25,698.25C613.75,686.75 622.917,673.25 629.75,657.75C636.583,642.25 640,625.667 640,608ZM156.5,1024C135.5,1024 115.5,1019.75 96.5,1011.25C77.5,1002.75 60.9167,991.417 46.75,977.25C32.5833,963.083 21.25,946.5 12.75,927.5C4.25,908.5 0,888.5 0,867.5L0,672C0,663.333 3.16667,655.833 9.5,649.5C15.8333,643.167 23.3333,640 32,640C40.6667,640 48.1667,643.167 54.5,649.5C60.8333,655.833 64,663.333 64,672L64,864C64,877 66.5,889.333 71.5,901C76.5,912.667 83.4167,922.917 92.25,931.75C101.083,940.583 111.333,947.5 123,952.5C134.667,957.5 147,960 160,960L352,960C360.667,960 368.167,963.167 374.5,969.5C380.833,975.833 384,983.333 384,992C384,1000.67 380.833,1008.17 374.5,1014.5C368.167,1020.83 360.667,1024 352,1024ZM640,992C640,983.333 643.167,975.833 649.5,969.5C655.833,963.167 663.333,960 672,960L864,960C877,960 889.333,957.5 901,952.5C912.667,947.5 922.917,940.583 931.75,931.75C940.583,922.917 947.5,912.667 952.5,901C957.5,889.333 960,877 960,864L960,672C960,663.333 963.167,655.833 969.5,649.5C975.833,643.167 983.333,640 992,640C1000.67,640 1008.17,643.167 1014.5,649.5C1020.83,655.833 1024,663.333 1024,672L1024,867.5C1024,888.5 1019.75,908.5 1011.25,927.5C1002.75,946.5 991.417,963.083 977.25,977.25C963.083,991.417 946.5,1002.75 927.5,1011.25C908.5,1019.75 888.5,1024 867.5,1024L672,1024C663.333,1024 655.833,1020.83 649.5,1014.5C643.167,1008.17 640,1000.67 640,992Z" fill="#FFFFFF" fill-opacity="1">
  </path>
</svg>