<!-- Exported by Character Map UWP -->
<svg height="100%" viewBox="0 0 1024 1024" width="100%" xmlns="http://www.w3.org/2000/svg" xmlns:xlink="http://www.w3.org/1999/xlink">
  <path d="M70.5,954.5C70.5,949.167 71.3333,943.167 73,936.5L149,640L68.5,640C57.8333,640 47.75,637.667 38.25,633C28.75,628.333 20.6667,621.667 14,613C4.66667,601.333 0,587.667 0,572C0,566.333 0.833333,560.167 2.5,553.5L143,47C147,33 154.667,21.6667 166,13C177.333,4.33337 190.333,0 205,0L551.5,0C559.833,0 567.917,1.66669 575.75,5C583.583,8.33337 590.417,12.9167 596.25,18.75C602.083,24.5834 606.75,31.3334 610.25,39C613.75,46.6667 615.5,54.6667 615.5,63C615.5,71.3334 614.333,78.8334 612,85.5L529.5,320L692,320C701.333,320 710.167,321.75 718.5,325.25C726.833,328.75 734.167,333.667 740.5,340C746.833,346.333 751.75,353.667 755.25,362C758.75,370.333 760.5,379.167 760.5,388.5C760.5,407.5 754.167,423.5 741.5,436.5L190.5,1002.5C177.167,1016.5 160.667,1023.5 141,1023.5C131.333,1023.5 122.25,1021.75 113.75,1018.25C105.25,1014.75 97.75,1009.92 91.25,1003.75C84.75,997.583 79.6667,990.25 76,981.75C72.3333,973.25 70.5,964.167 70.5,954.5ZM695.5,392L696.5,389.5L696.5,387L695,385C695,385 694.833,385 694.5,385L692.5,384L484.5,384C475.833,384 468.333,380.917 462,374.75C455.667,368.583 452.5,361.167 452.5,352.5C452.5,350.833 452.667,349 453,347C453.333,345 453.833,343.167 454.5,341.5L551.5,64L205,64C203.667,68.6667 200.667,79.4167 196,96.25C191.333,113.083 185.583,133.833 178.75,158.5C171.917,183.167 164.333,210.417 156,240.25C147.667,270.083 139.25,300.333 130.75,331C122.25,361.667 113.917,391.417 105.75,420.25C97.5833,449.083 90.4167,474.75 84.25,497.25C78.0833,519.75 73.1667,537.833 69.5,551.5C65.8333,565.167 64,572.167 64,572.5L65,574.5C66,575.167 71.75,575.667 82.25,576C92.75,576.333 104.833,576.5 118.5,576.5C126.167,576.5 133.917,576.5 141.75,576.5C149.583,576.5 156.833,576.417 163.5,576.25C170.167,576.083 175.833,576 180.5,576C185.167,576 188.333,576 190,576C199,576 206.583,579.083 212.75,585.25C218.917,591.417 222,599 222,608C222,610 221.667,612.667 221,616L135,952.5L135,956L137.5,959C138.167,959.333 139.333,959.5 141,959.5C142.333,959.5 143.5,959 144.5,958ZM919,896L681,896L637.5,1004C634.833,1010 630.917,1014.83 625.75,1018.5C620.583,1022.17 614.667,1024 608,1024C599.333,1024 591.833,1020.92 585.5,1014.75C579.167,1008.58 576,1001.17 576,992.5C576,988.5 576.833,984.333 578.5,980L770.5,500C773.167,494 777.167,489.5 782.5,486.5C787.833,483.5 793.667,482 800,482C806.667,482 812.583,483.417 817.75,486.25C822.917,489.083 826.833,493.667 829.5,500L1021.5,980C1023.17,984 1024,988 1024,992C1024,1001 1020.92,1008.58 1014.75,1014.75C1008.58,1020.92 1001,1024 992,1024C985.333,1024 979.417,1022.17 974.25,1018.5C969.083,1014.83 965.167,1010 962.5,1004ZM800,598L706.5,832L893.5,832Z" fill="#FFFFFF" fill-opacity="1">
  </path>
</svg>