<!-- Exported by Character Map UWP -->
<svg height="100%" viewBox="0 0 1024 1024" width="100%" xmlns="http://www.w3.org/2000/svg" xmlns:xlink="http://www.w3.org/1999/xlink">
  <path d="M720.5,585L675.5,539.5L819,392L820,389.5L820,387L818,385L815.5,384L608,384C599.333,384 591.833,380.917 585.5,374.75C579.167,368.583 576,361.167 576,352.5C576,350.5 577.25,345.333 579.75,337C582.25,328.667 585.583,318.167 589.75,305.5C593.917,292.833 598.75,278.583 604.25,262.75C609.75,246.917 615.417,230.75 621.25,214.25C627.083,197.75 632.917,181.333 638.75,165C644.583,148.667 649.917,133.667 654.75,120C659.583,106.333 663.833,94.5834 667.5,84.75C671.167,74.9167 673.667,68.0001 675,64L328.5,64L300.5,164.5L248.5,112.5L266.5,47C270.167,33 277.75,21.6667 289.25,13C300.75,4.33337 313.833,0 328.5,0L675,0C683.333,0 691.417,1.66669 699.25,5C707.083,8.33337 713.917,12.9167 719.75,18.75C725.583,24.5834 730.25,31.3334 733.75,39C737.25,46.6667 739,54.6667 739,63C739,71.3334 737.833,78.8334 735.5,85.5L653,320L815.5,320C824.833,320 833.667,321.75 842,325.25C850.333,328.75 857.667,333.667 864,340C870.333,346.333 875.25,353.667 878.75,362C882.25,370.333 884,379.167 884,388.5C884,397.5 882.5,406.083 879.5,414.25C876.5,422.417 871.667,429.833 865,436.5ZM0,32C0,23.3334 3.16667,15.8334 9.5,9.5C15.8333,3.16669 23.3333,0 32,0C40.6667,0 48.1667,3.16669 54.5,9.5L1014.5,969.5C1020.83,975.833 1024,983.333 1024,992C1024,1000.67 1020.83,1008.17 1014.5,1014.5C1008.17,1020.83 1000.67,1024 992,1024C983.333,1024 975.833,1020.83 969.5,1014.5L9.5,54.5C3.16667,48.1667 0,40.6667 0,32ZM194,954C194,947.667 194.667,941.833 196,936.5L272.5,640L192,640C181.333,640 171.25,637.667 161.75,633C152.25,628.333 144.167,621.667 137.5,613C128.167,601.333 123.5,587.667 123.5,572C123.5,566.333 124.333,560.167 126,553.5L209,254.5L261,306.5C260,309.833 257.5,318.667 253.5,333C249.5,347.333 244.75,364.333 239.25,384C233.75,403.667 228,424.417 222,446.25C216,468.083 210.417,488.333 205.25,507C200.083,525.667 195.833,541.167 192.5,553.5C189.167,565.833 187.5,572.167 187.5,572.5L188.5,574.5C189.5,575.167 195.25,575.667 205.75,576C216.25,576.333 228.333,576.5 242,576.5C249.667,576.5 257.417,576.5 265.25,576.5C273.083,576.5 280.333,576.417 287,576.25C293.667,576.083 299.333,576 304,576C308.667,576 311.833,576 313.5,576C322.5,576 330.083,579.083 336.25,585.25C342.417,591.417 345.5,599 345.5,608C345.5,610 345.167,612.667 344.5,616L258,952.5C258,952.833 258.083,953.333 258.25,954C258.417,954.667 258.5,955.333 258.5,956L261,959C261.667,959.333 262.833,959.5 264.5,959.5C265.833,959.5 267,959 268,958L586,631L631,676.5L314,1002.5C300.667,1016.5 284.167,1023.5 264.5,1023.5C254.833,1023.5 245.667,1021.75 237,1018.25C228.333,1014.75 220.833,1009.83 214.5,1003.5C208.167,997.167 203.167,989.75 199.5,981.25C195.833,972.75 194,963.667 194,954Z" fill="#FFFFFF" fill-opacity="1">
  </path>
</svg>