<!-- Exported by Character Map UWP -->
<svg height="100%" viewBox="0 128 1024 704" width="100%" xmlns="http://www.w3.org/2000/svg" xmlns:xlink="http://www.w3.org/1999/xlink">
  <path d="M188,832C163,832 139.083,826.917 116.25,816.75C93.4167,806.583 73.4167,792.917 56.25,775.75C39.0833,758.583 25.4167,738.583 15.25,715.75C5.08333,692.917 0,669 0,644L0,316C0,291 5.08333,267.083 15.25,244.25C25.4167,221.417 39.0833,201.417 56.25,184.25C73.4167,167.083 93.4167,153.417 116.25,143.25C139.083,133.083 163,128 188,128L836,128C861,128 884.917,133.083 907.75,143.25C930.583,153.417 950.583,167.083 967.75,184.25C984.917,201.417 998.583,221.417 1008.75,244.25C1018.92,267.083 1024,291 1024,316L1024,644C1024,669 1018.92,692.917 1008.75,715.75C998.583,738.583 984.917,758.583 967.75,775.75C950.583,792.917 930.583,806.583 907.75,816.75C884.917,826.917 861,832 836,832ZM834.5,768C851.167,768 867.083,764.583 882.25,757.75C897.417,750.917 910.75,741.75 922.25,730.25C933.75,718.75 942.917,705.417 949.75,690.25C956.583,675.083 960,659.167 960,642.5L960,317.5C960,300.833 956.583,284.917 949.75,269.75C942.917,254.583 933.75,241.25 922.25,229.75C910.75,218.25 897.417,209.083 882.25,202.25C867.083,195.417 851.167,192 834.5,192L189.5,192C172.833,192 156.917,195.417 141.75,202.25C126.583,209.083 113.25,218.25 101.75,229.75C90.25,241.25 81.0833,254.583 74.25,269.75C67.4167,284.917 64,300.833 64,317.5L64,642.5C64,659.167 67.4167,675.083 74.25,690.25C81.0833,705.417 90.25,718.75 101.75,730.25C113.25,741.75 126.583,750.917 141.75,757.75C156.917,764.583 172.833,768 189.5,768ZM128,608L128,352C128,343.333 131.167,335.833 137.5,329.5C143.833,323.167 151.333,320 160,320C168.667,320 176.167,323.167 182.5,329.5C188.833,335.833 192,343.333 192,352L192,448L256,448L256,352C256,343.333 259.167,335.833 265.5,329.5C271.833,323.167 279.333,320 288,320C296.667,320 304.167,323.167 310.5,329.5C316.833,335.833 320,343.333 320,352L320,608C320,616.667 316.833,624.167 310.5,630.5C304.167,636.833 296.667,640 288,640C279.333,640 271.833,636.833 265.5,630.5C259.167,624.167 256,616.667 256,608L256,512L192,512L192,608C192,616.667 188.833,624.167 182.5,630.5C176.167,636.833 168.667,640 160,640C151.333,640 143.833,636.833 137.5,630.5C131.167,624.167 128,616.667 128,608ZM384,608L384,352C384,343.333 387.167,335.833 393.5,329.5C399.833,323.167 407.333,320 416,320C442.667,320 467.667,322.75 491,328.25C514.333,333.75 534.667,342.75 552,355.25C569.333,367.75 583,384.167 593,404.5C603,424.833 608,450 608,480C608,510 603,535.167 593,555.5C583,575.833 569.333,592.25 552,604.75C534.667,617.25 514.333,626.25 491,631.75C467.667,637.25 442.667,640 416,640C407.333,640 399.833,636.833 393.5,630.5C387.167,624.167 384,616.667 384,608ZM640,608L640,352C640,343.333 643.167,335.833 649.5,329.5C655.833,323.167 663.333,320 672,320L768,320C781,320 793.333,322.5 805,327.5C816.667,332.5 826.917,339.417 835.75,348.25C844.583,357.083 851.5,367.333 856.5,379C861.5,390.667 864,403 864,416C864,433.667 859.583,450.083 850.75,465.25C841.917,480.417 829.667,492.167 814,500.5C815.333,503.5 817.583,507.917 820.75,513.75C823.917,519.583 827.333,526 831,533C834.667,540 838.417,547.333 842.25,555C846.083,562.667 849.667,570 853,577C856.333,584 859,590.25 861,595.75C863,601.25 864,605.333 864,608C864,616.667 860.833,624.167 854.5,630.5C848.167,636.833 840.667,640 832,640C826.333,640 820.833,638.417 815.5,635.25C810.167,632.083 806.167,627.833 803.5,622.5L748,512L704,512L704,608C704,616.667 700.833,624.167 694.5,630.5C688.167,636.833 680.667,640 672,640C663.333,640 655.833,636.833 649.5,630.5C643.167,624.167 640,616.667 640,608ZM768,448C776.667,448 784.167,444.833 790.5,438.5C796.833,432.167 800,424.667 800,416C800,407.333 796.833,399.833 790.5,393.5C784.167,387.167 776.667,384 768,384L704,384L704,448ZM448,574.5C463.333,572.833 476.917,570.083 488.75,566.25C500.583,562.417 510.583,556.833 518.75,549.5C526.917,542.167 533.167,532.917 537.5,521.75C541.833,510.583 544,496.667 544,480C544,463.667 541.833,449.833 537.5,438.5C533.167,427.167 526.917,417.833 518.75,410.5C510.583,403.167 500.583,397.583 488.75,393.75C476.917,389.917 463.333,387.167 448,385.5Z" fill="#FFFFFF" fill-opacity="1">
  </path>
</svg>