<!-- Exported by Character Map UWP -->
<svg height="100%" viewBox="0 128 1024 896" width="100%" xmlns="http://www.w3.org/2000/svg" xmlns:xlink="http://www.w3.org/1999/xlink">
  <path d="M188,832C163,832 139.083,826.917 116.25,816.75C93.4167,806.583 73.4167,792.917 56.25,775.75C39.0833,758.583 25.4167,738.583 15.25,715.75C5.08333,692.917 0,669 0,644L0,316C0,291 5.08333,267.083 15.25,244.25C25.4167,221.417 39.0833,201.417 56.25,184.25C73.4167,167.083 93.4167,153.417 116.25,143.25C139.083,133.083 163,128 188,128L836,128C861,128 884.917,133.083 907.75,143.25C930.583,153.417 950.583,167.083 967.75,184.25C984.917,201.417 998.583,221.417 1008.75,244.25C1018.92,267.083 1024,291 1024,316L1024,640C1024,658 1021.58,675.583 1016.75,692.75C1011.92,709.917 1004.67,726.167 995,741.5L959.5,652C959.833,650 960,648 960,646L960,317.5C960,300.833 956.583,284.917 949.75,269.75C942.917,254.583 933.75,241.25 922.25,229.75C910.75,218.25 897.417,209.083 882.25,202.25C867.083,195.417 851.167,192 834.5,192L189.5,192C172.833,192 156.917,195.417 141.75,202.25C126.583,209.083 113.25,218.25 101.75,229.75C90.25,241.25 81.0833,254.583 74.25,269.75C67.4167,284.917 64,300.833 64,317.5L64,642.5C64,659.833 67.5,676.083 74.5,691.25C81.5,706.417 90.8333,719.667 102.5,731C114.167,742.333 127.75,751.333 143.25,758C158.75,764.667 175,768 192,768L594,768L568.5,832ZM128,608L128,352C128,343.333 131.167,335.833 137.5,329.5C143.833,323.167 151.333,320 160,320C168.667,320 176.167,323.167 182.5,329.5C188.833,335.833 192,343.333 192,352L192,448L256,448L256,352C256,343.333 259.167,335.833 265.5,329.5C271.833,323.167 279.333,320 288,320C296.667,320 304.167,323.167 310.5,329.5C316.833,335.833 320,343.333 320,352L320,608C320,616.667 316.833,624.167 310.5,630.5C304.167,636.833 296.667,640 288,640C279.333,640 271.833,636.833 265.5,630.5C259.167,624.167 256,616.667 256,608L256,512L192,512L192,608C192,616.667 188.833,624.167 182.5,630.5C176.167,636.833 168.667,640 160,640C151.333,640 143.833,636.833 137.5,630.5C131.167,624.167 128,616.667 128,608ZM384,608L384,352C384,343.333 387.167,335.833 393.5,329.5C399.833,323.167 407.333,320 416,320C442.667,320 467.667,322.75 491,328.25C514.333,333.75 534.667,342.75 552,355.25C569.333,367.75 583,384.167 593,404.5C603,424.833 608,450 608,480C608,510 603,535.167 593,555.5C583,575.833 569.333,592.25 552,604.75C534.667,617.25 514.333,626.25 491,631.75C467.667,637.25 442.667,640 416,640C407.333,640 399.833,636.833 393.5,630.5C387.167,624.167 384,616.667 384,608ZM649,630.5C643,623.833 640,616.333 640,608L640,352C640,343.333 643.167,335.833 649.5,329.5C655.833,323.167 663.333,320 672,320L768,320C781,320 793.333,322.5 805,327.5C816.667,332.5 826.917,339.417 835.75,348.25C844.583,357.083 851.5,367.333 856.5,379C861.5,390.667 864,403 864,416C864,423 863.167,430.333 861.5,438C843.833,423.333 823.333,416 800,416C800,407.333 796.833,399.833 790.5,393.5C784.167,387.167 776.667,384 768,384L704,384L704,448L728.5,448C720.833,456.667 715,466.167 711,476.5ZM448,574.5C463.333,572.833 476.917,570.083 488.75,566.25C500.583,562.417 510.583,556.833 518.75,549.5C526.917,542.167 533.167,532.917 537.5,521.75C541.833,510.583 544,496.667 544,480C544,463.667 541.833,449.833 537.5,438.5C533.167,427.167 526.917,417.833 518.75,410.5C510.583,403.167 500.583,397.583 488.75,393.75C476.917,389.917 463.333,387.167 448,385.5ZM919,896L681,896L637.5,1004C634.833,1010 630.917,1014.83 625.75,1018.5C620.583,1022.17 614.667,1024 608,1024C599.333,1024 591.833,1020.92 585.5,1014.75C579.167,1008.58 576,1001.17 576,992.5C576,988.5 576.833,984.333 578.5,980L770.5,500C773.167,494 777.167,489.5 782.5,486.5C787.833,483.5 793.667,482 800,482C806.667,482 812.583,483.417 817.75,486.25C822.917,489.083 826.833,493.667 829.5,500L1021.5,980C1023.17,984 1024,988 1024,992C1024,1001 1020.92,1008.58 1014.75,1014.75C1008.58,1020.92 1001,1024 992,1024C985.333,1024 979.417,1022.17 974.25,1018.5C969.083,1014.83 965.167,1010 962.5,1004ZM800,598L706.5,832L893.5,832Z" fill="#FFFFFF" fill-opacity="1">
  </path>
</svg>