<!-- Exported by Character Map UWP -->
<svg height="100%" viewBox="0 0 1024 1024" width="100%" xmlns="http://www.w3.org/2000/svg" xmlns:xlink="http://www.w3.org/1999/xlink">
  <path d="M0,32C0,23.3334 3.16667,15.8334 9.5,9.5C15.8333,3.16669 23.3333,0 32,0C40.6667,0 48.1667,3.16669 54.5,9.5L1014.5,969.5C1020.83,975.833 1024,983.333 1024,992C1024,1000.67 1020.83,1008.17 1014.5,1014.5C1008.17,1020.83 1000.67,1024 992,1024C983.333,1024 975.833,1020.83 969.5,1014.5L9.5,54.5C3.16667,48.1667 0,40.6667 0,32ZM890,754C911.667,743 928.75,727.333 941.25,707C953.75,686.667 960,664.333 960,640L960,317.5C960,300.167 956.5,283.917 949.5,268.75C942.5,253.583 933.167,240.333 921.5,229C909.833,217.667 896.25,208.667 880.75,202C865.25,195.333 849,192 832,192L328,192L264,128L836,128C861,128 884.917,133.083 907.75,143.25C930.583,153.417 950.583,167.083 967.75,184.25C984.917,201.417 998.583,221.417 1008.75,244.25C1018.92,267.083 1024,291 1024,316L1024,640C1024,673 1016.25,703.583 1000.75,731.75C985.25,759.917 963.833,783 936.5,801ZM188,832C163,832 139.083,826.917 116.25,816.75C93.4167,806.583 73.4167,792.917 56.25,775.75C39.0833,758.583 25.4167,738.583 15.25,715.75C5.08333,692.917 0,669 0,644L0,320C0,302 2.41667,284.583 7.25,267.75C12.0833,250.917 19,235.083 28,220.25C37,205.417 47.9167,191.917 60.75,179.75C73.5833,167.583 88,157.5 104,149.5L153,198C140,202.333 128,208.5 117,216.5C106,224.5 96.5833,233.833 88.75,244.5C80.9167,255.167 74.8333,266.917 70.5,279.75C66.1667,292.583 64,306 64,320L64,642.5C64,659.833 67.5,676.083 74.5,691.25C81.5,706.417 90.8333,719.667 102.5,731C114.167,742.333 127.75,751.333 143.25,758C158.75,764.667 175,768 192,768L722.5,768L786.5,832ZM128,608L128,352C128,343.333 131.167,335.833 137.5,329.5C143.833,323.167 151.333,320 160,320C168.667,320 176.167,323.167 182.5,329.5C188.833,335.833 192,343.333 192,352L192,448L256,448L256,352C256,345.333 257.917,339.25 261.75,333.75C265.583,328.25 270.667,324.333 277,322L320,365.5L320,608C320,616.667 316.833,624.167 310.5,630.5C304.167,636.833 296.667,640 288,640C279.333,640 271.833,636.833 265.5,630.5C259.167,624.167 256,616.667 256,608L256,512L192,512L192,608C192,616.667 188.833,624.167 182.5,630.5C176.167,636.833 168.667,640 160,640C151.333,640 143.833,636.833 137.5,630.5C131.167,624.167 128,616.667 128,608ZM832,640C826.333,640 820.833,638.417 815.5,635.25C810.167,632.083 806.167,627.833 803.5,622.5L748,512L704,512L704,568L640,504L640,352C640,343.333 643.167,335.833 649.5,329.5C655.833,323.167 663.333,320 672,320L768,320C781,320 793.333,322.5 805,327.5C816.667,332.5 826.917,339.417 835.75,348.25C844.583,357.083 851.5,367.333 856.5,379C861.5,390.667 864,403 864,416C864,433.667 859.583,450.083 850.75,465.25C841.917,480.417 829.667,492.167 814,500.5C815.333,503.5 817.583,507.917 820.75,513.75C823.917,519.583 827.333,526 831,533C834.667,540 838.417,547.333 842.25,555C846.083,562.667 849.667,570 853,577C856.333,584 859,590.25 861,595.75C863,601.25 864,605.333 864,608C864,616.667 860.833,624.167 854.5,630.5C848.167,636.833 840.667,640 832,640ZM458,322C480.333,324.667 500.5,329.583 518.5,336.75C536.5,343.917 552,353.667 565,366C578,378.333 588.167,393.25 595.5,410.75C602.833,428.25 607,448.667 608,472ZM768,448C776.667,448 784.167,444.833 790.5,438.5C796.833,432.167 800,424.667 800,416C800,407.333 796.833,399.833 790.5,393.5C784.167,387.167 776.667,384 768,384L704,384L704,448ZM384,608L384,429.5L448,493.5L448,574.5C458.667,573.5 469.5,571.667 480.5,569C491.5,566.333 501.5,562 510.5,556L556.5,601.5C546.5,609.167 535.917,615.5 524.75,620.5C513.583,625.5 502,629.417 490,632.25C478,635.083 465.75,637.083 453.25,638.25C440.75,639.417 428.333,640 416,640C407.333,640 399.833,636.833 393.5,630.5C387.167,624.167 384,616.667 384,608Z" fill="#FFFFFF" fill-opacity="1">
  </path>
</svg>