<!-- Exported by Character Map UWP -->
<svg height="100%" viewBox="0 256 1024 512" width="100%" xmlns="http://www.w3.org/2000/svg" xmlns:xlink="http://www.w3.org/1999/xlink">
  <path d="M0,507C0,485 3.16667,463.5 9.5,442.5C15.8333,421.5 24.5833,401.75 35.75,383.25C46.9167,364.75 60.3333,347.667 76,332C91.6667,316.333 108.75,302.917 127.25,291.75C145.75,280.583 165.5,271.833 186.5,265.5C207.5,259.167 229,256 251,256C274.667,256 297.917,258.833 320.75,264.5C343.583,270.167 365.083,278.583 385.25,289.75C405.417,300.917 423.833,314.75 440.5,331.25C457.167,347.75 471.167,366.667 482.5,388L598,606C606.333,622 616.75,636.083 629.25,648.25C641.75,660.417 655.667,670.583 671,678.75C686.333,686.917 702.583,693.167 719.75,697.5C736.917,701.833 754.333,704 772,704C797.333,704 821.417,698.667 844.25,688C867.083,677.333 887.083,663.167 904.25,645.5C921.417,627.833 935,607.417 945,584.25C955,561.083 960,537 960,512C960,487 955,462.917 945,439.75C935,416.583 921.417,396.167 904.25,378.5C887.083,360.833 867.083,346.667 844.25,336C821.417,325.333 797.333,320 772,320C756.667,320 742.667,321.083 730,323.25C717.333,325.417 705.333,328.75 694,333.25C682.667,337.75 671.75,343.583 661.25,350.75C650.75,357.917 639.833,366.5 628.5,376.5C624.833,380.167 621.417,382.667 618.25,384C615.083,385.333 610.833,386 605.5,386C596.833,386 589.333,382.833 583,376.5C576.667,370.167 573.5,362.667 573.5,354C573.5,349.333 574.25,345.417 575.75,342.25C577.25,339.083 579.5,335.667 582.5,332C594.167,318.667 607.417,307.167 622.25,297.5C637.083,287.833 652.75,279.917 669.25,273.75C685.75,267.583 702.833,263.083 720.5,260.25C738.167,257.417 755.667,256 773,256C795,256 816.5,259.167 837.5,265.5C858.5,271.833 878.25,280.583 896.75,291.75C915.25,302.917 932.333,316.333 948,332C963.667,347.667 977.083,364.75 988.25,383.25C999.417,401.75 1008.17,421.5 1014.5,442.5C1020.83,463.5 1024,485 1024,507C1024,542.333 1017.33,575.833 1004,607.5C990.667,639.167 972.5,666.833 949.5,690.5C926.5,714.167 899.417,733 868.25,747C837.083,761 803.667,768 768,768C745,768 722.25,765 699.75,759C677.25,753 656.167,744.333 636.5,733C616.833,721.667 598.833,707.833 582.5,691.5C566.167,675.167 552.5,656.667 541.5,636L426,418C417.667,402.333 407.167,388.417 394.5,376.25C381.833,364.083 367.833,353.833 352.5,345.5C337.167,337.167 320.917,330.833 303.75,326.5C286.583,322.167 269.333,320 252,320C226.667,320 202.583,325.333 179.75,336C156.917,346.667 136.917,360.833 119.75,378.5C102.583,396.167 89,416.583 79,439.75C69,462.917 64,487 64,512C64,537 69,561.083 79,584.25C89,607.417 102.583,627.833 119.75,645.5C136.917,663.167 156.917,677.333 179.75,688C202.583,698.667 226.667,704 252,704C267,704 280.667,702.833 293,700.5C305.333,698.167 317,694.75 328,690.25C339,685.75 349.75,680.083 360.25,673.25C370.75,666.417 381.667,658.333 393,649C396.667,646 400.167,643.75 403.5,642.25C406.833,640.75 410.833,640 415.5,640C424.5,640 432.083,643.083 438.25,649.25C444.417,655.417 447.5,663 447.5,672C447.5,676.667 446.583,680.75 444.75,684.25C442.917,687.75 440.5,691.333 437.5,695C426.833,706.667 414.333,717 400,726C385.667,735 370.333,742.667 354,749C337.667,755.333 321.083,760.083 304.25,763.25C287.417,766.417 271.333,768 256,768C220.333,768 186.917,761 155.75,747C124.583,733 97.5,714.167 74.5,690.5C51.5,666.833 33.3333,639.167 20,607.5C6.66667,575.833 0,542.333 0,507Z" fill="#FFFFFF" fill-opacity="1">
  </path>
</svg>