<!-- Exported by Character Map UWP -->
<svg height="100%" viewBox="64 256 896 448" width="100%" xmlns="http://www.w3.org/2000/svg" xmlns:xlink="http://www.w3.org/1999/xlink">
  <path d="M64,672L64,288C64,279.333 67.1667,271.833 73.5,265.5C79.8333,259.167 87.3333,256 96,256C104.667,256 112.167,259.167 118.5,265.5C124.833,271.833 128,279.333 128,288L128,672C128,680.667 124.833,688.167 118.5,694.5C112.167,700.833 104.667,704 96,704C87.3333,704 79.8333,700.833 73.5,694.5C67.1667,688.167 64,680.667 64,672ZM192,608C192,599.333 195.167,591.833 201.5,585.5C207.833,579.167 215.333,576 224,576C231.333,576 236.917,577.583 240.75,580.75C244.583,583.917 248.083,587.833 251.25,592.5C254.417,597.167 257.917,602.333 261.75,608C265.583,613.667 271,618.833 278,623.5C285,628.167 294.333,632.083 306,635.25C317.667,638.417 333,640 352,640C363.333,640 374.75,639.25 386.25,637.75C397.75,636.25 408.083,633.25 417.25,628.75C426.417,624.25 433.833,617.75 439.5,609.25C445.167,600.75 448,589.667 448,576C448,565.333 444.333,556.417 437,549.25C429.667,542.083 420,535.917 408,530.75C396,525.583 382.333,521 367,517C351.667,513 336,508.667 320,504C304,499.333 288.333,493.917 273,487.75C257.667,481.583 244,473.833 232,464.5C220,455.167 210.333,443.75 203,430.25C195.667,416.75 192,400.333 192,381C192,360.667 196.833,342.667 206.5,327C216.167,311.333 228.583,298.25 243.75,287.75C258.917,277.25 275.833,269.333 294.5,264C313.167,258.667 331.5,256 349.5,256C366.833,256 383,257.167 398,259.5C413,261.833 427.083,265.917 440.25,271.75C453.417,277.583 465.5,285.583 476.5,295.75C487.5,305.917 497.667,318.833 507,334.5C510.333,340.167 512,346 512,352C512,360.667 508.917,368.167 502.75,374.5C496.583,380.833 489.167,384 480.5,384C473.167,384 467.417,382.417 463.25,379.25C459.083,376.083 455.25,372.167 451.75,367.5C448.25,362.833 444.5,357.667 440.5,352C436.5,346.333 431,341.167 424,336.5C417,331.833 407.75,327.917 396.25,324.75C384.75,321.583 370,320 352,320C342.333,320 331.917,321.083 320.75,323.25C309.583,325.417 299.167,329 289.5,334C279.833,339 271.833,345.583 265.5,353.75C259.167,361.917 256,372 256,384C256,394.667 259.667,403.5 267,410.5C274.333,417.5 284,423.583 296,428.75C308,433.917 321.667,438.417 337,442.25C352.333,446.083 368,450.333 384,455C400,459.667 415.667,465 431,471C446.333,477 460,484.583 472,493.75C484,502.917 493.667,514.167 501,527.5C508.333,540.833 512,557 512,576C512,599.333 507.5,619.083 498.5,635.25C489.5,651.417 477.583,664.583 462.75,674.75C447.917,684.917 430.917,692.333 411.75,697C392.583,701.667 372.667,704 352,704C335,704 318.833,702.833 303.5,700.5C288.167,698.167 273.75,693.917 260.25,687.75C246.75,681.583 234.583,673.25 223.75,662.75C212.917,652.25 203.5,638.833 195.5,622.5C193.167,617.833 192,613 192,608ZM576,444C576,418 581.167,393.583 591.5,370.75C601.833,347.917 615.833,328 633.5,311C651.167,294 671.583,280.583 694.75,270.75C717.917,260.917 742.333,256 768,256C793.667,256 818.083,260.917 841.25,270.75C864.417,280.583 884.833,294 902.5,311C920.167,328 934.167,347.917 944.5,370.75C954.833,393.583 960,418 960,444L960,516C960,542 954.833,566.417 944.5,589.25C934.167,612.083 920.167,632 902.5,649C884.833,666 864.417,679.417 841.25,689.25C818.083,699.083 793.667,704 768,704C742.333,704 717.917,699.083 694.75,689.25C671.583,679.417 651.167,666 633.5,649C615.833,632 601.833,612.083 591.5,589.25C581.167,566.417 576,542 576,516ZM896,445.5C896,428.167 892.5,411.917 885.5,396.75C878.5,381.583 869.167,368.333 857.5,357C845.833,345.667 832.25,336.667 816.75,330C801.25,323.333 785,320 768,320C751,320 734.75,323.333 719.25,330C703.75,336.667 690.167,345.667 678.5,357C666.833,368.333 657.5,381.583 650.5,396.75C643.5,411.917 640,428.167 640,445.5L640,514.5C640,531.833 643.5,548.083 650.5,563.25C657.5,578.417 666.833,591.667 678.5,603C690.167,614.333 703.75,623.333 719.25,630C734.75,636.667 751,640 768,640C785,640 801.25,636.667 816.75,630C832.25,623.333 845.833,614.333 857.5,603C869.167,591.667 878.5,578.417 885.5,563.25C892.5,548.083 896,531.833 896,514.5Z" fill="#FFFFFF" fill-opacity="1">
  </path>
</svg>