<!-- Exported by Character Map UWP -->
<svg height="100%" viewBox="0 0 1024 1024" width="100%" xmlns="http://www.w3.org/2000/svg" xmlns:xlink="http://www.w3.org/1999/xlink">
  <path d="M480,224L480,32C480,23.3334 483.167,15.8334 489.5,9.5C495.833,3.16669 503.333,0 512,0C520.667,0 528.167,3.16669 534.5,9.5C540.833,15.8334 544,23.3334 544,32L544,224C544,232.667 540.833,240.167 534.5,246.5C528.167,252.833 520.667,256 512,256C503.333,256 495.833,252.833 489.5,246.5C483.167,240.167 480,232.667 480,224ZM128,96C128,87.3334 131.167,79.8334 137.5,73.5C143.833,67.1667 151.333,64.0001 160,64C168.667,64.0001 176.167,67.1667 182.5,73.5L310.5,201.5C316.833,207.833 320,215.333 320,224C320,232.667 316.833,240.167 310.5,246.5C304.167,252.833 296.667,256 288,256C279.333,256 271.833,252.833 265.5,246.5L137.5,118.5C131.167,112.167 128,104.667 128,96ZM704,224C704,215.333 707.167,207.833 713.5,201.5L841.5,73.5C847.833,67.1667 855.333,64.0001 864,64C872.667,64.0001 880.167,67.1667 886.5,73.5C892.833,79.8334 896,87.3334 896,96C896,104.667 892.833,112.167 886.5,118.5L758.5,246.5C752.167,252.833 744.667,256 736,256C727.333,256 719.833,252.833 713.5,246.5C707.167,240.167 704,232.667 704,224ZM836,320C862,320 886.417,325.167 909.25,335.5C932.083,345.833 952,359.833 969,377.5C986,395.167 999.417,415.583 1009.25,438.75C1019.08,461.917 1024,486.333 1024,512C1024,537.667 1019.08,562.083 1009.25,585.25C999.417,608.417 986,628.833 969,646.5C952,664.167 932.083,678.167 909.25,688.5C886.417,698.833 862,704 836,704L188,704C162,704 137.583,698.833 114.75,688.5C91.9167,678.167 72,664.167 55,646.5C38,628.833 24.5833,608.417 14.75,585.25C4.91667,562.083 0,537.667 0,512C0,486.333 4.91667,461.917 14.75,438.75C24.5833,415.583 38,395.167 55,377.5C72,359.833 91.9167,345.833 114.75,335.5C137.583,325.167 162,320 188,320ZM192,640L192,384L189.5,384C172.167,384 155.917,387.5 140.75,394.5C125.583,401.5 112.333,410.833 101,422.5C89.6667,434.167 80.6667,447.75 74,463.25C67.3333,478.75 64,495 64,512C64,529 67.3333,545.25 74,560.75C80.6667,576.25 89.6667,589.833 101,601.5C112.333,613.167 125.583,622.5 140.75,629.5C155.917,636.5 172.167,640 189.5,640ZM768,640L768,384L256,384L256,640ZM832,640L834.5,640C851.833,640 868.083,636.5 883.25,629.5C898.417,622.5 911.667,613.167 923,601.5C934.333,589.833 943.333,576.25 950,560.75C956.667,545.25 960,529 960,512C960,495 956.667,478.75 950,463.25C943.333,447.75 934.333,434.167 923,422.5C911.667,410.833 898.417,401.5 883.25,394.5C868.083,387.5 851.833,384 834.5,384L832,384ZM544,800L544,992C544,1000.67 540.833,1008.17 534.5,1014.5C528.167,1020.83 520.667,1024 512,1024C503.333,1024 495.833,1020.83 489.5,1014.5C483.167,1008.17 480,1000.67 480,992L480,800C480,791.333 483.167,783.833 489.5,777.5C495.833,771.167 503.333,768 512,768C520.667,768 528.167,771.167 534.5,777.5C540.833,783.833 544,791.333 544,800ZM288,768C296.667,768 304.167,771.167 310.5,777.5C316.833,783.833 320,791.333 320,800C320,808.667 316.833,816.167 310.5,822.5L182.5,950.5C176.167,956.833 168.667,960 160,960C151.333,960 143.833,956.833 137.5,950.5C131.167,944.167 128,936.667 128,928C128,919.333 131.167,911.833 137.5,905.5L265.5,777.5C271.833,771.167 279.333,768 288,768ZM896,928C896,936.667 892.833,944.167 886.5,950.5C880.167,956.833 872.667,960 864,960C855.333,960 847.833,956.833 841.5,950.5L713.5,822.5C707.167,816.167 704,808.667 704,800C704,791.333 707.167,783.833 713.5,777.5C719.833,771.167 727.333,768 736,768C744.667,768 752.167,771.167 758.5,777.5L886.5,905.5C892.833,911.833 896,919.333 896,928Z" fill="#FFFFFF" fill-opacity="1">
  </path>
</svg>