<!-- Exported by Character Map UWP -->
<svg height="100%" viewBox="128 0 768 1024" width="100%" xmlns="http://www.w3.org/2000/svg" xmlns:xlink="http://www.w3.org/1999/xlink">
  <path d="M896,373C896,415 888.833,456.167 874.5,496.5C860.167,536.833 839.5,573.167 812.5,605.5C807.5,611.5 801.417,617.833 794.25,624.5C787.083,631.167 780.167,638.083 773.5,645.25C766.833,652.417 760.75,659.667 755.25,667C749.75,674.333 746.167,681.833 744.5,689.5L688.5,925.5C684.833,940.167 679.167,953.5 671.5,965.5C663.833,977.5 654.5,987.833 643.5,996.5C632.5,1005.17 620.25,1011.92 606.75,1016.75C593.25,1021.58 579,1024 564,1024L460,1024C445,1024 430.75,1021.58 417.25,1016.75C403.75,1011.92 391.5,1005.08 380.5,996.25C369.5,987.417 360.083,977 352.25,965C344.417,953 338.833,939.833 335.5,925.5L278.5,688.5C276.5,680.5 272.917,672.833 267.75,665.5C262.583,658.167 256.667,651.083 250,644.25C243.333,637.417 236.5,630.75 229.5,624.25C222.5,617.75 216.333,611.333 211,605C184,572.667 163.417,536.417 149.25,496.25C135.083,456.083 128,415 128,373C128,338 132.667,304.417 142,272.25C151.333,240.083 164.5,210.167 181.5,182.5C198.5,154.833 218.75,129.75 242.25,107.25C265.75,84.75 291.75,65.5834 320.25,49.75C348.75,33.9167 379.167,21.6667 411.5,13C443.833,4.33337 477.333,0 512,0C546.333,0 579.75,4.33337 612.25,13C644.75,21.6667 675.167,34 703.5,50C731.833,66 757.833,85.25 781.5,107.75C805.167,130.25 825.5,155.25 842.5,182.75C859.5,210.25 872.667,240.083 882,272.25C891.333,304.417 896,338 896,373ZM832,373C832,344 828.083,316.167 820.25,289.5C812.417,262.833 801.417,238.083 787.25,215.25C773.083,192.417 756.083,171.667 736.25,153C716.417,134.333 694.667,118.417 671,105.25C647.333,92.0834 622.083,81.9167 595.25,74.75C568.417,67.5834 540.667,64.0001 512,64C483.333,64.0001 455.583,67.5834 428.75,74.75C401.917,81.9167 376.667,92.0834 353,105.25C329.333,118.417 307.583,134.333 287.75,153C267.917,171.667 250.917,192.417 236.75,215.25C222.583,238.083 211.583,262.833 203.75,289.5C195.917,316.167 192,344 192,373C192,396.333 194.333,418.25 199,438.75C203.667,459.25 210.333,478.833 219,497.5C227.667,516.167 238.417,534 251.25,551C264.083,568 278.667,584.5 295,600.5C301,606.5 306.333,612.083 311,617.25C315.667,622.417 319.833,627.833 323.5,633.5C327.167,639.167 330.417,645.25 333.25,651.75C336.083,658.25 338.667,665.667 341,674C345.333,689.667 349.333,705.167 353,720.5L363.5,768L660.5,768C664.167,752.333 667.667,736.75 671,721.25C674.333,705.75 678.167,690.167 682.5,674.5C684.833,666.167 687.417,658.75 690.25,652.25C693.083,645.75 696.333,639.667 700,634C703.667,628.333 707.833,622.917 712.5,617.75C717.167,612.583 722.5,607 728.5,601C744.833,585 759.5,568.5 772.5,551.5C785.5,534.5 796.333,516.667 805,498C813.667,479.333 820.333,459.75 825,439.25C829.667,418.75 832,396.667 832,373ZM564,960C579,960 592.25,955.417 603.75,946.25C615.25,937.083 622.833,925.333 626.5,911C630.167,898 633.417,884.917 636.25,871.75C639.083,858.583 642,845.333 645,832L378.5,832C381.833,845.333 384.917,858.583 387.75,871.75C390.583,884.917 393.833,898 397.5,911C401.167,925.333 408.75,937.083 420.25,946.25C431.75,955.417 445,960 460,960Z" fill="#FFFFFF" fill-opacity="1">
  </path>
</svg>