<!-- Exported by Character Map UWP -->
<svg height="100%" viewBox="256 256 448 448" width="100%" xmlns="http://www.w3.org/2000/svg" xmlns:xlink="http://www.w3.org/1999/xlink">
  <path d="M256,672L256,288C256,279.333 259.167,271.833 265.5,265.5C271.833,259.167 279.333,256 288,256C293.667,256 298.917,257.417 303.75,260.25C308.583,263.083 312.5,266.833 315.5,271.5L480,546L644.5,271.5C647.5,266.833 651.417,263.083 656.25,260.25C661.083,257.417 666.333,256 672,256C680.667,256 688.167,259.167 694.5,265.5C700.833,271.833 704,279.333 704,288L704,672C704,680.667 700.833,688.167 694.5,694.5C688.167,700.833 680.667,704 672,704C663.333,704 655.833,700.833 649.5,694.5C643.167,688.167 640,680.667 640,672L640,403.5L507.5,624.5C504.5,629.5 500.583,633.167 495.75,635.5C490.917,637.833 485.667,639 480,639C474.333,639 469,637.75 464,635.25C459,632.75 455.167,629.167 452.5,624.5L320,403.5L320,672C320,680.667 316.833,688.167 310.5,694.5C304.167,700.833 296.667,704 288,704C279.333,704 271.833,700.833 265.5,694.5C259.167,688.167 256,680.667 256,672Z" fill="#FFFFFF" fill-opacity="1">
  </path>
</svg>