<!-- Exported by Character Map UWP -->
<svg height="100%" viewBox="0 0 1024 1024" width="100%" xmlns="http://www.w3.org/2000/svg" xmlns:xlink="http://www.w3.org/1999/xlink">
  <path d="M352,64C343.333,64.0001 335.833,60.8334 329.5,54.5C323.167,48.1667 320,40.6667 320,32C320,23.3334 323.167,15.8334 329.5,9.5C335.833,3.16669 343.333,0 352,0L608,0C616.667,0 624.167,3.16669 630.5,9.5C636.833,15.8334 640,23.3334 640,32C640,40.6667 636.833,48.1667 630.5,54.5C624.167,60.8334 616.667,64.0001 608,64ZM0,32C0,23.3334 3.16667,15.8334 9.5,9.5C15.8333,3.16669 23.3333,0 32,0C40.6667,0 48.1667,3.16669 54.5,9.5L1014.5,969.5C1020.83,975.833 1024,983.333 1024,992C1024,1000.67 1020.83,1008.17 1014.5,1014.5C1008.17,1020.83 1000.67,1024 992,1024C983.333,1024 975.833,1020.83 969.5,1014.5L9.5,54.5C3.16667,48.1667 0,40.6667 0,32ZM787,146C787,137 790.25,129.417 796.75,123.25C803.25,117.083 810.833,114 819.5,114C828.167,114 835.667,117.167 842,123.5L932.5,214C938.833,220.333 942,227.833 942,236.5C942,245.167 938.833,252.667 932.5,259C926.167,265.333 918.667,268.5 910,268.5C901.333,268.5 893.833,265.333 887.5,259L796.5,168.5C790.167,162.167 787,154.667 787,146ZM841.5,706C848.833,685 854.417,663.667 858.25,642C862.083,620.333 864,598.333 864,576C864,523 853.917,473.25 833.75,426.75C813.583,380.25 786.083,339.583 751.25,304.75C716.417,269.917 675.75,242.417 629.25,222.25C582.75,202.083 533,192 480,192C457.667,192 435.667,193.917 414,197.75C392.333,201.583 371,207.167 350,214.5L301,165C329.333,153 358.5,143.833 388.5,137.5C418.5,131.167 449,128 480,128C521,128 560.583,133.333 598.75,144C636.917,154.667 672.583,169.75 705.75,189.25C738.917,208.75 769.167,232.167 796.5,259.5C823.833,286.833 847.25,317.083 866.75,350.25C886.25,383.417 901.333,419.083 912,457.25C922.667,495.417 928,535 928,576C928,607 924.833,637.5 918.5,667.5C912.167,697.5 903,726.667 891,755ZM32,576C32,543.333 35.5,511.167 42.5,479.5C49.5,447.833 59.75,417.417 73.25,388.25C86.75,359.083 103.25,331.583 122.75,305.75C142.25,279.917 164.5,256.333 189.5,235L235,280.5C212.667,298.5 192.917,318.667 175.75,341C158.583,363.333 144.083,387.167 132.25,412.5C120.417,437.833 111.417,464.25 105.25,491.75C99.0833,519.25 96,547.333 96,576C96,611.333 100.583,645.417 109.75,678.25C118.917,711.083 131.833,741.667 148.5,770C165.167,798.333 185.167,824.167 208.5,847.5C231.833,870.833 257.667,890.833 286,907.5C314.333,924.167 344.917,937.083 377.75,946.25C410.583,955.417 444.667,960 480,960C508.667,960 536.75,956.917 564.25,950.75C591.75,944.583 618.167,935.583 643.5,923.75C668.833,911.917 692.667,897.417 715,880.25C737.333,863.083 757.5,843.333 775.5,821L821,866.5C799.667,891.5 776.083,913.75 750.25,933.25C724.417,952.75 696.917,969.25 667.75,982.75C638.583,996.25 608.167,1006.5 576.5,1013.5C544.833,1020.5 512.667,1024 480,1024C438.667,1024 398.917,1018.67 360.75,1008C322.583,997.333 286.917,982.25 253.75,962.75C220.583,943.25 190.417,919.917 163.25,892.75C136.083,865.583 112.75,835.417 93.25,802.25C73.75,769.083 58.6667,733.417 48,695.25C37.3333,657.083 32,617.333 32,576ZM512,376L448,312L448,288C448,279.333 451.167,271.833 457.5,265.5C463.833,259.167 471.333,256 480,256C488.667,256 496.167,259.167 502.5,265.5C508.833,271.833 512,279.333 512,288ZM448,544L448,493.5L510,555C507.667,561.333 503.75,566.417 498.25,570.25C492.75,574.083 486.667,576 480,576C471.333,576 463.833,572.833 457.5,566.5C451.167,560.167 448,552.667 448,544Z" fill="#FFFFFF" fill-opacity="1">
  </path>
</svg>