<!-- Exported by Character Map UWP -->
<svg height="100%" viewBox="0 150 1024 725" width="100%" xmlns="http://www.w3.org/2000/svg" xmlns:xlink="http://www.w3.org/1999/xlink">
  <path d="M1024,279.5L1024,744.5C1024,762.167 1020.5,778.917 1013.5,794.75C1006.5,810.583 997.083,824.417 985.25,836.25C973.417,848.083 959.583,857.417 943.75,864.25C927.917,871.083 911.167,874.5 893.5,874.5C889.5,874.5 885.417,874.25 881.25,873.75C877.083,873.25 873,872.667 869,872C838.333,867 807.833,862.167 777.5,857.5C747.167,852.833 716.5,848.5 685.5,844.5C656.5,840.833 627.667,837.833 599,835.5C570.333,833.167 541.333,832 512,832C482.667,832 453.583,833.167 424.75,835.5C395.917,837.833 367,840.833 338,844.5C307,848.5 276.417,852.833 246.25,857.5C216.083,862.167 185.667,867 155,872C146.667,873.667 138.833,874.5 131.5,874.5C113.5,874.5 96.5833,871.083 80.75,864.25C64.9167,857.417 51,848.167 39,836.5C27,824.833 17.5,811.083 10.5,795.25C3.5,779.417 0,762.5 0,744.5L0,279.5C0,261.5 3.5,244.667 10.5,229C17.5,213.333 27,199.583 39,187.75C51,175.917 64.9167,166.667 80.75,160C96.5833,153.333 113.5,150 131.5,150C135.5,150 139.417,150.167 143.25,150.5C147.083,150.833 151,151.333 155,152C185.667,157.333 216.083,162.333 246.25,167C276.417,171.667 307,176 338,180C367,183.667 395.917,186.583 424.75,188.75C453.583,190.917 482.667,192 512,192C541.333,192 570.333,190.917 599,188.75C627.667,186.583 656.5,183.667 685.5,180C716.5,176 747.167,171.667 777.5,167C807.833,162.333 838.333,157.333 869,152C873,151.333 877,150.833 881,150.5C885,150.167 889,150 893,150C911,150 927.917,153.333 943.75,160C959.583,166.667 973.417,175.917 985.25,187.75C997.083,199.583 1006.5,213.333 1013.5,229C1020.5,244.667 1024,261.5 1024,279.5ZM960,279.5C960,270.5 958.25,262 954.75,254C951.25,246 946.417,239 940.25,233C934.083,227 926.917,222.25 918.75,218.75C910.583,215.25 902,213.5 893,213.5C889,213.5 884.833,214 880.5,215C819.833,226 758.667,235.583 697,243.75C635.333,251.917 573.667,256 512,256C450.333,256 388.667,251.917 327,243.75C265.333,235.583 204.167,226 143.5,215C141.5,214.667 139.5,214.333 137.5,214C135.5,213.667 133.5,213.5 131.5,213.5C122.5,213.5 113.917,215.167 105.75,218.5C97.5833,221.833 90.4167,226.5 84.25,232.5C78.0833,238.5 73.1667,245.5 69.5,253.5C65.8333,261.5 64,270.167 64,279.5L64,744.5C64,758.5 68.0833,771.167 76.25,782.5C84.4167,793.833 95.1667,801.833 108.5,806.5L435,539.5C445.667,530.833 457.667,524.25 471,519.75C484.333,515.25 498,513 512,513C526.333,513 540,515.167 553,519.5C566,523.833 578,530.5 589,539.5L916,806.5C929,800.833 939.583,792.75 947.75,782.25C955.917,771.75 960,759.167 960,744.5ZM832,416C832,429 829.5,441.333 824.5,453C819.5,464.667 812.583,474.917 803.75,483.75C794.917,492.583 784.667,499.5 773,504.5C761.333,509.5 749,512 736,512C723,512 710.667,509.5 699,504.5C687.333,499.5 677.083,492.583 668.25,483.75C659.417,474.917 652.5,464.667 647.5,453C642.5,441.333 640,429 640,416C640,403 642.5,390.667 647.5,379C652.5,367.333 659.417,357.083 668.25,348.25C677.083,339.417 687.333,332.5 699,327.5C710.667,322.5 723,320 736,320C749,320 761.333,322.5 773,327.5C784.667,332.5 794.917,339.417 803.75,348.25C812.583,357.083 819.5,367.333 824.5,379C829.5,390.667 832,403 832,416ZM768,416C768,407.333 764.833,399.833 758.5,393.5C752.167,387.167 744.667,384 736,384C727.333,384 719.833,387.167 713.5,393.5C707.167,399.833 704,407.333 704,416C704,424.667 707.167,432.167 713.5,438.5C719.833,444.833 727.333,448 736,448C744.667,448 752.167,444.833 758.5,438.5C764.833,432.167 768,424.667 768,416ZM222.5,796C270.5,788.667 318.583,782.167 366.75,776.5C414.917,770.833 463.333,768 512,768C560.667,768 609.167,770.833 657.5,776.5C705.833,782.167 754,788.667 802,796L548.5,589C537.833,580.333 525.667,576 512,576C498.333,576 486.167,580.333 475.5,589Z" fill="#FFFFFF" fill-opacity="1">
  </path>
</svg>