<!-- Exported by Character Map UWP -->
<svg height="100%" viewBox="192 0 736 1024" width="100%" xmlns="http://www.w3.org/2000/svg" xmlns:xlink="http://www.w3.org/1999/xlink">
  <path d="M928,416C928,429 925.5,441.333 920.5,453C915.5,464.667 908.583,474.917 899.75,483.75C890.917,492.583 880.667,499.5 869,504.5C857.333,509.5 845,512 832,512L694,512C679.333,512 667.167,509.25 657.5,503.75C647.833,498.25 637.833,490.667 627.5,481L611,565.5L738,692.5C747.667,702.167 755.083,713.25 760.25,725.75C765.417,738.25 768,751.333 768,765L768,928C768,941 765.5,953.333 760.5,965C755.5,976.667 748.583,986.917 739.75,995.75C730.917,1004.58 720.667,1011.5 709,1016.5C697.333,1021.5 685,1024 672,1024C659,1024 646.667,1021.5 635,1016.5C623.333,1011.5 613.083,1004.58 604.25,995.75C595.417,986.917 588.5,976.667 583.5,965C578.5,953.333 576,941 576,928L576,817.5C576,814.5 575,812 573,810L466.5,703.5L410.5,950C407.833,961 403.667,971 398,980C392.333,989 385.417,996.75 377.25,1003.25C369.083,1009.75 359.917,1014.83 349.75,1018.5C339.583,1022.17 328.833,1024 317.5,1024C304.5,1024 292.25,1021.5 280.75,1016.5C269.25,1011.5 259.167,1004.75 250.5,996.25C241.833,987.75 235,977.667 230,966C225,954.333 222.5,942 222.5,929C222.5,921.667 223.167,915.167 224.5,909.5L280.5,639.5C267.833,638.833 256.167,635.75 245.5,630.25C234.833,624.75 225.5,617.667 217.5,609C209.5,600.333 203.25,590.417 198.75,579.25C194.25,568.083 192,556.333 192,544L192,331C192,316 195.667,302.667 203,291C210.333,279.333 220.667,270.167 234,263.5L342.5,209C358.167,201.333 372.917,196.583 386.75,194.75C400.583,192.917 416,192 433,192C427,181.333 422.667,170.583 420,159.75C417.333,148.917 416,137.5 416,125.5C416,108.167 419.5,91.9167 426.5,76.75C433.5,61.5834 442.833,48.3334 454.5,37C466.167,25.6667 479.75,16.6667 495.25,10C510.75,3.33337 527,0 544,0C561,0 577.25,3.33337 592.75,10C608.25,16.6667 621.833,25.6667 633.5,37C645.167,48.3334 654.5,61.5834 661.5,76.75C668.5,91.9167 672,108.167 672,125.5C672,160.167 660.5,190 637.5,215C648.5,221.667 658.667,229.667 668,239L749.5,320L832,320C845,320 857.333,322.5 869,327.5C880.667,332.5 890.917,339.417 899.75,348.25C908.583,357.083 915.5,367.333 920.5,379C925.5,390.667 928,403 928,416ZM544,192C553,192 561.333,190.333 569,187C576.667,183.667 583.417,179.083 589.25,173.25C595.083,167.417 599.667,160.667 603,153C606.333,145.333 608,137 608,128C608,119.333 606.333,111.083 603,103.25C599.667,95.4167 595.083,88.5834 589.25,82.75C583.417,76.9167 576.583,72.3334 568.75,69C560.917,65.6667 552.667,64.0001 544,64C535,64.0001 526.667,65.6667 519,69C511.333,72.3334 504.583,76.9167 498.75,82.75C492.917,88.5834 488.333,95.3334 485,103C481.667,110.667 480,119 480,128C480,137 481.667,145.417 485,153.25C488.333,161.083 492.833,167.833 498.5,173.5C504.167,179.167 510.917,183.667 518.75,187C526.583,190.333 535,192 544,192ZM832,448C840.667,448 848.167,444.833 854.5,438.5C860.833,432.167 864,424.667 864,416C864,409 862.75,403.417 860.25,399.25C857.75,395.083 854.25,391.833 849.75,389.5C845.25,387.167 840,385.583 834,384.75C828,383.917 821.5,383.5 814.5,383.5C806.5,383.5 798.083,383.75 789.25,384.25C780.417,384.75 771.667,385 763,385C752,385 741.833,384.083 732.5,382.25C723.167,380.417 715.333,376.333 709,370L623,284C614,275 603.583,268.083 591.75,263.25C579.917,258.417 567.667,256 555,256L414,256C399,256 384.833,259.333 371.5,266L262.5,320.5C258.167,322.5 256,326 256,331L256,544C256,552.667 259.167,560.167 265.5,566.5C271.833,572.833 279.333,576 288,576C296.667,576 304.167,572.833 310.5,566.5C316.833,560.167 320,552.667 320,544L320,400C320,394.333 321.583,388.833 324.75,383.5C327.917,378.167 332.167,374.167 337.5,371.5C341.5,369.5 347.083,366.583 354.25,362.75C361.417,358.917 368.917,355 376.75,351C384.583,347 392.083,343.5 399.25,340.5C406.417,337.5 412,336 416,336C424.667,336 432.167,339.167 438.5,345.5C444.833,351.833 448,359.333 448,368C448,373.667 446.417,379.167 443.25,384.5C440.083,389.833 435.833,393.833 430.5,396.5L384,420L384,544C384,558 381.167,571.333 375.5,584C369.833,596.667 361.667,607.5 351,616.5L287,922.5C286.667,923.833 286.5,925.667 286.5,928C286.5,936.667 289.333,943.917 295,949.75C300.667,955.583 307.833,958.5 316.5,958.5C323.167,958.5 329.667,956.417 336,952.25C342.333,948.083 346.333,942.667 348,936L417,633C418.667,625.333 422.333,619.25 428,614.75C433.667,610.25 440.333,608 448,608C456.667,608 464.167,611.167 470.5,617.5L618,765C632.667,779.667 640,797.167 640,817.5L640,928C640,936.667 643.167,944.167 649.5,950.5C655.833,956.833 663.333,960 672,960C680.667,960 688.167,956.833 694.5,950.5C700.833,944.167 704,936.667 704,928L704,765C704,754.333 700.333,745.333 693,738L553.5,598.5C547.167,592.167 544,584.5 544,575.5C544,572.833 544.167,570.833 544.5,569.5L576.5,409.5C578.167,401.833 582,395.667 588,391C594,386.333 600.833,384 608.5,384C616.833,384 624.667,387.333 632,394C639.333,400.667 646.417,408 653.25,416C660.083,424 666.833,431.333 673.5,438C680.167,444.667 687,448 694,448Z" fill="#FFFFFF" fill-opacity="1">
  </path>
</svg>