<!-- Exported by Character Map UWP -->
<svg height="100%" viewBox="64 64 896 896" width="100%" xmlns="http://www.w3.org/2000/svg" xmlns:xlink="http://www.w3.org/1999/xlink">
  <path d="M189.5,448C172.833,448 156.917,444.583 141.75,437.75C126.583,430.917 113.25,421.75 101.75,410.25C90.25,398.75 81.0833,385.417 74.25,370.25C67.4167,355.083 64,339.167 64,322.5L64,189.5C64,172.833 67.4167,156.917 74.25,141.75C81.0833,126.583 90.25,113.25 101.75,101.75C113.25,90.25 126.583,81.0834 141.75,74.25C156.917,67.4167 172.833,64.0001 189.5,64L322.5,64C339.167,64.0001 355.083,67.4167 370.25,74.25C385.417,81.0834 398.75,90.25 410.25,101.75C421.75,113.25 430.917,126.583 437.75,141.75C444.583,156.917 448,172.833 448,189.5L448,322.5C448,339.167 444.583,355.083 437.75,370.25C430.917,385.417 421.75,398.75 410.25,410.25C398.75,421.75 385.417,430.917 370.25,437.75C355.083,444.583 339.167,448 322.5,448ZM701.5,448C684.833,448 668.917,444.583 653.75,437.75C638.583,430.917 625.25,421.75 613.75,410.25C602.25,398.75 593.083,385.417 586.25,370.25C579.417,355.083 576,339.167 576,322.5L576,189.5C576,172.833 579.417,156.917 586.25,141.75C593.083,126.583 602.25,113.25 613.75,101.75C625.25,90.25 638.583,81.0834 653.75,74.25C668.917,67.4167 684.833,64.0001 701.5,64L834.5,64C851.167,64.0001 867.083,67.4167 882.25,74.25C897.417,81.0834 910.75,90.25 922.25,101.75C933.75,113.25 942.917,126.583 949.75,141.75C956.583,156.917 960,172.833 960,189.5L960,322.5C960,339.167 956.583,355.083 949.75,370.25C942.917,385.417 933.75,398.75 922.25,410.25C910.75,421.75 897.417,430.917 882.25,437.75C867.083,444.583 851.167,448 834.5,448ZM320,384C329,384 337.333,382.333 345,379C352.667,375.667 359.417,371.083 365.25,365.25C371.083,359.417 375.667,352.667 379,345C382.333,337.333 384,329 384,320L384,192C384,183.333 382.333,175.083 379,167.25C375.667,159.417 371.083,152.583 365.25,146.75C359.417,140.917 352.583,136.333 344.75,133C336.917,129.667 328.667,128 320,128L192,128C183,128 174.667,129.667 167,133C159.333,136.333 152.583,140.917 146.75,146.75C140.917,152.583 136.333,159.333 133,167C129.667,174.667 128,183 128,192L128,320C128,329 129.667,337.417 133,345.25C136.333,353.083 140.833,359.833 146.5,365.5C152.167,371.167 158.917,375.667 166.75,379C174.583,382.333 183,384 192,384ZM832,384C841,384 849.333,382.333 857,379C864.667,375.667 871.417,371.083 877.25,365.25C883.083,359.417 887.667,352.667 891,345C894.333,337.333 896,329 896,320L896,192C896,183.333 894.333,175.083 891,167.25C887.667,159.417 883.083,152.583 877.25,146.75C871.417,140.917 864.583,136.333 856.75,133C848.917,129.667 840.667,128 832,128L704,128C695,128 686.667,129.667 679,133C671.333,136.333 664.583,140.917 658.75,146.75C652.917,152.583 648.333,159.333 645,167C641.667,174.667 640,183 640,192L640,320C640,329 641.667,337.417 645,345.25C648.333,353.083 652.833,359.833 658.5,365.5C664.167,371.167 670.917,375.667 678.75,379C686.583,382.333 695,384 704,384ZM320,320L192,320L192,192L320,192ZM832,320L704,320L704,192L832,192ZM189.5,960C172.833,960 156.917,956.583 141.75,949.75C126.583,942.917 113.25,933.75 101.75,922.25C90.25,910.75 81.0833,897.417 74.25,882.25C67.4167,867.083 64,851.167 64,834.5L64,701.5C64,684.833 67.4167,668.917 74.25,653.75C81.0833,638.583 90.25,625.25 101.75,613.75C113.25,602.25 126.583,593.083 141.75,586.25C156.917,579.417 172.833,576 189.5,576L322.5,576C339.167,576 355.083,579.417 370.25,586.25C385.417,593.083 398.75,602.25 410.25,613.75C421.75,625.25 430.917,638.583 437.75,653.75C444.583,668.917 448,684.833 448,701.5L448,834.5C448,851.167 444.583,867.083 437.75,882.25C430.917,897.417 421.75,910.75 410.25,922.25C398.75,933.75 385.417,942.917 370.25,949.75C355.083,956.583 339.167,960 322.5,960ZM704,704L576,704L576,576L704,576ZM960,704L832,704L832,576L960,576ZM320,896C329,896 337.333,894.333 345,891C352.667,887.667 359.417,883.083 365.25,877.25C371.083,871.417 375.667,864.667 379,857C382.333,849.333 384,841 384,832L384,704C384,695.333 382.333,687.083 379,679.25C375.667,671.417 371.083,664.583 365.25,658.75C359.417,652.917 352.583,648.333 344.75,645C336.917,641.667 328.667,640 320,640L192,640C183,640 174.667,641.667 167,645C159.333,648.333 152.583,652.917 146.75,658.75C140.917,664.583 136.333,671.333 133,679C129.667,686.667 128,695 128,704L128,832C128,841 129.667,849.417 133,857.25C136.333,865.083 140.833,871.833 146.5,877.5C152.167,883.167 158.917,887.667 166.75,891C174.583,894.333 183,896 192,896ZM320,832L192,832L192,704L320,704ZM832,832L704,832L704,704L832,704ZM704,960L576,960L576,832L704,832ZM960,960L832,960L832,832L960,832Z" fill="#FFFFFF" fill-opacity="1">
  </path>
</svg>