<!-- Exported by Character Map UWP -->
<svg height="100%" viewBox="0 0 1024 1024" width="100%" xmlns="http://www.w3.org/2000/svg" xmlns:xlink="http://www.w3.org/1999/xlink">
  <path d="M672,1024C663.333,1024 655.833,1020.83 649.5,1014.5C643.167,1008.17 640,1000.67 640,992L640,736C640,727.333 643.167,719.833 649.5,713.5C655.833,707.167 663.333,704 672,704C680.667,704 688.167,707.167 694.5,713.5C700.833,719.833 704,727.333 704,736L704,914.5C746.667,896.5 784,874 816,847C848,820 874.667,789.25 896,754.75C917.333,720.25 933.333,682.583 944,641.75C954.667,600.917 960,557.667 960,512C960,447 948.833,387.167 926.5,332.5C904.167,277.833 873.083,230.583 833.25,190.75C793.417,150.917 746.167,119.833 691.5,97.5C636.833,75.1667 577,64.0001 512,64C471,64.0001 431.333,68.6667 393,78C354.667,87.3334 318.75,101.167 285.25,119.5C251.75,137.833 221.083,160.667 193.25,188C165.417,215.333 141.333,247.167 121,283.5C101,318.833 86.5,355.667 77.5,394C68.5,432.333 64,471.667 64,512C64,520.667 60.8333,528.167 54.5,534.5C48.1667,540.833 40.6667,544 32,544C23.3333,544 15.8333,540.833 9.5,534.5C3.16667,528.167 0,520.667 0,512C0,463 5.83333,416.25 17.5,371.75C29.1667,327.25 45.75,286.083 67.25,248.25C88.75,210.417 114.833,176.167 145.5,145.5C176.167,114.833 210.417,88.75 248.25,67.25C286.083,45.75 327.25,29.1667 371.75,17.5C416.25,5.83337 463,0 512,0C561,0 607.75,5.83337 652.25,17.5C696.75,29.1667 737.917,45.75 775.75,67.25C813.583,88.75 847.833,114.833 878.5,145.5C909.167,176.167 935.25,210.417 956.75,248.25C978.25,286.083 994.833,327.25 1006.5,371.75C1018.17,416.25 1024,463 1024,512C1024,560.333 1018.5,606.75 1007.5,651.25C996.5,695.75 979.917,737.25 957.75,775.75C935.583,814.25 907.917,849.167 874.75,880.5C841.583,911.833 802.833,938.333 758.5,960L928,960C936.667,960 944.167,963.167 950.5,969.5C956.833,975.833 960,983.333 960,992C960,1000.67 956.833,1008.17 950.5,1014.5C944.167,1020.83 936.667,1024 928,1024ZM384,509.5C384,492.167 387.5,475.917 394.5,460.75C401.5,445.583 410.833,432.333 422.5,421C434.167,409.667 447.75,400.667 463.25,394C478.75,387.333 495,384 512,384C529.333,384 545.833,387.417 561.5,394.25C577.167,401.083 590.75,410.25 602.25,421.75C613.75,433.25 622.917,446.833 629.75,462.5C636.583,478.167 640,494.667 640,512C640,529.667 636.583,546.25 629.75,561.75C622.917,577.25 613.75,590.75 602.25,602.25C590.75,613.75 577.167,622.917 561.5,629.75C545.833,636.583 529.333,640 512,640C494,640 477.167,636.583 461.5,629.75C445.833,622.917 432.25,613.583 420.75,601.75C409.25,589.917 400.25,576.083 393.75,560.25C387.25,544.417 384,527.5 384,509.5ZM576,512C576,503.333 574.333,495.083 571,487.25C567.667,479.417 563.083,472.583 557.25,466.75C551.417,460.917 544.583,456.333 536.75,453C528.917,449.667 520.667,448 512,448C503,448 494.667,449.667 487,453C479.333,456.333 472.583,460.917 466.75,466.75C460.917,472.583 456.333,479.333 453,487C449.667,494.667 448,503 448,512C448,521 449.667,529.417 453,537.25C456.333,545.083 460.833,551.833 466.5,557.5C472.167,563.167 478.917,567.667 486.75,571C494.583,574.333 503,576 512,576C521,576 529.333,574.333 537,571C544.667,567.667 551.417,563.083 557.25,557.25C563.083,551.417 567.667,544.667 571,537C574.333,529.333 576,521 576,512Z" fill="#FFFFFF" fill-opacity="1">
  </path>
</svg>