<!-- Exported by Character Map UWP -->
<svg height="100%" viewBox="0 128 1024 768" width="100%" xmlns="http://www.w3.org/2000/svg" xmlns:xlink="http://www.w3.org/1999/xlink">
  <path d="M96,896C83,896 70.6667,893.5 59,888.5C47.3333,883.5 37.0833,876.583 28.25,867.75C19.4167,858.917 12.5,848.667 7.5,837C2.5,825.333 0,813 0,800L0,224C0,211 2.5,198.667 7.5,187C12.5,175.333 19.4167,165.083 28.25,156.25C37.0833,147.417 47.3333,140.5 59,135.5C70.6667,130.5 83,128 96,128L928,128C941,128 953.333,130.5 965,135.5C976.667,140.5 986.917,147.417 995.75,156.25C1004.58,165.083 1011.5,175.333 1016.5,187C1021.5,198.667 1024,211 1024,224L1024,800C1024,813 1021.5,825.333 1016.5,837C1011.5,848.667 1004.58,858.917 995.75,867.75C986.917,876.583 976.667,883.5 965,888.5C953.333,893.5 941,896 928,896ZM256,832L256,736C256,723 258.5,710.667 263.5,699C268.5,687.333 275.417,677.083 284.25,668.25C293.083,659.417 303.333,652.5 315,647.5C326.667,642.5 339,640 352,640L672,640C685,640 697.333,642.5 709,647.5C720.667,652.5 730.917,659.417 739.75,668.25C748.583,677.083 755.5,687.333 760.5,699C765.5,710.667 768,723 768,736L768,832L928,832C936.667,832 944.167,828.833 950.5,822.5C956.833,816.167 960,808.667 960,800L960,224C960,215.333 956.833,207.833 950.5,201.5C944.167,195.167 936.667,192 928,192L96,192C87.3333,192 79.8333,195.167 73.5,201.5C67.1667,207.833 64,215.333 64,224L64,800C64,808.667 67.1667,816.167 73.5,822.5C79.8333,828.833 87.3333,832 96,832ZM352,412.5C352,390.833 356.333,370.5 365,351.5C373.667,332.5 385.333,315.917 400,301.75C414.667,287.583 431.667,276.417 451,268.25C470.333,260.083 490.667,256 512,256C534.333,256 555.167,260.167 574.5,268.5C593.833,276.833 610.75,288.25 625.25,302.75C639.75,317.25 651.167,334.167 659.5,353.5C667.833,372.833 672,393.667 672,416C672,438.333 667.833,459.167 659.5,478.5C651.167,497.833 639.75,514.75 625.25,529.25C610.75,543.75 593.833,555.167 574.5,563.5C555.167,571.833 534.333,576 512,576C489,576 467.75,571.75 448.25,563.25C428.75,554.75 411.833,543.083 397.5,528.25C383.167,513.417 372,496.083 364,476.25C356,456.417 352,435.167 352,412.5ZM608,416C608,403 605.5,390.667 600.5,379C595.5,367.333 588.583,357.083 579.75,348.25C570.917,339.417 560.667,332.5 549,327.5C537.333,322.5 525,320 512,320C499,320 486.667,322.5 475,327.5C463.333,332.5 453.083,339.417 444.25,348.25C435.417,357.083 428.5,367.333 423.5,379C418.5,390.667 416,403 416,416C416,429 418.5,441.333 423.5,453C428.5,464.667 435.417,474.917 444.25,483.75C453.083,492.583 463.333,499.5 475,504.5C486.667,509.5 499,512 512,512C525,512 537.333,509.5 549,504.5C560.667,499.5 570.917,492.583 579.75,483.75C588.583,474.917 595.5,464.667 600.5,453C605.5,441.333 608,429 608,416ZM320,832L704,832L704,736C704,727.333 700.833,719.833 694.5,713.5C688.167,707.167 680.667,704 672,704L352,704C343.333,704 335.833,707.167 329.5,713.5C323.167,719.833 320,727.333 320,736Z" fill="#FFFFFF" fill-opacity="1">
  </path>
</svg>