<!-- Exported by Character Map UWP -->
<svg height="100%" viewBox="0 0 1024 1024" width="100%" xmlns="http://www.w3.org/2000/svg" xmlns:xlink="http://www.w3.org/1999/xlink">
  <path d="M0,512C0,465 6.08333,419.667 18.25,376C30.4167,332.333 47.6667,291.583 70,253.75C92.3333,215.917 119.083,181.417 150.25,150.25C181.417,119.083 215.917,92.3334 253.75,70C291.583,47.6667 332.333,30.4167 376,18.25C419.667,6.08337 465,0 512,0C559,0 604.333,6.08337 648,18.25C691.667,30.4167 732.417,47.6667 770.25,70C808.083,92.3334 842.583,119.083 873.75,150.25C904.917,181.417 931.667,215.917 954,253.75C976.333,291.583 993.583,332.333 1005.75,376C1017.92,419.667 1024,465 1024,512C1024,559 1017.92,604.333 1005.75,648C993.583,691.667 976.333,732.417 954,770.25C931.667,808.083 904.917,842.583 873.75,873.75C842.583,904.917 808.083,931.667 770.25,954C732.417,976.333 691.667,993.583 648,1005.75C604.333,1017.92 559,1024 512,1024C465,1024 419.667,1017.92 376,1005.75C332.333,993.583 291.583,976.333 253.75,954C215.917,931.667 181.417,904.917 150.25,873.75C119.083,842.583 92.3333,808.083 70,770.25C47.6667,732.417 30.4167,691.667 18.25,648C6.08333,604.333 0,559 0,512ZM960,512C960,471 954.667,431.417 944,393.25C933.333,355.083 918.25,319.417 898.75,286.25C879.25,253.083 855.833,222.833 828.5,195.5C801.167,168.167 770.917,144.75 737.75,125.25C704.583,105.75 668.917,90.6667 630.75,80C592.583,69.3334 553,64.0001 512,64C470.667,64.0001 430.917,69.3334 392.75,80C354.583,90.6667 318.917,105.75 285.75,125.25C252.583,144.75 222.417,168.083 195.25,195.25C168.083,222.417 144.75,252.583 125.25,285.75C105.75,318.917 90.6667,354.583 80,392.75C69.3333,430.917 64,470.667 64,512C64,553.333 69.3333,593.083 80,631.25C90.6667,669.417 105.75,705.083 125.25,738.25C144.75,771.417 168.083,801.583 195.25,828.75C222.417,855.917 252.583,879.25 285.75,898.75C318.917,918.25 354.583,933.333 392.75,944C430.917,954.667 470.667,960 512,960C553.333,960 593.083,954.667 631.25,944C669.417,933.333 705.083,918.25 738.25,898.75C771.417,879.25 801.583,855.917 828.75,828.75C855.917,801.583 879.25,771.417 898.75,738.25C918.25,705.083 933.333,669.417 944,631.25C954.667,593.083 960,553.333 960,512ZM192,512C192,467.667 200.333,426.083 217,387.25C233.667,348.417 256.5,314.5 285.5,285.5C314.5,256.5 348.417,233.667 387.25,217C426.083,200.333 467.667,192 512,192C556.333,192 597.917,200.333 636.75,217C675.583,233.667 709.5,256.5 738.5,285.5C767.5,314.5 790.333,348.417 807,387.25C823.667,426.083 832,467.667 832,512C832,556.333 823.667,597.917 807,636.75C790.333,675.583 767.5,709.5 738.5,738.5C709.5,767.5 675.583,790.333 636.75,807C597.917,823.667 556.333,832 512,832C467.667,832 426.083,823.667 387.25,807C348.417,790.333 314.5,767.5 285.5,738.5C256.5,709.5 233.667,675.583 217,636.75C200.333,597.917 192,556.333 192,512Z" fill="#FFFFFF" fill-opacity="1">
  </path>
</svg>