<!-- Exported by Character Map UWP -->
<svg height="100%" viewBox="0 0 1024 1024" width="100%" xmlns="http://www.w3.org/2000/svg" xmlns:xlink="http://www.w3.org/1999/xlink">
  <path d="M1024,992C1024,1000.67 1020.83,1008.17 1014.5,1014.5C1008.17,1020.83 1000.67,1024 992,1024C983.333,1024 975.833,1020.83 969.5,1014.5L263.5,308.5C254.833,324.833 247.25,341.75 240.75,359.25C234.25,376.75 228.333,394.333 223,412L162.5,613C210.167,630.333 258.667,643.417 308,652.25C357.333,661.083 407.333,665.5 458,665.5C483,665.5 507.917,664.417 532.75,662.25C557.583,660.083 582.333,656.833 607,652.5L661.5,707L650.5,709L673.5,757.5C676.167,762.833 680.083,766.25 685.25,767.75C690.417,769.25 696,770 702,770C705.667,770 709.417,769.833 713.25,769.5C717.083,769.167 720.5,769 723.5,769L787.5,832.5C786.167,832.833 782,833.083 775,833.25C768,833.417 760,833.5 751,833.5C745,833.5 738.833,833.5 732.5,833.5C726.167,833.5 720.25,833.417 714.75,833.25C709.25,833.083 704.417,833 700.25,833C696.083,833 693.167,833 691.5,833C674.833,833 661.083,829.5 650.25,822.5C639.417,815.5 630.167,806.5 622.5,795.5C614.833,784.5 608.25,772.417 602.75,759.25C597.25,746.083 591.5,733.167 585.5,720.5C543.5,726.5 501.167,729.5 458.5,729.5C416.167,729.5 374,726.5 332,720.5L302,784.5C295,799.5 284.667,811.333 271,820C257.333,828.667 242.333,833 226,833L132.5,833C120.833,833 109.917,830.833 99.75,826.5C89.5833,822.167 80.75,816.25 73.25,808.75C65.75,801.25 59.75,792.417 55.25,782.25C50.75,772.083 48.5,761.167 48.5,749.5C48.5,737.833 50.6667,727 55,717L83,648.5C69.3333,639.5 57.3333,628.583 47,615.75C36.6667,602.917 28,589.167 21,574.5C14,559.833 8.75,544.417 5.25,528.25C1.75,512.083 0,496 0,480C0,471.333 3.16667,463.833 9.5,457.5C15.8333,451.167 23.3333,448 32,448L145.5,448C155.167,416.333 165.25,384.583 175.75,352.75C186.25,320.917 199.833,290.5 216.5,261.5L9.5,54.5C3.16667,48.1667 0,40.6667 0,32C0,23.3334 3.16667,15.8334 9.5,9.5C15.8333,3.16669 23.3333,0 32,0C40.6667,0 48.1667,3.16669 54.5,9.5L1014.5,969.5C1020.83,975.833 1024,983.333 1024,992ZM890.5,384C907.5,384 924,387.167 940,393.5C956,399.833 970.25,408.667 982.75,420C995.25,431.333 1005.25,444.583 1012.75,459.75C1020.25,474.917 1024,491.333 1024,509L1024,559.5C1024,570.833 1021.58,581.417 1016.75,591.25C1011.92,601.083 1005.58,609.583 997.75,616.75C989.917,623.917 980.833,629.583 970.5,633.75C960.167,637.917 949.5,640 938.5,640L829.5,640C831.833,645.667 834.833,652.5 838.5,660.5C842.167,668.5 845.833,676.75 849.5,685.25C853.167,693.75 856.5,702 859.5,710C862.5,718 864.5,724.667 865.5,730L750.5,614.5L755,613L697,412C688,381 676.917,352.167 663.75,325.5C650.583,298.833 634.333,275.583 615,255.75C595.667,235.917 572.833,220.333 546.5,209C520.167,197.667 489.5,192 454.5,192C436.5,192 418.75,193.667 401.25,197C383.75,200.333 367,206.333 351,215L304,168.5C326.333,153.833 350.333,143.417 376,137.25C401.667,131.083 427.833,128 454.5,128C496.833,128 534.083,134.333 566.25,147C598.417,159.667 626.5,177.333 650.5,200C674.5,222.667 695,249.667 712,281C729,312.333 743.5,346.667 755.5,384ZM960,512C960,502.667 957.917,494 953.75,486C949.583,478 944.083,471.25 937.25,465.75C930.417,460.25 922.75,455.917 914.25,452.75C905.75,449.583 897,448 888,448L774,448L811,576L938.5,576C942.833,576 947.5,574.5 952.5,571.5C957.5,568.5 960,564.5 960,559.5ZM67,512C69.6667,525.667 74,538.583 80,550.75C86,562.917 94.1667,573.833 104.5,583.5L126,512ZM266.5,709C245.167,704.333 224.167,699.167 203.5,693.5C182.833,687.833 162.333,681.167 142,673.5C140.667,676.5 138.417,681.667 135.25,689C132.083,696.333 128.833,704.083 125.5,712.25C122.167,720.417 119.167,728 116.5,735C113.833,742 112.5,746.667 112.5,749C112.5,754.667 114.417,759.417 118.25,763.25C122.083,767.083 126.833,769 132.5,769L226,769C234,769 240,765.167 244,757.5Z" fill="#FFFFFF" fill-opacity="1">
  </path>
</svg>