<!-- Exported by Character Map UWP -->
<svg height="100%" viewBox="0 128 1024 705" width="100%" xmlns="http://www.w3.org/2000/svg" xmlns:xlink="http://www.w3.org/1999/xlink">
  <path d="M132.5,833C120.833,833 109.917,830.833 99.75,826.5C89.5833,822.167 80.6667,816.25 73,808.75C65.3333,801.25 59.3333,792.417 55,782.25C50.6667,772.083 48.5,761.167 48.5,749.5C48.5,742.167 49.75,734.083 52.25,725.25C54.75,716.417 57.8333,707.417 61.5,698.25C65.1667,689.083 69,680.167 73,671.5C77,662.833 80.3333,655.167 83,648.5C69.3333,639.5 57.3333,628.583 47,615.75C36.6667,602.917 28,589.167 21,574.5C14,559.833 8.75,544.417 5.25,528.25C1.75,512.083 0,496 0,480C0,471.333 3.16667,463.833 9.5,457.5C15.8333,451.167 23.3333,448 32,448L145.5,448L162,393.5C173.333,355.833 186.833,320.833 202.5,288.5C218.167,256.167 237.417,228.083 260.25,204.25C283.083,180.417 310.25,161.75 341.75,148.25C373.25,134.75 410.833,128 454.5,128C496.833,128 534.083,134.333 566.25,147C598.417,159.667 626.5,177.417 650.5,200.25C674.5,223.083 695,250.167 712,281.5C729,312.833 743.5,347 755.5,384L891,384C908,384 924.5,387.25 940.5,393.75C956.5,400.25 970.667,409.167 983,420.5C995.333,431.833 1005.25,445.167 1012.75,460.5C1020.25,475.833 1024,492.167 1024,509.5L1024,559.5C1024,570.833 1021.58,581.417 1016.75,591.25C1011.92,601.083 1005.58,609.583 997.75,616.75C989.917,623.917 980.833,629.583 970.5,633.75C960.167,637.917 949.5,640 938.5,640L829.5,640C832.5,646.667 836.167,654.75 840.5,664.25C844.833,673.75 849,683.583 853,693.75C857,703.917 860.5,713.833 863.5,723.5C866.5,733.167 868,741.667 868,749C868,766 863.333,781.583 854,795.75C844.667,809.917 832,820.167 816,826.5C810.667,828.5 805.417,830.083 800.25,831.25C795.083,832.417 789.667,833 784,833L691.5,833C674.833,833 659.75,828.667 646.25,820C632.75,811.333 622.5,799.5 615.5,784.5L585.5,720.5C543.5,726.5 501.167,729.5 458.5,729.5C416.167,729.5 374,726.5 332,720.5L302,784.5C295,799.5 284.667,811.333 271,820C257.333,828.667 242.333,833 226,833ZM162.5,613C210.167,630.333 258.833,643.417 308.5,652.25C358.167,661.083 408.333,665.5 459,665.5C509.667,665.5 559.75,661.083 609.25,652.25C658.75,643.417 707.333,630.333 755,613C750.333,596 745.5,579.167 740.5,562.5L711.5,462.5C706.833,445.5 702,428.667 697,412C688,381 676.917,352.167 663.75,325.5C650.583,298.833 634.333,275.583 615,255.75C595.667,235.917 572.917,220.333 546.75,209C520.583,197.667 489.833,192 454.5,192C418.5,192 388,197.75 363,209.25C338,220.75 316.667,236.417 299,256.25C281.333,276.083 266.583,299.417 254.75,326.25C242.917,353.083 232.333,381.667 223,412ZM938.5,576C942.833,576 947.5,574.5 952.5,571.5C957.5,568.5 960,564.5 960,559.5L960,512C960,502.667 957.917,494 953.75,486C949.583,478 944.167,471.25 937.5,465.75C930.833,460.25 923.25,455.917 914.75,452.75C906.25,449.583 897.5,448 888.5,448L774,448L811,576ZM126,512L67,512C69.6667,525.667 74,538.583 80,550.75C86,562.917 94.1667,573.833 104.5,583.5ZM226,769C234,769 240,765.167 244,757.5L266.5,709.5C223.833,700.5 182.333,688.5 142,673.5C140.667,676.5 138.417,681.667 135.25,689C132.083,696.333 128.833,704.083 125.5,712.25C122.167,720.417 119.167,728 116.5,735C113.833,742 112.5,746.667 112.5,749C112.5,754.667 114.417,759.417 118.25,763.25C122.083,767.083 126.833,769 132.5,769ZM784,769C789.667,769 794.417,766.917 798.25,762.75C802.083,758.583 804,753.833 804,748.5C804,746.5 802.667,742 800,735C797.333,728 794.333,720.417 791,712.25C787.667,704.083 784.333,696.333 781,689C777.667,681.667 775.5,676.667 774.5,674C754.167,681.333 733.667,687.917 713,693.75C692.333,699.583 671.5,704.667 650.5,709L673.5,757.5C677.167,765.167 683.167,769 691.5,769Z" fill="#FFFFFF" fill-opacity="1">
  </path>
</svg>