<!-- Exported by Character Map UWP -->
<svg height="100%" viewBox="0 123 1024 710" width="100%" xmlns="http://www.w3.org/2000/svg" xmlns:xlink="http://www.w3.org/1999/xlink">
  <path d="M608,720.5C608,735.833 605,750.25 599,763.75C593,777.25 584.917,789.083 574.75,799.25C564.583,809.417 552.75,817.417 539.25,823.25C525.75,829.083 511.333,832 496,832C480.333,832 465.75,829.083 452.25,823.25C438.75,817.417 426.917,809.5 416.75,799.5C406.583,789.5 398.583,777.75 392.75,764.25C386.917,750.75 384,736.167 384,720.5C384,713.833 384.5,707.167 385.5,700.5L474,148.5C475.333,140.833 478.917,134.583 484.75,129.75C490.583,124.917 497.333,122.5 505,122.5C513.667,122.5 520.917,125.167 526.75,130.5C532.583,135.833 536,142.833 537,151.5L605,696C605.667,700.333 606.333,704.417 607,708.25C607.667,712.083 608,716.167 608,720.5ZM1024,480.5C1024,489.5 1020.75,497 1014.25,503C1007.75,509 1000.17,512 991.5,512C984.833,512 979,510.167 974,506.5C969,502.833 965.167,498 962.5,492C958.167,482 953.583,472.25 948.75,462.75C943.917,453.25 938.667,443.833 933,434.5L817,507C811.333,510.333 805.667,512 800,512C791.333,512 783.833,508.833 777.5,502.5C771.167,496.167 768,488.667 768,480C768,468.333 773,459.333 783,453L896.5,382C861.833,338.333 821.333,301 775,270C728.667,239 678.167,217.167 623.5,204.5L613.5,137C646.167,143 678,152.083 709,164.25C740,176.417 769.5,191.167 797.5,208.5C825.5,225.833 851.917,245.583 876.75,267.75C901.583,289.917 924.167,314.167 944.5,340.5C947.5,344.5 951.583,350.083 956.75,357.25C961.917,364.417 967.5,372.417 973.5,381.25C979.5,390.083 985.5,399.25 991.5,408.75C997.5,418.25 1002.92,427.583 1007.75,436.75C1012.58,445.917 1016.5,454.333 1019.5,462C1022.5,469.667 1024,475.833 1024,480.5ZM256,480C256,488.667 252.833,496.167 246.5,502.5C240.167,508.833 232.667,512 224,512C218.333,512 212.667,510.333 207,507L91,434.5C85.3333,444.167 80.1667,453.667 75.5,463C70.8333,472.333 66.1667,482 61.5,492C58.8333,498 55.0833,502.833 50.25,506.5C45.4167,510.167 39.5,512 32.5,512C23.8333,512 16.25,509 9.75,503C3.25,497 0,489.5 0,480.5C0,475.833 1.5,469.75 4.5,462.25C7.5,454.75 11.3333,446.583 16,437.75C20.6667,428.917 25.8333,419.75 31.5,410.25C37.1667,400.75 42.8333,391.75 48.5,383.25C54.1667,374.75 59.5,367 64.5,360C69.5,353 73.5,347.5 76.5,343.5C96.1667,318.167 117.917,294.5 141.75,272.5C165.583,250.5 191,230.833 218,213.5C245,196.167 273.333,181.25 303,168.75C332.667,156.25 363.333,146.667 395,140L384,209C332.333,223 284.917,244.917 241.75,274.75C198.583,304.583 160.5,340.333 127.5,382L241,453C251,459.333 256,468.333 256,480ZM544,720.5C544,717.833 543.75,715.5 543.25,713.5C542.75,711.5 542.333,709.333 542,707L501.5,381C500.833,384 499.667,391 498,402C496.333,413 494.167,426.5 491.5,442.5C488.833,458.5 486,476.167 483,495.5C480,514.833 476.833,534.417 473.5,554.25C470.167,574.083 467,593.417 464,612.25C461,631.083 458.333,647.833 456,662.5C453.667,677.167 451.833,689.167 450.5,698.5C449.167,707.833 448.5,712.833 448.5,713.5L448,714L447.5,719C447.5,732.667 452.083,744.25 461.25,753.75C470.417,763.25 481.833,768 495.5,768C501.833,768 508,766.75 514,764.25C520,761.75 525.167,758.417 529.5,754.25C533.833,750.083 537.333,745.083 540,739.25C542.667,733.417 544,727.167 544,720.5Z" fill="#FFFFFF" fill-opacity="1">
  </path>
</svg>