<!-- Exported by Character Map UWP -->
<svg height="100%" viewBox="0 128 1024 704" width="100%" xmlns="http://www.w3.org/2000/svg" xmlns:xlink="http://www.w3.org/1999/xlink">
  <path d="M1024,480.5C1024,489.5 1020.75,497 1014.25,503C1007.75,509 1000.17,512 991.5,512C984.5,512 978.583,510.167 973.75,506.5C968.917,502.833 965.167,498 962.5,492C957.833,482 953.167,472.333 948.5,463C943.833,453.667 938.667,444.167 933,434.5L817,507C811.333,510.333 805.667,512 800,512C791.333,512 783.833,508.833 777.5,502.5C771.167,496.167 768,488.667 768,480C768,468.333 773,459.333 783,453L896.5,382C874.5,354.333 850.417,329.333 824.25,307C798.083,284.667 770.167,265.417 740.5,249.25C710.833,233.083 679.5,220.167 646.5,210.5C613.5,200.833 579.333,195 544,193L544,352C544,360.667 540.833,368.167 534.5,374.5C528.167,380.833 520.667,384 512,384C503.333,384 495.833,380.833 489.5,374.5C483.167,368.167 480,360.667 480,352L480,193C426,196.667 375,208.5 327,228.5C279,248.5 234.833,276.333 194.5,312L135.5,279C187.167,229.333 244.917,191.75 308.75,166.25C372.583,140.75 440.333,128 512,128C555,128 596.833,132.417 637.5,141.25C678.167,150.083 717.667,164.667 756,185C788.667,202.333 819.583,222.083 848.75,244.25C877.917,266.417 904.5,291.833 928.5,320.5C932.167,325.167 937.167,331.5 943.5,339.5C949.833,347.5 956.5,356.5 963.5,366.5C970.5,376.5 977.583,386.917 984.75,397.75C991.917,408.583 998.417,419.167 1004.25,429.5C1010.08,439.833 1014.83,449.5 1018.5,458.5C1022.17,467.5 1024,474.833 1024,480.5ZM585.5,623C602.5,633 615.917,646.583 625.75,663.75C635.583,680.917 640.5,699.333 640.5,719C640.5,734.667 637.583,749.25 631.75,762.75C625.917,776.25 617.917,788.167 607.75,798.5C597.583,808.833 585.667,816.917 572,822.75C558.333,828.583 543.833,831.5 528.5,831.5C509.833,831.5 493.833,827.917 480.5,820.75C467.167,813.583 454.167,803.5 441.5,790.5L57,398.5C50.6667,392.167 47.5,384.5 47.5,375.5C47.5,366.833 50.5833,359.333 56.75,353C62.9167,346.667 70.3333,343.5 79,343.5C81.6667,343.5 84.5,343.917 87.5,344.75C90.5,345.583 93.1667,346.667 95.5,348L585,623ZM5.5,460.5L50.5,506C44.8333,510 38.6667,512 32,512C23,512 15.4167,509 9.25,503C3.08333,497 0,489.5 0,480.5C0,476.833 0.583333,473.417 1.75,470.25C2.91667,467.083 4.16667,463.833 5.5,460.5ZM576.5,720C576.5,710.667 574.417,702.667 570.25,696C566.083,689.333 560.333,683.5 553,678.5L551,677.5C551,677.5 547.083,675.25 539.25,670.75C531.417,666.25 521.083,660.417 508.25,653.25C495.417,646.083 480.667,637.833 464,628.5C447.333,619.167 430.25,609.583 412.75,599.75C395.25,589.917 377.917,580.167 360.75,570.5C343.583,560.833 327.917,552 313.75,544C299.583,536 287.667,529.25 278,523.75C268.333,518.25 262.167,514.833 259.5,513.5L489,747.5C495.333,753.833 501,758.75 506,762.25C511,765.75 518.333,767.5 528,767.5C541.333,767.5 552.75,763 562.25,754C571.75,745 576.5,733.667 576.5,720Z" fill="#FFFFFF" fill-opacity="1">
  </path>
</svg>