<!-- Exported by Character Map UWP -->
<svg height="100%" viewBox="0 64 1024 960" width="100%" xmlns="http://www.w3.org/2000/svg" xmlns:xlink="http://www.w3.org/1999/xlink">
  <path d="M64,992L64,864C64,855.333 67.1667,847.833 73.5,841.5C79.8333,835.167 87.3333,832 96,832L224,832C237,832 249.333,829.5 261,824.5C272.667,819.5 282.917,812.583 291.75,803.75C300.583,794.917 307.5,784.667 312.5,773C317.5,761.333 320,749 320,736L320,704L125.5,704C108.833,704 92.9167,700.583 77.75,693.75C62.5833,686.917 49.25,677.75 37.75,666.25C26.25,654.75 17.0833,641.417 10.25,626.25C3.41667,611.083 0,595.167 0,578.5L0,189.5C0,172.833 3.41667,156.917 10.25,141.75C17.0833,126.583 26.25,113.25 37.75,101.75C49.25,90.25 62.5833,81.0834 77.75,74.25C92.9167,67.4167 108.833,64.0001 125.5,64L642.5,64C659.5,64.0001 675.5,67.4167 690.5,74.25C705.5,81.0834 718.75,90.25 730.25,101.75C741.75,113.25 750.833,126.583 757.5,141.75C764.167,156.917 767.667,172.833 768,189.5L768,209.5L768,249L976.5,132C981.167,129.333 986.333,128 992,128C1000.67,128 1008.17,131.167 1014.5,137.5C1020.83,143.833 1024,151.333 1024,160L1024,608C1024,616.667 1020.83,624.167 1014.5,630.5C1008.17,636.833 1000.67,640 992,640C986.333,640 981.167,638.667 976.5,636L768,518.5L768,578.5C768,595.833 764.5,612.083 757.5,627.25C750.5,642.417 741.167,655.667 729.5,667C717.833,678.333 704.25,687.333 688.75,694C673.25,700.667 657,704 640,704L512,704L512,773C512,795.333 508.917,817 502.75,838C496.583,859 487.917,878.833 476.75,897.5C465.583,916.167 452.25,933.25 436.75,948.75C421.25,964.25 404.167,977.583 385.5,988.75C366.833,999.917 347,1008.58 326,1014.75C305,1020.92 283.333,1024 261,1024L96,1024C87.3333,1024 79.8333,1020.83 73.5,1014.5C67.1667,1008.17 64,1000.67 64,992ZM640,640C649,640 657.333,638.333 665,635C672.667,631.667 679.417,627.083 685.25,621.25C691.083,615.417 695.667,608.667 699,601C702.333,593.333 704,585 704,576L704,192C704,183.333 702.333,175.083 699,167.25C695.667,159.417 691.083,152.583 685.25,146.75C679.417,140.917 672.583,136.333 664.75,133C656.917,129.667 648.667,128 640,128L128,128C119,128 110.667,129.667 103,133C95.3333,136.333 88.5833,140.917 82.75,146.75C76.9167,152.583 72.3333,159.333 69,167C65.6667,174.667 64,183 64,192L64,576C64,585 65.6667,593.417 69,601.25C72.3333,609.083 76.8333,615.833 82.5,621.5C88.1667,627.167 94.9167,631.667 102.75,635C110.583,638.333 119,640 128,640ZM768.5,445L960,553L960,214.5L768.5,322.5ZM260,960C285,960 308.917,954.917 331.75,944.75C354.583,934.583 374.583,920.917 391.75,903.75C408.917,886.583 422.583,866.583 432.75,843.75C442.917,820.917 448,797 448,772L448,704L384,704L384,739.5C384,761.167 379.667,781.5 371,800.5C362.333,819.5 350.667,836.083 336,850.25C321.333,864.417 304.333,875.583 285,883.75C265.667,891.917 245.333,896 224,896L128,896L128,960Z" fill="#FFFFFF" fill-opacity="1">
  </path>
</svg>