<!-- Exported by Character Map UWP -->
<svg height="100%" viewBox="0 0 1024 960" width="100%" xmlns="http://www.w3.org/2000/svg" xmlns:xlink="http://www.w3.org/1999/xlink">
  <path d="M263.5,0L376.5,0C398.5,0 417.083,5.91669 432.25,17.75C447.417,29.5834 459.333,45.0001 468,64L512,64C529.667,64.0001 546.25,67.3334 561.75,74C577.25,80.6667 590.833,89.8334 602.5,101.5C614.167,113.167 623.333,126.75 630,142.25C636.667,157.75 640,174.333 640,192L640,448C640,465.667 636.667,482.25 630,497.75C623.333,513.25 614.167,526.833 602.5,538.5C590.833,550.167 577.25,559.333 561.75,566C546.25,572.667 529.667,576 512,576L128,576C110.333,576 93.75,572.667 78.25,566C62.75,559.333 49.1667,550.167 37.5,538.5C25.8333,526.833 16.6667,513.25 10,497.75C3.33333,482.25 0,465.667 0,448L0,192C0,174.333 3.33333,157.75 10,142.25C16.6667,126.75 25.8333,113.167 37.5,101.5C49.1667,89.8334 62.75,80.6667 78.25,74C93.75,67.3334 110.333,64.0001 128,64L172,64C180.667,45.0001 192.583,29.5834 207.75,17.75C222.917,5.91669 241.5,0 263.5,0ZM263.5,64C256.5,64.0001 250.917,65.5834 246.75,68.75C242.583,71.9167 239,75.8334 236,80.5C233,85.1667 230.25,90.3334 227.75,96C225.25,101.667 222.083,106.833 218.25,111.5C214.417,116.167 209.667,120.083 204,123.25C198.333,126.417 191,128 182,128L128,128C119,128 110.667,129.667 103,133C95.3333,136.333 88.5833,140.917 82.75,146.75C76.9167,152.583 72.3333,159.333 69,167C65.6667,174.667 64,183 64,192L64,448C64,457 65.6667,465.333 69,473C72.3333,480.667 76.9167,487.417 82.75,493.25C88.5833,499.083 95.3333,503.667 103,507C110.667,510.333 119,512 128,512L512,512C521,512 529.333,510.333 537,507C544.667,503.667 551.417,499.083 557.25,493.25C563.083,487.417 567.667,480.667 571,473C574.333,465.333 576,457 576,448L576,192C576,183 574.333,174.667 571,167C567.667,159.333 563.083,152.583 557.25,146.75C551.417,140.917 544.667,136.333 537,133C529.333,129.667 521,128 512,128L458,128C448.667,128 441.25,126.417 435.75,123.25C430.25,120.083 425.583,116.167 421.75,111.5C417.917,106.833 414.75,101.667 412.25,96C409.75,90.3334 407,85.1667 404,80.5C401,75.8334 397.417,71.9167 393.25,68.75C389.083,65.5834 383.5,64.0001 376.5,64ZM320,192C337.667,192 354.25,195.333 369.75,202C385.25,208.667 398.833,217.833 410.5,229.5C422.167,241.167 431.333,254.75 438,270.25C444.667,285.75 448,302.333 448,320C448,337.667 444.667,354.25 438,369.75C431.333,385.25 422.167,398.833 410.5,410.5C398.833,422.167 385.25,431.333 369.75,438C354.25,444.667 337.667,448 320,448C302.333,448 285.75,444.667 270.25,438C254.75,431.333 241.167,422.167 229.5,410.5C217.833,398.833 208.667,385.25 202,369.75C195.333,354.25 192,337.667 192,320C192,302.333 195.333,285.75 202,270.25C208.667,254.75 217.833,241.167 229.5,229.5C241.167,217.833 254.75,208.667 270.25,202C285.75,195.333 302.333,192 320,192ZM256,320C256,329 257.667,337.333 261,345C264.333,352.667 268.917,359.417 274.75,365.25C280.583,371.083 287.333,375.667 295,379C302.667,382.333 311,384 320,384C329,384 337.333,382.333 345,379C352.667,375.667 359.417,371.083 365.25,365.25C371.083,359.417 375.667,352.667 379,345C382.333,337.333 384,329 384,320C384,311 382.333,302.667 379,295C375.667,287.333 371.083,280.583 365.25,274.75C359.417,268.917 352.667,264.333 345,261C337.333,257.667 329,256 320,256C311,256 302.667,257.667 295,261C287.333,264.333 280.583,268.917 274.75,274.75C268.917,280.583 264.333,287.333 261,295C257.667,302.667 256,311 256,320ZM512,960C490.667,960 470.667,955.083 452,945.25C433.333,935.417 418,921.667 406,904C414,896 422.167,887.917 430.5,879.75C438.833,871.583 445.667,862.333 451,852C455.333,865 463.083,875.583 474.25,883.75C485.417,891.917 498,896 512,896L896,896C905,896 913.333,894.333 921,891C928.667,887.667 935.417,883.083 941.25,877.25C947.083,871.417 951.667,864.667 955,857C958.333,849.333 960,841 960,832L960,576C960,567 958.333,558.667 955,551C951.667,543.333 947.083,536.583 941.25,530.75C935.417,524.917 928.667,520.333 921,517C913.333,513.667 905,512 896,512L842,512C833.667,512 826.833,510.75 821.5,508.25C816.167,505.75 811.667,502.333 808,498C804.333,493.667 801.083,488.667 798.25,483C795.417,477.333 792.333,471.5 789,465.5C786.333,460.167 782.417,455.917 777.25,452.75C772.083,449.583 766.5,448 760.5,448L704,448L704,384L760.5,384C782.833,384 801.333,389.917 816,401.75C830.667,413.583 842.667,429 852,448L896,448C913.667,448 930.25,451.333 945.75,458C961.25,464.667 974.833,473.833 986.5,485.5C998.167,497.167 1007.33,510.75 1014,526.25C1020.67,541.75 1024,558.333 1024,576L1024,832C1024,849.667 1020.67,866.25 1014,881.75C1007.33,897.25 998.167,910.833 986.5,922.5C974.833,934.167 961.25,943.333 945.75,950C930.25,956.667 913.667,960 896,960ZM576,704C576,686.333 579.333,669.75 586,654.25C592.667,638.75 601.833,625.167 613.5,613.5C625.167,601.833 638.75,592.667 654.25,586C669.75,579.333 686.333,576 704,576C721.667,576 738.25,579.333 753.75,586C769.25,592.667 782.833,601.833 794.5,613.5C806.167,625.167 815.333,638.75 822,654.25C828.667,669.75 832,686.333 832,704C832,721.667 828.667,738.25 822,753.75C815.333,769.25 806.167,782.833 794.5,794.5C782.833,806.167 769.25,815.333 753.75,822C738.25,828.667 721.667,832 704,832C686.333,832 669.75,828.667 654.25,822C638.75,815.333 625.167,806.167 613.5,794.5C601.833,782.833 592.667,769.25 586,753.75C579.333,738.25 576,721.667 576,704ZM704,640C695,640 686.667,641.667 679,645C671.333,648.333 664.583,652.917 658.75,658.75C652.917,664.583 648.333,671.333 645,679C641.667,686.667 640,695 640,704C640,713 641.667,721.333 645,729C648.333,736.667 652.917,743.417 658.75,749.25C664.583,755.083 671.333,759.667 679,763C686.667,766.333 695,768 704,768C713,768 721.333,766.333 729,763C736.667,759.667 743.417,755.083 749.25,749.25C755.083,743.417 759.667,736.667 763,729C766.333,721.333 768,713 768,704C768,695 766.333,686.667 763,679C759.667,671.333 755.083,664.583 749.25,658.75C743.417,652.917 736.667,648.333 729,645C721.333,641.667 713,640 704,640ZM224,960C215.333,960 207.833,956.833 201.5,950.5C195.167,944.167 192,936.667 192,928C192,919.333 195.167,911.833 201.5,905.5L274.5,832L128,832C110.333,832 93.75,828.667 78.25,822C62.75,815.333 49.1667,806.167 37.5,794.5C25.8333,782.833 16.6667,769.25 10,753.75C3.33333,738.25 0,721.667 0,704L0,672C0,663.333 3.16667,655.833 9.5,649.5C15.8333,643.167 23.3333,640 32,640C41.3333,640 48.25,642.167 52.75,646.5C57.25,650.833 60.3333,656.083 62,662.25C63.6667,668.417 64.5,674.833 64.5,681.5C64.5,682.167 64.4167,684.583 64.25,688.75C64.0833,692.917 64,698 64,704C64,713 65.6667,721.333 69,729C72.3333,736.667 76.9167,743.417 82.75,749.25C88.5833,755.083 95.3333,759.667 103,763C110.667,766.333 119,768 128,768L274.5,768L201.5,694.5C195.167,688.167 192,680.667 192,672C192,663.333 195.167,655.833 201.5,649.5C207.833,643.167 215.333,640 224,640C232.667,640 240.167,643.167 246.5,649.5L374.5,777.5C380.833,783.833 384,791.333 384,800C384,808.667 380.833,816.167 374.5,822.5L246.5,950.5C240.167,956.833 232.667,960 224,960Z" fill="#FFFFFF" fill-opacity="1">
  </path>
</svg>