<!-- Exported by Character Map UWP -->
<svg height="100%" viewBox="0 64 1024 896" width="100%" xmlns="http://www.w3.org/2000/svg" xmlns:xlink="http://www.w3.org/1999/xlink">
  <path d="M256,224L256,96C256,87.3334 259.167,79.8334 265.5,73.5C271.833,67.1667 279.333,64.0001 288,64C296.667,64.0001 304.167,67.1667 310.5,73.5C316.833,79.8334 320,87.3334 320,96L320,224C320,232.667 316.833,240.167 310.5,246.5C304.167,252.833 296.667,256 288,256C279.333,256 271.833,252.833 265.5,246.5C259.167,240.167 256,232.667 256,224ZM704,224L704,96C704,87.3334 707.167,79.8334 713.5,73.5C719.833,67.1667 727.333,64.0001 736,64C744.667,64.0001 752.167,67.1667 758.5,73.5C764.833,79.8334 768,87.3334 768,96L768,224C768,232.667 764.833,240.167 758.5,246.5C752.167,252.833 744.667,256 736,256C727.333,256 719.833,252.833 713.5,246.5C707.167,240.167 704,232.667 704,224ZM0,672L0,352C0,343.333 3.16667,335.833 9.5,329.5C15.8333,323.167 23.3333,320 32,320C40.6667,320 48.1667,323.167 54.5,329.5C60.8333,335.833 64,343.333 64,352L64,672C64,680.667 60.8333,688.167 54.5,694.5C48.1667,700.833 40.6667,704 32,704C23.3333,704 15.8333,700.833 9.5,694.5C3.16667,688.167 0,680.667 0,672ZM128,672L128,352C128,343.333 131.167,335.833 137.5,329.5C143.833,323.167 151.333,320 160,320C168.667,320 176.167,323.167 182.5,329.5C188.833,335.833 192,343.333 192,352L192,672C192,680.667 188.833,688.167 182.5,694.5C176.167,700.833 168.667,704 160,704C151.333,704 143.833,700.833 137.5,694.5C131.167,688.167 128,680.667 128,672ZM352,704C339,704 326.667,701.5 315,696.5C303.333,691.5 293.083,684.583 284.25,675.75C275.417,666.917 268.5,656.667 263.5,645C258.5,633.333 256,621 256,608L256,416C256,403 258.5,390.667 263.5,379C268.5,367.333 275.417,357.083 284.25,348.25C293.083,339.417 303.333,332.5 315,327.5C326.667,322.5 339,320 352,320L672,320C685,320 697.333,322.5 709,327.5C720.667,332.5 730.917,339.417 739.75,348.25C748.583,357.083 755.5,367.333 760.5,379C765.5,390.667 768,403 768,416L768,608C768,621 765.5,633.333 760.5,645C755.5,656.667 748.583,666.917 739.75,675.75C730.917,684.583 720.667,691.5 709,696.5C697.333,701.5 685,704 672,704ZM832,672L832,352C832,343.333 835.167,335.833 841.5,329.5C847.833,323.167 855.333,320 864,320C872.667,320 880.167,323.167 886.5,329.5C892.833,335.833 896,343.333 896,352L896,672C896,680.667 892.833,688.167 886.5,694.5C880.167,700.833 872.667,704 864,704C855.333,704 847.833,700.833 841.5,694.5C835.167,688.167 832,680.667 832,672ZM960,672L960,352C960,343.333 963.167,335.833 969.5,329.5C975.833,323.167 983.333,320 992,320C1000.67,320 1008.17,323.167 1014.5,329.5C1020.83,335.833 1024,343.333 1024,352L1024,672C1024,680.667 1020.83,688.167 1014.5,694.5C1008.17,700.833 1000.67,704 992,704C983.333,704 975.833,700.833 969.5,694.5C963.167,688.167 960,680.667 960,672ZM672,640C680.667,640 688.167,636.833 694.5,630.5C700.833,624.167 704,616.667 704,608L704,416C704,407.333 700.833,399.833 694.5,393.5C688.167,387.167 680.667,384 672,384L352,384C343.333,384 335.833,387.167 329.5,393.5C323.167,399.833 320,407.333 320,416L320,608C320,616.667 323.167,624.167 329.5,630.5C335.833,636.833 343.333,640 352,640ZM256,928L256,800C256,791.333 259.167,783.833 265.5,777.5C271.833,771.167 279.333,768 288,768C296.667,768 304.167,771.167 310.5,777.5C316.833,783.833 320,791.333 320,800L320,928C320,936.667 316.833,944.167 310.5,950.5C304.167,956.833 296.667,960 288,960C279.333,960 271.833,956.833 265.5,950.5C259.167,944.167 256,936.667 256,928ZM704,928L704,800C704,791.333 707.167,783.833 713.5,777.5C719.833,771.167 727.333,768 736,768C744.667,768 752.167,771.167 758.5,777.5C764.833,783.833 768,791.333 768,800L768,928C768,936.667 764.833,944.167 758.5,950.5C752.167,956.833 744.667,960 736,960C727.333,960 719.833,956.833 713.5,950.5C707.167,944.167 704,936.667 704,928Z" fill="#FFFFFF" fill-opacity="1">
  </path>
</svg>