<!-- Exported by Character Map UWP -->
<svg height="100%" viewBox="0 128 1024 896" width="100%" xmlns="http://www.w3.org/2000/svg" xmlns:xlink="http://www.w3.org/1999/xlink">
  <path d="M1024,800C1024,808.667 1020.83,816.167 1014.5,822.5C1008.17,828.833 1000.67,832 992,832L844.5,832C845.833,835.667 848,841.833 851,850.5C854,859.167 857.417,869.083 861.25,880.25C865.083,891.417 869,903 873,915C877,927 880.75,938.333 884.25,949C887.75,959.667 890.583,968.917 892.75,976.75C894.917,984.583 896,989.667 896,992C896,1001 892.833,1008.58 886.5,1014.75C880.167,1020.92 872.667,1024 864,1024C857,1024 850.75,1022 845.25,1018C839.75,1014 835.833,1008.67 833.5,1002L777,832L247,832L190.5,1002C188.167,1008.67 184.25,1014 178.75,1018C173.25,1022 167,1024 160,1024C151,1024 143.417,1020.83 137.25,1014.5C131.083,1008.17 128,1000.67 128,992C128,989.667 129.083,984.583 131.25,976.75C133.417,968.917 136.25,959.667 139.75,949C143.25,938.333 147,927 151,915C155,903 158.917,891.417 162.75,880.25C166.583,869.083 170,859.167 173,850.5C176,841.833 178.167,835.667 179.5,832L32,832C23.3333,832 15.8333,828.833 9.5,822.5C3.16667,816.167 0,808.667 0,800C0,792.667 1.41667,786.917 4.25,782.75C7.08333,778.583 10.75,775.417 15.25,773.25C19.75,771.083 24.75,769.667 30.25,769C35.75,768.333 41.3333,768 47,768L64,768L64,253.5C64,236.833 67.4167,220.917 74.25,205.75C81.0833,190.583 90.25,177.25 101.75,165.75C113.25,154.25 126.583,145.083 141.75,138.25C156.917,131.417 172.833,128 189.5,128L834.5,128C851.833,128 868.083,131.5 883.25,138.5C898.417,145.5 911.667,154.833 923,166.5C934.333,178.167 943.333,191.75 950,207.25C956.667,222.75 960,239 960,256L960,768L977,768C982.667,768 988.25,768.333 993.75,769C999.25,769.667 1004.25,771.083 1008.75,773.25C1013.25,775.417 1016.92,778.583 1019.75,782.75C1022.58,786.917 1024,792.667 1024,800ZM896,768L896,256C896,247.333 894.333,239.083 891,231.25C887.667,223.417 883.083,216.583 877.25,210.75C871.417,204.917 864.583,200.333 856.75,197C848.917,193.667 840.667,192 832,192L192,192C183,192 174.667,193.667 167,197C159.333,200.333 152.583,204.917 146.75,210.75C140.917,216.583 136.333,223.333 133,231C129.667,238.667 128,247 128,256L128,384C149.667,367.667 171.333,352.25 193,337.75C214.667,323.25 237.5,309.833 261.5,297.5C267.833,294.167 274.167,290.75 280.5,287.25C286.833,283.75 293.25,280.583 299.75,277.75C306.25,274.917 313,272.583 320,270.75C327,268.917 334.167,268 341.5,268C353.833,268 365.417,270.417 376.25,275.25C387.083,280.083 396.667,286.667 405,295C413.333,303.333 419.917,312.917 424.75,323.75C429.583,334.583 432,346.167 432,358.5C432,374.167 428.333,388.833 421,402.5L325.5,581.5C321.833,588.167 320,595.167 320,602.5C320,608.5 321.167,614.167 323.5,619.5C325.833,624.833 329.083,629.583 333.25,633.75C337.417,637.917 342.167,641.167 347.5,643.5C352.833,645.833 358.5,647 364.5,647C369.833,647 375.667,646.333 382,645C388.333,643.667 394.75,642 401.25,640C407.75,638 414,635.75 420,633.25C426,630.75 431.333,628.333 436,626L529.5,579.5C534.167,577.167 539,576 544,576C552.667,576 560.167,579.167 566.5,585.5C572.833,591.833 576,599.333 576,608C576,613.667 574.417,619.167 571.25,624.5C568.083,629.833 563.833,633.833 558.5,636.5L465,683.5C458.667,686.833 451.25,690.167 442.75,693.5C434.25,696.833 425.417,699.833 416.25,702.5C407.083,705.167 398,707.333 389,709C380,710.667 372,711.5 365,711.5C350,711.5 335.917,708.583 322.75,702.75C309.583,696.917 298,689 288,679C278,669 270.167,657.417 264.5,644.25C258.833,631.083 256,617 256,602C256,583.667 260.333,566.667 269,551C271,547 274.833,539.833 280.5,529.5C286.167,519.167 292.667,507.333 300,494C307.333,480.667 315,466.583 323,451.75C331,436.917 338.333,423 345,410C351.667,397 357.167,385.833 361.5,376.5C365.833,367.167 368,361.333 368,359C368,352.333 365.333,346.167 360,340.5C354.667,334.833 348.5,332 341.5,332C338.833,332 335.083,333 330.25,335C325.417,337 320.5,339.25 315.5,341.75C310.5,344.25 305.667,346.75 301,349.25C296.333,351.75 292.667,353.667 290,355C260.333,369.667 232.583,386.417 206.75,405.25C180.917,424.083 154.667,443.5 128,463.5L128,768Z" fill="#FFFFFF" fill-opacity="1">
  </path>
</svg>