<!-- Exported by Character Map UWP -->
<svg height="100%" viewBox="64 256 896 448" width="100%" xmlns="http://www.w3.org/2000/svg" xmlns:xlink="http://www.w3.org/1999/xlink">
  <path d="M320,438L221.5,684C216.167,697.333 206.333,704 192,704C184.667,704 178.083,701.667 172.25,697C166.417,692.333 162.667,686.5 161,679.5L65,295.5C64.3333,292.167 64,289.5 64,287.5C64,278.5 67.25,271 73.75,265C80.25,259 87.8333,256 96.5,256C103.5,256 109.917,258.333 115.75,263C121.583,267.667 125.333,273.333 127,280L199,568L290.5,340C293.167,334 297.167,329.5 302.5,326.5C307.833,323.5 313.667,322 320,322C326.667,322 332.583,323.417 337.75,326.25C342.917,329.083 346.833,333.667 349.5,340L441,568L513,280C514.667,272.667 518.417,266.833 524.25,262.5C530.083,258.167 536.667,256 544,256C552.667,256 560.167,259.083 566.5,265.25C572.833,271.417 576,278.833 576,287.5C576,289.5 575.667,292.167 575,295.5L479,679.5C477.333,686.833 473.667,692.75 468,697.25C462.333,701.75 455.667,704 448,704C433.667,704 423.833,697.333 418.5,684ZM672,704C663.333,704 655.833,700.833 649.5,694.5C643.167,688.167 640,680.667 640,672L640,288C640,279.333 643.167,271.833 649.5,265.5C655.833,259.167 663.333,256 672,256L768,256C786.667,256 805.5,258.5 824.5,263.5C843.5,268.5 860.667,276.167 876,286.5C891.333,296.833 903.833,309.833 913.5,325.5C923.167,341.167 928,359.667 928,381C928,397.333 925.667,412.417 921,426.25C916.333,440.083 908.167,452.833 896.5,464.5C919.167,476.5 935.417,492.333 945.25,512C955.083,531.667 960,554 960,579C960,600.333 955.167,618.833 945.5,634.5C935.833,650.167 923.333,663.167 908,673.5C892.667,683.833 875.5,691.5 856.5,696.5C837.5,701.5 818.667,704 800,704ZM768,448C778,448 788.583,446.917 799.75,444.75C810.917,442.583 821.25,439 830.75,434C840.25,429 848.167,422.417 854.5,414.25C860.833,406.083 864,396 864,384C864,372.333 860.833,362.417 854.5,354.25C848.167,346.083 840.25,339.5 830.75,334.5C821.25,329.5 810.833,325.833 799.5,323.5C788.167,321.167 777.667,320 768,320L704,320L704,448ZM800,640C810,640 820.583,638.917 831.75,636.75C842.917,634.583 853.25,631 862.75,626C872.25,621 880.167,614.417 886.5,606.25C892.833,598.083 896,588 896,576C896,556.667 890.083,541.167 878.25,529.5C866.417,517.833 851,512 832,512L704,512L704,640Z" fill="#FFFFFF" fill-opacity="1">
  </path>
</svg>