<!-- Exported by Character Map UWP -->
<svg height="100%" viewBox="0 128 1024 704" width="100%" xmlns="http://www.w3.org/2000/svg" xmlns:xlink="http://www.w3.org/1999/xlink">
  <path d="M128,320L128,128L1024,128L1024,704L640,704L640,640L960,640L960,192L192,192L192,320ZM704,576L640,576C640,540.667 633.25,507.5 619.75,476.5C606.25,445.5 587.917,418.417 564.75,395.25C541.583,372.083 514.5,353.75 483.5,340.25C452.5,326.75 419.333,320 384,320L384,256C428.333,256 469.917,264.333 508.75,281C547.583,297.667 581.5,320.5 610.5,349.5C639.5,378.5 662.333,412.417 679,451.25C695.667,490.083 704,531.667 704,576ZM512,768L512,640L576,640L576,768C576,777 574.333,785.333 571,793C567.667,800.667 563.083,807.417 557.25,813.25C551.417,819.083 544.667,823.667 537,827C529.333,830.333 521,832 512,832L64,832C55,832 46.6667,830.333 39,827C31.3333,823.667 24.5833,819.083 18.75,813.25C12.9167,807.417 8.33333,800.667 5,793C1.66667,785.333 0,777 0,768L0,448C0,439 1.66667,430.667 5,423C8.33333,415.333 12.9167,408.583 18.75,402.75C24.5833,396.917 31.3333,392.333 39,389C46.6667,385.667 55,384 64,384L320,384L320,448L64,448L64,768ZM384,448L384,384C410.667,384 435.667,389 459,399C482.333,409 502.667,422.667 520,440C537.333,457.333 551,477.667 561,501C571,524.333 576,549.333 576,576L512,576C512,558.333 508.667,541.75 502,526.25C495.333,510.75 486.167,497.167 474.5,485.5C462.833,473.833 449.25,464.667 433.75,458C418.25,451.333 401.667,448 384,448ZM384,576L384,512C393,512 401.333,513.667 409,517C416.667,520.333 423.417,524.917 429.25,530.75C435.083,536.583 439.667,543.333 443,551C446.333,558.667 448,567 448,576Z" fill="#FFFFFF" fill-opacity="1">
  </path>
</svg>