<!-- Exported by Character Map UWP -->
<svg height="100%" viewBox="0 64 1024 832" width="100%" xmlns="http://www.w3.org/2000/svg" xmlns:xlink="http://www.w3.org/1999/xlink">
  <path d="M640,128L640,64C675.333,64.0001 709.417,68.5834 742.25,77.75C775.083,86.9167 805.667,99.8334 834,116.5C862.333,133.167 888.167,153.167 911.5,176.5C934.833,199.833 954.833,225.667 971.5,254C988.167,282.333 1001.08,312.917 1010.25,345.75C1019.42,378.583 1024,412.667 1024,448L960,448C960,418.667 956.167,390.333 948.5,363C940.833,335.667 930.083,310.167 916.25,286.5C902.417,262.833 885.75,241.25 866.25,221.75C846.75,202.25 825.167,185.583 801.5,171.75C777.833,157.917 752.333,147.167 725,139.5C697.667,131.833 669.333,128 640,128ZM832,832L832,512L896,512L896,832C896,841 894.333,849.333 891,857C887.667,864.667 883.083,871.417 877.25,877.25C871.417,883.083 864.667,887.667 857,891C849.333,894.333 841,896 832,896L64,896C55,896 46.6667,894.333 39,891C31.3333,887.667 24.5833,883.083 18.75,877.25C12.9167,871.417 8.33333,864.667 5,857C1.66667,849.333 0,841 0,832L0,256C0,247 1.66667,238.667 5,231C8.33333,223.333 12.9167,216.583 18.75,210.75C24.5833,204.917 31.3333,200.333 39,197C46.6667,193.667 55,192 64,192L576,192L576,256L64,256L64,832ZM640,256L640,192C675.333,192 708.583,198.667 739.75,212C770.917,225.333 798.083,243.583 821.25,266.75C844.417,289.917 862.667,317.083 876,348.25C889.333,379.417 896,412.667 896,448L832,448C832,421.667 827,396.833 817,373.5C807,350.167 793.25,329.75 775.75,312.25C758.25,294.75 737.833,281 714.5,271C691.167,261 666.333,256 640,256ZM768,448L704,448C704,439 702.333,430.667 699,423C695.667,415.333 691.083,408.583 685.25,402.75C679.417,396.917 672.667,392.333 665,389C657.333,385.667 649,384 640,384L640,320C657.667,320 674.25,323.333 689.75,330C705.25,336.667 718.833,345.833 730.5,357.5C742.167,369.167 751.333,382.75 758,398.25C764.667,413.75 768,430.333 768,448Z" fill="#FFFFFF" fill-opacity="1">
  </path>
</svg>