<!-- Exported by Character Map UWP -->
<svg height="100%" viewBox="0 0 1024 960" width="100%" xmlns="http://www.w3.org/2000/svg" xmlns:xlink="http://www.w3.org/1999/xlink">
  <path d="M218.5,850.5L118.5,950.5C112.167,956.833 104.667,960 96,960C87.3333,960 79.8333,956.833 73.5,950.5C67.1667,944.167 64,936.667 64,928C64,919.333 67.1667,911.833 73.5,905.5L173.5,805.5C138.167,764.5 111.083,718.833 92.25,668.5C73.4167,618.167 64,566 64,512C64,463.667 71.5,416.667 86.5,371C57.8333,351 36.25,326.167 21.75,296.5C7.25,266.833 0,234.667 0,200C0,173.333 5.33333,147.917 16,123.75C26.6667,99.5834 41.1667,78.3334 59.5,60C77.8333,41.6667 99,27.0834 123,16.25C147,5.41669 172.333,0 199,0C233.667,0 265.667,7.41669 295,22.25C324.333,37.0834 349,58.8334 369,87.5C415.333,71.8334 463,64.0001 512,64C561.333,64.0001 608.833,71.6667 654.5,87C674.833,58.3334 699.583,36.6667 728.75,22C757.917,7.33337 790,0 825,0C851.667,0 877.083,5.41669 901.25,16.25C925.417,27.0834 946.583,41.5834 964.75,59.75C982.917,77.9167 997.333,99.0834 1008,123.25C1018.67,147.417 1024,172.833 1024,199.5C1024,234.167 1016.58,266.25 1001.75,295.75C986.917,325.25 965.333,350 937,370C944.667,393 950.417,416.417 954.25,440.25C958.083,464.083 960,488 960,512C960,566 950.583,618.167 931.75,668.5C912.917,718.833 885.833,764.5 850.5,805.5L950.5,905.5C956.833,911.833 960,919.333 960,928C960,936.667 956.833,944.167 950.5,950.5C944.167,956.833 936.667,960 928,960C919.333,960 911.833,956.833 905.5,950.5L805.5,850.5C764.5,885.833 718.833,912.917 668.5,931.75C618.167,950.583 566,960 512,960C458,960 405.833,950.583 355.5,931.75C305.167,912.917 259.5,885.833 218.5,850.5ZM308,113C294,96.6667 277.833,84.4167 259.5,76.25C241.167,68.0834 221.333,64.0001 200,64C181.667,64.0001 164.333,67.7501 148,75.25C131.667,82.7501 117.25,92.8334 104.75,105.5C92.25,118.167 82.3333,132.75 75,149.25C67.6667,165.75 64,183.167 64,201.5C64,222.5 68,242.333 76,261C84,279.667 96,296 112,310C133.667,267.667 161.083,229.583 194.25,195.75C227.417,161.917 265.333,134.333 308,113ZM960,200.5C960,182.167 956.333,164.75 949,148.25C941.667,131.75 931.75,117.25 919.25,104.75C906.75,92.25 892.25,82.3334 875.75,75C859.25,67.6667 841.833,64.0001 823.5,64C802.167,64.0001 782.333,68.0834 764,76.25C745.667,84.4167 729.5,96.6667 715.5,113C757.833,134.333 795.75,161.75 829.25,195.25C862.75,228.75 890.167,266.667 911.5,309C927.5,295 939.583,278.667 947.75,260C955.917,241.333 960,221.5 960,200.5ZM896,512C896,459 885.917,409.25 865.75,362.75C845.583,316.25 818.083,275.583 783.25,240.75C748.417,205.917 707.75,178.417 661.25,158.25C614.75,138.083 565,128 512,128C476.667,128 442.667,132.583 410,141.75C377.333,150.917 346.75,163.833 318.25,180.5C289.75,197.167 263.833,217.167 240.5,240.5C217.167,263.833 197.167,289.75 180.5,318.25C163.833,346.75 150.917,377.333 141.75,410C132.583,442.667 128,476.667 128,512C128,547.333 132.583,581.417 141.75,614.25C150.917,647.083 163.833,677.667 180.5,706C197.167,734.333 217.167,760.167 240.5,783.5C263.833,806.833 289.667,826.833 318,843.5C346.333,860.167 376.917,873.083 409.75,882.25C442.583,891.417 476.667,896 512,896C547.333,896 581.333,891.417 614,882.25C646.667,873.083 677.25,860.167 705.75,843.5C734.25,826.833 760.167,806.833 783.5,783.5C806.833,760.167 826.833,734.25 843.5,705.75C860.167,677.25 873.083,646.667 882.25,614C891.417,581.333 896,547.333 896,512ZM480,576C471.333,576 463.833,572.833 457.5,566.5C451.167,560.167 448,552.667 448,544L448,288C448,279.333 451.167,271.833 457.5,265.5C463.833,259.167 471.333,256 480,256C488.667,256 496.167,259.167 502.5,265.5C508.833,271.833 512,279.333 512,288L512,512L672,512C680.667,512 688.167,515.167 694.5,521.5C700.833,527.833 704,535.333 704,544C704,552.667 700.833,560.167 694.5,566.5C688.167,572.833 680.667,576 672,576Z" fill="#FFFFFF" fill-opacity="1">
  </path>
</svg>