<!-- Exported by Character Map UWP -->
<svg height="100%" viewBox="64 0 896 897" width="100%" xmlns="http://www.w3.org/2000/svg" xmlns:xlink="http://www.w3.org/1999/xlink">
  <path d="M153,704C141.667,704 131.167,701.833 121.5,697.5C111.833,693.167 103.417,687.333 96.25,680C89.0833,672.667 83.4167,664.083 79.25,654.25C75.0833,644.417 73,634 73,623C73,608 77.5,593.667 86.5,580L445,35.5C452.667,24.1667 462.333,15.3334 474,9C485.667,2.66675 498.333,-0.5 512,-0.5C525.667,-0.5 538.333,2.66675 550,9C561.667,15.3334 571.333,24.1667 579,35.5L937.5,580C946.5,593.667 951,608 951,623C951,634 948.917,644.417 944.75,654.25C940.583,664.083 934.917,672.667 927.75,680C920.583,687.333 912.167,693.167 902.5,697.5C892.833,701.833 882.333,704 871,704ZM871,640C875.667,640 879.5,638.333 882.5,635C885.5,631.667 887,627.833 887,623.5C887,622.5 886.75,621.083 886.25,619.25C885.75,617.417 885.167,616 884.5,615L525.5,70.5C523.833,68.1667 521.833,66.4167 519.5,65.25C517.167,64.0834 514.667,63.5 512,63.5C509.333,63.5 506.833,64.0834 504.5,65.25C502.167,66.4167 500.167,68.1667 498.5,70.5L140,615C139.333,616.333 138.667,617.667 138,619C137.333,620.333 137,621.833 137,623.5C137,627.833 138.5,631.667 141.5,635C144.5,638.333 148.333,640 153,640ZM96,896C87.3333,896 79.8333,892.833 73.5,886.5C67.1667,880.167 64,872.667 64,864C64,855.333 67.1667,847.833 73.5,841.5C79.8333,835.167 87.3333,832 96,832L928,832C936.667,832 944.167,835.167 950.5,841.5C956.833,847.833 960,855.333 960,864C960,872.667 956.833,880.167 950.5,886.5C944.167,892.833 936.667,896 928,896Z" fill="#FFFFFF" fill-opacity="1">
  </path>
</svg>