<!-- Exported by Character Map UWP -->
<svg height="100%" viewBox="64 0 832 1024" width="100%" xmlns="http://www.w3.org/2000/svg" xmlns:xlink="http://www.w3.org/1999/xlink">
  <path d="M160,1024C147,1024 134.667,1021.5 123,1016.5C111.333,1011.5 101.083,1004.58 92.25,995.75C83.4167,986.917 76.5,976.667 71.5,965C66.5,953.333 64,941 64,928L64,685C64,667 67,649.333 73,632C79,614.667 87.6667,599 99,585L171,495C185,477.667 192,457.667 192,435L192,125.5C192,108.833 195.417,92.9167 202.25,77.75C209.083,62.5834 218.25,49.2501 229.75,37.75C241.25,26.2501 254.583,17.0834 269.75,10.25C284.917,3.41669 300.833,0 317.5,0L770.5,0C787.167,0 803.083,3.41669 818.25,10.25C833.417,17.0834 846.75,26.2501 858.25,37.75C869.75,49.2501 878.917,62.5834 885.75,77.75C892.583,92.9167 896,108.833 896,125.5L896,928C896,941 893.5,953.333 888.5,965C883.5,976.667 876.583,986.917 867.75,995.75C858.917,1004.58 848.667,1011.5 837,1016.5C825.333,1021.5 813,1024 800,1024ZM800,960C808.667,960 816.167,956.833 822.5,950.5C828.833,944.167 832,936.667 832,928L832,128C832,119.333 830.333,111.083 827,103.25C823.667,95.4167 819.083,88.5834 813.25,82.75C807.417,76.9167 800.583,72.3334 792.75,69C784.917,65.6667 776.667,64.0001 768,64L320,64C311,64.0001 302.667,65.6667 295,69C287.333,72.3334 280.583,76.9167 274.75,82.75C268.917,88.5834 264.333,95.3334 261,103C257.667,110.667 256,119 256,128L256,435C256,453 253,470.667 247,488C241,505.333 232.333,521 221,535L149,625C135,642.667 128,662.667 128,685L128,928C128,936.667 131.167,944.167 137.5,950.5C143.833,956.833 151.333,960 160,960ZM320,288L320,160C320,151.333 323.167,143.833 329.5,137.5C335.833,131.167 343.333,128 352,128C360.667,128 368.167,131.167 374.5,137.5C380.833,143.833 384,151.333 384,160L384,288C384,296.667 380.833,304.167 374.5,310.5C368.167,316.833 360.667,320 352,320C343.333,320 335.833,316.833 329.5,310.5C323.167,304.167 320,296.667 320,288ZM448,288L448,160C448,151.333 451.167,143.833 457.5,137.5C463.833,131.167 471.333,128 480,128C488.667,128 496.167,131.167 502.5,137.5C508.833,143.833 512,151.333 512,160L512,288C512,296.667 508.833,304.167 502.5,310.5C496.167,316.833 488.667,320 480,320C471.333,320 463.833,316.833 457.5,310.5C451.167,304.167 448,296.667 448,288ZM576,288L576,160C576,151.333 579.167,143.833 585.5,137.5C591.833,131.167 599.333,128 608,128C616.667,128 624.167,131.167 630.5,137.5C636.833,143.833 640,151.333 640,160L640,288C640,296.667 636.833,304.167 630.5,310.5C624.167,316.833 616.667,320 608,320C599.333,320 591.833,316.833 585.5,310.5C579.167,304.167 576,296.667 576,288ZM704,288L704,160C704,151.333 707.167,143.833 713.5,137.5C719.833,131.167 727.333,128 736,128C744.667,128 752.167,131.167 758.5,137.5C764.833,143.833 768,151.333 768,160L768,288C768,296.667 764.833,304.167 758.5,310.5C752.167,316.833 744.667,320 736,320C727.333,320 719.833,316.833 713.5,310.5C707.167,304.167 704,296.667 704,288Z" fill="#FFFFFF" fill-opacity="1">
  </path>
</svg>