<!-- Exported by Character Map UWP -->
<svg height="100%" viewBox="192 0 640 1024" width="100%" xmlns="http://www.w3.org/2000/svg" xmlns:xlink="http://www.w3.org/1999/xlink">
  <path d="M317.5,1024C300.833,1024 284.917,1020.58 269.75,1013.75C254.583,1006.92 241.25,997.75 229.75,986.25C218.25,974.75 209.083,961.417 202.25,946.25C195.417,931.083 192,915.167 192,898.5L192,381.5C192,365.167 195.333,349.5 202,334.5C208.667,319.5 217.75,306.167 229.25,294.5C240.75,282.833 253.917,273.5 268.75,266.5C283.583,259.5 299.333,256 316,256L320,256L320,32C320,23.3334 323.167,15.8334 329.5,9.5C335.833,3.16669 343.333,0 352,0L672,0C680.667,0 688.167,3.16669 694.5,9.5C700.833,15.8334 704,23.3334 704,32L704,256L706.5,256C723.167,256 739.083,259.417 754.25,266.25C769.417,273.083 782.75,282.25 794.25,293.75C805.75,305.25 814.917,318.583 821.75,333.75C828.583,348.917 832,364.833 832,381.5L832,898.5C832,915.167 828.583,931.083 821.75,946.25C814.917,961.417 805.75,974.75 794.25,986.25C782.75,997.75 769.417,1006.92 754.25,1013.75C739.083,1020.58 723.167,1024 706.5,1024ZM384,64L384,256L640,256L640,64ZM704,960C713,960 721.333,958.333 729,955C736.667,951.667 743.417,947.083 749.25,941.25C755.083,935.417 759.667,928.667 763,921C766.333,913.333 768,905 768,896L768,384C768,375.333 766.333,367.083 763,359.25C759.667,351.417 755.083,344.583 749.25,338.75C743.417,332.917 736.583,328.333 728.75,325C720.917,321.667 712.667,320 704,320L320,320C311,320 302.667,321.667 295,325C287.333,328.333 280.583,332.917 274.75,338.75C268.917,344.583 264.333,351.333 261,359C257.667,366.667 256,375 256,384L256,896C256,905 257.667,913.417 261,921.25C264.333,929.083 268.833,935.833 274.5,941.5C280.167,947.167 286.917,951.667 294.75,955C302.583,958.333 311,960 320,960Z" fill="#FFFFFF" fill-opacity="1">
  </path>
</svg>