<!-- Exported by Character Map UWP -->
<svg height="100%" viewBox="0 64 1024 896" width="100%" xmlns="http://www.w3.org/2000/svg" xmlns:xlink="http://www.w3.org/1999/xlink">
  <path d="M1024,288L1024,672C1024,685 1021.5,697.333 1016.5,709C1011.5,720.667 1004.58,730.917 995.75,739.75C986.917,748.583 976.667,755.5 965,760.5C953.333,765.5 941,768 928,768L896,768L896,864C896,872.667 892.833,880.167 886.5,886.5C880.167,892.833 872.667,896 864,896L608,896C601,896 595.333,894.75 591,892.25C586.667,889.75 583.333,886.25 581,881.75C578.667,877.25 577.167,872.167 576.5,866.5C575.833,860.833 575.5,854.667 575.5,848C575.5,844 575.667,840 576,836L576,828C576.333,824 576.5,820 576.5,816C576.5,809.667 576.083,803.583 575.25,797.75C574.417,791.917 572.917,786.75 570.75,782.25C568.583,777.75 565.333,774.25 561,771.75C556.667,769.25 551,768 544,768C537,768 531.333,769.25 527,771.75C522.667,774.25 519.333,777.75 517,782.25C514.667,786.75 513.167,791.917 512.5,797.75C511.833,803.583 511.5,809.667 511.5,816C511.5,820 511.667,824 512,828L512,836C512.333,840 512.5,844 512.5,848C512.5,854.667 512.083,860.833 511.25,866.5C510.417,872.167 508.917,877.25 506.75,881.75C504.583,886.25 501.333,889.75 497,892.25C492.667,894.75 487,896 480,896L224,896C215.333,896 207.833,892.833 201.5,886.5C195.167,880.167 192,872.667 192,864L192,768L128,768L128,928C128,936.667 124.833,944.167 118.5,950.5C112.167,956.833 104.667,960 96,960C87.3333,960 79.8333,956.833 73.5,950.5C67.1667,944.167 64,936.667 64,928L64,128C61.3333,128 58.5833,128.083 55.75,128.25C52.9167,128.417 50,128.5 47,128.5C41.3333,128.5 35.75,128.167 30.25,127.5C24.75,126.833 19.75,125.417 15.25,123.25C10.75,121.083 7.08333,117.833 4.25,113.5C1.41667,109.167 0,103.333 0,96C0,87.3334 3.16667,79.8334 9.5,73.5C15.8333,67.1667 23.3333,64.0001 32,64L96,64C104.667,64.0001 112.167,67.1667 118.5,73.5C124.833,79.8334 128,87.3334 128,96L128,192L928,192C941,192 953.333,194.5 965,199.5C976.667,204.5 986.917,211.417 995.75,220.25C1004.58,229.083 1011.5,239.333 1016.5,251C1021.5,262.667 1024,275 1024,288ZM960,288C960,279.333 956.833,271.833 950.5,265.5C944.167,259.167 936.667,256 928,256L128,256L128,704L928,704C936.667,704 944.167,700.833 950.5,694.5C956.833,688.167 960,680.667 960,672ZM480,320C488.667,320 496.167,323.167 502.5,329.5C508.833,335.833 512,343.333 512,352L512,544C512,552.667 508.833,560.167 502.5,566.5C496.167,572.833 488.667,576 480,576L224,576C215.333,576 207.833,572.833 201.5,566.5C195.167,560.167 192,552.667 192,544L192,352C192,343.333 195.167,335.833 201.5,329.5C207.833,323.167 215.333,320 224,320ZM576,352C576,343.333 579.167,335.833 585.5,329.5C591.833,323.167 599.333,320 608,320C616.667,320 624.167,323.167 630.5,329.5C636.833,335.833 640,343.333 640,352C640,360.667 636.833,368.167 630.5,374.5C624.167,380.833 616.667,384 608,384C599.333,384 591.833,380.833 585.5,374.5C579.167,368.167 576,360.667 576,352ZM704,352C704,343.333 707.167,335.833 713.5,329.5C719.833,323.167 727.333,320 736,320C744.667,320 752.167,323.167 758.5,329.5C764.833,335.833 768,343.333 768,352C768,360.667 764.833,368.167 758.5,374.5C752.167,380.833 744.667,384 736,384C727.333,384 719.833,380.833 713.5,374.5C707.167,368.167 704,360.667 704,352ZM896,352C896,360.667 892.833,368.167 886.5,374.5C880.167,380.833 872.667,384 864,384C855.333,384 847.833,380.833 841.5,374.5C835.167,368.167 832,360.667 832,352C832,343.333 835.167,335.833 841.5,329.5C847.833,323.167 855.333,320 864,320C872.667,320 880.167,323.167 886.5,329.5C892.833,335.833 896,343.333 896,352ZM256,512L448,512L448,384L256,384ZM608,512C599.333,512 591.833,508.833 585.5,502.5C579.167,496.167 576,488.667 576,480C576,471.333 579.167,463.833 585.5,457.5C591.833,451.167 599.333,448 608,448L736,448C744.667,448 752.167,451.167 758.5,457.5C764.833,463.833 768,471.333 768,480C768,488.667 764.833,496.167 758.5,502.5C752.167,508.833 744.667,512 736,512ZM896,480C896,488.667 892.833,496.167 886.5,502.5C880.167,508.833 872.667,512 864,512C855.333,512 847.833,508.833 841.5,502.5C835.167,496.167 832,488.667 832,480C832,471.333 835.167,463.833 841.5,457.5C847.833,451.167 855.333,448 864,448C872.667,448 880.167,451.167 886.5,457.5C892.833,463.833 896,471.333 896,480ZM640,608C640,616.667 636.833,624.167 630.5,630.5C624.167,636.833 616.667,640 608,640C599.333,640 591.833,636.833 585.5,630.5C579.167,624.167 576,616.667 576,608C576,599.333 579.167,591.833 585.5,585.5C591.833,579.167 599.333,576 608,576C616.667,576 624.167,579.167 630.5,585.5C636.833,591.833 640,599.333 640,608ZM864,576C872.667,576 880.167,579.167 886.5,585.5C892.833,591.833 896,599.333 896,608C896,616.667 892.833,624.167 886.5,630.5C880.167,636.833 872.667,640 864,640L736,640C727.333,640 719.833,636.833 713.5,630.5C707.167,624.167 704,616.667 704,608C704,599.333 707.167,591.833 713.5,585.5C719.833,579.167 727.333,576 736,576ZM453.5,768L256,768L256,832L448,832C448,828 447.917,824.083 447.75,820.25C447.583,816.417 447.5,812.667 447.5,809C447.5,802 447.833,795.25 448.5,788.75C449.167,782.25 450.833,775.333 453.5,768ZM832,832L832,768L634.5,768C637.167,775.333 638.75,782.25 639.25,788.75C639.75,795.25 640,802 640,809L640,832Z" fill="#FFFFFF" fill-opacity="1">
  </path>
</svg>