<!-- Exported by Character Map UWP -->
<svg height="100%" viewBox="0 0 1024 896" width="100%" xmlns="http://www.w3.org/2000/svg" xmlns:xlink="http://www.w3.org/1999/xlink">
  <path d="M1024,545.5L1024,800C1024,813 1021.5,825.333 1016.5,837C1011.5,848.667 1004.58,858.917 995.75,867.75C986.917,876.583 976.667,883.5 965,888.5C953.333,893.5 941,896 928,896L96,896C83,896 70.6667,893.5 59,888.5C47.3333,883.5 37.0833,876.583 28.25,867.75C19.4167,858.917 12.5,848.667 7.5,837C2.5,825.333 0,813 0,800L0,608C0,595 2.5,582.667 7.5,571C12.5,559.333 19.4167,549.083 28.25,540.25C37.0833,531.417 47.3333,524.5 59,519.5C70.6667,514.5 83,512 96,512L889.5,512L237.5,58.5C233.167,55.5 229.833,51.5834 227.5,46.75C225.167,41.9167 224,37 224,32C224,23 227.083,15.4167 233.25,9.25C239.417,3.08337 247,0 256,0C263,0 269.167,1.83337 274.5,5.5L1010,517.5C1019.33,523.833 1024,533.167 1024,545.5ZM32,448C23.3333,448 15.8333,444.833 9.5,438.5C3.16667,432.167 0,424.667 0,416C0,407.333 3.16667,399.833 9.5,393.5C15.8333,387.167 23.3333,384 32,384L544,384C552.667,384 560.167,387.167 566.5,393.5C572.833,399.833 576,407.333 576,416C576,424.667 572.833,432.167 566.5,438.5C560.167,444.833 552.667,448 544,448ZM960,576L96,576C87.3333,576 79.8333,579.167 73.5,585.5C67.1667,591.833 64,599.333 64,608L64,800C64,808.667 67.1667,816.167 73.5,822.5C79.8333,828.833 87.3333,832 96,832L928,832C936.667,832 944.167,828.833 950.5,822.5C956.833,816.167 960,808.667 960,800Z" fill="#FFFFFF" fill-opacity="1">
  </path>
</svg>