<!-- Exported by Character Map UWP -->
<svg height="100%" viewBox="0 0 1024 1024" width="100%" xmlns="http://www.w3.org/2000/svg" xmlns:xlink="http://www.w3.org/1999/xlink">
  <path d="M102.5,1024C88.5,1024 75.25,1021.33 62.75,1016C50.25,1010.67 39.3333,1003.33 30,994C20.6667,984.667 13.3333,973.75 8,961.25C2.66667,948.75 0,935.5 0,921.5L0,102.5C0,88.5 2.66667,75.25 8,62.75C13.3333,50.25 20.6667,39.3334 30,30C39.3333,20.6667 50.25,13.3334 62.75,8C75.25,2.66669 88.5,0 102.5,0L921.5,0C935.5,0 948.75,2.66669 961.25,8C973.75,13.3334 984.667,20.6667 994,30C1003.33,39.3334 1010.67,50.25 1016,62.75C1021.33,75.25 1024,88.5 1024,102.5L1024,921.5C1024,935.5 1021.33,948.75 1016,961.25C1010.67,973.75 1003.33,984.667 994,994C984.667,1003.33 973.75,1010.67 961.25,1016C948.75,1021.33 935.5,1024 921.5,1024ZM416,712C421,712 426.083,711 431.25,709C436.417,707 440.833,704.167 444.5,700.5L828.5,316.5C836.167,308.833 840,299.333 840,288C840,276.667 836.167,267.167 828.5,259.5C820.833,251.833 811.333,248 800,248C788.667,248 779.167,251.833 771.5,259.5L416,615.5L252.5,451.5C244.833,443.833 235.333,440 224,440C212.667,440 203.167,443.833 195.5,451.5C187.833,459.167 184,468.667 184,480C184,485 185,490.083 187,495.25C189,500.417 191.833,504.833 195.5,508.5L387.5,700.5C391.167,704.167 395.583,707 400.75,709C405.917,711 411,712 416,712Z" fill="#FFFFFF" fill-opacity="1">
  </path>
</svg>