<!-- Exported by Character Map UWP -->
<svg height="100%" viewBox="0 0 1024 1024" width="100%" xmlns="http://www.w3.org/2000/svg" xmlns:xlink="http://www.w3.org/1999/xlink">
  <path d="M125.5,1024C108.833,1024 92.9167,1020.58 77.75,1013.75C62.5833,1006.92 49.25,997.75 37.75,986.25C26.25,974.75 17.0833,961.417 10.25,946.25C3.41667,931.083 0,915.167 0,898.5L0,125.5C0,108.833 3.41667,92.9167 10.25,77.75C17.0833,62.5834 26.25,49.2501 37.75,37.75C49.25,26.2501 62.5833,17.0834 77.75,10.25C92.9167,3.41669 108.833,0 125.5,0L898.5,0C915.167,0 931.083,3.41669 946.25,10.25C961.417,17.0834 974.75,26.2501 986.25,37.75C997.75,49.2501 1006.92,62.5834 1013.75,77.75C1020.58,92.9167 1024,108.833 1024,125.5L1024,898.5C1024,915.167 1020.58,931.083 1013.75,946.25C1006.92,961.417 997.75,974.75 986.25,986.25C974.75,997.75 961.417,1006.92 946.25,1013.75C931.083,1020.58 915.167,1024 898.5,1024ZM896,960C905,960 913.333,958.333 921,955C928.667,951.667 935.417,947.083 941.25,941.25C947.083,935.417 951.667,928.667 955,921C958.333,913.333 960,905 960,896L960,128C960,119.333 958.333,111.083 955,103.25C951.667,95.4167 947.083,88.5834 941.25,82.75C935.417,76.9167 928.583,72.3334 920.75,69C912.917,65.6667 904.667,64.0001 896,64L128,64C119,64.0001 110.667,65.6667 103,69C95.3333,72.3334 88.5833,76.9167 82.75,82.75C76.9167,88.5834 72.3333,95.3334 69,103C65.6667,110.667 64,119 64,128L64,896C64,905 65.6667,913.417 69,921.25C72.3333,929.083 76.8333,935.833 82.5,941.5C88.1667,947.167 94.9167,951.667 102.75,955C110.583,958.333 119,960 128,960ZM192,480C192,471.333 195.167,463.833 201.5,457.5C207.833,451.167 215.333,448 224,448C232.667,448 240.167,451.167 246.5,457.5L416,626.5L777.5,265.5C783.833,259.167 791.333,256 800,256C808.667,256 816.167,259.167 822.5,265.5C828.833,271.833 832,279.333 832,288C832,296.667 828.833,304.167 822.5,310.5L438.5,694.5C432.167,700.833 424.667,704 416,704C407.333,704 399.833,700.833 393.5,694.5L201.5,502.5C195.167,496.167 192,488.667 192,480Z" fill="#FFFFFF" fill-opacity="1">
  </path>
</svg>