<!-- Exported by Character Map UWP -->
<svg height="100%" viewBox="0 0 1024 1024" width="100%" xmlns="http://www.w3.org/2000/svg" xmlns:xlink="http://www.w3.org/1999/xlink">
  <path d="M125.5,1024C108.833,1024 92.9167,1020.58 77.75,1013.75C62.5833,1006.92 49.25,997.75 37.75,986.25C26.25,974.75 17.0833,961.417 10.25,946.25C3.41667,931.083 0,915.167 0,898.5L0,125.5C0,108.833 3.41667,92.9167 10.25,77.75C17.0833,62.5834 26.25,49.2501 37.75,37.75C49.25,26.2501 62.5833,17.0834 77.75,10.25C92.9167,3.41669 108.833,0 125.5,0L514.5,0C531.167,0 547.083,3.41669 562.25,10.25C577.417,17.0834 590.75,26.2501 602.25,37.75C613.75,49.2501 622.917,62.5834 629.75,77.75C636.583,92.9167 640,108.833 640,125.5L640,380.5C617.667,386.5 596.333,394.5 576,404.5L576,128C576,119.333 574.333,111.083 571,103.25C567.667,95.4167 563.083,88.5834 557.25,82.75C551.417,76.9167 544.583,72.3334 536.75,69C528.917,65.6667 520.667,64.0001 512,64L128,64C119,64.0001 110.667,65.6667 103,69C95.3333,72.3334 88.5833,76.9167 82.75,82.75C76.9167,88.5834 72.3333,95.3334 69,103C65.6667,110.667 64,119 64,128L64,896C64,905 65.6667,913.417 69,921.25C72.3333,929.083 76.8333,935.833 82.5,941.5C88.1667,947.167 94.9167,951.667 102.75,955C110.583,958.333 119,960 128,960L444,960C453,972 462.833,983.333 473.5,994C484.167,1004.67 495.333,1014.67 507,1024ZM448,736C448,696.333 455.583,659 470.75,624C485.917,589 506.5,558.5 532.5,532.5C558.5,506.5 589,485.917 624,470.75C659,455.583 696.333,448 736,448C762.333,448 787.75,451.417 812.25,458.25C836.75,465.083 859.667,474.75 881,487.25C902.333,499.75 921.833,514.833 939.5,532.5C957.167,550.167 972.25,569.667 984.75,591C997.25,612.333 1006.92,635.25 1013.75,659.75C1020.58,684.25 1024,709.667 1024,736C1024,775.667 1016.42,813 1001.25,848C986.083,883 965.5,913.5 939.5,939.5C913.5,965.5 883,986.083 848,1001.25C813,1016.42 775.667,1024 736,1024C696,1024 658.5,1016.5 623.5,1001.5C588.5,986.5 558,966 532,940C506,914 485.5,883.5 470.5,848.5C455.5,813.5 448,776 448,736ZM736,900C746,900 754.5,896.5 761.5,889.5L889.5,761.5C896.5,754.5 900,746 900,736C900,726 896.5,717.5 889.5,710.5L761.5,582.5C754.5,575.5 746,572 736,572C726,572 717.5,575.5 710.5,582.5C703.5,589.5 700,598 700,608C700,618 703.5,626.5 710.5,633.5L781,704L608,704C599.333,704 591.833,707.167 585.5,713.5C579.167,719.833 576,727.333 576,736C576,744.667 579.167,752.167 585.5,758.5C591.833,764.833 599.333,768 608,768L781,768L710.5,838.5C703.5,845.5 700,854 700,864C700,874 703.5,882.5 710.5,889.5C717.5,896.5 726,900 736,900ZM256,832C247.333,832 239.833,828.833 233.5,822.5C227.167,816.167 224,808.667 224,800C224,791.333 227.167,783.833 233.5,777.5C239.833,771.167 247.333,768 256,768L369.5,768C370.5,778.667 371.833,789.333 373.5,800C375.167,810.667 377.5,821.333 380.5,832Z" fill="#FFFFFF" fill-opacity="1">
  </path>
</svg>