<!-- Exported by Character Map UWP -->
<svg height="100%" viewBox="128 0 896 1024" width="100%" xmlns="http://www.w3.org/2000/svg" xmlns:xlink="http://www.w3.org/1999/xlink">
  <path d="M253.5,1024C236.833,1024 220.917,1020.58 205.75,1013.75C190.583,1006.92 177.25,997.75 165.75,986.25C154.25,974.75 145.083,961.417 138.25,946.25C131.417,931.083 128,915.167 128,898.5L128,125.5C128,108.833 131.417,92.9167 138.25,77.75C145.083,62.5834 154.25,49.2501 165.75,37.75C177.25,26.2501 190.583,17.0834 205.75,10.25C220.917,3.41669 236.833,0 253.5,0L642.5,0C659.167,0 675.083,3.41669 690.25,10.25C705.417,17.0834 718.75,26.2501 730.25,37.75C741.75,49.2501 750.917,62.5834 757.75,77.75C764.583,92.9167 768,108.833 768,125.5L768,288C768,296.667 764.833,304.167 758.5,310.5C752.167,316.833 744.667,320 736,320C727.333,320 719.833,316.833 713.5,310.5C707.167,304.167 704,296.667 704,288L704,128C704,119.333 702.333,111.167 699,103.5C695.667,95.8334 691,89 685,83C679,77 672.167,72.3334 664.5,69C656.833,65.6667 648.667,64.0001 640,64L256,64C247,64.0001 238.667,65.6667 231,69C223.333,72.3334 216.583,76.9167 210.75,82.75C204.917,88.5834 200.333,95.3334 197,103C193.667,110.667 192,119 192,128L192,896C192,905 193.667,913.417 197,921.25C200.333,929.083 204.833,935.833 210.5,941.5C216.167,947.167 222.917,951.667 230.75,955C238.583,958.333 247,960 256,960L480,960C488.667,960 496.167,963.167 502.5,969.5C508.833,975.833 512,983.333 512,992C512,1000.67 508.833,1008.17 502.5,1014.5C496.167,1020.83 488.667,1024 480,1024ZM672,1024C659,1024 646.667,1021.5 635,1016.5C623.333,1011.5 613.083,1004.58 604.25,995.75C595.417,986.917 588.5,976.667 583.5,965C578.5,953.333 576,941 576,928L576,913C576,894.333 579,877.083 585,861.25C591,845.417 598.5,831 607.5,818C616.5,805 626.333,793.083 637,782.25C647.667,771.417 657.5,761.333 666.5,752C675.5,742.667 683,734.083 689,726.25C695,718.417 698,711 698,704C698,697 695,689.583 689,681.75C683,673.917 675.5,665.333 666.5,656C657.5,646.667 647.667,636.583 637,625.75C626.333,614.917 616.5,603 607.5,590C598.5,577 591,562.667 585,547C579,531.333 576,514 576,495L576,480C576,467 578.5,454.667 583.5,443C588.5,431.333 595.417,421.083 604.25,412.25C613.083,403.417 623.333,396.5 635,391.5C646.667,386.5 659,384 672,384L928,384C941,384 953.333,386.5 965,391.5C976.667,396.5 986.917,403.417 995.75,412.25C1004.58,421.083 1011.5,431.333 1016.5,443C1021.5,454.667 1024,467 1024,480L1024,495C1024,514 1021,531.25 1015,546.75C1009,562.25 1001.5,576.5 992.5,589.5C983.5,602.5 973.75,614.417 963.25,625.25C952.75,636.083 943,646.083 934,655.25C925,664.417 917.5,673 911.5,681C905.5,689 902.5,696.667 902.5,704C902.5,711.333 905.5,719 911.5,727C917.5,735 925,743.583 934,752.75C943,761.917 952.75,771.917 963.25,782.75C973.75,793.583 983.5,805.5 992.5,818.5C1001.5,831.5 1009,845.75 1015,861.25C1021,876.75 1024,894 1024,913L1024,928C1024,941 1021.5,953.333 1016.5,965C1011.5,976.667 1004.58,986.917 995.75,995.75C986.917,1004.58 976.667,1011.5 965,1016.5C953.333,1021.5 941,1024 928,1024ZM800,695C804.667,695 808.833,693 812.5,689L938,538C940.667,535.333 942,532 942,528C942,523.333 940.5,519.5 937.5,516.5C934.5,513.5 930.667,512 926,512L674,512C669.333,512 665.5,513.5 662.5,516.5C659.5,519.5 658,523.333 658,528C658,532 659.333,535.333 662,538L787.5,689C790.833,693 795,695 800,695ZM384,832C375.333,832 367.833,828.833 361.5,822.5C355.167,816.167 352,808.667 352,800C352,791.333 355.167,783.833 361.5,777.5C367.833,771.167 375.333,768 384,768L512,768C520.667,768 528.167,771.167 534.5,777.5C540.833,783.833 544,791.333 544,800C544,808.667 540.833,816.167 534.5,822.5C528.167,828.833 520.667,832 512,832ZM928,960C936.667,960 944.167,956.833 950.5,950.5C956.833,944.167 960,936.667 960,928C960,919.333 956.833,911.833 950.5,905.5C944.167,899.167 936.667,896 928,896L672,896C663.333,896 655.833,899.167 649.5,905.5C643.167,911.833 640,919.333 640,928C640,936.667 643.167,944.167 649.5,950.5C655.833,956.833 663.333,960 672,960Z" fill="#FFFFFF" fill-opacity="1">
  </path>
</svg>