<!-- Exported by Character Map UWP -->
<svg height="100%" viewBox="0 0 1024 896" width="100%" xmlns="http://www.w3.org/2000/svg" xmlns:xlink="http://www.w3.org/1999/xlink">
  <path d="M898.5,512C915.167,512 931.083,515.417 946.25,522.25C961.417,529.083 974.75,538.25 986.25,549.75C997.75,561.25 1006.92,574.583 1013.75,589.75C1020.58,604.917 1024,620.833 1024,637.5L1024,770.5C1024,787.167 1020.58,803.083 1013.75,818.25C1006.92,833.417 997.75,846.75 986.25,858.25C974.75,869.75 961.417,878.917 946.25,885.75C931.083,892.583 915.167,896 898.5,896L125.5,896C108.833,896 92.9167,892.583 77.75,885.75C62.5833,878.917 49.25,869.75 37.75,858.25C26.25,846.75 17.0833,833.417 10.25,818.25C3.41667,803.083 0,787.167 0,770.5L0,637.5C0,620.167 3.5,603.917 10.5,588.75C17.5,573.583 26.8333,560.333 38.5,549C50.1667,537.667 63.75,528.667 79.25,522C94.75,515.333 111,512 128,512L290.5,512C267.5,473 256,430.333 256,384C256,375.333 259.167,367.833 265.5,361.5C271.833,355.167 279.333,352 288,352C298.667,352 306.667,355.583 312,362.75C317.333,369.917 320,378.333 320,388C320,414 325.167,438.417 335.5,461.25C345.833,484.083 359.833,504 377.5,521C395.167,538 415.583,551.417 438.75,561.25C461.917,571.083 486.333,576 512,576C538.667,576 563.667,571 587,561C610.333,551 630.667,537.333 648,520C665.333,502.667 679,482.333 689,459C699,435.667 704,410.667 704,384C704,358.333 699.083,333.917 689.25,310.75C679.417,287.583 666,267.167 649,249.5C632,231.833 612.083,217.833 589.25,207.5C566.417,197.167 542,192 516,192L301.5,192L374.5,265.5C380.833,271.833 384,279.333 384,288C384,296.667 380.833,304.167 374.5,310.5C368.167,316.833 360.667,320 352,320C343.333,320 335.833,316.833 329.5,310.5L201.5,182.5C197.833,178.833 195.333,175.25 194,171.75C192.667,168.25 192,164 192,159C192,155.333 192.917,151.5 194.75,147.5C196.583,143.5 198.833,140.167 201.5,137.5L329.5,9.5C335.833,3.16669 343.333,0 352,0C360.667,0 368.167,3.16669 374.5,9.5C380.833,15.8334 384,23.3334 384,32C384,40.6667 380.833,48.1667 374.5,54.5L301.5,128L517,128C539.333,128 561,131.083 582,137.25C603,143.417 622.833,152.083 641.5,163.25C660.167,174.417 677.25,187.75 692.75,203.25C708.25,218.75 721.583,235.833 732.75,254.5C743.917,273.167 752.583,293 758.75,314C764.917,335 768,356.667 768,379C768,403.333 765.333,426.333 760,448C754.667,469.667 745.833,491 733.5,512ZM960,640C960,631.333 958.333,623.083 955,615.25C951.667,607.417 947.083,600.583 941.25,594.75C935.417,588.917 928.583,584.333 920.75,581C912.917,577.667 904.667,576 896,576L681,576C657.667,596.667 631.5,612.5 602.5,623.5C573.5,634.5 543.333,640 512,640C480.667,640 450.5,634.5 421.5,623.5C392.5,612.5 366.333,596.667 343,576L128,576C119,576 110.667,577.667 103,581C95.3333,584.333 88.5833,588.917 82.75,594.75C76.9167,600.583 72.3333,607.333 69,615C65.6667,622.667 64,631 64,640L64,768C64,777 65.6667,785.417 69,793.25C72.3333,801.083 76.8333,807.833 82.5,813.5C88.1667,819.167 94.9167,823.667 102.75,827C110.583,830.333 119,832 128,832L896,832C905,832 913.333,830.333 921,827C928.667,823.667 935.417,819.083 941.25,813.25C947.083,807.417 951.667,800.667 955,793C958.333,785.333 960,777 960,768ZM832,688C832,701.333 827.333,712.667 818,722C808.667,731.333 797.333,736 784,736C770.667,736 759.333,731.333 750,722C740.667,712.667 736,701.333 736,688C736,674.667 740.667,663.333 750,654C759.333,644.667 770.667,640 784,640C797.333,640 808.667,644.667 818,654C827.333,663.333 832,674.667 832,688Z" fill="#FFFFFF" fill-opacity="1">
  </path>
</svg>