<svg xmlns="http://www.w3.org/2000/svg" fill="none" viewBox="0 0 16 16">
  <g clip-path="url(#clip0)">
    <path fill="url(#paint0_linear)" d="M4.301 5.688a.67.67 0 01.948 0l1.176 1.176c.26.26.26.683 0 .943l-4.007 4.007a.667.667 0 01-.943 0L.297 10.636a.667.667 0 010-.943L4.3 5.688z"/>
    <path fill="url(#paint1_linear)" d="M4.301 5.688a.67.67 0 01.948 0L9.96 10.4c.26.26.26.682 0 .943L8.782 12.52a.667.667 0 01-.943 0L2.654 7.336 4.3 5.688z"/>
    <path fill="url(#paint2_linear)" fill-rule="evenodd" d="M8 3.667C8 3.298 8.298 3 8.667 3h6.666c.368 0 .667.298.667.667v6.666a.667.667 0 01-.667.667h-1.666a.667.667 0 01-.667-.667v-2.03l-4.218 4.218a.667.667 0 01-.943 0l-1.65-1.65L11.061 6H8.667A.667.667 0 018 5.333V3.667z" clip-rule="evenodd"/>
  </g>
  <defs>
    <linearGradient id="paint0_linear" x1="5.836" x2=".886" y1="6.275" y2="11.225" gradientUnits="userSpaceOnUse">
      <stop stop-color="#0B6413"/>
      <stop offset="1" stop-color="#107C10"/>
    </linearGradient>
    <linearGradient id="paint1_linear" x1="9" x2="3.5" y1="12" y2="6.5" gradientUnits="userSpaceOnUse">
      <stop stop-color="#107C10"/>
      <stop offset="1" stop-color="#33990F"/>
    </linearGradient>
    <linearGradient id="paint2_linear" x1="16" x2="7.5" y1="3" y2="11.5" gradientUnits="userSpaceOnUse">
      <stop stop-color="#78D30C"/>
      <stop offset="1" stop-color="#56B60E"/>
    </linearGradient>
    <clipPath id="clip0">
      <path fill="#fff" d="M0 0h16v16H0z"/>
    </clipPath>
  </defs>
</svg>
