<svg width="24" height="24" viewBox="0 0 24 24" fill="none" xmlns="http://www.w3.org/2000/svg">
<path d="M19.9998 12.1553V6.4375C11.8847 9.60941 8.91774 12.0305 9.72479 19.6671C9.76471 20.0449 9.98958 20.3842 10.3343 20.5439C10.975 20.8407 11.553 21.0039 11.9999 21.0039C14.2856 21.0039 19.9998 16.7345 19.9998 12.1553Z" fill="url(#paint0_linear_2370_137957)"/>
<path d="M19.9998 12.1553V6.4375C11.8847 9.60941 8.91774 12.0305 9.72479 19.6671C9.76471 20.0449 9.98958 20.3842 10.3343 20.5439C10.975 20.8407 11.553 21.0039 11.9999 21.0039C14.2856 21.0039 19.9998 16.7345 19.9998 12.1553Z" fill="url(#paint1_radial_2370_137957)" fill-opacity="0.6"/>
<path d="M12.0001 2.99609C13.5384 2.99609 16.6296 3.7739 18.4868 4.28256C18.6603 4.33009 18.8231 4.37617 18.9728 4.41958C19.5903 4.59862 20 5.16968 20 5.81263V6.75827C19.8165 10.971 18.4666 12.1964 14.6986 15.2304C14.2037 15.6683 13.6951 16.0848 13.1788 16.5077C12.4389 17.1137 11.6832 17.7327 10.9292 18.4462C10.6412 18.7187 10.4616 19.1044 10.4616 19.5321C10.4616 20.1748 10.8672 20.7227 11.4364 20.9339C11.2976 20.9029 11.1518 20.8617 11.0001 20.8109C9.62213 20.349 7.76185 19.0907 6.30541 17.4198C5.15713 10.265 7.40779 6.75827 12.0001 2.99609Z" fill="url(#paint2_radial_2370_137957)"/>
<path d="M12.0001 2.99609C13.5384 2.99609 16.6296 3.7739 18.4868 4.28256C18.6603 4.33009 18.8231 4.37617 18.9728 4.41958C19.5903 4.59862 20 5.16968 20 5.81263V6.75827C19.8165 10.971 18.4666 12.1964 14.6986 15.2304C14.2037 15.6683 13.6951 16.0848 13.1788 16.5077C12.4389 17.1137 11.6832 17.7327 10.9292 18.4462C10.6412 18.7187 10.4616 19.1044 10.4616 19.5321C10.4616 20.1748 10.8672 20.7227 11.4364 20.9339C11.2976 20.9029 11.1518 20.8617 11.0001 20.8109C9.62213 20.349 7.76185 19.0907 6.30541 17.4198C5.15713 10.265 7.40779 6.75827 12.0001 2.99609Z" fill="url(#paint3_radial_2370_137957)" fill-opacity="0.7"/>
<path d="M12.0001 2.99609C13.5384 2.99609 16.6296 3.7739 18.4868 4.28256C18.6603 4.33009 18.8231 4.37617 18.9728 4.41958C19.5903 4.59862 20 5.16968 20 5.81263V6.75827C19.8165 10.971 18.4666 12.1964 14.6986 15.2304C14.2037 15.6683 13.6951 16.0848 13.1788 16.5077C12.4389 17.1137 11.6832 17.7327 10.9292 18.4462C10.6412 18.7187 10.4616 19.1044 10.4616 19.5321C10.4616 20.1748 10.8672 20.7227 11.4364 20.9339C11.2976 20.9029 11.1518 20.8617 11.0001 20.8109C9.62213 20.349 7.76185 19.0907 6.30541 17.4198C5.15713 10.265 7.40779 6.75827 12.0001 2.99609Z" fill="url(#paint4_radial_2370_137957)" fill-opacity="0.7"/>
<path d="M12.0001 2.99609C13.5384 2.99609 16.6296 3.7739 18.4868 4.28256C18.6603 4.33009 18.8231 4.37617 18.9728 4.41958C19.5903 4.59862 20 5.16968 20 5.81263V6.75827C19.8165 10.971 18.4666 12.1964 14.6986 15.2304C14.2037 15.6683 13.6951 16.0848 13.1788 16.5077C12.4389 17.1137 11.6832 17.7327 10.9292 18.4462C10.6412 18.7187 10.4616 19.1044 10.4616 19.5321C10.4616 20.1748 10.8672 20.7227 11.4364 20.9339C11.2976 20.9029 11.1518 20.8617 11.0001 20.8109C9.62213 20.349 7.76185 19.0907 6.30541 17.4198C5.15713 10.265 7.40779 6.75827 12.0001 2.99609Z" fill="url(#paint5_radial_2370_137957)" fill-opacity="0.5"/>
<path d="M5.0707 4.40516C6.83692 3.91095 10.3318 2.99609 12.0001 2.99609C12.1203 2.99609 12.2499 3.00095 12.3877 3.01016C13.9127 3.1574 15.105 4.44259 15.105 6.00625C15.105 6.57401 14.9478 7.10504 14.6746 7.55823C14.0905 8.7221 13.1346 9.63681 11.6798 10.8345C11.2619 11.1785 10.7828 11.5583 10.3051 11.9369C9.8537 12.2946 9.40353 12.6514 9.00768 12.976C8.04603 13.7645 7.45827 14.2464 7.13501 14.8512C6.82725 15.3233 6.64839 15.8872 6.64839 16.4928C6.64839 17.3794 7.03174 18.1765 7.64174 18.7274C7.66111 18.7492 7.68071 18.7703 7.70053 18.7909C7.70588 18.7989 7.71113 18.8068 7.71629 18.8147C7.52278 18.6492 7.3312 18.4761 7.14306 18.2961C5.4288 16.6564 4.00024 14.4442 4.00024 12.1546V5.82849L4.00024 5.82817C4.00038 5.16573 4.43274 4.58366 5.0707 4.40516Z" fill="url(#paint6_radial_2370_137957)"/>
<path d="M5.0707 4.40516C6.83692 3.91095 10.3318 2.99609 12.0001 2.99609C12.1203 2.99609 12.2499 3.00095 12.3877 3.01016C13.9127 3.1574 15.105 4.44259 15.105 6.00625C15.105 6.57401 14.9478 7.10504 14.6746 7.55823C14.0905 8.7221 13.1346 9.63681 11.6798 10.8345C11.2619 11.1785 10.7828 11.5583 10.3051 11.9369C9.8537 12.2946 9.40353 12.6514 9.00768 12.976C8.04603 13.7645 7.45827 14.2464 7.13501 14.8512C6.82725 15.3233 6.64839 15.8872 6.64839 16.4928C6.64839 17.3794 7.03174 18.1765 7.64174 18.7274C7.66111 18.7492 7.68071 18.7703 7.70053 18.7909C7.70588 18.7989 7.71113 18.8068 7.71629 18.8147C7.52278 18.6492 7.3312 18.4761 7.14306 18.2961C5.4288 16.6564 4.00024 14.4442 4.00024 12.1546V5.82849L4.00024 5.82817C4.00038 5.16573 4.43274 4.58366 5.0707 4.40516Z" fill="url(#paint7_linear_2370_137957)" fill-opacity="0.8"/>
<path d="M5.0707 4.40516C6.83692 3.91095 10.3318 2.99609 12.0001 2.99609C12.1203 2.99609 12.2499 3.00095 12.3877 3.01016C13.9127 3.1574 15.105 4.44259 15.105 6.00625C15.105 6.57401 14.9478 7.10504 14.6746 7.55823C14.0905 8.7221 13.1346 9.63681 11.6798 10.8345C11.2619 11.1785 10.7828 11.5583 10.3051 11.9369C9.8537 12.2946 9.40353 12.6514 9.00768 12.976C8.04603 13.7645 7.45827 14.2464 7.13501 14.8512C6.82725 15.3233 6.64839 15.8872 6.64839 16.4928C6.64839 17.3794 7.03174 18.1765 7.64174 18.7274C7.66111 18.7492 7.68071 18.7703 7.70053 18.7909C7.70588 18.7989 7.71113 18.8068 7.71629 18.8147C7.52278 18.6492 7.3312 18.4761 7.14306 18.2961C5.4288 16.6564 4.00024 14.4442 4.00024 12.1546V5.82849L4.00024 5.82817C4.00038 5.16573 4.43274 4.58366 5.0707 4.40516Z" fill="url(#paint8_radial_2370_137957)" fill-opacity="0.5"/>
<defs>
<linearGradient id="paint0_linear_2370_137957" x1="19.1779" y1="11.6724" x2="8.55144" y2="20.1892" gradientUnits="userSpaceOnUse">
<stop offset="0.716383" stop-color="#143DE0"/>
<stop offset="0.97828" stop-color="#003375"/>
</linearGradient>
<radialGradient id="paint1_radial_2370_137957" cx="0" cy="0" r="1" gradientUnits="userSpaceOnUse" gradientTransform="translate(13.2224 13.7207) rotate(50.2877) scale(9.46779 28.3046)">
<stop offset="0.227837" stop-color="#003375"/>
<stop offset="0.434167" stop-color="#003375" stop-opacity="0.1"/>
</radialGradient>
<radialGradient id="paint2_radial_2370_137957" cx="0" cy="0" r="1" gradientTransform="matrix(-14.9368 26.3105 -13.1648 -16.2016 20.5227 -1.89717)" gradientUnits="userSpaceOnUse">
<stop offset="0.165327" stop-color="#23C0FE"/>
<stop offset="0.534" stop-color="#1C91FF"/>
</radialGradient>
<radialGradient id="paint3_radial_2370_137957" cx="0" cy="0" r="1" gradientUnits="userSpaceOnUse" gradientTransform="translate(10.2399 8.94558) rotate(43.3819) scale(5.03774 8.96405)">
<stop offset="0.143522" stop-color="#1B44B1"/>
<stop offset="1" stop-color="#045ED1" stop-opacity="0"/>
</radialGradient>
<radialGradient id="paint4_radial_2370_137957" cx="0" cy="0" r="1" gradientUnits="userSpaceOnUse" gradientTransform="translate(17.8184 12.7503) rotate(28.8937) scale(11.3549 16.6436)">
<stop offset="0.727798" stop-color="#045ED1" stop-opacity="0"/>
<stop offset="0.951239" stop-color="#1B44B1"/>
</radialGradient>
<radialGradient id="paint5_radial_2370_137957" cx="0" cy="0" r="1" gradientUnits="userSpaceOnUse" gradientTransform="translate(13.6906 8.00677) rotate(-111.097) scale(18.3925 14.0589)">
<stop offset="0.642036" stop-color="#11A7FF" stop-opacity="0"/>
<stop offset="0.796268" stop-color="#6AB3FF"/>
</radialGradient>
<radialGradient id="paint6_radial_2370_137957" cx="0" cy="0" r="1" gradientTransform="matrix(-13.1682 17.7217 -13.9391 -22.5781 15.105 2.14207)" gradientUnits="userSpaceOnUse">
<stop stop-color="#92EEFE"/>
<stop offset="0.212749" stop-color="#35DDFF"/>
<stop offset="0.612478" stop-color="#15BDFB"/>
<stop offset="0.802844" stop-color="#08B1F9"/>
</radialGradient>
<linearGradient id="paint7_linear_2370_137957" x1="9.98498" y1="9.27786" x2="4.00024" y2="9.27786" gradientUnits="userSpaceOnUse">
<stop offset="0.110619" stop-color="#22CBFD" stop-opacity="0"/>
<stop offset="0.97092" stop-color="#92DEFF"/>
</linearGradient>
<radialGradient id="paint8_radial_2370_137957" cx="0" cy="0" r="1" gradientTransform="matrix(0.688509 -17.3187 9.21754 -0.314431 10.7778 5.5705)" gradientUnits="userSpaceOnUse">
<stop offset="0.657787" stop-color="#92DEFF" stop-opacity="0"/>
<stop offset="0.852025" stop-color="#92DEFF"/>
</radialGradient>
</defs>
</svg>
