<?xml version="1.0" encoding="UTF-8"?>
<svg fill="none" version="1.1" viewBox="0 0 48 48" xmlns="http://www.w3.org/2000/svg">
 <g mask="url(#mask0_6_5883)">
  <path d="m13.377 13.249c-7.262 2e-4-12.69 5.9446-13.099 12.567.25298 1.4269 1.0844 4.2445 2.3866 4.0998 1.6276-.1808 5.7268 0 9.2232-6.3297 2.5541-4.6238 7.8081-10.337 1.4891-10.337z" fill="url(#paint0_radial_6_5883)"/>
  <path d="m11.698 15.72c-2.441 3.8649-5.7268 9.4028-6.8358 11.146-1.3182 2.0715-4.8093 1.1915-4.5201-1.7778-.02851.2411-.050409.4841-.065506.7287-.47758 7.725 5.6473 14.14 13.269 14.14 8.4002 0 28.434-10.466 26.406-20.953-2.1368-6.1643-8.1428-10.586-14.95-10.586-6.8066 0-11.169 3.9215-13.304 7.3017z" fill="url(#paint1_radial_6_5883)"/>
  <path d="m11.698 15.72c-2.441 3.8649-5.7268 9.4028-6.8358 11.146-1.3182 2.0715-4.8093 1.1915-4.5201-1.7778-.02851.2411-.050409.4841-.065506.7287-.47758 7.725 5.6473 14.14 13.269 14.14 8.4002 0 28.434-10.466 26.406-20.953-2.1368-6.1643-8.1428-10.586-14.95-10.586-6.8066 0-11.169 3.9215-13.304 7.3017z" fill="url(#paint2_radial_6_5883)" fill-opacity=".4"/>
  <path d="m11.698 15.72c-2.441 3.8649-5.7268 9.4028-6.8358 11.146-1.3182 2.0715-4.8093 1.1915-4.5201-1.7778-.02851.2411-.050409.4841-.065506.7287-.47758 7.725 5.6473 14.14 13.269 14.14 8.4002 0 28.434-10.466 26.406-20.953-2.1368-6.1643-8.1428-10.586-14.95-10.586-6.8066 0-11.169 3.9215-13.304 7.3017z" fill="url(#paint3_radial_6_5883)"/>
  <path d="m11.698 15.72c-2.441 3.8649-5.7268 9.4028-6.8358 11.146-1.3182 2.0715-4.8093 1.1915-4.5201-1.7778-.02851.2411-.050409.4841-.065506.7287-.47758 7.725 5.6473 14.14 13.269 14.14 8.4002 0 28.434-10.466 26.406-20.953-2.1368-6.1643-8.1428-10.586-14.95-10.586-6.8066 0-11.169 3.9215-13.304 7.3017z" fill="url(#paint4_radial_6_5883)" fill-opacity=".6"/>
  <path d="m11.698 15.72c-2.441 3.8649-5.7268 9.4028-6.8358 11.146-1.3182 2.0715-4.8093 1.1915-4.5201-1.7778-.02851.2411-.050409.4841-.065506.7287-.47758 7.725 5.6473 14.14 13.269 14.14 8.4002 0 28.434-10.466 26.406-20.953-2.1368-6.1643-8.1428-10.586-14.95-10.586-6.8066 0-11.169 3.9215-13.304 7.3017z" fill="url(#paint5_radial_6_5883)" fill-opacity=".9"/>
  <path d="m13.422 39.961s20.057.0394 23.459.0394c6.174 0 10.868-5.0406 10.868-10.922 1e-4-5.8817-4.7885-10.892-10.868-10.892s-9.581 4.5484-12.211 9.5133c-3.0815 5.8178-7.0124 12.192-11.248 12.262z" fill="url(#paint6_linear_6_5883)"/>
  <path d="m13.422 39.961s20.057.0394 23.459.0394c6.174 0 10.868-5.0406 10.868-10.922 1e-4-5.8817-4.7885-10.892-10.868-10.892s-9.581 4.5484-12.211 9.5133c-3.0815 5.8178-7.0124 12.192-11.248 12.262z" fill="url(#paint7_radial_6_5883)" fill-opacity=".4"/>
  <path d="m13.422 39.961s20.057.0394 23.459.0394c6.174 0 10.868-5.0406 10.868-10.922 1e-4-5.8817-4.7885-10.892-10.868-10.892s-9.581 4.5484-12.211 9.5133c-3.0815 5.8178-7.0124 12.192-11.248 12.262z" fill="url(#paint8_radial_6_5883)" fill-opacity=".9"/>
 </g>
 <defs>
  <radialGradient id="paint0_radial_6_5883" cx="0" cy="0" r="1" gradientTransform="translate(1.1785 14.985) rotate(50.153) scale(14.971 24.832)" gradientUnits="userSpaceOnUse">
   <stop stop-color="#4894FE" offset="0"/>
   <stop stop-color="#0934B3" offset=".69507"/>
  </radialGradient>
  <radialGradient id="paint1_radial_6_5883" cx="0" cy="0" r="1" gradientTransform="translate(41.37 -2.2535) rotate(130.92) scale(64.378 47.704)" gradientUnits="userSpaceOnUse">
   <stop stop-color="#23C0FE" offset=".16533"/>
   <stop stop-color="#1C91FF" offset=".534"/>
  </radialGradient>
  <radialGradient id="paint2_radial_6_5883" cx="0" cy="0" r="1" gradientTransform="translate(10.893 15.836) rotate(220.01) scale(13.089 29.963)" gradientUnits="userSpaceOnUse">
   <stop stop-color="#fff" offset="0"/>
   <stop stop-color="#ADC0FF" stop-opacity="0" offset=".66053"/>
  </radialGradient>
  <radialGradient id="paint3_radial_6_5883" cx="0" cy="0" r="1" gradientTransform="translate(25.125 31.306) rotate(220.24) scale(14.753 22.405)" gradientUnits="userSpaceOnUse">
   <stop stop-color="#033ACC" offset="0"/>
   <stop stop-color="#368EFF" stop-opacity="0" offset="1"/>
  </radialGradient>
  <radialGradient id="paint4_radial_6_5883" cx="0" cy="0" r="1" gradientTransform="translate(10.027 7.4202) rotate(66.571) scale(32.371 34.946)" gradientUnits="userSpaceOnUse">
   <stop stop-color="#3464E3" stop-opacity="0" offset=".59262"/>
   <stop stop-color="#033ACC" offset="1"/>
  </radialGradient>
  <radialGradient id="paint5_radial_6_5883" cx="0" cy="0" r="1" gradientTransform="translate(40.85 1.1085) rotate(135) scale(47.617 74.599)" gradientUnits="userSpaceOnUse">
   <stop stop-color="#4BFDE8" offset="0"/>
   <stop stop-color="#4BFDE8" stop-opacity="0" offset=".54394"/>
  </radialGradient>
  <linearGradient id="paint6_linear_6_5883" x1="30.597" x2="30.597" y1="39.978" y2="18.444" gradientUnits="userSpaceOnUse">
   <stop stop-color="#0086FF" offset="0"/>
   <stop stop-color="#0bf" offset=".49"/>
  </linearGradient>
  <radialGradient id="paint7_radial_6_5883" cx="0" cy="0" r="1" gradientTransform="translate(19.344 20.751) rotate(21.632) scale(21.577 40.859)" gradientUnits="userSpaceOnUse">
   <stop stop-color="#fff" offset="0"/>
   <stop stop-color="#fff" stop-opacity="0" offset=".78526"/>
  </radialGradient>
  <radialGradient id="paint8_radial_6_5883" cx="0" cy="0" r="1" gradientTransform="translate(47.079 16.495) rotate(139.24) scale(29.581 29.682)" gradientUnits="userSpaceOnUse">
   <stop stop-color="#4BFDE8" offset="0"/>
   <stop stop-color="#4BFDE8" stop-opacity="0" offset=".58472"/>
  </radialGradient>
 </defs>
</svg>
