<svg viewBox="0 0 40 40" fill="none" xmlns="http://www.w3.org/2000/svg">
	<rect x="24.1016" y="7.69531" width="4.10156" height="24.6094" fill="white"/>
	<path d="M35.0391 15.5315C35.7937 15.5315 36.4062 14.9512 36.4062 14.2362V10.2858C36.4062 8.85454 35.1826 7.69531 33.6719 7.69531H28.1689L28.2031 8.82864C28.2031 9.63298 27.5141 10.2858 26.665 10.2858H25.6396C24.7906 10.2858 24.1016 9.63298 24.1016 8.82864L24.1357 7.69531H6.32812C4.81738 7.69531 3.59375 8.85454 3.59375 10.2858V14.2362C3.59375 14.9512 4.20625 15.5315 4.96094 15.5315C7.27695 15.8488 9.0625 17.7178 9.0625 20C9.0625 22.2822 7.27695 24.1512 4.96094 24.4685C4.20625 24.4685 3.59375 25.0488 3.59375 25.7638V29.7142C3.59375 31.1455 4.81738 32.3047 6.32812 32.3047H24.1357L24.1016 31.1714C24.1016 30.367 24.7906 29.7142 25.6396 29.7142H26.665C27.5141 29.7142 28.2031 30.367 28.2031 31.1714L28.1689 32.3047H33.6719C35.1826 32.3047 36.4062 31.1455 36.4062 29.7142V25.7638C36.4062 25.0488 35.7937 24.4685 35.0391 24.4685C32.723 24.1512 30.9375 22.2822 30.9375 20C30.9375 17.7178 32.723 15.8488 35.0391 15.5315ZM28.2031 24.3714C28.2031 25.1757 27.5141 25.8285 26.665 25.8285H25.6396C24.7906 25.8285 24.1016 25.1757 24.1016 24.3714V23.4C24.1016 22.5956 24.7906 21.9428 25.6396 21.9428H26.665C27.5141 21.9428 28.2031 22.5956 28.2031 23.4V24.3714ZM28.2031 16.6C28.2031 17.4044 27.5141 18.0572 26.665 18.0572H25.6396C24.7906 18.0572 24.1016 17.4044 24.1016 16.6V15.6286C24.1016 14.8243 24.7906 14.1715 25.6396 14.1715H26.665C27.5141 14.1715 28.2031 14.8243 28.2031 15.6286V16.6Z" fill="url(#paint0_linear_71_11)"/>
	<defs>
		<linearGradient id="paint0_linear_71_11" x1="0.517577" y1="32.9523" x2="38.1134" y2="5.79976" gradientUnits="userSpaceOnUse">
			<stop stop-color="#D83B01"/>
			<stop offset="1" stop-color="#F1821C"/>
		</linearGradient>
	</defs>
</svg>
