<!-- Exported by Character Map UWP -->
<svg height="100%" viewBox="128 0 768 1024" width="100%" xmlns="http://www.w3.org/2000/svg">
  <defs>
    <linearGradient id="grad1" gradientUnits="userSpaceOnUse" x1="0" y1="0" x2="0" y2="1024" gradientTransform="rotate(-45 512 512)">
	  <stop offset="0%" stop-color="#55d7ff"/>
	  <stop offset="100%" stop-color="#1696E0"/>
	</linearGradient>
  </defs>

  <path d="M670.5,1024C642.167,1024 615,1018.67 589,1008C552,993 517.417,973.083 485.25,948.25C453.083,923.417 423.25,895.75 395.75,865.25C368.25,834.75 342.833,802.417 319.5,768.25C296.167,734.083 275,700.167 256,666.5C239,636.833 222.833,605.75 207.5,573.25C192.167,540.75 178.583,507.5 166.75,473.5C154.917,439.5 145.5,405 138.5,370C131.5,335 128,300.167 128,265.5C128,244.167 129.5,223 132.5,202C135.5,180.667 141.333,160.333 150,141C158.667,121.667 169.667,104.083 183,88.25C196.333,72.4167 211.75,58.6667 229.25,47C246.75,35.3334 265.833,26.1667 286.5,19.5C299.5,15.5 312.833,11.25 326.5,6.75C340.167,2.25 354,0 368,0C393.333,0 416.25,6.83337 436.75,20.5C457.25,34.1667 472.667,52.5 483,75.5L524.5,169.5C533.5,190.167 538,211.833 538,234.5C538,256.5 534.75,275.583 528.25,291.75C521.75,307.917 513.167,322.75 502.5,336.25C491.833,349.75 479.583,362.667 465.75,375C451.917,387.333 437.5,400.5 422.5,414.5C420.5,416.5 419.25,418.917 418.75,421.75C418.25,424.583 418,427.333 418,430C418,437.667 420.333,448.25 425,461.75C429.667,475.25 435.667,490 443,506C450.333,522 458.75,538.333 468.25,555C477.75,571.667 487.25,586.75 496.75,600.25C506.25,613.75 515.5,624.833 524.5,633.5C533.5,642.167 541.333,646.5 548,646.5C548.667,646.5 549.583,646.5 550.75,646.5C551.917,646.5 553,646.333 554,646L683,606C692,603 701.167,601.5 710.5,601.5C725.833,601.5 740.25,605 753.75,612C767.25,619 778.333,628.833 787,641.5L872,762C888,784.667 896,809.5 896,836.5C896,851.833 894.083,865.167 890.25,876.5C886.417,887.833 881.167,898.25 874.5,907.75C867.833,917.25 860,926.25 851,934.75C842,943.25 832.5,952.5 822.5,962.5C801.5,982.5 778.167,997.75 752.5,1008.25C726.833,1018.75 699.5,1024 670.5,1024Z"
        fill="url(#grad1)" />
</svg>