<!-- Exported by Character Map UWP -->
<svg height="100%" viewBox="0 0 1024 1024" width="100%" xmlns="http://www.w3.org/2000/svg" xmlns:xlink="http://www.w3.org/1999/xlink">
  <path d="M0,512C0,464.667 6.08333,419.167 18.25,375.5C30.4167,331.833 47.5833,291.083 69.75,253.25C91.9167,215.417 118.583,180.917 149.75,149.75C180.917,118.583 215.417,91.9167 253.25,69.75C291.083,47.5834 331.833,30.4167 375.5,18.25C419.167,6.08337 464.667,0 512,0C559,0 604.333,6.08337 648,18.25C691.667,30.4167 732.5,47.5834 770.5,69.75C808.5,91.9167 843.083,118.583 874.25,149.75C905.417,180.917 932.083,215.5 954.25,253.5C976.417,291.5 993.583,332.333 1005.75,376C1017.92,419.667 1024,465 1024,512C1024,559.333 1017.92,604.833 1005.75,648.5C993.583,692.167 976.417,732.917 954.25,770.75C932.083,808.583 905.417,843.083 874.25,874.25C843.083,905.417 808.583,932.083 770.75,954.25C732.917,976.417 692.167,993.583 648.5,1005.75C604.833,1017.92 559.333,1024 512,1024C464.667,1024 419.167,1017.92 375.5,1005.75C331.833,993.583 291,976.417 253,954.25C215,932.083 180.5,905.5 149.5,874.5C118.5,843.5 91.9167,809 69.75,771C47.5833,733 30.4167,692.167 18.25,648.5C6.08333,604.833 0,559.333 0,512ZM960,512C960,471 954.667,431.417 944,393.25C933.333,355.083 918.25,319.417 898.75,286.25C879.25,253.083 855.833,222.833 828.5,195.5C801.167,168.167 770.917,144.75 737.75,125.25C704.583,105.75 668.917,90.6667 630.75,80C592.583,69.3334 553,64.0001 512,64C470.667,64.0001 430.917,69.3334 392.75,80C354.583,90.6667 318.917,105.75 285.75,125.25C252.583,144.75 222.417,168.083 195.25,195.25C168.083,222.417 144.75,252.583 125.25,285.75C105.75,318.917 90.6667,354.583 80,392.75C69.3333,430.917 64,470.667 64,512C64,553.333 69.3333,593.083 80,631.25C90.6667,669.417 105.75,705.083 125.25,738.25C144.75,771.417 168.083,801.583 195.25,828.75C222.417,855.917 252.583,879.25 285.75,898.75C318.917,918.25 354.583,933.333 392.75,944C430.917,954.667 470.667,960 512,960C553.333,960 593.083,954.667 631.25,944C669.417,933.333 705.083,918.25 738.25,898.75C771.417,879.25 801.583,855.917 828.75,828.75C855.917,801.583 879.25,771.417 898.75,738.25C918.25,705.083 933.333,669.417 944,631.25C954.667,593.083 960,553.333 960,512Z" fill="#FFFFFF" fill-opacity="1">
  </path>
</svg>