<!-- Exported by Character Map UWP -->
<svg height="100%" viewBox="0 0 1024 1024" width="100%" xmlns="http://www.w3.org/2000/svg" xmlns:xlink="http://www.w3.org/1999/xlink">
  <path d="M0,512C0,434.333 12.0833,364 36.25,301C60.4167,238 94.8333,184.167 139.5,139.5C184.167,94.8334 238,60.4167 301,36.25C364,12.0834 434.333,0 512,0C589.667,0 660,12.0834 723,36.25C786,60.4167 839.833,94.8334 884.5,139.5C929.167,184.167 963.583,238 987.75,301C1011.92,364 1024,434.333 1024,512C1024,589.667 1011.92,660 987.75,723C963.583,786 929.167,839.833 884.5,884.5C839.833,929.167 786,963.583 723,987.75C660,1011.92 589.667,1024 512,1024C434.333,1024 364,1011.92 301,987.75C238,963.583 184.167,929.167 139.5,884.5C94.8333,839.833 60.4167,786 36.25,723C12.0833,660 0,589.667 0,512ZM960,512C960,443.333 949.583,381.333 928.75,326C907.917,270.667 878.083,223.583 839.25,184.75C800.417,145.917 753.333,116.083 698,95.25C642.667,74.4167 580.667,64.0001 512,64C443.333,64.0001 381.333,74.4167 326,95.25C270.667,116.083 223.583,145.917 184.75,184.75C145.917,223.583 116.083,270.667 95.25,326C74.4167,381.333 64,443.333 64,512C64,580.667 74.4167,642.667 95.25,698C116.083,753.333 145.917,800.417 184.75,839.25C223.583,878.083 270.667,907.917 326,928.75C381.333,949.583 443.333,960 512,960C580.667,960 642.667,949.583 698,928.75C753.333,907.917 800.417,878.083 839.25,839.25C878.083,800.417 907.917,753.333 928.75,698C949.583,642.667 960,580.667 960,512ZM256,320C256,306.667 258.5,294.167 263.5,282.5C268.5,270.833 275.333,260.667 284,252C292.667,243.333 302.833,236.5 314.5,231.5C326.167,226.5 338.667,224 352,224C365,224 377.333,226.5 389,231.5C400.667,236.5 410.917,243.417 419.75,252.25C428.583,261.083 435.5,271.333 440.5,283C445.5,294.667 448,307 448,320C448,333 445.5,345.333 440.5,357C435.5,368.667 428.583,378.917 419.75,387.75C410.917,396.583 400.667,403.5 389,408.5C377.333,413.5 365,416 352,416C339,416 326.667,413.5 315,408.5C303.333,403.5 293.083,396.583 284.25,387.75C275.417,378.917 268.5,368.667 263.5,357C258.5,345.333 256,333 256,320ZM576,320C576,307 578.5,294.667 583.5,283C588.5,271.333 595.417,261.083 604.25,252.25C613.083,243.417 623.333,236.5 635,231.5C646.667,226.5 659,224 672,224C685,224 697.333,226.5 709,231.5C720.667,236.5 730.917,243.417 739.75,252.25C748.583,261.083 755.5,271.333 760.5,283C765.5,294.667 768,307 768,320C768,333 765.5,345.333 760.5,357C755.5,368.667 748.583,378.917 739.75,387.75C730.917,396.583 720.667,403.5 709,408.5C697.333,413.5 685,416 672,416C659,416 646.667,413.5 635,408.5C623.333,403.5 613.083,396.583 604.25,387.75C595.417,378.917 588.5,368.667 583.5,357C578.5,345.333 576,333 576,320ZM208,512L816,512C816,537.667 812.667,562.75 806,587.25C799.333,611.75 789.917,635.083 777.75,657.25C765.583,679.417 751,700 734,719C717,738 698,754.667 677,769C652,786 625.75,798.083 598.25,805.25C570.75,812.417 542,816 512,816C482.333,816 453.5,812.417 425.5,805.25C397.5,798.083 371.167,786 346.5,769C325.833,754.667 307,738 290,719C273,700 258.417,679.417 246.25,657.25C234.083,635.083 224.667,611.667 218,587C211.333,562.333 208,537.333 208,512Z" fill="#FFFFFF" fill-opacity="1">
  </path>
</svg>