<!-- Exported by Character Map UWP -->
<svg height="100%" viewBox="0 0 1024 1024" width="100%" xmlns="http://www.w3.org/2000/svg" xmlns:xlink="http://www.w3.org/1999/xlink">
  <path d="M216,1024C187,1024 159.417,1018.17 133.25,1006.5C107.083,994.833 84.1667,979.167 64.5,959.5C44.8333,939.833 29.1667,916.917 17.5,890.75C5.83333,864.583 0,837 0,808C0,789.333 1.83333,772.333 5.5,757C9.16667,741.667 14.6667,725.5 22,708.5C23,705.833 23.9167,703.25 24.75,700.75C25.5833,698.25 26,695.667 26,693C26,690.333 25.5833,687.75 24.75,685.25C23.9167,682.75 23,680.167 22,677.5C15.3333,661.5 10,645.667 6,630C2,614.333 0,597.833 0,580.5C0,557.167 3.08333,535.5 9.25,515.5C15.4167,495.5 24.8333,475.667 37.5,456C50.1667,436.333 59.25,416.333 64.75,396C70.25,375.667 73,354 73,331C73,301.667 78.9167,273.667 90.75,247C102.583,220.333 118.583,196.833 138.75,176.5C158.917,156.167 182.25,140 208.75,128C235.25,116 263.167,110 292.5,110C300.167,110 307,108.917 313,106.75C319,104.583 324.333,100.333 329,94C352,63.6667 378.667,40.4167 409,24.25C439.333,8.08337 473.667,0 512,0C551.667,0 586.083,8 615.25,24C644.417,40 671,63.3334 695,94C700,100.667 705.167,104.917 710.5,106.75C715.833,108.583 722.333,109.5 730,109.5C760.333,109.5 788.917,115.667 815.75,128C842.583,140.333 866,156.833 886,177.5C906,198.167 921.833,222.167 933.5,249.5C945.167,276.833 951,305.5 951,335.5C951,353.5 952.833,369.5 956.5,383.5C960.167,397.5 964.667,410.5 970,422.5C974,431.833 978.333,440.833 983,449.5L992,466C996.667,474.667 1001,483.5 1005,492.5C1010.33,504.833 1014.83,518.083 1018.5,532.25C1022.17,546.417 1024,562.5 1024,580.5C1024,598.167 1022.08,614.75 1018.25,630.25C1014.42,645.75 1009,661.5 1002,677.5C999.667,682.5 998.5,687.667 998.5,693C998.5,698.333 999.667,703.5 1002,708.5C1009.33,725.5 1014.83,741.667 1018.5,757C1022.17,772.333 1024,789.333 1024,808C1024,837 1018.17,864.583 1006.5,890.75C994.833,916.917 979.167,939.833 959.5,959.5C939.833,979.167 916.917,994.833 890.75,1006.5C864.583,1018.17 837,1024 808,1024ZM506.5,960C468.167,960 431.417,953.333 396.25,940C361.083,926.667 329.333,908.25 301,884.75C272.667,861.25 248.667,833.333 229,801C209.333,768.667 196,733.667 189,696C176.333,691.333 164.833,685 154.5,677C144.167,669 135.333,659.75 128,649.25C120.667,638.75 115.083,627.333 111.25,615C107.417,602.667 105.5,589.667 105.5,576C105.5,551.667 111.833,529.25 124.5,508.75C137.167,488.25 154.333,472.5 176,461.5C176.667,434.5 182.583,412 193.75,394C204.917,376 222.333,360.333 246,347L247,347C260,340.333 271.25,332.583 280.75,323.75C290.25,314.917 297.833,303.5 303.5,289.5L304,289C308.667,277.667 314.583,268 321.75,260C328.917,252 339.333,248 353,248C362,248 369.5,250 375.5,254C381.5,258 387.083,262.917 392.25,268.75C397.417,274.583 402.833,280.583 408.5,286.75C414.167,292.917 421.333,298.167 430,302.5C438.667,306.833 448.333,310.167 459,312.5C469.667,314.833 480.583,316.583 491.75,317.75C502.917,318.917 514,319.583 525,319.75C536,319.917 546.333,320 556,320L748,320C754,320 760,321.333 766,324C772,326.667 777.667,330.083 783,334.25C788.333,338.417 793.25,342.917 797.75,347.75C802.25,352.583 806.333,357.167 810,361.5C821,375.5 829.5,390 835.5,405C841.5,420 845.333,436.333 847,454C859.333,459 870.5,465.5 880.5,473.5C890.5,481.5 899,490.667 906,501C913,511.333 918.417,522.583 922.25,534.75C926.083,546.917 928,559.667 928,573C928,587 925.667,600.583 921,613.75C916.333,626.917 909.917,639 901.75,650C893.583,661 883.75,670.5 872.25,678.5C860.75,686.5 848.167,692.333 834.5,696C827.5,733.667 814.167,768.667 794.5,801C774.833,833.333 750.917,861.25 722.75,884.75C694.583,908.25 662.917,926.667 627.75,940C592.583,953.333 555.833,960 517.5,960L807,960C827.333,960 846.75,955.917 865.25,947.75C883.75,939.583 900,928.5 914,914.5C928,900.5 939.167,884.25 947.5,865.75C955.833,847.25 960,827.667 960,807C960,793.333 958.75,781.25 956.25,770.75C953.75,760.25 949.833,748.833 944.5,736.5C941.5,729.5 939.083,722.417 937.25,715.25C935.417,708.083 934.5,700.667 934.5,693C934.5,683.333 935.833,674.5 938.5,666.5C941.167,658.5 944.083,650.25 947.25,641.75C950.417,633.25 953.333,624.167 956,614.5C958.667,604.833 960,593.5 960,580.5C960,563.833 957.667,548.25 953,533.75C948.333,519.25 941.667,505 933,491C917.333,465.667 905.75,440.333 898.25,415C890.75,389.667 887,362 887,332C887,310.333 882.667,289.833 874,270.5C865.333,251.167 853.667,234.333 839,220C824.333,205.667 807.25,194.333 787.75,186C768.25,177.667 747.667,173.5 726,173.5C709.667,173.5 696.083,170.833 685.25,165.5C674.417,160.167 664.75,153.417 656.25,145.25C647.75,137.083 639.583,128.25 631.75,118.75C623.917,109.25 614.833,100.417 604.5,92.25C594.167,84.0834 581.667,77.3334 567,72C552.333,66.6667 534,64.0001 512,64C485.667,64.0001 461.333,69.5834 439,80.75C416.667,91.9167 397.833,108.167 382.5,129.5C371.167,145.5 358.25,156.75 343.75,163.25C329.25,169.75 312.5,173.333 293.5,174C271.5,174.667 251,179.333 232,188C213,196.667 196.417,208.25 182.25,222.75C168.083,237.25 157,254.167 149,273.5C141,292.833 137,313.5 137,335.5C137,362.833 133.083,389.833 125.25,416.5C117.417,443.167 106,468 91,491C82.3333,504.333 75.6667,518.583 71,533.75C66.3333,548.917 64,564.5 64,580.5C64,592.833 65.3333,603.75 68,613.25C70.6667,622.75 73.5833,631.75 76.75,640.25C79.9167,648.75 82.8333,657.167 85.5,665.5C88.1667,673.833 89.5,683 89.5,693C89.5,701 88.6667,708.417 87,715.25C85.3333,722.083 82.8333,729.167 79.5,736.5C73.8333,748.167 69.8333,759.583 67.5,770.75C65.1667,781.917 64,794 64,807C64,827.667 68.0833,847.25 76.25,865.75C84.4167,884.25 95.5,900.5 109.5,914.5C123.5,928.5 139.75,939.583 158.25,947.75C176.75,955.917 196.333,960 217,960ZM778,638.5L804.5,636.5C812.833,635.833 820.667,633.75 828,630.25C835.333,626.75 841.667,622.167 847,616.5C852.333,610.833 856.5,604.333 859.5,597C862.5,589.667 864,581.667 864,573C864,565 862.667,557.5 860,550.5C857.333,543.5 853.583,537.167 848.75,531.5C843.917,525.833 838.25,521.083 831.75,517.25C825.25,513.417 818.167,510.833 810.5,509.5C808.167,509.167 805.833,508.833 803.5,508.5L789.5,506C787.167,505.667 784.833,505.333 782.5,505C782.833,498.333 783.167,491.917 783.5,485.75C783.833,479.583 784,473.167 784,466.5C784,450.5 780.25,435.5 772.75,421.5C765.25,407.5 755.667,395.333 744,385L742.5,384L556,384C538,384 520,383.583 502,382.75C484,381.917 466.5,379.667 449.5,376C432.5,372.333 416.167,366.667 400.5,359C384.833,351.333 370.333,340.667 357,327C348,344.667 336.75,359.75 323.25,372.25C309.75,384.75 294,395.333 276,404C275.667,404 275.333,404.167 275,404.5L273.5,405C273.167,405 272.833,405.167 272.5,405.5L272,406C266.333,407.667 261.417,410.667 257.25,415C253.083,419.333 249.75,424.167 247.25,429.5C244.75,434.833 242.917,440.5 241.75,446.5C240.583,452.5 240,458.167 240,463.5C240,470.833 240.167,478.167 240.5,485.5C240.833,492.833 241.167,500.167 241.5,507.5C231.833,509.833 222.667,512.583 214,515.75C205.333,518.917 197.75,523 191.25,528C184.75,533 179.5,539.333 175.5,547C171.5,554.667 169.5,564.333 169.5,576C169.5,591.667 174.5,605.333 184.5,617C194.5,628.667 207.167,636 222.5,639L245.5,643L248.5,666.5C252.833,699.167 262.583,729.5 277.75,757.5C292.917,785.5 312,809.75 335,830.25C358,850.75 384.333,866.833 414,878.5C443.667,890.167 475,896 508,896C542.333,896 574.75,890.417 605.25,879.25C635.75,868.083 662.917,852.333 686.75,832C710.583,811.667 730.167,787.333 745.5,759C760.833,730.667 770.667,699.167 775,664.5ZM287,447.5C282.333,447.5 278.25,446 274.75,443C271.25,440 269.5,436 269.5,431C269.5,424.333 273.833,418.5 282.5,413.5C291.167,408.5 301.25,404.333 312.75,401C324.25,397.667 335.583,395.167 346.75,393.5C357.917,391.833 366.167,391 371.5,391L373.5,391C376.833,391 380.833,391.083 385.5,391.25C390.167,391.417 394.5,392.167 398.5,393.5C402.5,394.833 405.917,396.75 408.75,399.25C411.583,401.75 413,405.167 413,409.5C413,414.5 411.333,418.667 408,422C404.667,425.333 400.5,427 395.5,427C391.833,427 387.917,426.667 383.75,426C379.583,425.333 375.5,425 371.5,425C363.5,425 355.583,425.667 347.75,427C339.917,428.333 332.167,430.333 324.5,433C322.5,433.667 319.667,434.833 316,436.5C312.333,438.167 308.583,439.833 304.75,441.5C300.917,443.167 297.333,444.583 294,445.75C290.667,446.917 288.333,447.5 287,447.5ZM652,425C648,425 644,425.333 640,426C636,426.667 632.167,427 628.5,427C623.833,427 619.75,425.417 616.25,422.25C612.75,419.083 611,415.167 611,410.5C611,405.833 612.417,402.167 615.25,399.5C618.083,396.833 621.5,394.917 625.5,393.75C629.5,392.583 633.75,391.833 638.25,391.5C642.75,391.167 646.833,391 650.5,391L652.5,391C657.5,391 665.667,391.833 677,393.5C688.333,395.167 699.667,397.583 711,400.75C722.333,403.917 732.333,408 741,413C749.667,418 754,424 754,431C754,435.667 752.417,439.583 749.25,442.75C746.083,445.917 742.167,447.5 737.5,447.5C735.833,447.5 733.333,446.833 730,445.5C726.667,444.167 723,442.667 719,441C715,439.333 711.167,437.75 707.5,436.25C703.833,434.75 701,433.667 699,433C691.333,430.333 683.583,428.333 675.75,427C667.917,425.667 660,425 652,425ZM292.5,576C286.833,576 282.417,574.25 279.25,570.75C276.083,567.25 274.5,563 274.5,558C274.5,556.667 274.667,555.5 275,554.5C271.333,551.5 268.083,548.5 265.25,545.5C262.417,542.5 261,538.333 261,533C261,528 262.5,523.75 265.5,520.25C268.5,516.75 271.833,513.667 275.5,511C286.167,503 296.667,497 307,493C317.333,489 329.333,487 343,487C344.333,487 345.5,487.167 346.5,487.5L348,487.5C349,487.833 350.167,488 351.5,488C352.833,488 354.167,487.833 355.5,487.5L358,487.5C359,487.167 360.167,487 361.5,487C372.167,487 382.333,488.75 392,492.25C401.667,495.75 410.333,500.75 418,507.25C425.667,513.75 432.167,521.417 437.5,530.25C442.833,539.083 446.5,548.667 448.5,559C448.5,559.333 448.5,559.667 448.5,560L449,561C449,561.333 449,561.667 449,562C449,568 446.833,571.833 442.5,573.5C438.167,575.167 433.667,576 429,576C430,573.333 430.583,570.833 430.75,568.5C430.917,566.167 431,563.667 431,561C431,553 429.583,545.5 426.75,538.5C423.917,531.5 419.917,525.5 414.75,520.5C409.583,515.5 403.583,511.5 396.75,508.5C389.917,505.5 382.5,504 374.5,504C366.5,504 359,505.5 352,508.5C345,511.5 339,515.5 334,520.5C329,525.5 325,531.5 322,538.5C319,545.5 317.5,553 317.5,561C317.5,563.667 317.667,566.167 318,568.5C318.333,570.833 318.833,573.333 319.5,576ZM593,576C589,576 585.583,574.583 582.75,571.75C579.917,568.917 578.5,565.5 578.5,561.5L578.5,559C579.833,548.667 583.25,539.083 588.75,530.25C594.25,521.417 601,513.833 609,507.5C617,501.167 625.917,496.167 635.75,492.5C645.583,488.833 655.5,487 665.5,487C670.167,487 674.833,487.5 679.5,488.5C682.833,487.5 686.667,487 691,487C704.667,487 716.667,489 727,493C737.333,497 747.833,503 758.5,511C762.167,513.667 765.5,516.667 768.5,520C771.5,523.333 773,527.667 773,533C773,539.667 770.75,544.75 766.25,548.25C761.75,551.75 757.167,555.167 752.5,558.5C752.5,563.167 750.75,567.25 747.25,570.75C743.75,574.25 739.667,576 735,576L707.5,576C708.833,571.667 709.5,566.667 709.5,561C709.5,553 708,545.583 705,538.75C702,531.917 697.917,525.917 692.75,520.75C687.583,515.583 681.583,511.5 674.75,508.5C667.917,505.5 660.5,504 652.5,504C644.833,504 637.583,505.417 630.75,508.25C623.917,511.083 617.917,515 612.75,520C607.583,525 603.5,530.917 600.5,537.75C597.5,544.583 596,552 596,560C596,566.333 596.667,571.667 598,576ZM346,576C343.333,571.333 342,566.333 342,561C342,558 342.417,555.167 343.25,552.5C344.083,549.833 345.167,547.167 346.5,544.5C348.833,547.833 351.667,549.5 355,549.5C357.667,549.5 360,548.417 362,546.25C364,544.083 365,541.667 365,539C365,535.333 363.833,532.833 361.5,531.5C365.5,529.5 369.833,528.5 374.5,528.5C383.5,528.5 391.167,531.667 397.5,538C403.833,544.333 407,552 407,561C407,566.333 405.667,571.333 403,576ZM623.5,576C621.167,570.667 620,565.667 620,561C620,554.667 621.833,548.667 625.5,543C627.167,547.333 630.167,549.5 634.5,549.5C637.5,549.5 640,548.5 642,546.5C644,544.5 645,542 645,539C645,535.667 643.5,532.833 640.5,530.5C644.167,529.167 648.167,528.5 652.5,528.5C661.5,528.5 669.083,531.75 675.25,538.25C681.417,544.75 684.5,552.333 684.5,561C684.5,566.667 683.333,571.667 681,576ZM487,704C477.333,704 469.167,700.75 462.5,694.25C455.833,687.75 452.5,679.667 452.5,670C452.5,666 454,658.5 457,647.5C460,636.5 463.5,624.75 467.5,612.25C471.5,599.75 475.417,587.75 479.25,576.25C483.083,564.75 485.833,556.5 487.5,551.5C489.167,546.167 492.25,541.833 496.75,538.5C501.25,535.167 506.333,533.5 512,533.5C517.667,533.5 522.75,535.083 527.25,538.25C531.75,541.417 534.833,545.833 536.5,551.5C538.167,556.5 540.917,564.75 544.75,576.25C548.583,587.75 552.5,599.75 556.5,612.25C560.5,624.75 564,636.5 567,647.5C570,658.5 571.5,666 571.5,670C571.5,679.667 568.167,687.75 561.5,694.25C554.833,700.75 546.667,704 537,704ZM409.5,756.5C409.5,753.833 410.5,751.583 412.5,749.75C414.5,747.917 416.833,747 419.5,747C420.167,747 421,747.167 422,747.5C423,747.833 423.667,748 424,748C432.667,751.667 440.25,754.75 446.75,757.25C453.25,759.75 459.667,761.917 466,763.75C472.333,765.583 479.083,766.917 486.25,767.75C493.417,768.583 502,769 512,769C522,769 530.583,768.583 537.75,767.75C544.917,766.917 551.667,765.583 558,763.75C564.333,761.917 570.75,759.75 577.25,757.25C583.75,754.75 591.333,751.667 600,748C600.333,748 601,747.833 602,747.5C603,747.167 603.833,747 604.5,747C610.833,747 614,750.167 614,756.5C614,758.5 613.5,760.167 612.5,761.5C601.833,778.833 587.417,792.167 569.25,801.5C551.083,810.833 532,815.5 512,815.5C492.333,815.5 473.25,810.75 454.75,801.25C436.25,791.75 421.667,778.5 411,761.5C410,760.167 409.5,758.5 409.5,756.5Z" fill="#FFFFFF" fill-opacity="1">
  </path>
</svg>