<!-- Exported by Character Map UWP -->
<svg height="100%" viewBox="0 15 1007 1010" width="100%" xmlns="http://www.w3.org/2000/svg" xmlns:xlink="http://www.w3.org/1999/xlink">
  <path d="M1007,426.5C1007,445.833 1001.67,463.5 991,479.5C980.333,495.5 966,507.167 948,514.5L680.5,626C676.167,627.667 672.333,630.25 669,633.75C665.667,637.25 663.333,641.333 662,646L574.5,937C572.5,943.667 568.75,949.167 563.25,953.5C557.75,957.833 551.333,960 544,960C535.333,960 527.833,956.833 521.5,950.5L320,749L45,1024L0,1024L0,978.5L275,704L73.5,502.5C67.1667,496.167 64,488.5 64,479.5C64,473.167 65.8333,467.333 69.5,462C73.1667,456.667 78,452.833 84,450.5L380.5,332C388.167,329 393.833,323.5 397.5,315.5L508.5,71C516.167,53.6667 528,39.9167 544,29.75C560,19.5834 577.5,14.5001 596.5,14.5C609.167,14.5001 621.417,17.0001 633.25,22C645.083,27.0001 655.333,33.8334 664,42.5L979,358C988,367 994.917,377.5 999.75,389.5C1004.58,401.5 1007,413.833 1007,426.5ZM596.5,78.5C589.833,78.5 583.917,80.1667 578.75,83.5C573.583,86.8334 569.667,91.5 567,97.5L456,342C451,353.333 444,363.25 435,371.75C426,380.25 415.667,386.833 404,391.5L153,491.5L528.5,867.5L600.5,628C604.5,614.333 611.417,602.167 621.25,591.5C631.083,580.833 642.5,572.667 655.5,567L923.5,455C929.5,452.333 934.25,448.417 937.75,443.25C941.25,438.083 943,432.167 943,425.5C943,416.5 940,409 934,403L618.5,88C612.167,81.6667 604.833,78.5 596.5,78.5Z" fill="#FFFFFF" fill-opacity="1">
  </path>
</svg>