<!-- Exported by Character Map UWP -->
<svg height="100%" viewBox="0 126 1024 770" width="100%" xmlns="http://www.w3.org/2000/svg" xmlns:xlink="http://www.w3.org/1999/xlink">
  <path d="M0,512L0,201C0,190.667 2,180.917 6,171.75C10,162.583 15.3333,154.667 22,148C28.6667,141.333 36.5833,136 45.75,132C54.9167,128 64.6667,126 75,126L693,126C702.333,126 711.25,127.667 719.75,131C728.25,134.333 735.833,139 742.5,145C749.167,151 754.667,158 759,166C763.333,174 766.167,182.667 767.5,192L836,192C862,192 886.417,197.167 909.25,207.5C932.083,217.833 952,231.833 969,249.5C986,267.167 999.417,287.583 1009.25,310.75C1019.08,333.917 1024,358.333 1024,384C1024,409.667 1019.08,434.083 1009.25,457.25C999.417,480.417 986,500.833 969,518.5C952,536.167 932.083,550.167 909.25,560.5C886.417,570.833 862,576 836,576L762.5,576C757.167,606.667 748.5,635.917 736.5,663.75C724.5,691.583 709.667,717.333 692,741C674.333,764.667 654.25,786.083 631.75,805.25C609.25,824.417 584.833,840.667 558.5,854C532.167,867.333 504.333,877.667 475,885C445.667,892.333 415.333,896 384,896C348.667,896 314.583,891.417 281.75,882.25C248.917,873.083 218.333,860.167 190,843.5C161.667,826.833 135.833,806.833 112.5,783.5C89.1667,760.167 69.1667,734.333 52.5,706C35.8333,677.667 22.9167,647.083 13.75,614.25C4.58333,581.417 0,547.333 0,512ZM704,512L704,201C704,198 702.917,195.417 700.75,193.25C698.583,191.083 696,190 693,190L75,190C72,190 69.4167,191.083 67.25,193.25C65.0833,195.417 64,198 64,201L64,512C64,556.333 72.3333,597.917 89,636.75C105.667,675.583 128.5,709.5 157.5,738.5C186.5,767.5 220.417,790.333 259.25,807C298.083,823.667 339.667,832 384,832C428.333,832 469.917,823.667 508.75,807C547.583,790.333 581.5,767.5 610.5,738.5C639.5,709.5 662.333,675.583 679,636.75C695.667,597.917 704,556.333 704,512ZM834.5,512C851.833,512 868.083,508.5 883.25,501.5C898.417,494.5 911.667,485.167 923,473.5C934.333,461.833 943.333,448.25 950,432.75C956.667,417.25 960,401 960,384C960,367 956.667,350.75 950,335.25C943.333,319.75 934.333,306.167 923,294.5C911.667,282.833 898.417,273.5 883.25,266.5C868.083,259.5 851.833,256 834.5,256L768,256L768,512Z" fill="#FFFFFF" fill-opacity="1">
  </path>
</svg>