<!-- Exported by Character Map UWP -->
<svg height="100%" viewBox="0 0 1024 1024" width="100%" xmlns="http://www.w3.org/2000/svg" xmlns:xlink="http://www.w3.org/1999/xlink">
  <path d="M0,512C0,465 6.08333,419.667 18.25,376C30.4167,332.333 47.6667,291.583 70,253.75C92.3333,215.917 119.083,181.417 150.25,150.25C181.417,119.083 215.917,92.3334 253.75,70C291.583,47.6667 332.333,30.4167 376,18.25C419.667,6.08337 465,0 512,0C559,0 604.333,6.08337 648,18.25C691.667,30.4167 732.417,47.6667 770.25,70C808.083,92.3334 842.583,119.083 873.75,150.25C904.917,181.417 931.667,215.917 954,253.75C976.333,291.583 993.583,332.333 1005.75,376C1017.92,419.667 1024,465 1024,512C1024,559 1017.92,604.333 1005.75,648C993.583,691.667 976.333,732.417 954,770.25C931.667,808.083 904.917,842.583 873.75,873.75C842.583,904.917 808.083,931.667 770.25,954C732.417,976.333 691.667,993.583 648,1005.75C604.333,1017.92 559,1024 512,1024C465,1024 419.667,1017.92 376,1005.75C332.333,993.583 291.583,976.333 253.75,954C215.917,931.667 181.417,904.917 150.25,873.75C119.083,842.583 92.3333,808.083 70,770.25C47.6667,732.417 30.4167,691.667 18.25,648C6.08333,604.333 0,559 0,512ZM960,512C960,471 954.667,431.417 944,393.25C933.333,355.083 918.25,319.417 898.75,286.25C879.25,253.083 855.833,222.833 828.5,195.5C801.167,168.167 770.917,144.75 737.75,125.25C704.583,105.75 668.917,90.6667 630.75,80C592.583,69.3334 553,64.0001 512,64C470.667,64.0001 430.917,69.3334 392.75,80C354.583,90.6667 318.917,105.75 285.75,125.25C252.583,144.75 222.417,168.083 195.25,195.25C168.083,222.417 144.75,252.583 125.25,285.75C105.75,318.917 90.6667,354.583 80,392.75C69.3333,430.917 64,470.667 64,512C64,553.333 69.3333,593.083 80,631.25C90.6667,669.417 105.75,705.083 125.25,738.25C144.75,771.417 168.083,801.583 195.25,828.75C222.417,855.917 252.583,879.25 285.75,898.75C318.917,918.25 354.583,933.333 392.75,944C430.917,954.667 470.667,960 512,960C553.333,960 593.083,954.667 631.25,944C669.417,933.333 705.083,918.25 738.25,898.75C771.417,879.25 801.583,855.917 828.75,828.75C855.917,801.583 879.25,771.417 898.75,738.25C918.25,705.083 933.333,669.417 944,631.25C954.667,593.083 960,553.333 960,512ZM288,416C288,407 289.667,398.667 293,391C296.333,383.333 300.917,376.583 306.75,370.75C312.583,364.917 319.333,360.333 327,357C334.667,353.667 343,352 352,352C360.667,352 368.917,353.667 376.75,357C384.583,360.333 391.417,364.917 397.25,370.75C403.083,376.583 407.667,383.417 411,391.25C414.333,399.083 416,407.333 416,416C416,425 414.333,433.333 411,441C407.667,448.667 403.083,455.417 397.25,461.25C391.417,467.083 384.667,471.667 377,475C369.333,478.333 361,480 352,480C343,480 334.583,478.333 326.75,475C318.917,471.667 312.167,467.167 306.5,461.5C300.833,455.833 296.333,449.083 293,441.25C289.667,433.417 288,425 288,416ZM608,416C608,407 609.667,398.667 613,391C616.333,383.333 620.917,376.583 626.75,370.75C632.583,364.917 639.333,360.333 647,357C654.667,353.667 663,352 672,352C680.667,352 688.917,353.667 696.75,357C704.583,360.333 711.417,364.917 717.25,370.75C723.083,376.583 727.667,383.417 731,391.25C734.333,399.083 736,407.333 736,416C736,425 734.333,433.333 731,441C727.667,448.667 723.083,455.417 717.25,461.25C711.417,467.083 704.667,471.667 697,475C689.333,478.333 681,480 672,480C663,480 654.583,478.333 646.75,475C638.917,471.667 632.167,467.167 626.5,461.5C620.833,455.833 616.333,449.083 613,441.25C609.667,433.417 608,425 608,416ZM512,656C493.333,656 475.75,657.75 459.25,661.25C442.75,664.75 426.917,669.917 411.75,676.75C396.583,683.583 382,691.833 368,701.5C354,711.167 340.167,722.167 326.5,734.5C322.833,737.5 319.333,739.833 316,741.5C312.667,743.167 308.667,744 304,744C295.333,744 287.833,740.833 281.5,734.5C275.167,728.167 272,720.667 272,712C272,707 273.917,701.583 277.75,695.75C281.583,689.917 286.667,684.083 293,678.25C299.333,672.417 306.333,666.667 314,661C321.667,655.333 329.25,650.083 336.75,645.25C344.25,640.417 351.333,636.083 358,632.25C364.667,628.417 370.167,625.5 374.5,623.5C396.167,612.167 418.5,604.083 441.5,599.25C464.5,594.417 488,592 512,592C536,592 559.167,594.333 581.5,599C603.833,603.667 625.667,611.333 647,622C664.333,630.667 681.167,640.583 697.5,651.75C713.833,662.917 728.833,675.5 742.5,689.5C745.833,693.167 748.25,696.667 749.75,700C751.25,703.333 752,707.333 752,712C752,720.667 748.833,728.167 742.5,734.5C736.167,740.833 728.667,744 720,744C715.333,744 711.333,743.25 708,741.75C704.667,740.25 701.167,737.833 697.5,734.5C670.833,709.5 642.5,690.167 612.5,676.5C582.5,662.833 549,656 512,656Z" fill="#FFFFFF" fill-opacity="1">
  </path>
</svg>