<!-- Exported by Character Map UWP -->
<svg height="100%" viewBox="64 64 896 896" width="100%" xmlns="http://www.w3.org/2000/svg" xmlns:xlink="http://www.w3.org/1999/xlink">
  <path d="M220.5,960C199.5,960 179.5,955.75 160.5,947.25C141.5,938.75 124.917,927.417 110.75,913.25C96.5833,899.083 85.25,882.5 76.75,863.5C68.25,844.5 64,824.5 64,803.5L64,220.5C64,199.5 68.25,179.5 76.75,160.5C85.25,141.5 96.5833,124.917 110.75,110.75C124.917,96.5834 141.5,85.2501 160.5,76.75C179.5,68.2501 199.5,64.0001 220.5,64L803.5,64C824.5,64.0001 844.5,68.2501 863.5,76.75C882.5,85.2501 899.083,96.5834 913.25,110.75C927.417,124.917 938.75,141.5 947.25,160.5C955.75,179.5 960,199.5 960,220.5L960,803.5C960,824.5 955.75,844.5 947.25,863.5C938.75,882.5 927.417,899.083 913.25,913.25C899.083,927.417 882.5,938.75 863.5,947.25C844.5,955.75 824.5,960 803.5,960ZM128,256L896,256L896,224C896,211 893.5,198.667 888.5,187C883.5,175.333 876.583,165.083 867.75,156.25C858.917,147.417 848.667,140.5 837,135.5C825.333,130.5 813,128 800,128L224,128C211,128 198.667,130.5 187,135.5C175.333,140.5 165.083,147.417 156.25,156.25C147.417,165.083 140.5,175.333 135.5,187C130.5,198.667 128,211 128,224ZM800,896C813,896 825.333,893.5 837,888.5C848.667,883.5 858.917,876.583 867.75,867.75C876.583,858.917 883.5,848.667 888.5,837C893.5,825.333 896,813 896,800L896,320L128,320L128,800C128,813 130.5,825.333 135.5,837C140.5,848.667 147.417,858.917 156.25,867.75C165.083,876.583 175.333,883.5 187,888.5C198.667,893.5 211,896 224,896ZM256,736C256,727.333 259.167,719.833 265.5,713.5L371,608L265.5,502.5C259.167,496.167 256,488.667 256,480C256,471.333 259.167,463.833 265.5,457.5C271.833,451.167 279.333,448 288,448C296.667,448 304.167,451.167 310.5,457.5L438.5,585.5C444.833,591.833 448,599.333 448,608C448,616.667 444.833,624.167 438.5,630.5L310.5,758.5C304.167,764.833 296.667,768 288,768C279.333,768 271.833,764.833 265.5,758.5C259.167,752.167 256,744.667 256,736ZM480,768C471.333,768 463.833,764.833 457.5,758.5C451.167,752.167 448,744.667 448,736C448,727.333 451.167,719.833 457.5,713.5C463.833,707.167 471.333,704 480,704L736,704C744.667,704 752.167,707.167 758.5,713.5C764.833,719.833 768,727.333 768,736C768,744.667 764.833,752.167 758.5,758.5C752.167,764.833 744.667,768 736,768Z" fill="#FFFFFF" fill-opacity="1">
  </path>
</svg>