<!-- Exported by Character Map UWP -->
<svg height="100%" viewBox="0 0 1024 832" width="100%" xmlns="http://www.w3.org/2000/svg" xmlns:xlink="http://www.w3.org/1999/xlink">
  <path d="M32,704C23.3333,704 15.8333,700.833 9.5,694.5C3.16667,688.167 0,680.667 0,672C0,664.333 2.08333,658 6.25,653C10.4167,648 15.8333,644.167 22.5,641.5C47.5,632.167 69.6667,621 89,608C108.333,595 126.5,577.833 143.5,556.5C117.833,546.167 95.9167,534.25 77.75,520.75C59.5833,507.25 44.75,491.833 33.25,474.5C21.75,457.167 13.3333,437.583 8,415.75C2.66667,393.917 0,369.167 0,341.5C0,324.833 3.33333,308.167 10,291.5C16.6667,274.833 25.4167,258.917 36.25,243.75C47.0833,228.583 59.1667,214.75 72.5,202.25C85.8333,189.75 99,179.167 112,170.5C144.667,149.167 173.917,125.25 199.75,98.75C225.583,72.25 250.667,43.8334 275,13.5C278.667,9.16675 282.583,5.83337 286.75,3.5C290.917,1.16669 295.833,0 301.5,0C307.5,0 313.167,1.75 318.5,5.25C323.833,8.75 327.833,13.3334 330.5,19L423.5,227.5C431.5,245.833 437.667,265 442,285C446.333,305 448.5,325 448.5,345C448.5,383.333 440.25,418.5 423.75,450.5C407.25,482.5 384.667,510.833 356,535.5C354.333,536.833 352.583,538 350.75,539C348.917,540 347,540.5 345,540.5C341,540.5 337.667,538.833 335,535.5C332.333,532.167 331,528.667 331,525C331,522.667 331.5,520.5 332.5,518.5C346.5,484.167 357.667,448.25 366,410.75C374.333,373.25 378.5,335.833 378.5,298.5C378.5,287.833 374.5,278.667 366.5,271C358.5,263.333 349.167,259.5 338.5,259.5C327.167,259.5 317.833,263.083 310.5,270.25C303.167,277.417 299.167,286.5 298.5,297.5C296.833,320.167 294.417,342.917 291.25,365.75C288.083,388.583 283.583,411.167 277.75,433.5C271.917,455.833 264.417,477.583 255.25,498.75C246.083,519.917 234.833,539.833 221.5,558.5C209.5,575.167 197.167,590.833 184.5,605.5C171.833,620.167 158.25,633.667 143.75,646C129.25,658.333 113.583,669.25 96.75,678.75C79.9167,688.25 61.5,696.167 41.5,702.5C38.5,703.5 35.3333,704 32,704ZM45,783.5C56.6667,781.833 69,778.5 82,773.5C95,768.5 106.833,763.333 117.5,758C131.5,764.667 145.667,768 160,768L736,768C749,768 761.333,765.5 773,760.5C784.667,755.5 794.917,748.583 803.75,739.75C812.583,730.917 819.5,720.667 824.5,709C829.5,697.333 832,685 832,672L832,352C832,339 829.5,326.667 824.5,315C819.5,303.333 812.583,293.083 803.75,284.25C794.917,275.417 784.667,268.5 773,263.5C761.333,258.5 749,256 736,256L517.5,256C514.833,244.667 511.5,233.833 507.5,223.5C503.5,213.167 499.5,202.667 495.5,192L739.5,192C760.833,192 780.917,196.25 799.75,204.75C818.583,213.25 835.083,224.583 849.25,238.75C863.417,252.917 874.667,269.5 883,288.5C891.333,307.5 895.667,327.5 896,348.5L896,416L960,416C968.667,416 976.833,417.667 984.5,421C992.167,424.333 999,429 1005,435C1011,441 1015.67,447.833 1019,455.5C1022.33,463.167 1024,471.333 1024,480L1024,544C1024,561.667 1017.67,576.833 1005,589.5C992.667,601.833 977.667,608 960,608L896,608L896,675.5C896,696.5 891.75,716.5 883.25,735.5C874.75,754.5 863.417,771.083 849.25,785.25C835.083,799.417 818.5,810.75 799.5,819.25C780.5,827.75 760.5,832 739.5,832L160,832C138.333,832 117.5,827.833 97.5,819.5C77.5,811.167 60,799.167 45,783.5ZM200,704C208.667,696.667 216.917,689 224.75,681C232.583,673 240.333,664.667 248,656C272,655.667 295.583,651.75 318.75,644.25C341.917,636.75 363.667,626.5 384,613.5L384,656C384,669.333 379.333,680.667 370,690C360.667,699.333 349.333,704 336,704Z" fill="#FFFFFF" fill-opacity="1">
  </path>
</svg>