<!-- Exported by Character Map UWP -->
<svg height="100%" viewBox="192 7 640 826" width="100%" xmlns="http://www.w3.org/2000/svg" xmlns:xlink="http://www.w3.org/1999/xlink">
  <path d="M422.5,128C417.833,128 414,126.5 411,123.5C408,120.5 406.5,116.667 406.5,112C406.5,107.667 408.167,103.833 411.5,100.5L500.5,11.5C503.833,8.16669 507.667,6.5 512,6.5C516.333,6.5 520.167,8.16669 523.5,11.5L612.5,100.5C615.833,103.833 617.5,107.667 617.5,112C617.5,116.667 616,120.5 613,123.5C610,126.5 606.167,128 601.5,128ZM832,448L832,576C832,585 830.333,593.333 827,601C823.667,608.667 819.083,615.417 813.25,621.25C807.417,627.083 800.667,631.667 793,635C785.333,638.333 777,640 768,640L640,640L640,768C640,777 638.333,785.333 635,793C631.667,800.667 627.083,807.417 621.25,813.25C615.417,819.083 608.667,823.667 601,827C593.333,830.333 585,832 576,832L448,832C439,832 430.583,830.333 422.75,827C414.917,823.667 408.167,819.167 402.5,813.5C396.833,807.833 392.333,801.083 389,793.25C385.667,785.417 384,777 384,768L384,640L256,640C247,640 238.583,638.333 230.75,635C222.917,631.667 216.167,627.167 210.5,621.5C204.833,615.833 200.333,609.083 197,601.25C193.667,593.417 192,585 192,576L192,448C192,439 193.667,430.667 197,423C200.333,415.333 204.917,408.583 210.75,402.75C216.583,396.917 223.333,392.333 231,389C238.667,385.667 247,384 256,384L384,384L384,256C384,247 385.667,238.667 389,231C392.333,223.333 396.917,216.583 402.75,210.75C408.583,204.917 415.333,200.333 423,197C430.667,193.667 439,192 448,192L576,192C584.667,192 592.917,193.667 600.75,197C608.583,200.333 615.417,204.917 621.25,210.75C627.083,216.583 631.667,223.417 635,231.25C638.333,239.083 640,247.333 640,256L640,384L768,384C776.667,384 784.917,385.667 792.75,389C800.583,392.333 807.417,396.917 813.25,402.75C819.083,408.583 823.667,415.417 827,423.25C830.333,431.083 832,439.333 832,448ZM768,576L768,448L256,448L256,576L416,576C424.667,576 432.167,579.167 438.5,585.5C444.833,591.833 448,599.333 448,608L448,768L576,768L576,608C576,599.333 579.167,591.833 585.5,585.5C591.833,579.167 599.333,576 608,576Z" fill="#FFFFFF" fill-opacity="1">
  </path>
</svg>