<!-- Exported by Character Map UWP -->
<svg height="100%" viewBox="0 0 1024 1024" width="100%" xmlns="http://www.w3.org/2000/svg" xmlns:xlink="http://www.w3.org/1999/xlink">
  <path d="M111,830C113.667,830.667 116.5,831.167 119.5,831.5C122.5,831.833 125.333,832 128,832L409.5,832L393.5,896L125.5,896C108.833,896 92.9167,892.583 77.75,885.75C62.5833,878.917 49.25,869.75 37.75,858.25C26.25,846.75 17.0833,833.417 10.25,818.25C3.41667,803.083 0,787.167 0,770.5L0,125.5C0,108.833 3.41667,92.9167 10.25,77.75C17.0833,62.5834 26.25,49.2501 37.75,37.75C49.25,26.2501 62.5833,17.0834 77.75,10.25C92.9167,3.41669 108.833,0 125.5,0L770.5,0C787.167,0 803.083,3.41669 818.25,10.25C833.417,17.0834 846.75,26.2501 858.25,37.75C869.75,49.2501 878.917,62.5834 885.75,77.75C892.583,92.9167 896,108.833 896,125.5L896,368.5C885,369.167 874.167,370.833 863.5,373.5C852.833,376.167 842.333,379.667 832,384L832,128C832,119.333 830.333,111.083 827,103.25C823.667,95.4167 819.083,88.5834 813.25,82.75C807.417,76.9167 800.583,72.3334 792.75,69C784.917,65.6667 776.667,64.0001 768,64L128,64C119,64.0001 110.667,65.6667 103,69C95.3333,72.3334 88.5833,76.9167 82.75,82.75C76.9167,88.5834 72.3333,95.3334 69,103C65.6667,110.667 64,119 64,128L64,768C64,770.667 64.1667,773.5 64.5,776.5C64.8333,779.5 65.3333,782.333 66,785L371.5,479.5C393.5,457.5 420,446.5 451,446.5C466.333,446.5 480.75,449.417 494.25,455.25C507.75,461.083 519.833,469.333 530.5,480L623.5,574.5L578,619.5L485,525C480.667,520.667 475.75,517.167 470.25,514.5C464.75,511.833 459,510.5 453,510.5C446.333,510.5 439.75,511.667 433.25,514C426.75,516.333 421.167,519.833 416.5,524.5ZM608,192C621,192 633.333,194.5 645,199.5C656.667,204.5 666.917,211.417 675.75,220.25C684.583,229.083 691.5,239.333 696.5,251C701.5,262.667 704,275 704,288C704,301 701.5,313.333 696.5,325C691.5,336.667 684.583,346.917 675.75,355.75C666.917,364.583 656.667,371.5 645,376.5C633.333,381.5 621,384 608,384C595,384 582.667,381.5 571,376.5C559.333,371.5 549.083,364.583 540.25,355.75C531.417,346.917 524.5,336.667 519.5,325C514.5,313.333 512,301 512,288C512,275 514.5,262.667 519.5,251C524.5,239.333 531.417,229.083 540.25,220.25C549.083,211.417 559.333,204.5 571,199.5C582.667,194.5 595,192 608,192ZM608,256C599.333,256 591.833,259.167 585.5,265.5C579.167,271.833 576,279.333 576,288C576,296.667 579.167,304.167 585.5,310.5C591.833,316.833 599.333,320 608,320C616.667,320 624.167,316.833 630.5,310.5C636.833,304.167 640,296.667 640,288C640,279.333 636.833,271.833 630.5,265.5C624.167,259.167 616.667,256 608,256ZM1024,562.5C1024,573.833 1022.92,584 1020.75,593C1018.58,602 1015.42,610.417 1011.25,618.25C1007.08,626.083 1002,633.667 996,641C990,648.333 983.333,655.833 976,663.5L811,498.5C818.333,490.833 825.5,483.833 832.5,477.5C839.5,471.167 846.833,465.833 854.5,461.5C862.167,457.167 870.417,453.833 879.25,451.5C888.083,449.167 898.167,448 909.5,448C925.5,448 940.5,450.917 954.5,456.75C968.5,462.583 980.667,470.667 991,481C1001.33,491.333 1009.42,503.5 1015.25,517.5C1021.08,531.5 1024,546.5 1024,562.5ZM754.5,555L919.5,720L671,968.5C665,974.5 658,978.5 650,980.5C646,981.5 639.25,983.25 629.75,985.75C620.25,988.25 609.25,991.167 596.75,994.5C584.25,997.833 571.25,1001.17 557.75,1004.5C544.25,1007.83 531.583,1011 519.75,1014C507.917,1017 497.667,1019.42 489,1021.25C480.333,1023.08 474.833,1024 472.5,1024C466.833,1024 461.75,1021.75 457.25,1017.25C452.75,1012.75 450.5,1007.67 450.5,1002C450.5,999.667 451.417,994.167 453.25,985.5C455.083,976.833 457.5,966.583 460.5,954.75C463.5,942.917 466.667,930.167 470,916.5C473.333,902.833 476.667,889.833 480,877.5C483.333,865.167 486.25,854.167 488.75,844.5C491.25,834.833 493,828 494,824C496,816.333 500,809.5 506,803.5Z" fill="#FFFFFF" fill-opacity="1">
  </path>
</svg>