<!-- Exported by Character Map UWP -->
<svg height="100%" viewBox="192 0 640 1024" width="100%" xmlns="http://www.w3.org/2000/svg" xmlns:xlink="http://www.w3.org/1999/xlink">
  <path d="M800,0C808.667,0 816.167,3.16669 822.5,9.5C828.833,15.8334 832,23.3334 832,32L832,578.5C832,595.5 828.583,611.5 821.75,626.5C814.917,641.5 805.75,654.75 794.25,666.25C782.75,677.75 769.417,686.833 754.25,693.5C739.083,700.167 723.167,703.667 706.5,704C702.833,704 699.167,704.083 695.5,704.25C691.833,704.417 688.167,704.5 684.5,704.5C676.833,704.5 669.333,704.417 662,704.25C654.667,704.083 647.333,704 640,704L640,898.5C640,915.833 636.5,932.083 629.5,947.25C622.5,962.417 613.167,975.667 601.5,987C589.833,998.333 576.25,1007.33 560.75,1014C545.25,1020.67 529,1024 512,1024C494.333,1024 477.75,1020.58 462.25,1013.75C446.75,1006.92 433.25,997.75 421.75,986.25C410.25,974.75 401.083,961.25 394.25,945.75C387.417,930.25 384,913.667 384,896L384,704L317.5,704C300.833,704 284.917,700.583 269.75,693.75C254.583,686.917 241.25,677.75 229.75,666.25C218.25,654.75 209.083,641.417 202.25,626.25C195.417,611.083 192,595.167 192,578.5L192,32C192,23.3334 195.167,15.8334 201.5,9.5C207.833,3.16669 215.333,0 224,0ZM256,64L256,448L768,448L768,64L704,64L704,224C704,232.667 700.833,240.167 694.5,246.5C688.167,252.833 680.667,256 672,256C663.333,256 655.833,252.833 649.5,246.5C643.167,240.167 640,232.667 640,224L640,64L576,64L576,160C576,168.667 572.833,176.167 566.5,182.5C560.167,188.833 552.667,192 544,192C535.333,192 527.833,188.833 521.5,182.5C515.167,176.167 512,168.667 512,160L512,64ZM768,512L256,512L256,576C256,594 262.167,609.167 274.5,621.5C286.833,633.833 302,640 320,640L416,640C424.667,640 432.167,643.167 438.5,649.5C444.833,655.833 448,663.333 448,672L448,896C448,905 449.667,913.417 453,921.25C456.333,929.083 460.833,935.833 466.5,941.5C472.167,947.167 478.917,951.667 486.75,955C494.583,958.333 503,960 512,960C521,960 529.333,958.333 537,955C544.667,951.667 551.417,947.083 557.25,941.25C563.083,935.417 567.667,928.667 571,921C574.333,913.333 576,905 576,896L576,672C576,658.333 580.75,649.5 590.25,645.5C599.75,641.5 611.667,639.5 626,639.5C634.667,639.5 643.667,639.75 653,640.25C662.333,640.75 671.833,641 681.5,641C694.5,641 706.917,639.833 718.75,637.5C730.583,635.167 740.667,629.833 749,621.5C761.667,608.833 768,593.667 768,576Z" fill="#FFFFFF" fill-opacity="1">
  </path>
</svg>