<svg viewBox="0 0 16 16" fill="none" xmlns="http://www.w3.org/2000/svg">
<path d="M14 13.5V2.5C14 2.36458 14.0495 2.2474 14.1484 2.14844C14.2474 2.04948 14.3646 2 14.5 2C14.6354 2 14.7526 2.04948 14.8516 2.14844C14.9505 2.2474 15 2.36458 15 2.5V13.5C15 13.6354 14.9505 13.7526 14.8516 13.8516C14.7526 13.9505 14.6354 14 14.5 14C14.3646 14 14.2474 13.9505 14.1484 13.8516C14.0495 13.7526 14 13.6354 14 13.5ZM11 13.5V4.5C11 4.36458 11.0495 4.2474 11.1484 4.14844C11.2474 4.04948 11.3646 4 11.5 4C11.6354 4 11.7526 4.04948 11.8516 4.14844C11.9505 4.2474 12 4.36458 12 4.5V13.5C12 13.6354 11.9505 13.7526 11.8516 13.8516C11.7526 13.9505 11.6354 14 11.5 14C11.3646 14 11.2474 13.9505 11.1484 13.8516C11.0495 13.7526 11 13.6354 11 13.5ZM8 13.5V6.5C8 6.36458 8.04948 6.2474 8.14844 6.14844C8.2474 6.04948 8.36458 6 8.5 6C8.63542 6 8.7526 6.04948 8.85156 6.14844C8.95052 6.2474 9 6.36458 9 6.5V13.5C9 13.6354 8.95052 13.7526 8.85156 13.8516C8.7526 13.9505 8.63542 14 8.5 14C8.36458 14 8.2474 13.9505 8.14844 13.8516C8.04948 13.7526 8 13.6354 8 13.5ZM5 13.5V8.5C5 8.36458 5.04948 8.2474 5.14844 8.14844C5.2474 8.04948 5.36458 8 5.5 8C5.63542 8 5.7526 8.04948 5.85156 8.14844C5.95052 8.2474 6 8.36458 6 8.5V13.5C6 13.6354 5.95052 13.7526 5.85156 13.8516C5.7526 13.9505 5.63542 14 5.5 14C5.36458 14 5.2474 13.9505 5.14844 13.8516C5.04948 13.7526 5 13.6354 5 13.5ZM2 13.5V10.5C2 10.3646 2.04948 10.2474 2.14844 10.1484C2.2474 10.0495 2.36458 10 2.5 10C2.63542 10 2.7526 10.0495 2.85156 10.1484C2.95052 10.2474 3 10.3646 3 10.5V13.5C3 13.6354 2.95052 13.7526 2.85156 13.8516C2.7526 13.9505 2.63542 14 2.5 14C2.36458 14 2.2474 13.9505 2.14844 13.8516C2.04948 13.7526 2 13.6354 2 13.5Z" fill="white"/>
</svg>
