<!-- Exported by Character Map UWP -->
<svg height="100%" viewBox="88 0 936 1024" width="100%" xmlns="http://www.w3.org/2000/svg" xmlns:xlink="http://www.w3.org/1999/xlink">
  <path d="M576,832L576,896L352,896C339,896 326.667,893.5 315,888.5C303.333,883.5 293.083,876.583 284.25,867.75C275.417,858.917 268.5,848.667 263.5,837C258.5,825.333 256,813 256,800L256,640L188.5,640C174.5,640 161.417,637.333 149.25,632C137.083,626.667 126.5,619.417 117.5,610.25C108.5,601.083 101.333,590.417 96,578.25C90.6667,566.083 88,553 88,539C88,515.667 95.5,494.5 110.5,475.5L487,12C493.333,4 501.667,0 512,0C522.333,0 530.667,4 537,12L902,461C879,452.333 855.667,448 832,448C824.667,448 817.333,448.5 810,449.5L512,82.5L160,516C157.333,519 155.25,522.583 153.75,526.75C152.25,530.917 151.5,535 151.5,539C151.5,549 155.167,557.667 162.5,565C169.833,572.333 178.5,576 188.5,576L288,576C296.667,576 304.167,579.167 310.5,585.5C316.833,591.833 320,599.333 320,608L320,800C320,808.667 323.167,816.167 329.5,822.5C335.833,828.833 343.333,832 352,832ZM1024,736L1024,992C1024,1000.67 1020.83,1008.17 1014.5,1014.5C1008.17,1020.83 1000.67,1024 992,1024L672,1024C663,1024 655.417,1020.92 649.25,1014.75C643.083,1008.58 640,1001 640,992L640,736C640,728.667 641.333,722.917 644,718.75C646.667,714.583 650.25,711.417 654.75,709.25C659.25,707.083 664.25,705.667 669.75,705C675.25,704.333 680.833,704 686.5,704L704,704C704,696.333 703.833,688.5 703.5,680.5C703.167,672.5 703,664.333 703,656C703,645 703.667,634 705,623C706.333,612 709.167,601.333 713.5,591C723.833,567 739.583,547.833 760.75,533.5C781.917,519.167 805.667,512 832,512C849.667,512 866.25,515.333 881.75,522C897.25,528.667 910.833,537.833 922.5,549.5C934.167,561.167 943.333,574.75 950,590.25C956.667,605.75 960,622.333 960,640L960,704L976,704C981.667,704 987.333,704.333 993,705C998.667,705.667 1003.83,707.083 1008.5,709.25C1013.17,711.417 1016.92,714.583 1019.75,718.75C1022.58,722.917 1024,728.667 1024,736ZM768,704L896,704L896,640C896,631 894.333,622.667 891,615C887.667,607.333 883.083,600.583 877.25,594.75C871.417,588.917 864.667,584.333 857,581C849.333,577.667 841,576 832,576C823,576 814.667,577.667 807,581C799.333,584.333 792.583,588.917 786.75,594.75C780.917,600.583 776.333,607.333 773,615C769.667,622.667 768,631 768,640ZM896,864C896,855.333 894.333,847.083 891,839.25C887.667,831.417 883.083,824.583 877.25,818.75C871.417,812.917 864.583,808.333 856.75,805C848.917,801.667 840.667,800 832,800C823,800 814.667,801.667 807,805C799.333,808.333 792.583,812.917 786.75,818.75C780.917,824.583 776.333,831.333 773,839C769.667,846.667 768,855 768,864C768,873 769.667,881.417 773,889.25C776.333,897.083 780.833,903.833 786.5,909.5C792.167,915.167 798.917,919.667 806.75,923C814.583,926.333 823,928 832,928C840.667,928 848.917,926.333 856.75,923C864.583,919.667 871.417,915.083 877.25,909.25C883.083,903.417 887.667,896.583 891,888.75C894.333,880.917 896,872.667 896,864ZM288,960L576,960L576,1024L288,1024C279.333,1024 271.833,1020.83 265.5,1014.5C259.167,1008.17 256,1000.67 256,992C256,983.333 259.167,975.833 265.5,969.5C271.833,963.167 279.333,960 288,960Z" fill="#FFFFFF" fill-opacity="1">
  </path>
</svg>