<!-- Exported by Character Map UWP -->
<svg height="100%" viewBox="64 128 896 768" width="100%" xmlns="http://www.w3.org/2000/svg" xmlns:xlink="http://www.w3.org/1999/xlink">
  <path d="M960,160L960,483.5C960,505.167 955.667,525.5 947,544.5C938.333,563.5 926.667,580.083 912,594.25C897.333,608.417 880.333,619.583 861,627.75C841.667,635.917 821.333,640 800,640L173.5,640L374.5,841.5C380.833,847.833 384,855.333 384,864C384,872.667 380.833,880.167 374.5,886.5C368.167,892.833 360.667,896 352,896C343.333,896 335.833,892.833 329.5,886.5L73.5,630.5C67.1667,624.167 64,616.667 64,608C64,599.333 67.1667,591.833 73.5,585.5L329.5,329.5C335.833,323.167 343.333,320 352,320C360.667,320 368.167,323.167 374.5,329.5C380.833,335.833 384,343.333 384,352C384,360.667 380.833,368.167 374.5,374.5L173.5,576L800,576C813,576 825.333,573.5 837,568.5C848.667,563.5 858.917,556.583 867.75,547.75C876.583,538.917 883.5,528.667 888.5,517C893.5,505.333 896,493 896,480L896,160C896,151.333 899.167,143.833 905.5,137.5C911.833,131.167 919.333,128 928,128C936.667,128 944.167,131.167 950.5,137.5C956.833,143.833 960,151.333 960,160Z" fill="#FFFFFF" fill-opacity="1">
  </path>
</svg>