<!-- Exported by Character Map UWP -->
<svg height="100%" viewBox="0 103 1024 922" width="100%" xmlns="http://www.w3.org/2000/svg" xmlns:xlink="http://www.w3.org/1999/xlink">
  <path d="M102.5,768C88.5,768 75.25,765.333 62.75,760C50.25,754.667 39.3333,747.333 30,738C20.6667,728.667 13.3333,717.75 8,705.25C2.66667,692.75 0,679.5 0,665.5L0,205C0,191 2.66667,177.75 8,165.25C13.3333,152.75 20.6667,141.833 30,132.5C39.3333,123.167 50.25,115.833 62.75,110.5C75.25,105.167 88.5,102.5 102.5,102.5L921.5,102.5C935.5,102.5 948.75,105.167 961.25,110.5C973.75,115.833 984.667,123.167 994,132.5C1003.33,141.833 1010.67,152.75 1016,165.25C1021.33,177.75 1024,191 1024,205L1024,565C1009.33,542 992.333,521 973,502L973,205C973,198 971.667,191.333 969,185C966.333,178.667 962.667,173.167 958,168.5C953.333,163.833 947.833,160.167 941.5,157.5C935.167,154.833 928.5,153.5 921.5,153.5L102.5,153.5C95.5,153.5 88.8333,154.833 82.5,157.5C76.1667,160.167 70.6667,163.833 66,168.5C61.3333,173.167 57.6667,178.667 55,185C52.3333,191.333 51,198 51,205L51,665.5C51,672.5 52.3333,679.167 55,685.5C57.6667,691.833 61.3333,697.333 66,702C70.6667,706.667 76.1667,710.333 82.5,713C88.8333,715.667 95.5,717 102.5,717L410.5,717C410.167,721.333 409.917,725.583 409.75,729.75C409.583,733.917 409.5,738.167 409.5,742.5C409.5,746.833 409.583,751.083 409.75,755.25C409.917,759.417 410.167,763.667 410.5,768ZM179,320C179,309.333 182.75,300.25 190.25,292.75C197.75,285.25 206.833,281.5 217.5,281.5C228.167,281.5 237.25,285.25 244.75,292.75C252.25,300.25 256,309.333 256,320C256,330.667 252.25,339.75 244.75,347.25C237.25,354.75 228.167,358.5 217.5,358.5C207.167,358.5 198.167,354.667 190.5,347C182.833,339.333 179,330.333 179,320ZM333,320C333,309.333 336.667,300.25 344,292.75C351.333,285.25 360.333,281.5 371,281.5C381.667,281.5 390.75,285.25 398.25,292.75C405.75,300.25 409.5,309.333 409.5,320C409.5,330.667 405.75,339.75 398.25,347.25C390.75,354.75 381.667,358.5 371,358.5C360.333,358.5 351.333,354.75 344,347.25C336.667,339.75 333,330.667 333,320ZM486.5,320C486.5,309.333 490.25,300.25 497.75,292.75C505.25,285.25 514.333,281.5 525,281.5C535.667,281.5 544.667,285.25 552,292.75C559.333,300.25 563,309.333 563,320C563,330.667 559.333,339.75 552,347.25C544.667,354.75 535.667,358.5 525,358.5C514.333,358.5 505.25,354.75 497.75,347.25C490.25,339.75 486.5,330.667 486.5,320ZM640,320C640,309.333 643.75,300.25 651.25,292.75C658.75,285.25 667.833,281.5 678.5,281.5C689.167,281.5 698.25,285.25 705.75,292.75C713.25,300.25 717,309.333 717,320C717,330.667 713.25,339.75 705.75,347.25C698.25,354.75 689.167,358.5 678.5,358.5C667.833,358.5 658.75,354.75 651.25,347.25C643.75,339.75 640,330.667 640,320ZM793.5,320C793.5,309.333 797.25,300.25 804.75,292.75C812.25,285.25 821.333,281.5 832,281.5C842.667,281.5 851.75,285.25 859.25,292.75C866.75,300.25 870.5,309.333 870.5,320C870.5,330.667 866.75,339.75 859.25,347.25C851.75,354.75 842.667,358.5 832,358.5C821.667,358.5 812.667,354.667 805,347C797.333,339.333 793.5,330.333 793.5,320ZM281.5,473.5C281.5,462.833 285.25,453.75 292.75,446.25C300.25,438.75 309.333,435 320,435C330.667,435 339.75,438.75 347.25,446.25C354.75,453.75 358.5,462.833 358.5,473.5C358.5,484.167 354.75,493.25 347.25,500.75C339.75,508.25 330.667,512 320,512C309.333,512 300.25,508.25 292.75,500.75C285.25,493.25 281.5,484.167 281.5,473.5ZM435,473.5C435,462.833 438.75,453.75 446.25,446.25C453.75,438.75 462.833,435 473.5,435C484.167,435 493.25,438.75 500.75,446.25C508.25,453.75 512,462.833 512,473.5C512,484.167 508.25,493.25 500.75,500.75C493.25,508.25 484.167,512 473.5,512C462.833,512 453.75,508.25 446.25,500.75C438.75,493.25 435,484.167 435,473.5ZM698.5,1020.5L689.5,983.5C686.5,971.833 681.917,961.25 675.75,951.75C669.583,942.25 662.083,934.083 653.25,927.25C644.417,920.417 634.667,915.083 624,911.25C613.333,907.417 602,905.5 590,905.5C579.333,905.5 569.167,906.917 559.5,909.75C549.833,912.583 540,915.5 530,918.5C510.667,893.833 496.167,867 486.5,838C494.167,830.667 501.333,823.75 508,817.25C514.667,810.75 520.417,803.833 525.25,796.5C530.083,789.167 533.833,781.25 536.5,772.75C539.167,764.25 540.5,754.167 540.5,742.5C540.5,730.833 539.167,720.667 536.5,712C533.833,703.333 530.083,695.417 525.25,688.25C520.417,681.083 514.75,674.25 508.25,667.75C501.75,661.25 494.5,654.167 486.5,646.5C496.167,617.5 510.667,590.667 530,566C540,569 549.833,572 559.5,575C569.167,578 579.333,579.5 590,579.5C602,579.5 613.417,577.583 624.25,573.75C635.083,569.917 644.833,564.5 653.5,557.5C662.167,550.5 669.583,542.25 675.75,532.75C681.917,523.25 686.5,512.667 689.5,501L698.5,464.5C705.833,462.833 713.167,461.833 720.5,461.5C727.833,461.167 735.167,461 742.5,461C749.833,461 757.167,461.25 764.5,461.75C771.833,462.25 779.167,463.167 786.5,464.5L795.5,501C798.5,512.667 803,523.333 809,533C815,542.667 822.333,550.917 831,557.75C839.667,564.583 849.417,569.917 860.25,573.75C871.083,577.583 882.667,579.5 895,579.5C905.667,579.5 915.75,578.083 925.25,575.25C934.75,572.417 944.5,569.333 954.5,566C973.833,590.333 988.5,617.167 998.5,646.5C990.833,653.833 983.667,660.833 977,667.5C970.333,674.167 964.583,681.083 959.75,688.25C954.917,695.417 951.083,703.417 948.25,712.25C945.417,721.083 944,731.167 944,742.5C944,753.833 945.417,763.833 948.25,772.5C951.083,781.167 954.917,789.083 959.75,796.25C964.583,803.417 970.333,810.333 977,817C983.667,823.667 990.833,830.667 998.5,838C988.5,867.333 973.833,894.167 954.5,918.5C944.833,915.5 935.083,912.583 925.25,909.75C915.417,906.917 905.333,905.5 895,905.5C883,905.5 871.583,907.333 860.75,911C849.917,914.667 840.167,919.917 831.5,926.75C822.833,933.583 815.417,941.833 809.25,951.5C803.083,961.167 798.5,971.833 795.5,983.5L786.5,1020.5C779.167,1021.5 771.833,1022.33 764.5,1023C757.167,1023.67 749.833,1024 742.5,1024C735.167,1024 727.833,1023.67 720.5,1023C713.167,1022.33 705.833,1021.5 698.5,1020.5ZM230.5,665.5C223.5,665.5 217.5,663 212.5,658C207.5,653 205,647 205,640C205,633 207.5,627 212.5,622C217.5,617 223.5,614.5 230.5,614.5L435,614.5C431.667,622.833 428.583,631.25 425.75,639.75C422.917,648.25 420.5,656.833 418.5,665.5ZM816.5,742.5C816.5,732.167 814.583,722.333 810.75,713C806.917,703.667 801.75,695.5 795.25,688.5C788.75,681.5 780.917,675.917 771.75,671.75C762.583,667.583 752.833,665.5 742.5,665.5C731.833,665.5 722,667.583 713,671.75C704,675.917 696.167,681.5 689.5,688.5C682.833,695.5 677.583,703.667 673.75,713C669.917,722.333 668,732.167 668,742.5C668,752.833 669.917,762.583 673.75,771.75C677.583,780.917 682.917,789 689.75,796C696.583,803 704.5,808.583 713.5,812.75C722.5,816.917 732.167,819 742.5,819C752.833,819 762.5,816.917 771.5,812.75C780.5,808.583 788.333,803 795,796C801.667,789 806.917,780.917 810.75,771.75C814.583,762.583 816.5,752.833 816.5,742.5Z" fill="#FFFFFF" fill-opacity="1">
  </path>
</svg>