<!-- Exported by Character Map UWP -->
<svg height="100%" viewBox="88 1 849 1024" width="100%" xmlns="http://www.w3.org/2000/svg" xmlns:xlink="http://www.w3.org/1999/xlink">
  <path d="M352,896C339,896 326.667,893.5 315,888.5C303.333,883.5 293.083,876.583 284.25,867.75C275.417,858.917 268.5,848.667 263.5,837C258.5,825.333 256,813 256,800L256,640L188.5,640C174.833,640 161.833,637.333 149.5,632C137.167,626.667 126.417,619.417 117.25,610.25C108.083,601.083 100.833,590.417 95.5,578.25C90.1667,566.083 87.5,553.167 87.5,539.5C87.5,515.5 95.1667,494.167 110.5,475.5L487,12C490,8.33337 493.75,5.5 498.25,3.5C502.75,1.5 507.333,0.5 512,0.5C516.667,0.5 521.25,1.5 525.75,3.5C530.25,5.5 534,8.33337 537,12L913.5,475.5C928.833,494.167 936.5,515.5 936.5,539.5C936.5,553.5 933.833,566.583 928.5,578.75C923.167,590.917 915.917,601.5 906.75,610.5C897.583,619.5 886.917,626.667 874.75,632C862.583,637.333 849.5,640 835.5,640L768,640L768,800C768,813 765.5,825.333 760.5,837C755.5,848.667 748.583,858.917 739.75,867.75C730.917,876.583 720.667,883.5 709,888.5C697.333,893.5 685,896 672,896ZM672,832C680.667,832 688.167,828.833 694.5,822.5C700.833,816.167 704,808.667 704,800L704,608C704,599.333 707.167,591.833 713.5,585.5C719.833,579.167 727.333,576 736,576L835.5,576C845.5,576 854.167,572.333 861.5,565C868.833,557.667 872.5,549 872.5,539C872.5,534.667 871.75,530.583 870.25,526.75C868.75,522.917 866.667,519.333 864,516L512,82.5L160,516C157.333,519.333 155.25,522.917 153.75,526.75C152.25,530.583 151.5,534.667 151.5,539C151.5,549 155.167,557.667 162.5,565C169.833,572.333 178.5,576 188.5,576L288,576C296.667,576 304.167,579.167 310.5,585.5C316.833,591.833 320,599.333 320,608L320,800C320,808.667 323.167,816.167 329.5,822.5C335.833,828.833 343.333,832 352,832ZM288,1024C279.333,1024 271.833,1020.83 265.5,1014.5C259.167,1008.17 256,1000.67 256,992C256,983.333 259.167,975.833 265.5,969.5C271.833,963.167 279.333,960 288,960L736,960C744.667,960 752.167,963.167 758.5,969.5C764.833,975.833 768,983.333 768,992C768,1000.67 764.833,1008.17 758.5,1014.5C752.167,1020.83 744.667,1024 736,1024Z" fill="#FFFFFF" fill-opacity="1">
  </path>
</svg>