<!-- Exported by Character Map UWP -->
<svg height="100%" viewBox="0 0 1024 1024" width="100%" xmlns="http://www.w3.org/2000/svg" xmlns:xlink="http://www.w3.org/1999/xlink">
  <path d="M0,992C0,983.333 1.41667,974.333 4.25,965C7.08333,955.667 9.5,946.833 11.5,938.5C17.1667,914.833 23.1667,891.333 29.5,868L41.5,821C47.8333,797.667 53.8333,774.167 59.5,750.5C39.8333,713.833 25,675.5 15,635.5C5,595.5 0,554.667 0,513C0,466 6.08333,420.583 18.25,376.75C30.4167,332.917 47.5833,292 69.75,254C91.9167,216 118.583,181.417 149.75,150.25C180.917,119.083 215.5,92.3334 253.5,70C291.5,47.6667 332.333,30.4167 376,18.25C419.667,6.08337 465,0 512,0C559,0 604.25,6.08337 647.75,18.25C691.25,30.4167 732,47.6667 770,70C808,92.3334 842.583,119 873.75,150C904.917,181 931.667,215.5 954,253.5C976.333,291.5 993.583,332.25 1005.75,375.75C1017.92,419.25 1024,464.5 1024,511.5C1024,558.167 1017.92,603.25 1005.75,646.75C993.583,690.25 976.5,731 954.5,769C932.5,807 906,841.667 875,873C844,904.333 809.583,931.167 771.75,953.5C733.917,975.833 693.333,993.167 650,1005.5C606.667,1017.83 561.5,1024 514.5,1024C473.167,1024 432.5,1019.25 392.5,1009.75C352.5,1000.25 314.167,986 277.5,967L39.5,1023C36.1667,1023.67 33.6667,1024 32,1024C23,1024 15.4167,1020.92 9.25,1014.75C3.08333,1008.58 0,1001 0,992ZM510,960C551.333,960 591.167,954.667 629.5,944C667.833,933.333 703.667,918.333 737,899C770.333,879.667 800.75,856.417 828.25,829.25C855.75,802.083 879.25,771.833 898.75,738.5C918.25,705.167 933.333,669.333 944,631C954.667,592.667 960,552.833 960,511.5C960,470.167 954.667,430.417 944,392.25C933.333,354.083 918.25,318.5 898.75,285.5C879.25,252.5 855.833,222.333 828.5,195C801.167,167.667 770.833,144.333 737.5,125C704.167,105.667 668.417,90.6667 630.25,80C592.083,69.3334 552.5,64.0001 511.5,64C470.5,64.0001 430.917,69.3334 392.75,80C354.583,90.6667 318.917,105.667 285.75,125C252.583,144.333 222.417,167.583 195.25,194.75C168.083,221.917 144.75,252 125.25,285C105.75,318 90.6667,353.583 80,391.75C69.3333,429.917 64,469.5 64,510.5C64,532.167 65.3333,552.167 68,570.5C70.6667,588.833 74.5,606.75 79.5,624.25C84.5,641.75 90.5,659.167 97.5,676.5C104.5,693.833 112.5,712 121.5,731C124.167,736.333 125.5,741.5 125.5,746.5C125.5,750.167 124.5,757 122.5,767C120.5,777 117.833,788.5 114.5,801.5C111.167,814.5 107.583,828.5 103.75,843.5C99.9167,858.5 96.1667,872.833 92.5,886.5C88.8333,900.167 85.5,912.583 82.5,923.75C79.5,934.917 77.3333,943.167 76,948.5C98.6667,943.167 121.083,937.833 143.25,932.5C165.417,927.167 187.833,921.667 210.5,916C221.833,913.333 233.667,910.167 246,906.5C258.333,902.833 270.333,901 282,901C284.667,901 287.167,901.417 289.5,902.25C291.833,903.083 294.333,904 297,905C315,913.333 332.417,920.917 349.25,927.75C366.083,934.583 383,940.333 400,945C417,949.667 434.5,953.333 452.5,956C470.5,958.667 489.667,960 510,960ZM352,448C343.333,448 335.833,444.833 329.5,438.5C323.167,432.167 320,424.667 320,416C320,407.333 323.167,399.833 329.5,393.5C335.833,387.167 343.333,384 352,384L672,384C680.667,384 688.167,387.167 694.5,393.5C700.833,399.833 704,407.333 704,416C704,424.667 700.833,432.167 694.5,438.5C688.167,444.833 680.667,448 672,448ZM352,640C343.333,640 335.833,636.833 329.5,630.5C323.167,624.167 320,616.667 320,608C320,599.333 323.167,591.833 329.5,585.5C335.833,579.167 343.333,576 352,576L544,576C552.667,576 560.167,579.167 566.5,585.5C572.833,591.833 576,599.333 576,608C576,616.667 572.833,624.167 566.5,630.5C560.167,636.833 552.667,640 544,640Z" fill="#FFFFFF" fill-opacity="1">
  </path>
</svg>