<!-- Exported by Character Map UWP -->
<svg height="100%" viewBox="0 0 1024 960" width="100%" xmlns="http://www.w3.org/2000/svg" xmlns:xlink="http://www.w3.org/1999/xlink">
  <path d="M32,960C22.6667,960 15,956.917 9,950.75C3,944.583 0,936.833 0,927.5C0,925.167 0.333333,922.333 1,919L95.5,590C97.1667,584.333 100.333,579.333 105,575C109.667,570.667 115,568 121,567L560,497.5C564.667,496.833 568.333,494.917 571,491.75C573.667,488.583 575,484.667 575,480C575,475.333 573.667,471.417 571,468.25C568.333,465.083 564.667,463.167 560,462.5L121,393C115,392 109.667,389.333 105,385C100.333,380.667 97.1667,375.667 95.5,370L1,41C0.333333,37.6667 0,34.8334 0,32.5C0,23.1667 3,15.4167 9,9.25C15,3.08337 22.6667,0 32,0C37,0 41.5,1 45.5,3L1005.5,451C1011.17,453.667 1015.67,457.583 1019,462.75C1022.33,467.917 1024,473.667 1024,480C1024,486.333 1022.33,492.083 1019,497.25C1015.67,502.417 1011.17,506.333 1005.5,509L45.5,957C41.5,959 37,960 32,960Z" fill="#FFFFFF" fill-opacity="1">
  </path>
</svg>