<!-- Exported by Character Map UWP -->
<svg height="100%" viewBox="0 0 1024 960" width="100%" xmlns="http://www.w3.org/2000/svg" xmlns:xlink="http://www.w3.org/1999/xlink">
  <path d="M1024,480C1024,486.333 1022.33,492.083 1019,497.25C1015.67,502.417 1011.17,506.333 1005.5,509L45.5,957C41.5,959 37,960 32,960C22.6667,960 15,956.917 9,950.75C3,944.583 0,936.833 0,927.5C0,925.833 0,924.333 0,923C0,921.667 0.333333,920.333 1,919L126.5,480L1,41C0.333333,39.6667 0,38.3334 0,37C0,35.6667 0,34.1667 0,32.5C0,23.1667 3,15.4167 9,9.25C15,3.08337 22.6667,0 32,0C37,0 41.5,1 45.5,3L1005.5,451C1017.83,456.667 1024,466.333 1024,480ZM82,869.5L916.5,480L82,90.5L184.5,448L608,448C616.667,448 624.167,451.167 630.5,457.5C636.833,463.833 640,471.333 640,480C640,488.667 636.833,496.167 630.5,502.5C624.167,508.833 616.667,512 608,512L184.5,512Z" fill="#FFFFFF" fill-opacity="1">
  </path>
</svg>