<!-- Exported by Character Map UWP -->
<svg height="100%" viewBox="0 0 1024 1024" width="100%" xmlns="http://www.w3.org/2000/svg" xmlns:xlink="http://www.w3.org/1999/xlink">
  <path d="M880.5,766C889.5,763.667 899.083,760.583 909.25,756.75C919.417,752.917 929.25,748.333 938.75,743C948.25,737.667 957.167,731.667 965.5,725C973.833,718.333 980.833,711.167 986.5,703.5C966.833,751.833 940.917,795.667 908.75,835C876.583,874.333 839.75,908 798.25,936C756.75,964 711.75,985.583 663.25,1000.75C614.75,1015.92 564.5,1023.5 512.5,1023.5C471.5,1023.5 431.167,1018.83 391.5,1009.5C351.833,1000.17 313.833,986 277.5,967L39.5,1023C36.1667,1023.67 33.6667,1024 32,1024C23,1024 15.4167,1020.92 9.25,1014.75C3.08333,1008.58 0,1001 0,992C0,989.333 1.33333,982.25 4,970.75C6.66667,959.25 10,945.333 14,929C18,912.667 22.4167,895.083 27.25,876.25C32.0833,857.417 36.6667,839.5 41,822.5C45.3333,805.5 49.1667,790.5 52.5,777.5C55.8333,764.5 58.1667,755.667 59.5,751C40.1667,714 25.5,675.25 15.5,634.75C5.5,594.25 0.5,553.167 0.5,511.5C0.5,464.5 6.58333,419.25 18.75,375.75C30.9167,332.25 48,291.583 70,253.75C92,215.917 118.583,181.417 149.75,150.25C180.917,119.083 215.417,92.3334 253.25,70C291.083,47.6667 331.833,30.4167 375.5,18.25C419.167,6.08337 464.667,0 512,0C521.667,0 531.417,0.25 541.25,0.75C551.083,1.25 560.833,2.16669 570.5,3.5C567.833,14.1667 564.667,24.6667 561,35C557.333,45.3334 553.167,55.5001 548.5,65.5C536.5,64.5001 524.333,64.0001 512,64C470.667,64.0001 430.917,69.3334 392.75,80C354.583,90.6667 318.917,105.75 285.75,125.25C252.583,144.75 222.417,168.167 195.25,195.5C168.083,222.833 144.833,253.167 125.5,286.5C106.167,319.833 91.1667,355.583 80.5,393.75C69.8333,431.917 64.5,471.5 64.5,512.5C64.5,552.5 69.3333,590.083 79,625.25C88.6667,660.417 102.667,695.667 121,731C122.333,733.667 123.417,736.333 124.25,739C125.083,741.667 125.5,744.5 125.5,747.5C125.5,749.833 124.417,755.833 122.25,765.5C120.083,775.167 117.333,786.75 114,800.25C110.667,813.75 107,828.333 103,844C99,859.667 95.1667,874.583 91.5,888.75C87.8333,902.917 84.5833,915.417 81.75,926.25C78.9167,937.083 77,944.667 76,949C80.3333,948 88.0833,946.083 99.25,943.25C110.417,940.417 123.167,937.25 137.5,933.75C151.833,930.25 166.917,926.583 182.75,922.75C198.583,918.917 213.333,915.417 227,912.25C240.667,909.083 252.5,906.5 262.5,904.5C272.5,902.5 278.833,901.5 281.5,901.5C287.167,901.5 292.333,902.667 297,905C315.333,914 333,921.833 350,928.5C367,935.167 384.083,940.833 401.25,945.5C418.417,950.167 436.083,953.667 454.25,956C472.417,958.333 491.833,959.5 512.5,959.5C549.5,959.5 585.5,955.167 620.5,946.5C655.5,937.833 688.75,925.167 720.25,908.5C751.75,891.833 781.083,871.583 808.25,847.75C835.417,823.917 859.5,796.667 880.5,766ZM448,224C448,218.333 449.667,213.167 453,208.5C456.333,203.833 460.667,200.5 466,198.5C477.333,193.833 488.917,189.917 500.75,186.75C512.583,183.583 524.333,180 536,176C553.667,170 568.333,162 580,152C591.667,142 601.417,130.75 609.25,118.25C617.083,105.75 623.583,92 628.75,77C633.917,62 639,46.5 644,30.5C644.333,29.5 644.667,28.5 645,27.5L646.5,21C646.833,20 647.167,19 647.5,18C649.5,12.3334 652.917,7.91669 657.75,4.75C662.583,1.58337 667.833,0 673.5,0C679.167,0 684.333,1.66669 689,5C693.667,8.33337 697,12.6667 699,18C703.333,29.6667 707.167,41.4167 710.5,53.25C713.833,65.0834 717.5,76.8334 721.5,88.5C728.833,109.167 740.167,127.083 755.5,142.25C770.833,157.417 788.833,168.667 809.5,176C820.833,180 832.333,183.667 844,187C855.667,190.333 867,194.167 878,198.5C883.667,200.833 888.083,204.167 891.25,208.5C894.417,212.833 896,218 896,224C896,230 894.417,235.25 891.25,239.75C888.083,244.25 883.667,247.5 878,249.5C866.667,253.833 855.25,257.667 843.75,261C832.25,264.333 820.833,268 809.5,272C765.167,287.333 735.333,317.167 720,361.5C716,372.833 712.333,384.333 709,396C705.667,407.667 701.833,419 697.5,430C695.167,435.667 691.833,440.083 687.5,443.25C683.167,446.417 678,448 672,448C663.333,448 656.667,444.583 652,437.75C647.333,430.917 643.25,422.167 639.75,411.5C636.25,400.833 632.583,388.833 628.75,375.5C624.917,362.167 619.333,349 612,336C604.667,323 594.917,310.833 582.75,299.5C570.583,288.167 554.5,279 534.5,272C523.167,268.333 511.667,264.833 500,261.5C488.333,258.167 477,254.167 466,249.5C454,244.833 448,236.333 448,224ZM865,384C873.667,384 879.667,388.333 883,397C886.333,405 889.167,413.25 891.5,421.75C893.833,430.25 896.5,438.667 899.5,447C904.5,461.333 911.083,472.75 919.25,481.25C927.417,489.75 936.083,496.583 945.25,501.75C954.417,506.917 963.667,510.917 973,513.75C982.333,516.583 990.75,519.167 998.25,521.5C1005.75,523.833 1011.92,526.667 1016.75,530C1021.58,533.333 1024,538 1024,544C1024,552.333 1019.67,558.333 1011,562C1003.33,565.333 995.25,568.167 986.75,570.5C978.25,572.833 970,575.333 962,578C948,582.667 936.667,589 928,597C919.333,605 912.417,613.667 907.25,623C902.083,632.333 898.083,641.833 895.25,651.5C892.417,661.167 889.667,669.833 887,677.5C884.333,685.167 881.333,691.5 878,696.5C874.667,701.5 870,704 864,704C857.667,704 852.833,701.583 849.5,696.75C846.167,691.917 843.333,685.75 841,678.25C838.667,670.75 836.167,662.25 833.5,652.75C830.833,643.25 826.917,633.833 821.75,624.5C816.583,615.167 809.583,606.417 800.75,598.25C791.917,590.083 780.333,583.5 766,578.5C758,575.833 749.833,573.25 741.5,570.75C733.167,568.25 725,565.5 717,562.5C713.333,560.833 710.25,558.417 707.75,555.25C705.25,552.083 704,548.333 704,544C704,535.667 708.333,529.667 717,526C725,522.667 733.25,519.833 741.75,517.5C750.25,515.167 758.667,512.667 767,510C781,505.333 792.25,499.083 800.75,491.25C809.25,483.417 816.167,474.5 821.5,464.5C826.833,454.5 831.25,443.75 834.75,432.25C838.25,420.75 842.167,409 846.5,397C848.167,393 850.667,389.833 854,387.5C857.333,385.167 861,384 865,384Z" fill="#FFFFFF" fill-opacity="1">
  </path>
</svg>