<!-- Exported by Character Map UWP -->
<svg height="100%" viewBox="0 0 1024 896" width="100%" xmlns="http://www.w3.org/2000/svg" xmlns:xlink="http://www.w3.org/1999/xlink">
  <path d="M224,448C215.333,448 208.667,444.583 204,437.75C199.333,430.917 195.25,422.167 191.75,411.5C188.25,400.833 184.583,388.833 180.75,375.5C176.917,362.167 171.333,349 164,336C156.667,323 146.917,310.833 134.75,299.5C122.583,288.167 106.5,279 86.5,272C75.1667,268.333 63.6667,264.833 52,261.5C40.3333,258.167 29,254.167 18,249.5C6,244.833 0,236.333 0,224C0,218.333 1.66667,213.167 5,208.5C8.33333,203.833 12.6667,200.5 18,198.5C29.3333,193.833 40.9167,189.917 52.75,186.75C64.5833,183.583 76.3333,180 88,176C105.667,170 120.333,162 132,152C143.667,142 153.417,130.75 161.25,118.25C169.083,105.75 175.583,92 180.75,77C185.917,62 191,46.5 196,30.5C196.333,29.5 196.667,28.5 197,27.5L198.5,21C198.833,20 199.167,19 199.5,18C201.5,12.3334 204.917,7.91669 209.75,4.75C214.583,1.58337 219.833,0 225.5,0C231.167,0 236.333,1.66669 241,5C245.667,8.33337 249,12.6667 251,18C255.333,29.6667 259.167,41.4167 262.5,53.25C265.833,65.0834 269.5,76.8334 273.5,88.5C280.833,109.167 292.167,127.083 307.5,142.25C322.833,157.417 340.833,168.667 361.5,176C372.833,180 384.333,183.667 396,187C407.667,190.333 419,194.167 430,198.5C435.667,200.833 440.083,204.167 443.25,208.5C446.417,212.833 448,218 448,224C448,230 446.417,235.25 443.25,239.75C440.083,244.25 435.667,247.5 430,249.5C418.667,253.833 407.25,257.667 395.75,261C384.25,264.333 372.833,268 361.5,272C317.167,287.333 287.333,317.167 272,361.5C268,372.833 264.333,384.333 261,396C257.667,407.667 253.833,419 249.5,430C247.167,435.667 243.833,440.083 239.5,443.25C235.167,446.417 230,448 224,448ZM512,160C512,151.333 515.167,143.833 521.5,137.5C527.833,131.167 535.333,128 544,128L928,128C941.333,128 953.833,130.5 965.5,135.5C977.167,140.5 987.333,147.333 996,156C1004.67,164.667 1011.5,174.833 1016.5,186.5C1021.5,198.167 1024,210.667 1024,224L1024,800C1024,813.333 1021.5,825.833 1016.5,837.5C1011.5,849.167 1004.67,859.333 996,868C987.333,876.667 977.167,883.5 965.5,888.5C953.833,893.5 941.333,896 928,896L96,896C82.6667,896 70.1667,893.5 58.5,888.5C46.8333,883.5 36.6667,876.667 28,868C19.3333,859.333 12.5,849.167 7.5,837.5C2.5,825.833 0,813.333 0,800L0,416C0,407.333 3.16667,399.833 9.5,393.5C15.8333,387.167 23.3333,384 32,384C40.6667,384 48.1667,387.167 54.5,393.5C60.8333,399.833 64,407.333 64,416L64,800C64,808.667 67.1667,816.167 73.5,822.5C79.8333,828.833 87.3333,832 96,832L928,832C936.667,832 944.167,828.833 950.5,822.5C956.833,816.167 960,808.667 960,800L960,224C960,215.333 956.833,207.833 950.5,201.5C944.167,195.167 936.667,192 928,192L544,192C535.333,192 527.833,188.833 521.5,182.5C515.167,176.167 512,168.667 512,160ZM672,463C668.333,463 665.167,461.333 662.5,458C659.833,454.667 657.667,450.667 656,446C654.333,441.333 652.917,436.583 651.75,431.75C650.583,426.917 649.5,423 648.5,420C645.167,410.333 640.75,402.583 635.25,396.75C629.75,390.917 623.75,386.167 617.25,382.5C610.75,378.833 604.167,375.917 597.5,373.75C590.833,371.583 584.833,369.583 579.5,367.75C574.167,365.917 569.75,363.917 566.25,361.75C562.75,359.583 561,356.333 561,352C561,345.667 564,341.5 570,339.5C575.667,337.167 581.417,335.25 587.25,333.75C593.083,332.25 598.833,330.5 604.5,328.5C613.833,325.167 621.5,320.75 627.5,315.25C633.5,309.75 638.417,303.75 642.25,297.25C646.083,290.75 649.083,284.167 651.25,277.5C653.417,270.833 655.417,264.833 657.25,259.5C659.083,254.167 661.083,249.75 663.25,246.25C665.417,242.75 668.5,241 672.5,241C678.833,241 683.167,244 685.5,250C687.167,254.333 688.5,258.667 689.5,263L692.5,272C693.833,276.333 695.167,280.667 696.5,285C699.833,294.667 704.333,302.417 710,308.25C715.667,314.083 721.667,318.833 728,322.5C734.333,326.167 740.75,329 747.25,331C753.75,333 759.667,334.833 765,336.5C770.333,338.167 774.667,340.167 778,342.5C781.333,344.833 783,348 783,352C783,355.667 781.333,358.833 778,361.5C774.667,364.167 770.667,366.333 766,368C761.333,369.667 756.583,371.083 751.75,372.25C746.917,373.417 743,374.5 740,375.5C730.333,378.833 722.5,383.333 716.5,389C710.5,394.667 705.667,400.75 702,407.25C698.333,413.75 695.5,420.25 693.5,426.75C691.5,433.25 689.583,439.25 687.75,444.75C685.917,450.25 683.833,454.667 681.5,458C679.167,461.333 676,463 672,463ZM416,704C409.667,704 404.833,701.583 401.5,696.75C398.167,691.917 395.333,685.75 393,678.25C390.667,670.75 388.167,662.25 385.5,652.75C382.833,643.25 378.917,633.833 373.75,624.5C368.583,615.167 361.583,606.417 352.75,598.25C343.917,590.083 332.333,583.5 318,578.5C310,575.833 301.833,573.25 293.5,570.75C285.167,568.25 277,565.5 269,562.5C265.333,560.833 262.25,558.417 259.75,555.25C257.25,552.083 256,548.333 256,544C256,535.667 260.333,529.667 269,526C277,522.667 285.25,519.833 293.75,517.5C302.25,515.167 310.667,512.667 319,510C333,505.333 344.25,499.083 352.75,491.25C361.25,483.417 368.167,474.5 373.5,464.5C378.833,454.5 383.25,443.75 386.75,432.25C390.25,420.75 394.167,409 398.5,397C400.167,393 402.667,389.833 406,387.5C409.333,385.167 413,384 417,384C425.667,384 431.667,388.333 435,397C438.333,405 441.167,413.25 443.5,421.75C445.833,430.25 448.5,438.667 451.5,447C456.5,461.333 463.083,472.75 471.25,481.25C479.417,489.75 488.083,496.583 497.25,501.75C506.417,506.917 515.667,510.917 525,513.75C534.333,516.583 542.75,519.167 550.25,521.5C557.75,523.833 563.917,526.667 568.75,530C573.583,533.333 576,538 576,544C576,552.333 571.667,558.333 563,562C555.333,565.333 547.25,568.167 538.75,570.5C530.25,572.833 522,575.333 514,578C500,582.667 488.667,589 480,597C471.333,605 464.417,613.667 459.25,623C454.083,632.333 450.083,641.833 447.25,651.5C444.417,661.167 441.667,669.833 439,677.5C436.333,685.167 433.333,691.5 430,696.5C426.667,701.5 422,704 416,704Z" fill="#FFFFFF" fill-opacity="1">
  </path>
</svg>