<!-- Exported by Character Map UWP -->
<svg height="100%" viewBox="0 0 960 960" width="100%" xmlns="http://www.w3.org/2000/svg" xmlns:xlink="http://www.w3.org/1999/xlink">
  <path d="M248,18L270.5,86.5C277.833,107.833 289.167,126.333 304.5,142C320.167,157.333 338.667,168.667 360,176L428.5,198.5L430,198.5C435.667,200.833 440,204.167 443,208.5C446.333,212.833 448,218 448,224C448,230 446.333,235.333 443,240C440,244.667 435.667,247.833 430,249.5L361.5,272C340.167,279 321.667,290.333 306,306C290.667,321.333 279.333,339.833 272,361.5L249.5,430C247.167,435.667 243.833,440 239.5,443C235.167,446.333 230,448 224,448C218,448 212.833,446.333 208.5,443C208.167,442.667 207.917,442.5 207.75,442.5C207.583,442.5 207.333,442.333 207,442C203,439 200.167,435 198.5,430L176,361.5C175,358.167 173.667,354.5 172,350.5C165,333.833 155,319 142,306C140.667,304.667 139.417,303.417 138.25,302.25C137.083,301.083 135.833,300 134.5,299C119.833,286.333 103.833,277.167 86.5,271.5L18,249.5C12.3333,247.167 8,243.833 5,239.5C1.66667,235.167 0,230 0,224C0,218 1.66667,212.667 5,208C8,203.333 12.3333,200.167 18,198.5L86.5,176C107.167,169 125.333,157.5 141,141.5C156.667,125.833 168,107.5 175,86.5L197,18C199.333,12.3334 202.667,8 207,5C211.333,1.66669 216.5,0 222.5,0C228.5,0 233.833,1.66669 238.5,5C243.167,8 246.333,12.3334 248,18ZM562,525.5L513,509.5C505.333,507.167 498.25,504 491.75,500C485.25,496 479.167,491.167 473.5,485.5C462.5,474.5 454.333,461.333 449,446L433.5,397C432.167,393.333 429.667,390.167 426,387.5C423.333,385.167 419.667,384 415,384C410.333,384 406.667,385.167 404,387.5C400.333,390.167 398,393.333 397,397L381,446C375.667,461.333 367.667,474.333 357,485C345.667,496.333 332.667,504.5 318,509.5L269,525.5C265.333,526.833 262.167,529.167 259.5,532.5C257.167,535.833 256,539.667 256,544C256,548.667 257.167,552.333 259.5,555C262.167,558.667 265.333,561 269,562L318,578C333,583 346.167,591.167 357.5,602.5C368.833,613.833 377,627 382,642L398,691C399,694.667 401.333,697.833 405,700.5C407.667,702.833 411.333,704 416,704C420.667,704 424.333,702.833 427,700.5C430.667,697.833 433,694.667 434,691L450,642C455.333,626.667 463.5,613.5 474.5,602.5C486.167,590.833 499.333,582.833 514,578.5L563,562.5C566.667,561.167 569.833,558.833 572.5,555.5C574.833,552.167 576,548.333 576,544C576,539.333 574.833,535.667 572.5,533C569.833,529.333 566.667,527 563,526ZM337.5,713.5C339.5,717.833 341.5,721.833 343.5,725.5L323,746.5C318.333,751.167 315,756.5 313,762.5L274.5,877.5L389.5,839C395.5,837 400.833,833.667 405.5,829L808.5,426.5C809.167,425.833 809.5,425.5 809.5,425.5C809.5,424.833 809.833,424.5 810.5,424.5L879,356C884.667,350.333 889,343.833 892,336.5C895,329.167 896.5,321.75 896.5,314.25C896.5,306.75 895,299.417 892,292.25C889,285.083 884.667,278.667 879,273C873.333,267.333 866.917,263.083 859.75,260.25C852.583,257.417 845.25,256 837.75,256C830.25,256 822.833,257.417 815.5,260.25C808.167,263.083 801.667,267.333 796,273L596.5,472.5C594.167,471.167 591.75,470 589.25,469C586.75,468 584.167,467 581.5,466L533,450C532.333,449.667 531.833,449.5 531.5,449.5C531.167,449.5 530.667,449.333 530,449L751,228C763,216 776.5,207 791.5,201C806.5,195 821.833,192 837.5,192C853.167,192 868.5,195 883.5,201C898.5,207 912,216 924,228C936,240 945,253.5 951,268.5C957,283.5 960,298.833 960,314.5C960,330.167 957,345.5 951,360.5C945,375.5 936,389 924,401L877.5,448L894,465C905,476 913.25,488.333 918.75,502C924.25,515.667 927,529.667 927,544C927,558.333 924.25,572.333 918.75,586C913.25,599.667 905,612 894,623L822.5,694.5C816.167,700.833 808.667,704 800,704C791.333,704 783.833,700.833 777.5,694.5C771.167,688.167 768,680.667 768,672C768,663.333 771.167,655.833 777.5,649.5L849,578C858.333,568.333 863,557 863,544C863,531 858.333,519.667 849,510L832,493.5L451,874.5C445.333,880.167 438.917,885.167 431.75,889.5C424.583,893.833 417.167,897.333 409.5,900L234,958.5C228.333,960.167 222.583,960.333 216.75,959C210.917,957.667 205.833,954.833 201.5,950.5C197.167,946.167 194.333,941.083 193,935.25C191.667,929.417 191.833,923.667 193.5,918L252,742.5C254.667,734.833 258.167,727.417 262.5,720.25C266.833,713.083 271.833,706.667 277.5,701L319.5,659L321,662Z" fill="#FFFFFF" fill-opacity="1">
  </path>
</svg>