<!-- Exported by Character Map UWP -->
<svg height="100%" viewBox="0 0 1024 1024" width="100%" xmlns="http://www.w3.org/2000/svg" xmlns:xlink="http://www.w3.org/1999/xlink">
  <path d="M695.5,18L718,86.5L718.5,89C721.833,99.3334 726.417,109.167 732.25,118.5C738.083,127.833 744.833,136.333 752.5,144C768.167,159.667 786.667,171 808,178L878,200.5C880.667,201.167 883.083,202.333 885.25,204C887.417,205.667 889.333,207.667 891,210C894.333,215 896,220.167 896,225.5C896,230.5 894.333,235.5 891,240.5C887.333,245.5 883,248.667 878,250L809,272.5C798.667,275.833 788.833,280.417 779.5,286.25C770.167,292.083 761.667,298.833 754,306.5C738.333,322.167 727,340.5 720,361.5L697.5,430C696.833,432.667 695.583,435.083 693.75,437.25C691.917,439.417 689.833,441.333 687.5,443C683.167,446.333 678.167,448 672.5,448C667.167,448 662,446.333 657,443L655.5,441.5C651.833,438.167 649.167,434.167 647.5,429.5L625,361C624.333,359 623.667,357.083 623,355.25C622.333,353.417 621.667,351.667 621,350C613.667,333 603.5,318.167 590.5,305.5C589.833,304.833 589.25,304.25 588.75,303.75C588.25,303.25 587.667,302.667 587,302L583,298C576,292 568.5,286.667 560.5,282C552.5,277.333 544,273.5 535,270.5L466,248.5C463.333,247.833 460.917,246.583 458.75,244.75C456.583,242.917 454.667,240.833 453,238.5C449.667,233.5 448,228.5 448,223.5C448,218.167 449.667,213 453,208C456.333,204 460.667,200.833 466,198.5L535,176C555.333,169 573.5,157.5 589.5,141.5C596.833,133.833 603.333,125.333 609,116C614.667,106.667 619.333,96.8334 623,86.5L645.5,18C646.167,15.3334 647.333,12.9167 649,10.75C650.667,8.58337 652.667,6.66669 655,5C660,1.66669 665.167,0 670.5,0C675.833,0 681,1.66669 686,5C690,8.33337 693.167,12.6667 695.5,18ZM960.5,510.5L1010.5,525.5C1014.17,526.833 1017.33,529.333 1020,533C1022.67,536.333 1024,539.833 1024,543.5C1024,547.5 1022.67,551.167 1020,554.5C1017.33,558.167 1014.17,560.5 1010.5,561.5L961.5,577.5C946.167,583.167 933,591.333 922,602C911,613 903,626.333 898,642L882,690.5C880.667,694.167 878.333,697.333 875,700C871.333,702.667 867.667,704 864,704C860.333,704 856.667,702.667 853,700C849.667,697.333 847.333,694.167 846,690.5L830,642C827.333,634.333 824.083,627.167 820.25,620.5C816.417,613.833 811.667,607.667 806,602C800.333,596.333 794.167,591.417 787.5,587.25C780.833,583.083 773.833,579.833 766.5,577.5L717.5,561.5C713.833,560.5 710.667,558.167 708,554.5C705.333,551.167 704,547.5 704,543.5C704,539.833 705.333,536.333 708,533C710.667,529.333 713.833,526.833 717.5,525.5L766.5,509.5C780.833,504.5 793.833,496.5 805.5,485.5C810.833,479.833 815.5,473.75 819.5,467.25C823.5,460.75 826.667,453.667 829,446L845,397.5C846,393.833 848.333,390.667 852,388C855.333,385.333 858.833,384 862.5,384C866.5,384 870.167,385.333 873.5,388C877.167,390.667 879.5,393.833 880.5,397.5L896.5,446C899.167,453.667 902.5,460.833 906.5,467.5C910.5,474.167 915.167,480.333 920.5,486C931.167,496.667 944.5,504.833 960.5,510.5ZM384,64C412.333,64.0001 439.583,66.9167 465.75,72.75C491.917,78.5834 517,86.8334 541,97.5C532.333,106.167 523.167,112 513.5,115L451.5,135C429.167,130.333 406.667,128 384,128C354.667,128 326.333,131.833 299,139.5C271.667,147.167 246.167,157.917 222.5,171.75C198.833,185.583 177.25,202.25 157.75,221.75C138.25,241.25 121.583,262.833 107.75,286.5C93.9167,310.167 83.1667,335.667 75.5,363C67.8333,390.333 64,418.667 64,448C64,477.333 67.8333,505.667 75.5,533C83.1667,560.333 93.9167,585.833 107.75,609.5C121.583,633.167 138.25,654.75 157.75,674.25C177.25,693.75 198.833,710.417 222.5,724.25C246.167,738.083 271.667,748.833 299,756.5C326.333,764.167 354.667,768 384,768C428.667,768 470.25,759.667 508.75,743C547.25,726.333 581.167,703.5 610.5,674.5C621.167,663.833 631,652.5 640,640.5C649,628.5 657.167,615.833 664.5,602.5C673.833,611.167 684.5,617.5 696.5,621.5L722.5,630C709.167,654 694,676 677,696L950.5,969.5C956.833,975.833 960,983.333 960,992C960,1000.67 956.833,1008.17 950.5,1014.5C944.167,1020.83 936.667,1024 928,1024C919.333,1024 911.833,1020.83 905.5,1014.5L632,741C598.333,769.667 560.5,792 518.5,808C476.5,824 431.667,832 384,832C348.667,832 314.667,827.417 282,818.25C249.333,809.083 218.75,796.167 190.25,779.5C161.75,762.833 135.833,742.833 112.5,719.5C89.1667,696.167 69.1667,670.25 52.5,641.75C35.8333,613.25 22.9167,582.667 13.75,550C4.58333,517.333 0,483.333 0,448C0,412.667 4.58333,378.667 13.75,346C22.9167,313.333 35.8333,282.75 52.5,254.25C69.1667,225.75 89.1667,199.833 112.5,176.5C135.833,153.167 161.75,133.167 190.25,116.5C218.75,99.8334 249.333,86.9167 282,77.75C314.667,68.5834 348.667,64.0001 384,64Z" fill="#FFFFFF" fill-opacity="1">
  </path>
</svg>