<!-- Exported by Character Map UWP -->
<svg height="100%" viewBox="64 64 896 896" width="100%" xmlns="http://www.w3.org/2000/svg" xmlns:xlink="http://www.w3.org/1999/xlink">
  <path d="M64,352L64,252C64,227 69.0833,203.083 79.25,180.25C89.4167,157.417 103.083,137.417 120.25,120.25C137.417,103.083 157.417,89.4167 180.25,79.25C203.083,69.0834 227,64.0001 252,64L352,64C360.667,64.0001 368.167,67.1667 374.5,73.5C380.833,79.8334 384,87.3334 384,96C384,104.667 380.833,112.167 374.5,118.5C368.167,124.833 360.667,128 352,128L253.5,128C236.167,128 219.917,131.5 204.75,138.5C189.583,145.5 176.333,154.833 165,166.5C153.667,178.167 144.667,191.75 138,207.25C131.333,222.75 128,239 128,256L128,352C128,360.667 124.833,368.167 118.5,374.5C112.167,380.833 104.667,384 96,384C87.3333,384 79.8333,380.833 73.5,374.5C67.1667,368.167 64,360.667 64,352ZM896,253.5C896,236.167 892.5,219.917 885.5,204.75C878.5,189.583 869.167,176.333 857.5,165C845.833,153.667 832.25,144.667 816.75,138C801.25,131.333 785,128 768,128L672,128C663.333,128 655.833,124.833 649.5,118.5C643.167,112.167 640,104.667 640,96C640,87.3334 643.167,79.8334 649.5,73.5C655.833,67.1667 663.333,64.0001 672,64L772,64C797,64.0001 820.917,69.0834 843.75,79.25C866.583,89.4167 886.583,103.083 903.75,120.25C920.917,137.417 934.583,157.417 944.75,180.25C954.917,203.083 960,227 960,252L960,352C960,360.667 956.833,368.167 950.5,374.5C944.167,380.833 936.667,384 928,384C919.333,384 911.833,380.833 905.5,374.5C899.167,368.167 896,360.667 896,352ZM240,288C240,274.667 244.667,263.333 254,254C263.333,244.667 274.667,240 288,240C301.333,240 312.667,244.667 322,254C331.333,263.333 336,274.667 336,288C336,301.333 331.333,312.667 322,322C312.667,331.333 301.333,336 288,336C274.667,336 263.333,331.333 254,322C244.667,312.667 240,301.333 240,288ZM384,512L384,509.5C384,492.167 387.5,475.917 394.5,460.75C401.5,445.583 410.833,432.333 422.5,421C434.167,409.667 447.75,400.667 463.25,394C478.75,387.333 495,384 512,384C529.333,384 545.833,387.417 561.5,394.25C577.167,401.083 590.75,410.25 602.25,421.75C613.75,433.25 622.917,446.833 629.75,462.5C636.583,478.167 640,494.667 640,512C640,529.667 636.583,546.25 629.75,561.75C622.917,577.25 613.75,590.75 602.25,602.25C590.75,613.75 577.167,622.917 561.5,629.75C545.833,636.583 529.333,640 512,640C494.333,640 477.75,636.583 462.25,629.75C446.75,622.917 433.25,613.75 421.75,602.25C410.25,590.75 401.083,577.25 394.25,561.75C387.417,546.25 384,529.667 384,512ZM576,512C576,503.333 574.333,495.083 571,487.25C567.667,479.417 563.083,472.583 557.25,466.75C551.417,460.917 544.583,456.333 536.75,453C528.917,449.667 520.667,448 512,448C503,448 494.667,449.667 487,453C479.333,456.333 472.583,460.917 466.75,466.75C460.917,472.583 456.333,479.333 453,487C449.667,494.667 448,503 448,512C448,521 449.667,529.417 453,537.25C456.333,545.083 460.833,551.833 466.5,557.5C472.167,563.167 478.917,567.667 486.75,571C494.583,574.333 503,576 512,576C521,576 529.333,574.333 537,571C544.667,567.667 551.417,563.083 557.25,557.25C563.083,551.417 567.667,544.667 571,537C574.333,529.333 576,521 576,512ZM252,960C227,960 203.083,954.917 180.25,944.75C157.417,934.583 137.417,920.917 120.25,903.75C103.083,886.583 89.4167,866.583 79.25,843.75C69.0833,820.917 64,797 64,772L64,672C64,663.333 67.1667,655.833 73.5,649.5C79.8333,643.167 87.3333,640 96,640C104.667,640 112.167,643.167 118.5,649.5C124.833,655.833 128,663.333 128,672L128,770.5C128,787.833 131.5,804.083 138.5,819.25C145.5,834.417 154.833,847.667 166.5,859C178.167,870.333 191.75,879.333 207.25,886C222.75,892.667 239,896 256,896L352,896C360.667,896 368.167,899.167 374.5,905.5C380.833,911.833 384,919.333 384,928C384,936.667 380.833,944.167 374.5,950.5C368.167,956.833 360.667,960 352,960ZM640,928C640,919.333 643.167,911.833 649.5,905.5C655.833,899.167 663.333,896 672,896L770.5,896C787.833,896 804.083,892.5 819.25,885.5C834.417,878.5 847.667,869.167 859,857.5C870.333,845.833 879.333,832.25 886,816.75C892.667,801.25 896,785 896,768L896,672C896,663.333 899.167,655.833 905.5,649.5C911.833,643.167 919.333,640 928,640C936.667,640 944.167,643.167 950.5,649.5C956.833,655.833 960,663.333 960,672L960,772C960,797 954.917,820.917 944.75,843.75C934.583,866.583 920.917,886.583 903.75,903.75C886.583,920.917 866.583,934.583 843.75,944.75C820.917,954.917 797,960 772,960L672,960C663.333,960 655.833,956.833 649.5,950.5C643.167,944.167 640,936.667 640,928Z" fill="#FFFFFF" fill-opacity="1">
  </path>
</svg>