<!-- Exported by Character Map UWP -->
<svg height="100%" viewBox="0 0 1024 1024" width="100%" xmlns="http://www.w3.org/2000/svg" xmlns:xlink="http://www.w3.org/1999/xlink">
  <path d="M512,1024C464.667,1024 419.167,1017.92 375.5,1005.75C331.833,993.583 291.083,976.417 253.25,954.25C215.417,932.083 180.917,905.417 149.75,874.25C118.583,843.083 91.9167,808.583 69.75,770.75C47.5833,732.917 30.4167,692.167 18.25,648.5C6.08333,604.833 0,559.333 0,512C0,464.667 6.08333,419.167 18.25,375.5C30.4167,331.833 47.5833,291.083 69.75,253.25C91.9167,215.417 118.583,180.917 149.75,149.75C180.917,118.583 215.417,91.9167 253.25,69.75C291.083,47.5834 331.833,30.4167 375.5,18.25C419.167,6.08337 464.667,0 512,0C559,0 604.333,6.08337 648,18.25C691.667,30.4167 732.417,47.6667 770.25,70C808.083,92.3334 842.583,119.083 873.75,150.25C904.917,181.417 931.667,215.917 954,253.75C976.333,291.583 993.583,332.333 1005.75,376C1017.92,419.667 1024,465 1024,512C1024,559.333 1017.92,604.833 1005.75,648.5C993.583,692.167 976.417,732.917 954.25,770.75C932.083,808.583 905.417,843.083 874.25,874.25C843.083,905.417 808.583,932.083 770.75,954.25C732.917,976.417 692.167,993.583 648.5,1005.75C604.833,1017.92 559.333,1024 512,1024ZM512,960C553,960 592.583,954.667 630.75,944C668.917,933.333 704.583,918.25 737.75,898.75C770.917,879.25 801.167,855.833 828.5,828.5C855.833,801.167 879.25,770.917 898.75,737.75C918.25,704.583 933.333,668.917 944,630.75C954.667,592.583 960,553 960,512C960,471 954.667,431.417 944,393.25C933.333,355.083 918.25,319.417 898.75,286.25C879.25,253.083 855.833,222.833 828.5,195.5C801.167,168.167 770.917,144.75 737.75,125.25C704.583,105.75 668.917,90.6667 630.75,80C592.583,69.3334 553,64.0001 512,64C471,64.0001 431.417,69.3334 393.25,80C355.083,90.6667 319.417,105.75 286.25,125.25C253.083,144.75 222.833,168.167 195.5,195.5C168.167,222.833 144.75,253.083 125.25,286.25C105.75,319.417 90.6667,355.083 80,393.25C69.3333,431.417 64,471 64,512C64,553 69.3333,592.583 80,630.75C90.6667,668.917 105.75,704.583 125.25,737.75C144.75,770.917 168.167,801.167 195.5,828.5C222.833,855.833 253.083,879.25 286.25,898.75C319.417,918.25 355.083,933.333 393.25,944C431.417,954.667 471,960 512,960ZM379,707L379,317L521,317C536,317 551.417,318.333 567.25,321C583.083,323.667 597.667,328.417 611,335.25C624.333,342.083 635.25,351.417 643.75,363.25C652.25,375.083 656.5,390.167 656.5,408.5C656.5,419.5 654.417,429.75 650.25,439.25C646.083,448.75 640.5,457.333 633.5,465C626.5,472.667 618.417,479.167 609.25,484.5C600.083,489.833 590.5,493.833 580.5,496.5L580.5,497.5C593.167,499.167 605,502.417 616,507.25C627,512.083 636.667,518.417 645,526.25C653.333,534.083 659.833,543.417 664.5,554.25C669.167,565.083 671.5,577.167 671.5,590.5C671.5,611.167 667.5,628.833 659.5,643.5C651.5,658.167 640.833,670.25 627.5,679.75C614.167,689.25 598.917,696.167 581.75,700.5C564.583,704.833 546.833,707 528.5,707ZM466.5,642.5L514.5,642.5C522.833,642.5 530.917,641.5 538.75,639.5C546.583,637.5 553.5,634.333 559.5,630C565.5,625.667 570.333,620.167 574,613.5C577.667,606.833 579.5,598.833 579.5,589.5C579.5,580.167 577.667,572.25 574,565.75C570.333,559.25 565.417,554.083 559.25,550.25C553.083,546.417 546.083,543.667 538.25,542C530.417,540.333 522.5,539.5 514.5,539.5L466.5,539.5ZM466.5,474L505,474C513,474 520.583,473.083 527.75,471.25C534.917,469.417 541.083,466.5 546.25,462.5C551.417,458.5 555.583,453.333 558.75,447C561.917,440.667 563.5,433.167 563.5,424.5C563.5,415.5 561.5,408.167 557.5,402.5C553.5,396.833 548.417,392.417 542.25,389.25C536.083,386.083 529.25,384 521.75,383C514.25,382 506.833,381.5 499.5,381.5L466.5,381.5Z" fill="#FFFFFF" fill-opacity="1">
  </path>
</svg>