<!-- Exported by Character Map UWP -->
<svg height="100%" viewBox="3 194 1018 639" width="100%" xmlns="http://www.w3.org/2000/svg" xmlns:xlink="http://www.w3.org/1999/xlink">
  <path d="M131,832C113.333,832 96.75,828.667 81.25,822C65.75,815.333 52.1667,806.25 40.5,794.75C28.8333,783.25 19.6667,769.75 13,754.25C6.33333,738.75 3,722.167 3,704.5C3,702.167 3,700 3,698C3,696 3.16667,694 3.5,692L25,457.5C26.3333,442.833 29.0833,428.417 33.25,414.25C37.4167,400.083 42.9167,386.75 49.75,374.25C56.5833,361.75 64.9167,350.167 74.75,339.5C84.5833,328.833 96,319.5 109,311.5C146,288.5 186.167,269.417 229.5,254.25C272.833,239.083 317.25,227 362.75,218C408.25,209 454.083,202.667 500.25,199C546.417,195.333 591,193.5 634,193.5C658,193.5 681.75,194 705.25,195C728.75,196 752.5,197.667 776.5,200C794.5,201.667 811.25,206.417 826.75,214.25C842.25,222.083 856.333,232.333 869,245C889.333,265.667 908.667,285 927,303C945.333,321 961.5,339.833 975.5,359.5C989.5,379.167 1000.58,400.583 1008.75,423.75C1016.92,446.917 1021,473.833 1021,504.5C1021,534.833 1015.83,564 1005.5,592L956.5,726.5C950.833,742.5 943,756.917 933,769.75C923,782.583 911.417,793.667 898.25,803C885.083,812.333 870.75,819.5 855.25,824.5C839.75,829.5 823.5,832 806.5,832ZM806.5,768C816.5,768 826.167,766.5 835.5,763.5C844.833,760.5 853.5,756.25 861.5,750.75C869.5,745.25 876.5,738.583 882.5,730.75C888.5,722.917 893.167,714.333 896.5,705L945.5,570C953.167,549 957,527.167 957,504.5C957,479.5 952.25,455.25 942.75,431.75C933.25,408.25 919.667,387.5 902,369.5L823.5,290C808.167,274.667 790.333,265.833 770,263.5C747,260.833 724.083,259.167 701.25,258.5C678.417,257.833 655.5,257.5 632.5,257.5C592.833,257.5 551.417,259.083 508.25,262.25C465.083,265.417 422.083,271.083 379.25,279.25C336.417,287.417 294.833,298.5 254.5,312.5C214.167,326.5 176.833,344.333 142.5,366C125.833,376.667 113.167,390.75 104.5,408.25C95.8333,425.75 90.6667,444.167 89,463.5L67,698L67,704C67,713 68.6667,721.333 72,729C75.3333,736.667 79.9167,743.417 85.75,749.25C91.5833,755.083 98.3333,759.667 106,763C113.667,766.333 122,768 131,768ZM288,704C279.333,704 271.833,700.833 265.5,694.5C259.167,688.167 256,680.667 256,672L256,416C256,407.333 259.167,399.833 265.5,393.5C271.833,387.167 279.333,384 288,384C296.667,384 304.167,387.167 310.5,393.5C316.833,399.833 320,407.333 320,416L320,640L416,640C424.667,640 432.167,643.167 438.5,649.5C444.833,655.833 448,663.333 448,672C448,680.667 444.833,688.167 438.5,694.5C432.167,700.833 424.667,704 416,704ZM544,704C535.333,704 527.833,700.833 521.5,694.5C515.167,688.167 512,680.667 512,672L512,416C512,407.333 515.167,399.833 521.5,393.5C527.833,387.167 535.333,384 544,384L608,384C615.667,384 623.583,384.417 631.75,385.25C639.917,386.083 647.917,387.583 655.75,389.75C663.583,391.917 671,395.083 678,399.25C685,403.417 691,408.667 696,415C703.333,424.667 709,434.917 713,445.75C717,456.583 719,468 719,480C719,489.667 717.667,499.25 715,508.75C712.333,518.25 708,527 702,535C713.667,544.667 722.25,555.833 727.75,568.5C733.25,581.167 736,595 736,610C736,628.333 732.75,643.5 726.25,655.5C719.75,667.5 711.083,677.083 700.25,684.25C689.417,691.417 676.833,696.5 662.5,699.5C648.167,702.5 633.167,704 617.5,704ZM608,512C613.333,512 618.75,511.583 624.25,510.75C629.75,509.917 634.75,508.25 639.25,505.75C643.75,503.25 647.5,500 650.5,496C653.5,492 655,486.667 655,480C655,472.333 653.833,466.333 651.5,462C649.167,457.667 645.917,454.5 641.75,452.5C637.583,450.5 632.583,449.25 626.75,448.75C620.917,448.25 614.667,448 608,448L576,448L576,512ZM608,640L623,640C628.667,640 634.417,639.75 640.25,639.25C646.083,638.75 651.333,637.5 656,635.5C660.667,633.5 664.5,630.5 667.5,626.5C670.5,622.5 672,617 672,610C672,601 669,593.083 663,586.25C657,579.417 649.333,576 640,576L576,576L576,640Z" fill="#FFFFFF" fill-opacity="1">
  </path>
</svg>