<!-- Exported by Character Map UWP -->
<svg height="100%" viewBox="63 0 962 1025" width="100%" xmlns="http://www.w3.org/2000/svg" xmlns:xlink="http://www.w3.org/1999/xlink">
  <path d="M62.5,907.5C62.5,891.167 64.5833,876 68.75,862C72.9167,848 78.8333,833.833 86.5,819.5C100.5,792.5 113.833,765.5 126.5,738.5C139.167,711.5 150.417,684 160.25,656C170.083,628 177.833,599.417 183.5,570.25C189.167,541.083 192,511 192,480C192,433.333 188.25,388 180.75,344C173.25,300 161.5,256.167 145.5,212.5C141.167,200.833 136.5,189.333 131.5,178C126.5,166.667 121.667,155.167 117,143.5C114,136.167 111.75,129.167 110.25,122.5C108.75,115.833 108,108.667 108,101C108,87.3334 110.5,74.4167 115.5,62.25C120.5,50.0834 127.417,39.3334 136.25,30C145.083,20.6667 155.5,13.3334 167.5,8C179.5,2.66669 192.5,0 206.5,0L791,0C815.667,0 839.5,3.33337 862.5,10C885.5,16.6667 906.417,26.5834 925.25,39.75C944.083,52.9167 960.083,69.2501 973.25,88.75C986.417,108.25 995.5,130.667 1000.5,156C1010.17,203.667 1016.5,252.083 1019.5,301.25C1022.5,350.417 1024,399.333 1024,448C1024,502 1018,553.833 1006,603.5C994,653.167 976,699.583 952,742.75C928,785.917 897.833,825.25 861.5,860.75C825.167,896.25 782.667,926.667 734,952C700,969.667 666.5,983.417 633.5,993.25C600.5,1003.08 567.25,1010.33 533.75,1015C500.25,1019.67 466.083,1022.5 431.25,1023.5C396.417,1024.5 360.333,1025 323,1025C293.667,1025 263.75,1024.42 233.25,1023.25C202.75,1022.08 173.333,1018.17 145,1011.5C118.333,1005.17 97.9167,993.083 83.75,975.25C69.5833,957.417 62.5,934.833 62.5,907.5ZM960,448C960,401.667 958.667,354.833 956,307.5C953.333,260.167 947.167,213.667 937.5,168C933.5,150 926.917,134.5 917.75,121.5C908.583,108.5 897.5,97.75 884.5,89.25C871.5,80.75 857,74.4167 841,70.25C825,66.0834 808.333,64.0001 791,64L206.5,64C196.167,64.0001 187.833,67.7501 181.5,75.25C175.167,82.7501 172,91.3334 172,101C172,104.333 172.25,107.083 172.75,109.25C173.25,111.417 174.167,114 175.5,117C188.5,147 200.083,176.583 210.25,205.75C220.417,234.917 228.833,264.417 235.5,294.25C242.167,324.083 247.25,354.333 250.75,385C254.25,415.667 256,447.333 256,480C256,544 245.5,606.167 224.5,666.5C213.5,698.833 201,729.917 187,759.75C173,789.583 158.333,819.667 143,850C138.333,859 134.417,868.167 131.25,877.5C128.083,886.833 126.5,896.667 126.5,907C126.5,910.667 126.833,914.417 127.5,918.25C128.167,922.083 129.333,925.833 131,929.5C133,933.167 134.75,936 136.25,938C137.75,940 139.5,941.667 141.5,943C143.5,944.333 145.833,945.333 148.5,946C151.167,946.667 154.333,947.5 158,948.5C169.333,951.5 181.583,953.833 194.75,955.5C207.917,957.167 221.417,958.417 235.25,959.25C249.083,960.083 262.833,960.583 276.5,960.75C290.167,960.917 303.167,961 315.5,961L326.5,961C341.5,961 356.417,960.917 371.25,960.75C386.083,960.583 401,960.333 416,960C466.333,959.667 515.083,954.75 562.25,945.25C609.417,935.75 655.5,919.333 700.5,896C743.833,873.667 781.75,846.75 814.25,815.25C846.75,783.75 873.75,748.833 895.25,710.5C916.75,672.167 932.917,630.833 943.75,586.5C954.583,542.167 960,496 960,448ZM416,640C407.333,640 399.833,636.833 393.5,630.5C387.167,624.167 384,616.667 384,608L384,352C384,343.333 387.167,335.833 393.5,329.5C399.833,323.167 407.333,320 416,320C424.667,320 432.167,323.167 438.5,329.5C444.833,335.833 448,343.333 448,352L448,576L544,576C552.667,576 560.167,579.167 566.5,585.5C572.833,591.833 576,599.333 576,608C576,616.667 572.833,624.167 566.5,630.5C560.167,636.833 552.667,640 544,640ZM672,384L608,384C599.333,384 591.833,380.833 585.5,374.5C579.167,368.167 576,360.667 576,352C576,343.333 579.167,335.833 585.5,329.5C591.833,323.167 599.333,320 608,320L800,320C808.667,320 816.167,323.167 822.5,329.5C828.833,335.833 832,343.333 832,352C832,360.667 828.833,368.167 822.5,374.5C816.167,380.833 808.667,384 800,384L736,384L736,608C736,616.667 732.833,624.167 726.5,630.5C720.167,636.833 712.667,640 704,640C695.333,640 687.833,636.833 681.5,630.5C675.167,624.167 672,616.667 672,608Z" fill="#FFFFFF" fill-opacity="1">
  </path>
</svg>