<!-- Exported by Character Map UWP -->
<svg height="100%" viewBox="3 194 1018 639" width="100%" xmlns="http://www.w3.org/2000/svg" xmlns:xlink="http://www.w3.org/1999/xlink">
  <path d="M217.5,832C200.5,832 184.25,829.5 168.75,824.5C153.25,819.5 138.917,812.333 125.75,803C112.583,793.667 101,782.583 91,769.75C81,756.917 73.1667,742.5 67.5,726.5L18.5,592C8.16667,564 3,534.833 3,504.5C3,473.833 7.08333,446.917 15.25,423.75C23.4167,400.583 34.5,379.167 48.5,359.5C62.5,339.833 78.6667,321 97,303C115.333,285 134.667,265.667 155,245C167.667,232.333 181.75,222.083 197.25,214.25C212.75,206.417 229.5,201.667 247.5,200C271.5,197.667 295.25,196 318.75,195C342.25,194 366,193.5 390,193.5C433,193.5 477.583,195.333 523.75,199C569.917,202.667 615.75,209 661.25,218C706.75,227 751.167,239.083 794.5,254.25C837.833,269.417 878,288.5 915,311.5C928,319.5 939.417,328.833 949.25,339.5C959.083,350.167 967.417,361.75 974.25,374.25C981.083,386.75 986.583,400.083 990.75,414.25C994.917,428.417 997.667,442.833 999,457.5L1020.5,692C1020.83,694 1021,696 1021,698C1021,700 1021,702.167 1021,704.5C1021,722.167 1017.67,738.75 1011,754.25C1004.33,769.75 995.167,783.25 983.5,794.75C971.833,806.25 958.25,815.333 942.75,822C927.25,828.667 910.667,832 893,832ZM893,768C902,768 910.333,766.333 918,763C925.667,759.667 932.417,755.083 938.25,749.25C944.083,743.417 948.667,736.667 952,729C955.333,721.333 957,713 957,704L957,698L935.5,463.5C933.833,444.167 928.583,425.75 919.75,408.25C910.917,390.75 898.167,376.667 881.5,366C847.5,344.667 810.25,327 769.75,313C729.25,299 687.667,287.833 645,279.5C602.333,271.167 559.333,265.417 516,262.25C472.667,259.083 431.333,257.5 392,257.5C369,257.5 346,257.833 323,258.5C300,259.167 277,260.833 254,263.5C233.667,265.833 215.833,274.667 200.5,290L122,369.5C104.333,387.5 90.75,408.333 81.25,432C71.75,455.667 67,480 67,505C67,527.333 70.8333,549 78.5,570C86.8333,592.667 95,615.167 103,637.5C111,659.833 119.167,682.333 127.5,705C130.833,714.333 135.583,722.917 141.75,730.75C147.917,738.583 154.917,745.25 162.75,750.75C170.583,756.25 179.167,760.5 188.5,763.5C197.833,766.5 207.5,768 217.5,768ZM256,672L256,416C256,408 257.667,401.833 261,397.5C264.333,393.167 268.583,390 273.75,388C278.917,386 284.667,384.75 291,384.25C297.333,383.75 303.333,383.5 309,383.5C313.667,383.5 318.417,383.417 323.25,383.25C328.083,383.083 332.833,383 337.5,383C356.833,383 376.833,384.333 397.5,387C418.167,389.667 437,395 454,403C471,411 484.917,422.417 495.75,437.25C506.583,452.083 512,471.667 512,496C512,516 507.917,533.5 499.75,548.5C491.583,563.5 478.5,575.5 460.5,584.5L506.5,654C510.167,659.667 512,665.667 512,672C512,680.667 508.833,688.167 502.5,694.5C496.167,700.833 488.667,704 480,704C468.667,704 459.833,699.167 453.5,689.5L395.5,603C382.833,604.667 370.25,605.833 357.75,606.5C345.25,607.167 332.667,607.667 320,608L320,672C320,680.667 316.833,688.167 310.5,694.5C304.167,700.833 296.667,704 288,704C279.333,704 271.833,700.833 265.5,694.5C259.167,688.167 256,680.667 256,672ZM608,704C599.333,704 591.833,700.833 585.5,694.5C579.167,688.167 576,680.667 576,672L576,416C576,407.333 579.167,399.833 585.5,393.5C591.833,387.167 599.333,384 608,384L672,384C679.667,384 687.583,384.417 695.75,385.25C703.917,386.083 711.917,387.583 719.75,389.75C727.583,391.917 735,395.083 742,399.25C749,403.417 755,408.667 760,415C767.333,424.667 773,434.917 777,445.75C781,456.583 783,468 783,480C783,489.667 781.667,499.25 779,508.75C776.333,518.25 772,527 766,535C777.667,544.667 786.25,555.833 791.75,568.5C797.25,581.167 800,595 800,610C800,628.333 796.75,643.5 790.25,655.5C783.75,667.5 775.083,677.083 764.25,684.25C753.417,691.417 740.833,696.5 726.5,699.5C712.167,702.5 697.167,704 681.5,704ZM320,544C325.667,544 332.75,543.917 341.25,543.75C349.75,543.583 358.75,543.167 368.25,542.5C377.75,541.833 387.25,540.667 396.75,539C406.25,537.333 414.75,534.75 422.25,531.25C429.75,527.75 435.917,523.167 440.75,517.5C445.583,511.833 448,504.667 448,496C448,484 444.25,474.667 436.75,468C429.25,461.333 420.083,456.5 409.25,453.5C398.417,450.5 386.917,448.667 374.75,448C362.583,447.333 352,447 343,447L339,447C335.667,447 332.5,447.083 329.5,447.25C326.5,447.417 323.333,447.5 320,447.5ZM672,512C677.333,512 682.75,511.583 688.25,510.75C693.75,509.917 698.75,508.25 703.25,505.75C707.75,503.25 711.5,500 714.5,496C717.5,492 719,486.667 719,480C719,472.333 717.833,466.333 715.5,462C713.167,457.667 709.917,454.5 705.75,452.5C701.583,450.5 696.583,449.25 690.75,448.75C684.917,448.25 678.667,448 672,448L640,448L640,512ZM672,640L687,640C692.667,640 698.417,639.75 704.25,639.25C710.083,638.75 715.333,637.5 720,635.5C724.667,633.5 728.5,630.5 731.5,626.5C734.5,622.5 736,617 736,610C736,601 733,593.083 727,586.25C721,579.417 713.333,576 704,576L640,576L640,640Z" fill="#FFFFFF" fill-opacity="1">
  </path>
</svg>