<!-- Exported by Character Map UWP -->
<svg height="100%" viewBox="0 0 962 1025" width="100%" xmlns="http://www.w3.org/2000/svg" xmlns:xlink="http://www.w3.org/1999/xlink">
  <path d="M0,448C0,399.333 1.58333,350.5 4.75,301.5C7.91667,252.5 14.1667,204 23.5,156C28.5,131.333 37.5,109.333 50.5,90C63.5,70.6667 79.3333,54.3334 98,41C116.667,27.6667 137.333,17.5 160,10.5C182.667,3.5 206.167,0 230.5,0L817.5,0C831.5,0 844.5,2.75 856.5,8.25C868.5,13.75 878.917,21.0834 887.75,30.25C896.583,39.4167 903.5,50.1667 908.5,62.5C913.5,74.8334 916,87.8334 916,101.5C916,109.167 915.25,116.25 913.75,122.75C912.25,129.25 910,136.167 907,143.5C903,153.167 898.917,162.75 894.75,172.25C890.583,181.75 886.667,191.5 883,201.5C865.667,247.167 852.833,292.833 844.5,338.5C836.167,384.167 832,431.333 832,480C832,511.667 834.833,542 840.5,571C846.167,600 853.833,628.333 863.5,656C873.167,683.667 884.333,711 897,738C909.667,765 923.167,792.167 937.5,819.5C945.167,833.833 951.083,848 955.25,862C959.417,876 961.5,891.167 961.5,907.5C961.5,934.833 954.417,957.417 940.25,975.25C926.083,993.083 905.667,1005.17 879,1011.5C850.667,1018.17 821.25,1022.08 790.75,1023.25C760.25,1024.42 730.333,1025 701,1025C663.667,1025 627.583,1024.5 592.75,1023.5C557.917,1022.5 523.75,1019.67 490.25,1015C456.75,1010.33 423.5,1003.08 390.5,993.25C357.5,983.417 324,969.667 290,952C241.333,926.667 198.833,896.25 162.5,860.75C126.167,825.25 96,785.917 72,742.75C48,699.583 30,653.167 18,603.5C6,553.833 0,502 0,448ZM697.5,961L708.5,961C720.833,961 733.833,960.917 747.5,960.75C761.167,960.583 774.833,960.083 788.5,959.25C802.167,958.417 815.667,957.167 829,955.5C842.333,953.833 854.667,951.5 866,948.5C869.667,947.5 872.833,946.667 875.5,946C878.167,945.333 880.5,944.333 882.5,943C884.5,941.667 886.25,940 887.75,938C889.25,936 891,933.167 893,929.5C894.667,925.833 895.833,922.083 896.5,918.25C897.167,914.417 897.5,910.667 897.5,907C897.5,896.667 895.917,886.833 892.75,877.5C889.583,868.167 885.667,859 881,850C865.667,819.667 851,789.583 837,759.75C823,729.917 810.5,698.833 799.5,666.5C778.5,606.167 768,544 768,480C768,447.333 769.75,415.667 773.25,385C776.75,354.333 781.833,324.083 788.5,294.25C795.167,264.417 803.583,234.917 813.75,205.75C823.917,176.583 835.5,147 848.5,117C849.833,114 850.75,111.417 851.25,109.25C851.75,107.083 852,104.333 852,101C852,91.3334 848.833,82.7501 842.5,75.25C836.167,67.7501 827.833,64.0001 817.5,64L233,64C215.667,64.0001 199,66.0834 183,70.25C167,74.4167 152.5,80.75 139.5,89.25C126.5,97.75 115.417,108.5 106.25,121.5C97.0833,134.5 90.5,150 86.5,168C76.8333,213.667 70.6667,260.167 68,307.5C65.3333,354.833 64,401.667 64,448C64,496 69.4167,542.167 80.25,586.5C91.0833,630.833 107.25,672.167 128.75,710.5C150.25,748.833 177.25,783.75 209.75,815.25C242.25,846.75 280.167,873.667 323.5,896C354.5,912 385.083,924.417 415.25,933.25C445.417,942.083 475.667,948.5 506,952.5C536.333,956.5 567.333,958.917 599,959.75C630.667,960.583 663.5,961 697.5,961ZM192,608L192,352C192,344 193.667,337.833 197,333.5C200.333,329.167 204.583,326 209.75,324C214.917,322 220.667,320.75 227,320.25C233.333,319.75 239.333,319.5 245,319.5C249.667,319.5 254.417,319.417 259.25,319.25C264.083,319.083 268.833,319 273.5,319C292.833,319 312.833,320.333 333.5,323C354.167,325.667 373,331 390,339C407,347 420.917,358.417 431.75,373.25C442.583,388.083 448,407.667 448,432C448,452 443.917,469.5 435.75,484.5C427.583,499.5 414.5,511.5 396.5,520.5L442.5,590C446.167,595.667 448,601.667 448,608C448,616.667 444.833,624.167 438.5,630.5C432.167,636.833 424.667,640 416,640C404.667,640 395.833,635.167 389.5,625.5L331.5,539C318.833,540.667 306.25,541.833 293.75,542.5C281.25,543.167 268.667,543.667 256,544L256,608C256,616.667 252.833,624.167 246.5,630.5C240.167,636.833 232.667,640 224,640C215.333,640 207.833,636.833 201.5,630.5C195.167,624.167 192,616.667 192,608ZM544,384L480,384C471.333,384 463.833,380.833 457.5,374.5C451.167,368.167 448,360.667 448,352C448,343.333 451.167,335.833 457.5,329.5C463.833,323.167 471.333,320 480,320L672,320C680.667,320 688.167,323.167 694.5,329.5C700.833,335.833 704,343.333 704,352C704,360.667 700.833,368.167 694.5,374.5C688.167,380.833 680.667,384 672,384L608,384L608,608C608,616.667 604.833,624.167 598.5,630.5C592.167,636.833 584.667,640 576,640C567.333,640 559.833,636.833 553.5,630.5C547.167,624.167 544,616.667 544,608ZM256,480C261.667,480 268.75,479.917 277.25,479.75C285.75,479.583 294.75,479.167 304.25,478.5C313.75,477.833 323.25,476.667 332.75,475C342.25,473.333 350.75,470.75 358.25,467.25C365.75,463.75 371.917,459.167 376.75,453.5C381.583,447.833 384,440.667 384,432C384,420 380.25,410.667 372.75,404C365.25,397.333 356.083,392.5 345.25,389.5C334.417,386.5 322.917,384.667 310.75,384C298.583,383.333 288,383 279,383L275,383C271.667,383 268.5,383.083 265.5,383.25C262.5,383.417 259.333,383.5 256,383.5Z" fill="#FFFFFF" fill-opacity="1">
  </path>
</svg>