<!-- Exported by Character Map UWP -->
<svg height="100%" viewBox="0 0 1024 1024" width="100%" xmlns="http://www.w3.org/2000/svg" xmlns:xlink="http://www.w3.org/1999/xlink">
  <path d="M0,512C0,464.667 6.08333,419.167 18.25,375.5C30.4167,331.833 47.5833,291.083 69.75,253.25C91.9167,215.417 118.583,180.917 149.75,149.75C180.917,118.583 215.417,91.9167 253.25,69.75C291.083,47.5834 331.833,30.4167 375.5,18.25C419.167,6.08337 464.667,0 512,0C559,0 604.333,6.08337 648,18.25C691.667,30.4167 732.5,47.5834 770.5,69.75C808.5,91.9167 843.083,118.583 874.25,149.75C905.417,180.917 932.083,215.5 954.25,253.5C976.417,291.5 993.583,332.333 1005.75,376C1017.92,419.667 1024,465 1024,512C1024,559.333 1017.92,604.833 1005.75,648.5C993.583,692.167 976.417,732.917 954.25,770.75C932.083,808.583 905.417,843.083 874.25,874.25C843.083,905.417 808.583,932.083 770.75,954.25C732.917,976.417 692.167,993.583 648.5,1005.75C604.833,1017.92 559.333,1024 512,1024C464.667,1024 419.167,1017.92 375.5,1005.75C331.833,993.583 291,976.417 253,954.25C215,932.083 180.5,905.5 149.5,874.5C118.5,843.5 91.9167,809 69.75,771C47.5833,733 30.4167,692.167 18.25,648.5C6.08333,604.833 0,559.333 0,512ZM544,832C552.667,832 560.167,835.167 566.5,841.5C572.833,847.833 576,855.333 576,864L576,955.5C612.667,950.167 647.667,940.667 681,927C714.333,913.333 745.167,896.25 773.5,875.75C801.833,855.25 827.5,831.75 850.5,805.25C873.5,778.75 893.083,750 909.25,719C925.417,688 937.917,655.083 946.75,620.25C955.583,585.417 960,549.333 960,512L864,512C855.333,512 847.833,508.833 841.5,502.5C835.167,496.167 832,488.667 832,480C832,471.333 835.167,463.833 841.5,457.5C847.833,451.167 855.333,448 864,448L955.5,448C951.167,416 943.333,384.917 932,354.75C920.667,324.583 906.25,296.167 888.75,269.5C871.25,242.833 851.167,218.167 828.5,195.5C805.833,172.833 781.167,152.75 754.5,135.25C727.833,117.75 699.417,103.333 669.25,92C639.083,80.6667 608,72.8334 576,68.5L576,160C576,168.667 572.833,176.167 566.5,182.5C560.167,188.833 552.667,192 544,192C535.333,192 527.833,188.833 521.5,182.5C515.167,176.167 512,168.667 512,160L512,64C474.667,64.0001 438.583,68.4167 403.75,77.25C368.917,86.0834 336,98.5834 305,114.75C274,130.917 245.25,150.5 218.75,173.5C192.25,196.5 168.75,222.167 148.25,250.5C127.75,278.833 110.667,309.667 97,343C83.3333,376.333 73.8333,411.333 68.5,448L160,448C168.667,448 176.167,451.167 182.5,457.5C188.833,463.833 192,471.333 192,480C192,488.667 188.833,496.167 182.5,502.5C176.167,508.833 168.667,512 160,512L64,512C64,553.333 69.3333,593.083 80,631.25C90.6667,669.417 105.75,705.083 125.25,738.25C144.75,771.417 168.083,801.583 195.25,828.75C222.417,855.917 252.583,879.25 285.75,898.75C318.917,918.25 354.583,933.333 392.75,944C430.917,954.667 470.667,960 512,960L512,864C512,855.333 515.167,847.833 521.5,841.5C527.833,835.167 535.333,832 544,832ZM256,320C256,311.333 257.75,303.167 261.25,295.5C264.75,287.833 269.417,281.083 275.25,275.25C281.083,269.417 287.833,264.75 295.5,261.25C303.167,257.75 311.333,256 320,256C329.333,256 338.333,258 347,262L555.5,357C580.5,368.333 602.5,383.5 621.5,402.5C640.5,421.5 655.667,443.5 667,468.5L762,677C766,685.667 768,694.667 768,704C768,712.667 766.25,720.833 762.75,728.5C759.25,736.167 754.583,742.917 748.75,748.75C742.917,754.583 736.167,759.25 728.5,762.75C720.833,766.25 712.667,768 704,768C694.333,768 685.333,766 677,762L468.5,667C443.5,655.667 421.5,640.5 402.5,621.5C383.5,602.5 368.333,580.5 357,555.5L262,347C258,338.667 256,329.667 256,320ZM320.5,320.5L415.5,529C423.5,547 434.25,562.75 447.75,576.25C461.25,589.75 477,600.5 495,608.5L703.5,703.5L608.5,495C600.5,477 589.75,461.25 576.25,447.75C562.75,434.25 547,423.5 529,415.5Z" fill="#FFFFFF" fill-opacity="1">
  </path>
</svg>