<!-- Exported by Character Map UWP -->
<svg height="100%" viewBox="0 0 1024 1024" width="100%" xmlns="http://www.w3.org/2000/svg" xmlns:xlink="http://www.w3.org/1999/xlink">
  <path d="M0,512C0,491 3.91667,470.917 11.75,451.75C19.5833,432.583 31,415.5 46,400.5L400.5,46C415.5,31.0001 432.583,19.5834 451.75,11.75C470.917,3.91669 491,0 512,0C533,0 553.083,3.91669 572.25,11.75C591.417,19.5834 608.5,31.0001 623.5,46L978,400.5C993,415.5 1004.42,432.583 1012.25,451.75C1020.08,470.917 1024,491 1024,512C1024,533 1020.08,553.083 1012.25,572.25C1004.42,591.417 993,608.5 978,623.5L623.5,978C608.5,993 591.417,1004.42 572.25,1012.25C553.083,1020.08 533,1024 512,1024C491,1024 470.917,1020.08 451.75,1012.25C432.583,1004.42 415.5,993 400.5,978L46,623.5C31,608.5 19.5833,591.417 11.75,572.25C3.91667,553.083 0,533 0,512ZM512,958.5C537.333,958.5 559,949.5 577,931.5L931.5,577C949.5,559 958.5,537.333 958.5,512C958.5,486.667 949.5,465 931.5,447L577,92.5C559,74.5001 537.333,65.5001 512,65.5C486.667,65.5001 465,74.5001 447,92.5L92.5,447C74.5,465 65.5,486.667 65.5,512C65.5,537.333 74.5,559 92.5,577L447,931.5C465,949.5 486.667,958.5 512,958.5ZM384,672L384,540.5C384,518.833 388.333,498.5 397,479.5C405.667,460.5 417.333,443.917 432,429.75C446.667,415.583 463.667,404.417 483,396.25C502.333,388.083 522.667,384 544,384L594.5,384L521.5,310.5C515.167,304.167 512,296.667 512,288C512,279.333 515.167,271.833 521.5,265.5C527.833,259.167 535.333,256 544,256C552.667,256 560.167,259.167 566.5,265.5L694.5,393.5C700.833,399.833 704,407.333 704,416C704,424.667 700.833,432.167 694.5,438.5L566.5,566.5C560.167,572.833 552.667,576 544,576C535.333,576 527.833,572.833 521.5,566.5C515.167,560.167 512,552.667 512,544C512,535.333 515.167,527.833 521.5,521.5L594.5,448L544,448C531,448 518.667,450.5 507,455.5C495.333,460.5 485.083,467.417 476.25,476.25C467.417,485.083 460.5,495.333 455.5,507C450.5,518.667 448,531 448,544L448,672C448,680.667 444.833,688.167 438.5,694.5C432.167,700.833 424.667,704 416,704C407.333,704 399.833,700.833 393.5,694.5C387.167,688.167 384,680.667 384,672Z" fill="#FFFFFF" fill-opacity="1">
  </path>
</svg>