<!-- Exported by Character Map UWP -->
<svg height="100%" viewBox="0 145 1024 751" width="100%" xmlns="http://www.w3.org/2000/svg" xmlns:xlink="http://www.w3.org/1999/xlink">
  <path d="M192,537.5L64,469.5L64,672C64,680.667 60.8333,688.167 54.5,694.5C48.1667,700.833 40.6667,704 32,704C23.3333,704 15.8333,700.833 9.5,694.5C3.16667,688.167 0,680.667 0,672L0,416C0,410 1.5,404.5 4.5,399.5C7.5,394.5 11.6667,390.667 17,388L436.5,164C448.167,158 460.417,153.333 473.25,150C486.083,146.667 499,145 512,145C539,145 564.167,151.333 587.5,164L1007,388C1012.33,390.667 1016.5,394.5 1019.5,399.5C1022.5,404.5 1024,410 1024,416C1024,422 1022.5,427.5 1019.5,432.5C1016.5,437.5 1012.33,441.333 1007,444L832,537.5L832,736C832,740.667 831.167,744.667 829.5,748C827.833,751.333 825.5,754.833 822.5,758.5C815.5,766.5 807.083,774.5 797.25,782.5C787.417,790.5 777.083,798.333 766.25,806C755.417,813.667 744.5,820.75 733.5,827.25C722.5,833.75 712.333,839.5 703,844.5C673.667,860.167 642.917,872.667 610.75,882C578.583,891.333 545.667,896 512,896C478.333,896 445.417,891.333 413.25,882C381.083,872.667 350.333,860.167 321,844.5C311.667,839.5 301.5,833.75 290.5,827.25C279.5,820.75 268.583,813.667 257.75,806C246.917,798.333 236.583,790.5 226.75,782.5C216.917,774.5 208.5,766.5 201.5,758.5C198.5,754.833 196.167,751.333 194.5,748C192.833,744.667 192,740.667 192,736ZM512,622.5C527.667,622.5 542.667,618.833 557,611.5L924,416L557,220.5C542.667,212.833 527.667,209 512,209C496.333,209 481.333,212.833 467,220.5L100,416L467,611.5C481.333,618.833 496.333,622.5 512,622.5ZM768,722.5L768,571.5L587.5,668C575.833,674.333 563.667,679 551,682C538.333,685 525.333,686.5 512,686.5C499,686.5 486.083,685 473.25,682C460.417,679 448.167,674.333 436.5,668L256,571.5L256,722.5C272.333,737.5 290.667,751.583 311,764.75C331.333,777.917 352.583,789.5 374.75,799.5C396.917,809.5 419.667,817.417 443,823.25C466.333,829.083 489.333,832 512,832C534.333,832 557.25,829.083 580.75,823.25C604.25,817.417 627.083,809.5 649.25,799.5C671.417,789.5 692.667,777.917 713,764.75C733.333,751.583 751.667,737.5 768,722.5Z" fill="#FFFFFF" fill-opacity="1">
  </path>
</svg>