<!-- Exported by Character Map UWP -->
<svg height="100%" viewBox="64 64 896 832" width="100%" xmlns="http://www.w3.org/2000/svg" xmlns:xlink="http://www.w3.org/1999/xlink">
  <path d="M960,412.5L960,739.5C960,760.5 955.75,780.5 947.25,799.5C938.75,818.5 927.417,835.083 913.25,849.25C899.083,863.417 882.5,874.75 863.5,883.25C844.5,891.75 824.5,896 803.5,896L220.5,896C199.5,896 179.5,891.75 160.5,883.25C141.5,874.75 124.917,863.417 110.75,849.25C96.5833,835.083 85.25,818.5 76.75,799.5C68.25,780.5 64,760.5 64,739.5L64,412.5C64,390.833 68.3333,370.5 77,351.5C85.6667,332.5 97.3333,315.917 112,301.75C126.667,287.583 143.667,276.417 163,268.25C182.333,260.083 202.667,256 224,256L320,256L320,128C320,119 321.667,110.667 325,103C328.333,95.3334 332.917,88.5834 338.75,82.75C344.583,76.9167 351.333,72.3334 359,69C366.667,65.6667 375,64.0001 384,64L640,64C649,64.0001 657.417,65.6667 665.25,69C673.083,72.3334 679.833,76.8334 685.5,82.5C691.167,88.1667 695.667,94.9167 699,102.75C702.333,110.583 704,119 704,128L704,256L803.5,256C824.5,256 844.5,260.25 863.5,268.75C882.5,277.25 899.083,288.583 913.25,302.75C927.417,316.917 938.75,333.5 947.25,352.5C955.75,371.5 960,391.5 960,412.5ZM640,128L384,128L384,256L640,256ZM896,416C896,403 893.5,390.667 888.5,379C883.5,367.333 876.583,357.083 867.75,348.25C858.917,339.417 848.667,332.5 837,327.5C825.333,322.5 813,320 800,320L224,320C211,320 198.667,322.5 187,327.5C175.333,332.5 165.083,339.417 156.25,348.25C147.417,357.083 140.5,367.333 135.5,379C130.5,390.667 128,403 128,416L128,736C128,749 130.5,761.333 135.5,773C140.5,784.667 147.417,794.917 156.25,803.75C165.083,812.583 175.333,819.5 187,824.5C198.667,829.5 211,832 224,832L800,832C813,832 825.333,829.5 837,824.5C848.667,819.5 858.917,812.583 867.75,803.75C876.583,794.917 883.5,784.667 888.5,773C893.5,761.333 896,749 896,736Z" fill="#FFFFFF" fill-opacity="1">
  </path>
</svg>