<!-- Exported by Character Map UWP -->
<svg height="100%" viewBox="0 84 1024 877" width="100%" xmlns="http://www.w3.org/2000/svg" xmlns:xlink="http://www.w3.org/1999/xlink">
  <path d="M1024,179.5L1024,839C1024,852 1021.5,864.417 1016.5,876.25C1011.5,888.083 1004.67,898.333 996,907C987.333,915.667 977.25,922.583 965.75,927.75C954.25,932.917 941.833,935.5 928.5,935.5C923.167,935.5 917.833,935.083 912.5,934.25C907.167,933.417 902.167,932.167 897.5,930.5L593.5,829C585.833,848.667 575.417,866.5 562.25,882.5C549.083,898.5 533.917,912.25 516.75,923.75C499.583,935.25 481.083,944.167 461.25,950.5C441.417,956.833 421,960 400,960C372.333,960 345.917,954.667 320.75,944C295.583,933.333 273.5,918.75 254.5,900.25C235.5,881.75 220.333,860.167 209,835.5C197.667,810.833 192,784.333 192,756L192,695L65.5,653C45.5,646.333 29.5833,634.75 17.75,618.25C5.91667,601.75 0,583 0,562L0,401C0,390 1.75,379.583 5.25,369.75C8.75,359.917 13.6667,350.917 20,342.75C26.3333,334.583 33.8333,327.5 42.5,321.5C51.1667,315.5 60.8333,311.167 71.5,308.5L903.5,86.5C911.5,84.5001 919.667,83.5001 928,83.5C941.333,83.5001 953.833,86.0001 965.5,91C977.167,96.0001 987.333,102.833 996,111.5C1004.67,120.167 1011.5,130.333 1016.5,142C1021.5,153.667 1024,166.167 1024,179.5ZM960,179.5C960,170.5 956.917,162.917 950.75,156.75C944.583,150.583 937,147.5 928,147.5C926,147.5 923.333,147.833 920,148.5L88,370C81,372 75.25,375.917 70.75,381.75C66.25,387.583 64,394 64,401L64,562C64,568.667 66.0833,574.833 70.25,580.5C74.4167,586.167 79.6667,590 86,592L918,869.5C921,870.5 924.333,871 928,871C936.667,871 944.167,867.833 950.5,861.5C956.833,855.167 960,847.667 960,839ZM532.5,808.5L256,716.5L256,754.5C256,773.5 259.833,791.5 267.5,808.5C275.167,825.5 285.5,840.5 298.5,853.5C311.5,866.5 326.5,876.833 343.5,884.5C360.5,892.167 378.5,896 397.5,896C412.167,896 426.333,894 440,890C453.667,886 466.417,880.25 478.25,872.75C490.083,865.25 500.583,856.083 509.75,845.25C518.917,834.417 526.5,822.167 532.5,808.5Z" fill="#FFFFFF" fill-opacity="1">
  </path>
</svg>