<!-- Exported by Character Map UWP -->
<svg height="100%" viewBox="64 0 832 1024" width="100%" xmlns="http://www.w3.org/2000/svg" xmlns:xlink="http://www.w3.org/1999/xlink">
  <path d="M273.5,827C273.5,796 275.333,764.417 279,732.25C282.667,700.083 288.5,669 296.5,639C287.167,639.333 277.917,639.583 268.75,639.75C259.583,639.917 250.333,640 241,640C217.333,640 194.75,636 173.25,628C151.75,620 132.917,608.75 116.75,594.25C100.583,579.75 87.75,562.417 78.25,542.25C68.75,522.083 64,499.667 64,475C64,464.333 65,453.667 67,443L107,219.5C112.667,187.833 123.417,158.583 139.25,131.75C155.083,104.917 174.583,81.75 197.75,62.25C220.917,42.75 247.083,27.5 276.25,16.5C305.417,5.5 336,0 368,0C379.667,0 391.333,0.833374 403,2.5C414.667,4.16669 426.167,6.5 437.5,9.5L767,100.5C780.333,104.167 792.833,109.667 804.5,117C816.167,124.333 826.583,132.917 835.75,142.75C844.917,152.583 852.667,163.583 859,175.75C865.333,187.917 869.833,200.833 872.5,214.5L893.5,319.5C895.167,328.833 896,337.667 896,346C896,363.667 892.833,380.25 886.5,395.75C880.167,411.25 871.667,425.5 861,438.5C850.333,451.5 838.083,463.083 824.25,473.25C810.417,483.417 795.833,491.667 780.5,498C771.5,501.667 762.917,505.75 754.75,510.25C746.583,514.75 738.833,520.333 731.5,527C706.167,549.667 684.25,571.833 665.75,593.5C647.25,615.167 630.5,637.5 615.5,660.5C600.5,683.5 586.5,707.667 573.5,733C560.5,758.333 546.667,785.833 532,815.5C520.333,839.5 510,863.833 501,888.5C492,913.167 482.833,938 473.5,963C470.167,972 465.667,980.167 460,987.5C454.333,994.833 447.833,1001.25 440.5,1006.75C433.167,1012.25 425.083,1016.5 416.25,1019.5C407.417,1022.5 398.333,1024 389,1024C377.333,1024 366.75,1021.83 357.25,1017.5C347.75,1013.17 338.833,1006.67 330.5,998C318.5,985.667 308.75,973 301.25,960C293.75,947 287.917,933.5 283.75,919.5C279.583,905.5 276.833,890.833 275.5,875.5C274.167,860.167 273.5,844 273.5,827Z" fill="#FFFFFF" fill-opacity="1">
  </path>
</svg>