<!-- Exported by Character Map UWP -->
<svg height="100%" viewBox="64 0 832 1024" width="100%" xmlns="http://www.w3.org/2000/svg" xmlns:xlink="http://www.w3.org/1999/xlink">
  <path d="M273.5,827C273.5,795.333 275.25,763.75 278.75,732.25C282.25,700.75 288.167,669.667 296.5,639C287.167,639.333 277.917,639.583 268.75,639.75C259.583,639.917 250.333,640 241,640C217.333,640 194.75,636 173.25,628C151.75,620 132.917,608.75 116.75,594.25C100.583,579.75 87.75,562.417 78.25,542.25C68.75,522.083 64,499.667 64,475C64,464.333 65,453.667 67,443L107,219.5C112.667,187.833 123.417,158.583 139.25,131.75C155.083,104.917 174.583,81.75 197.75,62.25C220.917,42.75 247,27.5 276,16.5C305,5.5 335.667,0 368,0C379.667,0 391.333,0.833374 403,2.5C414.667,4.16669 426.167,6.5 437.5,9.5L767,100.5C780.333,104.167 792.833,109.667 804.5,117C816.167,124.333 826.583,132.917 835.75,142.75C844.917,152.583 852.667,163.583 859,175.75C865.333,187.917 869.833,200.833 872.5,214.5L893.5,319.5C895.167,328.833 896,337.667 896,346C896,363.667 892.833,380.25 886.5,395.75C880.167,411.25 871.667,425.5 861,438.5C850.333,451.5 838.083,463 824.25,473C810.417,483 795.833,491.333 780.5,498C771.5,502 763,506.167 755,510.5C747,514.833 739.167,520.333 731.5,527C707.167,548.333 685.667,570 667,592C648.333,614 631.333,636.833 616,660.5C600.667,684.167 586.333,708.833 573,734.5C559.667,760.167 546,787.167 532,815.5C520.333,839.5 510.083,863.833 501.25,888.5C492.417,913.167 483.167,938 473.5,963C466.5,981 455.667,995.667 441,1007C426.333,1018.33 409,1024 389,1024C377,1024 366.417,1021.83 357.25,1017.5C348.083,1013.17 339.167,1006.67 330.5,998C318.5,986 308.75,973.417 301.25,960.25C293.75,947.083 287.917,933.333 283.75,919C279.583,904.667 276.833,889.833 275.5,874.5C274.167,859.167 273.5,843.333 273.5,827ZM832,346C832,341.333 831.5,336.667 830.5,332L810,227C807,211.333 800.083,197.667 789.25,186C778.417,174.333 765.333,166.333 750,162L420.5,71C411.833,68.3334 403.083,66.5001 394.25,65.5C385.417,64.5001 376.5,64.0001 367.5,64C343.167,64.0001 320,68.2501 298,76.75C276,85.2501 256.25,96.9167 238.75,111.75C221.25,126.583 206.5,144.167 194.5,164.5C182.5,184.833 174.333,207 170,231L130,454.5C129.333,457.833 128.833,461.167 128.5,464.5C128.167,467.833 128,471.167 128,474.5C128,489.833 131,503.75 137,516.25C143,528.75 151.083,539.417 161.25,548.25C171.417,557.083 183.167,563.917 196.5,568.75C209.833,573.583 223.833,576 238.5,576C245.833,576 253,575.833 260,575.5L274,575.5C281,575.167 288.167,575 295.5,575C304.5,575 312.917,576.583 320.75,579.75C328.583,582.917 335.417,587.417 341.25,593.25C347.083,599.083 351.75,605.833 355.25,613.5C358.75,621.167 360.5,629.5 360.5,638.5C360.5,640.5 360.333,642.333 360,644L359.5,647.5C359.167,649.167 359,651 359,653C358.667,654.333 358.333,655.667 358,657L357.5,659.5C357.5,660.833 357.167,662.167 356.5,663.5C350.5,690.5 345.833,717.333 342.5,744C339.167,770.667 337.5,797.833 337.5,825.5C337.5,837.167 337.833,848.833 338.5,860.5C339.167,872.167 340.917,883.417 343.75,894.25C346.583,905.083 350.583,915.583 355.75,925.75C360.917,935.917 368,945.333 377,954C378.667,955.667 380.417,957.083 382.25,958.25C384.083,959.417 386.333,960 389,960C394.667,960 399.5,958.167 403.5,954.5C407.5,950.833 410.667,946.667 413,942C416.667,934.333 419.667,926.417 422,918.25C424.333,910.083 426.833,902.167 429.5,894.5C443.5,854.167 460,814.75 479,776.25C498,737.75 518,699.833 539,662.5C559,627.167 581.333,594.5 606,564.5C630.667,534.5 658.167,506.167 688.5,479.5C699.167,470.167 710.083,462.417 721.25,456.25C732.417,450.083 744.333,444.167 757,438.5C766.333,434.5 775.5,429.5 784.5,423.5C793.5,417.5 801.5,410.583 808.5,402.75C815.5,394.917 821.167,386.25 825.5,376.75C829.833,367.25 832,357 832,346Z" fill="#FFFFFF" fill-opacity="1">
  </path>
</svg>