<!-- Exported by Character Map UWP -->
<svg height="100%" viewBox="0 0 1024 1024" width="100%" xmlns="http://www.w3.org/2000/svg" xmlns:xlink="http://www.w3.org/1999/xlink">
  <path d="M576,378.5C566.333,375.167 557.583,370.5 549.75,364.5C541.917,358.5 535.167,351.5 529.5,343.5C523.833,335.5 519.5,326.833 516.5,317.5C513.5,308.167 512,298.333 512,288L512,96C512,83 514.5,70.6667 519.5,59C524.5,47.3334 531.417,37.0834 540.25,28.25C549.083,19.4167 559.333,12.5 571,7.5C582.667,2.5 595,0 608,0L928,0C941,0 953.333,2.5 965,7.5C976.667,12.5 986.917,19.4167 995.75,28.25C1004.58,37.0834 1011.5,47.3334 1016.5,59C1021.5,70.6667 1024,83 1024,96L1024,288C1024,301 1021.5,313.333 1016.5,325C1011.5,336.667 1004.58,346.917 995.75,355.75C986.917,364.583 976.667,371.5 965,376.5C953.333,381.5 941,384 928,384L749,384L658,475.5C648.667,484.833 637.333,489.5 624,489.5C618,489.5 611.833,488.167 605.5,485.5C596.167,481.833 588.917,476 583.75,468C578.583,460 576,451.167 576,441.5ZM640,402.5L722.5,320L928,320C936.667,320 944.167,316.833 950.5,310.5C956.833,304.167 960,296.667 960,288L960,96C960,87.3334 956.833,79.8334 950.5,73.5C944.167,67.1667 936.667,64.0001 928,64L608,64C599.333,64.0001 591.833,67.1667 585.5,73.5C579.167,79.8334 576,87.3334 576,96L576,288C576,295.333 577.417,301.167 580.25,305.5C583.083,309.833 586.75,313.083 591.25,315.25C595.75,317.417 600.75,318.833 606.25,319.5C611.75,320.167 617.333,320.5 623,320.5C626,320.5 628.917,320.417 631.75,320.25C634.583,320.083 637.333,320 640,320ZM128,384L128,380C128,354 133.167,329.583 143.5,306.75C153.833,283.917 167.833,264 185.5,247C203.167,230 223.583,216.583 246.75,206.75C269.917,196.917 294.333,192 320,192C346.667,192 371.667,197 395,207C418.333,217 438.667,230.667 456,248C473.333,265.333 487,285.667 497,309C507,332.333 512,357.333 512,384C512,410.667 507,435.667 497,459C487,482.333 473.333,502.667 456,520C438.667,537.333 418.333,551 395,561C371.667,571 346.667,576 320,576C293.333,576 268.333,571 245,561C221.667,551 201.333,537.333 184,520C166.667,502.667 153,482.333 143,459C133,435.667 128,410.667 128,384ZM448,384L448,381.5C448,364.167 444.5,347.917 437.5,332.75C430.5,317.583 421.167,304.333 409.5,293C397.833,281.667 384.25,272.667 368.75,266C353.25,259.333 337,256 320,256C302.333,256 285.75,259.417 270.25,266.25C254.75,273.083 241.25,282.25 229.75,293.75C218.25,305.25 209.083,318.833 202.25,334.5C195.417,350.167 192,366.667 192,384C192,401.667 195.417,418.25 202.25,433.75C209.083,449.25 218.25,462.75 229.75,474.25C241.25,485.75 254.75,494.917 270.25,501.75C285.75,508.583 302.333,512 320,512C337.333,512 353.833,508.583 369.5,501.75C385.167,494.917 398.75,485.75 410.25,474.25C421.75,462.75 430.917,449.25 437.75,433.75C444.583,418.25 448,401.667 448,384ZM0,752C0,738.333 2.33333,724.75 7,711.25C11.6667,697.75 18.3333,685.75 27,675.25C35.6667,664.75 46.0833,656.25 58.25,649.75C70.4167,643.25 83.8333,640 98.5,640L541.5,640C556.167,640 569.583,643.25 581.75,649.75C593.917,656.25 604.333,664.75 613,675.25C621.667,685.75 628.333,697.75 633,711.25C637.667,724.75 640,738.333 640,752C640,803.667 628.5,849.25 605.5,888.75C582.5,928.25 548.333,960.333 503,985C475,1000.33 445.333,1010.67 414,1016C382.667,1021.33 351.333,1024 320,1024C292,1024 263.917,1021.67 235.75,1017C207.583,1012.33 180.75,1004.58 155.25,993.75C129.75,982.917 106.417,968.583 85.25,950.75C64.0833,932.917 46.5,910.833 32.5,884.5C21.8333,863.833 13.75,842.333 8.25,820C2.75,797.667 0,775 0,752ZM576,752C576,747.333 575.25,742.167 573.75,736.5C572.25,730.833 570.083,725.583 567.25,720.75C564.417,715.917 560.833,711.917 556.5,708.75C552.167,705.583 547.167,704 541.5,704L98.5,704C92.8333,704 87.8333,705.583 83.5,708.75C79.1667,711.917 75.5833,715.917 72.75,720.75C69.9167,725.583 67.75,730.833 66.25,736.5C64.75,742.167 64,747.333 64,752C64,790 71,822.25 85,848.75C99,875.25 117.75,896.75 141.25,913.25C164.75,929.75 191.917,941.667 222.75,949C253.583,956.333 286,960 320,960C354,960 386.417,956.333 417.25,949C448.083,941.667 475.25,929.75 498.75,913.25C522.25,896.75 541,875.25 555,848.75C569,822.25 576,790 576,752Z" fill="#FFFFFF" fill-opacity="1">
  </path>
</svg>