<!-- Exported by Character Map UWP -->
<svg height="100%" viewBox="64 0 832 1024" width="100%" xmlns="http://www.w3.org/2000/svg" xmlns:xlink="http://www.w3.org/1999/xlink">
  <path d="M64,678.5C64,661.167 67.0833,644.583 73.25,628.75C79.4167,612.917 87.75,598.5 98.25,585.5C108.75,572.5 121,560.917 135,550.75C149,540.583 163.667,532.333 179,526C188,522.333 196.583,518.25 204.75,513.75C212.917,509.25 220.833,503.667 228.5,497C243.167,484.333 257.25,471 270.75,457C284.25,443 297,428.333 309,413C333.667,381.667 355.25,348.667 373.75,314C392.25,279.333 410.333,244.167 428,208.5C439.667,184.5 450.083,160.167 459.25,135.5C468.417,110.833 477.5,86.0001 486.5,61C493.167,43.0001 504,28.3334 519,17C534,5.66669 551.167,0 570.5,0C582.833,0 593.583,2.16669 602.75,6.5C611.917,10.8334 620.833,17.3334 629.5,26C641.5,38.3334 651.25,51.0001 658.75,64C666.25,77.0001 672.083,90.6667 676.25,105C680.417,119.333 683.167,134.167 684.5,149.5C685.833,164.833 686.5,180.833 686.5,197.5C686.5,211.5 686,226.667 685,243C684,259.333 682.583,275.75 680.75,292.25C678.917,308.75 676.583,324.917 673.75,340.75C670.917,356.583 667.5,371.333 663.5,385C673.167,384.667 683,384.417 693,384.25C703,384.083 712.833,384 722.5,384C744.833,384 766.5,388.083 787.5,396.25C808.5,404.417 827,415.75 843,430.25C859,444.75 871.833,461.917 881.5,481.75C891.167,501.583 896,523.167 896,546.5C896,558.167 895,569.667 893,581L853,804.5C847.333,835.167 836.75,863.917 821.25,890.75C805.75,917.583 786.583,940.833 763.75,960.5C740.917,980.167 715.167,995.667 686.5,1007C657.833,1018.33 627.833,1024 596.5,1024C571.167,1024 546.5,1020.83 522.5,1014.5L193,923.5C165.333,915.833 142.25,902 123.75,882C105.25,862 93.1667,837.833 87.5,809.5L66.5,704.5C65.8333,700.5 65.25,696.25 64.75,691.75C64.25,687.25 64,682.833 64,678.5Z" fill="#FFFFFF" fill-opacity="1">
  </path>
</svg>