<!-- Exported by Character Map UWP -->
<svg height="100%" viewBox="0 4 1024 828" width="100%" xmlns="http://www.w3.org/2000/svg" xmlns:xlink="http://www.w3.org/1999/xlink">
  <path d="M149.5,508C143.5,508 138.417,505.917 134.25,501.75C130.083,497.583 128,492.5 128,486.5L128,320L26,320C21.3333,320 17.5,318.5 14.5,315.5C11.5,312.5 10,308.667 10,304C10,302.667 11.8333,297.917 15.5,289.75C19.1667,281.583 24.0833,271.167 30.25,258.5C36.4167,245.833 43.5,231.5 51.5,215.5C59.5,199.5 67.6667,183.083 76,166.25C84.3333,149.417 92.6667,132.75 101,116.25C109.333,99.75 117,84.6667 124,71C131,57.3334 137,45.5834 142,35.75C147,25.9167 150.333,19.3334 152,16C153.667,12.3334 156.167,9.41669 159.5,7.25C162.833,5.08337 166.5,4.00006 170.5,4C176.5,4.00006 181.583,6.08337 185.75,10.25C189.917,14.4167 192,19.5 192,25.5L192,192L294,192C298.667,192 302.5,193.5 305.5,196.5C308.5,199.5 310,203.333 310,208C310,210.667 309.5,213 308.5,215L168,496C166.333,499.667 163.833,502.583 160.5,504.75C157.167,506.917 153.5,508 149.5,508ZM156.5,832C135.5,832 115.5,827.75 96.5,819.25C77.5,810.75 60.9167,799.417 46.75,785.25C32.5833,771.083 21.25,754.5 12.75,735.5C4.25,716.5 0,696.5 0,675.5L0,384L64,384L64,672C64,685 66.5,697.333 71.5,709C76.5,720.667 83.4167,730.917 92.25,739.75C101.083,748.583 111.333,755.5 123,760.5C134.667,765.5 147,768 160,768L736,768C749,768 761.333,765.5 773,760.5C784.667,755.5 794.917,748.583 803.75,739.75C812.583,730.917 819.5,720.667 824.5,709C829.5,697.333 832,685 832,672L832,352C832,339 829.5,326.667 824.5,315C819.5,303.333 812.583,293.083 803.75,284.25C794.917,275.417 784.667,268.5 773,263.5C761.333,258.5 749,256 736,256L377.5,256C385.833,240 390,223.667 390,207C390,204.333 389.917,201.833 389.75,199.5C389.583,197.167 389.333,194.667 389,192L739.5,192C760.833,192 780.917,196.25 799.75,204.75C818.583,213.25 835.083,224.583 849.25,238.75C863.417,252.917 874.667,269.5 883,288.5C891.333,307.5 895.667,327.5 896,348.5L896,416L960,416C968.667,416 976.833,417.667 984.5,421C992.167,424.333 999,429 1005,435C1011,441 1015.67,447.833 1019,455.5C1022.33,463.167 1024,471.333 1024,480L1024,544C1024,561.667 1017.67,576.833 1005,589.5C992.667,601.833 977.667,608 960,608L896,608L896,675.5C896,696.5 891.75,716.5 883.25,735.5C874.75,754.5 863.417,771.083 849.25,785.25C835.083,799.417 818.5,810.75 799.5,819.25C780.5,827.75 760.5,832 739.5,832ZM176,704C162.667,704 151.333,699.333 142,690C132.667,680.667 128,669.333 128,656L128,585.5C136.333,587.167 143.833,588 150.5,588C169.5,588 186.917,582.917 202.75,572.75C218.583,562.583 230.833,549 239.5,532L345.5,320L592,320C605.333,320 616.667,324.667 626,334C635.333,343.333 640,354.667 640,368L640,656C640,669.333 635.333,680.667 626,690C616.667,699.333 605.333,704 592,704Z" fill="#FFFFFF" fill-opacity="1">
  </path>
</svg>