<svg width="32" height="32" viewBox="0 0 32 32" fill="none" xmlns="http://www.w3.org/2000/svg">
<g clip-path="url(#clip0_2181_87913)">
<g filter="url(#filter0_i_2181_87913)">
<path d="M10.8345 29.7491L10.6518 28.1036C10.5893 27.5405 10.7381 26.9742 11.0695 26.5147L12.9721 23.876L14.2081 22.1618C14.5451 21.6945 15.2837 21.9633 15.2414 22.5379L15.0864 24.6456L14.8478 27.8899C14.8063 28.4549 14.5563 28.9844 14.1465 29.3755L12.9488 30.5187L11.9493 31.4726C11.6072 31.7991 11.0391 31.5924 10.9869 31.1223L10.8345 29.7491Z" fill="url(#paint0_linear_2181_87913)"/>
<path d="M10.8345 29.7491L10.6518 28.1036C10.5893 27.5405 10.7381 26.9742 11.0695 26.5147L12.9721 23.876L14.2081 22.1618C14.5451 21.6945 15.2837 21.9633 15.2414 22.5379L15.0864 24.6456L14.8478 27.8899C14.8063 28.4549 14.5563 28.9844 14.1465 29.3755L12.9488 30.5187L11.9493 31.4726C11.6072 31.7991 11.0391 31.5924 10.9869 31.1223L10.8345 29.7491Z" fill="url(#paint1_linear_2181_87913)"/>
</g>
<g filter="url(#filter1_i_2181_87913)">
<path d="M6.83447 24.2491L6.65177 22.6036C6.58925 22.0405 6.73812 21.4742 7.06948 21.0147L8.9721 18.376L10.2081 16.6618C10.5451 16.1945 11.2837 16.4633 11.2414 17.0379L11.0864 19.1456L10.8478 22.3899C10.8063 22.9549 10.5563 23.4844 10.1465 23.8755L8.94878 25.0187L7.9493 25.9726C7.60718 26.2991 7.03912 26.0924 6.98694 25.6223L6.83447 24.2491Z" fill="url(#paint2_linear_2181_87913)"/>
<path d="M6.83447 24.2491L6.65177 22.6036C6.58925 22.0405 6.73812 21.4742 7.06948 21.0147L8.9721 18.376L10.2081 16.6618C10.5451 16.1945 11.2837 16.4633 11.2414 17.0379L11.0864 19.1456L10.8478 22.3899C10.8063 22.9549 10.5563 23.4844 10.1465 23.8755L8.94878 25.0187L7.9493 25.9726C7.60718 26.2991 7.03912 26.0924 6.98694 25.6223L6.83447 24.2491Z" fill="url(#paint3_linear_2181_87913)"/>
</g>
<g filter="url(#filter2_d_2181_87913)">
<path d="M7.08828 10.5023C7.69381 6.26083 11.3411 3 15.75 3C19.4345 3 22.5871 5.27735 23.877 8.50124C23.9179 8.50041 23.9589 8.5 24 8.5C27.3137 8.5 30 11.1863 30 14.5C30 17.8137 27.3137 20.5 24 20.5C23.9788 20.5 23.9576 20.4999 23.9365 20.4997C23.9299 20.4999 23.9233 20.5 23.9167 20.5H7.25001C4.35051 20.5 2 18.2614 2 15.5C2 12.7901 4.2636 10.5837 7.08828 10.5023Z" fill="white"/>
</g>
<g opacity="0.8">
<mask id="mask0_2181_87913" style="mask-type:alpha" maskUnits="userSpaceOnUse" x="2" y="3" width="28" height="18">
<path d="M7.08828 10.5023C7.69381 6.26083 11.3411 3 15.75 3C19.4345 3 22.5871 5.27735 23.877 8.50124C23.9179 8.50041 23.9589 8.5 24 8.5C27.3137 8.5 30 11.1863 30 14.5C30 17.8137 27.3137 20.5 24 20.5C23.9788 20.5 23.9576 20.4999 23.9365 20.4997C23.9299 20.4999 23.9233 20.5 23.9167 20.5H7.25001C4.35051 20.5 2 18.2614 2 15.5C2 12.7901 4.2636 10.5837 7.08828 10.5023Z" fill="white"/>
</mask>
<g mask="url(#mask0_2181_87913)">
<g filter="url(#filter3_f_2181_87913)">
<g filter="url(#filter4_i_2181_87913)">
<path d="M6.83447 24.2491L6.65177 22.6036C6.58925 22.0405 6.73812 21.4742 7.06948 21.0147L8.9721 18.376L10.2081 16.6618C10.5451 16.1945 11.2837 16.4633 11.2414 17.0379L11.0864 19.1456L10.8478 22.3899C10.8063 22.9549 10.5563 23.4844 10.1465 23.8755L8.94878 25.0187L7.9493 25.9726C7.60718 26.2991 7.03912 26.0924 6.98694 25.6223L6.83447 24.2491Z" fill="url(#paint4_linear_2181_87913)"/>
<path d="M6.83447 24.2491L6.65177 22.6036C6.58925 22.0405 6.73812 21.4742 7.06948 21.0147L8.9721 18.376L10.2081 16.6618C10.5451 16.1945 11.2837 16.4633 11.2414 17.0379L11.0864 19.1456L10.8478 22.3899C10.8063 22.9549 10.5563 23.4844 10.1465 23.8755L8.94878 25.0187L7.9493 25.9726C7.60718 26.2991 7.03912 26.0924 6.98694 25.6223L6.83447 24.2491Z" fill="url(#paint5_linear_2181_87913)"/>
</g>
</g>
</g>
</g>
<g filter="url(#filter5_i_2181_87913)">
<path d="M17.4544 25.6422L17.1971 23.2543C17.1274 22.6074 17.2666 21.9551 17.5943 21.393L18.9615 19.0478L23.5261 11.4252C23.9596 10.7013 25.0737 11.1144 24.9304 11.946L23.353 21.1033L22.9124 23.3639C22.7924 23.9799 22.485 24.5438 22.0325 24.9786L20.2735 26.6683L18.938 27.9512C18.4816 28.3896 17.7206 28.1126 17.6528 27.4834L17.4544 25.6422Z" fill="url(#paint6_linear_2181_87913)"/>
<path d="M17.4544 25.6422L17.1971 23.2543C17.1274 22.6074 17.2666 21.9551 17.5943 21.393L18.9615 19.0478L23.5261 11.4252C23.9596 10.7013 25.0737 11.1144 24.9304 11.946L23.353 21.1033L22.9124 23.3639C22.7924 23.9799 22.485 24.5438 22.0325 24.9786L20.2735 26.6683L18.938 27.9512C18.4816 28.3896 17.7206 28.1126 17.6528 27.4834L17.4544 25.6422Z" fill="url(#paint7_linear_2181_87913)"/>
</g>
</g>
<defs>
<filter id="filter0_i_2181_87913" x="10.2996" y="21.5848" width="4.94353" height="10.047" filterUnits="userSpaceOnUse" color-interpolation-filters="sRGB">
<feFlood flood-opacity="0" result="BackgroundImageFix"/>
<feBlend mode="normal" in="SourceGraphic" in2="BackgroundImageFix" result="shape"/>
<feColorMatrix in="SourceAlpha" type="matrix" values="0 0 0 0 0 0 0 0 0 0 0 0 0 0 0 0 0 0 127 0" result="hardAlpha"/>
<feOffset dx="-0.405669" dy="-0.338057"/>
<feGaussianBlur stdDeviation="0.169029"/>
<feComposite in2="hardAlpha" operator="arithmetic" k2="-1" k3="1"/>
<feColorMatrix type="matrix" values="0 0 0 0 1 0 0 0 0 1 0 0 0 0 1 0 0 0 0.45 0"/>
<feBlend mode="normal" in2="shape" result="effect1_innerShadow_2181_87913"/>
</filter>
<filter id="filter1_i_2181_87913" x="6.29964" y="16.0848" width="4.94353" height="10.047" filterUnits="userSpaceOnUse" color-interpolation-filters="sRGB">
<feFlood flood-opacity="0" result="BackgroundImageFix"/>
<feBlend mode="normal" in="SourceGraphic" in2="BackgroundImageFix" result="shape"/>
<feColorMatrix in="SourceAlpha" type="matrix" values="0 0 0 0 0 0 0 0 0 0 0 0 0 0 0 0 0 0 127 0" result="hardAlpha"/>
<feOffset dx="-0.405669" dy="-0.338057"/>
<feGaussianBlur stdDeviation="0.169029"/>
<feComposite in2="hardAlpha" operator="arithmetic" k2="-1" k3="1"/>
<feColorMatrix type="matrix" values="0 0 0 0 1 0 0 0 0 1 0 0 0 0 1 0 0 0 0.45 0"/>
<feBlend mode="normal" in2="shape" result="effect1_innerShadow_2181_87913"/>
</filter>
<filter id="filter2_d_2181_87913" x="-2" y="1" width="36" height="25.5" filterUnits="userSpaceOnUse" color-interpolation-filters="sRGB">
<feFlood flood-opacity="0" result="BackgroundImageFix"/>
<feColorMatrix in="SourceAlpha" type="matrix" values="0 0 0 0 0 0 0 0 0 0 0 0 0 0 0 0 0 0 127 0" result="hardAlpha"/>
<feOffset dy="2"/>
<feGaussianBlur stdDeviation="2"/>
<feComposite in2="hardAlpha" operator="out"/>
<feColorMatrix type="matrix" values="0 0 0 0 0 0 0 0 0 0 0 0 0 0 0 0 0 0 0.11 0"/>
<feBlend mode="normal" in2="BackgroundImageFix" result="effect1_dropShadow_2181_87913"/>
<feBlend mode="normal" in="SourceGraphic" in2="effect1_dropShadow_2181_87913" result="shape"/>
</filter>
<filter id="filter3_f_2181_87913" x="1" y="11" width="16" height="20" filterUnits="userSpaceOnUse" color-interpolation-filters="sRGB">
<feFlood flood-opacity="0" result="BackgroundImageFix"/>
<feBlend mode="normal" in="SourceGraphic" in2="BackgroundImageFix" result="shape"/>
<feGaussianBlur stdDeviation="2" result="effect1_foregroundBlur_2181_87913"/>
</filter>
<filter id="filter4_i_2181_87913" x="6.29964" y="16.0848" width="4.94353" height="10.047" filterUnits="userSpaceOnUse" color-interpolation-filters="sRGB">
<feFlood flood-opacity="0" result="BackgroundImageFix"/>
<feBlend mode="normal" in="SourceGraphic" in2="BackgroundImageFix" result="shape"/>
<feColorMatrix in="SourceAlpha" type="matrix" values="0 0 0 0 0 0 0 0 0 0 0 0 0 0 0 0 0 0 127 0" result="hardAlpha"/>
<feOffset dx="-0.405669" dy="-0.338057"/>
<feGaussianBlur stdDeviation="0.169029"/>
<feComposite in2="hardAlpha" operator="arithmetic" k2="-1" k3="1"/>
<feColorMatrix type="matrix" values="0 0 0 0 1 0 0 0 0 1 0 0 0 0 1 0 0 0 0.45 0"/>
<feBlend mode="normal" in2="shape" result="effect1_innerShadow_2181_87913"/>
</filter>
<filter id="filter5_i_2181_87913" x="16.7287" y="10.601" width="8.21442" height="17.564" filterUnits="userSpaceOnUse" color-interpolation-filters="sRGB">
<feFlood flood-opacity="0" result="BackgroundImageFix"/>
<feBlend mode="normal" in="SourceGraphic" in2="BackgroundImageFix" result="shape"/>
<feColorMatrix in="SourceAlpha" type="matrix" values="0 0 0 0 0 0 0 0 0 0 0 0 0 0 0 0 0 0 127 0" result="hardAlpha"/>
<feOffset dx="-0.540892" dy="-0.450743"/>
<feGaussianBlur stdDeviation="0.225372"/>
<feComposite in2="hardAlpha" operator="arithmetic" k2="-1" k3="1"/>
<feColorMatrix type="matrix" values="0 0 0 0 1 0 0 0 0 1 0 0 0 0 1 0 0 0 0.45 0"/>
<feBlend mode="normal" in2="shape" result="effect1_innerShadow_2181_87913"/>
</filter>
<linearGradient id="paint0_linear_2181_87913" x1="6.88569" y1="30.7305" x2="13.6913" y2="35.505" gradientUnits="userSpaceOnUse">
<stop stop-color="#A0D2FE"/>
<stop offset="0.911458" stop-color="#2298FF"/>
</linearGradient>
<linearGradient id="paint1_linear_2181_87913" x1="12.0071" y1="36.3951" x2="7.5319" y2="25.1838" gradientUnits="userSpaceOnUse">
<stop stop-color="#1D88E7"/>
<stop offset="1" stop-color="#1D88E7" stop-opacity="0"/>
</linearGradient>
<linearGradient id="paint2_linear_2181_87913" x1="2.88569" y1="25.2305" x2="9.69135" y2="30.005" gradientUnits="userSpaceOnUse">
<stop stop-color="#A0D2FE"/>
<stop offset="0.911458" stop-color="#2298FF"/>
</linearGradient>
<linearGradient id="paint3_linear_2181_87913" x1="8.00712" y1="30.8951" x2="3.5319" y2="19.6838" gradientUnits="userSpaceOnUse">
<stop stop-color="#1D88E7"/>
<stop offset="1" stop-color="#1D88E7" stop-opacity="0"/>
</linearGradient>
<linearGradient id="paint4_linear_2181_87913" x1="2.88569" y1="25.2305" x2="9.69135" y2="30.005" gradientUnits="userSpaceOnUse">
<stop stop-color="#A0D2FE"/>
<stop offset="0.911458" stop-color="#2298FF"/>
</linearGradient>
<linearGradient id="paint5_linear_2181_87913" x1="8.00712" y1="30.8951" x2="3.5319" y2="19.6838" gradientUnits="userSpaceOnUse">
<stop stop-color="#1D88E7"/>
<stop offset="1" stop-color="#1D88E7" stop-opacity="0"/>
</linearGradient>
<linearGradient id="paint6_linear_2181_87913" x1="12.1809" y1="26.9739" x2="21.9971" y2="32.594" gradientUnits="userSpaceOnUse">
<stop stop-color="#A0D2FE"/>
<stop offset="0.911458" stop-color="#2298FF"/>
</linearGradient>
<linearGradient id="paint7_linear_2181_87913" x1="18.1006" y1="37.0241" x2="7.04532" y2="20.8117" gradientUnits="userSpaceOnUse">
<stop stop-color="#1D88E7"/>
<stop offset="1" stop-color="#1D88E7" stop-opacity="0"/>
</linearGradient>
<clipPath id="clip0_2181_87913">
<rect width="32" height="32" fill="white"/>
</clipPath>
</defs>
</svg>
