<svg width="32" height="32" viewBox="0 0 32 32" fill="none" xmlns="http://www.w3.org/2000/svg">
<g clip-path="url(#clip0_2026_98549)">
<g filter="url(#filter0_d_2026_98549)">
<circle cx="22" cy="11" r="8" fill="url(#paint0_linear_2026_98549)"/>
<circle cx="22" cy="11" r="8" fill="url(#paint1_linear_2026_98549)"/>
</g>
<g filter="url(#filter1_d_2026_98549)">
<path d="M7.08828 14.5023C7.69381 10.2608 11.3411 7 15.75 7C19.4345 7 22.5871 9.27735 23.877 12.5012C23.9179 12.5004 23.9589 12.5 24 12.5C27.3137 12.5 30 15.1863 30 18.5C30 21.8137 27.3137 24.5 24 24.5C23.9788 24.5 23.9576 24.4999 23.9365 24.4997C23.9299 24.4999 23.9233 24.5 23.9167 24.5H7.25001C4.35051 24.5 2 22.2614 2 19.5C2 16.7901 4.2636 14.5837 7.08828 14.5023Z" fill="white"/>
</g>
<g opacity="0.25">
<mask id="mask0_2026_98549" style="mask-type:alpha" maskUnits="userSpaceOnUse" x="2" y="7" width="28" height="18">
<path d="M7.08828 14.5023C7.69381 10.2608 11.3411 7 15.75 7C19.4345 7 22.5871 9.27735 23.877 12.5012C23.9179 12.5004 23.9589 12.5 24 12.5C27.3137 12.5 30 15.1863 30 18.5C30 21.8137 27.3137 24.5 24 24.5C23.9788 24.5 23.9576 24.4999 23.9365 24.4997C23.9299 24.4999 23.9233 24.5 23.9167 24.5H7.25001C4.35051 24.5 2 22.2614 2 19.5C2 16.7901 4.2636 14.5837 7.08828 14.5023Z" fill="white"/>
</mask>
<g mask="url(#mask0_2026_98549)">
<g filter="url(#filter2_f_2026_98549)">
<g filter="url(#filter3_d_2026_98549)">
<circle cx="22" cy="11" r="8" fill="url(#paint2_linear_2026_98549)"/>
<circle cx="22" cy="11" r="8" fill="url(#paint3_linear_2026_98549)"/>
</g>
</g>
</g>
</g>
</g>
<defs>
<filter id="filter0_d_2026_98549" x="10" y="1" width="24" height="24" filterUnits="userSpaceOnUse" color-interpolation-filters="sRGB">
<feFlood flood-opacity="0" result="BackgroundImageFix"/>
<feColorMatrix in="SourceAlpha" type="matrix" values="0 0 0 0 0 0 0 0 0 0 0 0 0 0 0 0 0 0 127 0" result="hardAlpha"/>
<feOffset dy="2"/>
<feGaussianBlur stdDeviation="2"/>
<feComposite in2="hardAlpha" operator="out"/>
<feColorMatrix type="matrix" values="0 0 0 0 0 0 0 0 0 0 0 0 0 0 0 0 0 0 0.11 0"/>
<feBlend mode="normal" in2="BackgroundImageFix" result="effect1_dropShadow_2026_98549"/>
<feBlend mode="normal" in="SourceGraphic" in2="effect1_dropShadow_2026_98549" result="shape"/>
</filter>
<filter id="filter1_d_2026_98549" x="-2" y="5" width="36" height="25.5" filterUnits="userSpaceOnUse" color-interpolation-filters="sRGB">
<feFlood flood-opacity="0" result="BackgroundImageFix"/>
<feColorMatrix in="SourceAlpha" type="matrix" values="0 0 0 0 0 0 0 0 0 0 0 0 0 0 0 0 0 0 127 0" result="hardAlpha"/>
<feOffset dy="2"/>
<feGaussianBlur stdDeviation="2"/>
<feComposite in2="hardAlpha" operator="out"/>
<feColorMatrix type="matrix" values="0 0 0 0 0 0 0 0 0 0 0 0 0 0 0 0 0 0 0.11 0"/>
<feBlend mode="normal" in2="BackgroundImageFix" result="effect1_dropShadow_2026_98549"/>
<feBlend mode="normal" in="SourceGraphic" in2="effect1_dropShadow_2026_98549" result="shape"/>
</filter>
<filter id="filter2_f_2026_98549" x="8" y="-3" width="28" height="28" filterUnits="userSpaceOnUse" color-interpolation-filters="sRGB">
<feFlood flood-opacity="0" result="BackgroundImageFix"/>
<feBlend mode="normal" in="SourceGraphic" in2="BackgroundImageFix" result="shape"/>
<feGaussianBlur stdDeviation="3" result="effect1_foregroundBlur_2026_98549"/>
</filter>
<filter id="filter3_d_2026_98549" x="10" y="1" width="24" height="24" filterUnits="userSpaceOnUse" color-interpolation-filters="sRGB">
<feFlood flood-opacity="0" result="BackgroundImageFix"/>
<feColorMatrix in="SourceAlpha" type="matrix" values="0 0 0 0 0 0 0 0 0 0 0 0 0 0 0 0 0 0 127 0" result="hardAlpha"/>
<feOffset dy="2"/>
<feGaussianBlur stdDeviation="2"/>
<feComposite in2="hardAlpha" operator="out"/>
<feColorMatrix type="matrix" values="0 0 0 0 0 0 0 0 0 0 0 0 0 0 0 0 0 0 0.11 0"/>
<feBlend mode="normal" in2="BackgroundImageFix" result="effect1_dropShadow_2026_98549"/>
<feBlend mode="normal" in="SourceGraphic" in2="effect1_dropShadow_2026_98549" result="shape"/>
</filter>
<linearGradient id="paint0_linear_2026_98549" x1="16.25" y1="5.25" x2="29.9991" y2="17.6489" gradientUnits="userSpaceOnUse">
<stop offset="0.162966" stop-color="#FFE975"/>
<stop offset="0.53915" stop-color="#FFB729"/>
<stop offset="0.742056" stop-color="#FF9900"/>
</linearGradient>
<linearGradient id="paint1_linear_2026_98549" x1="26.0007" y1="17.9446" x2="17.9994" y2="4.08587" gradientUnits="userSpaceOnUse">
<stop stop-color="#E25A01"/>
<stop offset="1" stop-color="#FFD400"/>
</linearGradient>
<linearGradient id="paint2_linear_2026_98549" x1="16.25" y1="5.25" x2="29.9991" y2="17.6489" gradientUnits="userSpaceOnUse">
<stop offset="0.162966" stop-color="#FFE975"/>
<stop offset="0.53915" stop-color="#FFB729"/>
<stop offset="0.742056" stop-color="#FF9900"/>
</linearGradient>
<linearGradient id="paint3_linear_2026_98549" x1="26.0007" y1="17.9446" x2="17.9994" y2="4.08587" gradientUnits="userSpaceOnUse">
<stop stop-color="#E25A01"/>
<stop offset="1" stop-color="#FFD400"/>
</linearGradient>
<clipPath id="clip0_2026_98549">
<rect width="32" height="32" fill="white"/>
</clipPath>
</defs>
</svg>
