<svg width="32" height="32" viewBox="0 0 32 32" fill="none" xmlns="http://www.w3.org/2000/svg">
<g clip-path="url(#clip0_2181_87916)">
<rect x="12.2576" y="21.9424" width="3" height="8" rx="1.5" transform="rotate(20 12.2576 21.9424)" fill="url(#paint0_linear_2181_87916)"/>
<rect x="7.25757" y="17.9424" width="3" height="8" rx="1.5" transform="rotate(20 7.25757 17.9424)" fill="url(#paint1_linear_2181_87916)"/>
<g filter="url(#filter0_d_2181_87916)">
<path d="M7.08828 10.5023C7.69381 6.26083 11.3411 3 15.75 3C19.4345 3 22.5871 5.27735 23.877 8.50124C23.9179 8.50041 23.9589 8.5 24 8.5C27.3137 8.5 30 11.1863 30 14.5C30 17.8137 27.3137 20.5 24 20.5C23.9788 20.5 23.9576 20.4999 23.9365 20.4997C23.9299 20.4999 23.9233 20.5 23.9167 20.5H7.25001C4.35051 20.5 2 18.2614 2 15.5C2 12.7901 4.2636 10.5837 7.08828 10.5023Z" fill="white"/>
</g>
<g opacity="0.8">
<mask id="mask0_2181_87916" style="mask-type:alpha" maskUnits="userSpaceOnUse" x="2" y="3" width="28" height="18">
<path d="M7.08828 10.5023C7.69381 6.26083 11.3411 3 15.75 3C19.4345 3 22.5871 5.27735 23.877 8.50124C23.9179 8.50041 23.9589 8.5 24 8.5C27.3137 8.5 30 11.1863 30 14.5C30 17.8137 27.3137 20.5 24 20.5C23.9788 20.5 23.9576 20.4999 23.9365 20.4997C23.9299 20.4999 23.9233 20.5 23.9167 20.5H7.25001C4.35051 20.5 2 18.2614 2 15.5C2 12.7901 4.2636 10.5837 7.08828 10.5023Z" fill="white"/>
</mask>
<g mask="url(#mask0_2181_87916)">
<g filter="url(#filter1_f_2181_87916)">
<rect x="7.25757" y="17.9424" width="3" height="8" rx="1.5" transform="rotate(20 7.25757 17.9424)" fill="url(#paint2_linear_2181_87916)"/>
</g>
</g>
</g>
<path fill-rule="evenodd" clip-rule="evenodd" d="M21.9999 26C22.6902 26 23.2499 25.4404 23.2499 24.75V22.0701L25.6216 23.318C26.2325 23.6394 26.9884 23.4047 27.3098 22.7937C27.6313 22.1828 27.3966 21.4269 26.7856 21.1055L24.6845 20L26.7856 18.8946C27.3966 18.5732 27.6313 17.8173 27.3098 17.2064C26.9884 16.5954 26.2325 16.3607 25.6216 16.6821L23.2499 17.93V15.25C23.2499 14.5596 22.6902 14 21.9999 14C21.3095 14 20.7499 14.5596 20.7499 15.25V17.9299L18.3782 16.6821C17.7673 16.3607 17.0114 16.5954 16.69 17.2064C16.3685 17.8173 16.6032 18.5732 17.2142 18.8946L19.3153 20L17.2142 21.1055C16.6032 21.4269 16.3685 22.1828 16.69 22.7937C17.0114 23.4047 17.7673 23.6394 18.3782 23.318L20.7499 22.0702V24.75C20.7499 25.4404 21.3095 26 21.9999 26Z" fill="url(#paint3_linear_2181_87916)"/>
<path fill-rule="evenodd" clip-rule="evenodd" d="M21.9999 26C22.6902 26 23.2499 25.4404 23.2499 24.75V22.0701L25.6216 23.318C26.2325 23.6394 26.9884 23.4047 27.3098 22.7937C27.6313 22.1828 27.3966 21.4269 26.7856 21.1055L24.6845 20L26.7856 18.8946C27.3966 18.5732 27.6313 17.8173 27.3098 17.2064C26.9884 16.5954 26.2325 16.3607 25.6216 16.6821L23.2499 17.93V15.25C23.2499 14.5596 22.6902 14 21.9999 14C21.3095 14 20.7499 14.5596 20.7499 15.25V17.9299L18.3782 16.6821C17.7673 16.3607 17.0114 16.5954 16.69 17.2064C16.3685 17.8173 16.6032 18.5732 17.2142 18.8946L19.3153 20L17.2142 21.1055C16.6032 21.4269 16.3685 22.1828 16.69 22.7937C17.0114 23.4047 17.7673 23.6394 18.3782 23.318L20.7499 22.0702V24.75C20.7499 25.4404 21.3095 26 21.9999 26Z" fill="url(#paint4_linear_2181_87916)" fill-opacity="0.8"/>
</g>
<defs>
<filter id="filter0_d_2181_87916" x="-2" y="1" width="36" height="25.5" filterUnits="userSpaceOnUse" color-interpolation-filters="sRGB">
<feFlood flood-opacity="0" result="BackgroundImageFix"/>
<feColorMatrix in="SourceAlpha" type="matrix" values="0 0 0 0 0 0 0 0 0 0 0 0 0 0 0 0 0 0 127 0" result="hardAlpha"/>
<feOffset dy="2"/>
<feGaussianBlur stdDeviation="2"/>
<feComposite in2="hardAlpha" operator="out"/>
<feColorMatrix type="matrix" values="0 0 0 0 0 0 0 0 0 0 0 0 0 0 0 0 0 0 0.11 0"/>
<feBlend mode="normal" in2="BackgroundImageFix" result="effect1_dropShadow_2181_87916"/>
<feBlend mode="normal" in="SourceGraphic" in2="effect1_dropShadow_2181_87916" result="shape"/>
</filter>
<filter id="filter1_f_2181_87916" x="0" y="14" width="14.5" height="16.5" filterUnits="userSpaceOnUse" color-interpolation-filters="sRGB">
<feFlood flood-opacity="0" result="BackgroundImageFix"/>
<feBlend mode="normal" in="SourceGraphic" in2="BackgroundImageFix" result="shape"/>
<feGaussianBlur stdDeviation="2" result="effect1_foregroundBlur_2181_87916"/>
</filter>
<linearGradient id="paint0_linear_2181_87916" x1="12.0784" y1="23.6652" x2="15.4118" y2="24.0187" gradientUnits="userSpaceOnUse">
<stop stop-color="#A0D2FE"/>
<stop offset="0.911458" stop-color="#2298FF"/>
</linearGradient>
<linearGradient id="paint1_linear_2181_87916" x1="7.07842" y1="19.6652" x2="10.4118" y2="20.0187" gradientUnits="userSpaceOnUse">
<stop stop-color="#A0D2FE"/>
<stop offset="0.911458" stop-color="#2298FF"/>
</linearGradient>
<linearGradient id="paint2_linear_2181_87916" x1="7.07842" y1="19.6652" x2="10.4118" y2="20.0187" gradientUnits="userSpaceOnUse">
<stop stop-color="#A0D2FE"/>
<stop offset="0.911458" stop-color="#2298FF"/>
</linearGradient>
<linearGradient id="paint3_linear_2181_87916" x1="21.9999" y1="26" x2="16.8011" y2="14.2219" gradientUnits="userSpaceOnUse">
<stop stop-color="#B0D9FF"/>
<stop offset="1" stop-color="#1A93FF"/>
</linearGradient>
<linearGradient id="paint4_linear_2181_87916" x1="24.3589" y1="26" x2="17.0717" y2="15.3567" gradientUnits="userSpaceOnUse">
<stop stop-color="#2298FF" stop-opacity="0.7"/>
<stop offset="0.911458" stop-color="#2298FF"/>
</linearGradient>
<clipPath id="clip0_2181_87916">
<rect width="32" height="32" fill="white"/>
</clipPath>
</defs>
</svg>
