<svg width="32" height="32" viewBox="0 0 32 32" fill="none" xmlns="http://www.w3.org/2000/svg">
<g clip-path="url(#clip0_2181_87911)">
<rect x="22.2576" y="17.9424" width="3" height="8" rx="1.5" transform="rotate(20 22.2576 17.9424)" fill="url(#paint0_linear_2181_87911)"/>
<rect x="14.2576" y="21.9424" width="3" height="8" rx="1.5" transform="rotate(20 14.2576 21.9424)" fill="url(#paint1_linear_2181_87911)"/>
<rect x="8.25757" y="17.9424" width="3" height="8" rx="1.5" transform="rotate(20 8.25757 17.9424)" fill="url(#paint2_linear_2181_87911)"/>
<g filter="url(#filter0_d_2181_87911)">
<path d="M7.08828 10.5023C7.69381 6.26083 11.3411 3 15.75 3C19.4345 3 22.5871 5.27735 23.877 8.50124C23.9179 8.50041 23.9589 8.5 24 8.5C27.3137 8.5 30 11.1863 30 14.5C30 17.8137 27.3137 20.5 24 20.5C23.9788 20.5 23.9576 20.4999 23.9365 20.4997C23.9299 20.4999 23.9233 20.5 23.9167 20.5H7.25001C4.35051 20.5 2 18.2614 2 15.5C2 12.7901 4.2636 10.5837 7.08828 10.5023Z" fill="white"/>
</g>
<g opacity="0.8">
<mask id="mask0_2181_87911" style="mask-type:alpha" maskUnits="userSpaceOnUse" x="2" y="3" width="28" height="18">
<path d="M7.08828 10.5023C7.69381 6.26083 11.3411 3 15.75 3C19.4345 3 22.5871 5.27735 23.877 8.50124C23.9179 8.50041 23.9589 8.5 24 8.5C27.3137 8.5 30 11.1863 30 14.5C30 17.8137 27.3137 20.5 24 20.5C23.9788 20.5 23.9576 20.4999 23.9365 20.4997C23.9299 20.4999 23.9233 20.5 23.9167 20.5H7.25001C4.35051 20.5 2 18.2614 2 15.5C2 12.7901 4.2636 10.5837 7.08828 10.5023Z" fill="white"/>
</mask>
<g mask="url(#mask0_2181_87911)">
<g filter="url(#filter1_f_2181_87911)">
<rect x="22.2576" y="17.9424" width="3" height="8" rx="1.5" transform="rotate(20 22.2576 17.9424)" fill="url(#paint3_linear_2181_87911)"/>
<rect x="8.25757" y="17.9424" width="3" height="8" rx="1.5" transform="rotate(20 8.25757 17.9424)" fill="url(#paint4_linear_2181_87911)"/>
</g>
</g>
</g>
</g>
<defs>
<filter id="filter0_d_2181_87911" x="-2" y="1" width="36" height="25.5" filterUnits="userSpaceOnUse" color-interpolation-filters="sRGB">
<feFlood flood-opacity="0" result="BackgroundImageFix"/>
<feColorMatrix in="SourceAlpha" type="matrix" values="0 0 0 0 0 0 0 0 0 0 0 0 0 0 0 0 0 0 127 0" result="hardAlpha"/>
<feOffset dy="2"/>
<feGaussianBlur stdDeviation="2"/>
<feComposite in2="hardAlpha" operator="out"/>
<feColorMatrix type="matrix" values="0 0 0 0 0 0 0 0 0 0 0 0 0 0 0 0 0 0 0.11 0"/>
<feBlend mode="normal" in2="BackgroundImageFix" result="effect1_dropShadow_2181_87911"/>
<feBlend mode="normal" in="SourceGraphic" in2="effect1_dropShadow_2181_87911" result="shape"/>
</filter>
<filter id="filter1_f_2181_87911" x="1" y="14" width="28.5" height="16.5" filterUnits="userSpaceOnUse" color-interpolation-filters="sRGB">
<feFlood flood-opacity="0" result="BackgroundImageFix"/>
<feBlend mode="normal" in="SourceGraphic" in2="BackgroundImageFix" result="shape"/>
<feGaussianBlur stdDeviation="2" result="effect1_foregroundBlur_2181_87911"/>
</filter>
<linearGradient id="paint0_linear_2181_87911" x1="22.0784" y1="19.6652" x2="25.4118" y2="20.0187" gradientUnits="userSpaceOnUse">
<stop stop-color="#A0D2FE"/>
<stop offset="0.911458" stop-color="#2298FF"/>
</linearGradient>
<linearGradient id="paint1_linear_2181_87911" x1="14.0784" y1="23.6652" x2="17.4118" y2="24.0187" gradientUnits="userSpaceOnUse">
<stop stop-color="#A0D2FE"/>
<stop offset="0.911458" stop-color="#2298FF"/>
</linearGradient>
<linearGradient id="paint2_linear_2181_87911" x1="8.07842" y1="19.6652" x2="11.4118" y2="20.0187" gradientUnits="userSpaceOnUse">
<stop stop-color="#A0D2FE"/>
<stop offset="0.911458" stop-color="#2298FF"/>
</linearGradient>
<linearGradient id="paint3_linear_2181_87911" x1="22.0784" y1="19.6652" x2="25.4118" y2="20.0187" gradientUnits="userSpaceOnUse">
<stop stop-color="#A0D2FE"/>
<stop offset="0.911458" stop-color="#2298FF"/>
</linearGradient>
<linearGradient id="paint4_linear_2181_87911" x1="8.07842" y1="19.6652" x2="11.4118" y2="20.0187" gradientUnits="userSpaceOnUse">
<stop stop-color="#A0D2FE"/>
<stop offset="0.911458" stop-color="#2298FF"/>
</linearGradient>
<clipPath id="clip0_2181_87911">
<rect width="32" height="32" fill="white"/>
</clipPath>
</defs>
</svg>
