<svg width="32" height="32" viewBox="0 0 32 32" fill="none" xmlns="http://www.w3.org/2000/svg">
<g clip-path="url(#clip0_2229_117913)">
<g filter="url(#filter0_d_2229_117913)">
<path d="M9.17478 17.0181L18.8425 5.6165C19.1854 5.21213 19.8392 5.54932 19.7084 6.06313L17.7873 13.6154C17.7009 13.9549 17.9813 14.2756 18.3292 14.2354L21.1642 13.9082C21.613 13.8564 21.8949 14.3792 21.605 14.7257L10.5764 27.9103C10.2185 28.3382 9.53462 27.9472 9.72195 27.4216L12.8985 18.5101C13.0145 18.1845 12.7732 17.8423 12.4276 17.8422L9.55601 17.8414C9.13015 17.8413 8.89936 17.3429 9.17478 17.0181Z" fill="url(#paint0_linear_2229_117913)"/>
<path d="M9.17478 17.0181L18.8425 5.6165C19.1854 5.21213 19.8392 5.54932 19.7084 6.06313L17.7873 13.6154C17.7009 13.9549 17.9813 14.2756 18.3292 14.2354L21.1642 13.9082C21.613 13.8564 21.8949 14.3792 21.605 14.7257L10.5764 27.9103C10.2185 28.3382 9.53462 27.9472 9.72195 27.4216L12.8985 18.5101C13.0145 18.1845 12.7732 17.8423 12.4276 17.8422L9.55601 17.8414C9.13015 17.8413 8.89936 17.3429 9.17478 17.0181Z" fill="url(#paint1_linear_2229_117913)"/>
<path d="M9.17478 17.0181L18.8425 5.6165C19.1854 5.21213 19.8392 5.54932 19.7084 6.06313L17.7873 13.6154C17.7009 13.9549 17.9813 14.2756 18.3292 14.2354L21.1642 13.9082C21.613 13.8564 21.8949 14.3792 21.605 14.7257L10.5764 27.9103C10.2185 28.3382 9.53462 27.9472 9.72195 27.4216L12.8985 18.5101C13.0145 18.1845 12.7732 17.8423 12.4276 17.8422L9.55601 17.8414C9.13015 17.8413 8.89936 17.3429 9.17478 17.0181Z" fill="url(#paint2_linear_2229_117913)" fill-opacity="0.7"/>
</g>
</g>
<defs>
<filter id="filter0_d_2229_117913" x="3" y="2" width="23" height="33" filterUnits="userSpaceOnUse" color-interpolation-filters="sRGB">
<feFlood flood-opacity="0" result="BackgroundImageFix"/>
<feColorMatrix in="SourceAlpha" type="matrix" values="0 0 0 0 0 0 0 0 0 0 0 0 0 0 0 0 0 0 127 0" result="hardAlpha"/>
<feOffset dy="2"/>
<feGaussianBlur stdDeviation="2"/>
<feComposite in2="hardAlpha" operator="out"/>
<feColorMatrix type="matrix" values="0 0 0 0 0 0 0 0 0 0 0 0 0 0 0 0 0 0 0.11 0"/>
<feBlend mode="normal" in2="BackgroundImageFix" result="effect1_dropShadow_2229_117913"/>
<feBlend mode="normal" in="SourceGraphic" in2="effect1_dropShadow_2229_117913" result="shape"/>
</filter>
<linearGradient id="paint0_linear_2229_117913" x1="15.8328" y1="4.9313" x2="13.0103" y2="30.2089" gradientUnits="userSpaceOnUse">
<stop stop-color="#FFD793"/>
<stop offset="1" stop-color="#E9980C"/>
</linearGradient>
<linearGradient id="paint1_linear_2229_117913" x1="13.2309" y1="6.26332" x2="27.836" y2="16.9156" gradientUnits="userSpaceOnUse">
<stop stop-color="#FF9900"/>
<stop offset="0.53915" stop-color="#FFB729"/>
<stop offset="1" stop-color="#FFE975"/>
</linearGradient>
<linearGradient id="paint2_linear_2229_117913" x1="15.1253" y1="29.7511" x2="2.89179" y2="14.172" gradientUnits="userSpaceOnUse">
<stop stop-color="#E25A01"/>
<stop offset="1" stop-color="#FFD400"/>
</linearGradient>
<clipPath id="clip0_2229_117913">
<rect width="32" height="32" fill="white"/>
</clipPath>
</defs>
</svg>
