<!-- Exported by Character Map UWP -->
<svg height="100%" viewBox="0 64 1024 960" width="100%" xmlns="http://www.w3.org/2000/svg" xmlns:xlink="http://www.w3.org/1999/xlink">
  <path d="M156.5,960C135.5,960 115.5,955.75 96.5,947.25C77.5,938.75 60.9167,927.417 46.75,913.25C32.5833,899.083 21.25,882.5 12.75,863.5C4.25,844.5 0,824.5 0,803.5L0,220.5C0,199.5 4.25,179.5 12.75,160.5C21.25,141.5 32.5833,124.917 46.75,110.75C60.9167,96.5834 77.5,85.2501 96.5,76.75C115.5,68.2501 135.5,64.0001 156.5,64L352,64C375,64.0001 394.833,67.5834 411.5,74.75C428.167,81.9167 443.083,91.5 456.25,103.5C469.417,115.5 481.667,129.167 493,144.5C504.333,159.833 516,175.667 528,192L867.5,192C888.5,192 908.5,196.25 927.5,204.75C946.5,213.25 963.083,224.583 977.25,238.75C991.417,252.917 1002.75,269.5 1011.25,288.5C1019.75,307.5 1024,327.5 1024,348.5L1024,507C1014.67,495.333 1004.67,484.167 994,473.5C983.333,462.833 972,453 960,444L960,352C960,339 957.5,326.667 952.5,315C947.5,303.333 940.583,293.083 931.75,284.25C922.917,275.417 912.667,268.5 901,263.5C889.333,258.5 877,256 864,256L521.5,256C509.833,263.667 498.5,271.333 487.5,279C476.5,286.667 465.25,293.5 453.75,299.5C442.25,305.5 430.25,310.417 417.75,314.25C405.25,318.083 391.667,320 377,320L64,320L64,800C64,813 66.5,825.333 71.5,837C76.5,848.667 83.4167,858.917 92.25,867.75C101.083,876.583 111.333,883.5 123,888.5C134.667,893.5 147,896 160,896L404.5,896C410.167,907.333 416.25,918.333 422.75,929C429.25,939.667 436.333,950 444,960ZM377,256C386,256 394.333,254.833 402,252.5C409.667,250.167 417.167,247.083 424.5,243.25C431.833,239.417 438.833,235.167 445.5,230.5C452.167,225.833 459,221 466,216C458.333,205.667 450.833,195.25 443.5,184.75C436.167,174.25 428.167,164.833 419.5,156.5C410.833,148.167 401.083,141.333 390.25,136C379.417,130.667 366.667,128 352,128L160,128C147,128 134.667,130.5 123,135.5C111.333,140.5 101.083,147.417 92.25,156.25C83.4167,165.083 76.5,175.333 71.5,187C66.5,198.667 64,211 64,224L64,256ZM448,736C448,696.333 455.583,659 470.75,624C485.917,589 506.5,558.5 532.5,532.5C558.5,506.5 589,485.917 624,470.75C659,455.583 696.333,448 736,448C762.333,448 787.75,451.417 812.25,458.25C836.75,465.083 859.667,474.75 881,487.25C902.333,499.75 921.833,514.833 939.5,532.5C957.167,550.167 972.25,569.667 984.75,591C997.25,612.333 1006.92,635.25 1013.75,659.75C1020.58,684.25 1024,709.667 1024,736C1024,775.667 1016.42,813 1001.25,848C986.083,883 965.5,913.5 939.5,939.5C913.5,965.5 883,986.083 848,1001.25C813,1016.42 775.667,1024 736,1024C696,1024 658.5,1016.5 623.5,1001.5C588.5,986.5 558,966 532,940C506,914 485.5,883.5 470.5,848.5C455.5,813.5 448,776 448,736ZM864,704C872.667,704 880.167,700.833 886.5,694.5C892.833,688.167 896,680.667 896,672L896,576C896,567.333 892.833,559.833 886.5,553.5C880.167,547.167 872.667,544 864,544C857.667,544 852.5,545.167 848.5,547.5C844.5,549.833 841.25,552.917 838.75,556.75C836.25,560.583 834.5,565 833.5,570C832.5,575 832,580.167 832,585.5C816.333,577.167 800.917,570.833 785.75,566.5C770.583,562.167 754,560 736,560C724,560 711.75,561.25 699.25,563.75C686.75,566.25 674.5,569.917 662.5,574.75C650.5,579.583 639.083,585.417 628.25,592.25C617.417,599.083 608,607 600,616C597,619.333 594.667,622.75 593,626.25C591.333,629.75 590.5,633.833 590.5,638.5C590.5,647.5 593.667,655.167 600,661.5C606.333,667.833 614,671 623,671C628.667,671 634.75,668.583 641.25,663.75C647.75,658.917 655.333,653.5 664,647.5C672.667,641.5 682.75,636.083 694.25,631.25C705.75,626.417 719.333,624 735,624C746.667,624 757.5,625.25 767.5,627.75C777.5,630.25 787.667,634.333 798,640L785,640C779,640 773.083,640.25 767.25,640.75C761.417,641.25 756.167,642.583 751.5,644.75C746.833,646.917 743.083,650.167 740.25,654.5C737.417,658.833 736,664.667 736,672C736,680.667 739.167,688.167 745.5,694.5C751.833,700.833 759.333,704 768,704ZM640,886.5C655.667,894.833 671.083,901.167 686.25,905.5C701.417,909.833 718,912 736,912C748,912 760.333,910.75 773,908.25C785.667,905.75 797.917,902.083 809.75,897.25C821.583,892.417 832.833,886.583 843.5,879.75C854.167,872.917 863.667,865 872,856C878.333,849.333 881.5,841.667 881.5,833C881.5,824.333 878.333,816.833 872,810.5C865.667,804.167 858.167,801 849.5,801C842.833,801 836.333,803.417 830,808.25C823.667,813.083 816.333,818.5 808,824.5C799.667,830.5 789.833,835.917 778.5,840.75C767.167,845.583 753.333,848 737,848C725.333,848 714.5,846.75 704.5,844.25C694.5,841.75 684.333,837.667 674,832L687,832C692.667,832 698.417,831.75 704.25,831.25C710.083,830.75 715.333,829.417 720,827.25C724.667,825.083 728.5,821.833 731.5,817.5C734.5,813.167 736,807.333 736,800C736,791.333 732.833,783.833 726.5,777.5C720.167,771.167 712.667,768 704,768L608,768C599.333,768 591.833,771.167 585.5,777.5C579.167,783.833 576,791.333 576,800L576,896C576,904.667 579.167,912.167 585.5,918.5C591.833,924.833 599.333,928 608,928C614.333,928 619.5,926.833 623.5,924.5C627.5,922.167 630.75,919.083 633.25,915.25C635.75,911.417 637.5,907 638.5,902C639.5,897 640,891.833 640,886.5Z" fill="#FFFFFF" fill-opacity="1">
  </path>
</svg>