<!-- Exported by Character Map UWP -->
<svg height="100%" viewBox="0 64 1024 960" width="100%" xmlns="http://www.w3.org/2000/svg" xmlns:xlink="http://www.w3.org/1999/xlink">
  <path d="M156.5,960C135.5,960 115.5,955.75 96.5,947.25C77.5,938.75 60.9167,927.417 46.75,913.25C32.5833,899.083 21.25,882.5 12.75,863.5C4.25,844.5 0,824.5 0,803.5L0,220.5C0,199.5 4.25,179.5 12.75,160.5C21.25,141.5 32.5833,124.917 46.75,110.75C60.9167,96.5834 77.5,85.2501 96.5,76.75C115.5,68.2501 135.5,64.0001 156.5,64L352,64C375,64.0001 394.833,67.5834 411.5,74.75C428.167,81.9167 443.083,91.5 456.25,103.5C469.417,115.5 481.667,129.167 493,144.5C504.333,159.833 516,175.667 528,192L867.5,192C888.5,192 908.5,196.25 927.5,204.75C946.5,213.25 963.083,224.583 977.25,238.75C991.417,252.917 1002.75,269.5 1011.25,288.5C1019.75,307.5 1024,327.5 1024,348.5L1024,507C1014.67,495.333 1004.67,484.167 994,473.5C983.333,462.833 972,453 960,444L960,352C960,339 957.5,326.667 952.5,315C947.5,303.333 940.583,293.083 931.75,284.25C922.917,275.417 912.667,268.5 901,263.5C889.333,258.5 877,256 864,256L521.5,256C509.833,263.667 498.5,271.333 487.5,279C476.5,286.667 465.25,293.5 453.75,299.5C442.25,305.5 430.25,310.417 417.75,314.25C405.25,318.083 391.667,320 377,320L64,320L64,800C64,813 66.5,825.333 71.5,837C76.5,848.667 83.4167,858.917 92.25,867.75C101.083,876.583 111.333,883.5 123,888.5C134.667,893.5 147,896 160,896L404.5,896C410.167,907.333 416.25,918.333 422.75,929C429.25,939.667 436.333,950 444,960ZM377,256C386,256 394.333,254.833 402,252.5C409.667,250.167 417.167,247.083 424.5,243.25C431.833,239.417 438.833,235.167 445.5,230.5C452.167,225.833 459,221 466,216C458.333,205.667 450.833,195.25 443.5,184.75C436.167,174.25 428.167,164.833 419.5,156.5C410.833,148.167 401.083,141.333 390.25,136C379.417,130.667 366.667,128 352,128L160,128C147,128 134.667,130.5 123,135.5C111.333,140.5 101.083,147.417 92.25,156.25C83.4167,165.083 76.5,175.333 71.5,187C66.5,198.667 64,211 64,224L64,256ZM448,736C448,696.667 455.667,659.583 471,624.75C486.333,589.917 507.083,559.417 533.25,533.25C559.417,507.083 589.917,486.333 624.75,471C659.583,455.667 696.667,448 736,448C762.333,448 787.75,451.417 812.25,458.25C836.75,465.083 859.667,474.75 881,487.25C902.333,499.75 921.833,514.833 939.5,532.5C957.167,550.167 972.25,569.667 984.75,591C997.25,612.333 1006.92,635.25 1013.75,659.75C1020.58,684.25 1024,709.667 1024,736C1024,775.667 1016.42,813 1001.25,848C986.083,883 965.5,913.5 939.5,939.5C913.5,965.5 883,986.083 848,1001.25C813,1016.42 775.667,1024 736,1024C696,1024 658.5,1016.5 623.5,1001.5C588.5,986.5 558,966 532,940C506,914 485.5,883.5 470.5,848.5C455.5,813.5 448,776 448,736ZM640,886.5C656,894.833 671.5,901.167 686.5,905.5C701.5,909.833 718,912 736,912C754,912 771.667,909.583 789,904.75C806.333,899.917 822.5,892.667 837.5,883L873.5,918.5C879.833,924.833 887.333,928 896,928C904.667,928 912.167,924.833 918.5,918.5C924.833,912.167 928,904.667 928,896C928,887.333 924.833,879.833 918.5,873.5L881,836C881,825.667 878.083,817.25 872.25,810.75C866.417,804.25 858.5,801 848.5,801L846.5,801L681.5,636C688.5,631.333 697.083,628.167 707.25,626.5C717.417,624.833 726.667,624 735,624C746.667,624 757.5,625.25 767.5,627.75C777.5,630.25 787.667,634.333 798,640L785,640C779,640 773.083,640.25 767.25,640.75C761.417,641.25 756.167,642.583 751.5,644.75C746.833,646.917 743.083,650.167 740.25,654.5C737.417,658.833 736,664.667 736,672C736,680.667 739.167,688.167 745.5,694.5C751.833,700.833 759.333,704 768,704L864,704C872.667,704 880.167,700.833 886.5,694.5C892.833,688.167 896,680.667 896,672L896,576C896,567.333 892.833,559.833 886.5,553.5C880.167,547.167 872.667,544 864,544C857.667,544 852.5,545.167 848.5,547.5C844.5,549.833 841.25,552.917 838.75,556.75C836.25,560.583 834.5,565 833.5,570C832.5,575 832,580.167 832,585.5C816,577.167 800.5,570.833 785.5,566.5C770.5,562.167 754,560 736,560C718,560 700.333,562.417 683,567.25C665.667,572.083 649.5,579.333 634.5,589L598.5,553.5C595.167,550.5 591.75,548.167 588.25,546.5C584.75,544.833 580.667,544 576,544C567.333,544 559.833,547.167 553.5,553.5C547.167,559.833 544,567.333 544,576C544,584.667 547.167,592.167 553.5,598.5L591,636C591,646.333 593.833,654.75 599.5,661.25C605.167,667.75 613.167,671 623.5,671L625.5,671L790.5,836C781.833,839.667 773.083,842.583 764.25,844.75C755.417,846.917 746.333,848 737,848C725.333,848 714.5,846.75 704.5,844.25C694.5,841.75 684.333,837.667 674,832L687,832C692.667,832 698.417,831.75 704.25,831.25C710.083,830.75 715.333,829.417 720,827.25C724.667,825.083 728.5,821.833 731.5,817.5C734.5,813.167 736,807.333 736,800C736,791.333 732.833,783.833 726.5,777.5C720.167,771.167 712.667,768 704,768L608,768C599.333,768 591.833,771.167 585.5,777.5C579.167,783.833 576,791.333 576,800L576,896C576,904.667 579.167,912.167 585.5,918.5C591.833,924.833 599.333,928 608,928C614.333,928 619.5,926.833 623.5,924.5C627.5,922.167 630.75,919.083 633.25,915.25C635.75,911.417 637.5,907 638.5,902C639.5,897 640,891.833 640,886.5Z" fill="#FFFFFF" fill-opacity="1">
  </path>
</svg>