<!-- Exported by Character Map UWP -->
<svg height="100%" viewBox="0 192 1024 640" width="100%" xmlns="http://www.w3.org/2000/svg" xmlns:xlink="http://www.w3.org/1999/xlink">
  <path d="M1024,544C1024,561.667 1017.67,576.833 1005,589.5C992.667,601.833 977.667,608 960,608L896,608L896,675.5C896,696.5 891.75,716.5 883.25,735.5C874.75,754.5 863.417,771.083 849.25,785.25C835.083,799.417 818.5,810.75 799.5,819.25C780.5,827.75 760.5,832 739.5,832L156.5,832C135.5,832 115.5,827.75 96.5,819.25C77.5,810.75 60.9167,799.417 46.75,785.25C32.5833,771.083 21.25,754.5 12.75,735.5C4.25,716.5 0,696.5 0,675.5L0,348.5C0,327.5 4.25,307.5 12.75,288.5C21.25,269.5 32.5833,252.917 46.75,238.75C60.9167,224.583 77.5,213.25 96.5,204.75C115.5,196.25 135.5,192 156.5,192L739.5,192C760.833,192 780.917,196.25 799.75,204.75C818.583,213.25 835.083,224.583 849.25,238.75C863.417,252.917 874.667,269.5 883,288.5C891.333,307.5 895.667,327.5 896,348.5L896,416L960,416C968.667,416 976.833,417.667 984.5,421C992.167,424.333 999,429 1005,435C1011,441 1015.67,447.833 1019,455.5C1022.33,463.167 1024,471.333 1024,480ZM832,352C832,339 829.5,326.667 824.5,315C819.5,303.333 812.583,293.083 803.75,284.25C794.917,275.417 784.667,268.5 773,263.5C761.333,258.5 749,256 736,256L160,256C147,256 134.667,258.5 123,263.5C111.333,268.5 101.083,275.417 92.25,284.25C83.4167,293.083 76.5,303.333 71.5,315C66.5,326.667 64,339 64,352L64,672C64,685 66.5,697.333 71.5,709C76.5,720.667 83.4167,730.917 92.25,739.75C101.083,748.583 111.333,755.5 123,760.5C134.667,765.5 147,768 160,768L736,768C749,768 761.333,765.5 773,760.5C784.667,755.5 794.917,748.583 803.75,739.75C812.583,730.917 819.5,720.667 824.5,709C829.5,697.333 832,685 832,672ZM640,352C640,360.667 636.833,368.167 630.5,374.5L493.5,512L630.5,649.5C636.833,655.833 640,663.333 640,672C640,680.667 636.833,688.167 630.5,694.5C624.167,700.833 616.667,704 608,704C599.333,704 591.833,700.833 585.5,694.5L448,557L310.5,694.5C304.167,700.833 296.667,704 288,704C279.333,704 271.833,700.833 265.5,694.5C259.167,688.167 256,680.667 256,672C256,663.333 259.167,655.833 265.5,649.5L403,512L265.5,374.5C259.167,368.167 256,360.667 256,352C256,343.333 259.167,335.833 265.5,329.5C271.833,323.167 279.333,320 288,320C296.667,320 304.167,323.167 310.5,329.5L448,466.5L585.5,329.5C591.833,323.167 599.333,320 608,320C616.667,320 624.167,323.167 630.5,329.5C636.833,335.833 640,343.333 640,352Z" fill="#FFFFFF" fill-opacity="1">
  </path>
</svg>