<!-- Exported by Character Map UWP -->
<svg height="100%" viewBox="0 128 1024 704" width="100%" xmlns="http://www.w3.org/2000/svg" xmlns:xlink="http://www.w3.org/1999/xlink">
  <path d="M32,192C23.3333,192 15.8333,188.833 9.5,182.5C3.16667,176.167 0,168.667 0,160C0,151.333 3.16667,143.833 9.5,137.5C15.8333,131.167 23.3333,128 32,128L736,128C744.667,128 752.167,131.167 758.5,137.5C764.833,143.833 768,151.333 768,160C768,168.667 764.833,176.167 758.5,182.5C752.167,188.833 744.667,192 736,192ZM32,512C23.3333,512 15.8333,508.833 9.5,502.5C3.16667,496.167 0,488.667 0,480C0,471.333 3.16667,463.833 9.5,457.5C15.8333,451.167 23.3333,448 32,448L992,448C1000.67,448 1008.17,451.167 1014.5,457.5C1020.83,463.833 1024,471.333 1024,480C1024,488.667 1020.83,496.167 1014.5,502.5C1008.17,508.833 1000.67,512 992,512ZM32,832C23.3333,832 15.8333,828.833 9.5,822.5C3.16667,816.167 0,808.667 0,800C0,791.333 3.16667,783.833 9.5,777.5C15.8333,771.167 23.3333,768 32,768L608,768C616.667,768 624.167,771.167 630.5,777.5C636.833,783.833 640,791.333 640,800C640,808.667 636.833,816.167 630.5,822.5C624.167,828.833 616.667,832 608,832Z" fill="#FFFFFF" fill-opacity="1">
  </path>
</svg>