<!-- Exported by Character Map UWP -->
<svg height="100%" viewBox="0 128 1024 704" width="100%" xmlns="http://www.w3.org/2000/svg" xmlns:xlink="http://www.w3.org/1999/xlink">
  <path d="M160,192C151.333,192 143.833,188.833 137.5,182.5C131.167,176.167 128,168.667 128,160C128,151.333 131.167,143.833 137.5,137.5C143.833,131.167 151.333,128 160,128L864,128C872.667,128 880.167,131.167 886.5,137.5C892.833,143.833 896,151.333 896,160C896,168.667 892.833,176.167 886.5,182.5C880.167,188.833 872.667,192 864,192ZM32,512C23.3333,512 15.8333,508.833 9.5,502.5C3.16667,496.167 0,488.667 0,480C0,471.333 3.16667,463.833 9.5,457.5C15.8333,451.167 23.3333,448 32,448L992,448C1000.67,448 1008.17,451.167 1014.5,457.5C1020.83,463.833 1024,471.333 1024,480C1024,488.667 1020.83,496.167 1014.5,502.5C1008.17,508.833 1000.67,512 992,512ZM288,832C279.333,832 271.833,828.833 265.5,822.5C259.167,816.167 256,808.667 256,800C256,791.333 259.167,783.833 265.5,777.5C271.833,771.167 279.333,768 288,768L736,768C744.667,768 752.167,771.167 758.5,777.5C764.833,783.833 768,791.333 768,800C768,808.667 764.833,816.167 758.5,822.5C752.167,828.833 744.667,832 736,832Z" fill="#FFFFFF" fill-opacity="1">
  </path>
</svg>