<!-- Exported by Character Map UWP -->
<svg height="100%" viewBox="0 128 1024 704" width="100%" xmlns="http://www.w3.org/2000/svg" xmlns:xlink="http://www.w3.org/1999/xlink">
  <path d="M288,192C279.333,192 271.833,188.833 265.5,182.5C259.167,176.167 256,168.667 256,160C256,151.333 259.167,143.833 265.5,137.5C271.833,131.167 279.333,128 288,128L992,128C1000.67,128 1008.17,131.167 1014.5,137.5C1020.83,143.833 1024,151.333 1024,160C1024,168.667 1020.83,176.167 1014.5,182.5C1008.17,188.833 1000.67,192 992,192ZM32,512C23.3333,512 15.8333,508.833 9.5,502.5C3.16667,496.167 0,488.667 0,480C0,471.333 3.16667,463.833 9.5,457.5C15.8333,451.167 23.3333,448 32,448L992,448C1000.67,448 1008.17,451.167 1014.5,457.5C1020.83,463.833 1024,471.333 1024,480C1024,488.667 1020.83,496.167 1014.5,502.5C1008.17,508.833 1000.67,512 992,512ZM480,832C471.333,832 463.833,828.833 457.5,822.5C451.167,816.167 448,808.667 448,800C448,791.333 451.167,783.833 457.5,777.5C463.833,771.167 471.333,768 480,768L992,768C1000.67,768 1008.17,771.167 1014.5,777.5C1020.83,783.833 1024,791.333 1024,800C1024,808.667 1020.83,816.167 1014.5,822.5C1008.17,828.833 1000.67,832 992,832Z" fill="#FFFFFF" fill-opacity="1">
  </path>
</svg>