<!-- Exported by Character Map UWP -->
<svg height="100%" viewBox="192 64 615 890" width="100%" xmlns="http://www.w3.org/2000/svg" xmlns:xlink="http://www.w3.org/1999/xlink">
  <path d="M270.5,954C259.833,954 249.75,952 240.25,948C230.75,944 222.417,938.5 215.25,931.5C208.083,924.5 202.417,916.333 198.25,907C194.083,897.667 192,887.667 192,877L192,147C192,136 194.25,125.5 198.75,115.5C203.25,105.5 209.333,96.6667 217,89C224.667,81.3334 233.5,75.2501 243.5,70.75C253.5,66.2501 264,64.0001 275,64L499,64C534.333,64.0001 567.5,70.7501 598.5,84.25C629.5,97.7501 656.583,116.083 679.75,139.25C702.917,162.417 721.25,189.5 734.75,220.5C748.25,251.5 755,284.667 755,320C755,348.333 750.583,375.25 741.75,400.75C732.917,426.25 720.333,450.5 704,473.5C737.333,499.5 762.75,530.667 780.25,567C797.75,603.333 806.5,642.667 806.5,685C806.5,711.333 803.333,737.083 797,762.25C790.667,787.417 780,811 765,833C752.333,851.667 737.583,868.417 720.75,883.25C703.917,898.083 685.667,910.75 666,921.25C646.333,931.75 625.583,939.75 603.75,945.25C581.917,950.75 559.833,953.5 537.5,953.5L470.5,953.5L337.5,954C315.167,954 292.833,954 270.5,954ZM493,416C506.333,416 518.833,413.5 530.5,408.5C542.167,403.5 552.333,396.667 561,388C569.667,379.333 576.5,369.167 581.5,357.5C586.5,345.833 589,333.333 589,320C589,306.667 586.5,294.167 581.5,282.5C576.5,270.833 569.667,260.667 561,252C552.333,243.333 542.167,236.5 530.5,231.5C518.833,226.5 506.333,224 493,224L352,224L352,416ZM531,800C546.667,800 561.167,797.083 574.5,791.25C587.833,785.417 599.333,777.5 609,767.5C618.667,757.5 626.25,745.75 631.75,732.25C637.25,718.75 640,704.167 640,688.5C640,673.833 637.083,659.75 631.25,646.25C625.417,632.75 617.583,620.75 607.75,610.25C597.917,599.75 586.417,591.417 573.25,585.25C560.083,579.083 546,576 531,576L352,576L352,800Z" fill="#FFFFFF" fill-opacity="1">
  </path>
</svg>