<!-- Exported by Character Map UWP -->
<svg height="100%" viewBox="96 64 832 896" width="100%" xmlns="http://www.w3.org/2000/svg" xmlns:xlink="http://www.w3.org/1999/xlink">
  <path d="M896,64C904.667,64.0001 912.167,67.1667 918.5,73.5C924.833,79.8334 928,87.3334 928,96C928,104.667 924.833,112.167 918.5,118.5C912.167,124.833 904.667,128 896,128L694,128L398.5,896L608,896C616.667,896 624.167,899.167 630.5,905.5C636.833,911.833 640,919.333 640,928C640,936.667 636.833,944.167 630.5,950.5C624.167,956.833 616.667,960 608,960L128,960C119.333,960 111.833,956.833 105.5,950.5C99.1667,944.167 96,936.667 96,928C96,919.333 99.1667,911.833 105.5,905.5C111.833,899.167 119.333,896 128,896L330,896L625.5,128L416,128C407.333,128 399.833,124.833 393.5,118.5C387.167,112.167 384,104.667 384,96C384,87.3334 387.167,79.8334 393.5,73.5C399.833,67.1667 407.333,64.0001 416,64Z" fill="#FFFFFF" fill-opacity="1">
  </path>
</svg>