<!-- Exported by Character Map UWP -->
<svg height="100%" viewBox="64 64 960 960" width="100%" xmlns="http://www.w3.org/2000/svg" xmlns:xlink="http://www.w3.org/1999/xlink">
  <path d="M256,896L393.5,896L377.5,960L189.5,960C172.833,960 156.917,956.583 141.75,949.75C126.583,942.917 113.25,933.75 101.75,922.25C90.25,910.75 81.0833,897.417 74.25,882.25C67.4167,867.083 64,851.167 64,834.5L64,189.5C64,172.833 67.4167,156.917 74.25,141.75C81.0833,126.583 90.25,113.25 101.75,101.75C113.25,90.25 126.583,81.0834 141.75,74.25C156.917,67.4167 172.833,64.0001 189.5,64L696.5,64C713.5,64.0001 729.833,67.2501 745.5,73.75C761.167,80.2501 775,89.5001 787,101.5L922.5,237C930.833,245.333 937.5,253.75 942.5,262.25C947.5,270.75 951.25,279.5 953.75,288.5C956.25,297.5 957.917,307 958.75,317C959.583,327 960,337.667 960,349L960,374.5C944,370.167 927.333,368 910,368C907.333,368 904.917,368 902.75,368C900.583,368 898.333,368.167 896,368.5C896,366.167 896,363.833 896,361.5L896.5,348C896.5,345.667 896.5,343.333 896.5,341C896.5,330.333 895.333,319.917 893,309.75C890.667,299.583 885.5,290.5 877.5,282.5L741.5,146.5C731.167,136.167 718.667,130.167 704,128.5L704,288C704,301 701.5,313.333 696.5,325C691.5,336.667 684.583,346.917 675.75,355.75C666.917,364.583 656.667,371.5 645,376.5C633.333,381.5 621,384 608,384L352,384C339,384 326.667,381.5 315,376.5C303.333,371.5 293.083,364.583 284.25,355.75C275.417,346.917 268.5,336.667 263.5,325C258.5,313.333 256,301 256,288L256,128L192,128C183,128 174.667,129.667 167,133C159.333,136.333 152.583,140.917 146.75,146.75C140.917,152.583 136.333,159.333 133,167C129.667,174.667 128,183 128,192L128,832C128,841 129.667,849.417 133,857.25C136.333,865.083 140.833,871.833 146.5,877.5C152.167,883.167 158.917,887.667 166.75,891C174.583,894.333 183,896 192,896L192,608C192,595 194.5,582.667 199.5,571C204.5,559.333 211.417,549.083 220.25,540.25C229.083,531.417 239.333,524.5 251,519.5C262.667,514.5 275,512 288,512L684.5,512C673.833,522.667 663.417,533.417 653.25,544.25C643.083,555.083 632.5,565.667 621.5,576L288,576C279.333,576 271.833,579.167 265.5,585.5C259.167,591.833 256,599.333 256,608ZM608,320C616.667,320 624.167,316.833 630.5,310.5C636.833,304.167 640,296.667 640,288L640,128L320,128L320,288C320,296.667 323.167,304.167 329.5,310.5C335.833,316.833 343.333,320 352,320ZM1024,562.5C1024,573.5 1022.92,583.5 1020.75,592.5C1018.58,601.5 1015.42,610 1011.25,618C1007.08,626 1002,633.667 996,641C990,648.333 983.333,655.833 976,663.5L811,498.5C818.333,490.833 825.5,483.833 832.5,477.5C839.5,471.167 846.833,465.833 854.5,461.5C862.167,457.167 870.5,453.833 879.5,451.5C888.5,449.167 898.5,448 909.5,448C925.5,448 940.5,450.917 954.5,456.75C968.5,462.583 980.667,470.667 991,481C1001.33,491.333 1009.42,503.5 1015.25,517.5C1021.08,531.5 1024,546.5 1024,562.5ZM754.5,555L919.5,720L671,968.5C667.667,971.833 664.417,974.333 661.25,976C658.083,977.667 654.333,979.167 650,980.5C645.667,981.833 638.75,983.833 629.25,986.5C619.75,989.167 608.917,992.083 596.75,995.25C584.583,998.417 571.75,1001.67 558.25,1005C544.75,1008.33 532.167,1011.42 520.5,1014.25C508.833,1017.08 498.667,1019.42 490,1021.25C481.333,1023.08 475.5,1024 472.5,1024C466.833,1024 461.75,1021.75 457.25,1017.25C452.75,1012.75 450.5,1007.67 450.5,1002C450.5,999.333 451.417,993.667 453.25,985C455.083,976.333 457.417,966 460.25,954C463.083,942 466.167,929.25 469.5,915.75C472.833,902.25 476.083,889.333 479.25,877C482.417,864.667 485.333,853.75 488,844.25C490.667,834.75 492.667,828 494,824C496.667,815.667 500.667,808.833 506,803.5Z" fill="#FFFFFF" fill-opacity="1">
  </path>
</svg>