<!-- Exported by Character Map UWP -->
<svg height="100%" viewBox="192 64 640 896" width="100%" xmlns="http://www.w3.org/2000/svg" xmlns:xlink="http://www.w3.org/1999/xlink">
  <path d="M192,509L192,96C192,87.3334 195.167,79.8334 201.5,73.5C207.833,67.1667 215.333,64.0001 224,64C232.667,64.0001 240.167,67.1667 246.5,73.5C252.833,79.8334 256,87.3334 256,96L256,514C256,548.667 262.833,581.417 276.5,612.25C290.167,643.083 308.667,670 332,693C355.333,716 382.5,734.25 413.5,747.75C444.5,761.25 477.333,768 512,768C547.667,768 581.083,761.167 612.25,747.5C643.417,733.833 670.5,715.25 693.5,691.75C716.5,668.25 734.667,640.833 748,609.5C761.333,578.167 768,544.667 768,509L768,96C768,87.3334 771.167,79.8334 777.5,73.5C783.833,67.1667 791.333,64.0001 800,64C808.667,64.0001 816.167,67.1667 822.5,73.5C828.833,79.8334 832,87.3334 832,96L832,509C832,538.667 828.25,567.167 820.75,594.5C813.25,621.833 802.583,647.5 788.75,671.5C774.917,695.5 758.25,717.333 738.75,737C719.25,756.667 697.667,773.5 674,787.5C650.333,801.5 624.833,812.417 597.5,820.25C570.167,828.083 541.667,832 512,832C482.333,832 453.833,828.083 426.5,820.25C399.167,812.417 373.667,801.5 350,787.5C326.333,773.5 304.75,756.667 285.25,737C265.75,717.333 249.083,695.5 235.25,671.5C221.417,647.5 210.75,621.75 203.25,594.25C195.75,566.75 192,538.333 192,509ZM224,960C215.333,960 207.833,956.833 201.5,950.5C195.167,944.167 192,936.667 192,928C192,919.333 195.167,911.833 201.5,905.5C207.833,899.167 215.333,896 224,896L800,896C808.667,896 816.167,899.167 822.5,905.5C828.833,911.833 832,919.333 832,928C832,936.667 828.833,944.167 822.5,950.5C816.167,956.833 808.667,960 800,960Z" fill="#FFFFFF" fill-opacity="1">
  </path>
</svg>