<svg viewBox="0 0 108 62" fill="none" xmlns="http://www.w3.org/2000/svg">
<path d="M71 11.9367V42.1376C71 43.0118 70.8229 43.8323 70.4688 44.5989C70.1146 45.3655 69.6379 46.0313 69.0385 46.5961C68.4392 47.161 67.7445 47.6116 66.9544 47.9478C66.1644 48.2841 65.3335 48.4522 64.4617 48.4522C63.549 48.4522 62.6977 48.2841 61.9077 47.9478C61.1176 47.6116 60.4297 47.1543 59.844 46.576C59.2583 45.9976 58.7883 45.3117 58.4342 44.5182C58.08 43.7247 57.9097 42.8841 57.9234 41.9964C57.9234 41.1356 58.0868 40.3152 58.4137 39.5351C58.7407 38.7551 59.197 38.0691 59.7827 37.4774C60.3684 36.8856 61.0495 36.4149 61.8259 36.0652C62.6024 35.7155 63.4333 35.5406 64.3187 35.5406C65.0542 35.5406 65.7693 35.6415 66.464 35.8433C67.1587 36.045 67.7989 36.3745 68.3847 36.8318V21.9028L50.0774 28.6814V44.7199C50.0774 45.5942 49.9003 46.4146 49.5462 47.1812C49.192 47.9478 48.7152 48.6136 48.1159 49.1784C47.5165 49.7433 46.8219 50.1939 46.0318 50.5301C45.2418 50.8664 44.4108 51.0345 43.5391 51.0345C42.6264 51.0345 41.7751 50.8664 40.985 50.5301C40.195 50.1939 39.5071 49.7366 38.9214 49.1583C38.3357 48.5799 37.8657 47.894 37.5116 47.1005C37.1574 46.307 36.9871 45.4664 37.0008 44.5787C37.0008 43.7179 37.1642 42.8975 37.4911 42.1175C37.818 41.3374 38.2744 40.6515 38.8601 40.0597C39.4458 39.4679 40.1269 38.9972 40.9033 38.6475C41.6797 38.2978 42.5107 38.1229 43.396 38.1229C44.1316 38.1229 44.8399 38.2238 45.521 38.4256C46.2021 38.6273 46.8423 38.9501 47.4416 39.3939L47.3599 19.2196C47.3599 18.8296 47.4757 18.4665 47.7072 18.1302C47.9388 17.794 48.2521 17.5452 48.6471 17.3838L68.3642 10.121C68.5686 10.0403 68.7933 10 69.0385 10C69.5834 10 70.0465 10.1883 70.4279 10.5649C70.8093 10.9415 71 11.3987 71 11.9367ZM49.9957 19.6433V25.9377L68.3847 19.1591V12.8647L49.9957 19.6433ZM68.3847 41.9964C68.3847 41.4719 68.2825 40.9742 68.0782 40.5035C67.8739 40.0328 67.5946 39.6226 67.2405 39.2729C66.8863 38.9232 66.464 38.6407 65.9737 38.4256C65.4833 38.2104 64.9793 38.1095 64.4617 38.1229C63.9304 38.1229 63.4264 38.2238 62.9497 38.4256C62.4729 38.6273 62.0575 38.903 61.7033 39.2527C61.3492 39.6024 61.0631 40.0193 60.8452 40.5035C60.6272 40.9877 60.5251 41.4853 60.5387 41.9964C60.5387 42.5209 60.6409 43.0186 60.8452 43.4893C61.0495 43.96 61.3287 44.3702 61.6829 44.7199C62.0371 45.0696 62.4593 45.3521 62.9497 45.5673C63.4401 45.7824 63.9441 45.8833 64.4617 45.8699C64.9929 45.8699 65.4969 45.769 65.9737 45.5673C66.4504 45.3655 66.8659 45.0898 67.22 44.7401C67.5742 44.3904 67.8602 43.9735 68.0782 43.4893C68.2961 43.0051 68.3983 42.5075 68.3847 41.9964ZM47.4621 44.5585C47.4621 44.034 47.3599 43.5364 47.1556 43.0656C46.9513 42.5949 46.672 42.1847 46.3179 41.835C45.9637 41.4853 45.5414 41.2096 45.0511 41.0079C44.5607 40.8061 44.0567 40.7053 43.5391 40.7053C43.0078 40.7053 42.5038 40.8061 42.0271 41.0079C41.5503 41.2096 41.1349 41.4853 40.7807 41.835C40.4266 42.1847 40.1405 42.6016 39.9226 43.0858C39.7046 43.57 39.6025 44.0676 39.6161 44.5787C39.6161 45.1032 39.7182 45.6009 39.9226 46.0716C40.1269 46.5423 40.4061 46.9526 40.7603 47.3022C41.1144 47.6519 41.5367 47.9344 42.0271 48.1496C42.5175 48.3648 43.0215 48.4656 43.5391 48.4522C44.0839 48.4522 44.5947 48.3513 45.0715 48.1496C45.5482 47.9478 45.9637 47.6654 46.3179 47.3022C46.672 46.9391 46.9513 46.5289 47.1556 46.0716C47.3599 45.6143 47.4621 45.11 47.4621 44.5585Z" fill="white" fill-opacity="0.5442"/>
</svg>
