<!-- Exported by Character Map UWP -->
<svg height="100%" viewBox="64 64 896 896" width="100%" xmlns="http://www.w3.org/2000/svg" xmlns:xlink="http://www.w3.org/1999/xlink">
  <path d="M252,960C227,960 203.083,954.917 180.25,944.75C157.417,934.583 137.417,920.917 120.25,903.75C103.083,886.583 89.4167,866.583 79.25,843.75C69.0833,820.917 64,797 64,772L64,252C64,227 69.0833,203.083 79.25,180.25C89.4167,157.417 103.083,137.417 120.25,120.25C137.417,103.083 157.417,89.4167 180.25,79.25C203.083,69.0834 227,64.0001 252,64L772,64C797,64.0001 820.917,69.0834 843.75,79.25C866.583,89.4167 886.583,103.083 903.75,120.25C920.917,137.417 934.583,157.417 944.75,180.25C954.917,203.083 960,227 960,252L960,772C960,797 954.917,820.917 944.75,843.75C934.583,866.583 920.917,886.583 903.75,903.75C886.583,920.917 866.583,934.583 843.75,944.75C820.917,954.917 797,960 772,960ZM770.5,896C787.167,896 803.083,892.583 818.25,885.75C833.417,878.917 846.75,869.75 858.25,858.25C869.75,846.75 878.917,833.417 885.75,818.25C892.583,803.083 896,787.167 896,770.5L896,253.5C896,236.833 892.583,220.917 885.75,205.75C878.917,190.583 869.75,177.25 858.25,165.75C846.75,154.25 833.417,145.083 818.25,138.25C803.083,131.417 787.167,128 770.5,128L253.5,128C236.833,128 220.917,131.417 205.75,138.25C190.583,145.083 177.25,154.25 165.75,165.75C154.25,177.25 145.083,190.583 138.25,205.75C131.417,220.917 128,236.833 128,253.5L128,770.5C128,787.167 131.417,803.083 138.25,818.25C145.083,833.417 154.25,846.75 165.75,858.25C177.25,869.75 190.583,878.917 205.75,885.75C220.917,892.583 236.833,896 253.5,896ZM192,512C192,467.667 200.333,426.083 217,387.25C233.667,348.417 256.5,314.5 285.5,285.5C314.5,256.5 348.417,233.667 387.25,217C426.083,200.333 467.667,192 512,192C556.333,192 597.917,200.333 636.75,217C675.583,233.667 709.5,256.5 738.5,285.5C767.5,314.5 790.333,348.417 807,387.25C823.667,426.083 832,467.667 832,512C832,556.333 823.667,597.917 807,636.75C790.333,675.583 767.5,709.5 738.5,738.5C709.5,767.5 675.583,790.333 636.75,807C597.917,823.667 556.333,832 512,832C467.667,832 426.083,823.667 387.25,807C348.417,790.333 314.5,767.5 285.5,738.5C256.5,709.5 233.667,675.583 217,636.75C200.333,597.917 192,556.333 192,512ZM768,512L768,507C768,472.333 761.083,439.75 747.25,409.25C733.417,378.75 714.75,352.167 691.25,329.5C667.75,306.833 640.583,288.917 609.75,275.75C578.917,262.583 546.333,256 512,256C476.667,256 443.417,262.667 412.25,276C381.083,289.333 353.917,307.583 330.75,330.75C307.583,353.917 289.333,381.083 276,412.25C262.667,443.417 256,476.667 256,512C256,547.333 262.667,580.583 276,611.75C289.333,642.917 307.583,670.083 330.75,693.25C353.917,716.417 381.083,734.667 412.25,748C443.417,761.333 476.667,768 512,768C547.333,768 580.583,761.333 611.75,748C642.917,734.667 670.083,716.417 693.25,693.25C716.417,670.083 734.667,642.917 748,611.75C761.333,580.583 768,547.333 768,512ZM448,512C448,503 449.667,494.667 453,487C456.333,479.333 460.917,472.583 466.75,466.75C472.583,460.917 479.333,456.333 487,453C494.667,449.667 503,448 512,448C520.667,448 528.917,449.667 536.75,453C544.583,456.333 551.417,460.917 557.25,466.75C563.083,472.583 567.667,479.417 571,487.25C574.333,495.083 576,503.333 576,512C576,521 574.333,529.333 571,537C567.667,544.667 563.083,551.417 557.25,557.25C551.417,563.083 544.667,567.667 537,571C529.333,574.333 521,576 512,576C503,576 494.583,574.333 486.75,571C478.917,567.667 472.167,563.167 466.5,557.5C460.833,551.833 456.333,545.083 453,537.25C449.667,529.417 448,521 448,512Z" fill="#FFFFFF" fill-opacity="1">
  </path>
</svg>