<!-- Exported by Character Map UWP -->
<svg height="100%" viewBox="128 0 768 1024" width="100%" xmlns="http://www.w3.org/2000/svg" xmlns:xlink="http://www.w3.org/1999/xlink">
  <path d="M253.5,1024C236.833,1024 220.917,1020.58 205.75,1013.75C190.583,1006.92 177.25,997.75 165.75,986.25C154.25,974.75 145.083,961.417 138.25,946.25C131.417,931.083 128,915.167 128,898.5L128,125.5C128,108.833 131.417,92.9167 138.25,77.75C145.083,62.5834 154.25,49.2501 165.75,37.75C177.25,26.2501 190.583,17.0834 205.75,10.25C220.917,3.41669 236.833,0 253.5,0L770.5,0C787.167,0 803.083,3.41669 818.25,10.25C833.417,17.0834 846.75,26.2501 858.25,37.75C869.75,49.2501 878.917,62.5834 885.75,77.75C892.583,92.9167 896,108.833 896,125.5L896,898.5C896,915.167 892.583,931.083 885.75,946.25C878.917,961.417 869.75,974.75 858.25,986.25C846.75,997.75 833.417,1006.92 818.25,1013.75C803.083,1020.58 787.167,1024 770.5,1024ZM768,960C777,960 785.333,958.333 793,955C800.667,951.667 807.417,947.083 813.25,941.25C819.083,935.417 823.667,928.667 827,921C830.333,913.333 832,905 832,896L832,128C832,119.333 830.333,111.083 827,103.25C823.667,95.4167 819.083,88.5834 813.25,82.75C807.417,76.9167 800.583,72.3334 792.75,69C784.917,65.6667 776.667,64.0001 768,64L256,64C247,64.0001 238.667,65.6667 231,69C223.333,72.3334 216.583,76.9167 210.75,82.75C204.917,88.5834 200.333,95.3334 197,103C193.667,110.667 192,119 192,128L192,896C192,905 193.667,913.417 197,921.25C200.333,929.083 204.833,935.833 210.5,941.5C216.167,947.167 222.917,951.667 230.75,955C238.583,958.333 247,960 256,960ZM640,192C640,183 641.667,174.667 645,167C648.333,159.333 652.917,152.583 658.75,146.75C664.583,140.917 671.333,136.333 679,133C686.667,129.667 695,128 704,128C712.667,128 720.917,129.667 728.75,133C736.583,136.333 743.417,140.917 749.25,146.75C755.083,152.583 759.667,159.417 763,167.25C766.333,175.083 768,183.333 768,192C768,201 766.333,209.333 763,217C759.667,224.667 755.083,231.417 749.25,237.25C743.417,243.083 736.667,247.667 729,251C721.333,254.333 713,256 704,256C695,256 686.583,254.333 678.75,251C670.917,247.667 664.167,243.167 658.5,237.5C652.833,231.833 648.333,225.083 645,217.25C641.667,209.417 640,201 640,192ZM256,576L256,571C256,536.333 262.917,503.75 276.75,473.25C290.583,442.75 309.25,416.167 332.75,393.5C356.25,370.833 383.417,352.917 414.25,339.75C445.083,326.583 477.667,320 512,320C547.333,320 580.583,326.667 611.75,340C642.917,353.333 670.083,371.583 693.25,394.75C716.417,417.917 734.667,445.083 748,476.25C761.333,507.417 768,540.667 768,576C768,611.333 761.333,644.583 748,675.75C734.667,706.917 716.417,734.083 693.25,757.25C670.083,780.417 642.917,798.667 611.75,812C580.583,825.333 547.333,832 512,832C476.667,832 443.417,825.333 412.25,812C381.083,798.667 353.917,780.417 330.75,757.25C307.583,734.083 289.333,706.917 276,675.75C262.667,644.583 256,611.333 256,576ZM704,576L704,572C704,546 698.833,521.583 688.5,498.75C678.167,475.917 664.167,456 646.5,439C628.833,422 608.417,408.583 585.25,398.75C562.083,388.917 537.667,384 512,384C485.333,384 460.333,389 437,399C413.667,409 393.333,422.667 376,440C358.667,457.333 345,477.667 335,501C325,524.333 320,549.333 320,576C320,602.667 325,627.667 335,651C345,674.333 358.667,694.667 376,712C393.333,729.333 413.667,743 437,753C460.333,763 485.333,768 512,768C538.667,768 563.667,763 587,753C610.333,743 630.667,729.333 648,712C665.333,694.667 679,674.333 689,651C699,627.667 704,602.667 704,576Z" fill="#FFFFFF" fill-opacity="1">
  </path>
</svg>