<!-- Exported by Character Map UWP -->
<svg height="100%" viewBox="0 64 1024 896" width="100%" xmlns="http://www.w3.org/2000/svg" xmlns:xlink="http://www.w3.org/1999/xlink">
  <path d="M0,224C0,215.333 3.16667,207.833 9.5,201.5C15.8333,195.167 23.3333,192 32,192L515,192C518.667,173.667 525.417,156.667 535.25,141C545.083,125.333 557,111.833 571,100.5C585,89.1667 600.667,80.2501 618,73.75C635.333,67.2501 653.333,64.0001 672,64C690.667,64.0001 708.667,67.2501 726,73.75C743.333,80.2501 759,89.1667 773,100.5C787,111.833 798.917,125.333 808.75,141C818.583,156.667 825.333,173.667 829,192L992,192C1000.67,192 1008.17,195.167 1014.5,201.5C1020.83,207.833 1024,215.333 1024,224C1024,232.667 1020.83,240.167 1014.5,246.5C1008.17,252.833 1000.67,256 992,256L829,256C825.333,274.333 818.583,291.333 808.75,307C798.917,322.667 787,336.167 773,347.5C759,358.833 743.333,367.75 726,374.25C708.667,380.75 690.667,384 672,384C653.333,384 635.333,380.75 618,374.25C600.667,367.75 585,358.833 571,347.5C557,336.167 545.083,322.667 535.25,307C525.417,291.333 518.667,274.333 515,256L32,256C23.3333,256 15.8333,252.833 9.5,246.5C3.16667,240.167 0,232.667 0,224ZM576,224C576,237 578.5,249.333 583.5,261C588.5,272.667 595.417,282.917 604.25,291.75C613.083,300.583 623.333,307.5 635,312.5C646.667,317.5 659,320 672,320C685,320 697.333,317.5 709,312.5C720.667,307.5 730.917,300.583 739.75,291.75C748.583,282.917 755.5,272.667 760.5,261C765.5,249.333 768,237 768,224C768,211 765.5,198.667 760.5,187C755.5,175.333 748.583,165.083 739.75,156.25C730.917,147.417 720.667,140.5 709,135.5C697.333,130.5 685,128 672,128C659,128 646.667,130.5 635,135.5C623.333,140.5 613.083,147.417 604.25,156.25C595.417,165.083 588.5,175.333 583.5,187C578.5,198.667 576,211 576,224ZM1024,800C1024,808.667 1020.83,816.167 1014.5,822.5C1008.17,828.833 1000.67,832 992,832L509,832C505.333,850.333 498.583,867.333 488.75,883C478.917,898.667 467,912.167 453,923.5C439,934.833 423.333,943.75 406,950.25C388.667,956.75 370.667,960 352,960C333.333,960 315.333,956.75 298,950.25C280.667,943.75 265,934.833 251,923.5C237,912.167 225.083,898.667 215.25,883C205.417,867.333 198.667,850.333 195,832L32,832C23.3333,832 15.8333,828.833 9.5,822.5C3.16667,816.167 0,808.667 0,800C0,791.333 3.16667,783.833 9.5,777.5C15.8333,771.167 23.3333,768 32,768L195,768C198.667,749.667 205.417,732.667 215.25,717C225.083,701.333 237,687.833 251,676.5C265,665.167 280.667,656.25 298,649.75C315.333,643.25 333.333,640 352,640C370.667,640 388.667,643.25 406,649.75C423.333,656.25 439,665.167 453,676.5C467,687.833 478.917,701.333 488.75,717C498.583,732.667 505.333,749.667 509,768L992,768C1000.67,768 1008.17,771.167 1014.5,777.5C1020.83,783.833 1024,791.333 1024,800ZM448,800C448,787 445.5,774.667 440.5,763C435.5,751.333 428.583,741.083 419.75,732.25C410.917,723.417 400.667,716.5 389,711.5C377.333,706.5 365,704 352,704C339,704 326.667,706.5 315,711.5C303.333,716.5 293.083,723.417 284.25,732.25C275.417,741.083 268.5,751.333 263.5,763C258.5,774.667 256,787 256,800C256,813 258.5,825.333 263.5,837C268.5,848.667 275.417,858.917 284.25,867.75C293.083,876.583 303.333,883.5 315,888.5C326.667,893.5 339,896 352,896C365,896 377.333,893.5 389,888.5C400.667,883.5 410.917,876.583 419.75,867.75C428.583,858.917 435.5,848.667 440.5,837C445.5,825.333 448,813 448,800Z" fill="#FFFFFF" fill-opacity="1">
  </path>
</svg>