<!-- Exported by Character Map UWP -->
<svg height="100%" viewBox="64 64 896 896" width="100%" xmlns="http://www.w3.org/2000/svg" xmlns:xlink="http://www.w3.org/1999/xlink">
  <path d="M160,704C147,704 134.667,701.5 123,696.5C111.333,691.5 101.083,684.583 92.25,675.75C83.4167,666.917 76.5,656.667 71.5,645C66.5,633.333 64,621 64,608L64,160C64,147 66.5,134.667 71.5,123C76.5,111.333 83.4167,101.083 92.25,92.25C101.083,83.4167 111.333,76.5001 123,71.5C134.667,66.5001 147,64.0001 160,64L608,64C621,64.0001 633.333,66.5001 645,71.5C656.667,76.5001 666.917,83.4167 675.75,92.25C684.583,101.083 691.5,111.333 696.5,123C701.5,134.667 704,147 704,160L704,197.5L640,219L640,160C640,151.333 636.833,143.833 630.5,137.5C624.167,131.167 616.667,128 608,128L160,128C151.333,128 143.833,131.167 137.5,137.5C131.167,143.833 128,151.333 128,160L128,608C128,616.667 131.167,624.167 137.5,630.5C143.833,636.833 151.333,640 160,640L377.5,640C381.833,640 384,642.167 384,646.5C384,649.5 382.667,651.5 380,652.5C365,659.167 351.5,666.25 339.5,673.75C327.5,681.25 316,691.333 305,704ZM256,256L192,256L192,192L256,192ZM576,256L512,256L512,192L576,192ZM320,832L320,829.5C320,812.833 323.417,796.917 330.25,781.75C337.083,766.583 346.25,753.25 357.75,741.75C369.25,730.25 382.583,721.083 397.75,714.25C412.917,707.417 428.833,704 445.5,704C457.5,704 469,705.333 480,708C491,710.667 501.667,715 512,721L512,363.5C512,352.833 515.083,343.417 521.25,335.25C527.417,327.083 535.333,321.333 545,318L897,200.5C902,198.833 907,198 912,198C925.333,198 936.667,202.667 946,212C955.333,221.333 960,232.667 960,246L960,770.5C960,787.833 956.5,804.083 949.5,819.25C942.5,834.417 933.167,847.667 921.5,859C909.833,870.333 896.25,879.333 880.75,886C865.25,892.667 849,896 832,896C814.333,896 797.75,892.583 782.25,885.75C766.75,878.917 753.25,869.75 741.75,858.25C730.25,846.75 721.083,833.25 714.25,817.75C707.417,802.25 704,785.667 704,768C704,751 707.333,734.75 714,719.25C720.667,703.75 729.667,690.167 741,678.5C752.333,666.833 765.583,657.5 780.75,650.5C795.917,643.5 812.167,640 829.5,640C841.5,640 853,641.333 864,644C875,646.667 885.667,651 896,657L896,428.5L576,535L576,834.5C576,851.833 572.5,868.083 565.5,883.25C558.5,898.417 549.167,911.667 537.5,923C525.833,934.333 512.25,943.333 496.75,950C481.25,956.667 465,960 448,960C430.333,960 413.75,956.583 398.25,949.75C382.75,942.917 369.25,933.75 357.75,922.25C346.25,910.75 337.083,897.25 330.25,881.75C323.417,866.25 320,849.667 320,832ZM576,375L576,467.5L896,361L896,268.5ZM256,448L192,448L192,320L256,320ZM256,576L192,576L192,512L256,512ZM896,768C896,759.333 894.333,751.083 891,743.25C887.667,735.417 883.083,728.583 877.25,722.75C871.417,716.917 864.583,712.333 856.75,709C848.917,705.667 840.667,704 832,704C823,704 814.667,705.667 807,709C799.333,712.333 792.583,716.917 786.75,722.75C780.917,728.583 776.333,735.333 773,743C769.667,750.667 768,759 768,768C768,777 769.667,785.417 773,793.25C776.333,801.083 780.833,807.833 786.5,813.5C792.167,819.167 798.917,823.667 806.75,827C814.583,830.333 823,832 832,832C841,832 849.333,830.333 857,827C864.667,823.667 871.417,819.083 877.25,813.25C883.083,807.417 887.667,800.667 891,793C894.333,785.333 896,777 896,768ZM512,832C512,823.333 510.333,815.083 507,807.25C503.667,799.417 499.083,792.583 493.25,786.75C487.417,780.917 480.583,776.333 472.75,773C464.917,769.667 456.667,768 448,768C439,768 430.667,769.667 423,773C415.333,776.333 408.583,780.917 402.75,786.75C396.917,792.583 392.333,799.333 389,807C385.667,814.667 384,823 384,832C384,841 385.667,849.417 389,857.25C392.333,865.083 396.833,871.833 402.5,877.5C408.167,883.167 414.917,887.667 422.75,891C430.583,894.333 439,896 448,896C457,896 465.333,894.333 473,891C480.667,887.667 487.417,883.083 493.25,877.25C499.083,871.417 503.667,864.667 507,857C510.333,849.333 512,841 512,832Z" fill="#FFFFFF" fill-opacity="1">
  </path>
</svg>