<!-- Exported by Character Map UWP -->
<svg height="100%" viewBox="0 128 1024 768" width="100%" xmlns="http://www.w3.org/2000/svg" xmlns:xlink="http://www.w3.org/1999/xlink">
  <path d="M125.5,896C108.833,896 92.9167,892.583 77.75,885.75C62.5833,878.917 49.25,869.75 37.75,858.25C26.25,846.75 17.0833,833.417 10.25,818.25C3.41667,803.083 0,787.167 0,770.5L0,253.5C0,236.833 3.41667,220.917 10.25,205.75C17.0833,190.583 26.25,177.25 37.75,165.75C49.25,154.25 62.5833,145.083 77.75,138.25C92.9167,131.417 108.833,128 125.5,128L898.5,128C915.167,128 931.083,131.417 946.25,138.25C961.417,145.083 974.75,154.25 986.25,165.75C997.75,177.25 1006.92,190.583 1013.75,205.75C1020.58,220.917 1024,236.833 1024,253.5L1024,770.5C1024,787.167 1020.58,803.083 1013.75,818.25C1006.92,833.417 997.75,846.75 986.25,858.25C974.75,869.75 961.417,878.917 946.25,885.75C931.083,892.583 915.167,896 898.5,896ZM896,832C905,832 913.333,830.333 921,827C928.667,823.667 935.417,819.083 941.25,813.25C947.083,807.417 951.667,800.667 955,793C958.333,785.333 960,777 960,768L960,256C960,247.333 958.333,239.083 955,231.25C951.667,223.417 947.083,216.583 941.25,210.75C935.417,204.917 928.583,200.333 920.75,197C912.917,193.667 904.667,192 896,192L128,192C119,192 110.667,193.667 103,197C95.3333,200.333 88.5833,204.917 82.75,210.75C76.9167,216.583 72.3333,223.333 69,231C65.6667,238.667 64,247 64,256L64,768C64,777 65.6667,785.417 69,793.25C72.3333,801.083 76.8333,807.833 82.5,813.5C88.1667,819.167 94.9167,823.667 102.75,827C110.583,830.333 119,832 128,832ZM128,384C128,375.333 131.167,367.833 137.5,361.5C143.833,355.167 151.333,352 160,352C213,352 262.75,362.083 309.25,382.25C355.75,402.417 396.417,429.917 431.25,464.75C466.083,499.583 493.583,540.25 513.75,586.75C533.917,633.25 544,683 544,736C544,744.667 540.833,752.167 534.5,758.5C528.167,764.833 520.667,768 512,768C503.333,768 495.833,764.833 489.5,758.5C483.167,752.167 480,744.667 480,736C480,678.667 465.667,625.167 437,575.5C422.667,550.833 405.583,528.667 385.75,509C365.917,489.333 344.083,472.583 320.25,458.75C296.417,444.917 270.917,434.333 243.75,427C216.583,419.667 188.667,416 160,416C151.333,416 143.833,412.833 137.5,406.5C131.167,400.167 128,392.667 128,384ZM320,732.5C320,710.833 315.667,690.5 307,671.5C298.333,652.5 286.667,635.917 272,621.75C257.333,607.583 240.333,596.417 221,588.25C201.667,580.083 181.333,576 160,576C151.333,576 143.833,572.833 137.5,566.5C131.167,560.167 128,552.667 128,544C128,533.333 131.583,525.333 138.75,520C145.917,514.667 154.333,512 164,512C193.333,512 221.25,518 247.75,530C274.25,542 297.583,558.083 317.75,578.25C337.917,598.417 354,621.75 366,648.25C378,674.75 384,702.667 384,732C384,741.667 381.333,750.083 376,757.25C370.667,764.417 362.667,768 352,768C341.667,768 333.75,764.5 328.25,757.5C322.75,750.5 320,742.167 320,732.5ZM128,720C128,706.667 132.667,695.333 142,686C151.333,676.667 162.667,672 176,672C189.333,672 200.667,676.667 210,686C219.333,695.333 224,706.667 224,720C224,733.333 219.333,744.667 210,754C200.667,763.333 189.333,768 176,768C162.667,768 151.333,763.333 142,754C132.667,744.667 128,733.333 128,720Z" fill="#FFFFFF" fill-opacity="1">
  </path>
</svg>