<svg viewBox="0 0 16 16" fill="none" xmlns="http://www.w3.org/2000/svg">
<g clip-path="url(#clip0_3320_104020)">
<path d="M8 3C7.4375 3 6.88281 3.05469 6.33594 3.16406C5.78906 3.27344 5.25521 3.4375 4.73438 3.65625C4.21354 3.875 3.72135 4.14062 3.25781 4.45312C2.79427 4.76562 2.36198 5.1224 1.96094 5.52344C1.76302 5.72135 1.58594 5.92708 1.42969 6.14062C1.27344 6.35417 1.10677 6.56771 0.929688 6.78125C0.867188 6.85417 0.807292 6.90885 0.75 6.94531C0.692708 6.98177 0.614583 7 0.515625 7C0.375 7 0.257812 6.95312 0.164062 6.85938C0.0703125 6.76562 0.0208333 6.64583 0.015625 6.5C0.015625 6.40104 0.0442708 6.30729 0.101562 6.21875C0.513021 5.5625 1.01042 4.97396 1.59375 4.45312C2.17708 3.93229 2.81771 3.48958 3.51562 3.125C4.21354 2.76042 4.9401 2.48177 5.69531 2.28906C6.45052 2.09635 7.21875 2 8 2C8.76562 2 9.53125 2.09635 10.2969 2.28906C11.0625 2.48177 11.7891 2.76042 12.4766 3.125C13.1641 3.48958 13.8021 3.93229 14.3906 4.45312C14.9792 4.97396 15.4818 5.5625 15.8984 6.21875C15.9557 6.30729 15.9844 6.40104 15.9844 6.5C15.9844 6.64062 15.9375 6.75781 15.8438 6.85156C15.75 6.94531 15.6302 6.99479 15.4844 7C15.3958 7 15.3203 6.98177 15.2578 6.94531C15.1953 6.90885 15.1328 6.85417 15.0703 6.78125C15.013 6.70833 14.9609 6.63542 14.9141 6.5625C14.8672 6.48958 14.8125 6.41406 14.75 6.33594C14.6406 6.1901 14.526 6.05208 14.4062 5.92188C14.2865 5.79167 14.1641 5.65885 14.0391 5.52344C13.638 5.1224 13.2057 4.76562 12.7422 4.45312C12.2786 4.14062 11.7891 3.8776 11.2734 3.66406C10.7578 3.45052 10.224 3.28646 9.67188 3.17188C9.11979 3.05729 8.5625 3 8 3ZM8 6C7.61458 6 7.23177 6.04167 6.85156 6.125C6.47135 6.20833 6.10677 6.32812 5.75781 6.48438C5.40885 6.64062 5.07552 6.83594 4.75781 7.07031C4.4401 7.30469 4.15365 7.5625 3.89844 7.84375C3.77344 7.98438 3.66146 8.13281 3.5625 8.28906C3.46354 8.44531 3.35417 8.59896 3.23438 8.75C3.17188 8.82812 3.11198 8.88802 3.05469 8.92969C2.9974 8.97135 2.91406 8.99479 2.80469 9C2.66927 9 2.55208 8.95052 2.45312 8.85156C2.35417 8.7526 2.30469 8.63542 2.30469 8.5C2.30469 8.41667 2.32552 8.33333 2.36719 8.25C2.63281 7.75521 2.97135 7.30729 3.38281 6.90625C3.79427 6.50521 4.25 6.16406 4.75 5.88281C5.25 5.60156 5.77604 5.38542 6.32812 5.23438C6.88021 5.08333 7.4375 5.00521 8 5C8.55208 5 9.10677 5.07552 9.66406 5.22656C10.2214 5.3776 10.75 5.59635 11.25 5.88281C11.75 6.16927 12.2057 6.51042 12.6172 6.90625C13.0286 7.30208 13.3672 7.75 13.6328 8.25C13.6745 8.33333 13.6953 8.41667 13.6953 8.5C13.6953 8.63542 13.6458 8.7526 13.5469 8.85156C13.4479 8.95052 13.3307 9 13.1953 9C13.0911 9 13.0104 8.97917 12.9531 8.9375C12.8958 8.89583 12.8333 8.83333 12.7656 8.75C12.651 8.59896 12.5443 8.44531 12.4453 8.28906C12.3464 8.13281 12.2318 7.98438 12.1016 7.84375C11.8464 7.55729 11.5625 7.29948 11.25 7.07031C10.9375 6.84115 10.6042 6.64844 10.25 6.49219C9.89583 6.33594 9.52865 6.21354 9.14844 6.125C8.76823 6.03646 8.38542 5.99479 8 6ZM8 9C7.70833 9 7.42969 9.03906 7.16406 9.11719C6.89844 9.19531 6.64062 9.3125 6.39062 9.46875C6.25 9.55729 6.13021 9.64583 6.03125 9.73438C5.93229 9.82292 5.84115 9.91667 5.75781 10.0156C5.67448 10.1146 5.59635 10.2188 5.52344 10.3281C5.45052 10.4375 5.3724 10.5651 5.28906 10.7109C5.23698 10.7995 5.17448 10.8698 5.10156 10.9219C5.02865 10.974 4.9401 11 4.83594 11C4.69531 11 4.57812 10.9505 4.48438 10.8516C4.39062 10.7526 4.34115 10.6328 4.33594 10.4922C4.33594 10.4245 4.35156 10.3542 4.38281 10.2812C4.53385 9.94792 4.73958 9.64062 5 9.35938C5.26042 9.07812 5.55208 8.83854 5.875 8.64062C6.19792 8.44271 6.54167 8.28646 6.90625 8.17188C7.27083 8.05729 7.63542 8 8 8C8.375 8 8.74479 8.05469 9.10938 8.16406C9.47396 8.27344 9.8151 8.42708 10.1328 8.625C10.4505 8.82292 10.7396 9.0625 11 9.34375C11.2604 9.625 11.4661 9.9375 11.6172 10.2812C11.6484 10.3542 11.6641 10.4245 11.6641 10.4922C11.6641 10.6276 11.6146 10.7448 11.5156 10.8438C11.4167 10.9427 11.2995 10.9948 11.1641 11C11.0599 11 10.9714 10.974 10.8984 10.9219C10.8255 10.8698 10.763 10.7995 10.7109 10.7109C10.6276 10.5703 10.5495 10.4453 10.4766 10.3359C10.4036 10.2266 10.3255 10.1198 10.2422 10.0156C10.1589 9.91146 10.0677 9.81771 9.96875 9.73438C9.86979 9.65104 9.7474 9.5625 9.60156 9.46875C9.35677 9.31771 9.10156 9.20312 8.83594 9.125C8.57031 9.04688 8.29167 9.00521 8 9ZM6.75 12C6.75 11.8281 6.78385 11.6667 6.85156 11.5156C6.91927 11.3646 7.00781 11.2344 7.11719 11.125C7.22656 11.0156 7.35938 10.9245 7.51562 10.8516C7.67188 10.7786 7.83333 10.7448 8 10.75C8.17188 10.75 8.33333 10.7839 8.48438 10.8516C8.63542 10.9193 8.76562 11.0078 8.875 11.1172C8.98438 11.2266 9.07552 11.3594 9.14844 11.5156C9.22135 11.6719 9.25521 11.8333 9.25 12C9.25 12.1719 9.21615 12.3333 9.14844 12.4844C9.08073 12.6354 8.99219 12.7656 8.88281 12.875C8.77344 12.9844 8.64062 13.0755 8.48438 13.1484C8.32812 13.2214 8.16667 13.2552 8 13.25C7.82812 13.25 7.66667 13.2161 7.51562 13.1484C7.36458 13.0807 7.23438 12.9922 7.125 12.8828C7.01562 12.7734 6.92448 12.6406 6.85156 12.4844C6.77865 12.3281 6.74479 12.1667 6.75 12Z" fill="black" fill-opacity="0.3614"/>
<path d="M8 6C7.61458 6 7.23177 6.04167 6.85156 6.125C6.47135 6.20833 6.10677 6.32812 5.75781 6.48438C5.40885 6.64062 5.07552 6.83594 4.75781 7.07031C4.4401 7.30469 4.15365 7.5625 3.89844 7.84375C3.77344 7.98438 3.66146 8.13281 3.5625 8.28906C3.46354 8.44531 3.35417 8.59896 3.23438 8.75C3.17188 8.82812 3.11198 8.88802 3.05469 8.92969C2.9974 8.97135 2.91406 8.99479 2.80469 9C2.66927 9 2.55208 8.95052 2.45312 8.85156C2.35417 8.7526 2.30469 8.63542 2.30469 8.5C2.30469 8.41667 2.32552 8.33333 2.36719 8.25C2.63281 7.75521 2.97135 7.30729 3.38281 6.90625C3.79427 6.50521 4.25 6.16406 4.75 5.88281C5.25 5.60156 5.77604 5.38542 6.32812 5.23438C6.88021 5.08333 7.4375 5.00521 8 5C8.55208 5 9.10677 5.07552 9.66406 5.22656C10.2214 5.3776 10.75 5.59635 11.25 5.88281C11.75 6.16927 12.2057 6.51042 12.6172 6.90625C13.0286 7.30208 13.3672 7.75 13.6328 8.25C13.6745 8.33333 13.6953 8.41667 13.6953 8.5C13.6953 8.63542 13.6458 8.7526 13.5469 8.85156C13.4479 8.95052 13.3307 9 13.1953 9C13.0911 9 13.0104 8.97917 12.9531 8.9375C12.8958 8.89583 12.8333 8.83333 12.7656 8.75C12.651 8.59896 12.5443 8.44531 12.4453 8.28906C12.3464 8.13281 12.2318 7.98438 12.1016 7.84375C11.8464 7.55729 11.5625 7.29948 11.25 7.07031C10.9375 6.84115 10.6042 6.64844 10.25 6.49219C9.89583 6.33594 9.52865 6.21354 9.14844 6.125C8.76823 6.03646 8.38542 5.99479 8 6ZM8 9C7.70833 9 7.42969 9.03906 7.16406 9.11719C6.89844 9.19531 6.64062 9.3125 6.39062 9.46875C6.25 9.55729 6.13021 9.64583 6.03125 9.73438C5.93229 9.82292 5.84115 9.91667 5.75781 10.0156C5.67448 10.1146 5.59635 10.2188 5.52344 10.3281C5.45052 10.4375 5.3724 10.5651 5.28906 10.7109C5.23698 10.7995 5.17448 10.8698 5.10156 10.9219C5.02865 10.974 4.9401 11 4.83594 11C4.69531 11 4.57812 10.9505 4.48438 10.8516C4.39062 10.7526 4.34115 10.6328 4.33594 10.4922C4.33594 10.4245 4.35156 10.3542 4.38281 10.2812C4.53385 9.94792 4.73958 9.64062 5 9.35938C5.26042 9.07812 5.55208 8.83854 5.875 8.64062C6.19792 8.44271 6.54167 8.28646 6.90625 8.17188C7.27083 8.05729 7.63542 8 8 8C8.375 8 8.74479 8.05469 9.10938 8.16406C9.47396 8.27344 9.8151 8.42708 10.1328 8.625C10.4505 8.82292 10.7396 9.0625 11 9.34375C11.2604 9.625 11.4661 9.9375 11.6172 10.2812C11.6484 10.3542 11.6641 10.4245 11.6641 10.4922C11.6641 10.6276 11.6146 10.7448 11.5156 10.8438C11.4167 10.9427 11.2995 10.9948 11.1641 11C11.0599 11 10.9714 10.974 10.8984 10.9219C10.8255 10.8698 10.763 10.7995 10.7109 10.7109C10.6276 10.5703 10.5495 10.4453 10.4766 10.3359C10.4036 10.2266 10.3255 10.1198 10.2422 10.0156C10.1589 9.91146 10.0677 9.81771 9.96875 9.73438C9.86979 9.65104 9.7474 9.5625 9.60156 9.46875C9.35677 9.31771 9.10156 9.20312 8.83594 9.125C8.57031 9.04688 8.29167 9.00521 8 9ZM6.75 12C6.75 11.8281 6.78385 11.6667 6.85156 11.5156C6.91927 11.3646 7.00781 11.2344 7.11719 11.125C7.22656 11.0156 7.35938 10.9245 7.51562 10.8516C7.67188 10.7786 7.83333 10.7448 8 10.75C8.17188 10.75 8.33333 10.7839 8.48438 10.8516C8.63542 10.9193 8.76562 11.0078 8.875 11.1172C8.98438 11.2266 9.07552 11.3594 9.14844 11.5156C9.22135 11.6719 9.25521 11.8333 9.25 12C9.25 12.1719 9.21615 12.3333 9.14844 12.4844C9.08073 12.6354 8.99219 12.7656 8.88281 12.875C8.77344 12.9844 8.64062 13.0755 8.48438 13.1484C8.32812 13.2214 8.16667 13.2552 8 13.25C7.82812 13.25 7.66667 13.2161 7.51562 13.1484C7.36458 13.0807 7.23438 12.9922 7.125 12.8828C7.01562 12.7734 6.92448 12.6406 6.85156 12.4844C6.77865 12.3281 6.74479 12.1667 6.75 12Z" fill="black" fill-opacity="0.8956"/>
</g>
<defs>
<clipPath id="clip0_3320_104020">
<rect width="16" height="16" fill="white"/>
</clipPath>
</defs>
</svg>
