<svg viewBox="0 0 16 16" fill="none" xmlns="http://www.w3.org/2000/svg">
<g clip-path="url(#clip0_3732_154257)">
<path d="M6.9375 15C7.07812 15.1875 7.23177 15.3646 7.39844 15.5312C7.5651 15.6979 7.73958 15.8542 7.92188 16H2.9375C2.54688 16 2.17448 15.9219 1.82031 15.7656C1.46615 15.6094 1.15365 15.3958 0.882812 15.125C0.611979 14.8542 0.398438 14.5417 0.242188 14.1875C0.0859375 13.8333 0.00520833 13.4583 0 13.0625V2.9375C0 2.54688 0.078125 2.17448 0.234375 1.82031C0.390625 1.46615 0.604167 1.15365 0.875 0.882812C1.14583 0.611979 1.45833 0.398438 1.8125 0.242188C2.16667 0.0859375 2.54167 0.00520833 2.9375 0H6.46094C6.85677 0 7.23958 0.0755208 7.60938 0.226562C7.97917 0.377604 8.30469 0.59375 8.58594 0.875L11.125 3.41406C11.4583 3.7526 11.6875 4.11458 11.8125 4.5C11.9375 4.88542 12 5.3099 12 5.77344C11.8333 5.75781 11.6667 5.75 11.5 5.75C11.3281 5.75 11.1615 5.75781 11 5.77344C11 5.44531 10.9635 5.14844 10.8906 4.88281C10.8177 4.61719 10.6589 4.36458 10.4141 4.125L7.875 1.58594C7.6875 1.39844 7.47135 1.25521 7.22656 1.15625C6.98177 1.05729 6.72656 1.00521 6.46094 1H2.96094C2.70052 1 2.45312 1.05208 2.21875 1.15625C1.98438 1.26042 1.77604 1.40365 1.59375 1.58594C1.41146 1.76823 1.26823 1.97656 1.16406 2.21094C1.0599 2.44531 1.00521 2.69531 1 2.96094V13.0391C1 13.3099 1.05469 13.5625 1.16406 13.7969C1.27344 14.0312 1.41927 14.2396 1.60156 14.4219C1.78385 14.6042 1.99479 14.7448 2.23438 14.8438C2.47396 14.9427 2.72917 14.9948 3 15H6.9375ZM4 10V11.5C4 11.6354 4.04948 11.7526 4.14844 11.8516C4.2474 11.9505 4.36458 12 4.5 12H5.77344C5.78906 12.1667 5.8099 12.3333 5.83594 12.5C5.86198 12.6667 5.89844 12.8333 5.94531 13H4.5C4.29688 13 4.10417 12.9609 3.92188 12.8828C3.73958 12.8047 3.58073 12.6979 3.44531 12.5625C3.3099 12.4271 3.20052 12.2656 3.11719 12.0781C3.03385 11.8906 2.99479 11.6979 3 11.5V8.5C3 8.29688 3.03906 8.10417 3.11719 7.92188C3.19531 7.73958 3.30208 7.58073 3.4375 7.44531C3.57292 7.3099 3.73438 7.20052 3.92188 7.11719C4.10938 7.03385 4.30208 6.99479 4.5 7H7.5C7.625 7 7.7474 7.01562 7.86719 7.04688C7.39844 7.42708 7.0026 7.86979 6.67969 8.375C6.35677 8.88021 6.11198 9.42188 5.94531 10H4ZM16 11.5C16 12.1198 15.8828 12.7031 15.6484 13.25C15.4141 13.7969 15.0911 14.2734 14.6797 14.6797C14.2682 15.0859 13.7917 15.4062 13.25 15.6406C12.7083 15.875 12.125 15.9948 11.5 16C10.875 16 10.2891 15.8828 9.74219 15.6484C9.19531 15.4141 8.71875 15.0938 8.3125 14.6875C7.90625 14.2812 7.58594 13.8047 7.35156 13.2578C7.11719 12.7109 7 12.125 7 11.5C7 10.8802 7.11719 10.2969 7.35156 9.75C7.58594 9.20312 7.90885 8.72656 8.32031 8.32031C8.73177 7.91406 9.20833 7.59375 9.75 7.35938C10.2917 7.125 10.875 7.00521 11.5 7C11.9115 7 12.3073 7.05208 12.6875 7.15625C13.0677 7.26042 13.4271 7.41146 13.7656 7.60938C14.1042 7.80729 14.4089 8.04427 14.6797 8.32031C14.9505 8.59635 15.1849 8.90104 15.3828 9.23438C15.5807 9.56771 15.7318 9.92448 15.8359 10.3047C15.9401 10.6849 15.9948 11.0833 16 11.5ZM4 9H6V8H4.5C4.36458 8 4.2474 8.04948 4.14844 8.14844C4.04948 8.2474 4 8.36458 4 8.5V9ZM8.70312 13.5938L13.5938 8.70312C13.276 8.45833 12.9375 8.28125 12.5781 8.17188C12.2188 8.0625 11.8385 8.00521 11.4375 8C10.9792 8 10.5443 8.09375 10.1328 8.28125C9.72135 8.46875 9.35677 8.71875 9.03906 9.03125C8.72135 9.34375 8.46875 9.70833 8.28125 10.125C8.09375 10.5417 8 10.9792 8 11.4375C8 11.8333 8.05469 12.2109 8.16406 12.5703C8.27344 12.9297 8.45312 13.2708 8.70312 13.5938ZM14.2969 9.40625L9.40625 14.2969C9.72396 14.5417 10.0625 14.7188 10.4219 14.8281C10.7812 14.9375 11.1615 14.9948 11.5625 15C12.0208 15 12.4557 14.9062 12.8672 14.7188C13.2786 14.5312 13.6432 14.2812 13.9609 13.9688C14.2786 13.6562 14.5312 13.2917 14.7188 12.875C14.9062 12.4583 15 12.0208 15 11.5625C15 11.1667 14.9453 10.7891 14.8359 10.4297C14.7266 10.0703 14.5469 9.72917 14.2969 9.40625Z" fill="black" fill-opacity="0.8956"/>
</g>
<defs>
<clipPath id="clip0_3732_154257">
<rect width="16" height="16" fill="white"/>
</clipPath>
</defs>
</svg>
