<!-- Exported by Character Map UWP -->
<svg height="100%" viewBox="64 0 896 1024" width="100%" xmlns="http://www.w3.org/2000/svg" xmlns:xlink="http://www.w3.org/1999/xlink">
  <path d="M64,480L64,192C64,182.667 66.5,175.75 71.5,171.25C76.5,166.75 83.1667,163.167 91.5,160.5C98.8333,158.167 106.417,156.583 114.25,155.75C122.083,154.917 129.833,153.833 137.5,152.5C150.167,150.167 162.75,147.583 175.25,144.75C187.75,141.917 200.333,138.667 213,135C252.333,124 290.417,110.5 327.25,94.5C364.083,78.5 400.333,60.5 436,40.5C441,37.5 445.833,34.6667 450.5,32L479.5,14C484.5,11 489.333,8.16669 494,5.5C499.667,1.83337 505.667,0 512,0C518.333,0 524.333,1.83337 530,5.5C535,8.16669 539.833,11 544.5,14L573.5,32C578.5,34.6667 583.333,37.5 588,40.5C623.667,60.5 659.917,78.5 696.75,94.5C733.583,110.5 771.667,124 811,135C823.667,138.667 836.25,141.917 848.75,144.75C861.25,147.583 873.833,150.167 886.5,152.5C894.167,153.833 901.917,154.917 909.75,155.75C917.583,156.583 925.167,158.167 932.5,160.5C940.833,163.167 947.5,166.75 952.5,171.25C957.5,175.75 960,182.667 960,192L960,480C960,550.667 948.833,614.167 926.5,670.5C904.167,726.833 873.417,777.083 834.25,821.25C795.083,865.417 748.917,904 695.75,937C642.583,970 585.167,998.333 523.5,1022C520.5,1023.33 516.667,1024 512,1024C510.333,1024 508.417,1023.83 506.25,1023.5C504.083,1023.17 502.167,1022.67 500.5,1022C438.833,999 381.5,970.917 328.5,937.75C275.5,904.583 229.333,865.75 190,821.25C150.667,776.75 119.833,726.25 97.5,669.75C75.1667,613.25 64,550 64,480ZM896,480L896,219.5C827.333,207.833 760.75,189.5 696.25,164.5C631.75,139.5 570.333,108 512,70C453.667,108 392.25,139.5 327.75,164.5C263.25,189.5 196.667,207.833 128,219.5L128,480C128,542.333 137.833,598.25 157.5,647.75C177.167,697.25 204.25,741.333 238.75,780C273.25,818.667 313.917,852.583 360.75,881.75C407.583,910.917 458,936.167 512,957.5C566,936.167 616.333,910.917 663,881.75C709.667,852.583 750.25,818.667 784.75,780C819.25,741.333 846.417,697.25 866.25,647.75C886.083,598.25 896,542.333 896,480ZM480,608L480,288C480,279.333 483.167,271.833 489.5,265.5C495.833,259.167 503.333,256 512,256C520.667,256 528.167,259.167 534.5,265.5C540.833,271.833 544,279.333 544,288L544,608C544,616.667 540.833,624.167 534.5,630.5C528.167,636.833 520.667,640 512,640C503.333,640 495.833,636.833 489.5,630.5C483.167,624.167 480,616.667 480,608ZM464,752C464,738.667 468.667,727.333 478,718C487.333,708.667 498.667,704 512,704C525.333,704 536.667,708.667 546,718C555.333,727.333 560,738.667 560,752C560,765.333 555.333,776.667 546,786C536.667,795.333 525.333,800 512,800C498.667,800 487.333,795.333 478,786C468.667,776.667 464,765.333 464,752Z" fill="#FFFFFF" fill-opacity="1">
  </path>
</svg>