<!-- Exported by Character Map UWP -->
<svg height="100%" viewBox="128 0 768 1024" width="100%" xmlns="http://www.w3.org/2000/svg" xmlns:xlink="http://www.w3.org/1999/xlink">
  <path d="M768,384L770.5,384C787.167,384 803.083,387.417 818.25,394.25C833.417,401.083 846.75,410.25 858.25,421.75C869.75,433.25 878.917,446.583 885.75,461.75C892.583,476.917 896,492.833 896,509.5L896,898.5C896,915.167 892.583,931.083 885.75,946.25C878.917,961.417 869.75,974.75 858.25,986.25C846.75,997.75 833.417,1006.92 818.25,1013.75C803.083,1020.58 787.167,1024 770.5,1024L253.5,1024C236.833,1024 220.917,1020.58 205.75,1013.75C190.583,1006.92 177.25,997.75 165.75,986.25C154.25,974.75 145.083,961.417 138.25,946.25C131.417,931.083 128,915.167 128,898.5L128,509.5C128,493.167 131.333,477.5 138,462.5C144.667,447.5 153.75,434.167 165.25,422.5C176.75,410.833 189.917,401.5 204.75,394.5C219.583,387.5 235.333,384 252,384L256,384L256,256C256,220.667 262.667,187.417 276,156.25C289.333,125.083 307.583,97.9167 330.75,74.75C353.917,51.5834 381.083,33.3334 412.25,20C443.417,6.66669 476.667,0 512,0C537.667,0 562.5,3.75 586.5,11.25C610.5,18.75 632.833,29.3334 653.5,43C674.167,56.6667 692.583,73.0834 708.75,92.25C724.917,111.417 738,132.833 748,156.5C761.333,188.833 768,222 768,256ZM384,384L640,384L640,256C640,238.333 636.667,221.75 630,206.25C623.333,190.75 614.167,177.167 602.5,165.5C590.833,153.833 577.25,144.667 561.75,138C546.25,131.333 529.667,128 512,128C494.333,128 477.75,131.333 462.25,138C446.75,144.667 433.167,153.833 421.5,165.5C409.833,177.167 400.667,190.75 394,206.25C387.333,221.75 384,238.333 384,256ZM576,704C576,695.333 574.333,687.083 571,679.25C567.667,671.417 563.083,664.583 557.25,658.75C551.417,652.917 544.583,648.333 536.75,645C528.917,641.667 520.667,640 512,640C503,640 494.667,641.667 487,645C479.333,648.333 472.583,652.917 466.75,658.75C460.917,664.583 456.333,671.333 453,679C449.667,686.667 448,695 448,704C448,713 449.667,721.417 453,729.25C456.333,737.083 460.833,743.833 466.5,749.5C472.167,755.167 478.917,759.667 486.75,763C494.583,766.333 503,768 512,768C521,768 529.333,766.333 537,763C544.667,759.667 551.417,755.083 557.25,749.25C563.083,743.417 567.667,736.667 571,729C574.333,721.333 576,713 576,704Z" fill="#FFFFFF" fill-opacity="1">
  </path>
</svg>