<svg viewBox="0 0 16 16" fill="none" xmlns="http://www.w3.org/2000/svg">
<path d="M12.5 2C12.6354 2 12.7526 2.04948 12.8516 2.14844C12.9505 2.2474 13 2.36458 13 2.5V13.5C13 13.6354 12.9505 13.7526 12.8516 13.8516C12.7526 13.9505 12.6354 14 12.5 14C12.3646 14 12.2474 13.9505 12.1484 13.8516C12.0495 13.7526 12 13.6354 12 13.5V2.5C12 2.36458 12.0495 2.2474 12.1484 2.14844C12.2474 2.04948 12.3646 2 12.5 2ZM9.5 5C9.63542 5 9.7526 5.04948 9.85156 5.14844C9.95052 5.2474 10 5.36458 10 5.5V13.5C10 13.6354 9.95052 13.7526 9.85156 13.8516C9.7526 13.9505 9.63542 14 9.5 14C9.36458 14 9.2474 13.9505 9.14844 13.8516C9.04948 13.7526 9 13.6354 9 13.5V5.5C9 5.36458 9.04948 5.2474 9.14844 5.14844C9.2474 5.04948 9.36458 5 9.5 5ZM6.5 8C6.63542 8 6.7526 8.04948 6.85156 8.14844C6.95052 8.2474 7 8.36458 7 8.5V13.5C7 13.6354 6.95052 13.7526 6.85156 13.8516C6.7526 13.9505 6.63542 14 6.5 14C6.36458 14 6.2474 13.9505 6.14844 13.8516C6.04948 13.7526 6 13.6354 6 13.5V8.5C6 8.36458 6.04948 8.2474 6.14844 8.14844C6.2474 8.04948 6.36458 8 6.5 8ZM3.5 11C3.63542 11 3.7526 11.0495 3.85156 11.1484C3.95052 11.2474 4 11.3646 4 11.5V13.5C4 13.6354 3.95052 13.7526 3.85156 13.8516C3.7526 13.9505 3.63542 14 3.5 14C3.36458 14 3.2474 13.9505 3.14844 13.8516C3.04948 13.7526 3 13.6354 3 13.5V11.5C3 11.3646 3.04948 11.2474 3.14844 11.1484C3.2474 11.0495 3.36458 11 3.5 11Z" fill="white"/>
</svg>
