<!-- Exported by Character Map UWP -->
<svg height="100%" viewBox="0 0 1024 1024" width="100%" xmlns="http://www.w3.org/2000/svg" xmlns:xlink="http://www.w3.org/1999/xlink">
  <path d="M444,960C453,972 462.833,983.333 473.5,994C484.167,1004.67 495.333,1014.67 507,1024L188,1024C163,1024 139.083,1018.92 116.25,1008.75C93.4167,998.583 73.4167,984.917 56.25,967.75C39.0833,950.583 25.4167,930.583 15.25,907.75C5.08333,884.917 0,861 0,836L0,188C0,163 5.08333,139.083 15.25,116.25C25.4167,93.4167 39.0833,73.4167 56.25,56.25C73.4167,39.0834 93.4167,25.4167 116.25,15.25C139.083,5.08337 163,0 188,0L413.5,0C438.833,0 463.333,4.83337 487,14.5C510.667,24.1667 531.5,38 549.5,56L712,218.5C733.333,240.167 748,263.333 756,288C764,312.667 768,339.833 768,369.5C757.333,368.5 746.667,368 736,368C725,368 714.333,368.5 704,369.5C704,348.5 701.583,329.5 696.75,312.5C691.917,295.5 681.833,279.333 666.5,264L504,101.5C492,89.5001 478.167,80.2501 462.5,73.75C446.833,67.2501 430.5,64.0001 413.5,64L189.5,64C172.833,64.0001 156.917,67.4167 141.75,74.25C126.583,81.0834 113.25,90.25 101.75,101.75C90.25,113.25 81.0833,126.583 74.25,141.75C67.4167,156.917 64,172.833 64,189.5L64,834.5C64,851.833 67.5,868.083 74.5,883.25C81.5,898.417 90.8333,911.667 102.5,923C114.167,934.333 127.75,943.333 143.25,950C158.75,956.667 175,960 192,960ZM256,640L256,736C256,744.667 259.167,752.167 265.5,758.5C271.833,764.833 279.333,768 288,768L369.5,768C370.5,778.667 371.833,789.333 373.5,800C375.167,810.667 377.5,821.333 380.5,832L288,832C275,832 262.667,829.5 251,824.5C239.333,819.5 229.083,812.583 220.25,803.75C211.417,794.917 204.5,784.667 199.5,773C194.5,761.333 192,749 192,736L192,544C192,531 194.5,518.667 199.5,507C204.5,495.333 211.417,485.083 220.25,476.25C229.083,467.417 239.333,460.5 251,455.5C262.667,450.5 275,448 288,448L480,448C488,448 495.833,449 503.5,451C473.5,475.333 448.083,503.667 427.25,536C406.417,568.333 390.833,603 380.5,640ZM1024,736C1024,775.667 1016.42,813 1001.25,848C986.083,883 965.5,913.5 939.5,939.5C913.5,965.5 883,986.083 848,1001.25C813,1016.42 775.667,1024 736,1024C696,1024 658.5,1016.5 623.5,1001.5C588.5,986.5 558,966 532,940C506,914 485.5,883.5 470.5,848.5C455.5,813.5 448,776 448,736C448,696.333 455.583,659 470.75,624C485.917,589 506.5,558.5 532.5,532.5C558.5,506.5 589,485.917 624,470.75C659,455.583 696.333,448 736,448C762.333,448 787.75,451.417 812.25,458.25C836.75,465.083 859.667,474.75 881,487.25C902.333,499.75 921.833,514.833 939.5,532.5C957.167,550.167 972.25,569.667 984.75,591C997.25,612.333 1006.92,635.25 1013.75,659.75C1020.58,684.25 1024,709.667 1024,736ZM256,576L384,576L384,512L288,512C279.333,512 271.833,515.167 265.5,521.5C259.167,527.833 256,535.333 256,544ZM557,870L870,557C849.667,541.333 827.917,529.917 804.75,522.75C781.583,515.583 757.333,512 732,512C702.667,512 674.75,518 648.25,530C621.75,542 598.417,558.083 578.25,578.25C558.083,598.417 542,621.75 530,648.25C518,674.75 512,702.667 512,732C512,757.333 515.583,781.583 522.75,804.75C529.917,827.917 541.333,849.667 557,870ZM915,602L602,915C622.333,930.667 644.083,942.083 667.25,949.25C690.417,956.417 714.667,960 740,960C769.333,960 797.25,954 823.75,942C850.25,930 873.583,913.917 893.75,893.75C913.917,873.583 930,850.25 942,823.75C954,797.25 960,769.333 960,740C960,714.667 956.417,690.417 949.25,667.25C942.083,644.083 930.667,622.333 915,602Z" fill="#FFFFFF" fill-opacity="1">
  </path>
</svg>