<!-- Exported by Character Map UWP -->
<svg height="100%" viewBox="0 0 1024 1024" width="100%" xmlns="http://www.w3.org/2000/svg" xmlns:xlink="http://www.w3.org/1999/xlink">
  <path d="M1024,512C1024,559.333 1017.92,604.75 1005.75,648.25C993.583,691.75 976.417,732.5 954.25,770.5C932.083,808.5 905.417,843.083 874.25,874.25C843.083,905.417 808.5,932.083 770.5,954.25C732.5,976.417 691.667,993.583 648,1005.75C604.333,1017.92 559,1024 512,1024C465,1024 419.75,1017.92 376.25,1005.75C332.75,993.583 292,976.333 254,954C216,931.667 181.417,904.917 150.25,873.75C119.083,842.583 92.3333,808.083 70,770.25C47.6667,732.417 30.4167,691.667 18.25,648C6.08333,604.333 0,559 0,512C0,465 6.08333,419.75 18.25,376.25C30.4167,332.75 47.6667,292 70,254C92.3333,216 119.083,181.417 150.25,150.25C181.417,119.083 215.917,92.3334 253.75,70C291.583,47.6667 332.333,30.4167 376,18.25C419.667,6.08337 465,0 512,0C559,0 604.25,6.08337 647.75,18.25C691.25,30.4167 732,47.6667 770,70C808,92.3334 842.583,119.083 873.75,150.25C904.917,181.417 931.667,215.917 954,253.75C976.333,291.583 993.583,332.333 1005.75,376C1017.92,419.667 1024,465 1024,512ZM308,310.5L263,382L557.5,382L602.5,310.5ZM799.5,668L884,668L660.5,310.5L481.5,596.5L279.5,596.5L324,525L461,525L505.5,453.5L218.5,453.5L174,525L239.5,525L150,668L521.5,668L660.5,445.5L710.5,525L669,525L624.5,596.5L755,596.5Z" fill="#FFFFFF" fill-opacity="1">
  </path>
</svg>