<!-- Exported by Character Map UWP -->
<svg height="100%" viewBox="0 13 1024 999" width="100%" xmlns="http://www.w3.org/2000/svg" xmlns:xlink="http://www.w3.org/1999/xlink">
  <path d="M512,12.5C559,12.5 604.333,18.5834 648,30.75C691.667,42.9167 732.417,60.1667 770.25,82.5C808.083,104.833 842.583,131.583 873.75,162.75C904.917,193.917 931.667,228.417 954,266.25C976.333,304.083 993.583,344.833 1005.75,388.5C1017.92,432.167 1024,477.5 1024,524.5C1024,579.5 1015.58,632.5 998.75,683.5C981.917,734.5 958.167,781.333 927.5,824C896.833,866.667 860,904.083 817,936.25C774,968.417 726.333,993.167 674,1010.5C673,1010.83 671.5,1011.08 669.5,1011.25C667.5,1011.42 666,1011.5 665,1011.5C657.333,1011.5 651.083,1009.25 646.25,1004.75C641.417,1000.25 639,994 639,986C639,974 639,962.167 639,950.5L639.5,881C639.5,869 639.5,857.167 639.5,845.5C639.5,828.5 637,811.333 632,794C627,776.667 618,762.167 605,750.5C644,746.167 678.167,738.083 707.5,726.25C736.833,714.417 761.167,698.333 780.5,678C799.833,657.667 814.333,632.667 824,603C833.667,573.333 838.5,538.333 838.5,498C838.5,472 834.25,447.333 825.75,424C817.25,400.667 804,379.5 786,360.5C789.667,351.167 792.333,341.5 794,331.5C795.667,321.5 796.5,311.5 796.5,301.5C796.5,288.5 795.083,275.583 792.25,262.75C789.417,249.917 785.667,237.333 781,225C780,224.333 778.917,224 777.75,224C776.583,224 775.5,224 774.5,224C762.833,224 751,225.583 739,228.75C727,231.917 715.25,236 703.75,241C692.25,246 681.083,251.75 670.25,258.25C659.417,264.75 649.333,271.167 640,277.5C598,265.833 555.333,260 512,260C468.667,260 426,265.833 384,277.5C374.333,271.167 364.083,264.833 353.25,258.5C342.417,252.167 331.25,246.417 319.75,241.25C308.25,236.083 296.583,231.917 284.75,228.75C272.917,225.583 261.167,224 249.5,224C248.5,224 247.417,224 246.25,224C245.083,224 244,224.333 243,225C238.333,237.333 234.583,249.917 231.75,262.75C228.917,275.583 227.5,288.5 227.5,301.5C227.5,311.5 228.333,321.5 230,331.5C231.667,341.5 234.333,351.167 238,360.5C220,379.5 206.75,400.667 198.25,424C189.75,447.333 185.5,472 185.5,498C185.5,538 190.333,572.833 200,602.5C209.667,632.167 224.167,657.25 243.5,677.75C262.833,698.25 287.083,714.5 316.25,726.5C345.417,738.5 379.5,746.667 418.5,751C408.833,759.667 401.417,770.083 396.25,782.25C391.083,794.417 387.667,806.833 386,819.5C377,823.833 367.5,827.167 357.5,829.5C347.5,831.833 337.5,833 327.5,833C311.833,833 298.667,830.333 288,825C277.333,819.667 267.917,812.917 259.75,804.75C251.583,796.583 244.167,787.833 237.5,778.5C230.833,769.167 223.833,760.417 216.5,752.25C209.167,744.083 200.917,737.333 191.75,732C182.583,726.667 171.5,724 158.5,724C157.167,724 155.167,724.083 152.5,724.25C149.833,724.417 147.25,724.833 144.75,725.5C142.25,726.167 140,727.167 138,728.5C136,729.833 135,731.5 135,733.5C135,738.167 137.583,742.25 142.75,745.75C147.917,749.25 152,752.333 155,755C163,761 169.667,766.667 175,772C180.333,777.333 185,782.833 189,788.5C193,794.167 196.75,800.25 200.25,806.75C203.75,813.25 207.667,821 212,830C224.667,856.333 240.667,875.333 260,887C279.333,898.667 303.667,904.5 333,904.5C341.667,904.5 350.333,903.917 359,902.75C367.667,901.583 376.333,900.167 385,898.5L385,985.5C385,993.5 382.583,999.833 377.75,1004.5C372.917,1009.17 366.5,1011.5 358.5,1011.5C355.5,1011.5 352.667,1011.17 350,1010.5C297.667,993.167 250,968.5 207,936.5C164,904.5 127.167,867.167 96.5,824.5C65.8333,781.833 42.0833,734.917 25.25,683.75C8.41667,632.583 0,579.5 0,524.5C0,477.5 6.08333,432.167 18.25,388.5C30.4167,344.833 47.6667,304.083 70,266.25C92.3333,228.417 119.083,193.917 150.25,162.75C181.417,131.583 215.917,104.833 253.75,82.5C291.583,60.1667 332.333,42.9167 376,30.75C419.667,18.5834 465,12.5 512,12.5Z" fill="#FFFFFF" fill-opacity="1">
  </path>
</svg>