<!-- Exported by Character Map UWP -->
<svg height="100%" viewBox="0 0 1024 1024" width="100%" xmlns="http://www.w3.org/2000/svg" xmlns:xlink="http://www.w3.org/1999/xlink">
  <path d="M948,1024L75.5,1024C65.1667,1024 55.4167,1022.08 46.25,1018.25C37.0833,1014.42 29.0833,1009.17 22.25,1002.5C15.4167,995.833 10,988 6,979C2,970 0,960.333 0,950L0,74C0,63.6667 2,54 6,45C10,36 15.4167,28.1667 22.25,21.5C29.0833,14.8334 37.0833,9.58337 46.25,5.75C55.4167,1.91669 65.1667,0 75.5,0L948,0C958.333,0 968.083,1.91669 977.25,5.75C986.417,9.58337 994.5,14.8334 1001.5,21.5C1008.5,28.1667 1014,36 1018,45C1022,54 1024,63.6667 1024,74L1024,950C1024,960.333 1022,970 1018,979C1014,988 1008.5,995.833 1001.5,1002.5C994.5,1009.17 986.417,1014.42 977.25,1018.25C968.083,1022.08 958.333,1024 948,1024ZM227.5,317C239.833,317 251.333,314.75 262,310.25C272.667,305.75 282,299.5 290,291.5C298,283.5 304.333,274.167 309,263.5C313.667,252.833 316,241.333 316,229C316,216.667 313.667,205.167 309,194.5C304.333,183.833 298,174.5 290,166.5C282,158.5 272.667,152.25 262,147.75C251.333,143.25 239.833,141 227.5,141C215.5,141 204.167,143.333 193.5,148C182.833,152.667 173.5,159 165.5,167C157.5,175 151.167,184.333 146.5,195C141.833,205.667 139.5,217 139.5,229C139.5,241 141.833,252.333 146.5,263C151.167,273.667 157.5,283 165.5,291C173.5,299 182.833,305.333 193.5,310C204.167,314.667 215.5,317 227.5,317ZM399,864L550.5,864L550.5,631C550.5,615 551.583,599.417 553.75,584.25C555.917,569.083 560.25,555.667 566.75,544C573.25,532.333 582.417,523 594.25,516C606.083,509 621.833,505.5 641.5,505.5C660.833,505.5 675.833,509.5 686.5,517.5C697.167,525.5 705,535.75 710,548.25C715,560.75 718,574.667 719,590C720,605.333 720.5,620.333 720.5,635L720.5,864L872.5,864L872.5,604.5C872.5,571.5 870.167,540.833 865.5,512.5C860.833,484.167 851.917,459.583 838.75,438.75C825.583,417.917 807.167,401.583 783.5,389.75C759.833,377.917 728.833,372 690.5,372C676.167,372 661.917,373.667 647.75,377C633.583,380.333 620.167,385.333 607.5,392C594.833,398.667 583.25,406.833 572.75,416.5C562.25,426.167 553.5,437.5 546.5,450.5L544.5,450.5L544.5,384L399,384ZM151.5,384L151.5,864L303.5,864L303.5,384Z" fill="#FFFFFF" fill-opacity="1">
  </path>
</svg>