<!-- Exported by Character Map UWP -->
<svg height="100%" viewBox="0 0 1024 1019" width="100%" xmlns="http://www.w3.org/2000/svg" xmlns:xlink="http://www.w3.org/1999/xlink">
  <path d="M779,682C765.667,682 751.333,681.583 736,680.75C720.667,679.917 705.417,678.167 690.25,675.5C675.083,672.833 660.5,668.833 646.5,663.5C632.5,658.167 620.333,651.167 610,642.5C606.333,639.833 603.083,636.25 600.25,631.75C597.417,627.25 596,622.667 596,618C596,614 598.25,609.083 602.75,603.25C607.25,597.417 612.25,590.167 617.75,581.5C623.25,572.833 628.333,562.833 633,551.5C637.667,540.167 640,527 640,512C640,482 634.333,454.083 623,428.25C611.667,402.417 596.583,379.083 577.75,358.25C558.917,337.417 537.25,319.25 512.75,303.75C488.25,288.25 462.833,275.667 436.5,266C412.5,257.333 388.083,251 363.25,247C338.417,243 313.333,241 288,241C244,241 200.5,247.417 157.5,260.25C114.5,273.083 75.3333,292.833 40,319.5C60.3333,270.167 86.1667,225.75 117.5,186.25C148.833,146.75 184.667,113.25 225,85.75C265.333,58.2501 309.5,37.0834 357.5,22.25C405.5,7.41669 456.333,0 510,0C558.333,0 605.75,5.41669 652.25,16.25C698.75,27.0834 742.333,43.5001 783,65.5C823.667,87.5001 860.833,115 894.5,148C928.167,181 956.5,219.5 979.5,263.5C993.5,290.167 1004.42,317.917 1012.25,346.75C1020.08,375.583 1024,405.167 1024,435.5C1024,461.167 1020.67,485.417 1014,508.25C1007.33,531.083 997.667,552.083 985,571.25C972.333,590.417 956.833,607.583 938.5,622.75C920.167,637.917 899.333,650.667 876,661C860.667,667.667 844.917,672.833 828.75,676.5C812.583,680.167 796,682 779,682ZM440,1019C398.333,1013.33 358.5,1002.75 320.5,987.25C282.5,971.75 247.167,952.167 214.5,928.5C181.833,904.833 152.333,877.75 126,847.25C99.6667,816.75 77.1667,783.667 58.5,748C39.8333,712.333 25.4167,674.583 15.25,634.75C5.08333,594.917 0,554 0,512C0,489 4.5,467.833 13.5,448.5C22.5,429.167 34.4167,411.667 49.25,396C64.0833,380.333 81,366.75 100,355.25C119,343.75 138.333,334.333 158,327C179,319.333 200.417,313.75 222.25,310.25C244.083,306.75 266,305 288,305C308,305 328.25,306.5 348.75,309.5C369.25,312.5 389.167,317.25 408.5,323.75C427.833,330.25 446.5,338.5 464.5,348.5C482.5,358.5 499,370.333 514,384C504,384 494.083,385 484.25,387C474.417,389 465.167,392.333 456.5,397L456.5,396C429.5,408 404.667,425.5 382,448.5C359.333,471.5 339.833,497.25 323.5,525.75C307.167,554.25 294.417,584.083 285.25,615.25C276.083,646.417 271.5,676.5 271.5,705.5C271.5,736.5 275.333,767.083 283,797.25C290.667,827.417 301.75,856.167 316.25,883.5C330.75,910.833 348.417,936.083 369.25,959.25C390.083,982.417 413.667,1002.33 440,1019ZM595.5,1001.5C570.167,1001.5 546.167,997.5 523.5,989.5C500.833,981.5 479.833,970.5 460.5,956.5C441.167,942.5 423.833,925.917 408.5,906.75C393.167,887.583 380.083,867.083 369.25,845.25C358.417,823.417 350.083,800.583 344.25,776.75C338.417,752.917 335.5,729.167 335.5,705.5C335.5,676.833 340.167,648.917 349.5,621.75C358.833,594.583 371.167,569 386.5,545C390.5,572 398.333,597.167 410,620.5C421.667,643.833 436.167,665.167 453.5,684.5C470.833,703.833 490.5,721.083 512.5,736.25C534.5,751.417 557.667,764.167 582,774.5C606.333,784.833 631.5,792.75 657.5,798.25C683.5,803.75 709.333,806.5 735,806.5C767.333,806.5 798.167,803.25 827.5,796.75C856.833,790.25 886.167,780 915.5,766C918.167,764.667 920.917,763.25 923.75,761.75C926.583,760.25 929.5,759.5 932.5,759.5C936.5,759.5 940.083,761.25 943.25,764.75C946.417,768.25 948,771.833 948,775.5C948,779.833 944.5,787.083 937.5,797.25C930.5,807.417 922.333,818 913,829C903.667,840 894.583,850.417 885.75,860.25C876.917,870.083 870.5,876.833 866.5,880.5C850.5,895.833 831.583,910.75 809.75,925.25C787.917,939.75 764.917,952.667 740.75,964C716.583,975.333 691.917,984.417 666.75,991.25C641.583,998.083 617.833,1001.5 595.5,1001.5Z" fill="#FFFFFF" fill-opacity="1">
  </path>
</svg>