<!-- Exported by Character Map UWP -->
<svg height="100%" viewBox="0 1 1024 1023" width="100%" xmlns="http://www.w3.org/2000/svg" xmlns:xlink="http://www.w3.org/1999/xlink">
  <path d="M702,3.5C727,3.5 751.917,3.66669 776.75,4C801.583,4.33337 826.5,4.83337 851.5,5.5L870,5.5L882.5,5.5C893.167,5.50006 903.667,5.66675 914,6C924.333,6.33337 934.667,7.16669 945,8.5C968.667,11.5001 986.583,19.0834 998.75,31.25C1010.92,43.4167 1018.83,61.1667 1022.5,84.5C1022.83,86.8334 1023.08,89.0834 1023.25,91.25C1023.42,93.4167 1023.5,95.6667 1023.5,98C1023.5,101.333 1023.42,104.667 1023.25,108C1023.08,111.333 1023,114.667 1023,118C1023,132.333 1023.08,146.583 1023.25,160.75C1023.42,174.917 1023.5,189.167 1023.5,203.5C1023.5,243.167 1023.58,282.75 1023.75,322.25C1023.92,361.75 1024,401.333 1024,441C1024,497.333 1023.92,553.333 1023.75,609C1023.58,664.667 1023.5,720.667 1023.5,777C1023.5,797 1023.42,816.667 1023.25,836C1023.08,855.333 1023,875 1023,895C1023,899.667 1023.08,904.417 1023.25,909.25C1023.42,914.083 1023.5,919 1023.5,924C1023.5,927 1023.5,930.083 1023.5,933.25C1023.5,936.417 1023.17,939.667 1022.5,943C1019.17,967.333 1011.5,985.417 999.5,997.25C987.5,1009.08 969.333,1016.67 945,1020C937.667,1021 930.333,1021.67 923,1022C915.667,1022.33 908.167,1022.5 900.5,1022.5C890.5,1022.5 880.5,1022.33 870.5,1022C860.5,1021.67 850.667,1021.5 841,1021.5C798.333,1021.5 756.083,1021.83 714.25,1022.5C672.417,1023.17 630.167,1023.5 587.5,1023.5C565.833,1023.5 543.083,1022.58 519.25,1020.75C495.417,1018.92 473.167,1014.33 452.5,1007C429.833,999 411.167,988.333 396.5,975C381.833,961.667 369.833,946.5 360.5,929.5C351.167,912.5 344,893.917 339,873.75C334,853.583 329.833,832.667 326.5,811C319.167,764.333 314.667,717.333 313,670C311.333,622.667 310.5,575.5 310.5,528.5C310.5,439.833 311,351.167 312,262.5L638.5,589L638.5,460.5L228,49.5C226.333,131.5 225.25,213 224.75,294C224.25,375 224,456.5 224,538.5C224,582.833 224.583,626.833 225.75,670.5C226.917,714.167 229.333,758.167 233,802.5C234.667,821.833 237,841.833 240,862.5C243,883.167 247.667,903.25 254,922.75C260.333,942.25 268.917,960.417 279.75,977.25C290.583,994.083 304.667,1008.5 322,1020.5L254.5,1020.5C231.5,1020.5 208.833,1020.42 186.5,1020.25C164.167,1020.08 141.667,1020 119,1020C103.333,1020 89,1019.08 76,1017.25C63,1015.42 51.4167,1011.75 41.25,1006.25C31.0833,1000.75 22.5833,992.833 15.75,982.5C8.91667,972.167 4.16667,958.5 1.5,941.5C0.833333,939.167 0.5,936.917 0.5,934.75C0.5,932.583 0.5,930.333 0.5,928C0.5,924.667 0.583333,921.333 0.75,918C0.916667,914.667 1,911.333 1,908C1,893.667 0.916667,879.417 0.75,865.25C0.583333,851.083 0.5,836.833 0.5,822.5C0.5,782.5 0.416667,742.75 0.25,703.25C0.083333,663.75 0,624 0,584C0,527.667 0.083333,471.583 0.25,415.75C0.416667,359.917 0.5,303.833 0.5,247.5C0.5,227.5 0.583333,207.75 0.75,188.25C0.916667,168.75 1,149 1,129C1,124.333 0.916667,119.583 0.75,114.75C0.583333,109.917 0.5,105.167 0.5,100.5C0.5,97.1667 0.5,93.9167 0.5,90.75C0.5,87.5834 0.833333,84.3334 1.5,81C4.83333,56.6667 12.5,38.5834 24.5,26.75C36.5,14.9167 54.6667,7.33337 79,4C86.3333,3.00006 93.6667,2.33337 101,2C108.333,1.66669 115.833,1.5 123.5,1.5C133.167,1.5 143,1.66669 153,2C163,2.33337 173,2.50006 183,2.5C225.667,2.50006 267.917,2.16675 309.75,1.5C351.583,0.833374 393.833,0.5 436.5,0.5C458.167,0.5 480.917,1.41669 504.75,3.25C528.583,5.08337 550.833,9.66669 571.5,17C594.167,25 612.833,35.6667 627.5,49C642.167,62.3334 654.167,77.5 663.5,94.5C672.833,111.5 680,130.083 685,150.25C690,170.417 694.167,191.333 697.5,213C704.833,259.667 709.333,306.667 711,354C712.667,401.333 713.5,448.5 713.5,495.5C713.5,584.5 713,673.167 712,761.5L385.5,435L385.5,563.5L796,974.5C797.667,892.5 798.75,811 799.25,730C799.75,649 800,567.5 800,485.5C800,441.167 799.417,397.167 798.25,353.5C797.083,309.833 794.667,265.833 791,221.5C789.333,202.167 787,182.167 784,161.5C781,140.833 776.333,120.75 770,101.25C763.667,81.75 755.083,63.5834 744.25,46.75C733.417,29.9167 719.333,15.5 702,3.5Z" fill="#FFFFFF" fill-opacity="1">
  </path>
</svg>