<!-- Exported by Character Map UWP -->
<svg height="100%" viewBox="128 29 768 967" width="100%" xmlns="http://www.w3.org/2000/svg" xmlns:xlink="http://www.w3.org/1999/xlink">
  <path d="M896,202.5L896,821.5C896,832.5 894.333,842.917 891,852.75C887.667,862.583 883,871.5 877,879.5C871,887.5 863.667,894.417 855,900.25C846.333,906.083 836.833,910.5 826.5,913.5L549,993C541.333,995 533.5,996 525.5,996C515.167,996 505.5,994.583 496.5,991.75C487.5,988.917 478.667,985 470,980L288.5,877.5C281.833,873.833 276.583,868.917 272.75,862.75C268.917,856.583 267,849.667 267,842C267,830.333 271.083,820.417 279.25,812.25C287.417,804.083 297.333,800 309,800L544,800L544,229L367.5,292C353.167,297 341.667,305.833 333,318.5C324.333,331.167 320,345 320,360L320,685.5C320,699.167 316.667,711.417 310,722.25C303.333,733.083 294.167,741.833 282.5,748.5L199,794C191.333,798 183.667,800 176,800C162.667,800 151.333,795.333 142,786C132.667,776.667 128,765.333 128,752L128,293.5C128,276.5 132.333,260.417 141,245.25C149.667,230.083 161.5,218.333 176.5,210L474.5,40.5C488.167,32.8334 503,29 519,29C524.667,29 529.75,29.4167 534.25,30.25C538.75,31.0834 543.667,32.3334 549,34L826.5,110.5C836.833,113.5 846.25,118 854.75,124C863.25,130 870.583,137.083 876.75,145.25C882.917,153.417 887.667,162.417 891,172.25C894.333,182.083 896,192.167 896,202.5ZM832,821.5L832,202.5C832,195.167 829.833,188.75 825.5,183.25C821.167,177.75 815.5,174 808.5,172L672,134.5C661.333,131.5 650.667,128.417 640,125.25C629.333,122.083 618.667,119.167 608,116.5L608,909.5L808.5,852C815.5,850 821.167,846.25 825.5,840.75C829.833,835.25 832,828.833 832,821.5Z" fill="#FFFFFF" fill-opacity="1">
  </path>
</svg>