<!-- Exported by Character Map UWP -->
<svg height="100%" viewBox="52 196 920 920" width="100%" xmlns="http://www.w3.org/2000/svg" xmlns:xlink="http://www.w3.org/1999/xlink">
  <path d="M972,348C972,308 956.667,272.667 926,242C895.333,211.333 860,196 820,196L204,196C164,196 128.667,211.333 98,242C67.3333,272.667 52,308 52,348L52,964C52,1004 67.3333,1039.33 98,1070C128.667,1100.67 164,1116 204,1116L512,1116L512,768L400,768L400,616L512,616L512,556C512,504 529,458.333 563,419C597,379.667 637.333,360 684,360L808,360L808,512L684,512C677.333,512 671,516 665,524C659,532 656,542 656,554L656,616L808,616L808,768L656,768L656,1116L820,1116C860,1116 895.333,1100.67 926,1070C956.667,1039.33 972,1004 972,964Z" fill="#FFFFFF" fill-opacity="1">
  </path>
</svg>