<!-- Exported by Character Map UWP -->
<svg height="100%" viewBox="52 338 920 637" width="100%" xmlns="http://www.w3.org/2000/svg" xmlns:xlink="http://www.w3.org/1999/xlink">
  <path d="M868,620C921.333,616 954.667,596.667 968,562C957.333,568.667 941.333,573.667 920,577C898.667,580.333 878.667,579.333 860,574C857.333,563.333 856,556 856,552C842.667,505.333 817.333,467 780,437C742.667,407 702.667,394.667 660,400C664,397.333 671.333,394.667 682,392L700,388C713.333,384 723.667,379.333 731,374C738.333,368.667 740.667,363.333 738,358C736.667,355.333 733,354 727,354C721,354 714,355 706,357C698,359 690.333,361.333 683,364C675.667,366.667 668.333,369.333 661,372C653.667,374.667 649.333,376 648,376C678.667,365.333 695.333,352.667 698,338C670,342 646,353.333 626,372C634,361.333 638.667,352.667 640,346C586.667,379.333 538,453.333 494,568C464.667,538.667 442,520 426,512C364.667,477.333 285.333,442.667 188,408C185.333,456 212,494.667 268,524C257.333,522.667 238,524.667 210,530C219.333,578 254,608.667 314,622C287.333,623.333 266,632 250,648C274,690.667 312,708.667 364,702C330.667,718 319.667,736.333 331,757C342.333,777.667 363.333,786 394,782C344.667,831.333 286,856 218,856C150,856 94.6667,834 52,790C108,866 179.333,918.333 266,947C352.667,975.667 436.333,982 517,966C597.667,950 670.667,915.667 736,863C801.333,810.333 843.333,746.667 862,672C910,673.333 946.667,660 972,632C930.667,637.333 896,633.333 868,620Z" fill="#FFFFFF" fill-opacity="1">
  </path>
</svg>