<!-- Exported by Character Map UWP -->
<svg height="100%" viewBox="0 64 1024 896" width="100%" xmlns="http://www.w3.org/2000/svg" xmlns:xlink="http://www.w3.org/1999/xlink">
  <path d="M976,960L304,960C290.667,960 279.333,955.333 270,946C260.667,936.667 256,925.333 256,912L256,768L42.5,768C30.8333,768 20.8333,763.833 12.5,755.5C4.16667,747.167 0,737.167 0,725.5L0,298.5C0,286.833 4.16667,276.833 12.5,268.5C20.8333,260.167 30.8333,256 42.5,256L320,256L320,109C320,96.3334 324.333,85.6667 333,77C341.667,68.3334 352.333,64.0001 365,64L915,64C927.667,64.0001 938.333,68.3334 947,77C955.667,85.6667 960,96.3334 960,109L960,463L1013,493.5L1013.5,493.5C1016.5,495.5 1019,498.167 1021,501.5C1023,504.833 1024,508.333 1024,512L1024,912C1024,925.333 1019.33,936.667 1010,946C1000.67,955.333 989.333,960 976,960ZM848.5,896L512,686L512,725.5C512,737.167 507.833,747.167 499.5,755.5C491.167,763.833 481.167,768 469.5,768L320,768L320,896ZM480,258L480,160L384,160L384,256L469.5,256C473.5,256 477,256.667 480,258ZM255,682C280.667,682 303.5,677.583 323.5,668.75C343.5,659.917 360.333,647.75 374,632.25C387.667,616.75 398.083,598.5 405.25,577.5C412.417,556.5 416,533.667 416,509C416,485.333 412.5,463.333 405.5,443C398.5,422.667 388.333,405 375,390C361.667,375 345.333,363.25 326,354.75C306.667,346.25 284.667,342 260,342C233.667,342 210.333,346.25 190,354.75C169.667,363.25 152.5,375.25 138.5,390.75C124.5,406.25 113.917,424.667 106.75,446C99.5833,467.333 96,490.667 96,516C96,540 99.6667,562.167 107,582.5C114.333,602.833 124.833,620.333 138.5,635C152.167,649.667 168.833,661.167 188.5,669.5C208.167,677.833 230.333,682 255,682ZM255.5,613C241.5,613 229.5,610.083 219.5,604.25C209.5,598.417 201.333,590.75 195,581.25C188.667,571.75 184,561 181,549C178,537 176.5,524.833 176.5,512.5C176.5,499.833 178,487.417 181,475.25C184,463.083 188.75,452.25 195.25,442.75C201.75,433.25 210.167,425.583 220.5,419.75C230.833,413.917 243.167,411 257.5,411C272.167,411 284.5,414 294.5,420C304.5,426 312.583,433.833 318.75,443.5C324.917,453.167 329.333,464.167 332,476.5C334.667,488.833 336,501.167 336,513.5C336,526.5 334.5,538.917 331.5,550.75C328.5,562.583 323.833,573.167 317.5,582.5C311.167,591.833 302.833,599.25 292.5,604.75C282.167,610.25 269.833,613 255.5,613ZM544,160L544,288L704,288L704,160ZM768,160L768,288L896,288L896,160ZM544,352L544,480L704,480L704,352ZM768,352L768,480L896,480L896,352ZM544,630.5L647,694.5L704,660.5L704,544L544,544ZM768,544L768,622L898,544ZM960,890.5L960,581.5L708,732.5Z" fill="#FFFFFF" fill-opacity="1">
  </path>
</svg>