<!-- Exported by Character Map UWP -->
<svg height="100%" viewBox="32 32 951 960" width="100%" xmlns="http://www.w3.org/2000/svg" xmlns:xlink="http://www.w3.org/1999/xlink">
  <path d="M703,992C678,992 653.417,988.667 629.25,982C605.083,975.333 582.167,965.667 560.5,953C551.833,954 543,954.833 534,955.5C525,956.167 516.167,956.5 507.5,956.5C466.833,956.5 427.583,951.25 389.75,940.75C351.917,930.25 316.583,915.417 283.75,896.25C250.917,877.083 220.917,854.083 193.75,827.25C166.583,800.417 143.417,770.583 124.25,737.75C105.083,704.917 90.1667,669.583 79.5,631.75C68.8333,593.917 63.5,554.667 63.5,514C63.5,503.333 64,492.583 65,481.75C66,470.917 67.3333,460.167 69,449.5C57,428.5 47.8333,406.25 41.5,382.75C35.1667,359.25 32,335.5 32,311.5C32,272.833 39.3333,236.5 54,202.5C68.6667,168.5 88.75,138.917 114.25,113.75C139.75,88.5834 169.5,68.6667 203.5,54C237.5,39.3334 273.833,32 312.5,32C338.5,32 364.083,35.5 389.25,42.5C414.417,49.5 438,60 460,74C468,73.3334 475.917,72.7501 483.75,72.25C491.583,71.7501 499.5,71.5001 507.5,71.5C548.167,71.5001 587.417,76.7501 625.25,87.25C663.083,97.7501 698.417,112.583 731.25,131.75C764.083,150.917 794.083,173.917 821.25,200.75C848.417,227.583 871.583,257.417 890.75,290.25C909.917,323.083 924.833,358.417 935.5,396.25C946.167,434.083 951.5,473.333 951.5,514C951.5,524.333 951.083,534.583 950.25,544.75C949.417,554.917 948.333,565.167 947,575.5C958.667,596.5 967.583,618.583 973.75,641.75C979.917,664.917 983,688.5 983,712.5C983,751.167 975.667,787.5 961,821.5C946.333,855.5 926.333,885.083 901,910.25C875.667,935.417 846,955.333 812,970C778,984.667 741.667,992 703,992ZM494,774C518.667,774 542.583,771.417 565.75,766.25C588.917,761.083 609.5,752.583 627.5,740.75C645.5,728.917 660,713.333 671,694C682,674.667 687.5,650.833 687.5,622.5C687.5,601.167 683.917,582.5 676.75,566.5C669.583,550.5 660.083,536.5 648.25,524.5C636.417,512.5 622.917,502.167 607.75,493.5C592.583,484.833 577.083,477 561.25,470C545.417,463 529.917,456.5 514.75,450.5C499.583,444.5 486.083,438.417 474.25,432.25C462.417,426.083 452.917,419.333 445.75,412C438.583,404.667 435,396 435,386C435,376.667 437.333,368.75 442,362.25C446.667,355.75 452.667,350.583 460,346.75C467.333,342.917 475.333,340.167 484,338.5C492.667,336.833 500.833,336 508.5,336C517.5,336 525.833,336.583 533.5,337.75C541.167,338.917 548.5,340.5 555.5,342.5C562.5,344.5 569.5,346.917 576.5,349.75C583.5,352.583 591.167,355.5 599.5,358.5C607.833,361.833 615.667,363.5 623,363.5C637.333,363.5 648.583,358.833 656.75,349.5C664.917,340.167 669,328.5 669,314.5C669,303.5 666.25,294.083 660.75,286.25C655.25,278.417 648.083,271.75 639.25,266.25C630.417,260.75 620.333,256.333 609,253C597.667,249.667 586.25,247.167 574.75,245.5C563.25,243.833 552.083,242.667 541.25,242C530.417,241.333 521.167,241 513.5,241C490.833,241 467.833,243.75 444.5,249.25C421.167,254.75 400,263.5 381,275.5C362,287.5 346.417,302.833 334.25,321.5C322.083,340.167 316,362.667 316,389C316,410 319.583,428.333 326.75,444C333.917,459.667 343.417,473.5 355.25,485.5C367.083,497.5 380.583,507.833 395.75,516.5C410.917,525.167 426.417,533.083 442.25,540.25C458.083,547.417 473.583,554.083 488.75,560.25C503.917,566.417 517.417,572.75 529.25,579.25C541.083,585.75 550.583,592.917 557.75,600.75C564.917,608.583 568.5,617.667 568.5,628C568.5,638.333 566.333,646.833 562,653.5C557.667,660.167 552.167,665.333 545.5,669C538.833,672.667 531.167,675.25 522.5,676.75C513.833,678.25 505.333,679 497,679C482.333,679 469.167,677.083 457.5,673.25C445.833,669.417 435,665.25 425,660.75C415,656.25 405.417,652.083 396.25,648.25C387.083,644.417 377.5,642.5 367.5,642.5C352.833,642.5 340.75,646.75 331.25,655.25C321.75,663.75 317,675.5 317,690.5C317,702.5 320.167,712.917 326.5,721.75C332.833,730.583 341.083,738.083 351.25,744.25C361.417,750.417 373,755.417 386,759.25C399,763.083 412,766.083 425,768.25C438,770.417 450.583,771.917 462.75,772.75C474.917,773.583 485.333,774 494,774Z" fill="#FFFFFF" fill-opacity="1">
  </path>
</svg>