<!-- Exported by Character Map UWP -->
<svg height="100%" viewBox="0 0 1024 1024" width="100%" xmlns="http://www.w3.org/2000/svg" xmlns:xlink="http://www.w3.org/1999/xlink">
  <path d="M256,1024C247,1024 238.583,1022.33 230.75,1019C222.917,1015.67 216.167,1011.17 210.5,1005.5C204.833,999.833 200.333,993.083 197,985.25C193.667,977.417 192,969 192,960L192,832L64,832C55,832 46.5833,830.333 38.75,827C30.9167,823.667 24.1667,819.167 18.5,813.5C12.8333,807.833 8.33333,801.083 5,793.25C1.66667,785.417 0,777 0,768L0,256C0,247 1.66667,238.583 5,230.75C8.33333,222.917 12.8333,216.167 18.5,210.5C24.1667,204.833 30.9167,200.333 38.75,197C46.5833,193.667 55,192 64,192L192,192L192,64C192,55.0001 193.667,46.5834 197,38.75C200.333,30.9167 204.833,24.1667 210.5,18.5C216.167,12.8334 222.917,8.33337 230.75,5C238.583,1.66669 247,0 256,0L960,0C969,0 977.417,1.66669 985.25,5C993.083,8.33337 999.833,12.8334 1005.5,18.5C1011.17,24.1667 1015.67,30.9167 1019,38.75C1022.33,46.5834 1024,55.0001 1024,64L1024,960C1024,969 1022.33,977.417 1019,985.25C1015.67,993.083 1011.17,999.833 1005.5,1005.5C999.833,1011.17 993.083,1015.67 985.25,1019C977.417,1022.33 969,1024 960,1024ZM832,410.5C840.667,410.5 848.917,412.167 856.75,415.5C864.583,418.833 871.5,423.5 877.5,429.5L960,512L960,64L256,64L256,192L576,192C585,192 593.417,193.667 601.25,197C609.083,200.333 615.833,204.833 621.5,210.5C627.167,216.167 631.667,222.917 635,230.75C638.333,238.583 640,247 640,256L640,576L786.5,429.5C799.167,416.833 814.333,410.5 832,410.5ZM752,192C752,181 754.083,170.667 758.25,161C762.417,151.333 768.167,142.833 775.5,135.5C782.833,128.167 791.333,122.417 801,118.25C810.667,114.083 821,112 832,112C843,112 853.333,114.083 863,118.25C872.667,122.417 881.167,128.167 888.5,135.5C895.833,142.833 901.583,151.333 905.75,161C909.917,170.667 912,181 912,192C912,203 909.917,213.333 905.75,223C901.583,232.667 895.833,241.167 888.5,248.5C881.167,255.833 872.667,261.583 863,265.75C853.333,269.917 843,272 832,272C821,272 810.583,269.917 800.75,265.75C790.917,261.583 782.417,255.917 775.25,248.75C768.083,241.583 762.417,233.083 758.25,223.25C754.083,213.417 752,203 752,192ZM473,603.5C473,585.5 470.25,569.667 464.75,556C459.25,542.333 451.917,530.5 442.75,520.5C433.583,510.5 423.167,501.917 411.5,494.75C399.833,487.583 387.917,481.167 375.75,475.5C363.583,469.833 351.667,464.833 340,460.5C328.333,456.167 317.917,451.75 308.75,447.25C299.583,442.75 292.25,438 286.75,433C281.25,428 278.5,422 278.5,415C278.5,409.333 280.583,404.583 284.75,400.75C288.917,396.917 293.833,393.833 299.5,391.5C305.167,389.167 311.167,387.5 317.5,386.5C323.833,385.5 329.333,385 334,385C347.333,385 359.083,385.667 369.25,387C379.417,388.333 389,390.583 398,393.75C407,396.917 416,401 425,406C434,411 444,417.167 455,424.5L455,310.5C439,303.833 421.75,298.833 403.25,295.5C384.75,292.167 366.833,290.5 349.5,290.5C329.167,290.5 308.25,292.5 286.75,296.5C265.25,300.5 245.583,307.333 227.75,317C209.917,326.667 195.333,339.667 184,356C172.667,372.333 167,393 167,418C167,441.333 171.833,461 181.5,477C191.167,493 203.167,506.417 217.5,517.25C231.833,528.083 247.417,537.167 264.25,544.5C281.083,551.833 296.667,558.667 311,565C325.333,571.333 337.333,577.667 347,584C356.667,590.333 361.5,598.167 361.5,607.5C361.5,613.833 359.667,619.083 356,623.25C352.333,627.417 347.75,630.667 342.25,633C336.75,635.333 330.917,636.917 324.75,637.75C318.583,638.583 313,639 308,639C292.333,639 278.5,637.833 266.5,635.5C254.5,633.167 243.25,629.75 232.75,625.25C222.25,620.75 211.833,615.083 201.5,608.25C191.167,601.417 180,593.5 168,584.5L168,705C189,715.667 211.667,723.167 236,727.5C260.333,731.833 284.333,734 308,734C329,734 349.417,731.667 369.25,727C389.083,722.333 406.667,714.917 422,704.75C437.333,694.583 449.667,681.167 459,664.5C468.333,647.833 473,627.5 473,603.5ZM640.5,666.5L640.5,768L960,768L960,602.5L832,474.5ZM256,832L256,960L960,960L960,832Z" fill="#FFFFFF" fill-opacity="1">
  </path>
</svg>