<!-- Exported by Character Map UWP -->
<svg height="100%" viewBox="0 96 1024 832" width="100%" xmlns="http://www.w3.org/2000/svg" xmlns:xlink="http://www.w3.org/1999/xlink">
  <path d="M322,928C264.667,928 208.75,920.083 154.25,904.25C99.75,888.417 48.3333,864.833 0,833.5C16.3333,835.5 33,836.5 50,836.5C97.6667,836.5 143.75,828.833 188.25,813.5C232.75,798.167 273.667,775.833 311,746.5C288.333,746.167 266.75,742.417 246.25,735.25C225.75,728.083 206.917,718.083 189.75,705.25C172.583,692.417 157.583,677.167 144.75,659.5C131.917,641.833 122,622.333 115,601C121.667,602 128.25,602.833 134.75,603.5C141.25,604.167 147.833,604.5 154.5,604.5C173.167,604.5 191.5,602 209.5,597C184.5,592 161.583,583.083 140.75,570.25C119.917,557.417 102.167,541.75 87.5,523.25C72.8333,504.75 61.4167,484 53.25,461C45.0833,438 41,413.833 41,388.5C70.3333,405.167 102.167,414 136.5,415C121.833,405 108.75,393.583 97.25,380.75C85.75,367.917 76,354 68,339C60,324 53.8333,308.167 49.5,291.5C45.1667,274.833 43,257.667 43,240C43,221.333 45.3333,203.083 50,185.25C54.6667,167.417 61.8333,150.5 71.5,134.5C97.8333,167.167 127.333,196.667 160,223C192.667,249.333 227.5,271.833 264.5,290.5C301.5,309.167 340.25,323.917 380.75,334.75C421.25,345.583 462.5,352 504.5,354C502.5,346.333 501.083,338.417 500.25,330.25C499.417,322.083 499,314 499,306C499,277 504.5,249.75 515.5,224.25C526.5,198.75 541.5,176.5 560.5,157.5C579.5,138.5 601.75,123.5 627.25,112.5C652.75,101.5 680,96 709,96C738.333,96 766.25,101.75 792.75,113.25C819.25,124.75 842.5,141.167 862.5,162.5C886.167,157.833 909.083,151.25 931.25,142.75C953.417,134.25 974.833,123.833 995.5,111.5C987.833,135.833 976.083,158 960.25,178C944.417,198 925.5,214.5 903.5,227.5C945.5,222.5 985.667,211.5 1024,194.5C1010,215.5 994.167,235.083 976.5,253.25C958.833,271.417 939.667,288 919,303C919.333,307.667 919.583,312.25 919.75,316.75C919.917,321.25 920,325.833 920,330.5C920,372.167 915.5,413.667 906.5,455C897.5,496.333 884.5,536 867.5,574C842.167,629.667 811,679.417 774,723.25C737,767.083 695.25,804.167 648.75,834.5C602.25,864.833 551.5,888 496.5,904C441.5,920 383.333,928 322,928Z" fill="#FFFFFF" fill-opacity="1">
  </path>
</svg>