<!-- Exported by Character Map UWP -->
<svg height="100%" viewBox="-2544 0 6112 1024" width="100%" xmlns="http://www.w3.org/2000/svg" xmlns:xlink="http://www.w3.org/1999/xlink">
  <path d="M960.5,670.5C983.833,624.167 995.5,571.333 995.5,512C995.5,452.667 983.833,399.833 960.5,353.5C938.167,308.167 904.833,271.667 860.5,244C817.167,217.667 767.167,204.5 710.5,204.5C662.167,204.5 619.667,212.333 583,228C545.667,244 514.833,265.167 490.5,291.5L524,325C492.667,352.667 468.833,382.167 452.5,413.5C434.5,447.833 425.5,489.5 425.5,538.5C425.5,589.5 437,636.333 460,679C483,722 516.167,756.167 559.5,781.5C603.5,806.833 653.833,819.5 710.5,819.5C767.167,819.5 817.167,806.333 860.5,780C903.833,753.333 937.167,716.833 960.5,670.5ZM969.5,67C1045.83,111.333 1105.67,172.667 1149,251C1192,329 1213.5,415.5 1213.5,510.5C1213.5,606.167 1192,692.833 1149,770.5C1106.67,848.167 1046.83,909.5 969.5,954.5C893.167,999.167 806.667,1021.5 710,1021.5C611.667,1021.5 524.5,1000.17 448.5,957.5C372.5,914.167 313.167,856.167 270.5,783.5C228.167,709.833 207,630 207,544C207,463 221.5,391.333 250.5,329C279.167,267.333 319.167,214.833 370.5,171.5L337,138C376.333,98.3334 429,65.3334 495,39C561,13 632.667,0 710,0C806.667,0 893.167,22.3334 969.5,67ZM-269,345.5C-298.333,324.5 -313,299.833 -313,271.5C-313,246.5 -302.333,226 -281,210C-259.333,194 -232.333,186 -200,186C-126.333,186 -72.6667,224.167 -39,300.5L132.5,182.5C104.833,122.833 63,77.8334 7,47.5C-49.3335,16.8334 -115.5,1.5 -191.5,1.5C-253.833,1.5 -309.333,13.5 -358,37.5C-406.667,60.8334 -445,93.8334 -473,136.5C-500.333,179.167 -514,226.833 -514,279.5C-514,355.5 -491.167,416 -445.5,461C-400.167,505.333 -334.333,543.167 -248,574.5C-178.333,599.5 -131.333,622.667 -107,644C-81.3335,665.667 -68.5,691.667 -68.5,722C-68.5,752.667 -79.8335,777.333 -102.5,796C-125.5,814.333 -154.667,823.5 -190,823.5C-232.333,823.5 -271,810.167 -306,783.5C-342,756.833 -367.5,722 -382.5,679L-554,806.5C-526.333,876.833 -481.5,930.5 -419.5,967.5C-357.167,1005.17 -282.667,1024 -196,1024C-132,1024 -74.5,1011.5 -23.5,986.5C28.5,961.5 69.6665,925.167 100,877.5C130.667,830.167 146,773.167 146,706.5C146,632.833 125.333,574.333 84,531C44.3333,487 -20.8335,448.833 -111.5,416.5C-186.5,390.167 -239,366.5 -269,345.5ZM-1405.5,567.5L-1287,567.5C-1241.33,567.5 -1205.83,578.333 -1180.5,600C-1155.5,620.667 -1143,651.333 -1143,692C-1143,732.667 -1155.5,763.5 -1180.5,784.5C-1205.17,805.833 -1240.67,816.5 -1287,816.5L-1405.5,816.5ZM-1292.5,207C-1258.17,207 -1231.17,216.167 -1211.5,234.5C-1191.17,252.5 -1181,278.167 -1181,311.5C-1181,344.5 -1191.17,370.167 -1211.5,388.5C-1232.5,406.833 -1259.5,416 -1292.5,416L-1405.5,416L-1405.5,207ZM-1009,389C-986,354 -974.5,309.5 -974.5,255.5C-974.5,183.167 -1003.33,125 -1061,81C-1118,38.3334 -1195,17 -1292,17L-1621,17L-1621,1005.5L-1279,1005.5C-1207.33,1005.5 -1145.67,993.167 -1094,968.5C-1040.67,942.833 -999.833,908 -971.5,864C-943.167,819.333 -929,767.667 -929,709C-929,592.333 -987.5,511.833 -1104.5,467.5C-1063.5,450.833 -1031.67,424.667 -1009,389ZM-1992.5,761C-2026.5,800 -2074.33,819.5 -2136,819.5C-2197.67,819.5 -2245.5,800 -2279.5,761C-2313.17,722.333 -2330,666.5 -2330,593.5L-2330,17.5L-2544,17.5L-2544,610.5C-2544,689.167 -2528.17,759.833 -2496.5,822.5C-2465.5,884.833 -2419,933.667 -2357,969C-2295,1004 -2221.17,1021.5 -2135.5,1021.5C-2049.5,1021.5 -1975.5,1004 -1913.5,969C-1851.5,933.667 -1805,884.833 -1774,822.5C-1742.33,759.833 -1726.5,689.167 -1726.5,610.5L-1726.5,17.5L-1941,17.5L-1941,593.5L-1942,593.5C-1942,665.833 -1958.83,721.667 -1992.5,761ZM-630,17.5L-630,1005.5L-845,1005.5L-845,17.5ZM1936,612L1936,448L1516,448L1516,220.5L1978,220.5L1978,17.5L1301,17.5L1301,1005.5L1516,1005.5L1516,612ZM2831,17.5L2831,220.5L2553.5,220.5L2553.5,1005.5L2338.5,1005.5L2338.5,220.5L2060.5,220.5L2060.5,17.5ZM3125.5,247L2879,247L2879,413.5L3125.5,413.5L3125.5,660L3292,660L3292,413.5L3497.5,413.5L3568,247L3292,247L3292,1L3125.5,1Z" fill="#FFFFFF" fill-opacity="1">
  </path>
</svg>