<!-- Exported by Character Map UWP -->
<svg height="100%" viewBox="0 0 1024 1024" width="100%" xmlns="http://www.w3.org/2000/svg" xmlns:xlink="http://www.w3.org/1999/xlink">
  <path d="M512,1024C460.667,1024 410.667,1016.58 362,1001.75C313.333,986.917 267.667,965.167 225,936.5C217.667,931.5 210.167,926.417 202.5,921.25C194.833,916.083 187.833,910.417 181.5,904.25C175.167,898.083 170,891.167 166,883.5C162,875.833 160,867 160,857C160,836 166.333,812.083 179,785.25C191.667,758.417 208.25,730.583 228.75,701.75C249.25,672.917 272.333,644 298,615C323.667,586 349.5,558.5 375.5,532.5C401.5,506.5 426.333,483 450,462C473.667,441 493.833,424.167 510.5,411.5L512,410.5L513.5,411.5C525.833,420.833 540.333,432.667 557,447C573.667,461.333 591.417,477.333 610.25,495C629.083,512.667 648.417,531.667 668.25,552C688.083,572.333 707.417,593.25 726.25,614.75C745.083,636.25 762.833,658 779.5,680C796.167,702 810.75,723.5 823.25,744.5C835.75,765.5 845.667,785.5 853,804.5C860.333,823.5 864,841 864,857C864,867 862,875.833 858,883.5C854,891.167 848.833,898.083 842.5,904.25C836.167,910.417 829.167,916.083 821.5,921.25C813.833,926.417 806.333,931.5 799,936.5C756.333,965.167 710.667,986.917 662,1001.75C613.333,1016.58 563.333,1024 512,1024ZM108,820.5L107.5,823C106.167,823 105.167,822.667 104.5,822C87.5,800.333 72.4167,777.167 59.25,752.5C46.0833,727.833 35.1667,702.25 26.5,675.75C17.8333,649.25 11.25,622.25 6.75,594.75C2.25,567.25 0,539.667 0,512C0,483.333 2.41667,454.667 7.25,426C12.0833,397.333 19.25,369.333 28.75,342C38.25,314.667 50,288.333 64,263C78,237.667 94,213.833 112,191.5C118,183.833 124.417,176.083 131.25,168.25C138.083,160.417 145.167,153.5 152.5,147.5C154.167,146.167 156.583,145.25 159.75,144.75C162.917,144.25 165.5,144 167.5,144C177.833,144 189,146.417 201,151.25C213,156.083 225.333,162.417 238,170.25C250.667,178.083 263.333,186.917 276,196.75C288.667,206.583 300.917,216.583 312.75,226.75C324.583,236.917 335.5,246.75 345.5,256.25C355.5,265.75 364.167,274 371.5,281L372,283L371.5,284.5C356.5,302.167 339.5,323.583 320.5,348.75C301.5,373.917 282.083,401.167 262.25,430.5C242.417,459.833 222.917,490.5 203.75,522.5C184.583,554.5 167.583,586.083 152.75,617.25C137.917,648.417 125.917,678.417 116.75,707.25C107.583,736.083 103,762 103,785C103,797.667 104.667,809.5 108,820.5ZM916.5,823L916,820.5C919.333,809.5 921,797.667 921,785C921,762 916.417,736.083 907.25,707.25C898.083,678.417 886.083,648.417 871.25,617.25C856.417,586.083 839.417,554.583 820.25,522.75C801.083,490.917 781.583,460.25 761.75,430.75C741.917,401.25 722.417,373.917 703.25,348.75C684.083,323.583 667.167,302 652.5,284L652,282.5L653,281C659.667,274 667.917,265.75 677.75,256.25C687.583,246.75 698.417,236.917 710.25,226.75C722.083,216.583 734.5,206.583 747.5,196.75C760.5,186.917 773.417,178.083 786.25,170.25C799.083,162.417 811.5,156.083 823.5,151.25C835.5,146.417 846.333,144 856,144C858,144 860.667,144.25 864,144.75C867.333,145.25 869.833,146.167 871.5,147.5C878.833,153.5 885.917,160.5 892.75,168.5C899.583,176.5 906,184.167 912,191.5C930,213.833 945.917,237.667 959.75,263C973.583,288.333 985.25,314.667 994.75,342C1004.25,369.333 1011.5,397.333 1016.5,426C1021.5,454.667 1024,483.333 1024,512C1024,539.667 1021.75,567.25 1017.25,594.75C1012.75,622.25 1006.17,649.25 997.5,675.75C988.833,702.25 977.917,727.833 964.75,752.5C951.583,777.167 936.5,800.333 919.5,822C918.833,822.667 917.833,823 916.5,823ZM512,151.5L511,151C494.667,142 477.083,132.917 458.25,123.75C439.417,114.583 420.083,106.417 400.25,99.25C380.417,92.0834 360.5,86.1667 340.5,81.5C320.5,76.8334 301,74.5001 282,74.5C276,74.5001 270,74.7501 264,75.25C258,75.7501 252,76.8334 246,78.5L243.5,78L244.5,75.5C286.167,50.5 329,31.6667 373,19C417,6.33337 463.333,0 512,0C560.667,0 606.833,6.25 650.5,18.75C694.167,31.25 736.833,50 778.5,75L779.5,77.5L777,78C766.667,75.6667 755.333,74.5001 743,74.5C723.667,74.5001 703.917,76.8334 683.75,81.5C663.583,86.1667 643.667,92.0834 624,99.25C604.333,106.417 585.083,114.583 566.25,123.75C547.417,132.917 529.667,142 513,151Z" fill="#FFFFFF" fill-opacity="1">
  </path>
</svg>