<!-- Exported by Character Map UWP -->
<svg height="100%" viewBox="1 0 896 1024" width="100%" xmlns="http://www.w3.org/2000/svg" xmlns:xlink="http://www.w3.org/1999/xlink">
  <path d="M832.5,453.5C842.167,456.833 850.917,461.5 858.75,467.5C866.583,473.5 873.333,480.5 879,488.5C884.667,496.5 889,505.167 892,514.5C895,523.833 896.5,533.667 896.5,544L896.5,800C896.5,810.333 895,820.167 892,829.5C889,838.833 884.667,847.5 879,855.5C873.333,863.5 866.583,870.5 858.75,876.5C850.917,882.5 842.167,887.167 832.5,890.5L832.5,898.5C832.5,915.167 829.083,931.083 822.25,946.25C815.417,961.417 806.25,974.75 794.75,986.25C783.25,997.75 769.917,1006.92 754.75,1013.75C739.583,1020.58 723.667,1024 707,1024L190,1024C173,1024 157,1020.58 142,1013.75C127,1006.92 113.833,997.75 102.5,986.25C91.1667,974.75 82.0833,961.417 75.25,946.25C68.4167,931.083 64.8333,915.167 64.5,898.5L64.5,890.5C54.8333,887.167 46.0833,882.5 38.25,876.5C30.4167,870.5 23.6667,863.5 18,855.5C12.3333,847.5 8,838.833 5,829.5C2,820.167 0.5,810.333 0.5,800L0.5,544C0.5,533.667 2,523.833 5,514.5C8,505.167 12.3333,496.5 18,488.5C23.6667,480.5 30.4167,473.5 38.25,467.5C46.0833,461.5 54.8333,456.833 64.5,453.5L64.5,125.5C64.5,108.833 67.9167,92.9167 74.75,77.75C81.5833,62.5834 90.75,49.2501 102.25,37.75C113.75,26.2501 127.083,17.0834 142.25,10.25C157.417,3.41669 173.333,0 190,0L441,0C458,0 474.333,3.25 490,9.75C505.667,16.25 519.5,25.5 531.5,37.5L795,301C803.333,309.667 810,318.333 815,327C820,335.667 823.833,344.5 826.5,353.5C829.167,362.5 830.917,371.833 831.75,381.5C832.583,391.167 833,401 833,411C833,417.667 832.917,424.583 832.75,431.75C832.583,438.917 832.5,446.167 832.5,453.5ZM192.5,64C183.5,64.0001 175.167,65.6667 167.5,69C159.833,72.3334 153.083,76.9167 147.25,82.75C141.417,88.5834 136.833,95.3334 133.5,103C130.167,110.667 128.5,119 128.5,128L128.5,448L768.5,448L768.5,391.5C768.5,388.167 768.333,385.667 768,384L574,384C556.667,384 540.417,380.5 525.25,373.5C510.083,366.5 496.833,357.167 485.5,345.5C474.167,333.833 465.167,320.25 458.5,304.75C451.833,289.25 448.5,273 448.5,256L448.5,64.5C446.833,64.1667 444.333,64.0001 441,64ZM723.5,320L512.5,109L512.5,256C512.5,265 514.167,273.417 517.5,281.25C520.833,289.083 525.333,295.833 531,301.5C536.667,307.167 543.417,311.667 551.25,315C559.083,318.333 567.5,320 576.5,320ZM832.5,544C832.5,535.333 829.333,527.833 823,521.5C816.667,515.167 809.167,512 800.5,512L96.5,512C87.8333,512 80.3333,515.167 74,521.5C67.6667,527.833 64.5,535.333 64.5,544L64.5,800C64.5,808.667 67.6667,816.167 74,822.5C80.3333,828.833 87.8333,832 96.5,832L800.5,832C809.167,832 816.667,828.833 823,822.5C829.333,816.167 832.5,808.667 832.5,800ZM278,576C288,576 297.583,578 306.75,582C315.917,586 323.833,591.333 330.5,598C337.167,604.667 342.5,612.583 346.5,621.75C350.5,630.917 352.5,640.5 352.5,650.5C352.5,660.833 350.5,670.5 346.5,679.5C342.5,688.5 337.167,696.417 330.5,703.25C323.833,710.083 316,715.5 307,719.5C298,723.5 288.333,725.5 278,725.5L256.5,725.5C256.5,730.833 256.083,736 255.25,741C254.417,746 252.75,750.5 250.25,754.5C247.75,758.5 244.417,761.75 240.25,764.25C236.083,766.75 230.833,768 224.5,768C215.833,768 208.333,764.833 202,758.5C195.667,752.167 192.5,744.667 192.5,736L192.5,608C192.5,599.333 195.667,591.833 202,585.5C208.333,579.167 215.833,576 224.5,576ZM448.5,576C461.5,576 473.833,578.5 485.5,583.5C497.167,588.5 507.417,595.417 516.25,604.25C525.083,613.083 532,623.333 537,635C542,646.667 544.5,659 544.5,672C544.5,685 542,697.333 537,709C532,720.667 525.083,730.917 516.25,739.75C507.417,748.583 497.167,755.5 485.5,760.5C473.833,765.5 461.5,768 448.5,768L416.5,768C407.833,768 400.333,764.833 394,758.5C387.667,752.167 384.5,744.667 384.5,736L384.5,608C384.5,599.333 387.667,591.833 394,585.5C400.333,579.167 407.833,576 416.5,576ZM640.5,640L640.5,661.5L658,661.5C663.667,661.5 669.25,661.833 674.75,662.5C680.25,663.167 685.25,664.583 689.75,666.75C694.25,668.917 697.833,672.083 700.5,676.25C703.167,680.417 704.5,686.167 704.5,693.5C704.5,700.833 703.083,706.667 700.25,711C697.417,715.333 693.75,718.583 689.25,720.75C684.75,722.917 679.75,724.333 674.25,725C668.75,725.667 663.167,726 657.5,726C654.5,726 651.583,725.917 648.75,725.75C645.917,725.583 643.167,725.5 640.5,725.5C640.5,730.833 640.083,736.083 639.25,741.25C638.417,746.417 636.75,751 634.25,755C631.75,759 628.417,762.167 624.25,764.5C620.083,766.833 614.833,768 608.5,768C599.833,768 592.333,764.833 586,758.5C579.667,752.167 576.5,744.667 576.5,736L576.5,608C576.5,599.333 579.667,591.833 586,585.5C592.333,579.167 599.833,576 608.5,576L672.5,576C681.167,576 688.667,579.167 695,585.5C701.333,591.833 704.5,599.333 704.5,608C704.5,615.333 703.083,621.167 700.25,625.5C697.417,629.833 693.75,633.083 689.25,635.25C684.75,637.417 679.75,638.833 674.25,639.5C668.75,640.167 663.167,640.5 657.5,640.5C654.5,640.5 651.583,640.417 648.75,640.25C645.917,640.083 643.167,640 640.5,640ZM278,661.5C281,661.5 283.5,660.333 285.5,658C287.5,655.667 288.5,653.167 288.5,650.5C288.5,647.833 287.417,645.417 285.25,643.25C283.083,641.083 280.667,640 278,640L256.5,640L256.5,661.5ZM448.5,704C457.167,704 464.667,700.833 471,694.5C477.333,688.167 480.5,680.667 480.5,672C480.5,663.333 477.333,655.833 471,649.5C464.667,643.167 457.167,640 448.5,640ZM704.5,960C713.5,960 721.833,958.333 729.5,955C737.167,951.667 743.917,947.083 749.75,941.25C755.583,935.417 760.167,928.667 763.5,921C766.833,913.333 768.5,905 768.5,896L128.5,896C128.5,905 130.167,913.417 133.5,921.25C136.833,929.083 141.333,935.833 147,941.5C152.667,947.167 159.417,951.667 167.25,955C175.083,958.333 183.5,960 192.5,960Z" fill="#FFFFFF" fill-opacity="1">
  </path>
</svg>