<!-- Exported by Character Map UWP -->
<svg height="100%" viewBox="0 0 1024 1024" width="100%" xmlns="http://www.w3.org/2000/svg" xmlns:xlink="http://www.w3.org/1999/xlink">
  <path d="M384,960L384,979.5C384,987.167 384.25,994.667 384.75,1002C385.25,1009.33 386.833,1016.67 389.5,1024L125.5,1024C108.833,1024 92.9167,1020.58 77.75,1013.75C62.5833,1006.92 49.25,997.75 37.75,986.25C26.25,974.75 17.0833,961.417 10.25,946.25C3.41667,931.083 0,915.167 0,898.5L0,125.5C0,108.833 3.41667,92.9167 10.25,77.75C17.0833,62.5834 26.25,49.2501 37.75,37.75C49.25,26.2501 62.5833,17.0834 77.75,10.25C92.9167,3.41669 108.833,0 125.5,0L514.5,0C531.167,0 547.083,3.41669 562.25,10.25C577.417,17.0834 590.75,26.2501 602.25,37.75C613.75,49.2501 622.917,62.5834 629.75,77.75C636.583,92.9167 640,108.833 640,125.5L640,470.5C619.333,494.167 603.5,520.5 592.5,549.5C581.5,578.5 576,608.667 576,640L576,128C576,119.333 574.333,111.083 571,103.25C567.667,95.4167 563.083,88.5834 557.25,82.75C551.417,76.9167 544.583,72.3334 536.75,69C528.917,65.6667 520.667,64.0001 512,64L128,64C119,64.0001 110.667,65.6667 103,69C95.3333,72.3334 88.5833,76.9167 82.75,82.75C76.9167,88.5834 72.3333,95.3334 69,103C65.6667,110.667 64,119 64,128L64,896C64,905 65.6667,913.417 69,921.25C72.3333,929.083 76.8333,935.833 82.5,941.5C88.1667,947.167 94.9167,951.667 102.75,955C110.583,958.333 119,960 128,960ZM1024,640L1024,644C1024,669 1018.92,692.917 1008.75,715.75C998.583,738.583 984.917,758.583 967.75,775.75C950.583,792.917 930.583,806.583 907.75,816.75C884.917,826.917 861,832 836,832C824.333,832 812.833,831.167 801.5,829.5C790.167,827.833 779,825 768,821C768,824.667 768.083,828.833 768.25,833.5C768.417,838.167 768.5,843 768.5,848C768.5,854 768.167,859.833 767.5,865.5C766.833,871.167 765.333,876.25 763,880.75C760.667,885.25 757.333,888.917 753,891.75C748.667,894.583 743,896 736,896L704,896C704,911.667 703.583,923.75 702.75,932.25C701.917,940.75 699.417,947.083 695.25,951.25C691.083,955.417 684.667,957.917 676,958.75C667.333,959.583 655.333,960 640,960L640,977C640,982.667 639.667,988.25 639,993.75C638.333,999.25 636.917,1004.25 634.75,1008.75C632.583,1013.25 629.417,1016.92 625.25,1019.75C621.083,1022.58 615.333,1024 608,1024L480,1024C471.333,1024 463.833,1020.83 457.5,1014.5C451.167,1008.17 448,1000.67 448,992L448,896C448,887.333 451.167,879.833 457.5,873.5L645.5,685.5C641.833,668.167 640,651.667 640,636C640,610 645.167,585.583 655.5,562.75C665.833,539.917 679.833,520 697.5,503C715.167,486 735.583,472.583 758.75,462.75C781.917,452.917 806.333,448 832,448C858.667,448 883.667,453 907,463C930.333,473 950.667,486.667 968,504C985.333,521.333 999,541.667 1009,565C1019,588.333 1024,613.333 1024,640ZM928,592C928,578.667 923.333,567.333 914,558C904.667,548.667 893.333,544 880,544C866.667,544 855.333,548.667 846,558C836.667,567.333 832,578.667 832,592C832,605.333 836.667,616.667 846,626C855.333,635.333 866.667,640 880,640C893.333,640 904.667,635.333 914,626C923.333,616.667 928,605.333 928,592ZM576,664L576,640C576,643.667 576.083,647.5 576.25,651.5C576.417,655.5 576.667,659.333 577,663ZM384,768C392.667,768 400.167,771.167 406.5,777.5C412.833,783.833 416,791.333 416,800C416,808.667 412.833,816.167 406.5,822.5C400.167,828.833 392.667,832 384,832L256,832C247.333,832 239.833,828.833 233.5,822.5C227.167,816.167 224,808.667 224,800C224,791.333 227.167,783.833 233.5,777.5C239.833,771.167 247.333,768 256,768Z" fill="#FFFFFF" fill-opacity="1">
  </path>
</svg>