<!-- Exported by Character Map UWP -->
<svg height="100%" viewBox="0 0 1024 1024" width="100%" xmlns="http://www.w3.org/2000/svg" xmlns:xlink="http://www.w3.org/1999/xlink">
  <path d="M125.5,1024C108.833,1024 92.9167,1020.58 77.75,1013.75C62.5833,1006.92 49.25,997.75 37.75,986.25C26.25,974.75 17.0833,961.417 10.25,946.25C3.41667,931.083 0,915.167 0,898.5L0,125.5C0,108.833 3.41667,92.9167 10.25,77.75C17.0833,62.5834 26.25,49.2501 37.75,37.75C49.25,26.2501 62.5833,17.0834 77.75,10.25C92.9167,3.41669 108.833,0 125.5,0L514.5,0C531.167,0 547.083,3.41669 562.25,10.25C577.417,17.0834 590.75,26.2501 602.25,37.75C613.75,49.2501 622.917,62.5834 629.75,77.75C636.583,92.9167 640,108.833 640,125.5L640,380.5C617.667,386.5 596.333,394.5 576,404.5L576,128C576,119.333 574.333,111.083 571,103.25C567.667,95.4167 563.083,88.5834 557.25,82.75C551.417,76.9167 544.583,72.3334 536.75,69C528.917,65.6667 520.667,64.0001 512,64L128,64C119,64.0001 110.667,65.6667 103,69C95.3333,72.3334 88.5833,76.9167 82.75,82.75C76.9167,88.5834 72.3333,95.3334 69,103C65.6667,110.667 64,119 64,128L64,896C64,905 65.6667,913.417 69,921.25C72.3333,929.083 76.8333,935.833 82.5,941.5C88.1667,947.167 94.9167,951.667 102.75,955C110.583,958.333 119,960 128,960L443.5,960C452.5,972 462.333,983.333 473,994C483.667,1004.67 494.833,1014.67 506.5,1024ZM448,736C448,696.333 455.583,659 470.75,624C485.917,589 506.5,558.5 532.5,532.5C558.5,506.5 589,485.917 624,470.75C659,455.583 696.333,448 736,448C762.333,448 787.75,451.417 812.25,458.25C836.75,465.083 859.667,474.75 881,487.25C902.333,499.75 921.833,514.833 939.5,532.5C957.167,550.167 972.25,569.667 984.75,591C997.25,612.333 1006.92,635.25 1013.75,659.75C1020.58,684.25 1024,709.667 1024,736C1024,775.667 1016.42,813 1001.25,848C986.083,883 965.5,913.5 939.5,939.5C913.5,965.5 883,986.083 848,1001.25C813,1016.42 775.667,1024 736,1024C696,1024 658.5,1016.5 623.5,1001.5C588.5,986.5 558,966 532,940C506,914 485.5,883.5 470.5,848.5C455.5,813.5 448,776 448,736ZM854.5,666.5C854.5,650.5 851.5,635.167 845.5,620.5C839.5,605.833 831.333,592.833 821,581.5C810.667,570.167 798.417,561.083 784.25,554.25C770.083,547.417 754.833,544 738.5,544C720.5,544 704,547.25 689,553.75C674,560.25 661.25,569.083 650.75,580.25C640.25,591.417 632.083,604.667 626.25,620C620.417,635.333 617.5,651.833 617.5,669.5C617.5,678.167 620.667,685.583 627,691.75C633.333,697.917 640.833,701 649.5,701C658.833,701 666.5,697.667 672.5,691C678.5,684.333 681.5,676.5 681.5,667.5C681.5,659.5 682.75,651.833 685.25,644.5C687.75,637.167 691.333,630.833 696,625.5C700.667,620.167 706.333,615.917 713,612.75C719.667,609.583 727.333,608 736,608C744.333,608 751.833,609.667 758.5,613C765.167,616.333 770.917,620.833 775.75,626.5C780.583,632.167 784.25,638.667 786.75,646C789.25,653.333 790.5,661 790.5,669C790.5,676.333 788.333,682.667 784,688C779.667,693.333 774.333,698.583 768,703.75C761.667,708.917 754.75,714.167 747.25,719.5C739.75,724.833 732.833,731.167 726.5,738.5C720.167,745.833 714.833,754.417 710.5,764.25C706.167,774.083 704,786 704,800C704,808.667 707.167,816.167 713.5,822.5C719.833,828.833 727.333,832 736,832C747.667,832 755.667,828.417 760,821.25C764.333,814.083 767,805.667 768,796C768.667,790 771.25,784.667 775.75,780C780.25,775.333 785.667,770.583 792,765.75C798.333,760.917 805.167,755.75 812.5,750.25C819.833,744.75 826.583,738.167 832.75,730.5C838.917,722.833 844.083,713.833 848.25,703.5C852.417,693.167 854.5,680.833 854.5,666.5ZM256,832C247.333,832 239.833,828.833 233.5,822.5C227.167,816.167 224,808.667 224,800C224,791.333 227.167,783.833 233.5,777.5C239.833,771.167 247.333,768 256,768L369,768C370,778.667 371.5,789.333 373.5,800C375.5,810.667 377.833,821.333 380.5,832ZM776,896.5C776,885.5 772.083,876.083 764.25,868.25C756.417,860.417 747,856.5 736,856.5C725,856.5 715.583,860.417 707.75,868.25C699.917,876.083 696,885.5 696,896.5C696,907.5 699.917,916.917 707.75,924.75C715.583,932.583 725,936.5 736,936.5C747,936.5 756.417,932.583 764.25,924.75C772.083,916.917 776,907.5 776,896.5Z" fill="#FFFFFF" fill-opacity="1">
  </path>
</svg>