<!-- Exported by Character Map UWP -->
<svg height="100%" viewBox="0 0 1024 1024" width="100%" xmlns="http://www.w3.org/2000/svg" xmlns:xlink="http://www.w3.org/1999/xlink">
  <path d="M444,960C453,972 462.833,983.333 473.5,994C484.167,1004.67 495.333,1014.67 507,1024L125.5,1024C108.833,1024 92.9167,1020.58 77.75,1013.75C62.5833,1006.92 49.25,997.75 37.75,986.25C26.25,974.75 17.0833,961.417 10.25,946.25C3.41667,931.083 0,915.167 0,898.5L0,125.5C0,108.833 3.41667,92.9167 10.25,77.75C17.0833,62.5834 26.25,49.2501 37.75,37.75C49.25,26.2501 62.5833,17.0834 77.75,10.25C92.9167,3.41669 108.833,0 125.5,0L514.5,0C531.167,0 547.083,3.41669 562.25,10.25C577.417,17.0834 590.75,26.2501 602.25,37.75C613.75,49.2501 622.917,62.5834 629.75,77.75C636.583,92.9167 640,108.833 640,125.5L640,380.5C617.667,386.5 596.333,394.5 576,404.5L576,128C576,119.333 574.333,111.083 571,103.25C567.667,95.4167 563.083,88.5834 557.25,82.75C551.417,76.9167 544.583,72.3334 536.75,69C528.917,65.6667 520.667,64.0001 512,64L128,64C119,64.0001 110.667,65.6667 103,69C95.3333,72.3334 88.5833,76.9167 82.75,82.75C76.9167,88.5834 72.3333,95.3334 69,103C65.6667,110.667 64,119 64,128L64,896C64,905 65.6667,913.417 69,921.25C72.3333,929.083 76.8333,935.833 82.5,941.5C88.1667,947.167 94.9167,951.667 102.75,955C110.583,958.333 119,960 128,960ZM1024,736C1024,775.667 1016.42,813 1001.25,848C986.083,883 965.5,913.5 939.5,939.5C913.5,965.5 883,986.083 848,1001.25C813,1016.42 775.667,1024 736,1024C696,1024 658.5,1016.5 623.5,1001.5C588.5,986.5 558,966 532,940C506,914 485.5,883.5 470.5,848.5C455.5,813.5 448,776 448,736C448,727.333 451.167,719.833 457.5,713.5C463.833,707.167 471.333,704 480,704C490.667,704 498.667,707.583 504,714.75C509.333,721.917 512,730.333 512,740C512,770.333 518.083,798.833 530.25,825.5C542.417,852.167 558.75,875.5 579.25,895.5C599.75,915.5 623.583,931.25 650.75,942.75C677.917,954.25 706.333,960 736,960C766.667,960 795.583,954.083 822.75,942.25C849.917,930.417 873.667,914.333 894,894C914.333,873.667 930.417,849.917 942.25,822.75C954.083,795.583 960,766.667 960,736C960,706.333 954.25,677.917 942.75,650.75C931.25,623.583 915.5,599.75 895.5,579.25C875.5,558.75 852.167,542.417 825.5,530.25C798.833,518.083 770.333,512 740,512C709.333,512 680.333,517.333 653,528C625.667,538.667 601,554.667 579,576L593,576C598.667,576 604.25,576.25 609.75,576.75C615.25,577.25 620.25,578.583 624.75,580.75C629.25,582.917 632.917,586.167 635.75,590.5C638.583,594.833 640,600.667 640,608C640,616.667 636.833,624.167 630.5,630.5C624.167,636.833 616.667,640 608,640L480,640C471.333,640 463.833,636.833 457.5,630.5C451.167,624.167 448,616.667 448,608L448,480C448,471.333 451.167,463.833 457.5,457.5C463.833,451.167 471.333,448 480,448C488.667,448 496.167,451.167 502.5,457.5C508.833,463.833 512,471.333 512,480L512,554.5C525.667,537.833 540.917,522.917 557.75,509.75C574.583,496.583 592.667,485.417 612,476.25C631.333,467.083 651.417,460.083 672.25,455.25C693.083,450.417 714.333,448 736,448C762.333,448 787.75,451.417 812.25,458.25C836.75,465.083 859.667,474.75 881,487.25C902.333,499.75 921.833,514.833 939.5,532.5C957.167,550.167 972.25,569.667 984.75,591C997.25,612.333 1006.92,635.25 1013.75,659.75C1020.58,684.25 1024,709.667 1024,736ZM768,704L864,704C872.667,704 880.167,707.167 886.5,713.5C892.833,719.833 896,727.333 896,736C896,744.667 892.833,752.167 886.5,758.5C880.167,764.833 872.667,768 864,768L736,768C727.333,768 719.833,764.833 713.5,758.5C707.167,752.167 704,744.667 704,736L704,608C704,599.333 707.167,591.833 713.5,585.5C719.833,579.167 727.333,576 736,576C744.667,576 752.167,579.167 758.5,585.5C764.833,591.833 768,599.333 768,608ZM256,768L369.5,768C370.5,778.667 371.833,789.333 373.5,800C375.167,810.667 377.5,821.333 380.5,832L256,832C247.333,832 239.833,828.833 233.5,822.5C227.167,816.167 224,808.667 224,800C224,791.333 227.167,783.833 233.5,777.5C239.833,771.167 247.333,768 256,768Z" fill="#FFFFFF" fill-opacity="1">
  </path>
</svg>