<!-- Exported by Character Map UWP -->
<svg height="100%" viewBox="128 0 896 1024" width="100%" xmlns="http://www.w3.org/2000/svg" xmlns:xlink="http://www.w3.org/1999/xlink">
  <path d="M399,1024C372.333,1024 346.667,1018.5 322,1007.5C297.333,996.5 276,981 258,961C231.333,931.333 209.583,898.5 192.75,862.5C175.917,826.5 162.75,788.917 153.25,749.75C143.75,710.583 137.167,670.75 133.5,630.25C129.833,589.75 128,550.333 128,512C128,473.667 129.833,434.25 133.5,393.75C137.167,353.25 143.833,313.5 153.5,274.5C163.167,235.5 176.417,197.917 193.25,161.75C210.083,125.583 231.833,92.6667 258.5,63C276.5,43 297.667,27.5 322,16.5C346.333,5.5 372,0 399,0C406.667,0 414.083,0.416687 421.25,1.25C428.417,2.08337 435.833,3.33337 443.5,5L484.5,15C500.167,19.3334 514.667,25.75 528,34.25C541.333,42.75 552.75,53 562.25,65C571.75,77 579.167,90.3334 584.5,105C589.833,119.667 592.5,135.333 592.5,152C592.5,169.333 591.417,186.667 589.25,204C587.083,221.333 585,238.667 583,256C579.333,286.667 567.917,313 548.75,335C529.583,357 505,371.667 475,379C472.667,379.667 468.917,380.5 463.75,381.5C458.583,382.5 452.667,383.75 446,385.25C439.333,386.75 432.333,388.333 425,390C417.667,391.667 410.917,393.333 404.75,395C398.583,396.667 393.333,398.333 389,400C384.667,401.667 382.167,403.167 381.5,404.5C377.833,410.5 374.917,418.167 372.75,427.5C370.583,436.833 369,446.583 368,456.75C367,466.917 366.333,476.917 366,486.75C365.667,496.583 365.5,505 365.5,512C365.5,519.667 365.667,528.583 366,538.75C366.333,548.917 367.083,559.167 368.25,569.5C369.417,579.833 371.167,589.75 373.5,599.25C375.833,608.75 379,616.833 383,623.5C383.667,624.167 384.333,624.5 385,624.5C396.333,627.167 407.667,629.833 419,632.5L441.5,637C452.5,639.667 463.667,642.333 475,645C490,648.667 503.75,654.25 516.25,661.75C528.75,669.25 539.583,678.417 548.75,689.25C557.917,700.083 565.417,712.167 571.25,725.5C577.083,738.833 581,753 583,768C585,785 587.083,802.167 589.25,819.5C591.417,836.833 592.5,854.167 592.5,871.5C592.5,887.5 589.917,902.917 584.75,917.75C579.583,932.583 572.25,946.083 562.75,958.25C553.25,970.417 541.917,980.833 528.75,989.5C515.583,998.167 501.167,1004.5 485.5,1008.5L443.5,1018.5C428.167,1022.17 413.333,1024 399,1024ZM516.5,872C516.5,856 515.583,839.917 513.75,823.75C511.917,807.583 509.667,791.667 507,776C502.333,746.667 486,728 458,720C441.667,715.333 425,711.75 408,709.25C391,706.75 374.5,702.5 358.5,696.5C342.167,690.5 329.333,680.25 320,665.75C310.667,651.25 303.75,635.083 299.25,617.25C294.75,599.417 291.917,581.083 290.75,562.25C289.583,543.417 289,526.667 289,512C289,495 289.583,476.667 290.75,457C291.917,437.333 295.25,418.5 300.75,400.5C306.25,382.5 314.583,366.583 325.75,352.75C336.917,338.917 352.5,329.333 372.5,324C386.5,320.333 400.75,317.083 415.25,314.25C429.75,311.417 444,308 458,304C486,296 502.333,277.5 507,248.5C509.667,232.5 511.917,216.333 513.75,200C515.583,183.667 516.5,167.5 516.5,151.5C516.5,136.167 511.917,123 502.75,112C493.583,101 481.833,93.5001 467.5,89.5C456.833,86.5001 445.75,83.6667 434.25,81C422.75,78.3334 411.5,77 400.5,77C384.167,77 368.583,80.25 353.75,86.75C338.917,93.25 326,102.5 315,114.5C292,139.167 273.333,167.667 259,200C244.667,232.333 233.417,266.25 225.25,301.75C217.083,337.25 211.583,373.083 208.75,409.25C205.917,445.417 204.5,479.667 204.5,512C204.5,544.333 205.917,578.583 208.75,614.75C211.583,650.917 217,686.75 225,722.25C233,757.75 244.167,791.667 258.5,824C272.833,856.333 291.5,884.833 314.5,909.5C325.167,921.167 337.917,930.417 352.75,937.25C367.583,944.083 383,947.5 399,947.5C403.667,947.5 408.167,947.167 412.5,946.5C416.833,945.833 421.333,945 426,944C436.667,941.667 447.333,939.167 458,936.5C468.667,933.833 478.333,930 487,925C495.667,920 502.75,913.333 508.25,905C513.75,896.667 516.5,885.667 516.5,872ZM736,704C736,695.333 739.167,687.833 745.5,681.5L914.5,512L544,512C535.333,512 527.833,508.833 521.5,502.5C515.167,496.167 512,488.667 512,480C512,471.333 515.167,463.833 521.5,457.5C527.833,451.167 535.333,448 544,448L914.5,448L745.5,278.5C739.167,272.167 736,264.667 736,256C736,247.333 739.167,239.833 745.5,233.5C751.833,227.167 759.333,224 768,224C776.667,224 784.167,227.167 790.5,233.5L1014.5,457.5C1020.83,463.833 1024,471.333 1024,480C1024,488.667 1020.83,496.167 1014.5,502.5L790.5,726.5C784.167,732.833 776.667,736 768,736C759.333,736 751.833,732.833 745.5,726.5C739.167,720.167 736,712.667 736,704Z" fill="#FFFFFF" fill-opacity="1">
  </path>
</svg>