<!-- Exported by Character Map UWP -->
<svg height="100%" viewBox="64 1 832 1019" width="100%" xmlns="http://www.w3.org/2000/svg" xmlns:xlink="http://www.w3.org/1999/xlink">
  <path d="M129.5,832.5C129.5,818.5 131.667,804.917 136,791.75C140.333,778.583 146.667,766.333 155,755L234.5,647.5C244.833,633.5 257.75,622.583 273.25,614.75C288.75,606.917 305,603 322,603C334.667,603 346.833,605.167 358.5,609.5L461,646C462.667,646.667 464.417,647.167 466.25,647.5C468.083,647.833 469.833,648 471.5,648C477.5,648 483,646 488,642C495.333,636.333 503.333,628.5 512,618.5C520.667,608.5 529.333,597.25 538,584.75C546.667,572.25 555.167,559 563.5,545C571.833,531 579.167,517.167 585.5,503.5C591.833,489.833 596.917,476.75 600.75,464.25C604.583,451.75 606.5,440.833 606.5,431.5C606.5,428.833 606.083,426.667 605.25,425C604.417,423.333 603.167,421.5 601.5,419.5C594.5,410.833 587.083,402.417 579.25,394.25C571.417,386.083 563.583,378 555.75,370C547.917,362 540.167,353.833 532.5,345.5C524.833,337.167 517.5,328.5 510.5,319.5C502.5,309.167 496.25,298.083 491.75,286.25C487.25,274.417 485,261.833 485,248.5C485,244.5 485.25,240.5 485.75,236.5C486.25,232.5 486.833,228.5 487.5,224.5C489.833,211.833 493.167,197.583 497.5,181.75C501.833,165.917 507.167,149.667 513.5,133C519.833,116.333 527.25,100.083 535.75,84.25C544.25,68.4167 554,54.25 565,41.75C576,29.25 588.083,19.25 601.25,11.75C614.417,4.25 629,0.5 645,0.5C668,0.5 691.083,3.66669 714.25,10C737.417,16.3334 758.667,25.8334 778,38.5C785.333,43.1667 793,48.5834 801,54.75C809,60.9167 816.833,67.4167 824.5,74.25C832.167,81.0834 839.25,88.3334 845.75,96C852.25,103.667 857.5,111.333 861.5,119C867.5,130.667 872.75,143.167 877.25,156.5C881.75,169.833 885.333,183.583 888,197.75C890.667,211.917 892.667,226.083 894,240.25C895.333,254.417 896,268 896,281C896,323 890.833,365.5 880.5,408.5C870.167,451.5 856.333,493.667 839,535C821.667,576.333 801.583,616.25 778.75,654.75C755.917,693.25 732.167,729 707.5,762C694.833,779 680.167,797.083 663.5,816.25C646.833,835.417 628.833,854.583 609.5,873.75C590.167,892.917 569.667,911.25 548,928.75C526.333,946.25 504.167,961.75 481.5,975.25C458.833,988.75 435.917,999.5 412.75,1007.5C389.583,1015.5 366.833,1019.5 344.5,1019.5C328.833,1019.5 313.5,1017.92 298.5,1014.75C283.5,1011.58 269,1006.5 255,999.5C236.333,989.833 219.083,977.75 203.25,963.25C187.417,948.75 173.167,933.333 160.5,917C150.833,904.667 143.25,891.5 137.75,877.5C132.25,863.5 129.5,848.5 129.5,832.5ZM345,955.5C363,955.5 381.833,951.667 401.5,944C421.167,936.333 440.833,926.167 460.5,913.5C480.167,900.833 499.5,886.417 518.5,870.25C537.5,854.083 555.5,837.417 572.5,820.25C589.5,803.083 605.167,786.083 619.5,769.25C633.833,752.417 646.167,737.167 656.5,723.5C679.167,693.5 701.083,660.917 722.25,625.75C743.417,590.583 762.083,554.083 778.25,516.25C794.417,478.417 807.333,439.917 817,400.75C826.667,361.583 831.5,322.667 831.5,284C831.5,274 830.917,262.667 829.75,250C828.583,237.333 826.833,224.5 824.5,211.5C822.167,198.5 819.083,186 815.25,174C811.417,162 806.833,151.667 801.5,143C798.833,138.667 795.083,134 790.25,129C785.417,124 780.25,119.083 774.75,114.25C769.25,109.417 763.75,104.917 758.25,100.75C752.75,96.5834 747.833,93 743.5,90C728.5,80 712.833,73.25 696.5,69.75C680.167,66.25 663,64.5 645,64.5C637.333,64.5 629.667,68.1667 622,75.5C614.333,82.8334 606.917,92.1667 599.75,103.5C592.583,114.833 585.917,127.5 579.75,141.5C573.583,155.5 568.25,169.333 563.75,183C559.25,196.667 555.667,209.25 553,220.75C550.333,232.25 549,241.333 549,248C549,257.333 552,266.667 558,276C564,285.333 571.5,294.75 580.5,304.25C589.5,313.75 599.25,323.417 609.75,333.25C620.25,343.083 630,353.25 639,363.75C648,374.25 655.5,385.167 661.5,396.5C667.5,407.833 670.5,419.667 670.5,432C670.5,433.667 670.5,435.333 670.5,437C670.5,438.667 670.333,440.333 670,442C667,463 661.083,485.083 652.25,508.25C643.417,531.417 632.75,554.083 620.25,576.25C607.75,598.417 593.833,619.333 578.5,639C563.167,658.667 547.5,675.333 531.5,689C522.833,696.333 513.5,702 503.5,706C493.5,710 482.833,712 471.5,712C460.5,712 449.833,710.167 439.5,706.5L337,670C332,668.333 327,667.5 322,667.5C315,667.5 308.25,669.083 301.75,672.25C295.25,675.417 290,679.833 286,685.5L206.5,793C197.833,804.667 193.5,817.833 193.5,832.5C193.5,841.5 194.667,849.167 197,855.5C199.333,861.833 203.333,868.5 209,875.5C217.333,886.167 226.417,896.5 236.25,906.5C246.083,916.5 256.5,925.333 267.5,933C279.167,940.667 291.5,946.333 304.5,950C317.5,953.667 331,955.5 345,955.5ZM73,310C72,309.667 70.9167,308.583 69.75,306.75C68.5833,304.917 67.5833,302.833 66.75,300.5C65.9167,298.167 65.25,295.917 64.75,293.75C64.25,291.583 64,290 64,289C64,285 64.75,280.833 66.25,276.5C67.75,272.167 69.8333,268.667 72.5,266L201.5,137.5C207.833,131.167 215.333,128 224,128C232.667,128 240.167,131.167 246.5,137.5C252.833,143.833 256,151.333 256,160C256,168.667 252.833,176.167 246.5,182.5L173.5,256L416,256C424.667,256 432.167,259.167 438.5,265.5C444.833,271.833 448,279.333 448,288C448,296.667 444.833,304.167 438.5,310.5C432.167,316.833 424.667,320 416,320L173.5,320L246.5,393.5C252.833,399.833 256,407.333 256,416C256,424.667 252.833,432.167 246.5,438.5C240.167,444.833 232.667,448 224,448C215.333,448 207.833,444.833 201.5,438.5Z" fill="#FFFFFF" fill-opacity="1">
  </path>
</svg>