<!-- Exported by Character Map UWP -->
<svg height="100%" viewBox="192 64 640 896" width="100%" xmlns="http://www.w3.org/2000/svg" xmlns:xlink="http://www.w3.org/1999/xlink">
  <path d="M192,128C192,119 193.667,110.667 197,103C200.333,95.3334 204.917,88.5834 210.75,82.75C216.583,76.9167 223.333,72.3334 231,69C238.667,65.6667 247,64.0001 256,64C264.667,64.0001 272.917,65.6667 280.75,69C288.583,72.3334 295.417,76.9167 301.25,82.75C307.083,88.5834 311.667,95.4167 315,103.25C318.333,111.083 320,119.333 320,128C320,137 318.333,145.333 315,153C311.667,160.667 307.083,167.417 301.25,173.25C295.417,179.083 288.667,183.667 281,187C273.333,190.333 265,192 256,192C247,192 238.583,190.333 230.75,187C222.917,183.667 216.167,179.167 210.5,173.5C204.833,167.833 200.333,161.083 197,153.25C193.667,145.417 192,137 192,128ZM448,128C448,119 449.667,110.667 453,103C456.333,95.3334 460.917,88.5834 466.75,82.75C472.583,76.9167 479.333,72.3334 487,69C494.667,65.6667 503,64.0001 512,64C520.667,64.0001 528.917,65.6667 536.75,69C544.583,72.3334 551.417,76.9167 557.25,82.75C563.083,88.5834 567.667,95.4167 571,103.25C574.333,111.083 576,119.333 576,128C576,137 574.333,145.333 571,153C567.667,160.667 563.083,167.417 557.25,173.25C551.417,179.083 544.667,183.667 537,187C529.333,190.333 521,192 512,192C503,192 494.583,190.333 486.75,187C478.917,183.667 472.167,179.167 466.5,173.5C460.833,167.833 456.333,161.083 453,153.25C449.667,145.417 448,137 448,128ZM704,128C704,119 705.667,110.667 709,103C712.333,95.3334 716.917,88.5834 722.75,82.75C728.583,76.9167 735.333,72.3334 743,69C750.667,65.6667 759,64.0001 768,64C776.667,64.0001 784.917,65.6667 792.75,69C800.583,72.3334 807.417,76.9167 813.25,82.75C819.083,88.5834 823.667,95.4167 827,103.25C830.333,111.083 832,119.333 832,128C832,137 830.333,145.333 827,153C823.667,160.667 819.083,167.417 813.25,173.25C807.417,179.083 800.667,183.667 793,187C785.333,190.333 777,192 768,192C759,192 750.583,190.333 742.75,187C734.917,183.667 728.167,179.167 722.5,173.5C716.833,167.833 712.333,161.083 709,153.25C705.667,145.417 704,137 704,128ZM192,384C192,375 193.667,366.667 197,359C200.333,351.333 204.917,344.583 210.75,338.75C216.583,332.917 223.333,328.333 231,325C238.667,321.667 247,320 256,320C264.667,320 272.917,321.667 280.75,325C288.583,328.333 295.417,332.917 301.25,338.75C307.083,344.583 311.667,351.417 315,359.25C318.333,367.083 320,375.333 320,384C320,393 318.333,401.333 315,409C311.667,416.667 307.083,423.417 301.25,429.25C295.417,435.083 288.667,439.667 281,443C273.333,446.333 265,448 256,448C247,448 238.583,446.333 230.75,443C222.917,439.667 216.167,435.167 210.5,429.5C204.833,423.833 200.333,417.083 197,409.25C193.667,401.417 192,393 192,384ZM448,384C448,375 449.667,366.667 453,359C456.333,351.333 460.917,344.583 466.75,338.75C472.583,332.917 479.333,328.333 487,325C494.667,321.667 503,320 512,320C520.667,320 528.917,321.667 536.75,325C544.583,328.333 551.417,332.917 557.25,338.75C563.083,344.583 567.667,351.417 571,359.25C574.333,367.083 576,375.333 576,384C576,393 574.333,401.333 571,409C567.667,416.667 563.083,423.417 557.25,429.25C551.417,435.083 544.667,439.667 537,443C529.333,446.333 521,448 512,448C503,448 494.583,446.333 486.75,443C478.917,439.667 472.167,435.167 466.5,429.5C460.833,423.833 456.333,417.083 453,409.25C449.667,401.417 448,393 448,384ZM704,384C704,375 705.667,366.667 709,359C712.333,351.333 716.917,344.583 722.75,338.75C728.583,332.917 735.333,328.333 743,325C750.667,321.667 759,320 768,320C776.667,320 784.917,321.667 792.75,325C800.583,328.333 807.417,332.917 813.25,338.75C819.083,344.583 823.667,351.417 827,359.25C830.333,367.083 832,375.333 832,384C832,393 830.333,401.333 827,409C823.667,416.667 819.083,423.417 813.25,429.25C807.417,435.083 800.667,439.667 793,443C785.333,446.333 777,448 768,448C759,448 750.583,446.333 742.75,443C734.917,439.667 728.167,435.167 722.5,429.5C716.833,423.833 712.333,417.083 709,409.25C705.667,401.417 704,393 704,384ZM192,640C192,631 193.667,622.667 197,615C200.333,607.333 204.917,600.583 210.75,594.75C216.583,588.917 223.333,584.333 231,581C238.667,577.667 247,576 256,576C264.667,576 272.917,577.667 280.75,581C288.583,584.333 295.417,588.917 301.25,594.75C307.083,600.583 311.667,607.417 315,615.25C318.333,623.083 320,631.333 320,640C320,649 318.333,657.333 315,665C311.667,672.667 307.083,679.417 301.25,685.25C295.417,691.083 288.667,695.667 281,699C273.333,702.333 265,704 256,704C247,704 238.583,702.333 230.75,699C222.917,695.667 216.167,691.167 210.5,685.5C204.833,679.833 200.333,673.083 197,665.25C193.667,657.417 192,649 192,640ZM448,640C448,631 449.667,622.667 453,615C456.333,607.333 460.917,600.583 466.75,594.75C472.583,588.917 479.333,584.333 487,581C494.667,577.667 503,576 512,576C520.667,576 528.917,577.667 536.75,581C544.583,584.333 551.417,588.917 557.25,594.75C563.083,600.583 567.667,607.417 571,615.25C574.333,623.083 576,631.333 576,640C576,649 574.333,657.333 571,665C567.667,672.667 563.083,679.417 557.25,685.25C551.417,691.083 544.667,695.667 537,699C529.333,702.333 521,704 512,704C503,704 494.583,702.333 486.75,699C478.917,695.667 472.167,691.167 466.5,685.5C460.833,679.833 456.333,673.083 453,665.25C449.667,657.417 448,649 448,640ZM704,640C704,631 705.667,622.667 709,615C712.333,607.333 716.917,600.583 722.75,594.75C728.583,588.917 735.333,584.333 743,581C750.667,577.667 759,576 768,576C776.667,576 784.917,577.667 792.75,581C800.583,584.333 807.417,588.917 813.25,594.75C819.083,600.583 823.667,607.417 827,615.25C830.333,623.083 832,631.333 832,640C832,649 830.333,657.333 827,665C823.667,672.667 819.083,679.417 813.25,685.25C807.417,691.083 800.667,695.667 793,699C785.333,702.333 777,704 768,704C759,704 750.583,702.333 742.75,699C734.917,695.667 728.167,691.167 722.5,685.5C716.833,679.833 712.333,673.083 709,665.25C705.667,657.417 704,649 704,640ZM448,896C448,887 449.667,878.667 453,871C456.333,863.333 460.917,856.583 466.75,850.75C472.583,844.917 479.333,840.333 487,837C494.667,833.667 503,832 512,832C520.667,832 528.917,833.667 536.75,837C544.583,840.333 551.417,844.917 557.25,850.75C563.083,856.583 567.667,863.417 571,871.25C574.333,879.083 576,887.333 576,896C576,905 574.333,913.333 571,921C567.667,928.667 563.083,935.417 557.25,941.25C551.417,947.083 544.667,951.667 537,955C529.333,958.333 521,960 512,960C503,960 494.583,958.333 486.75,955C478.917,951.667 472.167,947.167 466.5,941.5C460.833,935.833 456.333,929.083 453,921.25C449.667,913.417 448,905 448,896Z" fill="#FFFFFF" fill-opacity="1">
  </path>
</svg>