<!-- Exported by Character Map UWP -->
<svg height="100%" viewBox="78 132 937 764" width="100%" xmlns="http://www.w3.org/2000/svg" xmlns:xlink="http://www.w3.org/1999/xlink">
  <path d="M1014.5,368C1014.5,386.667 1013.42,406.417 1011.25,427.25C1009.08,448.083 1004.5,467.583 997.5,485.75C990.5,503.917 980.25,519.583 966.75,532.75C953.25,545.917 935,554.167 912,557.5C905,558.5 897.917,559.083 890.75,559.25C883.583,559.417 876.333,559.5 869,559.5C850.667,559.5 832.417,558.833 814.25,557.5C796.083,556.167 779.25,552.583 763.75,546.75C748.25,540.917 734.583,532.083 722.75,520.25C710.917,508.417 702.167,492 696.5,471C695.5,467 694.167,460 692.5,450C690.833,440 688.833,429.5 686.5,418.5C684.167,407.5 681.75,397.583 679.25,388.75C676.75,379.917 674.333,374.833 672,373.5C666.667,370.5 658.583,368.083 647.75,366.25C636.917,364.417 625.333,362.917 613,361.75C600.667,360.583 588.667,359.75 577,359.25C565.333,358.75 556.167,358.5 549.5,358.5C541.167,358.5 531.417,358.667 520.25,359C509.083,359.333 497.75,360 486.25,361C474.75,362 463.583,363.5 452.75,365.5C441.917,367.5 432.833,370 425.5,373C420.833,375 417.25,377.417 414.75,380.25C412.25,383.083 410.333,386.833 409,391.5C407.333,398.833 405.5,406.167 403.5,413.5L392.5,456.5C390.833,463.833 389,471.167 387,478.5C382,498.5 373.333,514.417 361,526.25C348.667,538.083 334.5,547.083 318.5,553.25C302.5,559.417 285.333,563.5 267,565.5C248.667,567.5 230.833,568.5 213.5,568.5C184.5,568.5 161.167,564.167 143.5,555.5C125.833,546.833 112.083,534.75 102.25,519.25C92.4167,503.75 85.8333,485.417 82.5,464.25C79.1667,443.083 77.5,420 77.5,395C77.5,382.667 77.9167,369.5 78.75,355.5C79.5833,341.5 82.3333,328.667 87,317C94.3333,298 105.667,280.75 121,265.25C136.333,249.75 152.333,236.667 169,226C195.667,208.667 224.667,194 256,182C287.333,170 319.583,160.333 352.75,153C385.917,145.667 419.25,140.333 452.75,137C486.25,133.667 518.667,132 550,132C574.667,132 600.833,133.083 628.5,135.25C656.167,137.417 684.167,141.167 712.5,146.5C740.833,151.833 768.833,158.75 796.5,167.25C824.167,175.75 850.5,186.333 875.5,199C900.5,211.667 923.417,226.583 944.25,243.75C965.083,260.917 982.833,280.667 997.5,303C1004.5,313.667 1009.08,324 1011.25,334C1013.42,344 1014.5,355.333 1014.5,368ZM550,196C531,196 510.417,196.75 488.25,198.25C466.083,199.75 443.417,202.25 420.25,205.75C397.083,209.25 373.833,213.667 350.5,219C327.167,224.333 304.667,231 283,239C261.333,247 241.167,256.333 222.5,267C203.833,277.667 187.5,289.833 173.5,303.5C167.833,308.833 162.5,314.917 157.5,321.75C152.5,328.583 148.667,335.667 146,343C144.667,346.667 143.667,350.833 143,355.5C142.333,360.167 141.833,365 141.5,370C141.167,375 141,379.917 141,384.75C141,389.583 141,393.833 141,397.5C141,408.167 141.333,419 142,430C142.667,441 144.167,451.833 146.5,462.5C148.5,471.833 151.583,479.25 155.75,484.75C159.917,490.25 164.917,494.5 170.75,497.5C176.583,500.5 183.167,502.417 190.5,503.25C197.833,504.083 205.667,504.5 214,504.5C227.333,504.5 241.167,503.917 255.5,502.75C269.833,501.583 283.333,498.667 296,494C310.667,488.667 320.333,478.167 325,462.5C329.333,448.167 333.083,433.75 336.25,419.25C339.417,404.75 343,390.167 347,375.5C351.667,359.5 359.167,345.917 369.5,334.75C379.833,323.583 393,315.667 409,311C431.333,304.333 454.333,300 478,298C501.667,296 525.167,295 548.5,295C558.833,295 570.333,295.25 583,295.75C595.667,296.25 608.417,297.167 621.25,298.5C634.083,299.833 646.583,301.667 658.75,304C670.917,306.333 681.833,309.167 691.5,312.5C704.167,317.167 714.417,324 722.25,333C730.083,342 736,352.833 740,365.5C744.667,380.5 748,395.583 750,410.75C752,425.917 755,441 759,456C764.333,474.667 777,486 797,490C808.667,492.667 820.75,494.25 833.25,494.75C845.75,495.25 857.833,495.5 869.5,495.5L881,495.5C885,495.5 889.083,495.417 893.25,495.25C897.417,495.083 901.333,494.667 905,494C914.333,492.333 921.5,488.917 926.5,483.75C931.5,478.583 935.333,471.667 938,463C942.667,447 945.917,430.75 947.75,414.25C949.583,397.75 950.5,381.167 950.5,364.5C950.5,359.833 950.167,355.5 949.5,351.5C948.833,347.5 947.167,343.333 944.5,339C932.167,320 916.75,303.333 898.25,289C879.75,274.667 859.333,262.167 837,251.5C814.667,240.833 791.083,232 766.25,225C741.417,218 716.417,212.333 691.25,208C666.083,203.667 641.417,200.583 617.25,198.75C593.083,196.917 570.667,196 550,196ZM672,704C680.667,704 688.167,707.167 694.5,713.5C700.833,719.833 704,727.333 704,736C704,744.667 700.833,752.167 694.5,758.5L568,885C564.333,888.667 560.75,891.417 557.25,893.25C553.75,895.083 549.333,896 544,896C538.667,896 534.25,895.083 530.75,893.25C527.25,891.417 523.667,888.667 520,885L393.5,758.5C387.167,752.167 384,744.667 384,736C384,727.333 387.167,719.833 393.5,713.5C399.833,707.167 407.333,704 416,704C424.667,704 432.167,707.167 438.5,713.5L512,786.5L512,544C512,535.333 515.167,527.833 521.5,521.5C527.833,515.167 535.333,512 544,512C552.667,512 560.167,515.167 566.5,521.5C572.833,527.833 576,535.333 576,544L576,786.5L649.5,713.5C655.833,707.167 663.333,704 672,704Z" fill="#FFFFFF" fill-opacity="1">
  </path>
</svg>