<!-- Exported by Character Map UWP -->
<svg height="100%" viewBox="128 0 768 1024" width="100%" xmlns="http://www.w3.org/2000/svg" xmlns:xlink="http://www.w3.org/1999/xlink">
  <path d="M253.5,1024C236.833,1024 220.917,1020.58 205.75,1013.75C190.583,1006.92 177.25,997.75 165.75,986.25C154.25,974.75 145.083,961.417 138.25,946.25C131.417,931.083 128,915.167 128,898.5L128,125.5C128,108.833 131.417,92.9167 138.25,77.75C145.083,62.5834 154.25,49.2501 165.75,37.75C177.25,26.2501 190.583,17.0834 205.75,10.25C220.917,3.41669 236.833,0 253.5,0L770.5,0C787.167,0 803.083,3.41669 818.25,10.25C833.417,17.0834 846.75,26.2501 858.25,37.75C869.75,49.2501 878.917,62.5834 885.75,77.75C892.583,92.9167 896,108.833 896,125.5L896,832C896,841 894.333,849.333 891,857C887.667,864.667 883.083,871.417 877.25,877.25C871.417,883.083 864.667,887.667 857,891C849.333,894.333 841,896 832,896L192,896C192,905 193.667,913.417 197,921.25C200.333,929.083 204.833,935.833 210.5,941.5C216.167,947.167 222.917,951.667 230.75,955C238.583,958.333 247,960 256,960L864,960C872.667,960 880.167,963.167 886.5,969.5C892.833,975.833 896,983.333 896,992C896,1000.67 892.833,1008.17 886.5,1014.5C880.167,1020.83 872.667,1024 864,1024ZM192,832L832,832L832,128C832,119.333 830.333,111.083 827,103.25C823.667,95.4167 819.083,88.5834 813.25,82.75C807.417,76.9167 800.583,72.3334 792.75,69C784.917,65.6667 776.667,64.0001 768,64L256,64C247,64.0001 238.667,65.6667 231,69C223.333,72.3334 216.583,76.9167 210.75,82.75C204.917,88.5834 200.333,95.3334 197,103C193.667,110.667 192,119 192,128ZM416,352C416,339 418.5,326.667 423.5,315C428.5,303.333 435.417,293.083 444.25,284.25C453.083,275.417 463.333,268.5 475,263.5C486.667,258.5 499,256 512,256C525,256 537.333,258.5 549,263.5C560.667,268.5 570.917,275.417 579.75,284.25C588.583,293.083 595.5,303.333 600.5,315C605.5,326.667 608,339 608,352C608,365 605.5,377.333 600.5,389C595.5,400.667 588.583,410.917 579.75,419.75C570.917,428.583 560.667,435.5 549,440.5C537.333,445.5 525,448 512,448C499,448 486.667,445.5 475,440.5C463.333,435.5 453.083,428.583 444.25,419.75C435.417,410.917 428.5,400.667 423.5,389C418.5,377.333 416,365 416,352ZM445.5,704C428.833,704 412.917,700.583 397.75,693.75C382.583,686.917 369.25,677.75 357.75,666.25C346.25,654.75 337.083,641.417 330.25,626.25C323.417,611.083 320,595.167 320,578.5L320,560C320,546.667 324.667,535.333 334,526C343.333,516.667 354.667,512 368,512L656,512C669.333,512 680.667,516.667 690,526C699.333,535.333 704,546.667 704,560L704,576C704,593 700.667,609.25 694,624.75C687.333,640.25 678.333,653.833 667,665.5C655.667,677.167 642.417,686.5 627.25,693.5C612.083,700.5 595.833,704 578.5,704Z" fill="#FFFFFF" fill-opacity="1">
  </path>
</svg>