<!-- Exported by Character Map UWP -->
<svg height="100%" viewBox="3 -1 1022 1026" width="100%" xmlns="http://www.w3.org/2000/svg" xmlns:xlink="http://www.w3.org/1999/xlink">
  <path d="M553.5,1024C534.5,1024 516.25,1021.08 498.75,1015.25C481.25,1009.42 464.5,1001.33 448.5,991C415.5,969 384.167,944.75 354.5,918.25C324.833,891.75 296.833,863.583 270.5,833.75C244.167,803.917 219.5,772.667 196.5,740C173.5,707.333 152.167,674 132.5,640C111.5,604 92.9167,568.083 76.75,532.25C60.5833,496.417 47,460 36,423C25,386 16.6667,348.083 11,309.25C5.33333,270.417 2.5,230.167 2.5,188.5C2.5,158.833 8.58333,132.25 20.75,108.75C32.9167,85.25 49.1667,65.3334 69.5,49C89.8333,32.6667 112.917,20.1667 138.75,11.5C164.583,2.83337 191.333,-1.5 219,-1.5C233.333,-1.5 247.667,-0.5 262,1.5C276.333,3.5 290,7 303,12C316,17 328,23.8334 339,32.5C350,41.1667 359.333,52.1667 367,65.5L403.5,129.5C397.5,142.5 392.083,155.75 387.25,169.25C382.417,182.75 378.667,196.5 376,210.5C375.667,209.5 374.833,208 373.5,206L311.5,97.5C306.833,89.8334 301,83.6667 294,79C287,74.3334 279.25,70.75 270.75,68.25C262.25,65.75 253.5,64.1667 244.5,63.5C235.5,62.8334 227,62.5001 219,62.5C197,62.5001 176.667,65.5001 158,71.5C139.333,77.5001 123.25,86.4167 109.75,98.25C96.25,110.083 85.6667,124.75 78,142.25C70.3333,159.75 66.5,180 66.5,203C66.5,248 71.6667,294 82,341C92.3333,388 106.75,434.667 125.25,481C143.75,527.333 165.917,572.583 191.75,616.75C217.583,660.917 246,702.75 277,742.25C308,781.75 341,818.083 376,851.25C411,884.417 447,913.167 484,937.5C494.667,944.5 505.833,950 517.5,954C529.167,958 541.333,960 554,960C571,960 587.083,956.667 602.25,950C617.417,943.333 631.25,934.5 643.75,923.5C656.25,912.5 667.083,899.917 676.25,885.75C685.417,871.583 692.833,857 698.5,842C699.833,838.333 700.75,835.167 701.25,832.5C701.75,829.833 702,826.667 702,823C702,814 699.667,805.333 695,797L634,688C625.333,672.667 613.667,660.667 599,652C584.333,643.333 568.167,639 550.5,639C539.833,639 529.5,640.5 519.5,643.5C512.167,646.167 504.667,648.833 497,651.5L482.5,657.5C475.167,660.167 467.667,662.667 460,665C450,668.333 439.5,670 428.5,670C414.167,670 401,667.667 389,663C377,658.333 365.833,651 355.5,641C344.5,630.667 333.417,617.833 322.25,602.5C311.083,587.167 301,570.833 292,553.5C283,536.167 275.667,518.667 270,501C264.333,483.333 261.5,466.667 261.5,451C261.5,435.667 264,422.333 269,411C274,399.667 280.583,389.417 288.75,380.25C296.917,371.083 306.167,362.583 316.5,354.75C326.833,346.917 337.5,338.833 348.5,330.5C356.167,324.833 362.833,317.833 368.5,309.5C369.167,322.5 370.583,335.333 372.75,348C374.917,360.667 377.667,373.333 381,386C375.667,390 369.75,394.25 363.25,398.75C356.75,403.25 350.75,408.167 345.25,413.5C339.75,418.833 335.083,424.667 331.25,431C327.417,437.333 325.5,444.333 325.5,452C325.5,454 325.833,456.667 326.5,460C328.833,471.333 332.333,483.333 337,496C341.667,508.667 347.25,521.083 353.75,533.25C360.25,545.417 367.417,556.917 375.25,567.75C383.083,578.583 391.333,587.833 400,595.5C408,602.5 417.667,606 429,606C435.667,606 442.417,604.917 449.25,602.75C456.083,600.583 463,598.083 470,595.25C477,592.417 484,589.583 491,586.75C498,583.917 504.833,581.667 511.5,580C563.5,619.667 622.167,644 687.5,653C688.167,653.333 688.5,653.833 688.5,654.5L689,655.5C689.333,655.833 689.667,656.333 690,657L751,766C761,783.667 766,802.667 766,823C766,837 763.5,850.667 758.5,864C750.833,885.333 740.25,905.667 726.75,925C713.25,944.333 697.667,961.333 680,976C662.333,990.667 642.75,1002.33 621.25,1011C599.75,1019.67 577.167,1024 553.5,1024ZM448,288C448,248.333 455.583,211 470.75,176C485.917,141 506.5,110.5 532.5,84.5C558.5,58.5 589,37.9167 624,22.75C659,7.58337 696.333,0 736,0C762.333,0 787.75,3.41669 812.25,10.25C836.75,17.0834 859.667,26.7501 881,39.25C902.333,51.7501 921.833,66.8334 939.5,84.5C957.167,102.167 972.25,121.667 984.75,143C997.25,164.333 1006.92,187.25 1013.75,211.75C1020.58,236.25 1024,261.667 1024,288C1024,327.667 1016.42,365 1001.25,400C986.083,435 965.5,465.5 939.5,491.5C913.5,517.5 883,538.083 848,553.25C813,568.417 775.667,576 736,576C696,576 658.5,568.5 623.5,553.5C588.5,538.5 558,518 532,492C506,466 485.5,435.5 470.5,400.5C455.5,365.5 448,328 448,288ZM608,450.5C617.667,450.5 625.833,447.167 632.5,440.5L736,336.5L839.5,440.5C842.5,443.5 846.25,445.917 850.75,447.75C855.25,449.583 859.667,450.5 864,450.5C873.667,450.5 881.833,447.167 888.5,440.5C895.167,433.833 898.5,425.667 898.5,416C898.5,406.333 895.167,398.167 888.5,391.5L784.5,288L888.5,184.5C895.167,177.833 898.5,169.667 898.5,160C898.5,150.333 895.167,142.167 888.5,135.5C881.833,128.833 873.667,125.5 864,125.5C854.333,125.5 846.167,128.833 839.5,135.5L736,239.5L632.5,135.5C625.833,128.833 617.667,125.5 608,125.5C598.333,125.5 590.167,128.833 583.5,135.5C576.833,142.167 573.5,150.333 573.5,160C573.5,164.333 574.417,168.75 576.25,173.25C578.083,177.75 580.5,181.5 583.5,184.5L687.5,288L583.5,391.5C576.833,398.167 573.5,406.333 573.5,416C573.5,425.667 576.833,433.833 583.5,440.5C590.167,447.167 598.333,450.5 608,450.5Z" fill="#FFFFFF" fill-opacity="1">
  </path>
</svg>