<!-- Exported by Character Map UWP -->
<svg height="100%" viewBox="0 128 1024 768" width="100%" xmlns="http://www.w3.org/2000/svg" xmlns:xlink="http://www.w3.org/1999/xlink">
  <path d="M125.5,896C108.833,896 92.9167,892.583 77.75,885.75C62.5833,878.917 49.25,869.75 37.75,858.25C26.25,846.75 17.0833,833.417 10.25,818.25C3.41667,803.083 0,787.167 0,770.5L0,253.5C0,236.833 3.41667,220.917 10.25,205.75C17.0833,190.583 26.25,177.25 37.75,165.75C49.25,154.25 62.5833,145.083 77.75,138.25C92.9167,131.417 108.833,128 125.5,128L898.5,128C915.167,128 931.083,131.417 946.25,138.25C961.417,145.083 974.75,154.25 986.25,165.75C997.75,177.25 1006.92,190.583 1013.75,205.75C1020.58,220.917 1024,236.833 1024,253.5L1024,770.5C1024,787.167 1020.58,803.083 1013.75,818.25C1006.92,833.417 997.75,846.75 986.25,858.25C974.75,869.75 961.417,878.917 946.25,885.75C931.083,892.583 915.167,896 898.5,896ZM896,832C905,832 913.333,830.333 921,827C928.667,823.667 935.417,819.083 941.25,813.25C947.083,807.417 951.667,800.667 955,793C958.333,785.333 960,777 960,768L960,256C960,247.333 958.333,239.083 955,231.25C951.667,223.417 947.083,216.583 941.25,210.75C935.417,204.917 928.583,200.333 920.75,197C912.917,193.667 904.667,192 896,192L128,192C119,192 110.667,193.667 103,197C95.3333,200.333 88.5833,204.917 82.75,210.75C76.9167,216.583 72.3333,223.333 69,231C65.6667,238.667 64,247 64,256L64,768C64,777 65.6667,785.417 69,793.25C72.3333,801.083 76.8333,807.833 82.5,813.5C88.1667,819.167 94.9167,823.667 102.75,827C110.583,830.333 119,832 128,832ZM192,509.5C192,492.833 195.417,476.917 202.25,461.75C209.083,446.583 218.25,433.25 229.75,421.75C241.25,410.25 254.583,401.083 269.75,394.25C284.917,387.417 300.833,384 317.5,384L706.5,384C723.833,384 740.083,387.5 755.25,394.5C770.417,401.5 783.667,410.833 795,422.5C806.333,434.167 815.333,447.75 822,463.25C828.667,478.75 832,495 832,512C832,529.667 828.583,546.25 821.75,561.75C814.917,577.25 805.75,590.75 794.25,602.25C782.75,613.75 769.167,622.917 753.5,629.75C737.833,636.583 721.333,640 704,640C687,640 670.75,636.667 655.25,630C639.75,623.333 626.167,614.333 614.5,603C602.833,591.667 593.5,578.417 586.5,563.25C579.5,548.083 576,531.833 576,514.5C576,502.833 577.333,491.333 580,480C582.667,468.667 587,458 593,448L431,448C437,458 441.333,468.667 444,480C446.667,491.333 448,502.833 448,514.5C448,531.833 444.5,548.083 437.5,563.25C430.5,578.417 421.167,591.667 409.5,603C397.833,614.333 384.25,623.333 368.75,630C353.25,636.667 337,640 320,640C302,640 285.167,636.5 269.5,629.5C253.833,622.5 240.25,613.083 228.75,601.25C217.25,589.417 208.25,575.583 201.75,559.75C195.25,543.917 192,527.167 192,509.5ZM384,512C384,503.333 382.333,495.083 379,487.25C375.667,479.417 371.083,472.583 365.25,466.75C359.417,460.917 352.583,456.333 344.75,453C336.917,449.667 328.667,448 320,448C311,448 302.667,449.667 295,453C287.333,456.333 280.583,460.917 274.75,466.75C268.917,472.583 264.333,479.333 261,487C257.667,494.667 256,503 256,512C256,521 257.667,529.417 261,537.25C264.333,545.083 268.833,551.833 274.5,557.5C280.167,563.167 286.917,567.667 294.75,571C302.583,574.333 311,576 320,576C329,576 337.333,574.333 345,571C352.667,567.667 359.417,563.083 365.25,557.25C371.083,551.417 375.667,544.667 379,537C382.333,529.333 384,521 384,512ZM768,512C768,503.333 766.333,495.083 763,487.25C759.667,479.417 755.083,472.583 749.25,466.75C743.417,460.917 736.583,456.333 728.75,453C720.917,449.667 712.667,448 704,448C695,448 686.667,449.667 679,453C671.333,456.333 664.583,460.917 658.75,466.75C652.917,472.583 648.333,479.333 645,487C641.667,494.667 640,503 640,512C640,521 641.667,529.417 645,537.25C648.333,545.083 652.833,551.833 658.5,557.5C664.167,563.167 670.917,567.667 678.75,571C686.583,574.333 695,576 704,576C713,576 721.333,574.333 729,571C736.667,567.667 743.417,563.083 749.25,557.25C755.083,551.417 759.667,544.667 763,537C766.333,529.333 768,521 768,512Z" fill="#FFFFFF" fill-opacity="1">
  </path>
</svg>