<!-- Exported by Character Map UWP -->
<svg height="100%" viewBox="67 -1 894 1026" width="100%" xmlns="http://www.w3.org/2000/svg" xmlns:xlink="http://www.w3.org/1999/xlink">
  <path d="M617.5,1024C598.5,1024 580.25,1021.08 562.75,1015.25C545.25,1009.42 528.5,1001.33 512.5,991C479.5,969.333 448.167,945.167 418.5,918.5C388.833,891.833 360.833,863.5 334.5,833.5C308.167,803.5 283.5,772.167 260.5,739.5C237.5,706.833 216.167,673.667 196.5,640C175.5,604 156.917,568.083 140.75,532.25C124.583,496.417 111,460 100,423C89,386 80.6667,348.083 75,309.25C69.3333,270.417 66.5,230.167 66.5,188.5C66.5,158.5 72.6667,131.75 85,108.25C97.3333,84.7501 113.667,64.9167 134,48.75C154.333,32.5834 177.5,20.1667 203.5,11.5C229.5,2.83337 256.333,-1.5 284,-1.5C298.333,-1.5 312.667,-0.5 327,1.5C341.333,3.5 354.917,7 367.75,12C380.583,17 392.417,23.8334 403.25,32.5C414.083,41.1667 423.333,52.1667 431,65.5L493,174C507.333,198.667 514.5,225.167 514.5,253.5C514.5,275.5 511.417,294.25 505.25,309.75C499.083,325.25 491.333,338.75 482,350.25C472.667,361.75 462.667,371.667 452,380C441.333,388.333 431.333,396.25 422,403.75C412.667,411.25 404.917,418.75 398.75,426.25C392.583,433.75 389.5,442.333 389.5,452C389.5,461.667 392,473.417 397,487.25C402,501.083 408.25,515 415.75,529C423.25,543 431.333,556.083 440,568.25C448.667,580.417 456.667,589.5 464,595.5C468.667,599.167 473.167,601.833 477.5,603.5C481.833,605.167 487,606 493,606C501,606 509.417,604.417 518.25,601.25C527.083,598.083 536.417,594.5 546.25,590.5C556.083,586.5 566.583,582.917 577.75,579.75C588.917,576.583 601,575 614,575C643.333,575 670.417,582.25 695.25,596.75C720.083,611.25 739.667,631.333 754,657L815,766C825,783.667 830,802.667 830,823C830,837 827.5,850.667 822.5,864C814.833,885.333 804.25,905.667 790.75,925C777.25,944.333 761.667,961.333 744,976C726.333,990.667 706.75,1002.33 685.25,1011C663.75,1019.67 641.167,1024 617.5,1024ZM576,32C576,23.3334 579.167,15.8334 585.5,9.5C591.833,3.16669 599.333,0 608,0C640.333,0 671.5,4.16669 701.5,12.5C731.5,20.8334 759.5,32.6667 785.5,48C811.5,63.3334 835.25,81.75 856.75,103.25C878.25,124.75 896.667,148.5 912,174.5C927.333,200.5 939.167,228.5 947.5,258.5C955.833,288.5 960,319.667 960,352C960,360.667 956.833,368.167 950.5,374.5C944.167,380.833 936.667,384 928,384C919.333,384 911.833,380.833 905.5,374.5C899.167,368.167 896,360.667 896,352C896,326 892.75,301.167 886.25,277.5C879.75,253.833 870,230.667 857,208C844,185.667 828.583,165.667 810.75,148C792.917,130.333 773.25,115.25 751.75,102.75C730.25,90.25 707.417,80.6667 683.25,74C659.083,67.3334 634,64.0001 608,64C599.333,64.0001 591.833,60.8334 585.5,54.5C579.167,48.1667 576,40.6667 576,32ZM766,823C766,814 763.667,805.333 759,797L698,688C689.333,672.667 677.667,660.667 663,652C648.333,643.333 632.167,639 614.5,639C603.833,639 593.5,640.583 583.5,643.75C573.5,646.917 563.583,650.5 553.75,654.5C543.917,658.5 533.917,662.083 523.75,665.25C513.583,668.417 503,670 492,670C463.667,670 439.5,660.5 419.5,641.5C408.5,631.167 397.417,618.25 386.25,602.75C375.083,587.25 365,570.833 356,553.5C347,536.167 339.667,518.583 334,500.75C328.333,482.917 325.5,466.333 325.5,451C325.5,433.333 328.583,418.417 334.75,406.25C340.917,394.083 348.667,383.5 358,374.5C367.333,365.5 377.333,357.167 388,349.5C398.667,341.833 408.667,333.667 418,325C427.333,316.333 435.083,306.417 441.25,295.25C447.417,284.083 450.5,270.333 450.5,254C450.5,237.333 446.167,221.333 437.5,206L375.5,97.5C370.833,89.8334 365,83.6667 358,79C351,74.3334 343.25,70.75 334.75,68.25C326.25,65.75 317.5,64.1667 308.5,63.5C299.5,62.8334 291,62.5001 283,62.5C261,62.5001 240.667,65.5001 222,71.5C203.333,77.5001 187.25,86.4167 173.75,98.25C160.25,110.083 149.667,124.75 142,142.25C134.333,159.75 130.5,180 130.5,203C130.5,248 135.667,294 146,341C156.333,388 170.75,434.667 189.25,481C207.75,527.333 229.917,572.583 255.75,616.75C281.583,660.917 310,702.667 341,742C372,781.333 405,817.667 440,851C475,884.333 511,913.167 548,937.5C558.667,944.5 569.833,950 581.5,954C593.167,958 605.333,960 618,960C635,960 651.083,956.667 666.25,950C681.417,943.333 695.25,934.5 707.75,923.5C720.25,912.5 731.083,899.917 740.25,885.75C749.417,871.583 756.833,857 762.5,842C763.833,838.333 764.75,835.167 765.25,832.5C765.75,829.833 766,826.667 766,823ZM768,348.5C768,326.833 763.667,306.5 755,287.5C746.333,268.5 734.667,251.917 720,237.75C705.333,223.583 688.333,212.417 669,204.25C649.667,196.083 629.333,192 608,192C599.333,192 591.833,188.833 585.5,182.5C579.167,176.167 576,168.667 576,160C576,149.333 579.583,141.333 586.75,136C593.917,130.667 602.333,128 612,128C641.333,128 669.25,134 695.75,146C722.25,158 745.583,174.083 765.75,194.25C785.917,214.417 802,237.75 814,264.25C826,290.75 832,318.667 832,348C832,357.667 829.333,366.083 824,373.25C818.667,380.417 810.667,384 800,384C789.667,384 781.75,380.5 776.25,373.5C770.75,366.5 768,358.167 768,348.5ZM576,288C576,279.333 579.167,271.833 585.5,265.5C591.833,259.167 599.333,256 608,256C621,256 633.333,258.5 645,263.5C656.667,268.5 666.917,275.417 675.75,284.25C684.583,293.083 691.5,303.333 696.5,315C701.5,326.667 704,339 704,352C704,360.667 700.833,368.167 694.5,374.5C688.167,380.833 680.667,384 672,384C663.333,384 655.833,380.833 649.5,374.5C643.167,368.167 640,360.667 640,352C640,344 638.417,338 635.25,334C632.083,330 628.167,326.917 623.5,324.75C618.833,322.583 613.667,321 608,320C602.333,319 597.167,317.417 592.5,315.25C587.833,313.083 583.917,310 580.75,306C577.583,302 576,296 576,288Z" fill="#FFFFFF" fill-opacity="1">
  </path>
</svg>