<!-- Exported by Character Map UWP -->
<svg height="100%" viewBox="0 0 1024 1024" width="100%" xmlns="http://www.w3.org/2000/svg" xmlns:xlink="http://www.w3.org/1999/xlink">
  <path d="M361.5,1024C346.5,1024 332.083,1021.92 318.25,1017.75C304.417,1013.58 291.5,1007.58 279.5,999.75C267.5,991.917 256.833,982.417 247.5,971.25C238.167,960.083 230.5,947.667 224.5,934L198.5,873.5C193.167,861.5 186.417,851.833 178.25,844.5C170.083,837.167 160.917,830.833 150.75,825.5C140.583,820.167 129.917,815.417 118.75,811.25C107.583,807.083 96.3333,802.25 85,796.75C73.6667,791.25 62.8333,784.417 52.5,776.25C42.1667,768.083 32.6667,757.333 24,744C8,719.333 0,692.167 0,662.5C0,647.833 2.16667,634 6.5,621C10.8333,608 15.5,595.417 20.5,583.25C25.5,571.083 30.1667,559.167 34.5,547.5C38.8333,535.833 41,524 41,512C41,500 38.8333,488.167 34.5,476.5C30.1667,464.833 25.5,452.917 20.5,440.75C15.5,428.583 10.8333,416 6.5,403C2.16667,390 0,376.167 0,361.5C0,346.5 2.16667,332.083 6.5,318.25C10.8333,304.417 16.9167,291.5 24.75,279.5C32.5833,267.5 42,256.833 53,247.5C64,238.167 76.3333,230.5 90,224.5L150.5,198.5C162.5,193.5 172.167,186.833 179.5,178.5C186.833,170.167 193.083,161 198.25,151C203.417,141 208.083,130.417 212.25,119.25C216.417,108.083 221.25,96.9167 226.75,85.75C232.25,74.5834 239.167,63.75 247.5,53.25C255.833,42.75 266.667,33.1667 280,24.5C305,8.16669 332.167,0 361.5,0C375.833,0 389.583,2.16669 402.75,6.5C415.917,10.8334 428.583,15.5001 440.75,20.5C452.917,25.5001 464.833,30.1667 476.5,34.5C488.167,38.8334 500,41 512,41C524,41 535.833,38.8334 547.5,34.5C559.167,30.1667 571.083,25.5001 583.25,20.5C595.417,15.5001 608,10.8334 621,6.5C634,2.16669 647.833,0 662.5,0C677.167,0 691.417,2.16669 705.25,6.5C719.083,10.8334 732,16.9167 744,24.75C756,32.5834 766.75,42.0834 776.25,53.25C785.75,64.4167 793.5,76.6667 799.5,90L825.5,150.5C830.833,162.5 837.583,172.167 845.75,179.5C853.917,186.833 863,193.083 873,198.25C883,203.417 893.583,208 904.75,212C915.917,216 927.083,220.833 938.25,226.5C949.417,232.167 960.25,239.167 970.75,247.5C981.25,255.833 990.833,266.833 999.5,280.5C1007.5,293.167 1013.58,306.083 1017.75,319.25C1021.92,332.417 1024,346.5 1024,361.5C1024,376.167 1021.83,390 1017.5,403C1013.17,416 1008.5,428.583 1003.5,440.75C998.5,452.917 993.833,464.833 989.5,476.5C985.167,488.167 983,500 983,512C983,524 985.167,535.833 989.5,547.5C993.833,559.167 998.5,571.083 1003.5,583.25C1008.5,595.417 1013.17,608.083 1017.5,621.25C1021.83,634.417 1024,648.167 1024,662.5C1024,677.167 1021.83,691.5 1017.5,705.5C1013.17,719.5 1007.08,732.5 999.25,744.5C991.417,756.5 982,767.167 971,776.5C960,785.833 947.667,793.5 934,799.5L873.5,825.5C861.5,830.833 851.833,837.583 844.5,845.75C837.167,853.917 830.917,863 825.75,873C820.583,883 815.917,893.583 811.75,904.75C807.583,915.917 802.75,927.167 797.25,938.5C791.75,949.833 784.833,960.75 776.5,971.25C768.167,981.75 757.167,991.333 743.5,1000C718.833,1016 691.833,1024 662.5,1024C647.833,1024 634,1021.83 621,1017.5C608,1013.17 595.417,1008.5 583.25,1003.5C571.083,998.5 559.167,993.833 547.5,989.5C535.833,985.167 524,983 512,983C500,983 488.167,985.167 476.5,989.5C464.833,993.833 452.917,998.5 440.75,1003.5C428.583,1008.5 416,1013.17 403,1017.5C390,1021.83 376.167,1024 361.5,1024ZM512,921C526.667,921 540.583,923.167 553.75,927.5C566.917,931.833 579.5,936.5 591.5,941.5C603.5,946.5 615.333,951.167 627,955.5C638.667,959.833 650.333,962 662,962C679,962 693.083,958.583 704.25,951.75C715.417,944.917 724.833,936 732.5,925C740.167,914 746.75,901.833 752.25,888.5C757.75,875.167 763.333,862 769,849C776.333,832.333 784.833,818.75 794.5,808.25C804.167,797.75 814.917,788.75 826.75,781.25C838.583,773.75 851.417,767.167 865.25,761.5C879.083,755.833 893.833,749.5 909.5,742.5C925.167,735.5 937.833,724.583 947.5,709.75C957.167,694.917 962,679 962,662C962,650.333 959.833,638.75 955.5,627.25C951.167,615.75 946.5,603.833 941.5,591.5C936.5,579.167 931.833,566.5 927.5,553.5C923.167,540.5 921,526.667 921,512C921,497.333 923.167,483.5 927.5,470.5C931.833,457.5 936.5,444.833 941.5,432.5C946.5,420.167 951.167,408.25 955.5,396.75C959.833,385.25 962,373.667 962,362C962,345 957.167,329.083 947.5,314.25C937.833,299.417 925.167,288.5 909.5,281.5C893.833,274.5 879.083,268.167 865.25,262.5C851.417,256.833 838.583,250.25 826.75,242.75C814.917,235.25 804.167,226.25 794.5,215.75C784.833,205.25 776.333,191.667 769,175C763.333,162 757.75,148.833 752.25,135.5C746.75,122.167 740.167,110 732.5,99C724.833,88 715.417,79.0834 704.25,72.25C693.083,65.4167 679,62 662,62C650.333,62 638.75,64.1667 627.25,68.5C615.75,72.8334 603.833,77.5 591.5,82.5C579.167,87.5 566.5,92.1667 553.5,96.5C540.5,100.833 526.667,103 512,103C497.333,103 483.5,100.833 470.5,96.5C457.5,92.1667 444.833,87.5 432.5,82.5C420.167,77.5 408.25,72.8334 396.75,68.5C385.25,64.1667 373.667,62 362,62C345,62 329.083,66.8334 314.25,76.5C299.417,86.1667 288.5,98.8334 281.5,114.5C274.5,130.167 268.167,144.917 262.5,158.75C256.833,172.583 250.25,185.417 242.75,197.25C235.25,209.083 226.25,219.833 215.75,229.5C205.25,239.167 191.667,247.667 175,255C162,260.667 148.833,266.25 135.5,271.75C122.167,277.25 110,283.833 99,291.5C88,299.167 79.0833,308.583 72.25,319.75C65.4167,330.917 62,345 62,362C62,373.667 64.1667,385.333 68.5,397C72.8333,408.667 77.5,420.5 82.5,432.5C87.5,444.5 92.1667,457.083 96.5,470.25C100.833,483.417 103,497.333 103,512C103,526.667 100.833,540.5 96.5,553.5C92.1667,566.5 87.5,579.083 82.5,591.25C77.5,603.417 72.8333,615.25 68.5,626.75C64.1667,638.25 62,650 62,662C62,679 66.8333,694.917 76.5,709.75C86.1667,724.583 98.8333,735.5 114.5,742.5C130.167,749.5 144.917,755.833 158.75,761.5C172.583,767.167 185.417,773.75 197.25,781.25C209.083,788.75 219.833,797.75 229.5,808.25C239.167,818.75 247.667,832.333 255,849C260.667,862 266.25,875.167 271.75,888.5C277.25,901.833 283.833,914 291.5,925C299.167,936 308.583,944.917 319.75,951.75C330.917,958.583 345,962 362,962C373.667,962 385.333,959.833 397,955.5C408.667,951.167 420.5,946.5 432.5,941.5C444.5,936.5 457.083,931.833 470.25,927.5C483.417,923.167 497.333,921 512,921ZM288,512C288,503.333 291.167,495.833 297.5,489.5C303.833,483.167 311.333,480 320,480C328.667,480 336.167,483.167 342.5,489.5L448,594.5L681.5,361.5C687.833,355.167 695.333,352 704,352C712.667,352 720.167,355.167 726.5,361.5C732.833,367.833 736,375.333 736,384C736,392.667 732.833,400.167 726.5,406.5L470.5,662.5C464.167,668.833 456.667,672 448,672C439.333,672 431.833,668.833 425.5,662.5L297.5,534.5C291.167,528.167 288,520.667 288,512Z" fill="#FFFFFF" fill-opacity="1">
  </path>
</svg>