<!-- Exported by Character Map UWP -->
<svg height="100%" viewBox="64 64 960 960" width="100%" xmlns="http://www.w3.org/2000/svg" xmlns:xlink="http://www.w3.org/1999/xlink">
  <path d="M325,832L189.5,832C172.833,832 156.917,828.583 141.75,821.75C126.583,814.917 113.25,805.75 101.75,794.25C90.25,782.75 81.0833,769.417 74.25,754.25C67.4167,739.083 64,723.167 64,706.5L64,189.5C64,172.833 67.4167,156.917 74.25,141.75C81.0833,126.583 90.25,113.25 101.75,101.75C113.25,90.25 126.583,81.0834 141.75,74.25C156.917,67.4167 172.833,64.0001 189.5,64L834.5,64C851.167,64.0001 867.083,67.4167 882.25,74.25C897.417,81.0834 910.75,90.25 922.25,101.75C933.75,113.25 942.917,126.583 949.75,141.75C956.583,156.917 960,172.833 960,189.5L960,444C950,436.333 939.667,429.25 929,422.75C918.333,416.25 907.333,410.167 896,404.5L896,192C896,183.333 894.333,175.083 891,167.25C887.667,159.417 883.083,152.583 877.25,146.75C871.417,140.917 864.583,136.333 856.75,133C848.917,129.667 840.667,128 832,128L192,128C183,128 174.667,129.667 167,133C159.333,136.333 152.583,140.917 146.75,146.75C140.917,152.583 136.333,159.333 133,167C129.667,174.667 128,183 128,192L128,704C128,713 129.667,721.417 133,729.25C136.333,737.083 140.833,743.833 146.5,749.5C152.167,755.167 158.917,759.667 166.75,763C174.583,766.333 183,768 192,768L339,768C343.667,768 348.083,768.833 352.25,770.5C356.417,772.167 360,774.833 363,778.5L421,843C417.333,852 414.833,861.417 413.5,871.25C412.167,881.083 411.5,890.833 411.5,900.5C411.5,905.5 411.667,910.583 412,915.75C412.333,920.917 413,926 414,931ZM491.5,883.5C491.5,877.833 493.583,873.167 497.75,869.5C501.917,865.833 506.667,864 512,864C563.667,864 611.667,851.167 656,825.5C678.333,812.5 698.333,797 716,779C733.667,761 748.75,741.25 761.25,719.75C773.75,698.25 783.333,675.333 790,651C796.667,626.667 800,601.667 800,576C800,563.667 799.167,551.75 797.5,540.25C795.833,528.75 793.667,517 791,505C790.333,501.667 790,498.667 790,496C790,487.667 792.667,479.833 798,472.5C803.333,465.167 810.5,461.5 819.5,461.5C822.5,461.5 825.5,462 828.5,463C857.167,472.667 883.5,486.417 907.5,504.25C931.5,522.083 952.083,542.917 969.25,566.75C986.417,590.583 999.833,616.667 1009.5,645C1019.17,673.333 1024,702.5 1024,732.5C1024,772.833 1016.58,810.667 1001.75,846C986.917,881.333 966.583,912.167 940.75,938.5C914.917,964.833 884.417,985.667 849.25,1001C814.083,1016.33 776.333,1024 736,1024C712,1024 688.333,1021 665,1015C641.667,1009 619.417,1000.33 598.25,989C577.083,977.667 557.583,963.917 539.75,947.75C521.917,931.583 506.667,913.167 494,892.5C492.333,889.833 491.5,886.833 491.5,883.5Z" fill="#FFFFFF" fill-opacity="1">
  </path>
</svg>