<!-- Exported by Character Map UWP -->
<svg height="100%" viewBox="192 192 640 640" width="100%" xmlns="http://www.w3.org/2000/svg" xmlns:xlink="http://www.w3.org/1999/xlink">
  <path d="M192,320L192,192L320,192L320,320ZM448,320L448,192L576,192L576,320ZM704,192L832,192L832,320L704,320ZM192,576L192,448L320,448L320,576ZM448,576L448,448L576,448L576,576ZM704,576L704,448L832,448L832,576ZM192,832L192,704L320,704L320,832ZM448,832L448,704L576,704L576,832ZM704,832L704,704L832,704L832,832Z" fill="#FFFFFF" fill-opacity="1">
  </path>
</svg>