<!-- Exported by Character Map UWP -->
<svg height="100%" viewBox="0 64 1024 896" width="100%" xmlns="http://www.w3.org/2000/svg" xmlns:xlink="http://www.w3.org/1999/xlink">
  <path d="M928,64C941,64.0001 953.333,66.5001 965,71.5C976.667,76.5001 986.917,83.4167 995.75,92.25C1004.58,101.083 1011.5,111.333 1016.5,123C1021.5,134.667 1024,147 1024,160L1024,608C1024,621 1021.5,633.333 1016.5,645C1011.5,656.667 1004.58,666.917 995.75,675.75C986.917,684.583 976.667,691.5 965,696.5C953.333,701.5 941,704 928,704L768,704L768,864C768,877 765.5,889.333 760.5,901C755.5,912.667 748.583,922.917 739.75,931.75C730.917,940.583 720.667,947.5 709,952.5C697.333,957.5 685,960 672,960L96,960C83,960 70.6667,957.5 59,952.5C47.3333,947.5 37.0833,940.583 28.25,931.75C19.4167,922.917 12.5,912.667 7.5,901C2.5,889.333 0,877 0,864L0,416C0,403 2.5,390.667 7.5,379C12.5,367.333 19.4167,357.083 28.25,348.25C37.0833,339.417 47.3333,332.5 59,327.5C70.6667,322.5 83,320 96,320L256,320L256,160C256,147 258.5,134.667 263.5,123C268.5,111.333 275.417,101.083 284.25,92.25C293.083,83.4167 303.333,76.5001 315,71.5C326.667,66.5001 339,64.0001 352,64ZM960,160C960,151.333 956.833,143.833 950.5,137.5C944.167,131.167 936.667,128 928,128L352,128C343.333,128 335.833,131.167 329.5,137.5C323.167,143.833 320,151.333 320,160L320,608C320,616.667 323.167,624.167 329.5,630.5C335.833,636.833 343.333,640 352,640L928,640C936.667,640 944.167,636.833 950.5,630.5C956.833,624.167 960,616.667 960,608ZM704,704L352,704C339,704 326.667,701.5 315,696.5C303.333,691.5 293.083,684.583 284.25,675.75C275.417,666.917 268.5,656.667 263.5,645C258.5,633.333 256,621 256,608L256,384L96,384C87.3333,384 79.8333,387.167 73.5,393.5C67.1667,399.833 64,407.333 64,416L64,864C64,872.667 67.1667,880.167 73.5,886.5C79.8333,892.833 87.3333,896 96,896L672,896C680.667,896 688.167,892.833 694.5,886.5C700.833,880.167 704,872.667 704,864Z" fill="#FFFFFF" fill-opacity="1">
  </path>
</svg>