<!-- Exported by Character Map UWP -->
<svg height="100%" viewBox="64 0 896 1024" width="100%" xmlns="http://www.w3.org/2000/svg" xmlns:xlink="http://www.w3.org/1999/xlink">
  <path d="M560,1024C541.333,1024 523.833,1020.75 507.5,1014.25C491.167,1007.75 476.667,998.75 464,987.25C451.333,975.75 440.917,962.25 432.75,946.75C424.583,931.25 419.333,914.333 417,896L288,896C274.667,896 262.167,893.5 250.5,888.5C238.833,883.5 228.667,876.583 220,867.75C211.333,858.917 204.5,848.667 199.5,837C194.5,825.333 192,813 192,800L192,655L188.5,655C170.833,652.667 154.417,647.25 139.25,638.75C124.083,630.25 110.917,619.583 99.75,606.75C88.5833,593.917 79.8333,579.333 73.5,563C67.1667,546.667 64,529.667 64,512C64,493.667 67.25,476.25 73.75,459.75C80.25,443.25 89.25,428.667 100.75,416C112.25,403.333 125.75,392.917 141.25,384.75C156.75,376.583 173.667,371.333 192,369L192,224C192,211 194.5,198.667 199.5,187C204.5,175.333 211.417,165.083 220.25,156.25C229.083,147.417 239.333,140.5 251,135.5C262.667,130.5 275,128 288,128L449,128C451,110 456.167,93.25 464.5,77.75C472.833,62.25 483.417,48.75 496.25,37.25C509.083,25.75 523.667,16.6667 540,10C556.333,3.33337 573.667,0 592,0C610.333,0 627.75,3.25 644.25,9.75C660.75,16.25 675.333,25.25 688,36.75C700.667,48.25 711.083,61.75 719.25,77.25C727.417,92.75 732.667,109.667 735,128L864,128C877,128 889.333,130.5 901,135.5C912.667,140.5 922.917,147.417 931.75,156.25C940.583,165.083 947.5,175.333 952.5,187C957.5,198.667 960,211 960,224L960,432L848,432C837,432 826.667,434.083 817,438.25C807.333,442.417 798.833,448.167 791.5,455.5C784.167,462.833 778.417,471.333 774.25,481C770.083,490.667 768,501 768,512C768,523 770.083,533.333 774.25,543C778.417,552.667 784.167,561.167 791.5,568.5C798.833,575.833 807.333,581.583 817,585.75C826.667,589.917 837,592 848,592L960,592L960,800C960,813 957.5,825.333 952.5,837C947.5,848.667 940.583,858.917 931.75,867.75C922.917,876.583 912.667,883.5 901,888.5C889.333,893.5 877,896 864,896L703,896L703,899.5C700.667,917.167 695.25,933.583 686.75,948.75C678.25,963.917 667.583,977.083 654.75,988.25C641.917,999.417 627.333,1008.17 611,1014.5C594.667,1020.83 577.667,1024 560,1024ZM640,832L864,832C873,832 880.583,828.917 886.75,822.75C892.917,816.583 896,809 896,800L896,656C893.333,656 890.5,656 887.5,656L870,656.5C867.333,656.5 864.5,656.5 861.5,656.5C857.167,656.5 852.917,656.417 848.75,656.25C844.583,656.083 840.333,655.833 836,655.5C818,654.5 801,649.917 785,641.75C769,633.583 755,623 743,610C731,597 721.5,582.083 714.5,565.25C707.5,548.417 704,531 704,513C704,493.333 707.667,474.75 715,457.25C722.333,439.75 732.333,424.5 745,411.5C757.667,398.5 772.583,388.083 789.75,380.25C806.917,372.417 825.5,368.333 845.5,368L896,368L896,224C896,215.333 892.833,207.833 886.5,201.5C880.167,195.167 872.667,192 864,192L672,192L672,144C672,133 669.833,122.667 665.5,113C661.167,103.333 655.417,94.9167 648.25,87.75C641.083,80.5834 632.667,74.8334 623,70.5C613.333,66.1667 603,64.0001 592,64C581,64.0001 570.667,66.1667 561,70.5C551.333,74.8334 542.917,80.5834 535.75,87.75C528.583,94.9167 522.833,103.333 518.5,113C514.167,122.667 512,133 512,144L512,192L288,192C279.333,192 271.833,195.167 265.5,201.5C259.167,207.833 256,215.333 256,224L256,432L208,432C197,432 186.667,434.167 177,438.5C167.333,442.833 158.917,448.583 151.75,455.75C144.583,462.917 138.833,471.333 134.5,481C130.167,490.667 128,501 128,512C128,523 130.167,533.333 134.5,543C138.833,552.667 144.583,561.083 151.75,568.25C158.917,575.417 167.333,581.167 177,585.5C186.667,589.833 197,592 208,592L256,592L256,800C256,808.667 259.167,816.167 265.5,822.5C271.833,828.833 279.333,832 288,832L480,832L480,880C480,891 482.167,901.333 486.5,911C490.833,920.667 496.583,929.083 503.75,936.25C510.917,943.417 519.333,949.167 529,953.5C538.667,957.833 549,960 560,960C571,960 581.333,957.833 591,953.5C600.667,949.167 609.083,943.417 616.25,936.25C623.417,929.083 629.167,920.667 633.5,911C637.833,901.333 640,891 640,880Z" fill="#FFFFFF" fill-opacity="1">
  </path>
</svg>