<!-- Exported by Character Map UWP -->
<svg height="100%" viewBox="0 128 1024 896" width="100%" xmlns="http://www.w3.org/2000/svg" xmlns:xlink="http://www.w3.org/1999/xlink">
  <path d="M0,256C0,238.333 3.33333,221.75 10,206.25C16.6667,190.75 25.8333,177.167 37.5,165.5C49.1667,153.833 62.75,144.667 78.25,138C93.75,131.333 110.333,128 128,128L896,128C913.667,128 930.25,131.333 945.75,138C961.25,144.667 974.833,153.833 986.5,165.5C998.167,177.167 1007.33,190.75 1014,206.25C1020.67,221.75 1024,238.333 1024,256L1024,704C1024,717 1022.17,729.417 1018.5,741.25C1014.83,753.083 1009.75,764 1003.25,774C996.75,784 988.917,793 979.75,801C970.583,809 960.5,815.5 949.5,820.5C945.5,812.167 939.667,804 932,796L903.5,767.5C911.5,766.5 918.917,764.25 925.75,760.75C932.583,757.25 938.5,752.667 943.5,747C948.5,741.333 952.5,734.833 955.5,727.5C958.5,720.167 960,712.333 960,704L960,256C960,247 958.333,238.667 955,231C951.667,223.333 947.083,216.583 941.25,210.75C935.417,204.917 928.667,200.333 921,197C913.333,193.667 905,192 896,192L128,192C119,192 110.667,193.667 103,197C95.3333,200.333 88.5833,204.917 82.75,210.75C76.9167,216.583 72.3333,223.333 69,231C65.6667,238.667 64,247 64,256L64,704C64,713 65.6667,721.333 69,729C72.3333,736.667 76.9167,743.417 82.75,749.25C88.5833,755.083 95.3333,759.667 103,763C110.667,766.333 119,768 128,768L448,768L448,832L128,832C110.333,832 93.75,828.667 78.25,822C62.75,815.333 49.1667,806.167 37.5,794.5C25.8333,782.833 16.6667,769.25 10,753.75C3.33333,738.25 0,721.667 0,704ZM566.5,521.5C561.833,516.833 556.333,513.833 550,512.5C543.667,511.167 537.667,511.833 532,514.5C526,517.167 521.167,521.083 517.5,526.25C513.833,531.417 512,537.333 512,544L512,992C512,999 514.083,1005.33 518.25,1011C522.417,1016.67 527.833,1020.5 534.5,1022.5C541.167,1024.5 547.75,1024.42 554.25,1022.25C560.75,1020.08 566,1016.17 570,1010.5L671,866.5L859,895.5C866,896.5 872.583,895.5 878.75,892.5C884.917,889.5 889.5,884.833 892.5,878.5C895.833,872.167 896.917,865.583 895.75,858.75C894.583,851.917 891.5,846.167 886.5,841.5ZM576,890.5L576,621.5L772.5,817.5L661,800.5C655,799.5 649.25,800.167 643.75,802.5C638.25,804.833 633.667,808.5 630,813.5Z" fill="#FFFFFF" fill-opacity="1">
  </path>
</svg>