<!-- Exported by Character Map UWP -->
<svg height="100%" viewBox="64 64 896 896" width="100%" xmlns="http://www.w3.org/2000/svg" xmlns:xlink="http://www.w3.org/1999/xlink">
  <path d="M220.5,960C199.5,960 179.5,955.75 160.5,947.25C141.5,938.75 124.917,927.417 110.75,913.25C96.5833,899.083 85.25,882.5 76.75,863.5C68.25,844.5 64,824.5 64,803.5L64,220.5C64,199.5 68.25,179.5 76.75,160.5C85.25,141.5 96.5833,124.917 110.75,110.75C124.917,96.5834 141.5,85.2501 160.5,76.75C179.5,68.2501 199.5,64.0001 220.5,64L803.5,64C824.5,64.0001 844.5,68.2501 863.5,76.75C882.5,85.2501 899.083,96.5834 913.25,110.75C927.417,124.917 938.75,141.5 947.25,160.5C955.75,179.5 960,199.5 960,220.5L960,803.5C960,824.5 955.75,844.5 947.25,863.5C938.75,882.5 927.417,899.083 913.25,913.25C899.083,927.417 882.5,938.75 863.5,947.25C844.5,955.75 824.5,960 803.5,960ZM800,896C813,896 825.333,893.5 837,888.5C848.667,883.5 858.917,876.583 867.75,867.75C876.583,858.917 883.5,848.667 888.5,837C893.5,825.333 896,813 896,800L896,320L480,320C467,320 454.667,317.5 443,312.5C431.333,307.5 421.083,300.583 412.25,291.75C403.417,282.917 396.5,272.667 391.5,261C386.5,249.333 384,237 384,224L384,128L224,128C211,128 198.667,130.5 187,135.5C175.333,140.5 165.083,147.417 156.25,156.25C147.417,165.083 140.5,175.333 135.5,187C130.5,198.667 128,211 128,224L128,800C128,813 130.5,825.333 135.5,837C140.5,848.667 147.417,858.917 156.25,867.75C165.083,876.583 175.333,883.5 187,888.5C198.667,893.5 211,896 224,896ZM896,256L896,224C896,211 893.5,198.667 888.5,187C883.5,175.333 876.583,165.083 867.75,156.25C858.917,147.417 848.667,140.5 837,135.5C825.333,130.5 813,128 800,128L448,128L448,224C448,232.667 451.167,240.167 457.5,246.5C463.833,252.833 471.333,256 480,256ZM256,576C256,567 257.667,558.667 261,551C264.333,543.333 268.917,536.583 274.75,530.75C280.583,524.917 287.333,520.333 295,517C302.667,513.667 311,512 320,512C328.667,512 336.917,513.667 344.75,517C352.583,520.333 359.417,524.917 365.25,530.75C371.083,536.583 375.667,543.417 379,551.25C382.333,559.083 384,567.333 384,576C384,585 382.333,593.333 379,601C375.667,608.667 371.083,615.417 365.25,621.25C359.417,627.083 352.667,631.667 345,635C337.333,638.333 329,640 320,640C311,640 302.583,638.333 294.75,635C286.917,631.667 280.167,627.167 274.5,621.5C268.833,615.833 264.333,609.083 261,601.25C257.667,593.417 256,585 256,576ZM448,576C448,567 449.667,558.667 453,551C456.333,543.333 460.917,536.583 466.75,530.75C472.583,524.917 479.333,520.333 487,517C494.667,513.667 503,512 512,512C520.667,512 528.917,513.667 536.75,517C544.583,520.333 551.417,524.917 557.25,530.75C563.083,536.583 567.667,543.417 571,551.25C574.333,559.083 576,567.333 576,576C576,585 574.333,593.333 571,601C567.667,608.667 563.083,615.417 557.25,621.25C551.417,627.083 544.667,631.667 537,635C529.333,638.333 521,640 512,640C503,640 494.583,638.333 486.75,635C478.917,631.667 472.167,627.167 466.5,621.5C460.833,615.833 456.333,609.083 453,601.25C449.667,593.417 448,585 448,576ZM640,576C640,567 641.667,558.667 645,551C648.333,543.333 652.917,536.583 658.75,530.75C664.583,524.917 671.333,520.333 679,517C686.667,513.667 695,512 704,512C712.667,512 720.917,513.667 728.75,517C736.583,520.333 743.417,524.917 749.25,530.75C755.083,536.583 759.667,543.417 763,551.25C766.333,559.083 768,567.333 768,576C768,585 766.333,593.333 763,601C759.667,608.667 755.083,615.417 749.25,621.25C743.417,627.083 736.667,631.667 729,635C721.333,638.333 713,640 704,640C695,640 686.583,638.333 678.75,635C670.917,631.667 664.167,627.167 658.5,621.5C652.833,615.833 648.333,609.083 645,601.25C641.667,593.417 640,585 640,576Z" fill="#FFFFFF" fill-opacity="1">
  </path>
</svg>