<!-- Exported by Character Map UWP -->
<svg height="100%" viewBox="0 64 1024 896" width="100%" xmlns="http://www.w3.org/2000/svg" xmlns:xlink="http://www.w3.org/1999/xlink">
  <path d="M1024,352L1024,672C1024,684.667 1021.58,696.917 1016.75,708.75C1011.92,720.583 1005,731 996,740C987,749 976.583,755.917 964.75,760.75C952.917,765.583 940.667,768 928,768L832,768L832,864C832,877 829.5,889.333 824.5,901C819.5,912.667 812.583,922.917 803.75,931.75C794.917,940.583 784.667,947.5 773,952.5C761.333,957.5 749,960 736,960L288,960C275,960 262.667,957.5 251,952.5C239.333,947.5 229.083,940.583 220.25,931.75C211.417,922.917 204.5,912.667 199.5,901C194.5,889.333 192,877 192,864L192,768L96,768C83.3333,768 71.0833,765.583 59.25,760.75C47.4167,755.917 37,749 28,740C19,731 12.0833,720.583 7.25,708.75C2.41667,696.917 0,684.667 0,672L0,352C0,330 4.16667,309.25 12.5,289.75C20.8333,270.25 32.25,253.25 46.75,238.75C61.25,224.25 78.25,212.833 97.75,204.5C117.25,196.167 138,192 160,192L192,192L192,160C192,146.667 194.5,134.167 199.5,122.5C204.5,110.833 211.333,100.667 220,92C228.667,83.3334 238.833,76.5001 250.5,71.5C262.167,66.5001 274.667,64.0001 288,64L736,64C749.333,64.0001 761.833,66.5001 773.5,71.5C785.167,76.5001 795.333,83.3334 804,92C812.667,100.667 819.5,110.833 824.5,122.5C829.5,134.167 832,146.667 832,160L832,192L864,192C886,192 906.75,196.167 926.25,204.5C945.75,212.833 962.75,224.25 977.25,238.75C991.75,253.25 1003.17,270.25 1011.5,289.75C1019.83,309.25 1024,330 1024,352ZM256,192L768,192L768,160C768,151.333 764.833,143.833 758.5,137.5C752.167,131.167 744.667,128 736,128L288,128C279.333,128 271.833,131.167 265.5,137.5C259.167,143.833 256,151.333 256,160ZM960,352C960,338.667 957.5,326.167 952.5,314.5C947.5,302.833 940.667,292.667 932,284C923.333,275.333 913.167,268.5 901.5,263.5C889.833,258.5 877.333,256 864,256L160,256C146.667,256 134.167,258.5 122.5,263.5C110.833,268.5 100.667,275.333 92,284C83.3333,292.667 76.5,302.833 71.5,314.5C66.5,326.167 64,338.667 64,352L64,672C64,680.667 67.1667,688.167 73.5,694.5C79.8333,700.833 87.3333,704 96,704L192,704L192,608C192,595 194.5,582.667 199.5,571C204.5,559.333 211.417,549.083 220.25,540.25C229.083,531.417 239.333,524.5 251,519.5C262.667,514.5 275,512 288,512L736,512C749,512 761.333,514.5 773,519.5C784.667,524.5 794.917,531.417 803.75,540.25C812.583,549.083 819.5,559.333 824.5,571C829.5,582.667 832,595 832,608L832,704L928,704C936.667,704 944.167,700.833 950.5,694.5C956.833,688.167 960,680.667 960,672ZM768,608C768,599.333 764.833,591.833 758.5,585.5C752.167,579.167 744.667,576 736,576L288,576C279.333,576 271.833,579.167 265.5,585.5C259.167,591.833 256,599.333 256,608L256,864C256,872.667 259.167,880.167 265.5,886.5C271.833,892.833 279.333,896 288,896L736,896C744.667,896 752.167,892.833 758.5,886.5C764.833,880.167 768,872.667 768,864Z" fill="#FFFFFF" fill-opacity="1">
  </path>
</svg>