<!-- Exported by Character Map UWP -->
<svg height="100%" viewBox="64 0 896 960" width="100%" xmlns="http://www.w3.org/2000/svg" xmlns:xlink="http://www.w3.org/1999/xlink">
  <path d="M384,192L384,96C384,87.3334 387.167,79.8334 393.5,73.5C399.833,67.1667 407.333,64.0001 416,64L640,64L640,47C640,41.3334 640.333,35.6667 641,30C641.667,24.3334 643.083,19.25 645.25,14.75C647.417,10.25 650.667,6.66669 655,4C659.333,1.33337 665,0 672,0C679.333,0 685.083,1.41669 689.25,4.25C693.417,7.08337 696.583,10.7501 698.75,15.25C700.917,19.7501 702.333,24.9167 703,30.75C703.667,36.5834 704,42.3334 704,48L704,64L928,64C936.667,64.0001 944.167,67.1667 950.5,73.5C956.833,79.8334 960,87.3334 960,96L960,192C960,200.667 956.833,208.167 950.5,214.5C944.167,220.833 936.667,224 928,224C919.333,224 911.833,220.833 905.5,214.5C899.167,208.167 896,200.667 896,192L896,128L448,128L448,192C448,200.667 444.833,208.167 438.5,214.5C432.167,220.833 424.667,224 416,224C407.333,224 399.833,220.833 393.5,214.5C387.167,208.167 384,200.667 384,192ZM592,576C583.333,576 575.833,572.833 569.5,566.5C563.167,560.167 560,552.667 560,544C560,536.667 561.5,530.833 564.5,526.5C567.5,522.167 571.333,518.833 576,516.5C580.667,514.167 585.917,512.667 591.75,512C597.583,511.333 603.333,511 609,511C613,511 616.833,511.167 620.5,511.5L628.5,511.5C632.167,511.833 636,512 640,512L640,384L448,384C439.333,384 431.833,380.833 425.5,374.5C419.167,368.167 416,360.667 416,352C416,343.333 419.167,335.833 425.5,329.5C431.833,323.167 439.333,320 448,320L640,320C640,311.333 643.167,303.833 649.5,297.5L691,256L512,256C503.333,256 495.833,252.833 489.5,246.5C483.167,240.167 480,232.667 480,224C480,215.333 483.167,207.833 489.5,201.5C495.833,195.167 503.333,192 512,192L768,192C776.667,192 784.167,195.167 790.5,201.5C796.833,207.833 800,215.333 800,224C800,232.667 796.833,240.167 790.5,246.5L717.5,320L896,320C904.667,320 912.167,323.167 918.5,329.5C924.833,335.833 928,343.333 928,352C928,360.667 924.833,368.167 918.5,374.5C912.167,380.833 904.667,384 896,384L704,384L704,512C704,521 702.333,529.333 699,537C695.667,544.667 691.083,551.417 685.25,557.25C679.417,563.083 672.667,567.667 665,571C657.333,574.333 649,576 640,576ZM467,832L173,832L125.5,941C122.833,946.667 118.75,951.25 113.25,954.75C107.75,958.25 101.833,960 95.5,960C86.8333,960 79.4167,956.833 73.25,950.5C67.0833,944.167 64,936.667 64,928C64,922.667 64.8333,918.333 66.5,915L290.5,403C293.167,397.333 297.25,393 302.75,390C308.25,387 314,385.5 320,385.5C326.333,385.5 332.167,386.917 337.5,389.75C342.833,392.583 346.833,397 349.5,403L573.5,915C575.167,918.333 576,922.667 576,928C576,937 572.917,944.583 566.75,950.75C560.583,956.917 553,960 544,960C537.667,960 531.833,958.25 526.5,954.75C521.167,951.25 517.167,946.667 514.5,941ZM320,496L201,768L439,768Z" fill="#FFFFFF" fill-opacity="1">
  </path>
</svg>