<!-- Exported by Character Map UWP -->
<svg height="100%" viewBox="0 13 1024 999" width="100%" xmlns="http://www.w3.org/2000/svg" xmlns:xlink="http://www.w3.org/1999/xlink">
  <path d="M899.5,387.5C916.5,387.5 932.583,390.75 947.75,397.25C962.917,403.75 976.167,412.667 987.5,424C998.833,435.333 1007.75,448.583 1014.25,463.75C1020.75,478.917 1024,495 1024,512C1024,529.333 1020.67,545.583 1014,560.75C1007.33,575.917 998.333,589.167 987,600.5C975.667,611.833 962.417,620.75 947.25,627.25C932.083,633.75 915.833,637 898.5,637C864.833,637 831.083,636.167 797.25,634.5C763.417,632.833 729.5,631.333 695.5,630L463.5,978C456.5,988.333 447.5,996.5 436.5,1002.5C425.5,1008.5 413.667,1011.5 401,1011.5C390.667,1011.5 380.917,1009.5 371.75,1005.5C362.583,1001.5 354.667,996.083 348,989.25C341.333,982.417 336,974.417 332,965.25C328,956.083 326,946.333 326,936C326,930.667 326.5,925.5 327.5,920.5L392,620L200,613.5L154.5,719.5C148.167,734.5 138.333,746.333 125,755C111.667,763.667 97,768 81,768C70,768 59.5833,765.917 49.75,761.75C39.9167,757.583 31.3333,751.833 24,744.5C16.6667,737.167 10.9167,728.583 6.75,718.75C2.58333,708.917 0.5,698.5 0.5,687.5C0.5,681.5 1.58333,673.75 3.75,664.25C5.91667,654.75 8.5,644.833 11.5,634.5C14.5,624.167 17.5,614.167 20.5,604.5C23.5,594.833 26,586.833 28,580.5C19,571.5 12.0833,561 7.25,549C2.41667,537 0,524.667 0,512C0,499.333 2.41667,487 7.25,475C12.0833,463 19,452.5 28,443.5C26,437.167 23.5,429.167 20.5,419.5C17.5,409.833 14.5,399.917 11.5,389.75C8.5,379.583 5.91667,369.667 3.75,360C1.58333,350.333 0.5,342.5 0.5,336.5C0.5,325.5 2.58333,315.083 6.75,305.25C10.9167,295.417 16.6667,286.833 24,279.5C31.3333,272.167 39.9167,266.417 49.75,262.25C59.5833,258.083 70,256 81,256C97,256 111.667,260.333 125,269C138.333,277.667 148.167,289.5 154.5,304.5L200,410.5L392,404L327.5,103.5C326.5,98.5 326,93.3334 326,88C326,77.6667 328,67.9167 332,58.75C336,49.5834 341.333,41.5834 348,34.75C354.667,27.9167 362.583,22.5 371.75,18.5C380.917,14.5 390.667,12.5 401,12.5C413.667,12.5 425.5,15.5 436.5,21.5C447.5,27.5 456.5,35.6667 463.5,46L695.5,394C729.5,393 763.5,391.667 797.5,390C831.5,388.333 865.5,387.5 899.5,387.5ZM960,512C960,504 958.417,496.25 955.25,488.75C952.083,481.25 947.833,474.75 942.5,469.25C937.167,463.75 930.917,459.333 923.75,456C916.583,452.667 908.833,451 900.5,451L897,451L662,459L410.5,81.5C408.167,78.1667 404.833,76.5 400.5,76.5C397.5,76.5 395,77.6667 393,80C391,82.3334 390,85.0001 390,88L390,90L470.5,465.5L158.5,476L96,330C93.3333,323.333 88.3333,320 81,320C76.3333,320 72.4167,321.583 69.25,324.75C66.0833,327.917 64.5,331.833 64.5,336.5C64.5,337.833 65.3333,341.667 67,348C68.6667,354.333 70.75,362 73.25,371C75.75,380 78.5833,389.833 81.75,400.5C84.9167,411.167 87.8333,421.167 90.5,430.5C93.1667,439.833 95.5833,448.167 97.75,455.5C99.9167,462.833 101.333,467.667 102,470C97.3333,472.667 92.75,475.25 88.25,477.75C83.75,480.25 79.75,483 76.25,486C72.75,489 69.8333,492.583 67.5,496.75C65.1667,500.917 64,506 64,512C64,518 65.1667,523.083 67.5,527.25C69.8333,531.417 72.75,535 76.25,538C79.75,541 83.75,543.75 88.25,546.25C92.75,548.75 97.3333,551.333 102,554C101.333,556.333 99.9167,561.083 97.75,568.25C95.5833,575.417 93.1667,583.833 90.5,593.5C87.8333,603.167 84.9167,613.25 81.75,623.75C78.5833,634.25 75.75,644 73.25,653C70.75,662 68.6667,669.75 67,676.25C65.3333,682.75 64.5,686.5 64.5,687.5C64.5,692.167 66.0833,696.083 69.25,699.25C72.4167,702.417 76.3333,704 81,704C88.3333,704 93.3333,700.667 96,694L158.5,548L470.5,558.5L390,934L390,936C390,939 391,941.667 393,944C395,946.333 397.5,947.5 400.5,947.5C404.833,947.5 408.167,945.833 410.5,942.5L662,565L897,573L900.5,573C908.833,573 916.583,571.333 923.75,568C930.917,564.667 937.167,560.25 942.5,554.75C947.833,549.25 952.083,542.75 955.25,535.25C958.417,527.75 960,520 960,512Z" fill="#FFFFFF" fill-opacity="1">
  </path>
</svg>