<!-- Exported by Character Map UWP -->
<svg height="100%" viewBox="0 192 1024 832" width="100%" xmlns="http://www.w3.org/2000/svg" xmlns:xlink="http://www.w3.org/1999/xlink">
  <path d="M496,768C497,790.333 501.5,811.667 509.5,832L156.5,832C135.5,832 115.5,827.75 96.5,819.25C77.5,810.75 60.9167,799.417 46.75,785.25C32.5833,771.083 21.25,754.5 12.75,735.5C4.25,716.5 0,696.5 0,675.5L0,348.5C0,327.5 4.25,307.5 12.75,288.5C21.25,269.5 32.5833,252.917 46.75,238.75C60.9167,224.583 77.5,213.25 96.5,204.75C115.5,196.25 135.5,192 156.5,192L739.5,192C760.833,192 780.917,196.25 799.75,204.75C818.583,213.25 835.083,224.583 849.25,238.75C863.417,252.917 874.667,269.5 883,288.5C891.333,307.5 895.667,327.5 896,348.5L896,416L960,416C968.667,416 976.833,417.667 984.5,421C992.167,424.333 999,429 1005,435C1011,441 1015.67,447.833 1019,455.5C1022.33,463.167 1024,471.333 1024,480L1024,544C1024,561.667 1017.83,576.667 1005.5,589C989.833,579.667 973.417,572.583 956.25,567.75C939.083,562.917 921.5,560.5 903.5,560.5C878.5,560.5 854.667,564.667 832,573L832,352C832,339 829.5,326.667 824.5,315C819.5,303.333 812.583,293.083 803.75,284.25C794.917,275.417 784.667,268.5 773,263.5C761.333,258.5 749,256 736,256L160,256C147,256 134.667,258.5 123,263.5C111.333,268.5 101.083,275.417 92.25,284.25C83.4167,293.083 76.5,303.333 71.5,315C66.5,326.667 64,339 64,352L64,672C64,685 66.5,697.333 71.5,709C76.5,720.667 83.4167,730.917 92.25,739.75C101.083,748.583 111.333,755.5 123,760.5C134.667,765.5 147,768 160,768ZM640,568C606.667,577.667 578.083,594.5 554.25,618.5C530.417,642.5 513.667,671 504,704L176,704C162.667,704 151.333,699.333 142,690C132.667,680.667 128,669.333 128,656L128,368C128,354.667 132.667,343.333 142,334C151.333,324.667 162.667,320 176,320L592,320C605.333,320 616.667,324.667 626,334C635.333,343.333 640,354.667 640,368ZM1024,761C1024,793.667 1012.17,821.833 988.5,845.5L814,1018.5C810.333,1022.17 806,1024 801,1024C795.667,1024 791.167,1022.17 787.5,1018.5L611.5,844.5C600.167,833.167 591.417,820.167 585.25,805.5C579.083,790.833 576,775.5 576,759.5C576,742.833 579.167,727.25 585.5,712.75C591.833,698.25 600.5,685.583 611.5,674.75C622.5,663.917 635.25,655.417 649.75,649.25C664.25,643.083 679.833,640 696.5,640C708.167,640 718.667,641.25 728,643.75C737.333,646.25 746,649.75 754,654.25C762,658.75 769.667,664.25 777,670.75C784.333,677.25 792,684.333 800,692C808,684 815.583,676.833 822.75,670.5C829.917,664.167 837.417,658.75 845.25,654.25C853.083,649.75 861.583,646.333 870.75,644C879.917,641.667 890.333,640.5 902,640.5C918.667,640.5 934.417,643.667 949.25,650C964.083,656.333 977,664.917 988,675.75C999,686.583 1007.75,699.333 1014.25,714C1020.75,728.667 1024,744.333 1024,761Z" fill="#FFFFFF" fill-opacity="1">
  </path>
</svg>