<!-- Exported by Character Map UWP -->
<svg height="100%" viewBox="0 0 1024 1024" width="100%" xmlns="http://www.w3.org/2000/svg" xmlns:xlink="http://www.w3.org/1999/xlink">
  <path d="M480,96L480,32C480,23.3334 483.167,15.8334 489.5,9.5C495.833,3.16669 503.333,0 512,0C520.667,0 528.167,3.16669 534.5,9.5C540.833,15.8334 544,23.3334 544,32L544,96C544,104.667 540.833,112.167 534.5,118.5C528.167,124.833 520.667,128 512,128C503.333,128 495.833,124.833 489.5,118.5C483.167,112.167 480,104.667 480,96ZM128,160C128,151.333 131.167,143.833 137.5,137.5C143.833,131.167 151.333,128 160,128C168.667,128 176.167,131.167 182.5,137.5L246.5,201.5C252.833,207.833 256,215.333 256,224C256,232.667 252.833,240.167 246.5,246.5C240.167,252.833 232.667,256 224,256C215.333,256 207.833,252.833 201.5,246.5L137.5,182.5C131.167,176.167 128,168.667 128,160ZM768,224C768,215.333 771.167,207.833 777.5,201.5L841.5,137.5C847.833,131.167 855.333,128 864,128C872.667,128 880.167,131.167 886.5,137.5C892.833,143.833 896,151.333 896,160C896,168.667 892.833,176.167 886.5,182.5L822.5,246.5C816.167,252.833 808.667,256 800,256C791.333,256 783.833,252.833 777.5,246.5C771.167,240.167 768,232.667 768,224ZM256,512L256,507C256,472.333 262.917,439.75 276.75,409.25C290.583,378.75 309.25,352.167 332.75,329.5C356.25,306.833 383.417,288.917 414.25,275.75C445.083,262.583 477.667,256 512,256C547.333,256 580.583,262.667 611.75,276C642.917,289.333 670.083,307.583 693.25,330.75C716.417,353.917 734.667,381.083 748,412.25C761.333,443.417 768,476.667 768,512C768,547.333 761.333,580.583 748,611.75C734.667,642.917 716.417,670.083 693.25,693.25C670.083,716.417 642.917,734.667 611.75,748C580.583,761.333 547.333,768 512,768C476.667,768 443.417,761.333 412.25,748C381.083,734.667 353.917,716.417 330.75,693.25C307.583,670.083 289.333,642.917 276,611.75C262.667,580.583 256,547.333 256,512ZM704,512L704,508C704,482 698.833,457.583 688.5,434.75C678.167,411.917 664.167,392 646.5,375C628.833,358 608.417,344.583 585.25,334.75C562.083,324.917 537.667,320 512,320C485.333,320 460.333,325 437,335C413.667,345 393.333,358.667 376,376C358.667,393.333 345,413.667 335,437C325,460.333 320,485.333 320,512C320,538.667 325,563.667 335,587C345,610.333 358.667,630.667 376,648C393.333,665.333 413.667,679 437,689C460.333,699 485.333,704 512,704C538.667,704 563.667,699 587,689C610.333,679 630.667,665.333 648,648C665.333,630.667 679,610.333 689,587C699,563.667 704,538.667 704,512ZM32,544C23.3333,544 15.8333,540.833 9.5,534.5C3.16667,528.167 0,520.667 0,512C0,503.333 3.16667,495.833 9.5,489.5C15.8333,483.167 23.3333,480 32,480L96,480C104.667,480 112.167,483.167 118.5,489.5C124.833,495.833 128,503.333 128,512C128,520.667 124.833,528.167 118.5,534.5C112.167,540.833 104.667,544 96,544ZM928,544C919.333,544 911.833,540.833 905.5,534.5C899.167,528.167 896,520.667 896,512C896,503.333 899.167,495.833 905.5,489.5C911.833,483.167 919.333,480 928,480L992,480C1000.67,480 1008.17,483.167 1014.5,489.5C1020.83,495.833 1024,503.333 1024,512C1024,520.667 1020.83,528.167 1014.5,534.5C1008.17,540.833 1000.67,544 992,544ZM128,864C128,855.333 131.167,847.833 137.5,841.5L201.5,777.5C207.833,771.167 215.333,768 224,768C232.667,768 240.167,771.167 246.5,777.5C252.833,783.833 256,791.333 256,800C256,808.667 252.833,816.167 246.5,822.5L182.5,886.5C176.167,892.833 168.667,896 160,896C151.333,896 143.833,892.833 137.5,886.5C131.167,880.167 128,872.667 128,864ZM768,800C768,791.333 771.167,783.833 777.5,777.5C783.833,771.167 791.333,768 800,768C808.667,768 816.167,771.167 822.5,777.5L886.5,841.5C892.833,847.833 896,855.333 896,864C896,872.667 892.833,880.167 886.5,886.5C880.167,892.833 872.667,896 864,896C855.333,896 847.833,892.833 841.5,886.5L777.5,822.5C771.167,816.167 768,808.667 768,800ZM480,992L480,928C480,919.333 483.167,911.833 489.5,905.5C495.833,899.167 503.333,896 512,896C520.667,896 528.167,899.167 534.5,905.5C540.833,911.833 544,919.333 544,928L544,992C544,1000.67 540.833,1008.17 534.5,1014.5C528.167,1020.83 520.667,1024 512,1024C503.333,1024 495.833,1020.83 489.5,1014.5C483.167,1008.17 480,1000.67 480,992Z" fill="#FFFFFF" fill-opacity="1">
  </path>
</svg>