<!-- Exported by Character Map UWP -->
<svg height="100%" viewBox="128 1 768 1023" width="100%" xmlns="http://www.w3.org/2000/svg" xmlns:xlink="http://www.w3.org/1999/xlink">
  <path d="M272.5,480C272.5,488.667 269.333,496.167 263,502.5C256.667,508.833 249.167,512 240.5,512C230.833,512 222.667,508.167 216,500.5C201.667,484.5 189.083,466.75 178.25,447.25C167.417,427.75 158.25,407.333 150.75,386C143.25,364.667 137.583,342.917 133.75,320.75C129.917,298.583 128,277 128,256C128,235.667 129.917,214.417 133.75,192.25C137.583,170.083 143.167,148.25 150.5,126.75C157.833,105.25 166.833,84.75 177.5,65.25C188.167,45.75 200.5,28.3334 214.5,13C217.833,9.33337 221.583,6.41669 225.75,4.25C229.917,2.08337 234.5,1.00006 239.5,1C248.167,1.00006 255.667,4.16675 262,10.5C268.333,16.8334 271.5,24.3334 271.5,33C271.5,37.3334 270.917,41 269.75,44C268.583,47 266.667,50.1667 264,53.5C259.667,59.1667 255.333,64.8334 251,70.5C246.667,76.1667 242.667,82.1667 239,88.5C223.333,113.5 211.583,140.25 203.75,168.75C195.917,197.25 192,226.333 192,256C192,285.667 196,314.833 204,343.5C212,372.167 223.833,399.167 239.5,424.5C243.5,430.833 247.667,436.75 252,442.25C256.333,447.75 260.667,453.5 265,459.5C267.667,462.833 269.583,466 270.75,469C271.917,472 272.5,475.667 272.5,480ZM896,256C896,276.667 894.083,298.167 890.25,320.5C886.417,342.833 880.833,364.75 873.5,386.25C866.167,407.75 857.083,428.333 846.25,448C835.417,467.667 822.833,485.167 808.5,500.5C801.5,508.167 793.167,512 783.5,512C774.833,512 767.333,508.833 761,502.5C754.667,496.167 751.5,488.667 751.5,480C751.5,475.667 752.083,472 753.25,469C754.417,466 756.333,462.833 759,459.5C763.333,453.5 767.667,447.75 772,442.25C776.333,436.75 780.5,430.833 784.5,424.5C800.167,399.167 812,372.167 820,343.5C828,314.833 832,285.667 832,256C832,226.333 828.083,197.25 820.25,168.75C812.417,140.25 800.667,113.5 785,88.5C781.333,82.1667 777.333,76.1667 773,70.5C768.667,64.8334 764.333,59.1667 760,53.5C757.333,50.1667 755.417,47 754.25,44C753.083,41 752.5,37.3334 752.5,33C752.5,24.3334 755.667,16.9167 762,10.75C768.333,4.58337 775.833,1.5 784.5,1.5C794.167,1.5 802.5,5.33337 809.5,13C823.5,28.6667 835.917,46.25 846.75,65.75C857.583,85.25 866.667,105.667 874,127C881.333,148.333 886.833,170 890.5,192C894.167,214 896,235.333 896,256ZM256,256C256,239.667 257.583,223.333 260.75,207C263.917,190.667 268.583,174.75 274.75,159.25C280.917,143.75 288.5,129.083 297.5,115.25C306.5,101.417 317,88.6667 329,77C335.667,70.3334 343.333,67.0001 352,67C360.667,67.0001 368.167,70.1667 374.5,76.5C380.833,82.8334 384,90.3334 384,99C384,103.667 383.25,107.667 381.75,111C380.25,114.333 378,117.833 375,121.5C357,141.167 343.333,161.75 334,183.25C324.667,204.75 320,229 320,256C320,277 323,296.083 329,313.25C335,330.417 343.5,347.833 354.5,365.5C358.167,371.167 360,377.333 360,384C360,392.667 356.833,400.167 350.5,406.5C344.167,412.833 336.667,416 328,416C322.667,416 317.75,414.75 313.25,412.25C308.75,409.75 305,406.5 302,402.5C287,382.167 275.583,358.917 267.75,332.75C259.917,306.583 256,281 256,256ZM640,99C640,90.3334 643.167,82.8334 649.5,76.5C655.833,70.1667 663.333,67.0001 672,67C676.667,67.0001 680.917,67.9167 684.75,69.75C688.583,71.5834 692,74 695,77C719,100.333 737.167,127.667 749.5,159C761.833,190.333 768,222.667 768,256C768,293.667 759.833,330.167 743.5,365.5C741.5,370.167 739,375.417 736,381.25C733,387.083 729.5,392.583 725.5,397.75C721.5,402.917 717.083,407.25 712.25,410.75C707.417,414.25 702,416 696,416C687,416 679.417,412.917 673.25,406.75C667.083,400.583 664,393 664,384C664,380 664.75,376 666.25,372C667.75,368 669.667,364.167 672,360.5C674.333,356.833 676.75,353.167 679.25,349.5C681.75,345.833 683.833,342.167 685.5,338.5C697.833,312.833 704,285.333 704,256C704,229.333 699.333,205.083 690,183.25C680.667,161.417 667,140.833 649,121.5C643,115.167 640,107.667 640,99ZM768,992.5C768,1001.5 764.75,1009 758.25,1015C751.75,1021 744.167,1024 735.5,1024C728.167,1024 721.833,1021.83 716.5,1017.5C711.167,1013.17 707.5,1007.67 705.5,1001L674,896L350,896L318.5,1001C316.5,1007.67 312.75,1013.17 307.25,1017.5C301.75,1021.83 295.333,1024 288,1024C279.333,1024 271.833,1020.83 265.5,1014.5C259.167,1008.17 256,1000.67 256,992C256,990 256.833,985.583 258.5,978.75C260.167,971.917 262.333,963.917 265,954.75C267.667,945.583 270.583,935.833 273.75,925.5C276.917,915.167 280,905.25 283,895.75C286,886.25 288.667,877.75 291,870.25C293.333,862.75 295,857.333 296,854L443,364C424,351.667 409.417,335.833 399.25,316.5C389.083,297.167 384,276.167 384,253.5C384,236.167 387.5,219.917 394.5,204.75C401.5,189.583 410.833,176.333 422.5,165C434.167,153.667 447.75,144.667 463.25,138C478.75,131.333 495,128 512,128C529,128 545.25,131.333 560.75,138C576.25,144.667 589.833,153.667 601.5,165C613.167,176.333 622.5,189.583 629.5,204.75C636.5,219.917 640,236.167 640,253.5C640,276.167 634.917,297.167 624.75,316.5C614.583,335.833 600,351.667 581,364L728,854C729,857.333 730.667,862.75 733,870.25C735.333,877.75 738,886.25 741,895.75C744,905.25 747.083,915.167 750.25,925.5C753.417,935.833 756.333,945.583 759,954.75C761.667,963.917 763.833,971.917 765.5,978.75C767.167,985.583 768,990.167 768,992.5ZM448,256C448,265 449.667,273.417 453,281.25C456.333,289.083 460.833,295.833 466.5,301.5C472.167,307.167 478.917,311.667 486.75,315C494.583,318.333 503,320 512,320C521,320 529.333,318.333 537,315C544.667,311.667 551.417,307.083 557.25,301.25C563.083,295.417 567.667,288.667 571,281C574.333,273.333 576,265 576,256C576,247.333 574.333,239.083 571,231.25C567.667,223.417 563.083,216.583 557.25,210.75C551.417,204.917 544.583,200.333 536.75,197C528.917,193.667 520.667,192 512,192C503,192 494.667,193.667 487,197C479.333,200.333 472.583,204.917 466.75,210.75C460.917,216.583 456.333,223.333 453,231C449.667,238.667 448,247 448,256ZM504,384L369.5,832L654.5,832L520,384Z" fill="#FFFFFF" fill-opacity="1">
  </path>
</svg>