<!-- Exported by Character Map UWP -->
<svg height="100%" viewBox="0 64 1024 640" width="100%" xmlns="http://www.w3.org/2000/svg" xmlns:xlink="http://www.w3.org/1999/xlink">
  <path d="M256,160C256,151.333 259.167,143.833 265.5,137.5C271.833,131.167 279.333,128 288,128C298,128 305.833,125.167 311.5,119.5C317.167,113.833 320,106 320,96C320,87.3334 323.167,79.8334 329.5,73.5C335.833,67.1667 343.333,64.0001 352,64C360.667,64.0001 368.167,67.1667 374.5,73.5C380.833,79.8334 384,87.3334 384,96C384,106 386.833,113.833 392.5,119.5C398.167,125.167 406,128 416,128C424.667,128 432.167,131.167 438.5,137.5C444.833,143.833 448,151.333 448,160C448,168.667 444.833,176.167 438.5,182.5C432.167,188.833 424.667,192 416,192C406,192 398.167,194.833 392.5,200.5C386.833,206.167 384,214 384,224C384,232.667 380.833,240.167 374.5,246.5C368.167,252.833 360.667,256 352,256C343.333,256 335.833,252.833 329.5,246.5C323.167,240.167 320,232.667 320,224C320,214 317.167,206.167 311.5,200.5C305.833,194.833 298,192 288,192C279.333,192 271.833,188.833 265.5,182.5C259.167,176.167 256,168.667 256,160ZM0,352C0,343.333 3.16667,335.833 9.5,329.5C15.8333,323.167 23.3333,320 32,320C44,320 55.9167,318.417 67.75,315.25C79.5833,312.083 90.3333,306.667 100,299C111.333,290.333 118.833,279.083 122.5,265.25C126.167,251.417 128,237.667 128,224C128,215.333 131.167,207.833 137.5,201.5C143.833,195.167 151.333,192 160,192C168.667,192 176.167,195.167 182.5,201.5C188.833,207.833 192,215.333 192,224C192,230.667 192.417,237.5 193.25,244.5C194.083,251.5 195.5,258.333 197.5,265C199.5,271.667 202.25,277.917 205.75,283.75C209.25,289.583 213.833,294.667 219.5,299C229.167,306.667 239.917,312.083 251.75,315.25C263.583,318.417 275.667,320 288,320C296.667,320 304.167,323.167 310.5,329.5C316.833,335.833 320,343.333 320,352C320,360.667 316.833,368.167 310.5,374.5C304.167,380.833 296.667,384 288,384C275.667,384 263.583,385.583 251.75,388.75C239.917,391.917 229.167,397.333 219.5,405C213.833,409.333 209.25,414.417 205.75,420.25C202.25,426.083 199.5,432.333 197.5,439C195.5,445.667 194.083,452.5 193.25,459.5C192.417,466.5 192,473.333 192,480C192,488.667 188.833,496.167 182.5,502.5C176.167,508.833 168.667,512 160,512C151.333,512 143.833,508.833 137.5,502.5C131.167,496.167 128,488.667 128,480C128,473.333 127.583,466.5 126.75,459.5C125.917,452.5 124.5,445.667 122.5,439C120.5,432.333 117.667,426.083 114,420.25C110.333,414.417 105.667,409.333 100,405C90.3333,397.333 79.5833,391.917 67.75,388.75C55.9167,385.583 44,384 32,384C23.3333,384 15.8333,380.833 9.5,374.5C3.16667,368.167 0,360.667 0,352ZM125.5,704C108.833,704 92.9167,700.583 77.75,693.75C62.5833,686.917 49.25,677.75 37.75,666.25C26.25,654.75 17.0833,641.417 10.25,626.25C3.41667,611.083 0,595.167 0,578.5L0,512C0,503.333 3.16667,495.833 9.5,489.5C15.8333,483.167 23.3333,480 32,480C40.6667,480 48.1667,483.167 54.5,489.5C60.8333,495.833 64,503.333 64,512L64,576C64,594 70.1667,609.167 82.5,621.5C94.8333,633.833 110,640 128,640L896,640C905,640 913.333,638.333 921,635C928.667,631.667 935.417,627.083 941.25,621.25C947.083,615.417 951.667,608.667 955,601C958.333,593.333 960,585 960,576L960,448C960,439.333 958.333,431.083 955,423.25C951.667,415.417 947.083,408.583 941.25,402.75C935.417,396.917 928.583,392.333 920.75,389C912.917,385.667 904.667,384 896,384L416,384C407.333,384 399.833,380.833 393.5,374.5C387.167,368.167 384,360.667 384,352C384,343.333 387.167,335.833 393.5,329.5C399.833,323.167 407.333,320 416,320L898.5,320C915.167,320 931.083,323.417 946.25,330.25C961.417,337.083 974.75,346.25 986.25,357.75C997.75,369.25 1006.92,382.583 1013.75,397.75C1020.58,412.917 1024,428.833 1024,445.5L1024,578.5C1024,595.167 1020.58,611.083 1013.75,626.25C1006.92,641.417 997.75,654.75 986.25,666.25C974.75,677.75 961.417,686.917 946.25,693.75C931.083,700.583 915.167,704 898.5,704ZM736,496C736,482.667 740.667,471.333 750,462C759.333,452.667 770.667,448 784,448C797.333,448 808.667,452.667 818,462C827.333,471.333 832,482.667 832,496C832,509.333 827.333,520.667 818,530C808.667,539.333 797.333,544 784,544C770.667,544 759.333,539.333 750,530C740.667,520.667 736,509.333 736,496Z" fill="#FFFFFF" fill-opacity="1">
  </path>
</svg>