<!-- Exported by Character Map UWP -->
<svg height="100%" viewBox="0 64 1024 960" width="100%" xmlns="http://www.w3.org/2000/svg" xmlns:xlink="http://www.w3.org/1999/xlink">
  <path d="M125.5,768C108.833,768 92.9167,764.583 77.75,757.75C62.5833,750.917 49.25,741.75 37.75,730.25C26.25,718.75 17.0833,705.417 10.25,690.25C3.41667,675.083 0,659.167 0,642.5L0,189.5C0,172.833 3.41667,156.917 10.25,141.75C17.0833,126.583 26.25,113.25 37.75,101.75C49.25,90.25 62.5833,81.0834 77.75,74.25C92.9167,67.4167 108.833,64.0001 125.5,64L898.5,64C915.167,64.0001 931.083,67.4167 946.25,74.25C961.417,81.0834 974.75,90.25 986.25,101.75C997.75,113.25 1006.92,126.583 1013.75,141.75C1020.58,156.917 1024,172.833 1024,189.5L1024,337C1004.67,325.667 983.333,320 960,320L960,192C960,183.333 958.333,175.083 955,167.25C951.667,159.417 947.083,152.583 941.25,146.75C935.417,140.917 928.583,136.333 920.75,133C912.917,129.667 904.667,128 896,128L128,128C119,128 110.667,129.667 103,133C95.3333,136.333 88.5833,140.917 82.75,146.75C76.9167,152.583 72.3333,159.333 69,167C65.6667,174.667 64,183 64,192L64,640C64,649 65.6667,657.417 69,665.25C72.3333,673.083 76.8333,679.833 82.5,685.5C88.1667,691.167 94.9167,695.667 102.75,699C110.583,702.333 119,704 128,704L512,704L512,768ZM160,272C160,258.667 164.667,247.333 174,238C183.333,228.667 194.667,224 208,224C221.333,224 232.667,228.667 242,238C251.333,247.333 256,258.667 256,272C256,285.333 251.333,296.667 242,306C232.667,315.333 221.333,320 208,320C194.667,320 183.333,315.333 174,306C164.667,296.667 160,285.333 160,272ZM352,272C352,258.667 356.667,247.333 366,238C375.333,228.667 386.667,224 400,224C413.333,224 424.667,228.667 434,238C443.333,247.333 448,258.667 448,272C448,285.333 443.333,296.667 434,306C424.667,315.333 413.333,320 400,320C386.667,320 375.333,315.333 366,306C356.667,296.667 352,285.333 352,272ZM544,272C544,258.667 548.667,247.333 558,238C567.333,228.667 578.667,224 592,224C605.333,224 616.667,228.667 626,238C635.333,247.333 640,258.667 640,272C640,285.333 635.333,296.667 626,306C616.667,315.333 605.333,320 592,320C578.667,320 567.333,315.333 558,306C548.667,296.667 544,285.333 544,272ZM736,272C736,258.667 740.667,247.333 750,238C759.333,228.667 770.667,224 784,224C797.333,224 808.667,228.667 818,238C827.333,247.333 832,258.667 832,272C832,285.333 827.333,296.667 818,306C808.667,315.333 797.333,320 784,320C770.667,320 759.333,315.333 750,306C740.667,296.667 736,285.333 736,272ZM672,1024C659,1024 646.667,1021.5 635,1016.5C623.333,1011.5 613.083,1004.58 604.25,995.75C595.417,986.917 588.5,976.667 583.5,965C578.5,953.333 576,941 576,928L576,480C576,467 578.5,454.667 583.5,443C588.5,431.333 595.417,421.083 604.25,412.25C613.083,403.417 623.333,396.5 635,391.5C646.667,386.5 659,384 672,384L928,384C941,384 953.333,386.5 965,391.5C976.667,396.5 986.917,403.417 995.75,412.25C1004.58,421.083 1011.5,431.333 1016.5,443C1021.5,454.667 1024,467 1024,480L1024,928C1024,941 1021.5,953.333 1016.5,965C1011.5,976.667 1004.58,986.917 995.75,995.75C986.917,1004.58 976.667,1011.5 965,1016.5C953.333,1021.5 941,1024 928,1024ZM288,464C288,450.667 292.667,439.333 302,430C311.333,420.667 322.667,416 336,416C349.333,416 360.667,420.667 370,430C379.333,439.333 384,450.667 384,464C384,477.333 379.333,488.667 370,498C360.667,507.333 349.333,512 336,512C322.667,512 311.333,507.333 302,498C292.667,488.667 288,477.333 288,464ZM928,960C936.667,960 944.167,956.833 950.5,950.5C956.833,944.167 960,936.667 960,928L960,480C960,471.333 956.833,463.833 950.5,457.5C944.167,451.167 936.667,448 928,448L672,448C663.333,448 655.833,451.167 649.5,457.5C643.167,463.833 640,471.333 640,480L640,928C640,936.667 643.167,944.167 649.5,950.5C655.833,956.833 663.333,960 672,960ZM704,608C704,595 706.5,582.667 711.5,571C716.5,559.333 723.417,549.083 732.25,540.25C741.083,531.417 751.333,524.5 763,519.5C774.667,514.5 787,512 800,512C813,512 825.333,514.5 837,519.5C848.667,524.5 858.917,531.417 867.75,540.25C876.583,549.083 883.5,559.333 888.5,571C893.5,582.667 896,595 896,608C896,621 893.5,633.333 888.5,645C883.5,656.667 876.583,666.917 867.75,675.75C858.917,684.583 848.667,691.5 837,696.5C825.333,701.5 813,704 800,704C787,704 774.667,701.5 763,696.5C751.333,691.5 741.083,684.583 732.25,675.75C723.417,666.917 716.5,656.667 711.5,645C706.5,633.333 704,621 704,608ZM224,640C215.333,640 207.833,636.833 201.5,630.5C195.167,624.167 192,616.667 192,608C192,599.333 195.167,591.833 201.5,585.5C207.833,579.167 215.333,576 224,576L512,576L512,640ZM832,608C832,599.333 828.833,591.833 822.5,585.5C816.167,579.167 808.667,576 800,576C791.333,576 783.833,579.167 777.5,585.5C771.167,591.833 768,599.333 768,608C768,616.667 771.167,624.167 777.5,630.5C783.833,636.833 791.333,640 800,640C808.667,640 816.167,636.833 822.5,630.5C828.833,624.167 832,616.667 832,608ZM736,832C736,823 737.667,814.667 741,807C744.333,799.333 748.917,792.583 754.75,786.75C760.583,780.917 767.333,776.333 775,773C782.667,769.667 791,768 800,768C808.667,768 816.917,769.667 824.75,773C832.583,776.333 839.417,780.917 845.25,786.75C851.083,792.583 855.667,799.417 859,807.25C862.333,815.083 864,823.333 864,832C864,841 862.333,849.333 859,857C855.667,864.667 851.083,871.417 845.25,877.25C839.417,883.083 832.667,887.667 825,891C817.333,894.333 809,896 800,896C791,896 782.583,894.333 774.75,891C766.917,887.667 760.167,883.167 754.5,877.5C748.833,871.833 744.333,865.083 741,857.25C737.667,849.417 736,841 736,832Z" fill="#FFFFFF" fill-opacity="1">
  </path>
</svg>