<!-- Exported by Character Map UWP -->
<svg height="100%" viewBox="0 64 1024 960" width="100%" xmlns="http://www.w3.org/2000/svg" xmlns:xlink="http://www.w3.org/1999/xlink">
  <path d="M128,896L96,896C83,896 70.6667,893.5 59,888.5C47.3333,883.5 37.0833,876.583 28.25,867.75C19.4167,858.917 12.5,848.667 7.5,837C2.5,825.333 0,813 0,800L0,480C0,469.333 1.66667,459.083 5,449.25C8.33333,439.417 13,430.417 19,422.25C25,414.083 32.25,407.083 40.75,401.25C49.25,395.417 58.6667,391 69,388L76,352L48,352C34.6667,352 23.3333,347.333 14,338C4.66667,328.667 0,317.333 0,304C0,290.667 4.66667,279.333 14,270C23.3333,260.667 34.6667,256 48,256L95.5,256L108,192.5C111.667,174.167 118.417,157.167 128.25,141.5C138.083,125.833 150,112.25 164,100.75C178,89.2501 193.667,80.2501 211,73.75C228.333,67.2501 246.333,64.0001 265,64L759,64C777.667,64.0001 795.667,67.2501 813,73.75C830.333,80.2501 846,89.2501 860,100.75C874,112.25 885.917,125.833 895.75,141.5C905.583,157.167 912.333,174.167 916,192.5L928.5,256C931.167,256 933.667,256 936,256L950.5,255.5C953.167,255.5 955.667,255.5 958,255.5C966.333,255.5 974.5,256.167 982.5,257.5C990.5,258.833 997.583,261.25 1003.75,264.75C1009.92,268.25 1014.83,273.167 1018.5,279.5C1022.17,285.833 1024,294 1024,304C1024,316.333 1020,326.833 1012,335.5C1004,344.167 994.167,349.5 982.5,351.5C980.167,352.167 977.917,352.5 975.75,352.5C973.583,352.5 971.167,352.5 968.5,352.5C965.167,352.5 961.833,352.417 958.5,352.25C955.167,352.083 951.667,352 948,352L955,388C965.333,391 974.75,395.417 983.25,401.25C991.75,407.083 999,414.083 1005,422.25C1011,430.417 1015.67,439.417 1019,449.25C1022.33,459.083 1024,469.333 1024,480L1024,800C1024,813 1021.5,825.333 1016.5,837C1011.5,848.667 1004.58,858.917 995.75,867.75C986.917,876.583 976.667,883.5 965,888.5C953.333,893.5 941,896 928,896L896,896L896,960C896,978.333 889.667,993.5 877,1005.5C864.667,1017.83 849.667,1024 832,1024C814,1024 798.833,1017.83 786.5,1005.5C774.167,993.167 768,978 768,960L768,896L256,896L256,960C256,978.333 249.667,993.5 237,1005.5C224.667,1017.83 209.667,1024 192,1024C174,1024 158.833,1017.83 146.5,1005.5C134.167,993.167 128,978 128,960ZM135,384L889,384L853,205C850.667,194 846.583,183.833 840.75,174.5C834.917,165.167 827.75,157.083 819.25,150.25C810.75,143.417 801.333,138 791,134C780.667,130 770,128 759,128L265,128C253.333,128 242.333,129.917 232,133.75C221.667,137.583 212.417,142.917 204.25,149.75C196.083,156.583 189.167,164.667 183.5,174C177.833,183.333 173.667,193.667 171,205C164.333,234.667 158.167,264.417 152.5,294.25C146.833,324.083 141,354 135,384ZM928,832C936.667,832 944.167,828.833 950.5,822.5C956.833,816.167 960,808.667 960,800L960,480C960,471.333 956.833,463.833 950.5,457.5C944.167,451.167 936.667,448 928,448L96,448C87.3333,448 79.8333,451.167 73.5,457.5C67.1667,463.833 64,471.333 64,480L64,800C64,808.667 67.1667,816.167 73.5,822.5C79.8333,828.833 87.3333,832 96,832ZM192,640C192,631 193.667,622.667 197,615C200.333,607.333 204.917,600.583 210.75,594.75C216.583,588.917 223.333,584.333 231,581C238.667,577.667 247,576 256,576C264.667,576 272.917,577.667 280.75,581C288.583,584.333 295.417,588.917 301.25,594.75C307.083,600.583 311.667,607.417 315,615.25C318.333,623.083 320,631.333 320,640C320,649 318.333,657.333 315,665C311.667,672.667 307.083,679.417 301.25,685.25C295.417,691.083 288.667,695.667 281,699C273.333,702.333 265,704 256,704C247,704 238.583,702.333 230.75,699C222.917,695.667 216.167,691.167 210.5,685.5C204.833,679.833 200.333,673.083 197,665.25C193.667,657.417 192,649 192,640ZM704,640C704,631 705.667,622.667 709,615C712.333,607.333 716.917,600.583 722.75,594.75C728.583,588.917 735.333,584.333 743,581C750.667,577.667 759,576 768,576C776.667,576 784.917,577.667 792.75,581C800.583,584.333 807.417,588.917 813.25,594.75C819.083,600.583 823.667,607.417 827,615.25C830.333,623.083 832,631.333 832,640C832,649 830.333,657.333 827,665C823.667,672.667 819.083,679.417 813.25,685.25C807.417,691.083 800.667,695.667 793,699C785.333,702.333 777,704 768,704C759,704 750.583,702.333 742.75,699C734.917,695.667 728.167,691.167 722.5,685.5C716.833,679.833 712.333,673.083 709,665.25C705.667,657.417 704,649 704,640Z" fill="#FFFFFF" fill-opacity="1">
  </path>
</svg>