<!-- Exported by Character Map UWP -->
<svg height="100%" viewBox="126 1 772 1024" width="100%" xmlns="http://www.w3.org/2000/svg" xmlns:xlink="http://www.w3.org/1999/xlink">
  <path d="M480,895.5C446.667,892.833 414.75,886.083 384.25,875.25C353.75,864.417 325.417,850.333 299.25,833C273.083,815.667 249.333,795.5 228,772.5C206.667,749.5 188.417,724.167 173.25,696.5C158.083,668.833 146.417,639.417 138.25,608.25C130.083,577.083 126,544.833 126,511.5C126,460.833 135.5,412.167 154.5,365.5C173.5,318.833 200.667,277.333 236,241L443.5,29.5C462.167,10.1667 485,0.5 512,0.5C538.333,0.5 561.167,10.1667 580.5,29.5L788,241C823.333,277.333 850.5,318.75 869.5,365.25C888.5,411.75 898,460.333 898,511C898,561.333 889,608.833 871,653.5C853,698.167 828.083,737.75 796.25,772.25C764.417,806.75 726.917,834.833 683.75,856.5C640.583,878.167 594,891.167 544,895.5L544,992C544,1000.67 540.833,1008.17 534.5,1014.5C528.167,1020.83 520.667,1024 512,1024C503.333,1024 495.833,1020.83 489.5,1014.5C483.167,1008.17 480,1000.67 480,992ZM512,448C520.667,448 528.167,451.167 534.5,457.5C540.833,463.833 544,471.333 544,480L544,831.5C585,827.167 623.167,815.833 658.5,797.5C693.833,779.167 724.5,755.667 750.5,727C776.5,698.333 796.917,665.5 811.75,628.5C826.583,591.5 834,552.333 834,511C834,468.333 826.083,427.75 810.25,389.25C794.417,350.75 771.667,316.333 742,286L535,74C528.667,67.6667 521,64.5 512,64.5C502.667,64.5 495,67.6667 489,74L282,286C252.333,316.333 229.583,350.75 213.75,389.25C197.917,427.75 190,468.333 190,511C190,552.333 197.417,591.5 212.25,628.5C227.083,665.5 247.5,698.333 273.5,727C299.5,755.667 330.167,779.167 365.5,797.5C400.833,815.833 439,827.167 480,831.5L480,480C480,471.333 483.167,463.833 489.5,457.5C495.833,451.167 503.333,448 512,448Z" fill="#FFFFFF" fill-opacity="1">
  </path>
</svg>