<!-- Exported by Character Map UWP -->
<svg height="100%" viewBox="0 0 1024 1024" width="100%" xmlns="http://www.w3.org/2000/svg" xmlns:xlink="http://www.w3.org/1999/xlink">
  <path d="M768,768L768,832L704,832L704,960L768,960L768,1024L224,1024C215.333,1024 207.833,1020.83 201.5,1014.5C195.167,1008.17 192,1000.67 192,992C192,983.333 195.167,975.833 201.5,969.5C207.833,963.167 215.333,960 224,960L320,960L320,832L125.5,832C108.833,832 92.9167,828.583 77.75,821.75C62.5833,814.917 49.25,805.75 37.75,794.25C26.25,782.75 17.0833,769.417 10.25,754.25C3.41667,739.083 0,723.167 0,706.5L0,125.5C0,108.833 3.41667,92.9167 10.25,77.75C17.0833,62.5834 26.25,49.2501 37.75,37.75C49.25,26.2501 62.5833,17.0834 77.75,10.25C92.9167,3.41669 108.833,0 125.5,0L657,0C645.667,19.3334 640,40.6667 640,64L128,64C119,64.0001 110.667,65.6667 103,69C95.3333,72.3334 88.5833,76.9167 82.75,82.75C76.9167,88.5834 72.3333,95.3334 69,103C65.6667,110.667 64,119 64,128L64,704C64,713 65.6667,721.417 69,729.25C72.3333,737.083 76.8333,743.833 82.5,749.5C88.1667,755.167 94.9167,759.667 102.75,763C110.583,766.333 119,768 128,768ZM928,0C941,0 953.333,2.5 965,7.5C976.667,12.5 986.917,19.4167 995.75,28.25C1004.58,37.0834 1011.5,47.3334 1016.5,59C1021.5,70.6667 1024,83 1024,96L1024,352C1024,365 1021.5,377.333 1016.5,389C1011.5,400.667 1004.58,410.917 995.75,419.75C986.917,428.583 976.667,435.5 965,440.5C953.333,445.5 941,448 928,448L896,448L896,992C896,1000.67 892.833,1008.17 886.5,1014.5C880.167,1020.83 872.667,1024 864,1024C855.333,1024 847.833,1020.83 841.5,1014.5C835.167,1008.17 832,1000.67 832,992L832,448L800,448C787,448 774.667,445.5 763,440.5C751.333,435.5 741.083,428.583 732.25,419.75C723.417,410.917 716.5,400.667 711.5,389C706.5,377.333 704,365 704,352L704,96C704,83 706.5,70.6667 711.5,59C716.5,47.3334 723.417,37.0834 732.25,28.25C741.083,19.4167 751.333,12.5 763,7.5C774.667,2.5 787,0 800,0ZM800,64C791.333,64.0001 783.833,67.1667 777.5,73.5C771.167,79.8334 768,87.3334 768,96L768,128L960,128L960,96C960,87.3334 956.833,79.8334 950.5,73.5C944.167,67.1667 936.667,64.0001 928,64ZM928,384C936.667,384 944.167,380.833 950.5,374.5C956.833,368.167 960,360.667 960,352L960,192L768,192L768,352C768,360.667 771.167,368.167 777.5,374.5C783.833,380.833 791.333,384 800,384ZM384,960L640,960L640,832L384,832Z" fill="#FFFFFF" fill-opacity="1">
  </path>
</svg>