<!-- Exported by Character Map UWP -->
<svg height="100%" viewBox="0 0 1024 1024" width="100%" xmlns="http://www.w3.org/2000/svg" xmlns:xlink="http://www.w3.org/1999/xlink">
  <path d="M0,32C0,23.3334 3.16667,15.8334 9.5,9.5C15.8333,3.16669 23.3333,0 32,0C40.6667,0 48.1667,3.16669 54.5,9.5L1014.5,969.5C1020.83,975.833 1024,983.333 1024,992C1024,1000.67 1020.83,1008.17 1014.5,1014.5C1008.17,1020.83 1000.67,1024 992,1024C983.333,1024 975.833,1020.83 969.5,1014.5L9.5,54.5C3.16667,48.1667 0,40.6667 0,32ZM960,824L960,192L736,192C723,192 710.667,194.5 699,199.5C687.333,204.5 677.083,211.417 668.25,220.25C659.417,229.083 652.5,239.333 647.5,251C642.5,262.667 640,275 640,288L640,504L576,440L576,384L520,384L456,320L576,320L576,284.5C576,263.5 580.25,243.5 588.75,224.5C597.25,205.5 608.583,188.917 622.75,174.75C636.917,160.583 653.5,149.25 672.5,140.75C691.5,132.25 711.5,128 732.5,128L992,128C1000.67,128 1008.17,131.167 1014.5,137.5C1020.83,143.833 1024,151.333 1024,160L1024,864C1024,871 1022,877.167 1018,882.5ZM732.5,896C711.167,896 691.083,891.75 672.25,883.25C653.417,874.75 636.917,863.417 622.75,849.25C608.583,835.083 597.333,818.5 589,799.5C580.667,780.5 576.333,760.5 576,739.5L576,704L96,704C83,704 70.6667,701.5 59,696.5C47.3333,691.5 37.0833,684.583 28.25,675.75C19.4167,666.917 12.5,656.667 7.5,645C2.5,633.333 0,621 0,608L0,416C0,403 2.5,390.667 7.5,379C12.5,367.333 19.4167,357.083 28.25,348.25C37.0833,339.417 47.3333,332.5 59,327.5C70.6667,322.5 83,320 96,320L274.5,320L338.5,384L96,384C87.3333,384 79.8333,387.167 73.5,393.5C67.1667,399.833 64,407.333 64,416L64,608C64,616.667 67.1667,624.167 73.5,630.5C79.8333,636.833 87.3333,640 96,640L576,640L576,621.5L640,685.5L640,736C640,749 642.5,761.333 647.5,773C652.5,784.667 659.417,794.917 668.25,803.75C677.083,812.583 687.333,819.5 699,824.5C710.667,829.5 723,832 736,832L786.5,832L850.5,896ZM224,544C215.333,544 207.833,540.833 201.5,534.5C195.167,528.167 192,520.667 192,512C192,503.333 195.167,495.833 201.5,489.5C207.833,483.167 215.333,480 224,480L352,480C360.667,480 368.167,483.167 374.5,489.5C380.833,495.833 384,503.333 384,512C384,520.667 380.833,528.167 374.5,534.5C368.167,540.833 360.667,544 352,544Z" fill="#FFFFFF" fill-opacity="1">
  </path>
</svg>