<!-- Exported by Character Map UWP -->
<svg height="100%" viewBox="0 0 1024 1024" width="100%" xmlns="http://www.w3.org/2000/svg" xmlns:xlink="http://www.w3.org/1999/xlink">
  <path d="M1024,512C1024,551.333 1019.58,589.75 1010.75,627.25C1001.92,664.75 989.333,700.417 973,734.25C956.667,768.083 936.75,799.833 913.25,829.5C889.75,859.167 863.417,885.917 834.25,909.75C805.083,933.583 773.25,954.083 738.75,971.25C704.25,988.417 667.833,1001.5 629.5,1010.5C636.5,994.5 640,977.667 640,960L640,839.5C650,817.833 658.667,795.667 666,773C673.333,750.333 679.5,727.333 684.5,704L640,704L640,640L695.5,640C698.167,618.667 700.25,597.417 701.75,576.25C703.25,555.083 704,533.667 704,512C704,490.333 703.25,468.917 701.75,447.75C700.25,426.583 698.167,405.333 695.5,384L328,384C325.333,406 323.333,427.333 322,448L258,448C258.667,437.333 259.417,426.667 260.25,416C261.083,405.333 262.333,394.667 264,384L82.5,384C79.5,394.667 76.75,405.333 74.25,416C71.75,426.667 69.8333,437.333 68.5,448C56.5,448 45.1667,449.25 34.5,451.75C23.8333,454.25 13.1667,458.333 2.5,464C6.5,420.333 15.75,378.5 30.25,338.5C44.75,298.5 63.5833,261.333 86.75,227C109.917,192.667 136.833,161.5 167.5,133.5C198.167,105.5 231.667,81.6667 268,62C304.333,42.3334 343.083,27.0834 384.25,16.25C425.417,5.41669 468,0 512,0C559,0 604.333,6.08337 648,18.25C691.667,30.4167 732.417,47.6667 770.25,70C808.083,92.3334 842.583,119.083 873.75,150.25C904.917,181.417 931.667,215.917 954,253.75C976.333,291.583 993.583,332.333 1005.75,376C1017.92,419.667 1024,465 1024,512ZM684.5,320C681.833,307.667 678,292.75 673,275.25C668,257.75 661.833,239.583 654.5,220.75C647.167,201.917 638.667,183.083 629,164.25C619.333,145.417 608.5,128.583 596.5,113.75C584.5,98.9167 571.5,86.9167 557.5,77.75C543.5,68.5834 528.333,64.0001 512,64C495.667,64.0001 480.5,68.5834 466.5,77.75C452.5,86.9167 439.5,98.9167 427.5,113.75C415.5,128.583 404.667,145.417 395,164.25C385.333,183.083 376.833,201.917 369.5,220.75C362.167,239.583 356,257.75 351,275.25C346,292.75 342.167,307.667 339.5,320ZM274,320C278,300 282.75,279.75 288.25,259.25C293.75,238.75 300.25,218.583 307.75,198.75C315.25,178.917 323.917,159.583 333.75,140.75C343.583,121.917 354.5,104.333 366.5,88C337.833,97.6667 310.667,110.167 285,125.5C259.333,140.833 235.417,158.333 213.25,178C191.083,197.667 171.083,219.5 153.25,243.5C135.417,267.5 120,293 107,320ZM916.5,320C903.833,293 888.5,267.583 870.5,243.75C852.5,219.917 832.417,198.083 810.25,178.25C788.083,158.417 764.167,140.917 738.5,125.75C712.833,110.583 685.833,98.1667 657.5,88.5C669.833,104.833 680.833,122.333 690.5,141C700.167,159.667 708.75,179 716.25,199C723.75,219 730.25,239.25 735.75,259.75C741.25,280.25 746,300.333 750,320ZM760,384C763,405.333 765.083,426.583 766.25,447.75C767.417,468.917 768,490.333 768,512C768,533.667 767.417,555.083 766.25,576.25C765.083,597.417 763,618.667 760,640L941.5,640C953.833,599 960,556.333 960,512C960,467.667 953.833,425 941.5,384ZM512,512C520.667,512 528.917,513.667 536.75,517C544.583,520.333 551.417,524.917 557.25,530.75C563.083,536.583 567.667,543.417 571,551.25C574.333,559.083 576,567.333 576,576L576,832C576,840.667 574.333,848.917 571,856.75C567.667,864.583 563.083,871.417 557.25,877.25C551.417,883.083 544.583,887.667 536.75,891C528.917,894.333 520.667,896 512,896L384,896L384,960L401.5,960C407.167,960 412.75,960.333 418.25,961C423.75,961.667 428.75,963.083 433.25,965.25C437.75,967.417 441.333,970.583 444,974.75C446.667,978.917 448,984.667 448,992C448,1000.67 444.833,1008.17 438.5,1014.5C432.167,1020.83 424.667,1024 416,1024L160,1024C151.333,1024 143.833,1020.83 137.5,1014.5C131.167,1008.17 128,1000.67 128,992C128,984.667 129.333,978.917 132,974.75C134.667,970.583 138.25,967.417 142.75,965.25C147.25,963.083 152.25,961.667 157.75,961C163.25,960.333 168.833,960 174.5,960L192,960L192,896L64,896C55.3333,896 47.0833,894.333 39.25,891C31.4167,887.667 24.5833,883.083 18.75,877.25C12.9167,871.417 8.33333,864.583 5,856.75C1.66667,848.917 0,840.667 0,832L0,576C0,567.333 1.66667,559.083 5,551.25C8.33333,543.417 12.9167,536.583 18.75,530.75C24.5833,524.917 31.4167,520.333 39.25,517C47.0833,513.667 55.3333,512 64,512ZM916.5,704L750,704C746,724 741.25,744.25 735.75,764.75C730.25,785.25 723.75,805.417 716.25,825.25C708.75,845.083 700.083,864.417 690.25,883.25C680.417,902.083 669.5,919.667 657.5,936C685.833,926.333 712.833,913.833 738.5,898.5C764.167,883.167 788.083,865.667 810.25,846C832.417,826.333 852.417,804.5 870.25,780.5C888.083,756.5 903.5,731 916.5,704Z" fill="#FFFFFF" fill-opacity="1">
  </path>
</svg>