<!-- Exported by Character Map UWP -->
<svg height="100%" viewBox="128 0 704 1024" width="100%" xmlns="http://www.w3.org/2000/svg" xmlns:xlink="http://www.w3.org/1999/xlink">
  <path d="M832,352L832,672C832,704.333 827.833,735.5 819.5,765.5C811.167,795.5 799.333,823.5 784,849.5C768.667,875.5 750.25,899.25 728.75,920.75C707.25,942.25 683.5,960.667 657.5,976C631.5,991.333 603.5,1003.17 573.5,1011.5C543.5,1019.83 512.333,1024 480,1024C447.667,1024 416.5,1019.83 386.5,1011.5C356.5,1003.17 328.5,991.333 302.5,976C276.5,960.667 252.75,942.25 231.25,920.75C209.75,899.25 191.333,875.5 176,849.5C160.667,823.5 148.833,795.5 140.5,765.5C132.167,735.5 128,704.333 128,672L128,352C128,319.667 132.167,288.5 140.5,258.5C148.833,228.5 160.667,200.5 176,174.5C191.333,148.5 209.75,124.75 231.25,103.25C252.75,81.75 276.5,63.3334 302.5,48C328.5,32.6667 356.5,20.8334 386.5,12.5C416.5,4.16669 447.667,0 480,0C512.333,0 543.5,4.16669 573.5,12.5C603.5,20.8334 631.5,32.6667 657.5,48C683.5,63.3334 707.25,81.75 728.75,103.25C750.25,124.75 768.667,148.5 784,174.5C799.333,200.5 811.167,228.5 819.5,258.5C827.833,288.5 832,319.667 832,352ZM448,66C415.333,69 384.25,77.8334 354.75,92.5C325.25,107.167 299.167,125.833 276.5,148.5C253.833,171.167 235.167,197.25 220.5,226.75C205.833,256.25 197,287.333 194,320L323,320C326.333,304.333 331.75,289.667 339.25,276C346.75,262.333 356,250 367,239C378,228 390.333,218.75 404,211.25C417.667,203.75 432.333,198.333 448,195ZM766,320C763,287.333 754.167,256.25 739.5,226.75C724.833,197.25 706.167,171.167 683.5,148.5C660.833,125.833 634.75,107.167 605.25,92.5C575.75,77.8334 544.667,69 512,66L512,195C527.667,198.333 542.333,203.75 556,211.25C569.667,218.75 582,228 593,239C604,250 613.25,262.333 620.75,276C628.25,289.667 633.667,304.333 637,320ZM384,352C384,365 386.5,377.333 391.5,389C396.5,400.667 403.417,410.917 412.25,419.75C421.083,428.583 431.333,435.5 443,440.5C454.667,445.5 467,448 480,448C493,448 505.333,445.5 517,440.5C528.667,435.5 538.917,428.583 547.75,419.75C556.583,410.917 563.5,400.667 568.5,389C573.5,377.333 576,365 576,352C576,339 573.5,326.667 568.5,315C563.5,303.333 556.583,293.083 547.75,284.25C538.917,275.417 528.667,268.5 517,263.5C505.333,258.5 493,256 480,256C467,256 454.667,258.5 443,263.5C431.333,268.5 421.083,275.417 412.25,284.25C403.417,293.083 396.5,303.333 391.5,315C386.5,326.667 384,339 384,352ZM768,672L768,384L637,384C633,402.333 626.167,419.333 616.5,435C606.833,450.667 595,464.167 581,475.5C567,486.833 551.333,495.75 534,502.25C516.667,508.75 498.667,512 480,512C461.333,512 443.333,508.75 426,502.25C408.667,495.75 393,486.833 379,475.5C365,464.167 353.167,450.667 343.5,435C333.833,419.333 327,402.333 323,384L192,384L192,672C192,712 199.5,749.5 214.5,784.5C229.5,819.5 250,850 276,876C302,902 332.5,922.5 367.5,937.5C402.5,952.5 440,960 480,960C519.667,960 557,952.417 592,937.25C627,922.083 657.5,901.5 683.5,875.5C709.5,849.5 730.083,819 745.25,784C760.417,749 768,711.667 768,672Z" fill="#FFFFFF" fill-opacity="1">
  </path>
</svg>