<!-- Exported by Character Map UWP -->
<svg height="100%" viewBox="0 1 1024 1023" width="100%" xmlns="http://www.w3.org/2000/svg" xmlns:xlink="http://www.w3.org/1999/xlink">
  <path d="M1023.5,92C1023.5,103 1021.58,114.25 1017.75,125.75C1013.92,137.25 1008.83,147.5 1002.5,156.5L917,281C849,380.333 776.083,474.75 698.25,564.25C620.417,653.75 537,739.167 448,820.5C447.667,844.5 443.5,866.75 435.5,887.25C427.5,907.75 414.5,926.167 396.5,942.5C381.167,956.5 364,968.583 345,978.75C326,988.917 306.167,997.417 285.5,1004.25C264.833,1011.08 243.75,1016.08 222.25,1019.25C200.75,1022.42 179.833,1024 159.5,1024C150.833,1024 140.333,1023.58 128,1022.75C115.667,1021.92 103,1020.58 90,1018.75C77,1016.92 64.5,1014.83 52.5,1012.5C40.5,1010.17 30.5,1007.5 22.5,1004.5C15.5,1001.83 10,998 6,993C2,988 0,981.667 0,974C0,964.333 3.83333,956.167 11.5,949.5C24.5,938.833 37.8333,928.083 51.5,917.25C65.1667,906.417 77.8333,894.833 89.5,882.5C99.8333,871.833 106.917,859.917 110.75,846.75C114.583,833.583 117.333,819.833 119,805.5C119.333,802.833 119.5,800.667 119.5,799L119.5,794.5C119.167,794.5 119,794.333 119,794C119,793.333 119.083,792.25 119.25,790.75C119.417,789.25 119.833,786.667 120.5,783C122.5,765.333 127.333,748.417 135,732.25C142.667,716.083 152.833,701.667 165.5,689C177.167,677.333 190.417,667.917 205.25,660.75C220.083,653.583 235.5,648.167 251.5,644.5C325.833,544.5 405.5,450 490.5,361C575.5,272 666.167,187.833 762.5,108.5L860.5,28C870.5,19.6667 881.417,13.0834 893.25,8.25C905.083,3.41675 917.5,1.00006 930.5,1C942.833,1.00006 954.667,3.41675 966,8.25C977.333,13.0834 987.25,19.5834 995.75,27.75C1004.25,35.9167 1011,45.5834 1016,56.75C1021,67.9167 1023.5,79.6667 1023.5,92ZM959.5,92.5C959.5,84.8334 956.5,78.3334 950.5,73C944.5,67.6667 937.833,65 930.5,65C924.833,65 919.667,66.1667 915,68.5C910.333,70.8334 905.833,73.8334 901.5,77.5L803,158C714.333,230.333 630.75,307.167 552.25,388.5C473.75,469.833 399.667,555.833 330,646.5C354.667,653.833 376,666.083 394,683.25C412,700.417 425.667,721 435,745C516,669.667 592.25,590.417 663.75,507.25C735.25,424.083 802.167,336.667 864.5,245L949,121C951.667,117 954.083,112.5 956.25,107.5C958.417,102.5 959.5,97.5001 959.5,92.5ZM384,819.5C384,808.833 382.917,798.083 380.75,787.25C378.583,776.417 375.167,766.25 370.5,756.75C365.833,747.25 359.75,738.667 352.25,731C344.75,723.333 335.5,717.333 324.5,713C320.167,711.333 314.583,709.417 307.75,707.25C300.917,705.083 295.167,704 290.5,704C276.5,704 262.083,706.667 247.25,712C232.417,717.333 220,724.833 210,734.5C199,745.167 192,756.75 189,769.25C186,781.75 184,795.167 183,809.5C182.333,820.167 180.667,831.167 178,842.5C175.333,853.833 172.167,864.5 168.5,874.5C164.833,883.833 160.917,892.167 156.75,899.5C152.583,906.833 147.833,913.583 142.5,919.75C137.167,925.917 131.333,931.917 125,937.75C118.667,943.583 111.833,949.5 104.5,955.5C113.5,956.833 122.583,957.917 131.75,958.75C140.917,959.583 150.167,960 159.5,960C173.5,960 188.75,958.917 205.25,956.75C221.75,954.583 238.333,951.167 255,946.5C271.667,941.833 287.75,935.917 303.25,928.75C318.75,921.583 332.5,912.75 344.5,902.25C356.5,891.75 366.083,879.667 373.25,866C380.417,852.333 384,836.833 384,819.5Z" fill="#FFFFFF" fill-opacity="1">
  </path>
</svg>