<!-- Exported by Character Map UWP -->
<svg height="100%" viewBox="0 128 1024 768" width="100%" xmlns="http://www.w3.org/2000/svg" xmlns:xlink="http://www.w3.org/1999/xlink">
  <path d="M898.5,128C915.167,128 931.083,131.417 946.25,138.25C961.417,145.083 974.75,154.25 986.25,165.75C997.75,177.25 1006.92,190.583 1013.75,205.75C1020.58,220.917 1024,236.833 1024,253.5L1024,578.5C1024,595.833 1020.5,612.083 1013.5,627.25C1006.5,642.417 997.167,655.667 985.5,667C973.833,678.333 960.25,687.333 944.75,694C929.25,700.667 913,704 896,704L698.5,704C695.167,713.667 690.5,722.417 684.5,730.25C678.5,738.083 671.5,744.833 663.5,750.5C655.5,756.167 646.833,760.5 637.5,763.5C628.167,766.5 618.333,768 608,768L160,768C147,768 134.667,765.5 123,760.5C111.333,755.5 101.083,748.583 92.25,739.75C83.4167,730.917 76.5,720.667 71.5,709C66.5,697.333 64,685 64,672L64,416C64,403 66.5,390.667 71.5,379C76.5,367.333 83.4167,357.083 92.25,348.25C101.083,339.417 111.333,332.5 123,327.5C134.667,322.5 147,320 160,320L256,320L256,253.5C256,236.833 259.417,220.917 266.25,205.75C273.083,190.583 282.25,177.25 293.75,165.75C305.25,154.25 318.583,145.083 333.75,138.25C348.917,131.417 364.833,128 381.5,128ZM960,256C960,247.333 958.333,239.083 955,231.25C951.667,223.417 947.083,216.583 941.25,210.75C935.417,204.917 928.583,200.333 920.75,197C912.917,193.667 904.667,192 896,192L384,192C375,192 366.667,193.667 359,197C351.333,200.333 344.583,204.917 338.75,210.75C332.917,216.583 328.333,223.333 325,231C321.667,238.667 320,247 320,256L320,320L608,320C621,320 633.333,322.5 645,327.5C656.667,332.5 666.917,339.417 675.75,348.25C684.583,357.083 691.5,367.333 696.5,379C701.5,390.667 704,403 704,416L704,640L896,640C905,640 913.333,638.333 921,635C928.667,631.667 935.417,627.083 941.25,621.25C947.083,615.417 951.667,608.667 955,601C958.333,593.333 960,585 960,576ZM640,416C640,407.333 636.833,399.833 630.5,393.5C624.167,387.167 616.667,384 608,384L160,384C151.333,384 143.833,387.167 137.5,393.5C131.167,399.833 128,407.333 128,416L128,672C128,680.667 131.167,688.167 137.5,694.5C143.833,700.833 151.333,704 160,704L608,704C616.667,704 624.167,700.833 630.5,694.5C636.833,688.167 640,680.667 640,672ZM736,832C744.667,832 752.167,835.167 758.5,841.5C764.833,847.833 768,855.333 768,864C768,872.667 764.833,880.167 758.5,886.5C752.167,892.833 744.667,896 736,896L32,896C23.3333,896 15.8333,892.833 9.5,886.5C3.16667,880.167 0,872.667 0,864C0,855.333 3.16667,847.833 9.5,841.5C15.8333,835.167 23.3333,832 32,832Z" fill="#FFFFFF" fill-opacity="1">
  </path>
</svg>