<!-- Exported by Character Map UWP -->
<svg height="100%" viewBox="0 0 1024 1024" width="100%" xmlns="http://www.w3.org/2000/svg" xmlns:xlink="http://www.w3.org/1999/xlink">
  <path d="M1024,96L1024,352C1024,360.667 1020.83,368.167 1014.5,374.5C1008.17,380.833 1000.67,384 992,384L736,384C727.333,384 719.833,380.833 713.5,374.5C707.167,368.167 704,360.667 704,352C704,343.333 707.167,335.833 713.5,329.5C719.833,323.167 727.333,320 736,320L916.5,320C898.5,281.667 875.5,246.75 847.5,215.25C819.5,183.75 788,156.75 753,134.25C718,111.75 680.25,94.4167 639.75,82.25C599.25,70.0834 557.833,64.0001 515.5,64C474.833,64.0001 435.417,69.3334 397.25,80C359.083,90.6667 323.25,105.833 289.75,125.5C256.25,145.167 225.667,168.583 198,195.75C170.333,222.917 146.583,253.167 126.75,286.5C106.917,319.833 91.5,355.5 80.5,393.5C69.5,431.5 64,471 64,512C64,552 69.3333,590.917 80,628.75C90.6667,666.583 105.833,702.083 125.5,735.25C145.167,768.417 168.833,798.917 196.5,826.75C224.167,854.583 255.167,878.667 289.5,899C323.5,919.333 359.167,934.583 396.5,944.75C433.833,954.917 472.333,960 512,960C520.667,960 528.167,963.167 534.5,969.5C540.833,975.833 544,983.333 544,992C544,1000.67 540.833,1008.17 534.5,1014.5C528.167,1020.83 520.667,1024 512,1024C465,1024 419.667,1017.92 376,1005.75C332.333,993.583 291.583,976.333 253.75,954C215.917,931.667 181.417,904.917 150.25,873.75C119.083,842.583 92.3333,808.083 70,770.25C47.6667,732.417 30.4167,691.667 18.25,648C6.08333,604.333 0,559 0,512C0,465 6.08333,419.667 18.25,376C30.4167,332.333 47.6667,291.583 70,253.75C92.3333,215.917 119.083,181.417 150.25,150.25C181.417,119.083 215.917,92.3334 253.75,70C291.583,47.6667 332.333,30.4167 376,18.25C419.667,6.08337 465,0 512,0C558.333,0 603.583,6.08337 647.75,18.25C691.917,30.4167 733.333,47.9167 772,70.75C810.667,93.5834 846.083,121.333 878.25,154C910.417,186.667 937.667,223.333 960,264L960,96C960,87.3334 963.167,79.8334 969.5,73.5C975.833,67.1667 983.333,64.0001 992,64C1000.67,64.0001 1008.17,67.1667 1014.5,73.5C1020.83,79.8334 1024,87.3334 1024,96ZM704,480L704,736C704,744.667 700.833,752.167 694.5,758.5C688.167,764.833 680.667,768 672,768L352,768C343.333,768 335.833,764.833 329.5,758.5C323.167,752.167 320,744.667 320,736L320,480C320,472.667 321.333,466.917 324,462.75C326.667,458.583 330.25,455.417 334.75,453.25C339.25,451.083 344.25,449.667 349.75,449C355.25,448.333 360.833,448 366.5,448L384,448L384,384C384,366.333 387.333,349.667 394,334C400.667,318.333 409.75,304.75 421.25,293.25C432.75,281.75 446.333,272.667 462,266C477.667,259.333 494.333,256 512,256C529.667,256 546.25,259.333 561.75,266C577.25,272.667 590.833,281.833 602.5,293.5C614.167,305.167 623.333,318.75 630,334.25C636.667,349.75 640,366.333 640,384L640,448L657,448C662.667,448 668.25,448.333 673.75,449C679.25,449.667 684.25,451.083 688.75,453.25C693.25,455.417 696.917,458.583 699.75,462.75C702.583,466.917 704,472.667 704,480ZM448,448L576,448L576,384C576,375.333 574.333,367.083 571,359.25C567.667,351.417 563.083,344.583 557.25,338.75C551.417,332.917 544.583,328.333 536.75,325C528.917,321.667 520.667,320 512,320C503.333,320 495.083,321.667 487.25,325C479.417,328.333 472.583,332.917 466.75,338.75C460.917,344.583 456.333,351.417 453,359.25C449.667,367.083 448,375.333 448,384ZM576,608C576,599.333 574.333,591.083 571,583.25C567.667,575.417 563.083,568.583 557.25,562.75C551.417,556.917 544.583,552.333 536.75,549C528.917,545.667 520.667,544 512,544C503,544 494.667,545.667 487,549C479.333,552.333 472.583,556.917 466.75,562.75C460.917,568.583 456.333,575.333 453,583C449.667,590.667 448,599 448,608C448,617 449.667,625.417 453,633.25C456.333,641.083 460.833,647.833 466.5,653.5C472.167,659.167 478.917,663.667 486.75,667C494.583,670.333 503,672 512,672C521,672 529.333,670.333 537,667C544.667,663.667 551.417,659.083 557.25,653.25C563.083,647.417 567.667,640.667 571,633C574.333,625.333 576,617 576,608Z" fill="#FFFFFF" fill-opacity="1">
  </path>
</svg>