<!-- Exported by Character Map UWP -->
<svg height="100%" viewBox="0 192 1024 704" width="100%" xmlns="http://www.w3.org/2000/svg" xmlns:xlink="http://www.w3.org/1999/xlink">
  <path d="M64,642.5L64,320C64,303 67.3333,286.75 74,271.25C80.6667,255.75 89.6667,242.167 101,230.5C112.333,218.833 125.583,209.5 140.75,202.5C155.917,195.5 172.167,192 189.5,192L832,192C849,192 865.25,195.333 880.75,202C896.25,208.667 909.833,217.667 921.5,229C933.167,240.333 942.5,253.583 949.5,268.75C956.5,283.917 960,300.167 960,317.5L960,640C960,657 956.667,673.25 950,688.75C943.333,704.25 934.333,717.833 923,729.5C911.667,741.167 898.417,750.5 883.25,757.5C868.083,764.5 851.833,768 834.5,768L192,768C175,768 158.75,764.667 143.25,758C127.75,751.333 114.167,742.333 102.5,731C90.8333,719.667 81.5,706.417 74.5,691.25C67.5,676.083 64,659.833 64,642.5ZM832,704C841,704 849.333,702.333 857,699C864.667,695.667 871.417,691.083 877.25,685.25C883.083,679.417 887.667,672.667 891,665C894.333,657.333 896,649 896,640L896,320C896,311.333 894.333,303.083 891,295.25C887.667,287.417 883.083,280.583 877.25,274.75C871.417,268.917 864.583,264.333 856.75,261C848.917,257.667 840.667,256 832,256L192,256C183,256 174.667,257.667 167,261C159.333,264.333 152.583,268.917 146.75,274.75C140.917,280.583 136.333,287.333 133,295C129.667,302.667 128,311 128,320L128,640C128,649 129.667,657.417 133,665.25C136.333,673.083 140.833,679.833 146.5,685.5C152.167,691.167 158.917,695.667 166.75,699C174.583,702.333 183,704 192,704ZM32,896C23.3333,896 15.8333,892.833 9.5,886.5C3.16667,880.167 0,872.667 0,864C0,855.333 3.16667,847.833 9.5,841.5C15.8333,835.167 23.3333,832 32,832L992,832C1000.67,832 1008.17,835.167 1014.5,841.5C1020.83,847.833 1024,855.333 1024,864C1024,872.667 1020.83,880.167 1014.5,886.5C1008.17,892.833 1000.67,896 992,896Z" fill="#FFFFFF" fill-opacity="1">
  </path>
</svg>