<!-- Exported by Character Map UWP -->
<svg height="100%" viewBox="1 131 960 893" width="100%" xmlns="http://www.w3.org/2000/svg" xmlns:xlink="http://www.w3.org/1999/xlink">
  <path d="M64,480C64,525.667 71.3333,570.25 86,613.75C100.667,657.25 122.167,697.167 150.5,733.5C154.833,738.833 159.167,744 163.5,749L173,758.5C177.333,763.5 181.667,768.667 186,774C189.333,778 191.75,781.333 193.25,784C194.75,786.667 195.5,790.833 195.5,796.5C195.5,805.5 192.333,813.083 186,819.25C179.667,825.417 172,828.5 163,828.5C158,828.5 153.917,827.75 150.75,826.25C147.583,824.75 144.167,822.5 140.5,819.5C131.167,812.5 121.333,802.417 111,789.25C100.667,776.083 90.6667,762 81,747C71.3333,732 62.5,716.917 54.5,701.75C46.5,686.583 40.3333,673.5 36,662.5C24.3333,633.167 15.5,603.25 9.5,572.75C3.5,542.25 0.5,511.333 0.5,480C0.5,448.667 3.5,417.833 9.5,387.5C15.5,357.167 24.3333,327.333 36,298C41,285.667 47.3333,272.083 55,257.25C62.6667,242.417 71.0833,227.75 80.25,213.25C89.4167,198.75 99.1667,185.083 109.5,172.25C119.833,159.417 130.167,148.833 140.5,140.5C144.5,137.167 147.917,134.75 150.75,133.25C153.583,131.75 157.833,131 163.5,131C172.167,131 179.667,134.167 186,140.5C192.333,146.833 195.5,154.333 195.5,163C195.5,168.667 194.75,172.917 193.25,175.75C191.75,178.583 189.333,182 186,186C181,192.333 175.833,198.5 170.5,204.5L159.5,216.5C154.167,222.167 149,228.333 144,235C118,270 98.1667,308.667 84.5,351C70.8333,393.333 64,436.333 64,480ZM960,480C960,534.667 951.5,586.167 934.5,634.5C917.5,682.833 892.833,728.833 860.5,772.5C857.167,776.833 853.083,782.167 848.25,788.5C843.417,794.833 838.167,801 832.5,807C826.833,813 821,818.083 815,822.25C809,826.417 803,828.5 797,828.5C788,828.5 780.333,825.417 774,819.25C767.667,813.083 764.5,805.5 764.5,796.5C764.5,791.833 765.333,787.833 767,784.5C768.667,781.167 771,777.667 774,774C777.667,769.333 781.583,765 785.75,761C789.917,757 794,752.833 798,748.5C814,730.833 828.083,711.333 840.25,690C852.417,668.667 862.583,646.417 870.75,623.25C878.917,600.083 885.167,576.333 889.5,552C893.833,527.667 896,503.667 896,480C896,456 893.833,431.917 889.5,407.75C885.167,383.583 878.917,360 870.75,337C862.583,314 852.417,291.833 840.25,270.5C828.083,249.167 814,229.5 798,211.5C794.333,207.167 790.333,203 786,199C781.667,195 777.667,190.667 774,186C771,182.333 768.667,178.75 767,175.25C765.333,171.75 764.5,167.667 764.5,163C764.5,154 767.75,146.417 774.25,140.25C780.75,134.083 788.333,131 797,131C802.333,131 806.417,131.75 809.25,133.25C812.083,134.75 815.5,137.167 819.5,140.5C830.167,149.167 840.667,159.917 851,172.75C861.333,185.583 871.083,199.083 880.25,213.25C889.417,227.417 897.75,241.917 905.25,256.75C912.75,271.583 919,285.333 924,298C935.667,327 944.583,356.75 950.75,387.25C956.917,417.75 960,448.667 960,480ZM331,299C331,304 330.167,308.083 328.5,311.25C326.833,314.417 324.5,317.833 321.5,321.5C311.167,334.833 301.917,347.25 293.75,358.75C285.583,370.25 278.75,382.083 273.25,394.25C267.75,406.417 263.5,419.417 260.5,433.25C257.5,447.083 256,462.667 256,480C256,497.333 257.417,512.917 260.25,526.75C263.083,540.583 267.333,553.583 273,565.75C278.667,577.917 285.5,589.833 293.5,601.5C301.5,613.167 310.833,625.5 321.5,638.5C324.833,642.5 327.25,645.917 328.75,648.75C330.25,651.583 331,655.667 331,661C331,669.667 327.833,677.167 321.5,683.5C315.167,689.833 307.667,693 299,693C294,693 289.917,692.25 286.75,690.75C283.583,689.25 280.167,686.833 276.5,683.5C263.167,672.167 251.25,658.417 240.75,642.25C230.25,626.083 221.417,608.833 214.25,590.5C207.083,572.167 201.583,553.5 197.75,534.5C193.917,515.5 192,497.333 192,480C192,463 193.833,444.917 197.5,425.75C201.167,406.583 206.667,387.75 214,369.25C221.333,350.75 230.167,333.417 240.5,317.25C250.833,301.083 262.833,287.5 276.5,276.5C280.167,273.5 283.417,271.167 286.25,269.5C289.083,267.833 293.333,267 299,267C307.667,267 315.167,270.167 321.5,276.5C327.833,282.833 331,290.333 331,299ZM768,480C768,497.333 766.083,515.5 762.25,534.5C758.417,553.5 752.917,572.167 745.75,590.5C738.583,608.833 729.75,626.083 719.25,642.25C708.75,658.417 696.833,672.167 683.5,683.5C679.833,686.833 676.417,689.25 673.25,690.75C670.083,692.25 666,693 661,693C652.333,693 644.833,689.833 638.5,683.5C632.167,677.167 629,669.667 629,661C629,656 629.833,651.917 631.5,648.75C633.167,645.583 635.5,642.167 638.5,638.5C648.833,625.5 658,613.167 666,601.5C674,589.833 680.833,577.917 686.5,565.75C692.167,553.583 696.5,540.583 699.5,526.75C702.5,512.917 704,497.333 704,480C704,462.667 702.5,447.083 699.5,433.25C696.5,419.417 692.25,406.417 686.75,394.25C681.25,382.083 674.417,370.25 666.25,358.75C658.083,347.25 648.833,334.833 638.5,321.5C635.5,317.833 633.167,314.417 631.5,311.25C629.833,308.083 629,304 629,299C629,290.333 632.167,282.833 638.5,276.5C644.833,270.167 652.333,267 661,267C666,267 670.083,267.75 673.25,269.25C676.417,270.75 679.833,273.167 683.5,276.5C697.167,288.167 709.25,302 719.75,318C730.25,334 739.083,351.167 746.25,369.5C753.417,387.833 758.833,406.5 762.5,425.5C766.167,444.5 768,462.667 768,480ZM576,480C576,490.333 574.5,500.167 571.5,509.5C568.5,518.833 564.167,527.5 558.5,535.5C552.833,543.5 546.083,550.5 538.25,556.5C530.417,562.5 521.667,567.167 512,570.5L512,992C512,1000.67 508.833,1008.17 502.5,1014.5C496.167,1020.83 488.667,1024 480,1024C471.333,1024 463.833,1020.83 457.5,1014.5C451.167,1008.17 448,1000.67 448,992L448,570.5C438.333,567.167 429.583,562.5 421.75,556.5C413.917,550.5 407.167,543.5 401.5,535.5C395.833,527.5 391.5,518.833 388.5,509.5C385.5,500.167 384,490.333 384,480C384,467 386.5,454.667 391.5,443C396.5,431.333 403.417,421.083 412.25,412.25C421.083,403.417 431.333,396.5 443,391.5C454.667,386.5 467,384 480,384C493,384 505.333,386.5 517,391.5C528.667,396.5 538.917,403.417 547.75,412.25C556.583,421.083 563.5,431.333 568.5,443C573.5,454.667 576,467 576,480ZM512,480C512,471.333 508.833,463.833 502.5,457.5C496.167,451.167 488.667,448 480,448C471.333,448 463.833,451.167 457.5,457.5C451.167,463.833 448,471.333 448,480C448,488.667 451.167,496.167 457.5,502.5C463.833,508.833 471.333,512 480,512C488.667,512 496.167,508.833 502.5,502.5C508.833,496.167 512,488.667 512,480Z" fill="#FFFFFF" fill-opacity="1">
  </path>
</svg>