<!-- Exported by Character Map UWP -->
<svg height="100%" viewBox="128 64 769 895" width="100%" xmlns="http://www.w3.org/2000/svg" xmlns:xlink="http://www.w3.org/1999/xlink">
  <path d="M192,352C192,312.333 199.583,275 214.75,240C229.917,205 250.5,174.5 276.5,148.5C302.5,122.5 333,101.917 368,86.75C403,71.5834 440.333,64.0001 480,64C506.333,64.0001 531.75,67.4167 556.25,74.25C580.75,81.0834 603.667,90.75 625,103.25C646.333,115.75 665.833,130.833 683.5,148.5C701.167,166.167 716.25,185.667 728.75,207C741.25,228.333 750.917,251.25 757.75,275.75C764.583,300.25 768,325.667 768,352C768,355.667 767.917,359.25 767.75,362.75C767.583,366.25 767.333,369.833 767,373.5L704,362.5L704,348C704,317.667 697.917,289.167 685.75,262.5C673.583,235.833 657.25,212.5 636.75,192.5C616.25,172.5 592.417,156.75 565.25,145.25C538.083,133.75 509.667,128 480,128C450.333,128 421.917,133.75 394.75,145.25C367.583,156.75 343.75,172.5 323.25,192.5C302.75,212.5 286.417,235.833 274.25,262.5C262.083,289.167 256,317.667 256,348C256,368.333 258.167,387.583 262.5,405.75C266.833,423.917 273.833,442 283.5,460L278.5,460C257.833,460 237.167,462.833 216.5,468.5C200.167,431.167 192,392.333 192,352ZM581,959C567,959 553.5,957 540.5,953C527.5,949 515.417,943.333 504.25,936C493.083,928.667 482.75,920.167 473.25,910.5C463.75,900.833 455.333,890.167 448,878.5C433.333,855.5 416.917,834.833 398.75,816.5C380.583,798.167 360.333,781.167 338,765.5C323.333,755.5 308.833,747.167 294.5,740.5C280.167,733.833 265.667,728.25 251,723.75C236.333,719.25 221.167,715.5 205.5,712.5C189.833,709.5 173.5,706.667 156.5,704C147.833,702.667 140.917,699.167 135.75,693.5C130.583,687.833 128,680.667 128,672C128,670 128.333,667.333 129,664C133.333,644.667 140.333,627.5 150,612.5C159.667,597.5 171.333,584.833 185,574.5C198.667,564.167 214.083,556.333 231.25,551C248.417,545.667 266.833,543 286.5,543C303.167,543 319.583,544.5 335.75,547.5C351.917,550.5 368,554.667 384,560L384,288C384,275 386.5,262.667 391.5,251C396.5,239.333 403.417,229.083 412.25,220.25C421.083,211.417 431.333,204.5 443,199.5C454.667,194.5 467,192 480,192C493,192 505.333,194.5 517,199.5C528.667,204.5 538.917,211.417 547.75,220.25C556.583,229.083 563.5,239.333 568.5,251C573.5,262.667 576,275 576,288L576,421L764,454C783,457.333 800.583,463.833 816.75,473.5C832.917,483.167 846.917,495 858.75,509C870.583,523 879.833,538.75 886.5,556.25C893.167,573.75 896.5,592.167 896.5,611.5C896.5,630.167 893.167,648.667 886.5,667L823.5,838C813.5,865 797.667,887.5 776,905.5C754.333,923.5 729.333,935 701,940L603.5,957C596.833,958.333 589.333,959 581,959ZM832.5,612C832.5,600.333 830.5,589.25 826.5,578.75C822.5,568.25 817,558.75 810,550.25C803,541.75 794.583,534.583 784.75,528.75C774.917,522.917 764.333,519 753,517L538.5,479.5C530.833,478.167 524.5,474.5 519.5,468.5C514.5,462.5 512,455.667 512,448L512,288C512,279.333 508.833,271.833 502.5,265.5C496.167,259.167 488.667,256 480,256C471.333,256 463.833,259.167 457.5,265.5C451.167,271.833 448,279.333 448,288L448,608C448,617 444.917,624.583 438.75,630.75C432.583,636.917 425,640 416,640C413,640 410.5,639.75 408.5,639.25C406.5,638.75 404.167,637.833 401.5,636.5C383.5,628.167 365.083,621.167 346.25,615.5C327.417,609.833 308,607 288,607C270.333,607 254.5,609.833 240.5,615.5C226.5,621.167 214.5,631.5 204.5,646.5C268.5,658.167 325.25,680.333 374.75,713C424.25,745.667 466.667,789.5 502,844.5C506.333,851.167 511.333,857.5 517,863.5C522.667,869.5 529,874.833 536,879.5C543,884.167 550.333,887.917 558,890.75C565.667,893.583 573.667,895 582,895C583.667,895 585.5,894.917 587.5,894.75C589.5,894.583 591.333,894.333 593,894L690,877C707,874 722,867 735,856C748,845 757.5,831.5 763.5,815.5L826.5,645C830.5,634.667 832.5,623.667 832.5,612Z" fill="#FFFFFF" fill-opacity="1">
  </path>
</svg>