<!-- Exported by Character Map UWP -->
<svg height="100%" viewBox="0 0 1024 1024" width="100%" xmlns="http://www.w3.org/2000/svg" xmlns:xlink="http://www.w3.org/1999/xlink">
  <path d="M1024,512C1024,559.333 1017.92,604.833 1005.75,648.5C993.583,692.167 976.417,732.917 954.25,770.75C932.083,808.583 905.417,843.083 874.25,874.25C843.083,905.417 808.583,932.083 770.75,954.25C732.917,976.417 692.167,993.583 648.5,1005.75C604.833,1017.92 559.333,1024 512,1024C464.667,1024 419.167,1017.92 375.5,1005.75C331.833,993.583 291,976.417 253,954.25C215,932.083 180.5,905.5 149.5,874.5C118.5,843.5 91.9167,809 69.75,771C47.5833,733 30.4167,692.167 18.25,648.5C6.08333,604.833 0,559.333 0,512C0,503.333 3.16667,495.833 9.5,489.5C15.8333,483.167 23.3333,480 32,480C40.6667,480 48.1667,483.167 54.5,489.5C60.8333,495.833 64,503.333 64,512C64,552 68.9167,590.917 78.75,628.75C88.5833,666.583 103.667,702.667 124,737C144.333,771.667 168.5,802.75 196.5,830.25C224.5,857.75 255.167,881.167 288.5,900.5C321.833,919.833 357.417,934.583 395.25,944.75C433.083,954.917 472,960 512,960C553.333,960 593.083,954.667 631.25,944C669.417,933.333 705.083,918.25 738.25,898.75C771.417,879.25 801.583,855.917 828.75,828.75C855.917,801.583 879.25,771.417 898.75,738.25C918.25,705.083 933.333,669.417 944,631.25C954.667,593.083 960,553.333 960,512C960,471 954.667,431.417 944,393.25C933.333,355.083 918.25,319.417 898.75,286.25C879.25,253.083 855.833,222.833 828.5,195.5C801.167,168.167 770.917,144.75 737.75,125.25C704.583,105.75 668.917,90.6667 630.75,80C592.583,69.3334 553,64.0001 512,64C475.333,64.0001 439.5,68.4167 404.5,77.25C369.5,86.0834 336.25,98.75 304.75,115.25C273.25,131.75 243.917,151.833 216.75,175.5C189.583,199.167 165.5,226 144.5,256L352,256C360.667,256 368.167,259.167 374.5,265.5C380.833,271.833 384,279.333 384,288C384,296.667 380.833,304.167 374.5,310.5C368.167,316.833 360.667,320 352,320L96,320C89,320 83.3333,318.583 79,315.75C74.6667,312.917 71.3333,309.25 69,304.75C66.6667,300.25 65.1667,295.25 64.5,289.75C63.8333,284.25 63.5,278.667 63.5,273C63.5,252.667 63.5,232.5 63.5,212.5L64,92.5C64,72.1667 64,52 64,32C64,23.3334 67.1667,15.8334 73.5,9.5C79.8333,3.16669 87.3333,0 96,0C104.667,0 112.167,3.16669 118.5,9.5C124.833,15.8334 128,23.3334 128,32L128,173.5C152.333,146.167 179.167,121.667 208.5,100C237.833,78.3334 268.833,60.1667 301.5,45.5C334.167,30.8334 368.167,19.5834 403.5,11.75C438.833,3.91669 475,0 512,0C559,0 604.333,6.08337 648,18.25C691.667,30.4167 732.5,47.5834 770.5,69.75C808.5,91.9167 843.083,118.583 874.25,149.75C905.417,180.917 932.083,215.5 954.25,253.5C976.417,291.5 993.583,332.333 1005.75,376C1017.92,419.667 1024,465 1024,512Z" fill="#FFFFFF" fill-opacity="1">
  </path>
</svg>