<!-- Exported by Character Map UWP -->
<svg height="100%" viewBox="0 0 1024 1024" width="100%" xmlns="http://www.w3.org/2000/svg" xmlns:xlink="http://www.w3.org/1999/xlink">
  <path d="M192,256C192,220.667 198.667,187.417 212,156.25C225.333,125.083 243.583,97.9167 266.75,74.75C289.917,51.5834 317.083,33.3334 348.25,20C379.417,6.66669 412.667,0 448,0C483.333,0 516.583,6.66669 547.75,20C578.917,33.3334 606.083,51.5834 629.25,74.75C652.417,97.9167 670.667,125.083 684,156.25C697.333,187.417 704,220.667 704,256C704,291.333 697.333,324.583 684,355.75C670.667,386.917 652.417,414.083 629.25,437.25C606.083,460.417 578.917,478.667 547.75,492C516.583,505.333 483.333,512 448,512C412.667,512 379.417,505.333 348.25,492C317.083,478.667 289.917,460.417 266.75,437.25C243.583,414.083 225.333,386.917 212,355.75C198.667,324.583 192,291.333 192,256ZM448,64C421.333,64.0001 396.417,69.0001 373.25,79C350.083,89.0001 329.75,102.75 312.25,120.25C294.75,137.75 281,158.167 271,181.5C261,204.833 256,229.667 256,256C256,282.667 261,307.583 271,330.75C281,353.917 294.75,374.25 312.25,391.75C329.75,409.25 350.083,423 373.25,433C396.417,443 421.333,448 448,448C474.333,448 499.167,443 522.5,433C545.833,423 566.25,409.25 583.75,391.75C601.25,374.25 615,353.917 625,330.75C635,307.583 640,282.667 640,256C640,229.667 635,204.833 625,181.5C615,158.167 601.25,137.75 583.75,120.25C566.25,102.75 545.833,89.0001 522.5,79C499.167,69.0001 474.333,64.0001 448,64ZM949.5,288C958.833,288 967.917,289.917 976.75,293.75C985.583,297.583 993.5,302.75 1000.5,309.25C1007.5,315.75 1013.08,323.333 1017.25,332C1021.42,340.667 1023.5,349.667 1023.5,359C1023.5,368.667 1022,378.083 1019,387.25C1016,396.417 1011.83,404.833 1006.5,412.5L941,508.5C902.333,565.167 861.25,619.5 817.75,671.5C774.25,723.5 728,773.333 679,821C674.333,801.333 667.167,783.083 657.5,766.25C647.833,749.417 636.083,734.5 622.25,721.5C608.417,708.5 592.75,697.833 575.25,689.5C557.75,681.167 539,675.667 519,673C563.667,617.667 610.667,565 660,515C709.333,465 761.5,417.5 816.5,372.5L893.5,309.5C901.5,302.833 910.25,297.583 919.75,293.75C929.25,289.917 939.167,288 949.5,288ZM64,704C64,732.333 68.25,758.25 76.75,781.75C85.25,805.25 97.25,826.333 112.75,845C128.25,863.667 146.583,879.917 167.75,893.75C188.917,907.583 212.333,919.167 238,928.5C228,944.167 223,960.667 223,978C223,982.333 223.333,986.667 224,991C191,980 160.833,965.583 133.5,947.75C106.167,929.917 82.5833,909 62.75,885C42.9167,861 27.5,833.833 16.5,803.5C5.5,773.167 0,740 0,704C0,686.333 3.33333,669.75 10,654.25C16.6667,638.75 25.8333,625.167 37.5,613.5C49.1667,601.833 62.75,592.667 78.25,586C93.75,579.333 110.333,576 128,576L517,576C508,586.667 499.083,597.333 490.25,608C481.417,618.667 472.667,629.333 464,640L128,640C119,640 110.667,641.667 103,645C95.3333,648.333 88.5833,652.917 82.75,658.75C76.9167,664.583 72.3333,671.333 69,679C65.6667,686.667 64,695 64,704ZM287.5,978.5C287.5,969.5 291.167,961.667 298.5,955C307.833,946.333 317.583,938.333 327.75,931C337.917,923.667 347.167,915.167 355.5,905.5C360.5,899.5 364.083,892.667 366.25,885C368.417,877.333 369.833,869.667 370.5,862C371.5,851 373,840.75 375,831.25C377,821.75 379.833,812.833 383.5,804.5C387.167,796.167 392,788.333 398,781C404,773.667 411.833,766.667 421.5,760C432.5,752.333 444.417,746.333 457.25,742C470.083,737.667 483.167,735.5 496.5,735.5C515.5,735.5 532.667,739.167 548,746.5C563.333,753.833 576.333,763.75 587,776.25C597.667,788.75 605.833,803.167 611.5,819.5C617.167,835.833 620,853 620,871C620,898 613.25,921.167 599.75,940.5C586.25,959.833 569.167,975.667 548.5,988C527.833,1000.33 505.083,1009.42 480.25,1015.25C455.417,1021.08 431.5,1024 408.5,1024C402.167,1024 394.5,1023.67 385.5,1023C376.5,1022.33 367.417,1021.42 358.25,1020.25C349.083,1019.08 340.167,1017.58 331.5,1015.75C322.833,1013.92 315.5,1012 309.5,1010C294.833,1004.67 287.5,994.167 287.5,978.5Z" fill="#FFFFFF" fill-opacity="1">
  </path>
</svg>