<!-- Exported by Character Map UWP -->
<svg height="100%" viewBox="0 0 1024 1024" width="100%" xmlns="http://www.w3.org/2000/svg" xmlns:xlink="http://www.w3.org/1999/xlink">
  <path d="M317.5,1024C300.833,1024 284.917,1020.58 269.75,1013.75C254.583,1006.92 241.25,997.75 229.75,986.25C218.25,974.75 209.083,961.417 202.25,946.25C195.417,931.083 192,915.167 192,898.5L192,125.5C192,108.833 195.417,92.9167 202.25,77.75C209.083,62.5834 218.25,49.2501 229.75,37.75C241.25,26.2501 254.583,17.0834 269.75,10.25C284.917,3.41669 300.833,0 317.5,0L706.5,0C723.167,0 739.083,3.41669 754.25,10.25C769.417,17.0834 782.75,26.2501 794.25,37.75C805.75,49.2501 814.917,62.5834 821.75,77.75C828.583,92.9167 832,108.833 832,125.5L832,898.5C832,915.167 828.583,931.083 821.75,946.25C814.917,961.417 805.75,974.75 794.25,986.25C782.75,997.75 769.417,1006.92 754.25,1013.75C739.083,1020.58 723.167,1024 706.5,1024ZM704,960C713,960 721.333,958.333 729,955C736.667,951.667 743.417,947.083 749.25,941.25C755.083,935.417 759.667,928.667 763,921C766.333,913.333 768,905 768,896L768,128C768,119.333 766.333,111.083 763,103.25C759.667,95.4167 755.083,88.5834 749.25,82.75C743.417,76.9167 736.583,72.3334 728.75,69C720.917,65.6667 712.667,64.0001 704,64L320,64C311,64.0001 302.667,65.6667 295,69C287.333,72.3334 280.583,76.9167 274.75,82.75C268.917,88.5834 264.333,95.3334 261,103C257.667,110.667 256,119 256,128L256,896C256,905 257.667,913.417 261,921.25C264.333,929.083 268.833,935.833 274.5,941.5C280.167,947.167 286.917,951.667 294.75,955C302.583,958.333 311,960 320,960ZM9,580.5C9,565.5 11.4167,551.833 16.25,539.5C21.0833,527.167 26.3333,515.583 32,504.75C37.6667,493.917 42.9167,483.5 47.75,473.5C52.5833,463.5 55,453.5 55,443.5C55,435.5 53.5,427.667 50.5,420L2.5,300C0.833333,295.667 0,291.5 0,287.5C0,278.5 3.25,271 9.75,265C16.25,259 23.8333,256 32.5,256C39.1667,256 45,257.833 50,261.5C55,265.167 58.8333,270 61.5,276L109.5,396C115.833,411 119,426.833 119,443.5C119,458.5 116.583,472.083 111.75,484.25C106.917,496.417 101.667,507.917 96,518.75C90.3333,529.583 85.0833,540 80.25,550C75.4167,560 73,570.333 73,581C73,589 74.5,596.667 77.5,604L125.5,724C127.167,728.333 128,732.5 128,736.5C128,745.167 124.833,752.583 118.5,758.75C112.167,764.917 104.667,768 96,768C89.3333,768 83.3333,766.167 78,762.5C72.6667,758.833 68.8333,754 66.5,748L18.5,628C12.1667,613 9,597.167 9,580.5ZM905.5,580C905.5,565 907.833,551.333 912.5,539C917.167,526.667 922.417,515.083 928.25,504.25C934.083,493.417 939.333,483.083 944,473.25C948.667,463.417 951,453.5 951,443.5C951,435.5 949.5,427.667 946.5,420L898.5,300C896.833,296 896,292 896,288C896,278.667 899.083,271 905.25,265C911.417,259 919.167,256 928.5,256C935.167,256 941,257.833 946,261.5C951,265.167 954.833,270 957.5,276L1005.5,396C1011.83,411 1015,426.833 1015,443.5C1015,458.5 1012.58,472.167 1007.75,484.5C1002.92,496.833 997.667,508.417 992,519.25C986.333,530.083 981.083,540.5 976.25,550.5C971.417,560.5 969,570.5 969,580.5C969,588.833 970.5,596.667 973.5,604L1021.5,724C1023.17,728.333 1024,732.5 1024,736.5C1024,745.167 1020.83,752.583 1014.5,758.75C1008.17,764.917 1000.67,768 992,768C985.333,768 979.333,766.167 974,762.5C968.667,758.833 964.833,754 962.5,748L914.5,628C908.5,613 905.5,597 905.5,580ZM448,832C439.333,832 431.833,828.833 425.5,822.5C419.167,816.167 416,808.667 416,800C416,791.333 419.167,783.833 425.5,777.5C431.833,771.167 439.333,768 448,768L576,768C584.667,768 592.167,771.167 598.5,777.5C604.833,783.833 608,791.333 608,800C608,808.667 604.833,816.167 598.5,822.5C592.167,828.833 584.667,832 576,832Z" fill="#FFFFFF" fill-opacity="1">
  </path>
</svg>